<svg width="414" height="672" viewBox="0 0 414 672" fill="none" xmlns="http://www.w3.org/2000/svg">
<path d="M113.848 -168.491C301.132 -174.175 557.93 73.6583 563.145 80.8424C658.585 181.317 524.413 252.883 423.939 348.323C406.527 342.465 398.596 368.687 299.984 314.012C281.619 303.83 231.235 268.368 182.741 273.792C134.246 279.216 104.798 333.817 32.3851 328.37C0.992324 326.009 -66.5646 306.613 -141.278 247.554C-215.991 188.496 -20.1727 -116.967 113.848 -168.491Z" fill="url(#paint0_linear)"/>
<g opacity="0.52">
<path d="M472.433 220.579C446.501 217.202 423.442 235.818 408.331 252.575C407.15 253.887 405.951 255.22 404.764 256.566C388.636 274.615 371.965 293.276 346.712 296.116C322.522 298.84 299.857 285.634 277.95 272.859C254.769 259.38 230.913 245.45 205.659 250.956C194.177 253.455 184.613 259.792 175.353 265.911C168.918 270.173 162.259 274.573 154.964 277.721C117.799 293.617 78.8219 274.951 52.7354 259.551C50.0992 257.943 47.1742 256.463 44.1509 254.849C36.3352 250.754 27.4864 246.114 21.7865 239.998C18.5173 236.484 16.76 231.281 15.0694 226.24C12.753 219.331 10.3442 212.171 3.92301 209.186C-0.158401 207.339 -4.50609 206.032 -8.97356 205.31C-24.0121 202.809 -40.1594 206.251 -54.587 210.295L-58.3489 211.353C-76.0693 216.369 -94.4061 221.551 -112.559 217.422C-126.072 214.356 -137.597 206.417 -148.736 198.73C-150.379 197.591 -152.036 196.451 -153.697 195.332L-153.816 196.049C-152.252 197.105 -150.716 198.167 -149.18 199.229C-137.965 206.941 -126.371 214.949 -112.704 218.052C-94.3558 222.215 -75.9222 217.013 -58.0844 211.935L-54.3355 210.874C-35.8108 205.688 -14.4397 201.49 3.60704 209.718C9.7496 212.528 12.1029 219.538 14.3862 226.326C16.0934 231.427 17.8673 236.692 21.2366 240.327C27.0255 246.552 35.9357 251.226 43.7997 255.352C46.8769 256.963 49.7813 258.486 52.3879 260.031C67.9086 269.207 87.952 279.509 109.501 283.093C124.396 285.57 139.987 284.83 155.354 278.277C162.702 275.126 169.391 270.707 175.856 266.427C185.057 260.345 194.559 254.056 205.921 251.549C230.91 246.116 253.571 259.345 277.612 273.364C299.643 286.195 322.408 299.522 346.88 296.717C372.419 293.843 389.187 275.081 405.385 256.938L408.965 252.95C423.95 236.3 446.78 217.857 472.373 221.177L472.433 220.579Z" fill="white"/>
<path d="M474.796 206.368C472.378 206.158 469.977 205.759 467.622 205.175C466.501 204.918 465.329 204.641 464.187 204.428C447.487 201.218 430.062 207.593 412.498 223.416C407.829 227.663 403.47 232.166 399.444 236.902L396.735 240.076C382.055 257.303 365.413 276.834 341.239 280.671C335.325 281.597 329.23 281.619 323.217 280.738C308.291 278.688 293.914 271.889 280.542 264.836C277.32 263.131 274.044 261.346 270.88 259.616C258.617 252.899 245.809 245.916 232.963 242.54C223.71 239.907 213.919 239.558 204.683 241.533C193.567 244.01 184.21 250.066 175.154 255.927C168.799 260.027 162.24 264.303 155.123 267.271C143.963 272.051 131.369 273.929 118.763 272.695C96.092 270.55 74.4383 259.149 55.9289 248.634C53.0323 246.983 49.7725 245.424 46.461 243.774C38.8044 240.01 30.8877 236.121 25.3584 230.91C22.062 227.801 20.1282 223.176 18.2759 218.706C15.7007 212.548 13.046 206.143 6.72598 203.595C2.99791 202.088 -0.912437 200.998 -4.91062 200.35C-11.8917 199.294 -18.9644 199.106 -25.9187 199.791C-34.108 200.572 -42.1855 201.926 -50.0752 203.842C-52.661 204.426 -55.2592 205.03 -57.8699 205.656C-62.5755 206.756 -67.4226 207.903 -72.2749 208.92C-83.0204 211.179 -94.5221 212.996 -105.876 211.108L-106.019 211.084C-110.243 210.353 -114.374 209.183 -118.325 207.599C-126.526 204.376 -134.375 199.516 -141.944 194.82C-145.399 192.667 -148.927 190.466 -152.595 188.383L-152.716 189.111C-149.173 191.139 -145.713 193.269 -142.306 195.391C-134.701 200.105 -126.828 204.981 -118.563 208.226C-114.576 209.839 -110.403 211.032 -106.135 211.778L-105.991 211.802C-94.5074 213.712 -82.9089 211.876 -72.0944 209.605C-67.2291 208.59 -62.369 207.445 -57.6615 206.334C-55.0564 205.715 -52.4532 205.107 -49.8798 204.518C-42.0214 202.63 -33.9792 201.297 -25.8277 200.531C-12.9472 199.434 -2.39367 200.663 6.42638 204.27C12.4545 206.723 14.9391 212.702 17.5736 218.986C19.4945 223.527 21.3909 228.216 24.8713 231.425C30.4822 236.708 38.4603 240.631 46.167 244.415C49.5326 246.062 52.7104 247.631 55.5848 249.255C72.4944 258.849 92.0222 269.195 112.607 272.618C114.639 272.956 116.694 273.227 118.763 273.419C131.5 274.664 144.222 272.762 155.496 267.929C162.689 264.904 169.272 260.643 175.642 256.534C184.638 250.711 193.948 244.693 204.927 242.24C214.045 240.253 223.722 240.567 232.875 243.146C245.628 246.436 258.315 253.422 270.605 260.143C273.775 261.839 277.045 263.658 280.267 265.363C293.7 272.45 308.193 279.28 323.221 281.358C329.315 282.243 335.49 282.218 341.484 281.285C365.921 277.398 382.666 257.732 397.421 240.459C398.313 239.438 399.232 238.34 400.129 237.285C404.122 232.571 408.443 228.084 413.068 223.85C430.459 208.185 447.63 201.885 464.115 205.024C465.234 205.21 466.389 205.507 467.511 205.764C469.879 206.368 472.293 206.793 474.726 207.034L474.796 206.368Z" fill="white"/>
<path d="M480.367 172.87C480.234 173.105 480.09 173.326 479.971 173.564C479.51 174.399 479.067 175.296 478.622 176.204C476.161 181.185 473.374 186.838 466.049 188.484C462.31 189.324 458.402 188.604 454.625 187.905C453.466 187.713 452.268 187.514 451.109 187.321C435.325 185.035 419.048 191.916 402.71 207.768C398.384 212.029 394.334 216.504 390.579 221.174L388.85 223.365C374.842 240.656 358.964 260.256 335.846 265.146C330.316 266.283 324.576 266.627 318.843 266.166C306.869 265.273 294.213 261.403 277.808 253.6C273.504 251.563 269.155 249.308 264.926 247.143C253.958 241.484 242.632 235.648 231.182 232.808C222.133 230.398 212.614 230.194 203.663 232.219C192.938 234.68 183.773 240.464 174.909 246.052C168.674 249.997 162.216 254.068 155.247 256.954C144.381 261.58 132.107 263.327 119.861 261.991C99.4118 259.759 80.2917 249.377 61.807 239.357L59.083 237.875C55.8348 236.165 52.259 234.495 48.4768 232.778C41.4607 229.589 34.2085 226.29 28.9391 222.011C25.6136 219.318 23.5052 215.26 21.4653 211.355C18.6572 205.953 15.7472 200.359 9.54535 198.147C6.21951 196.966 2.77806 196.088 -0.723366 195.527C-7.86708 194.458 -15.0951 194.167 -22.2424 194.661C-30.1076 195.139 -37.9062 196.073 -45.5877 197.456C-52.5675 198.633 -59.5629 200.066 -66.9678 201.547L-67.2024 201.59C-78.3591 203.827 -88.8921 205.934 -99.5147 204.799C-103.468 204.361 -107.37 203.516 -111.138 202.281C-119.395 199.634 -127.097 195.418 -135.266 190.949C-140.498 188.056 -145.959 185.09 -151.622 182.534L-151.734 183.206C-146.171 185.721 -140.847 188.629 -135.611 191.5C-127.406 195.986 -119.667 200.22 -111.334 202.892C-107.503 204.15 -103.536 205.01 -99.5165 205.454C-88.7488 206.601 -78.1599 204.48 -66.9473 202.229L-66.7128 202.186C-59.3078 200.705 -52.3181 199.306 -45.3606 198.101C-37.7237 196.721 -29.9698 195.788 -22.1493 195.308C-9.17495 194.613 0.813269 195.701 9.25899 198.743C15.1633 200.894 17.8958 206.025 20.7686 211.601C22.7861 215.562 24.978 219.68 28.4204 222.474C33.7605 226.811 41.0628 230.131 48.1291 233.34C51.8593 235.048 55.4556 236.675 58.6721 238.415L61.4091 239.899C78.5912 249.222 96.3642 258.855 115.27 261.999C116.754 262.246 118.225 262.491 119.731 262.612C132.11 263.967 144.518 262.202 155.5 257.523C162.526 254.622 169.015 250.521 175.278 246.57C184.083 241.018 193.213 235.275 203.801 232.838C212.626 230.841 222.012 231.039 230.935 233.41C242.255 236.228 253.583 242.052 264.463 247.674C268.69 249.85 273.093 252.102 277.382 254.149C293.887 261.992 306.62 265.887 318.7 266.785C324.497 267.26 330.303 266.91 335.892 265.75C359.273 260.81 375.233 241.119 389.31 223.734L391.095 221.528C394.837 216.878 398.87 212.42 403.178 208.173C419.342 192.48 435.408 185.668 450.929 187.922C452.074 188.113 453.272 188.312 454.418 188.503C458.313 189.22 462.273 189.949 466.166 189.065C473.825 187.345 476.688 181.554 479.209 176.454C479.437 175.966 479.675 175.502 479.912 175.039L480.367 172.87Z" fill="white"/>
<path d="M484.458 148.27C476.961 150.145 470.861 153.679 467.214 158.627C466.731 159.283 466.252 159.987 465.755 160.723C462.975 164.809 459.827 169.419 452.479 170.956C448.917 171.697 445.255 171.193 441.709 170.709C440.498 170.507 439.235 170.379 438.011 170.257C422.91 168.857 408.165 176.016 392.89 192.15C389.204 196.051 385.536 200.41 381.681 205.487L380.893 206.525C367.543 223.961 352.415 243.721 330.291 249.711C325.165 251.085 319.802 251.769 314.378 251.742C302.405 251.727 289.88 248.837 274.993 242.526C269.867 240.364 264.68 237.841 259.655 235.392C249.815 230.598 239.629 225.63 229.365 223.222C220.543 221.011 211.31 220.923 202.647 222.964C192.299 225.406 183.342 230.909 174.696 236.23C168.62 240.203 162.152 243.704 155.361 246.695C144.789 251.164 132.835 252.775 120.951 251.333C103.569 249.167 87.3709 240.522 71.699 232.174C68.5941 230.488 65.3849 228.785 62.2258 227.184C58.526 225.294 54.3624 223.538 50.2916 221.867C43.9699 219.249 37.4363 216.537 32.5123 213.157C29.1616 210.858 26.8729 207.402 24.6621 204.041C21.6062 199.405 18.4429 194.611 12.3703 192.747C9.62946 191.916 6.82998 191.267 3.99597 190.805C-3.45381 189.713 -10.9791 189.308 -18.4563 189.597C-26.0121 189.779 -33.5353 190.304 -40.9962 191.169C-48.2263 192.001 -55.1163 193.041 -62.0258 194.36C-63.9882 194.735 -65.9346 195.121 -67.8648 195.517C-76.45 197.176 -84.7505 198.812 -92.8911 198.523C-96.6108 198.376 -100.318 197.854 -103.939 196.966C-112.406 194.938 -120.529 191.085 -129.047 187.026C-136.081 183.521 -143.361 180.439 -150.835 177.801L-150.943 178.45C-143.568 181.061 -136.385 184.111 -129.446 187.579C-120.762 191.678 -112.653 195.54 -104.117 197.638C-100.438 198.547 -96.6691 199.079 -92.8875 199.225C-84.6017 199.527 -76.3775 197.866 -67.6543 196.101C-65.7309 195.72 -63.7777 195.319 -61.8153 194.944C-54.9077 193.637 -48.038 192.558 -40.8546 191.765C-33.4163 190.906 -25.9161 190.385 -18.3835 190.205C-8.98351 190.003 2.04737 190.212 12.1826 193.312C17.9745 195.094 20.9358 199.574 24.0566 204.302C26.3119 207.718 28.6302 211.237 32.1146 213.617C37.111 217.044 43.6818 219.774 50.022 222.442C54.0779 224.122 58.2713 225.86 61.895 227.725C65.0503 229.349 68.248 231.121 71.3681 232.715C86.2279 240.635 101.567 248.811 117.986 251.541C118.962 251.704 119.926 251.864 120.912 251.969C132.941 253.417 145.035 251.772 155.726 247.235C162.578 244.202 169.102 240.656 175.231 236.635C183.832 231.341 192.729 225.875 202.963 223.473C211.506 221.461 220.609 221.545 229.31 223.715C239.482 226.109 249.618 231.057 259.408 235.83C264.433 238.28 269.631 240.816 274.784 242.983C289.791 249.29 302.411 252.254 314.492 252.264C319.983 252.31 325.416 251.637 330.613 250.268C353.028 244.22 368.172 224.358 381.59 206.84L382.365 205.799C386.214 200.757 389.866 196.418 393.55 192.529C408.623 176.56 423.168 169.473 438.005 170.853C439.218 170.961 440.409 171.124 441.678 171.3C445.288 171.795 449.018 172.298 452.731 171.536C460.356 169.939 463.599 165.158 466.441 161.024C466.921 160.309 467.398 159.616 467.887 158.926C471.339 154.261 477.255 150.872 484.378 148.993L484.458 148.27Z" fill="white"/>
<path d="M486.408 136.55C472.862 135.127 460.906 137.664 454.445 143.688C453.891 144.203 453.345 144.756 452.833 145.337C449.732 148.458 446.24 151.993 438.945 153.376C435.657 153.862 432.28 153.888 428.937 153.454C427.618 153.34 426.297 153.237 424.969 153.18C410.829 152.676 397.179 160.251 383.192 176.529C379.876 180.374 376.481 184.697 372.883 189.758C360.315 207.242 346.073 227.067 324.911 234.189C320.166 235.768 315.171 236.763 310.062 237.145C298.157 238.088 285.819 236.165 272.319 231.254C266.571 229.128 260.75 226.477 255.12 223.88C246.199 219.754 236.979 215.496 227.682 213.47C219.084 211.466 210.134 211.491 201.752 213.543C191.784 215.954 183.086 221.185 174.607 226.229C168.596 230.036 162.221 233.391 155.544 236.26C145.267 240.575 133.631 242.05 122.111 240.499C106.956 238.376 92.9434 230.831 79.3565 223.543C74.8115 221.104 70.1066 218.579 65.4271 216.304C61.0037 214.254 56.4684 212.411 51.841 210.782C46.4171 208.959 41.1595 206.739 36.1253 204.146C32.7344 202.249 30.232 199.354 27.8726 196.565C24.569 192.694 21.1541 188.689 15.2089 187.185C13.2954 186.703 11.3407 186.308 9.3876 185.983C1.392 184.841 -6.67034 184.302 -14.7104 184.373C-23.2703 184.271 -30.1802 184.384 -36.4431 184.711C-43.3318 185.025 -50.1642 185.777 -56.8876 186.959C-60.4735 187.602 -63.9481 188.38 -67.3109 189.131C-73.9008 190.619 -80.1275 192.016 -86.366 192.276C-89.8499 192.424 -93.3585 192.233 -96.8283 191.705C-105.668 190.387 -114.434 186.86 -123.702 183.132C-132.117 179.745 -140.809 176.253 -150.301 174.113L-150.407 174.75C-141.045 176.868 -132.391 180.342 -124.026 183.709C-114.707 187.457 -105.9 190.98 -96.9603 192.338C-93.4438 192.879 -89.887 193.078 -86.3548 192.933C-80.0363 192.674 -73.7798 191.259 -67.0988 189.786C-63.7359 189.035 -60.2613 188.257 -56.7014 187.609C-50.0135 186.437 -43.218 185.692 -36.3667 185.378C-30.1299 185.048 -23.235 184.943 -14.6881 185.043C-4.32692 185.176 5.73598 185.493 15.0341 187.835C20.7226 189.272 23.9149 193.006 27.2983 196.96C29.7153 199.806 32.2361 202.751 35.7497 204.715C40.8207 207.324 46.1162 209.559 51.5787 211.393C56.1847 213.002 60.6958 214.834 65.0906 216.879C69.757 219.152 74.4489 221.675 78.9958 224.103C92.1516 231.167 105.75 238.468 120.437 240.91L122.025 241.175C133.686 242.746 145.464 241.254 155.868 236.887C162.548 233.991 168.926 230.613 174.942 226.788C183.351 221.767 192.028 216.58 201.886 214.185C210.147 212.162 218.967 212.136 227.442 214.109C236.655 216.155 245.825 220.393 254.711 224.49C260.352 227.1 266.193 229.791 271.984 231.9C285.598 236.853 298.053 238.796 310.07 237.824C315.245 237.44 320.306 236.433 325.112 234.83C346.484 227.65 360.795 207.731 373.418 190.163C377.025 185.127 380.394 180.799 383.641 176.966C397.469 160.919 410.941 153.372 424.827 153.869C426.157 153.915 427.411 154.019 428.796 154.144C432.216 154.577 435.669 154.548 439.033 154.057C446.549 152.629 450.272 148.91 453.288 145.822C453.851 145.249 454.398 144.697 454.898 144.184C461.161 138.303 472.866 135.83 486.175 137.225L486.408 136.55Z" fill="white"/>
<path d="M487.467 130.178C485.667 129.575 483.795 129.006 481.84 128.447C465.477 123.855 450.111 123.966 441.758 128.739C441.031 129.167 440.266 129.66 439.523 130.109C435.41 132.968 430.561 134.922 425.353 135.821C422.372 136.241 419.332 136.355 416.291 136.161C414.734 136.113 413.269 136.068 411.803 136.116C398.468 136.483 386.241 144.354 373.346 160.906C370.402 164.685 367.333 168.98 363.96 174.055C353.709 189.352 339.655 210.296 319.391 218.701C315.008 220.497 310.373 221.814 305.585 222.626C293.667 224.699 281.188 223.837 269.498 220.132C263.129 218.041 256.903 215.592 250.861 212.8C242.716 209.235 234.31 205.557 225.836 203.809C217.472 201.99 208.808 202.109 200.704 204.154C191.128 206.538 182.625 211.485 174.392 216.254C168.479 219.903 162.225 223.121 155.692 225.878C144.799 230.147 133.881 231.43 123.247 229.72C109.765 227.595 97.4591 220.812 85.5413 214.27C80.0358 211.25 74.3593 208.131 68.6052 205.478C63.5113 203.272 58.2656 201.373 52.9056 199.792C48.4455 198.471 44.0649 196.927 39.7859 195.167C36.5679 193.557 33.6586 191.492 31.1811 189.058C27.6819 185.962 23.9504 182.734 18.1307 181.603C17.3755 181.477 16.6203 181.351 15.8521 181.224C8.54573 180.168 1.18811 179.546 -6.1703 179.362L-10.8704 179.142L-15.9648 178.879C-21.4574 178.597 -26.6449 178.331 -31.7975 178.257C-38.4803 178.074 -45.1358 178.507 -51.6551 179.55C-56.3626 180.412 -61.007 181.486 -65.5706 182.767C-70.1979 184.118 -74.9432 185.174 -79.7705 185.924C-83.0171 186.357 -86.3214 186.486 -89.6288 186.308C-99.0976 185.797 -108.836 182.564 -119.13 179.133C-126.615 176.501 -134.256 174.269 -142.011 172.452L-149.677 170.838L-149.783 171.475L-142.146 173.107C-134.422 174.917 -126.81 177.139 -119.356 179.762C-108.998 183.215 -99.2222 186.466 -89.6325 186.974C-86.272 187.151 -82.9148 187.024 -79.6142 186.594C-74.7548 185.836 -69.9773 184.774 -65.3174 183.417C-60.7964 182.138 -56.1927 181.069 -51.5248 180.215C-45.0544 179.18 -38.4488 178.75 -31.8161 178.932C-26.6765 179.004 -21.5021 179.268 -16.0243 179.559L-10.928 179.81L-6.21495 180.033C1.84548 180.403 10.1739 180.77 17.9483 182.297C23.5485 183.381 26.9829 186.384 30.614 189.572C33.1658 192.032 36.1545 194.11 39.4531 195.719C43.7543 197.497 48.16 199.053 52.6471 200.381C57.9877 201.958 63.2167 203.848 68.2985 206.035C74.0154 208.67 79.6919 211.789 85.1714 214.805C97.0279 221.314 109.276 228.04 122.74 230.279L123.182 230.352C133.963 232.145 145.028 230.781 156.062 226.466C162.629 223.694 168.915 220.462 174.863 216.8C183.04 212.045 191.51 207.139 200.949 204.768C208.935 202.735 217.476 202.595 225.73 204.364C234.113 206.097 242.48 209.769 250.575 213.313C256.639 216.126 262.888 218.595 269.283 220.704C281.093 224.47 293.71 225.355 305.761 223.263C310.607 222.447 315.299 221.115 319.734 219.296C340.184 210.817 354.294 189.777 364.663 174.418C368.032 169.365 371.088 165.068 374.027 161.312C386.786 144.935 398.827 137.139 411.933 136.781C413.372 136.74 414.823 136.782 416.352 136.838C419.453 137.029 422.552 136.909 425.591 136.48C430.892 135.573 435.832 133.594 440.027 130.696C440.79 130.215 441.518 129.775 442.232 129.344C450.409 124.67 465.529 124.589 481.701 129.126C483.696 129.679 485.593 130.264 487.418 130.871L487.467 130.178Z" fill="white"/>
<path d="M488.021 126.844L485.072 125.43C479.321 122.828 473.395 120.561 467.334 118.645C451.421 113.437 437.476 111.68 429.08 113.814C427.754 114.144 426.416 114.541 424.982 115.039C420.728 116.485 416.309 117.567 411.787 118.27C409.211 118.616 406.601 118.792 403.979 118.796C402.151 118.843 400.419 118.882 398.699 119.087C382.458 120.677 370.859 134.826 363.559 145.329C360.975 149.039 358.238 153.19 355.073 158.382C344.093 176.13 331.817 194.189 313.918 203.256C309.896 205.286 305.622 206.927 301.169 208.152C290.195 211.474 278.188 211.744 266.732 208.926C259.964 207.047 253.368 204.663 247.017 201.8C239.506 198.692 231.847 195.501 224.065 194.02C215.921 192.451 207.549 192.704 199.725 194.754C190.555 197.111 182.274 201.768 174.275 206.261C168.426 209.749 162.264 212.828 155.843 215.473C145.119 219.536 134.543 220.771 124.373 218.927C112.285 216.788 101.334 210.547 90.7341 204.528C84.6352 200.903 78.3081 197.598 71.7876 194.63C65.8271 192.271 59.6634 190.373 53.3691 188.96C49.7875 188.048 46.3993 187.181 43.3371 186.204C40.125 185.063 37.0907 183.539 34.3223 181.676C30.6792 179.445 26.9675 177.144 21.6812 176.265L20.913 176.137C15.4309 175.389 9.66489 175.061 4.09793 174.744C0.400901 174.526 -3.40408 174.315 -7.16029 173.971C-10.5891 173.669 -13.9768 173.281 -17.2602 172.911C-20.5437 172.54 -23.9834 172.143 -27.269 171.866C-33.7191 171.192 -40.205 171.294 -46.547 172.168C-52.157 173.192 -57.6307 174.656 -62.9034 176.545C-66.4443 177.722 -69.7988 178.825 -73.1953 179.616C-76.2137 180.33 -79.3178 180.778 -82.4626 180.951C-92.8667 181.56 -104.07 178.527 -115.938 175.303C-121.622 173.761 -127.467 172.216 -133.563 170.898C-138.81 169.862 -143.967 168.688 -149.12 167.492L-149.226 168.129C-144.073 169.326 -138.916 170.499 -133.746 171.593C-127.707 172.854 -121.831 174.451 -116.157 175.979C-104.225 179.215 -92.9561 182.258 -82.4199 181.66C-79.228 181.483 -76.0776 181.028 -73.0148 180.301C-69.5774 179.505 -66.2209 178.391 -62.6541 177.218C-57.4203 175.358 -51.9908 173.913 -46.4281 172.901C-40.1534 172.015 -33.7319 171.903 -27.3454 172.566C-24.0598 172.844 -20.7633 173.217 -17.3626 173.607C-13.962 173.997 -10.6655 174.37 -7.23666 174.671C-3.47855 175.004 0.350574 175.231 4.0495 175.437C9.60153 175.764 15.3546 176.09 20.7975 176.831C26.2405 177.573 29.997 179.846 33.8927 182.248C36.711 184.149 39.8052 185.699 43.0822 186.851C46.1686 187.844 49.5717 188.702 53.1514 189.625C59.4058 191.043 65.529 192.941 71.4489 195.299C77.9448 198.251 84.2478 201.541 90.323 205.15C100.969 211.212 111.983 217.475 124.215 219.638L124.892 219.75C134.983 221.428 145.487 220.217 156.119 216.15C162.572 213.49 168.767 210.397 174.651 206.896C182.615 202.374 190.884 197.786 199.916 195.452C207.623 193.418 215.881 193.181 223.902 194.764C231.592 196.23 239.265 199.412 246.701 202.496C253.1 205.349 259.743 207.722 266.555 209.587C278.15 212.444 290.304 212.17 301.409 208.8C305.9 207.557 310.212 205.899 314.274 203.853C332.333 194.708 344.637 176.56 355.695 158.743C358.899 153.558 361.581 149.42 364.15 145.72C371.392 135.324 382.847 121.315 398.788 119.757C400.461 119.591 402.179 119.561 404.003 119.455C406.662 119.446 409.309 119.265 411.921 118.912C416.492 118.21 420.958 117.128 425.263 115.682C426.677 115.227 428.007 114.794 429.305 114.472C437.567 112.338 451.333 114.124 467.107 119.285C473.123 121.196 479.006 123.452 484.717 126.037C485.776 126.533 486.83 127.036 487.878 127.545L488.021 126.844Z" fill="white"/>
<path d="M488.68 122.884C483.44 121.183 478.314 119.194 473.333 116.929L469.974 115.482C465.411 113.554 460.676 111.773 456.092 110.052L452.842 108.833C435.468 102.272 423.896 99.1197 416.412 98.9041C412.298 98.7811 408.313 99.3344 401.698 100.246L398.234 100.722C396.195 100.991 394.152 101.13 392.279 101.287C390.035 101.411 387.806 101.649 385.604 102.001C370.801 104.602 360.824 118.167 353.769 129.693C351.068 134.108 348.441 138.722 346.26 142.663C336.288 160.146 324.834 177.687 308.506 187.763C304.828 190.021 300.92 191.985 296.826 193.632C285.231 198.345 274.832 199.644 264.031 197.731C257.144 196.504 250.199 193.77 243.479 191.133C236.759 188.495 229.513 185.641 222.348 184.391C214.428 183.007 206.325 183.376 198.781 185.465C190.034 187.775 182.001 192.146 174.222 196.359C168.429 199.69 162.349 202.634 156.032 205.168C145.307 209.231 135.33 210.167 125.528 208.28C114.555 206.116 104.753 200.288 95.2684 194.642C88.79 190.793 82.0943 186.803 74.9973 183.939C68.0991 181.166 60.1997 179.747 53.2229 178.494C51.0225 178.128 48.9487 177.724 46.9679 177.325C43.738 176.61 40.5868 175.604 37.5656 174.323C33.2251 172.405 28.5582 171.185 23.7936 170.723C20.6214 170.488 17.328 170.337 14.1426 170.182C8.30138 170.006 2.4611 169.57 -3.35564 168.874C-7.40353 168.353 -11.3745 167.61 -15.2042 166.903C-17.665 166.494 -20.2 165.967 -22.6628 165.569C-28.8339 164.411 -35.1412 164.209 -41.2962 164.973C-48.0299 165.958 -53.7941 168.355 -59.3702 170.667C-61.8275 171.685 -64.1563 172.654 -66.5294 173.487C-69.3249 174.482 -72.225 175.256 -75.1965 175.799C-86.9687 177.875 -100.469 174.893 -114.664 171.749C-118.033 171.002 -121.531 170.233 -124.999 169.528C-133.118 167.815 -140.892 165.809 -148.492 163.715L-148.598 164.352C-141.011 166.444 -133.224 168.452 -125.289 170.064C-121.795 170.774 -118.309 171.541 -114.954 172.286C-109.275 173.534 -103.738 174.759 -98.3606 175.653C-90.1578 177.017 -82.3753 177.61 -75.1663 176.342C-72.1491 175.796 -69.206 175.01 -66.3726 173.992C-63.9716 173.152 -61.6428 172.183 -59.2096 171.149C-53.6764 168.854 -47.9569 166.484 -41.3182 165.507C-35.2247 164.752 -28.9807 164.955 -22.8727 166.107C-20.4118 166.517 -17.99 166.919 -15.442 167.448C-11.5473 168.166 -7.6563 168.907 -3.54139 169.428C2.3239 170.204 8.32453 170.489 14.0349 170.749C17.2093 170.891 20.4897 171.039 23.6618 171.274C28.3394 171.724 32.9203 172.925 37.1753 174.819C40.2677 176.111 43.4878 177.129 46.7859 177.856C48.7927 178.26 50.8703 178.64 53.067 179.029C60.0047 180.276 67.8669 181.677 74.6759 184.423C81.7227 187.267 88.3943 191.242 94.8355 195.072C104.381 200.752 114.243 206.625 125.359 208.813C135.321 210.786 145.425 209.812 156.292 205.772C162.638 203.222 168.747 200.264 174.57 196.92C182.293 192.721 190.281 188.378 198.959 186.079C206.388 184.024 214.365 183.662 222.162 185.027C229.258 186.207 236.307 189.04 243.14 191.72C249.974 194.399 256.88 197.126 263.845 198.367C274.802 200.306 285.337 198.994 297.078 194.212C301.216 192.55 305.17 190.575 308.898 188.308C325.302 178.174 336.852 160.532 346.864 142.974C349.095 139.053 351.724 134.427 354.371 130.015C361.338 118.615 371.212 105.185 385.688 102.623C387.864 102.282 390.065 102.047 392.281 101.918C394.219 101.773 396.223 101.627 398.277 101.349L401.754 100.875C408.313 99.9775 412.283 99.4335 416.332 99.5456C423.723 99.7574 435.204 102.894 452.478 109.415L455.725 110.645C460.311 112.355 465.033 114.134 469.544 116.054L472.903 117.501C477.944 119.792 483.135 121.8 488.442 123.511L488.68 122.884Z" fill="white"/>
<path d="M490.25 113.44C488.538 113.597 486.806 113.615 485.077 113.492C474.496 112.75 465.13 109.45 454.863 105.532L452.232 104.534C447.613 102.783 442.841 100.984 438.337 99.0189C433.345 96.8556 428.753 94.7004 424.283 92.6124C416.213 88.8382 409.247 85.5867 403.742 84.0162C398.236 82.4458 392.987 82.2277 384.666 83.1825L382.021 83.4792C378.791 83.7377 375.603 84.2322 372.489 84.9576C358.939 88.5508 350.143 102.418 343.981 114.127C342.241 117.427 340.52 120.777 338.814 124.118L337.33 127.005C329.603 141.927 318.718 160.556 303.03 172.341C299.672 174.838 296.113 177.122 292.379 179.176C284.773 183.395 274.352 188.047 261.239 186.603C254.157 185.822 247.012 183.161 240.093 180.595C233.793 178.25 227.203 175.797 220.54 174.748C212.845 173.526 205.008 173.978 197.722 176.063C189.408 178.34 181.641 182.404 174.123 186.334C168.376 189.522 162.363 192.339 156.129 194.765C145.589 198.602 135.931 199.474 126.611 197.422C116.591 195.241 107.823 189.713 99.214 184.353C92.5505 180.169 85.6547 175.854 78.1351 173.036C69.87 169.955 60.6346 169.167 52.4839 168.455L50.5044 168.289C47.2057 167.97 43.9233 167.474 40.6754 166.807C36.0285 165.808 31.2946 165.248 26.5558 165.137L23.8016 165.123C16.1032 165.071 8.13681 165.02 0.326704 163.628C-3.93097 162.92 -8.05897 161.754 -12.0811 160.676C-14.0783 160.133 -16.1405 159.58 -18.1582 159.08C-24.0595 157.422 -30.2431 156.892 -36.2847 157.527C-43.6473 158.513 -49.6146 161.648 -55.3788 164.689C-57.0133 165.586 -58.545 166.349 -60.1178 167.116C-62.6894 168.412 -65.3839 169.52 -68.1753 170.43C-82.0063 174.748 -99.6661 171.273 -116.733 167.932C-127.261 165.709 -137.632 162.844 -147.767 159.357L-147.875 160.005C-137.745 163.476 -127.381 166.325 -116.859 168.531C-112.246 169.438 -107.595 170.352 -102.985 171.119C-90.4208 173.208 -78.1584 174.219 -67.8978 171.014C-65.0622 170.106 -62.323 168.998 -59.7062 167.699C-58.1316 166.92 -56.5196 166.078 -54.9654 165.26C-49.2348 162.261 -43.3644 159.145 -36.1192 158.222C-30.1777 157.611 -24.1004 158.139 -18.2997 159.77C-16.2931 160.256 -14.2328 160.821 -12.2468 161.35C-8.1406 162.525 -3.97819 163.518 0.224296 164.324C8.09951 165.727 16.1161 165.798 23.8443 165.832L26.5985 165.845C31.2797 165.965 35.9548 166.527 40.5432 167.521C43.8181 168.189 47.127 168.685 50.4522 169.006L52.4298 169.182C60.5303 169.875 69.6968 170.674 77.8485 173.714C85.2938 176.495 92.1562 180.77 98.7286 184.939C107.332 190.333 116.213 195.903 126.388 198.121C135.862 200.211 145.669 199.328 156.365 195.436C162.623 192.991 168.664 190.163 174.445 186.972C181.922 183.047 189.65 178.977 197.902 176.748C205.053 174.675 212.749 174.2 220.317 175.365C226.84 176.368 233.403 178.828 239.716 181.176C246.672 183.759 253.868 186.429 261.057 187.215C274.405 188.699 284.958 183.976 292.666 179.703C296.432 177.638 300.02 175.339 303.404 172.825C319.238 160.97 330.178 142.256 337.927 127.28L339.41 124.393C341.13 121.054 342.851 117.704 344.589 114.415C350.674 102.845 359.382 89.1039 372.664 85.5948C375.739 84.8807 378.885 84.3911 382.073 84.131L384.718 83.8343C392.909 82.8578 398.003 83.1204 403.472 84.673C408.94 86.2255 415.856 89.457 423.889 93.2133C428.369 95.3149 433.001 97.4766 437.967 99.6355C442.491 101.557 447.267 103.416 451.886 105.166L454.53 106.167C464.847 110.104 474.276 113.426 484.976 114.177C486.678 114.287 488.381 114.273 490.068 114.135L490.25 113.44Z" fill="white"/>
<path d="M493.043 96.6459C491.592 97.3283 490.213 97.976 488.713 98.5451C482.788 100.9 476.264 101.992 469.651 101.736C459.441 101.09 449.342 99.0156 439.737 95.5918C434.267 93.8332 428.943 91.7046 423.816 89.2256C416.801 85.5632 410.067 81.4815 403.662 77.0107C399.617 74.1904 395.403 71.5687 391.039 69.1584C384.719 65.8856 378.957 64.8104 371.104 65.6091C367.072 65.8942 363.127 66.6622 359.377 67.8919C347.128 72.3561 339.783 85.8678 334.219 98.4832C332.504 102.361 330.497 106.868 328.467 111.266C319.081 131.501 308.961 146.41 297.542 156.824C294.503 159.563 291.294 162.152 287.929 164.58C280.308 170.176 270.819 175.825 258.443 175.333C251.213 175.043 243.928 172.499 236.886 170.029C230.995 167.962 224.887 165.824 218.728 164.963C211.273 163.986 203.738 164.581 196.75 166.699C188.878 168.898 181.396 172.693 174.154 176.33C168.423 179.366 162.459 182.065 156.299 184.41C145.924 188.064 136.597 188.793 127.743 186.677C118.532 184.455 110.544 179.14 102.808 174.006C96.0838 169.543 89.1442 164.928 81.3078 162.245C72.3467 159.165 62.5585 159.127 54.0907 159.356C50.5287 159.453 47.196 159.379 43.9542 159.401C39.4379 159.363 34.7485 159.32 29.4385 159.629C21.7219 160.088 12.7776 160.367 4.13346 158.438C-0.0924075 157.387 -4.24354 156.083 -8.29039 154.536C-10.0063 153.911 -11.7984 153.263 -13.5349 152.681C-18.6068 150.996 -24.6019 149.391 -31.0856 150.16C-38.9226 151.102 -44.8848 155.092 -50.6493 158.939C-51.5983 159.576 -52.5603 160.211 -53.5017 160.803C-55.8694 162.383 -58.373 163.804 -60.9924 165.053C-74.8553 171.494 -93.5546 169.121 -108.289 166.32C-121.755 163.858 -134.556 159.087 -146.935 154.35L-147.039 154.976C-134.673 159.71 -121.854 164.45 -108.427 166.987C-106.721 167.27 -104.962 167.633 -103.23 167.921C-89.3632 170.227 -73.1598 171.437 -60.7149 165.637C-58.0587 164.384 -55.5151 162.963 -53.1032 161.384C-52.1431 160.76 -51.1941 160.123 -50.2378 159.522C-44.5478 155.721 -38.6621 151.788 -31.015 150.862C-24.6802 150.103 -18.7819 151.727 -13.8196 153.347C-12.0831 153.929 -10.317 154.573 -8.5862 155.188C-4.51369 156.756 -0.332864 158.072 3.92498 159.128C12.6658 161.12 21.6976 160.798 29.4682 160.336C34.7484 160.045 39.4285 160.063 43.9318 160.099C47.1772 160.136 50.5174 160.165 54.1074 160.06C62.4913 159.853 72.1754 159.873 81.025 162.9C88.7461 165.552 95.6504 170.138 102.33 174.628C110.113 179.804 118.161 185.154 127.529 187.401C136.533 189.577 146.024 188.829 156.528 185.126C162.724 182.778 168.722 180.069 174.482 177.016C181.682 173.384 189.09 169.634 196.936 167.431C203.831 165.336 211.27 164.753 218.628 165.73C224.696 166.576 230.764 168.707 236.618 170.757C243.725 173.237 251.058 175.812 258.475 176.11C271.168 176.619 281.16 170.528 288.45 165.228C291.829 162.763 295.057 160.142 298.119 157.376C309.604 146.891 319.746 131.927 329.184 111.619C331.253 107.227 333.221 102.714 334.938 98.825C340.416 86.2421 347.672 72.8675 359.738 68.5366C363.42 67.3262 367.296 66.574 371.256 66.301C378.927 65.5538 384.593 66.5662 390.753 69.7538C395.096 72.1528 399.29 74.7633 403.315 77.5726C409.75 82.0577 416.519 86.1491 423.57 89.8162C428.729 92.3235 434.091 94.4704 439.603 96.236C449.282 99.6775 459.454 101.764 469.738 102.417C476.466 102.671 483.103 101.558 489.132 99.1643C490.447 98.6581 491.732 98.0922 492.987 97.4668L493.043 96.6459Z" fill="white"/>
<path d="M496.086 78.3495C493.445 80.2174 490.589 81.8418 487.559 83.1989C482.759 85.3674 477.673 87.0437 472.398 88.1961C466.513 89.5281 460.411 90.1267 454.265 89.9748C444.276 89.7674 434.31 88.3067 424.667 85.637C419.299 84.1532 414.15 82.0542 409.354 79.3954C401.747 75.0902 395.406 69.2883 389.29 63.6641C385.826 60.3619 382.162 57.2266 378.314 54.2733C371.524 49.3205 365.322 47.4353 357.539 48.0471C353.572 48.2847 349.739 49.239 346.275 50.851C335.268 56.1299 329.266 69.3738 324.409 82.8901C322.897 87.1522 321.277 91.4198 319.621 95.5877C312.062 113.846 302.813 129.228 292.057 141.366C289.41 144.328 286.606 147.194 283.506 150.14C276.407 156.864 267.537 163.855 255.649 164.216C248.314 164.47 240.944 162.04 233.826 159.71C228.366 157.705 222.695 156.237 216.918 155.331C209.696 154.558 202.443 155.265 195.728 157.397C188.342 159.571 181.171 163.021 174.249 166.348C168.512 169.265 162.557 171.856 156.42 174.105C146.109 177.617 137.339 178.217 128.855 175.964C120.372 173.711 113.065 168.567 106.039 163.587C99.3717 158.865 92.4886 153.99 84.462 151.486C75.1467 148.604 65.2369 149.458 57.6565 150.466C53.7565 150.987 49.9606 151.525 46.2706 152.15C41.782 152.83 37.1278 153.541 32.2449 154.179C25.0369 155.12 16.4898 155.745 7.86195 153.317C3.71352 152.023 -0.312909 150.415 -4.17046 148.509C-5.75025 147.79 -7.38946 147.027 -8.98795 146.34C-13.8317 144.248 -19.6378 142.23 -25.9647 142.862C-34.1365 143.724 -39.889 148.626 -45.4792 153.356C-45.9772 153.776 -46.4622 154.198 -47.0235 154.596C-49.1906 156.469 -51.4963 158.214 -53.927 159.82C-67.407 168.465 -86.4241 167.278 -99.9499 164.854C-115.209 162.07 -129.514 155.879 -143.344 149.896L-143.918 149.649L-145.996 148.707L-146.106 149.367L-144.21 150.196L-143.586 150.464C-129.707 156.479 -115.352 162.69 -100.002 165.488L-98.114 165.802C-84.5988 168.05 -66.4866 168.723 -53.4167 160.373C-50.9617 158.754 -48.6352 156.993 -46.4517 155.1L-44.9056 153.849C-39.3937 149.188 -33.7065 144.357 -25.7935 143.522C-19.6526 142.883 -13.9786 144.89 -9.23525 146.942C-7.63676 147.629 -6.02169 148.377 -4.4438 149.107C-0.540465 151.028 3.53334 152.648 7.72994 153.949C16.4843 156.423 25.1392 155.792 32.4292 154.841C37.327 154.194 42.0203 153.49 46.4828 152.805C50.1615 152.248 53.9573 151.71 57.8443 151.187C65.358 150.098 75.1241 149.383 84.2814 152.169C92.1909 154.654 99.0145 159.484 105.636 164.163C112.71 169.175 119.996 174.362 128.714 176.654C137.431 178.945 146.272 178.405 156.75 174.78C162.913 172.522 168.895 169.924 174.662 167.001C181.57 163.683 188.699 160.238 196.027 158.089C202.639 155.991 209.781 155.293 216.892 156.052C222.545 156.735 228.19 158.597 233.634 160.38C240.827 162.745 248.281 165.154 255.744 164.934C267.856 164.516 276.891 157.494 284.086 150.681C287.257 147.7 290.021 144.839 292.683 141.867C303.51 129.706 312.812 114.24 320.318 95.9024C322.015 91.7296 323.637 87.4507 325.109 83.182C329.921 69.7752 335.86 56.6727 346.649 51.4979C350.036 49.9009 353.793 48.953 357.683 48.7141C365.245 48.1359 371.297 49.9609 377.907 54.7902C381.738 57.7224 385.383 60.8391 388.825 64.1247C394.979 69.7668 401.348 75.5616 409.019 79.9595C413.847 82.6619 419.035 84.7989 424.447 86.3138C434.157 89.0049 444.193 90.481 454.252 90.6976C460.467 90.8445 466.637 90.2377 472.589 88.8945C477.915 87.7253 483.052 86.0345 487.905 83.8528C490.734 82.5659 493.417 81.0555 495.921 79.3394L496.086 78.3495Z" fill="white"/>
<path d="M499.448 58.1416C498.538 59.7755 497.464 61.3302 496.24 62.7881C483.97 77.3517 460.192 78.402 438.81 78.2372C421.813 78.0999 406.841 77.3755 394.755 69.5892C387.847 65.026 382.127 58.2281 376.62 51.5944C367.238 40.3407 358.382 29.7121 343.999 30.5123C325.824 31.5005 319.345 50.0207 314.642 67.2809C307.888 92.0274 295.832 115.225 279.105 135.657C273.016 143.064 264.537 151.733 252.88 153.033C245.503 153.864 238.385 151.687 230.928 149.382C225.825 147.614 220.538 146.343 215.167 145.592C200.838 144.133 187.466 150.281 174.594 156.232C159.604 163.094 145.432 169.624 130.045 165.194C122.143 162.909 115.55 157.896 109.171 153.046C102.793 148.197 95.8919 142.945 87.6934 140.669C75.2107 137.202 62.4288 141.005 50.0548 144.688C37.3903 148.428 24.206 152.398 11.6938 148.142C7.59048 146.586 3.66823 144.655 -0.0066181 142.385C-6.50769 138.672 -13.228 134.83 -20.7405 135.51C-29.0664 136.254 -34.522 142.105 -39.8002 147.776C-41.9187 150.151 -44.2017 152.407 -46.6372 154.531C-56.9276 163.145 -73.6345 166.412 -91.3866 163.331C-107.431 160.522 -122.148 153.433 -136.371 146.589C-139.156 145.237 -142.024 143.813 -144.863 142.3L-144.975 142.971C-142.21 144.449 -139.417 145.837 -136.692 147.155C-122.419 154.019 -107.665 161.127 -91.515 164.023L-90.8379 164.135C-73.1302 167.08 -56.4453 163.705 -46.1251 155.073C-43.6779 152.923 -41.3784 150.647 -39.2377 148.255C-33.8008 142.436 -28.683 136.926 -20.6419 136.205C-13.3882 135.552 -7.08406 139.161 -0.361873 142.992C3.36677 145.279 7.3384 147.229 11.4891 148.81C24.256 153.143 37.5185 149.186 50.3562 145.37C62.6055 141.712 75.2868 137.951 87.5278 141.343C95.5719 143.582 102.259 148.669 108.734 153.582C115.21 158.494 121.799 163.53 129.867 165.866C145.553 170.427 160.518 163.55 174.977 156.904C187.813 151.006 201.063 144.872 215.189 146.344C220.503 147.093 225.732 148.354 230.781 150.106C238.038 152.331 245.536 154.63 253.071 153.813C265 152.488 273.606 143.7 279.779 136.19C296.561 115.695 308.657 92.4243 315.432 67.5994C320.047 50.5467 326.447 32.259 344.136 31.2952C358.125 30.5346 366.859 41.0142 376.12 52.1076C381.701 58.7771 387.404 65.6773 394.509 70.2617C407.661 78.7982 425.75 78.9651 438.961 79.0223C460.463 79.1838 484.457 78.1227 496.914 63.3212C497.751 62.3225 498.519 61.2789 499.213 60.1957L499.448 58.1416Z" fill="white"/>
<path d="M488.847 14.0054L488.066 13.8754C488.933 17.6726 489.427 21.5145 489.542 25.3579C489.735 36.9077 486.595 45.1671 479.361 52.1375C477.035 54.3052 474.47 56.263 471.699 57.9843C459 66.0337 443.064 70.5396 424.313 71.3735C410.63 71.9861 394.986 71.5945 382.786 64.0932C376.063 59.9466 370.528 53.6472 365.159 47.551C356.089 37.2378 347.515 27.4864 333.953 28.0139C316.915 28.6883 310.125 45.2975 305.093 60.831C300.31 75.294 293.75 89.194 285.527 102.291C280.841 109.861 275.629 117.155 269.919 124.134C264.16 131.163 256.143 139.383 245.264 140.836C238.164 141.772 230.987 139.631 224.622 137.836L223.753 137.586C219.14 136.099 214.392 135.008 209.577 134.328C195.899 132.814 183.123 138.114 170.759 143.343C165.969 145.352 161.008 147.427 156.115 149.092C145.355 152.646 136.956 153.261 128.873 151.098C121.444 149.103 115.213 144.734 109.225 140.511C103.005 136.155 96.571 131.636 88.8646 129.781C84.9529 128.877 80.9175 128.602 76.957 128.971C69.2177 129.566 61.3669 132.119 53.7713 134.586C41.9775 138.401 29.7982 142.362 18.1381 138.856C14.3166 137.562 10.6424 135.924 7.1759 133.97C3.47822 131.837 -0.494678 130.119 -4.64538 128.858C-7.15178 128.168 -9.77223 127.943 -12.3366 128.199C-20.1137 129.022 -25.4003 134.34 -30.4464 139.5C-32.5252 141.686 -34.751 143.76 -37.1126 145.711C-47.4873 153.866 -63.6811 156.622 -79.336 152.919C-84.8795 151.463 -90.2195 149.396 -95.2261 146.769C-103.23 142.666 -110.969 138.158 -118.404 133.268C-125.523 128.895 -132.183 123.954 -138.295 118.512C-139.084 117.784 -139.825 117.088 -140.543 116.337L-140.681 117.168C-140.083 117.759 -139.46 118.353 -138.823 118.95C-132.678 124.426 -125.976 129.393 -118.811 133.785C-111.345 138.698 -103.567 143.221 -95.5198 147.328C-90.4589 149.972 -85.0618 152.049 -79.4604 153.507C-78.1735 153.814 -76.7488 154.098 -75.3947 154.323C-60.7989 156.751 -46.2234 153.749 -36.5723 146.163C-34.1666 144.168 -31.9015 142.046 -29.7885 139.808C-24.793 134.792 -19.6182 129.502 -12.1147 128.715C-9.6513 128.473 -7.13511 128.689 -4.72674 129.348C-0.641663 130.603 3.27049 132.299 6.91793 134.395C10.4294 136.378 14.1547 138.037 18.0307 139.341C29.9343 142.911 42.1864 138.915 54.1459 135.069C61.6987 132.619 69.5196 130.084 77.1564 129.542C81.0161 129.194 84.9466 129.475 88.7531 130.371C96.3183 132.19 102.681 136.651 108.84 140.973C114.999 145.295 121.217 149.661 128.79 151.681C137.038 153.894 145.58 153.304 156.487 149.669C161.414 148.044 166.39 145.96 171.197 143.93C183.463 138.802 196.136 133.484 209.603 134.976C214.374 135.649 219.079 136.733 223.649 138.212L224.518 138.462C230.899 140.318 238.227 142.437 245.491 141.482C256.625 140.024 264.773 131.662 270.615 124.531C276.361 117.522 281.601 110.193 286.307 102.585C294.559 89.451 301.143 75.512 305.947 61.008C310.906 45.6729 317.583 29.2554 334.16 28.6213C347.318 28.1084 355.781 37.7244 364.726 47.9C370.128 54.0368 375.697 60.3769 382.517 64.5863C394.912 72.2019 410.716 72.5967 424.52 71.9808C443.392 71.1437 459.48 66.6047 472.259 58.4751C475.044 56.7302 477.616 54.7414 479.937 52.5373C487.313 45.4384 490.54 37.0534 490.31 25.322C490.188 21.5341 489.698 17.7481 488.847 14.0054V14.0054Z" fill="white"/>
<path d="M476.971 12.0303L476.202 11.9026C476.334 13.8905 476.299 15.8779 476.097 17.8485C474.982 28.0114 471.033 34.8616 462.451 41.4909C459.856 43.4451 457.14 45.2729 454.315 46.9666C440.364 55.5445 427.384 62.7872 409.913 64.5355C393.589 66.1471 380.473 64.153 370.852 58.6008C364.424 54.854 359.054 49.085 353.826 43.5148C345.057 34.1286 336.789 25.2701 324.06 25.5385C306.766 25.8195 300.062 43.0394 295.648 54.3726C290.329 67.4769 283.669 80.0852 275.748 92.0474C271.183 99.1279 266.202 105.984 260.824 112.589C255.045 119.661 247.775 127.093 237.725 128.626C231.437 129.591 225.218 128.124 218.317 126.252L216.666 125.802C212.554 124.563 208.345 123.628 204.084 123.008C190.966 121.434 178.792 126.005 166.993 130.415C162.617 132.026 158.105 133.731 153.639 135.082C146.711 137.157 137.518 139.253 127.913 136.907C120.982 135.216 115.113 131.481 109.436 127.882C103.52 124.116 97.3319 120.21 90.1488 118.828C86.5076 118.127 82.7817 117.998 79.1463 118.448C71.961 119.253 64.685 121.89 57.6701 124.325C46.8048 128.189 35.5688 132.19 24.7182 129.369C21.1655 128.338 17.7309 126.983 14.472 125.326C10.9772 123.546 7.2646 122.143 3.41855 121.149C1.04867 120.598 -1.40089 120.456 -3.79131 120.734C-11.0159 121.613 -16.0574 126.423 -20.9364 131.06C-23.021 133.12 -25.2517 135.061 -27.6164 136.872C-38.0101 144.498 -53.5844 146.667 -67.3529 142.483C-72.7153 140.854 -76.8165 138.079 -80.7859 135.396L-81.3988 134.978C-88.1219 130.297 -94.5291 125.267 -100.584 119.919C-106.45 114.999 -111.857 109.672 -116.749 103.994C-124.912 94.3465 -128.788 84.8268 -128.72 75.0042C-128.682 69.2225 -127.296 63.4661 -124.275 56.3213C-122.949 53.256 -121.487 50.2601 -120.108 47.3558C-119.176 45.4528 -118.302 43.6571 -117.508 41.9416C-116.443 39.6398 -115.411 37.3792 -114.616 35.1728C-113.985 33.5473 -113.482 31.9705 -112.937 30.2253L-112.911 30.066C-112.197 28.1016 -111.759 26.0586 -111.604 23.9807C-111.504 20.3438 -112.402 16.7009 -114.222 13.3597C-116.042 10.0185 -118.73 7.07713 -122.06 4.78407L-122.181 5.51229C-119.011 7.73426 -116.455 10.5662 -114.725 13.7738C-112.994 16.9815 -112.139 20.4726 -112.229 23.9585C-112.384 25.9898 -112.815 27.9869 -113.513 29.9073L-113.538 30.0552C-114.08 31.7891 -114.587 33.3886 -115.211 34.9687C-116.058 37.1664 -117.021 39.4151 -118.084 41.7055C-118.884 43.4551 -119.769 45.2373 -120.684 47.1197C-122.103 50.0175 -123.566 53.0248 -124.857 56.1193C-127.968 63.3194 -129.365 69.1441 -129.414 74.9941C-129.479 84.9575 -125.499 94.5763 -117.282 104.385C-112.356 110.091 -106.913 115.443 -101.01 120.386C-94.9298 125.753 -88.4992 130.801 -81.7538 135.504L-81.1409 135.922C-77.1232 138.636 -72.9737 141.443 -67.483 143.104C-65.4686 143.72 -63.4109 144.203 -61.3274 144.549C-55.2639 145.584 -49.0757 145.481 -43.1741 144.245C-37.2725 143.008 -31.7925 140.668 -27.0986 137.379C-24.7208 135.538 -22.4765 133.568 -20.3774 131.481C-15.6028 126.908 -10.6305 122.192 -3.65157 121.341C-1.3537 121.072 1.00202 121.21 3.2792 121.746C7.06377 122.735 10.7152 124.128 14.1504 125.892C17.461 127.562 20.9479 128.925 24.5528 129.961C35.5802 132.765 46.941 128.738 57.933 124.836C64.9145 122.361 72.1512 119.799 79.2248 119.023C82.777 118.587 86.4165 118.713 89.9742 119.396C97.0585 120.808 102.856 124.485 108.975 128.402C114.699 132.043 120.615 135.81 127.689 137.525C137.527 139.921 146.869 137.814 153.898 135.698C158.39 134.352 162.913 132.66 167.293 131.026C179.021 126.639 191.144 122.13 204.016 123.663C208.232 124.279 212.397 125.202 216.469 126.424L218.131 126.887C225.123 128.775 231.431 130.269 237.885 129.272C248.168 127.708 255.563 120.168 261.424 113.005C266.816 106.384 271.809 99.5099 276.383 92.4103C284.333 80.4177 291.008 67.772 296.328 54.6261C301.887 40.3495 308.586 26.4613 324.051 26.1567C336.395 25.871 344.557 34.6418 353.218 43.8698C358.477 49.4215 363.898 55.281 370.423 59.0906C380.188 64.7371 393.499 66.7637 409.988 65.1326C427.671 63.3962 440.727 56.096 454.765 47.4742C457.618 45.7631 460.363 43.9209 462.989 41.9546C471.709 35.2197 475.746 28.2438 476.876 17.9079C477.067 15.9593 477.098 13.9951 476.971 12.0303V12.0303Z" fill="white"/>
<path d="M462.857 9.68316C462.819 9.91072 462.783 10.1269 462.746 10.3545C460.329 20.2191 454.863 25.1683 445.615 30.8918C444.124 31.8131 442.489 32.7106 440.795 33.7267C439.522 34.4621 438.221 35.2046 436.899 35.9904C432.666 38.5137 428.887 41.1242 425.229 43.6496C415.81 50.1631 407.675 55.791 395.379 57.7217C387.232 58.9978 371.662 60.0918 358.783 53.1324C352.587 49.7633 347.329 44.5274 342.246 39.4492C333.811 31.0306 325.835 23.0741 314.022 23.0623C298.089 23.0435 291.196 37.4606 286.168 47.9785C280.367 59.7251 273.608 71.0581 265.943 81.8926C260.745 89.4939 256.236 95.6079 251.705 101.133C246.26 107.805 239.443 114.845 230.178 116.485C224.151 117.564 218.17 116.277 211.991 114.734L209.423 114.085C205.848 113.083 202.21 112.299 198.534 111.736C186.012 110.11 174.304 113.893 162.984 117.517C159.095 118.777 155.079 120.073 151.103 121.131C144.099 123.018 135.635 124.674 126.747 122.763C120.289 121.362 114.858 118.295 109.561 115.31C103.664 111.99 98.0972 108.855 91.3077 107.842C87.9159 107.355 84.4795 107.385 81.1506 107.931C74.5081 108.931 67.809 111.558 61.3261 114.093C51.406 117.986 41.1413 122.02 31.2133 120.007C27.9286 119.231 24.7301 118.158 21.6701 116.806C18.4076 115.366 14.9802 114.262 11.4591 113.518C9.2251 113.107 6.94341 113.044 4.71937 113.332C-1.91365 114.275 -6.71535 118.528 -11.3473 122.646C-13.4397 124.578 -15.6715 126.39 -18.0299 128.071C-28.2971 135.016 -43.2316 136.637 -55.1904 132.111C-60.111 130.24 -63.2959 127.184 -66.3899 124.226L-67.394 123.264C-72.8179 117.991 -77.8784 112.439 -82.5462 106.642C-87.1617 101.172 -91.3643 95.4495 -95.1252 89.513C-101.444 79.2362 -104.482 69.4233 -104.254 59.5222C-103.928 52.9527 -102.623 46.4868 -100.373 40.2893C-99.8759 38.8285 -99.3807 37.3791 -98.8892 35.9524C-97.5929 32.1807 -96.3326 28.6251 -95.5326 25.3438C-94.9683 23.1776 -94.5577 20.977 -94.303 18.7546C-94.1138 17.6167 -94.1033 16.5076 -94.0355 15.5367C-93.9787 15.1954 -94.0019 14.8524 -93.975 14.5295C-93.9481 14.2065 -93.9417 13.927 -93.9074 13.6403C-93.7505 12.3967 -93.7833 11.1329 -94.005 9.88232C-94.9427 6.14441 -96.7895 2.59662 -99.4159 -0.512467C-102.042 -3.62155 -105.385 -6.21673 -109.209 -8.11617C-111.334 -9.17327 -113.631 -9.91495 -116.003 -10.3101C-117.145 -10.4982 -118.298 -10.6117 -119.452 -10.6498L-119.56 -10.0012C-116.078 -9.91752 -112.636 -9.07189 -109.546 -7.54071C-105.825 -5.70062 -102.57 -3.18396 -100.009 -0.166765C-97.4487 2.85042 -95.644 6.29527 -94.7216 9.92686C-94.5084 11.1225 -94.4798 12.3309 -94.6366 13.5191L-94.7041 14.4082C-94.759 14.7382 -94.7488 15.079 -94.7684 15.4382C-94.8213 16.3999 -94.895 17.4868 -95.0153 18.6127C-95.2772 20.8109 -95.6884 22.9877 -96.2466 25.1315C-97.0669 28.3744 -98.2882 31.9364 -99.5826 35.6968C-100.074 37.1235 -100.584 38.5821 -101.068 40.0451C-103.343 46.3 -104.662 52.8265 -104.993 59.4578C-105.214 69.4771 -102.206 79.3902 -95.7587 89.7818C-91.9797 95.7446 -87.7592 101.494 -83.1259 106.99C-78.4451 112.82 -73.3671 118.401 -67.9218 123.702L-66.9177 124.664C-63.7792 127.677 -60.5238 130.791 -55.4507 132.71C-53.026 133.625 -50.5032 134.3 -47.9307 134.721C-42.5692 135.58 -37.1128 135.478 -31.8927 134.42C-26.6726 133.363 -21.7978 131.372 -17.5642 128.569C-15.1802 126.873 -12.927 125.041 -10.8182 123.084C-6.25153 119.038 -1.54309 114.863 4.86268 113.999C6.99741 113.71 9.19144 113.77 11.3363 114.175C14.8146 114.921 18.1975 116.025 21.4134 117.465C24.5241 118.833 27.7742 119.918 31.1109 120.703C41.2863 122.758 51.6516 118.682 61.6853 114.749C68.1254 112.231 74.7816 109.619 81.3235 108.661C84.569 108.129 87.9191 108.101 91.2256 108.577C97.8849 109.568 103.377 112.668 109.213 115.953C114.561 118.959 120.079 122.063 126.685 123.536C135.727 125.484 144.249 123.803 151.389 121.903C155.393 120.839 159.424 119.533 163.313 118.274C174.553 114.647 186.178 110.886 198.524 112.436C202.165 112.995 205.769 113.77 209.311 114.757L211.879 115.406C218.109 116.968 224.22 118.277 230.413 117.167C239.91 115.495 246.839 108.346 252.366 101.582C256.9 96.0455 261.438 89.9132 266.625 82.2983C274.296 71.4145 281.054 60.0304 286.849 48.232C291.811 37.8669 298.601 23.6665 314.067 23.6778C325.549 23.6696 333.397 31.5113 341.704 39.815C346.833 44.936 352.135 50.226 358.419 53.6331C371.519 60.7111 387.304 59.6062 395.535 58.309C408.01 56.3496 416.611 50.4133 425.712 44.1274C429.357 41.5999 433.121 38.9986 437.339 36.4845C438.661 35.6987 439.949 34.954 441.235 34.2208C442.894 33.2572 444.476 32.351 446.032 31.4406C455.409 25.6683 460.97 20.6297 463.434 10.5624C463.471 10.3349 463.511 10.0959 463.551 9.85698L462.857 9.68316Z" fill="white"/>
<path d="M447.206 7.08035C443.443 13.1314 437.71 15.9079 429.671 19.7511L427.636 20.7223C424.976 21.9987 422.238 23.3325 419.459 24.9166C413.847 28.3493 408.699 32.3234 404.108 36.7694C397.466 42.8328 391.162 48.5547 380.858 50.8167C368.669 53.4669 356.234 52.2875 346.73 47.5616C340.785 44.6085 335.645 39.8716 330.68 35.2924C322.942 28.1589 314.951 20.773 304.019 20.5335C289.279 20.1753 282.281 32.0025 276.659 41.5095C270.894 51.2381 263.705 61.1511 256.099 71.6493C251.808 77.5774 247.405 83.6973 242.558 89.5913C237.501 95.8598 231.048 102.481 222.576 104.264C217.351 105.348 212.211 104.633 205.609 103.138L202.16 102.319C199.15 101.543 196.102 100.907 193.03 100.414C180.939 98.6958 169.612 101.712 158.677 104.629C155.386 105.508 151.984 106.416 148.591 107.184C141.817 108.735 133.796 110.138 125.724 108.632C119.83 107.546 114.76 105.124 109.867 102.767C104.241 100.066 98.9111 97.5191 92.5596 96.9305C89.4294 96.6609 86.2926 96.8464 83.2758 97.4797C77.1743 98.6866 71.0576 101.353 65.144 103.924C56.1432 107.841 46.8516 111.897 37.7869 110.646C34.7635 110.137 31.7951 109.353 28.9298 108.308C25.8814 107.187 22.7156 106.362 19.4906 105.85C17.3986 105.571 15.2838 105.595 13.2303 105.919C7.1927 106.903 2.63996 110.625 -1.75797 114.22C-3.86243 116.012 -6.10162 117.678 -8.46169 119.208C-18.5538 125.423 -32.7981 126.433 -43.0794 121.637C-47.815 119.458 -50.2618 115.987 -52.6365 112.645C-52.9182 112.248 -53.187 111.852 -53.4706 111.466C-57.5855 105.586 -61.2927 99.5018 -64.5709 93.2497C-68.3461 86.2608 -71.0995 80.6112 -73.5644 74.916C-78.2364 63.8257 -80.217 53.9314 -79.8358 43.9154C-79.409 37.206 -78.3053 30.5692 -76.5376 24.0828C-75.1388 19.0087 -74.1925 13.8299 -73.7072 8.59245C-73.5588 6.47955 -73.6847 4.34812 -74.0823 2.23919C-74.3401 1.04126 -74.6932 -0.142797 -75.1389 -1.30412L-75.3144 -1.77765C-75.6081 -2.66032 -76.0186 -3.51366 -76.5374 -4.31966C-79.1297 -8.36393 -84.9284 -15.7361 -94.5565 -19.8747C-96.3744 -20.6781 -98.3002 -21.2582 -100.278 -21.5979C-104.248 -22.0863 -108.254 -22.0265 -112.149 -21.4206L-114.178 -21.2085L-117.795 -20.8628L-117.897 -20.2484C-116.648 -20.3564 -115.395 -20.4871 -114.088 -20.6206L-112.059 -20.8328C-105.876 -21.4882 -100.986 -22.008 -94.8426 -19.361C-85.4061 -15.2776 -79.7186 -8.04092 -77.1652 -4.08496C-76.6645 -3.29527 -76.2778 -2.45685 -76.0146 -1.59007L-75.8391 -1.11655C-75.4031 0.00728239 -75.0617 1.15455 -74.8176 2.31569C-74.4139 4.40225 -74.2755 6.51187 -74.4051 8.60502C-74.8966 13.8068 -75.8415 18.9504 -77.2314 23.9908C-78.9862 30.5191 -80.096 37.1923 -80.5486 43.9371C-80.8985 54.087 -78.9235 64.0155 -74.2128 75.194C-71.8149 80.8898 -69.0541 86.5757 -65.2288 93.5846C-61.9366 99.8419 -58.2119 105.929 -54.0763 111.81L-53.2403 112.978C-50.9213 116.252 -48.3114 119.948 -43.3918 122.228C-40.7388 123.444 -37.9099 124.309 -35.0006 124.793C-25.4493 126.274 -15.7778 124.473 -8.00545 119.764C-5.62625 118.211 -3.36613 116.525 -1.23829 114.715C3.08318 111.178 7.55759 107.525 13.407 106.627C15.3768 106.315 17.4056 106.293 19.4124 106.562C22.5829 107.075 25.696 107.887 28.6972 108.983C31.6015 110.037 34.608 110.831 37.6696 111.352C46.9687 112.641 56.3757 108.534 65.4642 104.574C71.3442 102.043 77.4218 99.3709 83.4358 98.2078C86.3791 97.5944 89.4374 97.4119 92.4906 97.6674C98.697 98.2435 103.955 100.743 109.502 103.431C114.458 105.811 119.564 108.262 125.575 109.367C133.833 110.881 141.921 109.478 148.764 107.915C152.172 107.137 155.587 106.231 158.891 105.354C170.247 102.32 180.987 99.4522 192.907 101.154C195.953 101.643 198.975 102.274 201.959 103.045L205.436 103.857C210.684 105.046 216.791 106.225 222.749 104.994C231.482 103.172 237.941 96.4357 243.118 90.0821C247.942 84.1724 252.387 78.0362 256.691 72.1103C264.343 61.5026 271.579 51.5392 277.302 41.8269C282.872 32.4749 289.732 20.8352 304.03 21.1901C314.694 21.4318 322.184 28.3719 330.165 35.7329C335.166 40.3414 340.352 45.1211 346.382 48.1235C356.059 52.9367 368.686 54.1712 381.063 51.4354C391.572 49.149 397.941 43.3561 404.685 37.2397C409.222 32.8204 414.316 28.8722 419.876 25.4654C422.631 23.8656 425.363 22.5659 428.009 21.2988L430.046 20.3161C437.97 16.5125 444.053 13.5718 447.974 7.2081L447.206 7.08035Z" fill="white"/>
<path d="M427.311 3.77167C424.149 5.32789 420.825 6.62979 417.378 7.66226C415.606 8.25635 413.779 8.86454 411.857 9.56213C408.437 10.7499 405.152 12.1987 402.038 13.8927C394.747 17.9888 390.288 23.4796 385.958 28.7581C380.713 35.194 375.768 41.2706 366.358 43.9502C355.852 46.9388 344.022 46.2226 334.696 42.0406C328.981 39.4765 323.944 35.2478 319.111 31.1584C311.727 24.9492 304.084 18.533 294.064 18.036C280.479 17.332 273.135 27.1373 267.216 35.0513C263.95 39.4074 260.329 43.8801 256.503 48.6226C253.142 52.7409 249.781 56.8592 246.344 61.4326C244.967 63.2226 243.582 65.0347 242.189 66.8687C239.38 70.5643 236.483 74.3856 233.486 78.085C228.444 84.2624 222.775 90.1951 215.103 92.0763C209.833 93.3514 204.425 92.6392 199.372 91.5649C197.874 91.3159 196.361 90.9239 194.903 90.5995C192.517 90.0624 190.054 89.5009 187.603 89.1166C175.709 87.2556 165.072 89.4271 153.805 91.6811C151.327 92.181 148.75 92.7112 146.183 93.1846C139.776 94.3759 132.301 95.5533 124.766 94.4405C119.776 93.5842 114.907 92.1572 110.285 90.1964C104.875 88.1274 99.7781 86.1105 93.7919 85.9802C90.9174 85.9324 88.0711 86.2755 85.3536 86.9974C79.767 88.4069 74.2698 91.1292 68.9236 93.7481C60.855 97.6915 52.5087 101.776 44.311 101.266C41.5279 101.011 38.7691 100.509 36.0769 99.7681C33.2729 99.0025 30.4022 98.4781 27.5061 98.2024C25.5703 98.061 23.6335 98.1642 21.7551 98.5089C16.3109 99.5445 12.0332 102.739 7.90104 105.781C5.76582 107.452 3.49449 108.985 1.10352 110.369C-8.8935 115.851 -22.0939 116.216 -30.9959 111.251C-35.6373 108.667 -37.4441 104.566 -39.0363 100.946L-39.5597 99.7478C-42.3937 93.2929 -44.7569 86.7013 -46.6344 80.0143C-48.644 73.1904 -50.3663 66.8119 -51.8991 60.5C-54.6122 49.9416 -55.7593 39.1764 -55.3111 28.4781C-54.9822 22.5577 -54.0564 16.83 -53.1628 11.2958C-52.9736 10.1579 -52.8033 9.1339 -52.6254 8.06433C-51.7625 2.87578 -51.078 -3.09078 -51.7941 -7.95726C-52.0676 -10.1429 -52.7808 -12.285 -53.8999 -14.2826C-54.5099 -15.3785 -55.3613 -16.3634 -56.4023 -17.1777C-56.8452 -17.4804 -57.3304 -17.7303 -57.8443 -17.9203C-58.2996 -18.0982 -58.7391 -18.3081 -59.1582 -18.5481C-60.4548 -19.3952 -61.6923 -20.3118 -62.8632 -21.2924C-66.6513 -24.261 -72.3125 -28.839 -79.795 -31.6386C-81.3447 -32.2355 -82.9594 -32.6767 -84.6074 -32.9534C-88.6828 -33.6312 -92.3612 -33.1555 -96.4438 -32.5832C-97.6054 -32.4373 -98.8098 -32.2751 -100.063 -32.1444C-105.305 -31.4822 -110.646 -31.3734 -115.972 -31.8202L-116.078 -31.183C-110.68 -30.7391 -105.269 -30.8638 -99.96 -31.5544C-98.6942 -31.683 -97.4898 -31.8451 -96.3282 -31.9911C-90.857 -32.7065 -86.0858 -33.3162 -80.0794 -31.0545C-72.7774 -28.2966 -67.1159 -23.8004 -63.3688 -20.8269C-62.1553 -19.8035 -60.8645 -18.8542 -59.5059 -17.9862C-59.0805 -17.7362 -58.6335 -17.5171 -58.1697 -17.3313C-57.7286 -17.1675 -57.3142 -16.9489 -56.9396 -16.6824C-56.0094 -15.909 -55.2531 -14.9887 -54.714 -13.9737C-53.6353 -12.0563 -52.9531 -9.99754 -52.7005 -7.89752C-51.9861 -3.10149 -52.7262 2.79736 -53.5295 7.94905C-53.7074 9.01862 -53.8871 10.0996 -54.0669 11.1805C-54.9903 16.7332 -55.944 22.4679 -56.2266 28.4311C-56.6652 39.1711 -55.507 49.977 -52.7813 60.5754C-51.2505 66.8987 -49.5449 73.2978 -47.515 80.1602C-45.5666 86.8837 -43.1282 93.5074 -40.2154 99.9895C-40.0378 100.37 -39.864 100.773 -39.6901 101.176C-38.059 104.885 -36.1912 109.101 -31.3435 111.813C-28.5234 113.356 -25.415 114.416 -22.189 114.938C-13.8803 116.201 -5.46444 114.788 1.50012 110.961C3.92667 109.542 6.23102 107.971 8.39658 106.261C12.458 103.242 16.6704 100.119 21.9282 99.1574C23.7446 98.8396 25.6151 98.7568 27.4818 98.9117C30.3302 99.1759 33.154 99.6886 35.9113 100.442C38.6454 101.197 41.4482 101.707 44.2756 101.962C52.6966 102.497 61.1304 98.3687 69.279 94.4269C74.5992 91.8037 80.0999 89.1405 85.558 87.7797C88.1976 87.0869 90.9596 86.7576 93.7487 86.8032C99.571 86.953 104.625 88.9044 109.957 90.9604C114.605 92.945 119.498 94.4034 124.516 95.2993C132.168 96.4316 139.714 95.2309 146.138 94.019C148.705 93.5457 151.28 93.0268 153.773 92.5176C164.965 90.2279 175.534 88.0683 187.284 89.9055C189.68 90.3039 192.148 90.8313 194.519 91.3776C195.99 91.7041 197.511 92.0507 199.014 92.3474C204.194 93.3842 209.691 94.123 215.095 92.8467C223.028 90.927 228.811 84.873 233.905 78.6224C236.915 74.9252 239.812 71.1039 242.621 67.4083C244.015 65.5667 245.401 63.7546 246.776 61.9722C250.204 57.4557 253.647 53.2458 256.933 49.1736C260.759 44.4311 264.382 39.947 267.684 35.5383C273.495 27.7933 280.702 18.1642 293.876 18.8466C303.622 19.2981 310.827 25.3725 318.486 31.7794C323.391 35.916 328.476 40.176 334.29 42.7916C343.791 47.0494 355.833 47.7775 366.521 44.7374C376.144 41.9879 381.154 35.8403 386.475 29.347C390.761 24.0962 395.195 18.6714 402.371 14.6262C405.447 12.9675 408.691 11.5509 412.067 10.3922C413.976 9.6924 415.803 9.08422 417.573 8.50151C421.372 7.32538 425.006 5.80207 428.418 3.95572L427.311 3.77167Z" fill="white"/>
<path d="M396.283 -1.38836L394.972 -1.06849C391.32 -0.167237 387.839 1.15642 384.617 2.86877C376.564 7.28249 372.624 13.9122 368.829 20.3202C364.667 27.3222 360.745 33.9313 351.854 37.1065C342.581 40.3113 332.085 40.1078 322.645 36.5403C317.132 34.3722 312.162 30.6225 307.362 26.9827C300.357 21.7135 293.088 16.2601 284.044 15.5278C271.52 14.4856 264.249 21.9176 257.807 28.4702L257.697 28.5688L254.112 32.264C248.663 37.7539 242.49 43.977 236.448 51.2626C234.191 53.9742 231.942 56.8743 229.698 59.6699C227.914 61.9457 226.077 64.3062 224.222 66.6053C219.56 72.3547 214.308 77.9475 207.358 79.9137C202.331 81.3345 197.219 80.7767 192.848 80.0263C190.973 79.7145 189.074 79.3052 187.24 78.9067C185.406 78.5082 183.686 78.1519 181.906 77.8325C169.589 75.7841 158.494 77.2481 146.756 78.8742L143.498 79.3146C137.349 80.1629 130.381 81.1088 123.53 80.3903C119.245 79.8458 115.014 78.9267 110.9 77.6468C105.619 76.1722 100.673 74.7767 94.9459 75.0988C92.3392 75.2681 89.7905 75.7698 87.379 76.5883C82.1879 78.5011 77.2455 80.8672 72.6231 83.6525C65.4867 87.6223 58.0949 91.7601 50.7717 91.9454C48.2003 91.9504 45.6234 91.7373 43.0768 91.3088C40.5584 90.8949 38.0146 90.6635 35.4713 90.617C33.6827 90.613 31.9092 90.797 30.1885 91.165C25.4105 92.2179 21.4563 94.8343 17.6345 97.3793C15.4178 98.935 13.0686 100.342 10.6054 101.589C0.798547 106.249 -11.3561 105.958 -18.957 100.894C-23.5523 97.7911 -24.5799 93.1885 -25.4916 89.0963L-25.7214 88.0642C-27.2516 81.0105 -28.2676 73.897 -28.7629 66.7681C-29.0762 62.9391 -29.3724 59.0078 -29.683 54.922C-29.8922 52.0497 -30.1179 49.0889 -30.3601 46.0396C-31.3492 34.9955 -31.5083 23.9378 -30.8364 12.9391C-30.5652 9.05533 -30.1415 5.22031 -29.7367 1.49906C-29.374 -1.80823 -29.0286 -4.9313 -28.7854 -8.08307C-28.2034 -15.3646 -28.5741 -20.618 -29.9512 -24.6473C-30.6567 -26.9091 -31.958 -29.0135 -33.7473 -30.786C-34.7803 -31.8313 -36.141 -32.5844 -37.6437 -32.9424C-38.354 -33.0299 -39.0708 -32.99 -39.7505 -32.8251C-40.3978 -32.6724 -41.0766 -32.6268 -41.7532 -32.6904C-43.7345 -32.9263 -46.6034 -34.5026 -50.2284 -36.5203C-54.9195 -39.2937 -59.915 -41.626 -65.1282 -43.4767C-71.258 -45.4783 -75.8323 -44.7657 -81.1103 -43.9246C-82.6499 -43.6778 -84.2435 -43.4284 -85.9468 -43.2439C-92.3174 -42.2925 -98.8965 -42.4879 -105.293 -43.8186C-108.131 -44.2907 -110.957 -44.7606 -113.766 -45.0874L-113.872 -44.4502C-111.062 -44.131 -108.242 -43.7088 -105.412 -43.1836C-98.9583 -41.8426 -92.3224 -41.6293 -85.8873 -42.5558C-84.1691 -42.7495 -82.5625 -42.9968 -81.0098 -43.2414C-75.8175 -44.05 -71.3252 -44.7528 -65.3979 -42.82C-60.243 -41.0015 -55.3042 -38.702 -50.6691 -35.9622C-46.9958 -33.913 -44.0284 -32.2853 -41.889 -32.0348C-41.1342 -31.958 -40.3757 -31.9981 -39.6482 -32.1532C-39.0588 -32.2924 -38.4394 -32.3284 -37.8242 -32.2591C-36.4522 -31.9435 -35.2119 -31.2537 -34.2846 -30.2907C-32.5755 -28.6052 -31.3306 -26.6023 -30.6533 -24.4483C-29.315 -20.5073 -28.9479 -15.313 -29.5148 -8.12252C-29.771 -4.97291 -30.1015 -1.85905 -30.4642 1.44824C-30.882 5.16731 -31.2946 9.01589 -31.5658 12.8997C-32.228 23.9063 -32.0477 34.9721 -31.0263 46.0223C-30.7834 49.0678 -30.5645 52.0158 -30.3492 54.9047C-30.0497 58.977 -29.7516 62.897 -29.4421 66.7487C-28.9443 73.9057 -27.9241 81.0472 -26.3877 88.1288L-26.158 89.1609C-25.2261 93.3734 -24.1599 98.1461 -19.3305 101.37C-16.4077 103.259 -13.0456 104.528 -9.52252 105.07C-2.38557 106.148 4.8516 105.108 11.0394 102.117C13.5316 100.856 15.9099 99.434 18.156 97.8636C21.9164 95.3669 25.8128 92.7759 30.4698 91.7263C32.1281 91.3726 33.8373 91.1976 35.5608 91.2048C38.0691 91.2505 40.5778 91.4761 43.0622 91.8794C45.6517 92.3219 48.2736 92.5386 50.8892 92.5262C58.4191 92.3051 65.8797 88.1554 73.0907 84.1395C77.6812 81.3864 82.5792 79.0373 87.7181 77.1241C90.0713 76.3392 92.5527 75.8544 95.0894 75.6839C100.63 75.3542 105.615 76.7563 110.727 78.2027C114.884 79.4905 119.159 80.4167 123.487 80.9679C130.458 81.6945 137.469 80.7323 143.657 79.8905L146.93 79.4409C158.46 77.8506 169.377 76.3335 181.434 78.3386L181.824 78.4036C183.582 78.6959 185.375 79.0993 187.12 79.4713C188.864 79.8433 190.867 80.2699 192.766 80.5974C197.219 81.338 202.46 81.9289 207.641 80.4636C214.762 78.4324 220.121 72.7637 224.847 66.9547C226.703 64.6441 228.553 62.2859 230.324 60.0079C232.514 57.215 234.763 54.3149 237.072 51.612C243.098 44.347 249.256 38.1331 254.69 32.6524L258.275 29.039L258.386 28.929C264.703 22.4843 271.858 15.185 284.013 16.2008C292.846 16.9098 299.994 22.2846 306.902 27.491C311.755 31.1394 316.763 34.9774 322.394 37.0832C332.019 40.7193 342.721 40.9276 352.176 37.6629C361.309 34.3993 365.288 27.6943 369.493 20.5943C373.232 14.2003 377.149 7.70718 385.04 3.38343C388.205 1.7264 391.625 0.454998 395.209 -0.397758C396.134 -0.653087 397.052 -0.862908 398.002 -1.10253L396.283 -1.38836Z" fill="white"/>
<path d="M364.709 -6.63978C357.878 -1.92932 354.971 4.93048 352.159 11.6191C348.946 19.2699 345.897 26.5036 337.36 30.2055C333.261 31.8925 328.786 32.8302 324.195 32.9639C319.604 33.0977 314.988 32.4249 310.617 30.9847C305.229 29.1883 300.26 25.9181 295.449 22.7443C288.886 18.4373 282.099 13.9526 274.053 13.0121C262.441 11.6306 254.893 17.1923 248.243 22.0967C240.313 27.6963 233.081 34.0113 226.657 40.9458C223.817 44.0985 221.059 47.5687 218.4 50.9267C217.317 52.2901 216.247 53.6556 215.143 55.0623C211.117 60.0406 206.284 65.5277 199.832 67.717C196.092 68.9659 191.999 69.1973 186.556 68.4558C184.214 68.1365 181.856 67.6741 179.598 67.17L176.44 66.5279C164.248 64.208 153.462 64.3786 141.049 65.3194L137.738 65.5989C132.708 66.1559 127.619 66.3574 122.518 66.2015C119.039 65.9567 115.572 65.5246 112.135 64.9076C106.797 64.0198 101.719 63.1753 96.2101 64.1183C93.8761 64.5076 91.622 65.1624 89.5036 66.0666C84.8942 68.187 80.5202 70.6638 76.4307 73.4691C70.2136 77.4632 63.8007 81.5884 57.3296 82.5235C54.9175 82.8189 52.4694 82.9128 50.0173 82.8041C47.8521 82.7183 45.6887 82.749 43.5392 82.8961C41.9145 83.0227 40.3129 83.2808 38.7546 83.6673C34.7744 84.8974 31.0452 86.6408 27.6847 88.8421C25.3288 90.3083 22.8362 91.6024 20.2304 92.7123C12.4377 95.8013 0.641547 96.412 -6.82286 90.4466C-11.3832 86.8117 -11.5866 81.5979 -11.7581 76.9973L-11.7878 76.2908C-11.9988 68.6358 -11.667 60.9976 -10.7943 53.4207L-10.3754 49.2925C-9.78078 43.5449 -9.17484 37.7289 -8.75573 31.5077C-8.48116 27.7649 -8.24331 23.8405 -7.98275 19.7795C-7.49606 12.6692 -7.0719 5.29126 -6.37296 -2.5321L-6.0137 -6.6234C-5.47597 -12.6728 -4.96516 -18.3994 -4.93635 -24.1242C-4.89736 -31.5194 -5.92766 -37.1514 -8.11417 -41.2218C-9.30339 -43.5884 -11.2037 -45.6454 -13.6024 -47.1625C-14.6741 -47.8165 -15.8775 -48.2754 -17.1381 -48.5106C-17.747 -48.6166 -18.367 -48.6368 -18.9746 -48.5704C-19.9835 -48.4115 -20.9433 -48.0918 -21.8077 -47.6267C-22.6151 -47.1984 -23.5022 -46.8918 -24.4341 -46.7188C-27.5804 -46.2247 -32.2198 -48.1773 -37.6883 -50.4548C-41.8325 -52.285 -46.1029 -53.8665 -50.469 -55.1879C-56.5903 -56.9192 -61.2041 -56.0494 -66.0803 -55.1298C-67.918 -54.7806 -69.8227 -54.4308 -71.9113 -54.1818C-78.4173 -53.1802 -85.1755 -53.633 -91.5756 -55.4994C-98.101 -57.203 -104.802 -58.2153 -111.533 -58.5143L-111.639 -57.8771C-104.934 -57.5808 -98.2595 -56.5767 -91.7578 -54.8865C-85.2617 -52.9709 -78.3951 -52.4962 -71.7829 -53.5057C-69.6813 -53.7525 -67.7617 -54.1115 -65.9091 -54.4699C-60.9173 -55.4405 -56.609 -56.2441 -50.6401 -54.5615C-46.3115 -53.2549 -42.0788 -51.6875 -37.9728 -49.8707C-32.4318 -47.5461 -27.6529 -45.5469 -24.2739 -46.0724C-23.2697 -46.2654 -22.3122 -46.5952 -21.4352 -47.0503C-20.6461 -47.4836 -19.7665 -47.7813 -18.8406 -47.9284C-17.122 -48.0265 -15.3946 -47.5645 -13.9853 -46.6298C-11.7016 -45.1858 -9.89551 -43.2246 -8.77177 -40.9686C-6.62977 -36.9525 -5.61771 -31.4521 -5.6527 -24.1615C-5.67962 -18.448 -6.21456 -12.7372 -6.73738 -6.69698C-6.8565 -5.33701 -6.97563 -3.97704 -7.08363 -2.60352C-7.7454 5.23772 -8.27183 12.587 -8.65625 19.726C-8.90316 23.7853 -9.15585 27.6916 -9.41432 31.445C-9.85947 37.6618 -10.4749 43.5347 -11.0321 49.2184L-11.464 53.3444C-12.3295 60.9494 -12.6613 68.6144 -12.4577 76.2963L-12.4281 77.0029C-12.2544 81.5102 -12.0465 87.099 -7.2392 90.9387C-4.3323 93.1838 -0.792111 94.6773 2.96346 95.243C9.03005 96.1493 15.1879 95.4824 20.6772 93.3245C23.3136 92.2022 25.8355 90.8934 28.219 89.4104C31.521 87.2595 35.1847 85.5602 39.0932 84.3667C40.6119 83.9903 42.1722 83.7371 43.755 83.6102C45.8745 83.4667 48.007 83.4309 50.1419 83.503C52.6388 83.6158 55.1319 83.5214 57.5882 83.2213C64.225 82.2553 70.7125 78.0841 76.9893 74.0531C81.0446 71.2749 85.379 68.8191 89.9447 66.7129C92.0081 65.8256 94.2063 65.1848 96.4836 64.8069C101.886 63.9397 106.864 64.7442 112.128 65.5962C115.599 66.2192 119.101 66.6572 122.614 66.9075C127.753 67.0618 132.879 66.8547 137.944 66.2881L141.256 66.0086C153.607 65.0342 164.327 64.8642 176.425 67.1803C177.48 67.3557 178.523 67.5993 179.57 67.8202C181.86 68.2945 184.226 68.7932 186.594 69.1168C192.169 69.8686 196.392 69.577 200.236 68.3455C206.869 66.116 211.782 60.5487 215.86 55.4973C216.957 54.1361 218.04 52.7727 219.117 51.3617C221.776 48.0037 224.52 44.5427 227.344 41.3992C233.745 34.5015 240.945 28.2168 248.835 22.6395C255.378 17.811 262.802 12.3571 274.099 13.698C281.97 14.6445 288.665 19.0436 295.142 23.3013C299.972 26.4432 305.018 29.8082 310.496 31.6311C314.964 33.1027 319.682 33.7899 324.374 33.653C329.067 33.516 333.641 32.5576 337.831 30.8334C346.621 26.9749 349.701 19.641 353.027 11.8687C355.865 5.10265 358.819 -1.87799 365.872 -6.46981L364.709 -6.63978Z" fill="white"/>
<path d="M340.792 -10.6193C338.517 -6.36898 336.814 -1.88136 335.718 2.75558C333.337 11.1178 331.101 19.0129 322.851 23.4055C319.247 25.1923 315.236 26.2998 311.061 26.6607C306.887 27.0217 302.635 26.6286 298.564 25.5053C293.203 24.1109 288.097 21.2623 283.177 18.503C277.188 15.1685 270.932 11.6725 264.065 10.5655C253.089 8.74011 244.819 12.767 238.789 15.7164C230.479 19.5256 223.051 24.6091 216.835 30.7393C213.616 34.0042 210.595 37.7697 207.687 41.4139L206.007 43.473C202.126 48.3 197.861 53.1916 192.257 55.4285C188.503 56.8484 184.335 57.3197 180.202 56.7913C177.32 56.4547 174.458 55.9514 171.635 55.2847L170.919 55.1656C161.19 53.08 150.534 51.1792 138.531 51.3462C135.847 51.3911 133.145 51.5497 130.446 51.6855C127.474 51.8577 124.393 52.0353 121.395 52.0396C118.986 52.048 116.725 51.9644 114.542 51.8937C108.422 51.6828 103.128 51.4923 97.3885 53.1803C95.3532 53.803 93.4125 54.6253 91.6017 55.6324C87.5712 57.9562 83.7617 60.5554 80.2064 63.4074C74.9272 67.3938 69.4894 71.5292 63.8612 73.189C61.4793 73.8292 59.0307 74.2865 56.5422 74.556C54.9542 74.7714 53.3123 74.9894 51.5714 75.3196C50.1227 75.5911 48.6949 75.9313 47.2941 76.3389C44.106 77.3942 41.0475 78.7096 38.1574 80.2684C35.5176 81.6828 32.738 82.8947 29.8478 83.8911C22.3663 86.1548 11.4767 85.9808 5.31667 80.057C0.804744 75.7286 1.49448 69.8915 2.09861 64.7301L2.12889 64.548C3.22828 56.2986 4.90701 48.1389 7.15558 40.1152L7.92456 37.2614C9.64517 30.7772 11.4557 24.0742 12.9061 17.0423C15.1294 6.40886 16.8889 -5.3775 18.1203 -18.0117C18.9877 -25.3576 19.2637 -32.7708 18.9463 -40.1964C18.4277 -47.8598 16.7391 -53.6364 13.7174 -57.8339C12.0088 -60.3147 9.51058 -62.3156 6.55009 -63.5745C5.66264 -63.9245 4.73371 -64.1772 3.78499 -64.3266C2.45653 -64.5709 1.09454 -64.5285 -0.1828 -64.2031C-1.5096 -63.7967 -2.7431 -63.2001 -3.83505 -62.4368C-4.80908 -61.7608 -5.88245 -61.2006 -7.02925 -60.7697C-11.4213 -59.3018 -17.6348 -61.3641 -24.9323 -63.747C-28.4351 -64.8908 -32.0475 -66.0996 -35.7948 -66.9801C-41.9374 -68.4226 -46.4211 -67.4494 -51.1506 -66.4468C-53.3331 -65.932 -55.5499 -65.52 -57.7919 -65.2127C-66.1428 -64.1576 -70.3001 -64.8256 -77.8599 -67.2405C-89.5084 -70.8966 -100.069 -72.2436 -109.434 -71.1234L-109.544 -70.4634C-100.246 -71.5831 -89.7166 -70.2881 -78.0757 -66.5865C-70.7391 -64.1971 -66.2732 -63.4544 -57.6505 -64.5344C-55.3862 -64.834 -53.1474 -65.2424 -50.9441 -65.7577C-46.0953 -66.8339 -41.9001 -67.7616 -35.9195 -66.3109C-32.2131 -65.4256 -28.6099 -64.2417 -25.1332 -63.1022C-17.7315 -60.702 -11.3526 -58.5888 -6.70342 -60.1542C-5.49503 -60.6149 -4.36575 -61.2131 -3.3433 -61.934C-2.32185 -62.6875 -1.16062 -63.2842 0.0949418 -63.7008C2.15042 -64.1616 4.35955 -63.9357 6.30491 -63.0657C9.1181 -61.8514 11.493 -59.9421 13.1268 -57.5813C16.0725 -53.49 17.741 -47.8337 18.2784 -40.2841C18.5958 -32.8932 18.3254 -25.5144 17.4695 -18.2018C16.2213 -5.54699 14.4713 6.18247 12.2648 16.7953C10.7864 23.8343 9.00384 30.5303 7.27021 37.0122L6.51424 39.8683C4.25004 47.9161 2.56248 56.1019 1.46129 64.3785L1.42912 64.572C0.834678 69.5947 0.0879362 75.8549 4.83 80.4087C7.73494 83.0803 11.5395 84.8463 15.6243 85.4195C20.5456 86.1749 25.5498 85.8327 30.1738 84.4247C33.1077 83.4205 35.9265 82.1914 38.5989 80.7511C41.4519 79.2177 44.4667 77.9189 47.6071 76.8703C48.9761 76.4755 50.3709 76.1454 51.7857 75.8815C53.4987 75.5583 55.1389 75.2698 56.7155 75.1228C59.2435 74.8438 61.7302 74.3732 64.1481 73.7162C69.8881 72.0281 75.3986 67.8581 80.7393 63.8235C84.2712 60.9967 88.0504 58.4162 92.0452 56.1037C93.8458 55.1349 95.7714 54.3492 97.787 53.7611C103.413 52.1126 108.629 52.2901 114.682 52.5016C116.878 52.5745 119.151 52.6603 121.574 52.654C124.6 52.6427 127.675 52.4992 130.666 52.295C133.299 52.1484 136.063 52.0233 138.684 51.9563C150.607 51.7877 161.211 53.6798 170.887 55.7567L171.603 55.8758C174.457 56.5476 177.349 57.056 180.262 57.3976C184.526 57.9324 188.825 57.4341 192.691 55.9567C198.425 53.6597 202.797 48.6922 206.754 43.8077L208.434 41.7486C211.338 38.1272 214.331 34.3687 217.534 31.1244C223.693 25.0203 231.064 19.9582 239.316 16.1666C247.012 12.4535 254.192 9.50824 264.119 11.1241L264.21 11.1393C270.955 12.2609 277.051 15.6718 282.984 18.9386C287.967 21.7201 293.11 24.5867 298.572 26.0211C302.742 27.1667 307.097 27.5654 311.372 27.1931C315.647 26.8208 319.754 25.6853 323.445 23.8551C331.943 19.34 334.317 10.9415 336.615 2.83455C337.934 -1.7987 339.268 -6.52297 341.753 -10.5999L340.792 -10.6193Z" fill="white"/>
<path d="M320.882 -13.9305C320.261 -11.4029 319.799 -8.79019 319.342 -6.20025C317.896 2.49284 316.271 11.4601 308.363 16.5294C302.67 20.1897 294.737 21.4662 286.525 19.9135C280.953 18.9049 275.717 16.5141 270.117 13.9809C264.969 11.628 259.646 9.19928 254.067 7.99077C244.563 5.91918 236.557 7.31227 229.336 9.13979C220.805 11.1119 213.109 15.0457 207.02 20.5477C203.502 23.9281 200.285 27.5436 197.393 31.3648L196.871 32.0145C193.153 36.6698 189.417 41.0298 184.664 43.3029C181.388 44.8594 177.636 45.5452 173.844 45.2805C170.992 45.0804 168.158 44.6092 165.394 43.8751C162.501 43.1718 159.661 42.3838 156.911 41.6224C149.953 39.6935 143.365 37.8729 136.041 37.415C131.211 37.2241 126.387 37.3641 121.614 37.8338L120.354 37.9283C111.483 38.5695 105.179 39.2281 98.6236 42.2774C96.8669 43.1042 95.2056 44.0724 93.66 45.1703C90.2202 47.7157 86.9757 50.4567 83.9458 53.377C79.5953 57.3307 75.0897 61.4925 70.3509 63.8381C67.6199 65.1121 64.7578 66.1697 61.7969 66.9992L59.5656 67.7039L58.8877 67.9186C57.8986 68.2335 56.8538 68.5626 55.7753 68.9328C53.6983 69.6748 51.6469 70.5848 49.6609 71.4239C46.4108 72.9507 42.975 74.1701 39.4084 75.0626C32.0703 76.6251 22.3983 75.5662 17.3846 69.6693C13.3335 64.903 14.4013 58.9651 15.9759 52.7958C18.3896 43.9541 21.4195 35.2736 25.0487 26.8025L26.1728 24.0662C29.0242 17.1387 31.9805 9.98303 34.4798 2.51754C38.4608 -9.20873 41.1724 -21.2847 42.5793 -33.5533C43.565 -41.0796 43.6322 -48.712 42.7798 -56.3215C42.5975 -57.7199 42.3611 -59.0338 42.1041 -60.3043L41.3228 -60.4342C41.6095 -59.1003 41.8644 -57.7366 42.0502 -56.2791C42.8922 -48.7162 42.8283 -41.1311 41.8594 -33.6497C40.4453 -21.429 37.7415 -9.39946 33.7826 2.28467C31.2852 9.73878 28.3308 16.883 25.4943 23.8013L24.3702 26.5377C20.7242 35.0319 17.6854 43.7386 15.2711 52.6084C13.9731 57.6778 12.2047 64.6101 16.8049 70.0173C19.6869 73.2127 23.831 75.338 28.3448 75.9354C32.1161 76.5378 35.9543 76.4473 39.6152 75.6699C43.2294 74.7629 46.7122 73.528 50.0092 71.9846C51.9822 71.1434 54.0298 70.2562 56.0845 69.487C57.1519 69.1033 58.1818 68.7834 59.1709 68.4685L59.8488 68.2538L62.0652 67.5584C65.0658 66.702 67.9673 65.6199 70.7385 64.3235C75.5779 61.9361 80.1095 57.7787 84.5384 53.7561C87.5493 50.8576 90.7726 48.1365 94.1892 45.6091C95.7055 44.5392 97.3314 43.5928 99.0484 42.7806C105.488 39.7824 111.698 39.1313 120.513 38.5042L121.775 38.3984C126.484 37.9697 131.24 37.8576 136 38.0631C143.244 38.5193 149.776 40.354 156.714 42.2445C159.464 43.0058 162.316 43.7959 165.236 44.5037C168.045 45.2573 170.928 45.7366 173.83 45.9328C177.754 46.1994 181.637 45.4918 185.034 43.8907C189.92 41.5461 193.702 37.1471 197.472 32.4186L197.997 31.7576C200.866 27.9594 204.062 24.3674 207.558 21.0114C213.586 15.6181 221.182 11.7699 229.593 9.84898C236.715 8.05182 244.6 6.662 253.948 8.70761C259.438 9.88958 264.723 12.3004 269.834 14.6354C275.182 17.0799 280.716 19.6023 286.393 20.6282C294.731 22.1435 302.947 20.8555 308.804 17.0939C316.983 11.8474 318.5 2.72193 320.071 -6.07899C320.502 -8.67326 320.938 -11.2903 321.611 -13.8093L320.882 -13.9305Z" fill="white"/>
<path d="M303.851 -16.7628L303.122 -16.8841C303.029 -16.3265 303.024 -15.7311 302.987 -15.1876C302.193 -5.82497 301.373 3.84925 293.854 9.71983C289.055 13.4704 282.163 15.1657 274.448 14.4906C267.933 13.9216 261.231 11.4974 254.743 9.15557C251.259 7.89799 247.649 6.596 244.108 5.59795C236.261 3.34047 228.067 2.37442 219.948 2.74938C210.516 3.1452 203.107 5.61967 197.284 10.2991C193.7 13.3784 190.516 16.8001 187.786 20.5061C184.591 24.5117 181.291 28.6635 177.14 31.0953C174.332 32.7978 170.977 33.7086 167.499 33.7131C164.931 33.6978 162.364 33.3145 159.9 32.578C156.162 31.4578 152.51 30.1002 148.975 28.516C144.086 26.4519 139.047 24.3276 133.569 23.4751C128.789 22.826 123.952 22.9367 119.292 23.8017C112.129 24.8613 105.45 27.4692 99.8446 31.3954C98.389 32.4224 97.0187 33.5384 95.7433 34.7357C92.9204 37.3883 90.2676 40.4668 87.6988 43.4422C84.4983 47.4332 80.8678 51.1356 76.8545 54.5012C74.012 56.6599 70.9012 58.5339 67.5755 60.0908C66.4985 60.6133 65.3601 61.1022 64.2944 61.5564C59.4169 63.61 54.234 65.7298 49.0147 66.2182C42.3525 66.9344 33.7089 65.4852 29.485 59.2636C25.8301 53.885 27.4579 47.3153 29.8423 41.0234C33.5672 31.6065 37.9413 22.4198 42.9408 13.513L44.1604 11.2486C48.2323 3.74058 52.4332 -3.97981 56.0486 -11.9613C61.5605 -23.7641 65.2561 -36.2208 67.0408 -49.0127C67.334 -51.4195 67.5302 -53.7255 67.6482 -56.0445L66.9191 -56.1657C66.801 -53.8468 66.6049 -51.5408 66.3154 -49.1567C64.5443 -36.421 60.8623 -24.0199 55.3646 -12.2738C51.7641 -4.30155 47.5614 3.43022 43.4821 10.9019L42.2625 13.1663C37.2402 22.1065 32.851 31.3299 29.1191 40.7862C26.7101 47.226 25.0018 53.9578 28.8049 59.5715C30.1638 61.4621 31.9739 63.0789 34.1021 64.3029C36.2303 65.527 38.6225 66.3272 41.1028 66.6447C43.7629 67.0557 46.461 67.1101 49.1042 66.8061C54.4317 66.2304 59.6741 64.1556 64.6093 62.0765C65.688 61.6244 66.8413 61.1263 67.9333 60.5947C71.3015 59.017 74.4554 57.1232 77.3427 54.9449C81.3874 51.5447 85.0501 47.809 88.284 43.7851C90.836 40.8302 93.4739 37.761 96.28 35.129C97.53 33.9511 98.8749 32.8541 100.305 31.8461C105.817 27.9833 112.389 25.4211 119.435 24.3868C124.008 23.5319 128.754 23.4182 133.447 24.051C138.798 24.941 143.83 26.9471 148.674 29.0389C152.245 30.6406 155.935 32.0124 159.713 33.1432C162.254 33.9013 164.9 34.2941 167.548 34.3058C171.147 34.301 174.619 33.3662 177.535 31.617C181.792 29.1094 185.126 24.9163 188.373 20.8376C191.068 17.1611 194.212 13.7643 197.752 10.7043C203.53 6.13433 210.824 3.71081 220.055 3.31664C228.085 2.94451 236.19 3.89579 243.954 6.12191C247.469 7.11562 251.053 8.41328 254.524 9.6687C261.064 12.0192 267.816 14.4634 274.45 15.0406C282.363 15.7367 289.445 14.0263 294.381 10.17C302.076 4.1298 302.944 -5.67663 303.746 -15.1666C303.753 -15.6098 303.814 -16.2194 303.851 -16.7628Z" fill="white"/>
<path d="M286.495 -19.6493C286.268 -11.1276 285.283 -2.79056 279.35 2.87607C270.87 10.9839 255.657 11.0615 234.139 3.10971C218.155 -2.79915 200.047 -8.40644 187.407 0.0970228C183.521 2.70156 180.55 6.48711 177.702 10.1762C173.099 16.0523 168.746 21.5491 161.124 22.1641C154.767 22.6505 149.382 19.311 143.684 15.7559C139.72 13.2842 135.607 10.741 131.071 9.53069C117.538 5.94694 104.698 15.2474 97.8376 24.3146C95.5758 27.2944 93.5182 30.4952 91.5296 33.6023C87.1375 40.4607 82.5867 47.5499 75.5965 52.4912C72.4488 54.6304 68.7783 56.1182 64.8409 56.8508C60.9036 57.5835 56.7944 57.5433 52.7999 56.7331C50.4019 56.2625 48.1386 55.3069 46.1923 53.9433C44.246 52.5797 42.6711 50.8463 41.5947 48.8828C38.2571 42.4812 40.9946 35.0319 43.7609 29.2596C49.1719 17.9636 56.2619 7.19234 63.1183 -3.22018C68.0779 -10.7559 73.2169 -18.5659 77.6976 -26.5203C82.4359 -34.7905 86.1926 -43.4973 88.9105 -52.5085L88.1944 -52.6276C85.4656 -43.6804 81.7105 -35.0365 76.9857 -26.8258C72.5219 -18.8919 67.3996 -11.1026 62.4064 -3.52566C55.5332 6.90745 48.4413 17.6901 43.0116 29.018C40.1854 34.9091 37.3954 42.5133 40.8644 49.1706C41.9743 51.2321 43.6151 53.0525 45.6509 54.481C47.6867 55.9094 50.0589 56.9049 52.571 57.385C53.0919 57.4716 53.6257 57.5604 54.1595 57.6492C58.0309 58.2259 61.9607 58.1102 65.7115 57.3091C69.4623 56.5079 72.9563 55.038 75.9822 52.988C83.0768 47.9822 87.665 40.829 92.0907 33.9294C94.0643 30.8316 96.1296 27.5853 98.367 24.6716C105.117 15.7849 117.649 6.6437 130.815 10.1896C135.224 11.3555 139.277 13.9355 143.178 16.3032C148.733 19.7527 154.496 23.3186 161.113 22.7937C169.066 22.1987 173.514 16.5307 178.217 10.5424C181.053 6.92157 183.991 3.1772 187.787 0.627947C200.123 -7.65713 218.002 -2.12294 233.796 3.7193C255.631 11.7821 271.119 11.6568 279.821 3.34034C285.9 -2.47748 286.914 -10.9034 287.142 -19.5183L286.495 -19.6493Z" fill="white"/>
<path d="M472.49 220.238C446.391 216.821 423.229 235.49 408.049 252.341C406.853 253.663 405.669 254.986 404.469 256.33C388.389 274.329 371.759 292.985 346.64 295.823C322.586 298.535 299.998 285.354 278.137 272.621C254.962 259.108 230.968 245.121 205.52 250.664C193.97 253.175 184.363 259.528 175.086 265.668C168.653 269.918 162.008 274.309 154.748 277.416C117.767 293.249 78.9401 274.643 52.8832 259.306C50.247 257.699 47.3239 256.207 44.3007 254.593C36.5091 250.515 27.6974 245.892 22.031 239.816C18.8193 236.359 17.0694 231.192 15.399 226.19C13.0438 219.192 10.6185 211.972 4.04105 208.96C-0.0727148 207.099 -4.45493 205.783 -8.9578 205.056C-24.0615 202.544 -40.2776 205.998 -54.7592 210.044L-58.5081 211.105C-76.1856 216.104 -94.4535 221.275 -112.519 217.183C-125.954 214.13 -137.455 206.207 -148.556 198.538C-150.251 197.305 -151.961 196.105 -153.684 194.937L-153.923 196.371C-152.42 197.392 -150.919 198.426 -149.445 199.454C-138.204 207.17 -126.64 215.197 -112.831 218.335C-94.3752 222.574 -75.8893 217.299 -58.0163 212.25L-54.2692 211.201C-35.8228 206.084 -14.5242 201.838 3.46121 210.033C9.45509 212.772 11.6848 219.399 14.1125 226.444C15.829 231.57 17.6101 236.871 21.0278 240.538C26.8631 246.806 35.8104 251.498 43.6985 255.639C46.7758 257.25 49.6671 258.772 52.2868 260.318C67.8316 269.51 87.9252 279.832 109.539 283.427C125.307 286.288 141.481 284.586 155.612 278.577C162.988 275.419 169.692 270.991 176.172 266.702C185.343 260.638 194.828 254.37 206.103 251.907C230.886 246.498 253.525 259.7 277.494 273.672C299.585 286.548 322.434 299.854 347.031 297.093C372.707 294.207 390.268 274.536 405.771 257.189L409.336 253.21C424.271 236.623 446.984 218.241 472.408 221.534L472.49 220.238Z" fill="white"/>
<path d="M499.635 57.0151C498.628 58.987 497.39 60.8537 495.939 62.586C483.767 77.0374 460.085 78.0801 438.837 77.9142C421.918 77.7899 406.934 77.0519 395.062 69.348C388.093 64.833 382.404 58.0053 376.905 51.4079C367.468 40.0865 358.544 29.3766 343.945 30.1877C325.527 31.1938 318.977 49.8191 314.268 67.1953C307.541 91.8997 295.518 115.06 278.83 135.459C272.79 142.815 264.373 151.425 252.851 152.724C245.545 153.532 238.516 151.381 231.055 149.1C225.927 147.321 220.615 146.045 215.216 145.296C200.744 143.813 187.349 150.016 174.386 155.952C159.461 162.824 145.407 169.292 130.087 164.862C122.262 162.59 115.694 157.592 109.351 152.772C102.793 147.788 96.0117 142.626 87.75 140.328C75.152 136.83 62.2733 140.651 49.8825 144.355C36.6499 148.294 24.1492 152.014 11.7634 147.803C7.68581 146.257 3.7884 144.338 0.137366 142.081C-6.41202 138.338 -13.1936 134.462 -20.842 135.154C-29.3263 135.965 -34.8285 141.855 -40.1013 147.573C-42.2107 149.938 -44.4831 152.184 -46.9066 154.299C-57.1186 162.844 -73.6897 166.099 -91.3486 163.022C-107.341 160.222 -122.021 153.15 -136.217 146.31C-139.042 144.952 -141.945 143.499 -144.861 141.961L-145.086 143.315C-142.356 144.763 -139.602 146.145 -136.913 147.434C-122.618 154.325 -107.824 161.439 -91.5532 164.332L-90.8762 164.445C-73.0513 167.409 -56.2546 164.005 -45.8542 155.293C-43.4099 153.118 -41.1188 150.812 -38.9926 148.389C-33.6154 142.607 -28.535 137.161 -20.6428 136.45C-13.5249 135.81 -7.26907 139.388 -0.645349 143.167C3.10283 145.474 7.10009 147.436 11.2799 149.021C24.1733 153.398 37.5046 149.43 50.3871 145.585C62.5916 141.955 75.2059 138.195 87.3428 141.57C95.3107 143.784 101.962 148.842 108.414 153.739C114.865 158.635 121.563 163.736 129.682 166.092C145.511 170.677 160.532 163.786 175.064 157.105C187.844 151.221 201.07 145.154 215.069 146.581C220.358 147.307 225.564 148.545 230.592 150.274C237.886 152.516 245.422 154.833 253.052 154.009C265.105 152.657 273.788 143.812 279.993 136.272C296.823 115.741 308.954 92.4239 315.748 67.5467C320.334 50.5943 326.698 32.4409 344.144 31.4837C357.932 30.7248 366.624 41.1388 375.79 52.158C381.369 58.8388 387.113 65.7342 394.267 70.4317C407.554 79.0376 425.677 79.1634 438.934 79.2633C460.529 79.4286 484.581 78.342 497.176 63.4349C497.842 62.6453 498.458 61.8358 499.023 61.0175L499.635 57.0151Z" fill="white"/>
<path d="M286.104 -19.7143C285.872 -11.2403 284.923 -2.95577 279.053 2.65125C270.677 10.6128 255.609 10.7028 234.242 2.81115C218.171 -3.13563 199.929 -8.74182 187.143 -0.168981C183.226 2.46536 180.238 6.2715 177.351 9.9541C172.785 15.7663 168.488 21.249 161.035 21.8103C154.815 22.2842 149.465 18.974 143.843 15.4433C139.84 12.965 135.703 10.4061 131.115 9.18715C117.379 5.53462 104.403 14.9294 97.4623 24.0768C95.1986 27.068 93.139 30.2801 91.1374 33.385C86.7622 40.2228 82.2282 47.2915 75.2865 52.1824C72.1856 54.2969 68.5664 55.7676 64.683 56.4913C60.7995 57.215 56.7458 57.1742 52.8064 56.3717C50.4636 55.9149 48.2521 54.9827 46.3511 53.6507C44.4502 52.3188 42.9132 50.6246 41.8649 48.7056C38.5754 42.4172 41.2847 35.0568 44.0267 29.3505C49.4339 18.0773 56.509 7.31528 63.3654 -3.09724C68.3269 -10.6444 73.464 -18.4429 77.9447 -26.3974C82.7198 -34.6867 86.5156 -43.414 89.275 -52.4479L87.8167 -52.6904C85.0913 -43.7785 81.3464 -35.1684 76.6381 -26.9889C72.1872 -19.0528 67.065 -11.2635 62.0588 -3.68871C55.1856 6.7444 48.0769 17.5476 42.6434 28.8983C39.7947 34.8441 36.9765 42.5372 40.4955 49.2963C41.632 51.4064 43.3114 53.2698 45.3948 54.7326C47.4782 56.1953 49.9058 57.2154 52.477 57.7084C53.0108 57.7972 53.5447 57.886 54.0785 57.9748C58.014 58.5708 62.0111 58.46 65.8266 57.6492C69.642 56.8383 73.1959 55.3443 76.2717 53.2583C83.4668 48.2108 88.0049 41.0375 92.5032 34.1033C94.475 31.0168 96.5308 27.8274 98.7608 24.8774C105.443 16.073 117.791 6.99476 130.821 10.4713C135.18 11.6171 139.206 14.1224 143.113 16.5378C148.728 20.0209 154.538 23.6296 161.307 23.0716C169.437 22.4593 174.112 16.478 178.661 10.6864C181.481 7.0862 184.401 3.36243 188.153 0.840819C200.338 -7.34074 218.115 -1.83526 233.809 3.9669C255.793 12.0898 271.42 11.9407 280.236 3.50281C286.332 -2.33559 287.3 -10.8157 287.601 -19.4653L286.104 -19.7143Z" fill="white"/>
</g>
<defs>
<linearGradient id="paint0_linear" x1="444" y1="14.2426" x2="-91.0001" y2="503.742" gradientUnits="userSpaceOnUse">
<stop offset="0.14257" stop-color="#53FFE0"/>
<stop offset="0.76547" stop-color="#32CEFF"/>
</linearGradient>
</defs>
</svg>
