<svg width="414" height="896" viewBox="0 0 414 896" fill="none" xmlns="http://www.w3.org/2000/svg">
<path d="M68.4945 -114.911C339.844 -123.957 710.798 233.86 718.322 244.242C856.152 389.343 661.462 493.575 515.485 632.237C490.285 623.829 478.681 661.84 336.056 583.084C309.495 568.418 236.657 517.278 166.377 525.344C96.0971 533.41 53.198 612.616 -51.6861 605.043C-97.1557 601.759 -194.944 573.962 -302.926 488.754C-410.909 403.545 -125.891 -39.7052 68.4945 -114.911Z" fill="url(#paint0_linear)"/>
<g opacity="0.52">
<path d="M826.323 371.753C777.725 365.424 734.511 400.311 706.194 431.715C703.979 434.174 701.733 436.671 699.508 439.193C669.284 473.019 638.041 507.99 590.716 513.312C545.383 518.417 502.909 493.669 461.854 469.727C418.412 444.468 373.705 418.363 326.377 428.68C304.861 433.363 286.937 445.239 269.584 456.707C257.523 464.693 245.043 472.939 231.374 478.839C161.725 508.629 88.6796 473.647 39.7923 444.787C34.8519 441.774 29.3704 439 23.7047 435.976C9.05778 428.303 -7.5253 419.607 -18.2071 408.145C-24.3337 401.56 -27.6269 391.808 -30.7953 382.363C-35.1363 369.413 -39.6504 355.997 -51.684 350.402C-59.3328 346.94 -67.4805 344.492 -75.8527 343.139C-104.036 338.452 -134.296 344.902 -161.334 352.48L-168.384 354.463C-201.593 363.863 -235.957 373.575 -269.976 365.836C-295.3 360.09 -316.898 345.213 -337.773 330.807C-340.853 328.673 -343.958 326.535 -347.07 324.44L-347.293 325.783C-344.362 327.761 -341.484 329.751 -338.605 331.742C-317.588 346.194 -295.861 361.202 -270.248 367.018C-235.863 374.818 -201.317 365.07 -167.889 355.553L-160.863 353.566C-126.147 343.847 -86.0965 335.979 -52.2761 351.399C-40.7648 356.666 -36.3545 369.802 -32.0757 382.522C-28.8762 392.083 -25.5519 401.949 -19.2376 408.762C-8.38899 420.427 8.30904 429.186 23.0465 436.918C28.8133 439.937 34.2563 442.793 39.1412 445.687C68.2276 462.883 105.79 482.19 146.173 488.906C174.087 493.549 203.305 492.162 232.103 479.881C245.874 473.976 258.41 465.695 270.526 457.674C287.768 446.276 305.576 434.49 326.869 429.792C373.698 419.611 416.166 444.401 461.221 470.674C502.508 494.72 545.171 519.696 591.031 514.438C638.893 509.052 670.317 473.892 700.671 439.891L707.381 432.417C735.464 401.215 778.249 366.651 826.211 372.874L826.323 371.753Z" fill="white"/>
<path d="M830.752 345.12C826.221 344.728 821.721 343.98 817.307 342.884C815.205 342.404 813.01 341.885 810.869 341.485C779.572 335.47 746.918 347.416 714.002 377.069C705.253 385.028 697.084 393.468 689.538 402.343L684.462 408.292C656.951 440.575 625.763 477.177 580.459 484.368C569.376 486.103 557.954 486.145 546.687 484.493C518.714 480.652 491.771 467.91 466.712 454.692C460.673 451.496 454.534 448.153 448.604 444.909C425.622 432.322 401.619 419.236 377.546 412.91C360.205 407.974 341.858 407.32 324.549 411.021C303.716 415.664 286.182 427.014 269.21 437.997C257.3 445.68 245.009 453.694 231.672 459.255C210.757 468.213 187.156 471.734 163.531 469.42C121.044 465.4 80.4644 444.035 45.7771 424.33C40.3488 421.236 34.2399 418.313 28.0338 415.221C13.6851 408.168 -1.1512 400.879 -11.5133 391.114C-17.6909 385.287 -21.3148 376.621 -24.7861 368.242C-29.6122 356.702 -34.5871 344.699 -46.4312 339.924C-53.4177 337.101 -60.7459 335.057 -68.2386 333.843C-81.3215 331.864 -94.576 331.511 -107.609 332.796C-122.956 334.259 -138.093 336.797 -152.879 340.388C-157.725 341.481 -162.594 342.614 -167.487 343.787C-176.305 345.849 -185.389 347.998 -194.482 349.904C-214.62 354.137 -236.174 357.543 -257.452 354.004L-257.72 353.959C-265.636 352.589 -273.378 350.396 -280.782 347.429C-296.152 341.388 -310.861 332.281 -325.044 323.479C-331.52 319.444 -338.131 315.321 -345.005 311.416L-345.231 312.781C-338.591 316.581 -332.109 320.573 -325.724 324.55C-311.471 333.384 -296.716 342.522 -281.228 348.604C-273.755 351.626 -265.935 353.861 -257.936 355.26L-257.668 355.305C-236.147 358.884 -214.411 355.443 -194.144 351.187C-185.026 349.285 -175.918 347.14 -167.096 345.057C-162.214 343.897 -157.335 342.758 -152.513 341.654C-137.786 338.117 -122.714 335.619 -107.438 334.183C-83.2996 332.127 -63.5218 334.431 -46.9926 341.19C-35.6956 345.786 -31.0394 356.991 -26.1023 368.768C-22.5024 377.278 -18.9485 386.064 -12.4262 392.08C-1.91099 401.98 13.0402 409.331 27.483 416.423C33.7902 419.509 39.7455 422.45 45.1322 425.493C76.8216 443.473 113.417 462.861 151.995 469.276C155.802 469.909 159.654 470.419 163.531 470.778C187.4 473.11 211.242 469.546 232.369 460.489C245.85 454.82 258.186 446.835 270.124 439.135C286.984 428.221 304.431 416.945 325.006 412.346C342.092 408.623 360.229 409.211 377.382 414.044C401.282 420.21 425.058 433.302 448.089 445.897C454.03 449.077 460.158 452.484 466.197 455.68C491.37 468.961 518.53 481.761 546.694 485.656C558.114 487.314 569.687 487.268 580.92 485.519C626.716 478.234 658.096 441.379 685.747 409.009C687.419 407.096 689.14 405.038 690.823 403.06C698.305 394.226 706.402 385.819 715.071 377.883C747.662 348.526 779.841 336.72 810.734 342.602C812.832 342.951 814.996 343.508 817.098 343.989C821.536 345.121 826.06 345.918 830.619 346.369L830.752 345.12Z" fill="white"/>
<path d="M841.191 282.344C840.943 282.784 840.673 283.2 840.449 283.644C839.586 285.21 838.755 286.891 837.921 288.593C833.309 297.928 828.087 308.52 814.359 311.606C807.352 313.18 800.028 311.83 792.949 310.521C790.777 310.16 788.533 309.787 786.361 309.426C756.782 305.142 726.277 318.038 695.659 347.744C687.552 355.73 679.963 364.117 672.925 372.867L669.684 376.974C643.432 409.379 613.678 446.109 570.353 455.273C559.989 457.404 549.233 458.049 538.49 457.184C516.049 455.512 492.331 448.258 461.587 433.635C453.521 429.818 445.372 425.592 437.446 421.534C416.893 410.929 395.667 399.992 374.21 394.671C357.251 390.153 339.412 389.771 322.637 393.566C302.537 398.178 285.363 409.018 268.751 419.491C257.066 426.883 244.964 434.512 231.903 439.922C211.54 448.59 188.539 451.864 165.588 449.36C127.266 445.178 91.4339 425.721 56.7929 406.943L51.688 404.166C45.6008 400.962 38.8996 397.832 31.8116 394.615C18.6631 388.638 5.07224 382.455 -4.80293 374.436C-11.035 369.389 -14.9862 361.786 -18.8092 354.466C-24.0717 344.344 -29.525 333.861 -41.1476 329.714C-47.3803 327.501 -53.8297 325.856 -60.3915 324.805C-73.7792 322.801 -87.3248 322.256 -100.719 323.182C-115.459 324.077 -130.074 325.827 -144.469 328.419C-157.55 330.626 -170.659 333.311 -184.536 336.087L-184.976 336.167C-205.884 340.36 -225.623 344.308 -245.531 342.181C-252.94 341.361 -260.252 339.777 -267.314 337.462C-282.788 332.501 -297.221 324.6 -312.529 316.225C-322.335 310.804 -332.569 305.245 -343.182 300.456L-343.391 301.714C-332.966 306.428 -322.99 311.878 -313.177 317.257C-297.8 325.665 -283.297 333.599 -267.68 338.607C-260.501 340.964 -253.067 342.575 -245.534 343.407C-225.355 345.558 -205.511 341.583 -184.498 337.364L-184.058 337.284C-170.181 334.508 -157.082 331.887 -144.044 329.629C-129.732 327.041 -115.201 325.293 -100.545 324.394C-76.2302 323.091 -57.5118 325.13 -41.6842 330.83C-30.6193 334.862 -25.4984 344.479 -20.1147 354.928C-16.3339 362.35 -12.2261 370.068 -5.77482 375.304C4.23258 383.433 17.9175 389.653 31.1601 395.668C38.1505 398.869 44.8902 401.918 50.9179 405.177L56.0472 407.959C88.2472 425.432 121.555 443.484 156.984 449.376C159.766 449.838 162.523 450.297 165.344 450.525C188.544 453.064 211.797 449.755 232.378 440.987C245.544 435.551 257.705 427.865 269.443 420.46C285.942 410.056 303.053 399.294 322.896 394.727C339.435 390.984 357.023 391.355 373.746 395.799C394.959 401.08 416.189 411.995 436.578 422.53C444.501 426.608 452.751 430.829 460.789 434.664C491.721 449.362 515.582 456.661 538.222 458.345C549.086 459.234 559.965 458.58 570.44 456.406C614.257 447.148 644.166 410.246 670.547 377.665L673.893 373.532C680.905 364.817 688.464 356.462 696.536 348.504C726.828 319.094 756.936 306.329 786.023 310.553C788.17 310.91 790.415 311.283 792.562 311.64C799.861 312.986 807.282 314.351 814.579 312.694C828.932 309.471 834.297 298.618 839.021 289.061C839.449 288.146 839.894 287.277 840.34 286.409L841.191 282.344Z" fill="white"/>
<path d="M848.859 236.242C834.809 239.757 823.376 246.38 816.543 255.652C815.636 256.882 814.74 258.201 813.809 259.58C808.598 267.238 802.698 275.877 788.929 278.758C782.253 280.146 775.389 279.202 768.745 278.294C766.475 277.917 764.108 277.676 761.814 277.448C733.514 274.824 705.881 288.241 677.257 318.476C670.349 325.786 663.474 333.956 656.249 343.47L654.772 345.415C629.754 378.091 601.404 415.121 559.942 426.348C550.337 428.922 540.286 430.205 530.121 430.154C507.684 430.126 484.211 424.71 456.313 412.883C446.705 408.831 436.985 404.103 427.568 399.513C409.127 390.529 390.038 381.219 370.803 376.706C354.271 372.564 336.968 372.397 320.732 376.223C301.34 380.8 284.555 391.112 268.352 401.084C256.965 408.529 244.844 415.09 232.116 420.696C212.305 429.071 189.903 432.09 167.631 429.387C135.056 425.328 104.701 409.126 75.3309 393.482C69.5121 390.323 63.4981 387.132 57.5777 384.131C50.6441 380.59 42.8413 377.298 35.2125 374.166C23.3653 369.26 11.1211 364.178 1.89341 357.844C-4.38601 353.535 -8.67512 347.058 -12.8182 340.759C-18.545 332.071 -24.4733 323.087 -35.8536 319.595C-40.99 318.038 -46.2363 316.821 -51.5474 315.955C-65.5086 313.909 -79.6113 313.15 -93.6238 313.691C-107.784 314.033 -121.883 315.016 -135.865 316.637C-149.414 318.196 -162.326 320.147 -175.275 322.617C-178.953 323.32 -182.6 324.043 -186.217 324.785C-202.306 327.895 -217.862 330.961 -233.118 330.418C-240.089 330.144 -247.035 329.165 -253.822 327.501C-269.689 323.701 -284.913 316.48 -300.875 308.873C-314.057 302.305 -327.7 296.529 -341.707 291.586L-341.909 292.801C-328.088 297.695 -314.628 303.411 -301.624 309.91C-285.348 317.591 -270.153 324.829 -254.156 328.76C-247.261 330.464 -240.198 331.462 -233.111 331.734C-217.583 332.301 -202.171 329.188 -185.823 325.881C-182.218 325.165 -178.558 324.416 -174.88 323.712C-161.935 321.263 -149.061 319.241 -135.599 317.754C-121.659 316.144 -107.604 315.168 -93.4874 314.831C-75.8714 314.452 -55.1991 314.844 -36.2052 320.654C-25.3511 323.993 -19.8014 332.388 -13.953 341.25C-9.72645 347.65 -5.38191 354.246 1.14819 358.706C10.5116 365.128 22.8256 370.244 34.7074 375.244C42.3083 378.392 50.1669 381.65 56.9577 385.146C62.871 388.189 68.8636 391.508 74.7108 394.497C102.559 409.34 131.305 424.661 162.074 429.778C163.905 430.082 165.71 430.382 167.558 430.58C190.1 433.292 212.766 430.21 232.801 421.708C245.641 416.024 257.869 409.379 269.355 401.842C285.473 391.922 302.147 381.679 321.326 377.177C337.335 373.406 354.394 373.563 370.7 377.631C389.763 382.116 408.758 391.388 427.105 400.334C436.522 404.925 446.264 409.678 455.92 413.738C484.044 425.559 507.695 431.114 530.335 431.132C540.626 431.218 550.807 429.957 560.546 427.391C602.552 416.057 630.934 378.835 656.078 346.005L657.531 344.055C664.745 334.605 671.588 326.474 678.493 319.186C706.74 289.26 733.999 275.978 761.804 278.564C764.077 278.767 766.308 279.072 768.686 279.402C775.452 280.33 782.442 281.273 789.4 279.845C803.689 276.852 809.768 267.893 815.094 260.144C815.994 258.804 816.887 257.506 817.804 256.213C824.273 247.471 835.359 241.119 848.708 237.598L848.859 236.242Z" fill="white"/>
<path d="M852.512 214.279C827.127 211.613 804.721 216.367 792.613 227.655C791.575 228.622 790.55 229.657 789.592 230.746C783.78 236.595 777.236 243.22 763.565 245.811C757.403 246.722 751.075 246.771 744.81 245.957C742.338 245.743 739.862 245.551 737.372 245.444C710.874 244.499 685.293 258.696 659.081 289.201C652.868 296.407 646.505 304.508 639.763 313.993C616.209 346.759 589.518 383.912 549.861 397.258C540.969 400.218 531.607 402.082 522.033 402.797C499.723 404.565 476.601 400.961 451.301 391.757C440.529 387.775 429.62 382.805 419.07 377.939C402.352 370.206 385.072 362.227 367.649 358.431C351.536 354.675 334.764 354.722 319.055 358.567C300.375 363.086 284.075 372.888 268.185 382.341C256.921 389.476 244.973 395.763 232.46 401.14C213.2 409.226 191.395 411.99 169.804 409.083C141.403 405.105 115.144 390.965 89.6815 377.308C81.1639 372.736 72.3468 368.004 63.5772 363.741C55.2875 359.9 46.7882 356.445 38.1162 353.393C27.9516 349.977 18.0987 345.816 8.66436 340.957C2.30963 337.402 -2.37992 331.976 -6.80151 326.749C-12.9926 319.496 -19.3922 311.989 -30.5337 309.172C-34.1198 308.269 -37.783 307.528 -41.4431 306.919C-56.4272 304.779 -71.5364 303.769 -86.6039 303.901C-102.645 303.709 -115.595 303.923 -127.332 304.534C-140.241 305.124 -153.046 306.531 -165.646 308.747C-172.366 309.952 -178.877 311.411 -185.179 312.817C-197.529 315.606 -209.198 318.224 -220.889 318.712C-227.418 318.99 -233.994 318.631 -240.496 317.642C-257.062 315.172 -273.49 308.562 -290.859 301.575C-306.629 295.227 -322.918 288.684 -340.707 284.673L-340.905 285.867C-323.361 289.837 -307.141 296.347 -291.465 302.658C-274.002 309.682 -257.497 316.283 -240.744 318.828C-234.153 319.842 -227.488 320.216 -220.868 319.942C-209.027 319.457 -197.302 316.805 -184.782 314.045C-178.48 312.639 -171.968 311.18 -165.297 309.966C-152.763 307.77 -140.028 306.372 -127.189 305.785C-115.501 305.165 -102.579 304.969 -86.562 305.157C-67.1447 305.406 -48.2864 306 -30.8614 310.388C-20.2009 313.081 -14.2183 320.081 -7.87769 327.49C-3.34831 332.823 1.37589 338.342 7.96044 342.023C17.4638 346.913 27.3877 351.1 37.6248 354.538C46.2566 357.554 54.7104 360.986 62.9465 364.819C71.6917 369.079 80.4844 373.806 89.0055 378.357C113.66 391.595 139.143 405.277 166.667 409.855L169.644 410.35C191.498 413.294 213.57 410.498 233.067 402.315C245.585 396.887 257.539 390.557 268.813 383.388C284.571 373.978 300.832 364.257 319.307 359.77C334.788 355.98 351.317 355.93 367.2 359.627C384.466 363.462 401.651 371.404 418.303 379.082C428.874 383.974 439.821 389.016 450.673 392.968C476.186 402.251 499.528 405.892 522.048 404.071C531.747 403.351 541.231 401.463 550.238 398.46C590.289 385.004 617.11 347.676 640.765 314.751C647.525 305.314 653.839 297.204 659.923 290.02C685.837 259.948 711.083 245.805 737.107 246.736C739.601 246.822 741.951 247.016 744.545 247.25C750.954 248.062 757.425 248.008 763.729 247.088C777.815 244.412 784.792 237.442 790.444 231.655C791.5 230.582 792.524 229.547 793.462 228.585C805.199 217.564 827.134 212.929 852.076 215.543L852.512 214.279Z" fill="white"/>
<path d="M854.497 202.338C851.124 201.207 847.615 200.142 843.953 199.094C813.287 190.488 784.491 190.696 768.836 199.64C767.474 200.444 766.041 201.367 764.647 202.209C756.94 207.566 747.852 211.229 738.093 212.913C732.507 213.701 726.809 213.915 721.111 213.551C718.192 213.46 715.447 213.376 712.699 213.467C687.71 214.154 664.795 228.904 640.629 259.924C635.113 267.005 629.361 275.055 623.04 284.566C603.829 313.233 577.492 352.483 539.516 368.234C531.302 371.599 522.616 374.068 513.644 375.589C491.308 379.475 467.922 377.859 446.015 370.916C434.078 366.998 422.411 362.407 411.088 357.175C395.824 350.495 380.07 343.601 364.19 340.325C348.515 336.917 332.278 337.14 317.091 340.973C299.146 345.439 283.211 354.71 267.782 363.648C256.7 370.486 244.981 376.516 232.737 381.684C212.324 389.684 191.863 392.088 171.934 388.883C146.669 384.901 123.607 372.191 101.272 359.93C90.9544 354.27 80.3165 348.425 69.5332 343.454C59.9869 339.32 50.1563 335.759 40.1113 332.798C31.7529 330.322 23.5435 327.428 15.5245 324.129C9.49381 321.113 4.04171 317.243 -0.60114 312.682C-7.15891 306.88 -14.1519 300.83 -25.0582 298.71C-26.4735 298.474 -27.8887 298.239 -29.3283 298C-43.0209 296.021 -56.8093 294.856 -70.5993 294.511L-79.4073 294.098L-88.9545 293.606C-99.2479 293.077 -108.969 292.578 -118.626 292.44C-131.149 292.097 -143.622 292.909 -155.84 294.863C-164.662 296.479 -173.366 298.491 -181.918 300.891C-190.59 303.424 -199.483 305.402 -208.529 306.809C-214.613 307.62 -220.806 307.861 -227.004 307.528C-244.749 306.571 -262.999 300.511 -282.291 294.082C-296.317 289.148 -310.637 284.967 -325.169 281.56L-339.536 278.536L-339.735 279.73L-325.424 282.789C-310.947 286.18 -296.683 290.345 -282.713 295.261C-263.302 301.732 -244.982 307.825 -227.011 308.775C-220.713 309.109 -214.422 308.87 -208.236 308.063C-199.129 306.643 -190.176 304.654 -181.443 302.11C-172.971 299.712 -164.343 297.709 -155.596 296.109C-143.47 294.169 -131.09 293.363 -118.661 293.706C-109.029 293.839 -99.3316 294.334 -89.0662 294.88L-79.5154 295.351L-70.683 295.768C-55.5774 296.461 -39.9696 297.15 -25.4001 300.012C-14.9051 302.042 -8.46886 307.67 -1.66392 313.645C3.11814 318.254 8.71924 322.149 14.9009 325.165C22.9615 328.496 31.2179 331.413 39.627 333.901C49.6354 336.857 59.4348 340.398 68.9584 344.498C79.672 349.435 90.31 355.28 100.579 360.932C122.798 373.13 145.753 385.735 170.983 389.93L171.813 390.068C192.016 393.428 212.753 390.873 233.431 382.785C245.738 377.591 257.519 371.534 268.665 364.672C283.989 355.759 299.862 346.566 317.552 342.123C332.516 338.312 348.524 338.051 363.992 341.366C379.701 344.614 395.382 351.495 410.552 358.137C421.916 363.408 433.628 368.035 445.611 371.988C467.744 379.045 491.389 380.703 513.972 376.783C523.055 375.254 531.847 372.758 540.158 369.348C578.484 353.458 604.926 314.029 624.357 285.245C630.671 275.777 636.398 267.723 641.907 260.684C665.818 229.994 688.383 215.383 712.943 214.713C715.639 214.635 718.359 214.715 721.226 214.819C727.036 215.177 732.845 214.952 738.539 214.149C748.474 212.448 757.731 208.739 765.593 203.308C767.022 202.407 768.388 201.582 769.726 200.774C785.049 192.016 813.385 191.863 843.691 200.366C847.43 201.404 850.985 202.499 854.406 203.638L854.497 202.338Z" fill="white"/>
<path d="M855.536 196.089L850.009 193.439C839.231 188.563 828.126 184.314 816.767 180.723C786.945 170.965 760.812 167.671 745.077 171.671C742.592 172.288 740.086 173.033 737.398 173.966C729.425 176.676 721.145 178.703 712.669 180.022C707.842 180.67 702.951 180.999 698.037 181.007C694.612 181.094 691.365 181.168 688.142 181.552C657.706 184.533 635.969 211.049 622.289 230.731C617.447 237.683 612.316 245.464 606.385 255.193C585.809 288.454 562.803 322.297 529.259 339.289C521.721 343.093 513.712 346.168 505.366 348.463C484.801 354.69 462.301 355.196 440.831 349.915C428.147 346.393 415.786 341.925 403.884 336.561C389.807 330.736 375.456 324.755 360.872 321.979C345.61 319.039 329.919 319.513 315.256 323.355C298.072 327.773 282.553 336.499 267.562 344.919C256.601 351.456 245.053 357.227 233.02 362.184C212.922 369.798 193.104 372.112 174.044 368.657C151.391 364.649 130.868 352.952 111.003 341.672C99.5739 334.879 87.7166 328.684 75.4969 323.124C64.3267 318.702 52.7757 315.146 40.9798 312.497C34.2678 310.789 27.9182 309.163 22.1795 307.332C16.16 305.195 10.4734 302.339 5.28542 298.847C-1.54189 294.666 -8.49784 290.353 -18.4045 288.706L-19.8442 288.466C-30.1178 287.064 -40.9236 286.451 -51.3563 285.855C-58.2846 285.448 -65.4153 285.051 -72.4546 284.406C-78.8804 283.842 -85.229 283.115 -91.3824 282.42C-97.5357 281.725 -103.982 280.982 -110.139 280.462C-122.227 279.2 -134.382 279.39 -146.267 281.028C-156.78 282.946 -167.038 285.692 -176.92 289.231C-183.555 291.437 -189.842 293.503 -196.207 294.986C-201.864 296.325 -207.681 297.163 -213.574 297.489C-233.072 298.629 -254.068 292.946 -276.308 286.903C-286.961 284.013 -297.914 281.118 -309.339 278.648C-319.172 276.706 -328.836 274.507 -338.494 272.266L-338.692 273.46C-329.035 275.701 -319.37 277.9 -309.681 279.95C-298.364 282.314 -287.352 285.307 -276.72 288.171C-254.358 294.234 -233.239 299.938 -213.494 298.817C-207.512 298.486 -201.609 297.633 -195.869 296.27C-189.427 294.777 -183.137 292.69 -176.452 290.493C-166.644 287.006 -156.469 284.299 -146.044 282.402C-134.285 280.742 -122.251 280.531 -110.282 281.775C-104.125 282.295 -97.9473 282.994 -91.5743 283.725C-85.2013 284.456 -79.0235 285.155 -72.5978 285.719C-65.5549 286.343 -58.379 286.769 -51.447 287.155C-41.0423 287.768 -30.2609 288.377 -20.0605 289.767C-9.86019 291.157 -2.82036 295.417 4.48035 299.918C9.76193 303.482 15.5606 306.387 21.7018 308.545C27.4858 310.406 33.8634 312.014 40.5719 313.743C52.293 316.4 63.7682 319.958 74.8622 324.377C87.0357 329.909 98.8478 336.074 110.233 342.837C130.185 354.197 150.826 365.935 173.748 369.988L175.017 370.199C193.927 373.344 213.613 371.074 233.537 363.453C245.631 358.468 257.24 352.671 268.267 346.11C283.192 337.635 298.689 329.037 315.615 324.664C330.059 320.852 345.534 320.408 360.565 323.374C374.978 326.122 389.357 332.085 403.291 337.865C415.283 343.211 427.732 347.657 440.5 351.153C462.229 356.507 485.006 355.993 505.816 349.678C514.234 347.348 522.314 344.241 529.926 340.408C563.77 323.268 586.828 289.259 607.552 255.869C613.556 246.152 618.582 238.398 623.396 231.463C636.967 211.982 658.435 185.728 688.309 182.807C691.445 182.496 694.664 182.44 698.082 182.241C703.066 182.225 708.026 181.885 712.921 181.225C721.486 179.908 729.858 177.881 737.925 175.171C740.574 174.319 743.066 173.507 745.499 172.903C760.983 168.904 786.781 172.252 816.342 181.923C827.617 185.505 838.642 189.732 849.343 194.577C851.328 195.507 853.303 196.449 855.267 197.403L855.536 196.089Z" fill="white"/>
<path d="M856.77 188.669C846.95 185.481 837.343 181.753 828.009 177.509L821.714 174.797C813.163 171.184 804.289 167.845 795.698 164.62L789.609 162.336C757.049 150.04 735.363 144.133 721.338 143.729C713.628 143.499 706.158 144.535 693.763 146.243L687.27 147.135C683.45 147.64 679.621 147.901 676.111 148.194C671.905 148.427 667.728 148.874 663.602 149.532C635.86 154.407 617.163 179.829 603.942 201.428C598.88 209.702 593.957 218.35 589.87 225.734C571.181 258.498 549.716 291.371 519.118 310.255C512.224 314.486 504.9 318.166 497.228 321.253C475.498 330.086 456.011 332.52 435.769 328.935C422.862 326.635 409.847 321.512 397.254 316.569C384.66 311.626 371.081 306.278 357.654 303.936C342.81 301.341 327.626 302.032 313.487 305.947C297.095 310.277 282.041 318.468 267.463 326.364C256.607 332.606 245.213 338.123 233.374 342.871C213.275 350.486 194.578 352.241 176.209 348.704C155.645 344.649 137.275 333.727 119.501 323.145C107.36 315.932 94.8122 308.455 81.512 303.088C68.5846 297.892 53.7808 295.233 40.706 292.883C36.5823 292.197 32.6959 291.441 28.9839 290.692C22.9308 289.354 17.0254 287.468 11.3635 285.067C3.22927 281.473 -5.51665 279.187 -14.4457 278.32C-20.3905 277.879 -26.5625 277.598 -32.5322 277.306C-43.4788 276.978 -54.4237 276.159 -65.3245 274.855C-72.9105 273.878 -80.3523 272.487 -87.5292 271.162C-92.1409 270.395 -96.8916 269.408 -101.507 268.662C-113.072 266.491 -124.892 266.113 -136.427 267.545C-149.046 269.39 -159.848 273.883 -170.298 278.215C-174.903 280.123 -179.268 281.939 -183.715 283.5C-188.954 285.366 -194.389 286.816 -199.957 287.833C-222.019 291.724 -247.319 286.136 -273.922 280.244C-280.234 278.843 -286.79 277.403 -293.29 276.08C-308.504 272.871 -323.074 269.111 -337.316 265.187L-337.515 266.381C-323.297 270.301 -308.702 274.065 -293.833 277.086C-287.284 278.416 -280.753 279.853 -274.465 281.249C-263.821 283.589 -253.445 285.884 -243.368 287.56C-227.995 290.117 -213.411 291.227 -199.901 288.85C-194.246 287.828 -188.731 286.355 -183.421 284.447C-178.921 282.873 -174.557 281.057 -169.997 279.12C-159.628 274.818 -148.909 270.377 -136.468 268.546C-125.049 267.131 -113.347 267.512 -101.9 269.671C-97.2885 270.438 -92.75 271.193 -87.9749 272.184C-80.676 273.529 -73.3841 274.917 -65.6727 275.893C-54.6809 277.348 -43.4354 277.882 -32.7339 278.369C-26.7851 278.635 -20.6375 278.912 -14.6926 279.353C-5.92678 280.196 2.65812 282.448 10.6321 285.997C16.4274 288.419 22.462 290.325 28.6428 291.687C32.4037 292.444 36.2971 293.158 40.4138 293.886C53.4154 296.224 68.1495 298.849 80.9097 303.995C94.1158 309.325 106.619 316.773 118.69 323.952C136.579 334.597 155.06 345.603 175.893 349.703C194.561 353.4 213.496 351.574 233.862 344.005C245.755 339.225 257.202 333.681 268.116 327.415C282.589 319.545 297.559 311.406 313.822 307.099C327.743 303.247 342.692 302.569 357.305 305.127C370.604 307.338 383.813 312.647 396.619 317.669C409.425 322.691 422.367 327.802 435.421 330.126C455.955 333.76 475.697 331.302 497.7 322.339C505.454 319.225 512.865 315.524 519.851 311.275C550.592 292.283 572.239 259.222 591.002 226.317C595.182 218.97 600.11 210.301 605.071 202.032C618.127 180.668 636.631 155.5 663.759 150.698C667.837 150.059 671.962 149.619 676.115 149.378C679.746 149.105 683.503 148.832 687.351 148.31L693.868 147.422C706.159 145.741 713.6 144.721 721.188 144.931C735.039 145.328 756.554 151.207 788.926 163.428L795.012 165.733C803.606 168.937 812.455 172.271 820.909 175.869L827.204 178.581C836.651 182.874 846.379 186.636 856.324 189.844L856.77 188.669Z" fill="white"/>
<path d="M859.713 170.971C856.505 171.265 853.259 171.297 850.018 171.067C830.189 169.676 812.636 163.492 793.396 156.151L788.466 154.279C779.809 150.999 770.866 147.627 762.426 143.944C753.07 139.89 744.464 135.851 736.087 131.938C720.965 124.865 707.911 118.772 697.592 115.829C687.274 112.886 677.437 112.477 661.844 114.266L656.887 114.822C650.834 115.307 644.859 116.233 639.023 117.593C613.63 124.326 597.147 150.314 585.599 172.257C582.339 178.442 579.113 184.72 575.915 190.982L573.135 196.392C558.654 224.356 538.254 259.268 508.854 281.354C502.561 286.032 495.892 290.312 488.895 294.162C474.641 302.069 455.112 310.786 430.536 308.08C417.264 306.617 403.876 301.63 390.909 296.822C379.102 292.426 366.752 287.83 354.265 285.863C339.843 283.574 325.158 284.42 311.503 288.328C295.923 292.596 281.366 300.211 267.278 307.576C256.508 313.55 245.239 318.83 233.556 323.377C213.805 330.567 195.704 332.202 178.239 328.355C159.46 324.268 143.028 313.91 126.895 303.864C114.407 296.024 101.484 287.936 87.3924 282.656C71.9033 276.881 54.5958 275.405 39.3211 274.07L35.6114 273.76C29.4294 273.161 23.2782 272.233 17.1915 270.981C8.48301 269.109 -0.388453 268.06 -9.26936 267.852L-14.4307 267.826C-28.8578 267.728 -43.7872 267.633 -58.4237 265.024C-66.4027 263.697 -74.1388 261.512 -81.6765 259.492C-85.4191 258.475 -89.2838 257.437 -93.0651 256.502C-104.124 253.394 -115.713 252.401 -127.035 253.592C-140.833 255.439 -152.016 261.314 -162.818 267.012C-165.881 268.694 -168.752 270.123 -171.699 271.561C-176.518 273.99 -181.568 276.067 -186.799 277.772C-212.719 285.864 -245.814 279.352 -277.797 273.091C-297.529 268.925 -316.964 263.555 -335.958 257.02L-336.16 258.235C-317.176 264.74 -297.752 270.079 -278.034 274.213C-269.39 275.913 -260.673 277.626 -252.035 279.063C-228.488 282.979 -205.508 284.872 -186.279 278.866C-180.965 277.164 -175.832 275.087 -170.928 272.654C-167.977 271.194 -164.956 269.615 -162.043 268.083C-151.304 262.463 -140.302 256.623 -126.725 254.892C-115.59 253.747 -104.201 254.737 -93.3302 257.794C-89.5698 258.705 -85.7087 259.763 -81.9868 260.755C-74.2917 262.957 -66.4912 264.818 -58.6156 266.329C-43.8571 268.958 -28.8337 269.09 -14.3506 269.154L-9.18931 269.18C-0.416472 269.403 8.34488 270.456 16.9437 272.321C23.081 273.572 29.2821 274.501 35.5135 275.102L39.2197 275.434C54.4003 276.731 71.5787 278.229 86.8553 283.925C100.808 289.138 113.668 297.15 125.985 304.961C142.108 315.071 158.752 325.509 177.821 329.666C195.575 333.583 213.954 331.928 233.999 324.634C245.727 320.052 257.047 314.752 267.881 308.772C281.893 301.416 296.377 293.789 311.841 289.611C325.242 285.726 339.664 284.837 353.847 287.021C366.072 288.9 378.37 293.51 390.201 297.909C403.238 302.751 416.724 307.755 430.195 309.228C455.21 312.008 474.987 303.157 489.433 295.15C496.49 291.279 503.213 286.972 509.556 282.259C539.229 260.043 559.73 224.973 574.253 196.907L577.033 191.496C580.255 185.239 583.481 178.961 586.738 172.797C598.142 151.115 614.461 125.363 639.351 118.787C645.114 117.449 651.011 116.531 656.984 116.044L661.942 115.488C677.291 113.658 686.838 114.15 697.087 117.059C707.335 119.969 720.295 126.025 735.348 133.064C743.746 137.003 752.425 141.054 761.732 145.1C770.211 148.701 779.161 152.184 787.818 155.464L792.772 157.34C812.106 164.719 829.777 170.945 849.83 172.351C853.019 172.557 856.21 172.531 859.371 172.272L859.713 170.971Z" fill="white"/>
<path d="M864.948 139.497C862.227 140.776 859.643 141.99 856.833 143.056C845.729 147.47 833.502 149.517 821.109 149.036C801.975 147.825 783.05 143.938 765.049 137.522C754.797 134.226 744.821 130.237 735.212 125.591C722.066 118.728 709.446 111.079 697.444 102.7C689.863 97.4147 681.965 92.5016 673.787 87.9845C661.943 81.8513 651.145 79.8364 636.427 81.3332C628.872 81.8674 621.48 83.3066 614.452 85.6111C591.496 93.9772 577.731 119.299 567.304 142.94C564.09 150.207 560.328 158.654 556.525 166.896C538.935 204.817 519.97 232.758 498.569 252.274C492.875 257.407 486.861 262.259 480.555 266.809C466.273 277.297 448.49 287.881 425.297 286.961C411.747 286.417 398.096 281.648 384.898 277.021C373.858 273.147 362.412 269.14 350.87 267.527C336.899 265.696 322.778 266.811 309.682 270.779C294.929 274.9 280.907 282.013 267.337 288.828C256.596 294.519 245.419 299.577 233.875 303.971C214.431 310.818 196.952 312.184 180.359 308.219C163.097 304.056 148.129 294.094 133.63 284.473C121.029 276.11 108.024 267.461 93.3383 262.433C76.5449 256.66 58.2013 256.59 42.3323 257.019C35.6569 257.201 29.4113 257.061 23.3361 257.103C14.8723 257.032 6.08431 256.951 -3.86688 257.531C-18.3281 258.391 -35.0901 258.912 -51.2896 255.298C-59.2091 253.328 -66.9885 250.884 -74.5724 247.986C-77.788 246.815 -81.1466 245.599 -84.4008 244.51C-93.9058 241.352 -105.141 238.344 -117.292 239.785C-131.978 241.55 -143.152 249.027 -153.955 256.237C-155.733 257.431 -157.536 258.622 -159.3 259.731C-163.737 262.692 -168.429 265.354 -173.338 267.695C-199.318 279.766 -234.361 275.319 -261.974 270.069C-287.21 265.456 -311.2 256.514 -334.398 247.638L-334.593 248.811C-311.419 257.683 -287.394 266.565 -262.232 271.319C-259.035 271.851 -255.738 272.531 -252.493 273.07C-226.506 277.392 -196.14 279.659 -172.818 268.79C-167.84 266.441 -163.073 263.778 -158.553 260.819C-156.754 259.65 -154.976 258.456 -153.184 257.329C-142.52 250.206 -131.49 242.837 -117.159 241.1C-105.288 239.678 -94.2339 242.722 -84.9343 245.758C-81.6801 246.847 -78.3704 248.055 -75.1268 249.208C-67.4947 252.145 -59.6597 254.613 -51.6803 256.592C-35.2997 260.324 -18.3736 259.72 -3.81124 258.855C6.08406 258.309 14.8548 258.344 23.2942 258.41C29.376 258.48 35.6358 258.534 42.3636 258.339C58.0755 257.949 76.2239 257.987 92.8083 263.66C107.278 268.63 120.217 277.224 132.734 285.639C147.32 295.34 162.403 305.365 179.958 309.577C196.833 313.654 214.619 312.251 234.304 305.313C245.916 300.913 257.155 295.835 267.95 290.113C281.444 283.307 295.326 276.281 310.03 272.152C322.952 268.226 336.894 267.132 350.681 268.964C362.053 270.548 373.425 274.543 384.396 278.384C397.716 283.031 411.457 287.858 425.356 288.417C449.145 289.371 467.869 277.956 481.532 268.023C487.864 263.403 493.912 258.491 499.651 253.308C521.174 233.66 540.181 205.616 557.869 167.558C561.746 159.328 565.434 150.869 568.652 143.581C578.918 120 592.515 94.9356 615.129 86.8194C622.029 84.5511 629.291 83.1414 636.713 82.6298C651.089 81.2295 661.706 83.1267 673.251 89.1005C681.39 93.5962 689.25 98.4884 696.792 103.753C708.853 112.158 721.538 119.826 734.752 126.698C744.42 131.397 754.468 135.42 764.798 138.729C782.936 145.179 802 149.089 821.273 150.313C833.881 150.788 846.318 148.702 857.618 144.217C860.083 143.268 862.491 142.208 864.842 141.036L864.948 139.497Z" fill="white"/>
<path d="M870.65 105.209C865.701 108.71 860.348 111.754 854.67 114.297C845.673 118.361 836.143 121.502 826.256 123.662C815.228 126.158 803.792 127.28 792.276 126.995C773.556 126.607 754.878 123.869 736.807 118.866C726.748 116.085 717.098 112.152 708.11 107.169C693.854 99.101 681.972 88.228 670.51 77.688C664.019 71.4995 657.151 65.6239 649.94 60.0893C637.216 50.8075 625.592 47.2747 611.008 48.4212C603.573 48.8664 596.389 50.6548 589.898 53.6758C569.27 63.5687 558.021 88.3883 548.919 113.718C546.086 121.706 543.051 129.703 539.947 137.514C525.78 171.732 508.449 200.558 488.292 223.304C483.331 228.856 478.075 234.227 472.267 239.748C458.963 252.349 442.34 265.449 420.061 266.127C406.315 266.602 392.504 262.048 379.163 257.682C368.931 253.925 358.303 251.173 347.478 249.476C333.944 248.027 320.35 249.352 307.766 253.347C293.924 257.421 280.487 263.886 267.514 270.121C256.762 275.589 245.603 280.445 234.102 284.66C214.778 291.241 198.342 292.364 182.444 288.143C166.546 283.921 152.853 274.281 139.686 264.948C127.191 256.098 114.291 246.963 99.2492 242.27C81.7922 236.868 63.2208 238.469 49.0148 240.358C41.706 241.334 34.5923 242.342 27.677 243.515C19.2654 244.789 10.5431 246.122 1.39235 247.317C-12.1158 249.081 -28.1332 250.252 -44.3023 245.7C-52.0766 243.277 -59.6223 240.262 -66.8515 236.691C-69.8121 235.344 -72.8841 233.913 -75.8797 232.626C-84.9571 228.706 -95.8379 224.924 -107.695 226.108C-123.009 227.725 -133.79 236.91 -144.266 245.774C-145.199 246.561 -146.108 247.352 -147.16 248.098C-151.221 251.608 -155.542 254.878 -160.097 257.889C-185.359 274.089 -220.998 271.865 -246.346 267.321C-274.943 262.105 -301.75 250.503 -327.669 239.29L-328.745 238.826L-332.639 237.061L-332.845 238.298L-329.292 239.853L-328.121 240.354C-302.112 251.626 -275.211 263.266 -246.444 268.51L-242.905 269.099C-217.578 273.311 -183.634 274.573 -159.141 258.924C-154.54 255.891 -150.18 252.59 -146.088 249.043L-143.191 246.698C-132.861 237.963 -122.203 228.91 -107.374 227.345C-95.8656 226.147 -85.2324 229.909 -76.3431 233.754C-73.3475 235.041 -70.3208 236.443 -67.3638 237.811C-60.0488 241.411 -52.4143 244.448 -44.5497 246.886C-28.1437 251.521 -11.924 250.34 1.73768 248.558C10.9164 247.345 19.7118 246.025 28.0747 244.743C34.9687 243.698 42.0823 242.689 49.3668 241.709C63.4476 239.669 81.7498 238.33 98.9109 243.55C113.734 248.207 126.521 257.258 138.93 266.027C152.188 275.419 165.842 285.141 182.179 289.435C198.516 293.73 215.084 292.716 234.72 285.924C246.27 281.692 257.481 276.823 268.288 271.346C281.233 265.128 294.594 258.672 308.328 254.645C320.718 250.712 334.102 249.405 347.429 250.827C358.023 252.106 368.602 255.597 378.804 258.937C392.284 263.37 406.253 267.885 420.238 267.471C442.937 266.688 459.87 253.529 473.352 240.761C479.296 235.175 484.476 229.813 489.464 224.244C509.754 201.454 527.187 172.47 541.253 138.104C544.434 130.284 547.473 122.265 550.232 114.265C559.25 89.1405 570.38 64.5859 590.599 54.8881C596.946 51.8952 603.986 50.1189 611.276 49.6711C625.449 48.5876 636.791 52.0078 649.177 61.0581C656.357 66.5531 663.188 72.3938 669.639 78.5512C681.17 89.1247 693.106 99.9845 707.483 108.226C716.53 113.291 726.254 117.296 736.395 120.135C754.592 125.178 773.4 127.944 792.252 128.35C803.897 128.625 815.46 127.488 826.615 124.971C836.597 122.78 846.223 119.611 855.319 115.523C860.62 113.111 865.647 110.28 870.341 107.064L870.65 105.209Z" fill="white"/>
<path d="M876.949 67.3388C875.244 70.4008 873.233 73.3144 870.937 76.0466C847.943 103.339 803.382 105.308 763.313 104.999C731.459 104.741 703.4 103.384 680.751 88.7922C667.805 80.2405 657.085 67.501 646.765 55.0692C629.184 33.9792 612.586 14.0608 585.631 15.5604C551.572 17.4124 539.43 52.12 530.616 84.4663C517.959 130.842 495.365 174.315 464.019 212.606C452.608 226.486 436.716 242.733 414.872 245.17C401.047 246.727 387.708 242.646 373.732 238.328C364.168 235.014 354.262 232.632 344.196 231.225C317.343 228.49 292.282 240.012 268.16 251.165C240.068 264.023 213.509 276.261 184.674 267.959C169.864 263.677 157.51 254.282 145.556 245.194C133.601 236.106 120.669 226.264 105.305 221.999C81.9119 215.501 57.9581 222.628 34.7687 229.531C11.0349 236.54 -13.6731 243.979 -37.1214 236.004C-44.8111 233.087 -52.1616 229.469 -59.0484 225.214C-71.2317 218.257 -83.8258 211.057 -97.9046 212.331C-113.508 213.724 -123.732 224.69 -133.623 235.316C-137.593 239.768 -141.872 243.996 -146.436 247.977C-165.721 264.119 -197.03 270.242 -230.298 264.468C-260.366 259.205 -287.946 245.918 -314.6 233.093C-319.821 230.559 -325.195 227.891 -330.516 225.055L-330.725 226.314C-325.543 229.082 -320.309 231.683 -315.203 234.154C-288.455 247.017 -260.805 260.337 -230.539 265.765L-229.27 265.976C-196.085 271.495 -164.817 265.168 -145.476 248.991C-140.89 244.963 -136.581 240.697 -132.569 236.215C-122.38 225.309 -112.789 214.983 -97.7198 213.633C-84.126 212.409 -72.3118 219.173 -59.7142 226.352C-52.7266 230.637 -45.2836 234.291 -37.505 237.255C-13.5792 245.376 11.2751 237.961 35.3336 230.808C58.2892 223.954 82.0545 216.905 104.995 223.262C120.07 227.457 132.602 236.991 144.737 246.197C156.872 255.403 169.219 264.841 184.339 269.218C213.735 277.766 241.782 264.878 268.879 252.424C292.934 241.37 317.765 229.875 344.237 232.634C354.196 234.037 363.996 236.401 373.456 239.685C387.056 243.853 401.109 248.162 415.23 246.632C437.584 244.148 453.714 227.678 465.282 213.605C496.732 175.196 519.4 131.586 532.096 85.0631C540.746 53.1057 552.739 18.8338 585.889 17.0276C612.104 15.6022 628.472 35.2414 645.828 56.0309C656.287 68.5297 666.975 81.4611 680.291 90.0523C704.937 106.05 738.838 106.363 763.595 106.47C803.891 106.773 848.856 104.784 872.201 77.0456C873.77 75.174 875.209 73.2182 876.51 71.1882L876.949 67.3388Z" fill="white"/>
<path d="M857.085 -15.3733L855.621 -15.6168C857.245 -8.50069 858.171 -1.30078 858.386 5.90183C858.749 27.5467 852.865 43.025 839.308 56.0879C834.949 60.1503 830.14 63.8193 824.948 67.045C801.15 82.1299 771.285 90.5742 736.145 92.1369C710.502 93.285 681.185 92.5511 658.322 78.4934C645.723 70.7225 635.349 58.9172 625.288 47.4925C608.291 28.1652 592.223 9.89064 566.807 10.8793C534.876 12.143 522.152 43.2694 512.722 72.3798C503.758 99.4842 491.465 125.533 476.054 150.078C467.272 164.264 457.505 177.933 446.804 191.013C436.012 204.185 420.988 219.589 400.6 222.312C387.294 224.066 373.843 220.054 361.915 216.69L360.288 216.222C351.642 213.435 342.744 211.39 333.72 210.116C308.089 207.278 284.144 217.211 260.975 227.01C251.998 230.776 242.701 234.664 233.531 237.785C213.365 244.446 197.627 245.598 182.478 241.544C168.556 237.805 156.879 229.617 145.657 221.703C134 213.541 121.943 205.071 107.501 201.596C100.17 199.901 92.6078 199.386 85.1856 200.076C70.6818 201.192 55.9692 205.977 41.7347 210.6C19.6327 217.749 -3.192 225.173 -25.0435 218.603C-32.2051 216.177 -39.0906 213.108 -45.587 209.445C-52.5166 205.448 -59.962 202.229 -67.7406 199.866C-72.4377 198.572 -77.3485 198.151 -82.1542 198.63C-96.7289 200.173 -106.636 210.139 -116.093 219.808C-119.989 223.906 -124.16 227.793 -128.585 231.448C-148.028 246.732 -178.376 251.896 -207.714 244.957C-218.103 242.228 -228.11 238.354 -237.493 233.431C-252.492 225.743 -266.996 217.294 -280.928 208.129C-294.27 199.934 -306.752 190.675 -318.206 180.476C-319.684 179.113 -321.072 177.808 -322.418 176.401L-322.677 177.958C-321.557 179.064 -320.388 180.179 -319.195 181.298C-307.679 191.559 -295.12 200.868 -281.691 209.098C-267.7 218.306 -253.124 226.782 -238.043 234.479C-228.559 239.435 -218.444 243.326 -207.947 246.058C-205.535 246.634 -202.865 247.166 -200.328 247.588C-172.975 252.137 -145.66 246.512 -127.573 232.296C-123.065 228.557 -118.82 224.58 -114.86 220.386C-105.498 210.986 -95.8002 201.072 -81.7383 199.598C-77.1219 199.144 -72.4065 199.548 -67.8931 200.783C-60.2375 203.136 -52.9059 206.313 -46.0705 210.241C-39.4898 213.959 -32.5086 217.067 -25.2448 219.511C-2.93677 226.202 20.0241 218.713 42.4367 211.505C56.5909 206.913 71.2476 202.163 85.5593 201.146C92.7926 200.495 100.158 201.022 107.292 202.701C121.47 206.11 133.394 214.47 144.936 222.569C156.478 230.668 168.132 238.852 182.322 242.636C197.781 246.784 213.787 245.677 234.229 238.865C243.461 235.821 252.787 231.915 261.795 228.11C284.783 218.5 308.531 208.535 333.769 211.33C342.711 212.592 351.529 214.624 360.093 217.395L361.72 217.863C373.679 221.342 387.412 225.313 401.025 223.523C421.891 220.791 437.16 205.121 448.109 191.756C458.876 178.621 468.697 164.886 477.517 150.628C492.981 126.015 505.32 99.8927 514.322 72.7116C523.615 43.9729 536.129 13.206 567.195 12.0175C591.853 11.0564 607.713 29.0771 624.477 48.1466C634.601 59.6473 645.037 71.5289 657.818 79.4175C681.046 93.6894 710.663 94.4293 736.532 93.2751C771.899 91.7062 802.05 83.2 825.999 67.9648C831.217 64.6948 836.036 60.9677 840.387 56.8371C854.209 43.5335 860.258 27.8196 859.827 5.8346C859.597 -1.26417 858.68 -8.35925 857.085 -15.3733V-15.3733Z" fill="white"/>
<path d="M834.827 -19.0746L833.387 -19.3141C833.635 -15.5885 833.568 -11.8641 833.189 -8.17123C831.1 10.8746 823.699 23.7122 807.616 36.1357C802.754 39.798 797.664 43.2233 792.369 46.3974C766.224 62.4727 741.901 76.0458 709.159 79.3222C678.566 82.3424 653.986 78.6053 635.957 68.2003C623.91 61.1786 613.847 50.3673 604.048 39.9285C587.615 22.3384 572.121 5.73715 548.266 6.24021C515.856 6.76687 503.292 39.0376 495.021 60.2766C485.053 84.8345 472.572 108.463 457.727 130.881C449.172 144.15 439.837 156.998 429.76 169.377C418.93 182.63 405.305 196.558 386.472 199.43C374.686 201.24 363.032 198.491 350.1 194.981L347.005 194.138C339.299 191.816 331.411 190.065 323.427 188.902C298.842 185.953 276.028 194.518 253.916 202.783C245.716 205.802 237.26 208.998 228.891 211.528C215.907 215.417 198.678 219.345 180.678 214.949C167.689 211.781 156.692 204.781 146.053 198.037C134.965 190.978 123.368 183.658 109.907 181.069C103.083 179.754 96.1008 179.513 89.2881 180.357C75.8225 181.865 62.187 186.807 49.0408 191.37C28.6787 198.612 7.62194 206.11 -12.7126 200.822C-19.3703 198.891 -25.807 196.352 -31.9143 193.246C-38.4637 189.909 -45.4213 187.28 -52.6289 185.418C-57.0702 184.385 -61.6607 184.12 -66.1405 184.64C-79.6797 186.289 -89.1276 195.301 -98.2712 203.992C-102.178 207.853 -106.358 211.49 -110.79 214.883C-130.268 229.175 -159.455 233.239 -185.258 225.398C-195.307 222.347 -202.993 217.146 -210.431 212.118L-211.58 211.335C-224.179 202.561 -236.187 193.136 -247.534 183.114C-258.527 173.894 -268.66 163.911 -277.827 153.27C-293.126 135.189 -300.39 117.349 -300.262 98.9411C-300.19 88.1059 -297.594 77.3181 -291.932 63.9284C-289.447 58.184 -286.708 52.5696 -284.123 47.1267C-282.376 43.5605 -280.738 40.1952 -279.251 36.9803C-277.254 32.6667 -275.321 28.4302 -273.831 24.2954C-272.647 21.249 -271.705 18.2941 -270.684 15.0234L-270.635 14.7249C-269.298 11.0436 -268.476 7.21482 -268.186 3.32078C-267.999 -3.49479 -269.682 -10.3217 -273.092 -16.5833C-276.503 -22.8449 -281.541 -28.3571 -287.781 -32.6544L-288.008 -31.2897C-282.067 -27.1256 -277.277 -21.8185 -274.034 -15.8072C-270.791 -9.79602 -269.188 -3.25345 -269.358 3.27933C-269.647 7.08607 -270.455 10.8287 -271.764 14.4276L-271.81 14.7048C-272.827 17.9541 -273.776 20.9517 -274.946 23.9127C-276.534 28.0313 -278.338 32.2455 -280.33 36.5378C-281.829 39.8167 -283.487 43.1565 -285.202 46.6842C-287.861 52.1149 -290.604 57.7506 -293.022 63.5498C-298.852 77.0431 -301.47 87.9588 -301.563 98.9219C-301.684 117.594 -294.225 135.62 -278.827 154.002C-269.595 164.694 -259.394 174.725 -248.332 183.989C-236.938 194.046 -224.887 203.507 -212.245 212.32L-211.097 213.103C-203.568 218.19 -195.791 223.449 -185.501 226.563C-181.726 227.717 -177.87 228.622 -173.965 229.27C-162.602 231.211 -151.005 231.017 -139.945 228.7C-128.886 226.383 -118.616 221.997 -109.819 215.834C-105.363 212.383 -101.157 208.692 -97.2236 204.78C-88.2757 196.21 -78.9573 187.373 -65.8786 185.779C-61.5723 185.274 -57.1576 185.532 -52.8901 186.536C-45.7976 188.391 -38.9547 191.001 -32.5171 194.307C-26.3128 197.436 -19.7782 199.992 -13.0225 201.932C7.64337 207.188 28.934 199.64 49.5334 192.328C62.617 187.689 76.1789 182.889 89.4351 181.434C96.0921 180.617 102.913 180.854 109.58 182.132C122.856 184.778 133.721 191.669 145.189 199.011C155.915 205.835 167.003 212.894 180.26 216.107C198.696 220.597 216.203 216.65 229.376 212.683C237.794 210.16 246.27 206.99 254.478 203.929C276.457 195.707 299.177 187.258 323.298 190.13C331.199 191.284 339.006 193.014 346.636 195.304L349.751 196.172C362.854 199.71 374.676 202.509 386.772 200.642C406.041 197.711 419.9 183.58 430.884 170.155C440.989 157.747 450.346 144.866 458.918 131.561C473.816 109.086 486.326 85.3876 496.296 60.7516C506.714 33.9967 519.267 7.9696 548.249 7.39877C571.382 6.86332 586.678 23.3001 602.91 40.5938C612.764 50.998 622.924 61.9789 635.152 69.1183C653.453 79.7 678.399 83.4979 709.299 80.4411C742.438 77.1871 766.905 63.5063 793.213 47.3487C798.559 44.142 803.703 40.6896 808.625 37.0047C824.967 24.3832 832.532 11.31 834.65 -8.05974C835.007 -11.7116 835.066 -15.3925 834.827 -19.0746V-19.0746Z" fill="white"/>
<path d="M808.378 -23.4737C808.308 -23.0472 808.24 -22.6421 808.169 -22.2156C803.64 -3.7289 793.397 5.54609 776.066 16.2721C773.271 17.9986 770.208 19.6806 767.033 21.5849C764.647 22.9631 762.209 24.3545 759.732 25.8272C751.8 30.556 744.717 35.4481 737.862 40.1808C720.21 52.3873 704.965 62.9343 681.921 66.5524C666.653 68.9438 637.475 70.9941 613.34 57.952C601.727 51.638 591.874 41.8258 582.348 32.309C566.541 16.5323 551.593 1.62151 529.455 1.59937C499.596 1.56414 486.678 28.5823 477.256 48.2933C466.384 70.3068 453.718 91.5455 439.354 111.85C429.613 126.095 421.162 137.553 412.67 147.908C402.466 160.411 389.69 173.603 372.328 176.676C361.034 178.699 349.825 176.287 338.244 173.397L333.432 172.18C326.733 170.302 319.914 168.832 313.025 167.778C289.56 164.73 267.618 171.819 246.403 178.612C239.115 180.972 231.589 183.402 224.138 185.384C211.012 188.92 195.15 192.024 178.493 188.443C166.392 185.817 156.214 180.07 146.287 174.475C135.235 168.254 124.803 162.378 112.079 160.481C105.723 159.568 99.283 159.624 93.0444 160.646C80.5961 162.52 68.0418 167.444 55.8925 172.195C37.3019 179.49 18.0653 187.051 -0.540095 183.277C-6.69576 181.824 -12.6898 179.813 -18.4245 177.279C-24.5386 174.58 -30.9615 172.512 -37.5603 171.116C-41.7469 170.346 -46.0228 170.229 -50.1908 170.769C-62.6214 172.536 -71.6199 180.507 -80.3005 188.223C-84.2216 191.845 -88.4041 195.24 -92.8239 198.39C-112.065 211.405 -140.053 214.443 -162.464 205.96C-171.686 202.454 -177.654 196.729 -183.452 191.184L-185.334 189.381C-195.499 179.499 -204.983 169.095 -213.73 158.232C-222.38 147.981 -230.256 137.256 -237.304 126.131C-249.146 106.872 -254.839 88.4818 -254.411 69.9266C-253.8 57.6151 -251.355 45.4977 -247.138 33.8835C-246.207 31.1459 -245.279 28.4296 -244.357 25.756C-241.928 18.6876 -239.566 12.0243 -238.067 5.87487C-237.01 1.81538 -236.24 -2.30855 -235.763 -6.47353C-235.408 -8.60589 -235.389 -10.6844 -235.261 -12.504C-235.155 -13.1437 -235.199 -13.7864 -235.148 -14.3916C-235.098 -14.9968 -235.086 -15.5207 -235.021 -16.0578C-234.727 -18.3885 -234.789 -20.7568 -235.204 -23.1005C-236.962 -30.1055 -240.423 -36.7542 -245.345 -42.5808C-250.267 -48.4073 -256.531 -53.2708 -263.698 -56.8304C-267.68 -58.8115 -271.984 -60.2014 -276.429 -60.9418C-278.57 -61.2944 -280.731 -61.5072 -282.893 -61.5786L-283.095 -60.3631C-276.57 -60.2062 -270.12 -58.6215 -264.328 -55.752C-257.355 -52.3036 -251.255 -47.5872 -246.457 -41.9329C-241.658 -36.2786 -238.276 -29.8228 -236.547 -23.017C-236.148 -20.7764 -236.094 -18.5117 -236.388 -16.2851L-236.515 -14.6188C-236.617 -14.0004 -236.598 -13.3618 -236.635 -12.6886C-236.734 -10.8862 -236.872 -8.84935 -237.098 -6.73936C-237.589 -2.61987 -238.359 1.45949 -239.405 5.47705C-240.943 11.5543 -243.231 18.2298 -245.657 25.2769C-246.578 27.9505 -247.534 30.6841 -248.441 33.4258C-252.703 45.1478 -255.176 57.3787 -255.796 69.806C-256.21 88.5825 -250.573 107.16 -238.491 126.634C-231.409 137.809 -223.499 148.583 -214.816 158.884C-206.044 169.808 -196.528 180.268 -186.323 190.203L-184.442 192.006C-178.56 197.652 -172.459 203.487 -162.952 207.084C-158.408 208.799 -153.68 210.063 -148.859 210.852C-138.812 212.463 -128.586 212.271 -118.803 210.289C-109.021 208.307 -99.8851 204.577 -91.9511 199.324C-87.4834 196.145 -83.2609 192.712 -79.3088 189.045C-70.7507 181.462 -61.9269 173.638 -49.9222 172.019C-45.9217 171.476 -41.81 171.588 -37.7904 172.349C-31.272 173.746 -24.9323 175.815 -18.9056 178.514C-13.0759 181.077 -6.98521 183.111 -0.731969 184.582C18.3371 188.433 37.7621 180.794 56.5657 173.425C68.6347 168.704 81.1087 163.811 93.3684 162.015C99.4506 161.019 105.729 160.965 111.925 161.857C124.405 163.714 134.698 169.523 145.635 175.681C155.656 181.314 165.998 187.132 178.378 189.892C195.323 193.542 211.294 190.391 224.674 186.832C232.178 184.836 239.731 182.389 247.02 180.029C268.085 173.233 289.869 166.184 313.007 169.09C319.83 170.137 326.584 171.59 333.222 173.438L338.035 174.655C349.71 177.582 361.163 180.035 372.768 177.955C390.566 174.823 403.551 161.424 413.909 148.749C422.405 138.373 430.911 126.881 440.632 112.61C455.007 92.2133 467.672 70.879 478.531 48.7683C487.83 29.3437 500.556 2.73171 529.539 2.75284C551.057 2.73751 565.765 17.433 581.331 32.9945C590.944 42.5915 600.88 52.5053 612.657 58.8903C637.207 72.1547 666.789 70.0841 682.214 67.653C705.593 63.981 721.711 52.8562 738.766 41.0763C745.597 36.3395 752.652 31.4646 760.556 26.7531C763.033 25.2804 765.447 23.8849 767.857 22.5108C770.966 20.705 773.931 19.0068 776.848 17.3006C794.419 6.48314 804.841 -2.95941 809.458 -21.8259C809.529 -22.2524 809.604 -22.7002 809.678 -23.148L808.378 -23.4737Z" fill="white"/>
<path d="M779.047 -28.3511C771.996 -17.0113 761.251 -11.8079 746.186 -4.60563L742.373 -2.78552C737.386 -0.39356 732.256 2.10605 727.048 5.07478C716.53 11.5078 706.884 18.9554 698.279 27.2875C685.832 38.6504 674.018 49.3736 654.707 53.6126C631.865 58.5791 608.561 56.369 590.751 47.5124C579.61 41.9781 569.978 33.101 560.673 24.5194C546.17 11.1509 531.195 -2.69061 510.708 -3.13945C483.086 -3.81062 469.971 18.354 459.436 36.1705C448.63 54.4023 435.159 72.9797 420.904 92.6538C412.863 103.763 404.612 115.232 395.528 126.278C386.052 138.025 373.958 150.433 358.081 153.775C348.29 155.806 338.658 154.467 326.285 151.664L319.82 150.129C314.179 148.676 308.468 147.485 302.71 146.561C280.051 143.34 258.825 148.992 238.332 154.458C232.165 156.106 225.789 157.807 219.43 159.248C206.735 162.155 191.704 164.783 176.577 161.96C165.531 159.926 156.029 155.387 146.859 150.97C136.317 145.908 126.328 141.135 114.425 140.032C108.559 139.526 102.68 139.874 97.0269 141.061C85.5924 143.323 74.1294 148.319 63.0471 153.138C46.1791 160.478 28.7664 168.079 11.7787 165.736C6.11283 164.782 0.549875 163.313 -4.8198 161.354C-10.5326 159.253 -16.4655 157.708 -22.5092 156.747C-26.4298 156.225 -30.393 156.269 -34.2412 156.877C-45.5561 158.721 -54.0881 165.695 -62.3299 172.432C-66.2738 175.791 -70.4701 178.914 -74.893 181.782C-93.806 193.428 -120.5 195.321 -139.768 186.332C-148.643 182.248 -153.228 175.744 -157.678 169.482C-158.206 168.737 -158.71 167.996 -159.242 167.272C-166.953 156.252 -173.9 144.85 -180.044 133.134C-187.119 120.036 -192.279 109.449 -196.898 98.7757C-205.654 77.992 -209.365 59.4496 -208.651 40.6792C-207.851 28.1055 -205.783 15.6679 -202.47 3.5122C-199.849 -5.99682 -198.075 -15.7022 -197.166 -25.5174C-196.888 -29.477 -197.123 -33.4714 -197.869 -37.4236C-198.352 -39.6686 -199.014 -41.8876 -199.849 -44.0639L-200.178 -44.9514C-200.728 -46.6055 -201.497 -48.2047 -202.47 -49.7152C-207.328 -57.2943 -218.195 -71.1101 -236.238 -78.866C-239.645 -80.3717 -243.254 -81.4587 -246.96 -82.0953C-254.401 -83.0107 -261.908 -82.8986 -269.207 -81.7631L-273.01 -81.3655L-279.787 -80.7177L-279.979 -79.5663C-277.638 -79.7687 -275.291 -80.0137 -272.842 -80.2639L-269.039 -80.6614C-257.451 -81.8897 -248.287 -82.8638 -236.774 -77.9033C-219.09 -70.2509 -208.431 -56.689 -203.646 -49.2754C-202.708 -47.7955 -201.983 -46.2242 -201.49 -44.5998L-201.161 -43.7125C-200.344 -41.6063 -199.704 -39.4563 -199.247 -37.2803C-198.49 -33.37 -198.231 -29.4165 -198.474 -25.4938C-199.395 -15.7455 -201.165 -6.10618 -203.77 3.33978C-207.059 15.5741 -209.139 28.0798 -209.987 40.72C-210.643 59.7413 -206.941 78.3476 -198.113 99.2967C-193.619 109.971 -188.446 120.626 -181.277 133.761C-175.107 145.488 -168.127 156.895 -160.377 167.916L-158.81 170.105C-154.464 176.24 -149.573 183.167 -140.354 187.44C-135.382 189.719 -130.08 191.339 -124.628 192.246C-106.728 195.023 -88.6037 191.647 -74.038 182.822C-69.5793 179.913 -65.3437 176.753 -61.356 173.361C-53.2574 166.731 -44.8722 159.887 -33.9101 158.203C-30.2187 157.619 -26.4166 157.578 -22.6559 158.081C-16.7141 159.043 -10.8801 160.564 -5.2557 162.618C0.187131 164.594 5.82137 166.081 11.5588 167.058C28.9858 169.474 46.615 161.778 63.6471 154.355C74.6664 149.614 86.0562 144.605 97.3266 142.426C102.843 141.276 108.574 140.934 114.296 141.413C125.927 142.492 135.78 147.177 146.176 152.215C155.464 156.674 165.032 161.267 176.297 163.338C191.774 166.175 206.93 163.546 219.755 160.616C226.141 159.158 232.541 157.462 238.732 155.818C260.014 150.132 280.141 144.757 302.48 147.947C308.189 148.863 313.851 150.046 319.443 151.491L325.96 153.013C335.796 155.24 347.239 157.45 358.405 155.144C374.77 151.729 386.875 139.104 396.579 127.198C405.617 116.123 413.949 104.623 422.014 93.5177C436.354 73.6385 449.916 54.9666 460.641 36.7653C471.078 19.2393 483.934 -2.57402 510.729 -1.90882C530.714 -1.45583 544.75 11.5502 559.708 25.345C569.079 33.9815 578.798 42.9388 590.099 48.5654C608.234 57.5855 631.896 59.8991 655.091 54.7721C674.786 50.4873 686.722 39.6311 699.361 28.1687C707.863 19.8868 717.41 12.4877 727.83 6.10325C732.993 3.10509 738.112 0.669444 743.071 -1.70525L746.888 -3.5467C761.739 -10.6748 773.137 -16.186 780.487 -28.1117L779.047 -28.3511Z" fill="white"/>
<path d="M741.763 -34.5517C735.837 -31.6353 729.608 -29.1955 723.148 -27.2606C719.828 -26.1472 716.404 -25.0075 712.801 -23.7001C706.391 -21.4742 700.235 -18.7591 694.4 -15.5845C680.736 -7.90827 672.38 2.38183 664.265 12.2739C654.436 24.335 645.17 35.7229 627.534 40.7445C607.846 46.3452 585.677 45.003 568.198 37.1658C557.488 32.3606 548.048 24.4359 538.992 16.7721C525.154 5.13578 510.83 -6.8883 492.053 -7.81971C466.595 -9.13902 452.831 9.23635 441.739 24.0676C435.617 32.2312 428.832 40.6132 421.661 49.5009C415.363 57.2187 409.064 64.9365 402.624 73.5073C400.043 76.8618 397.447 80.2576 394.836 83.6948C389.572 90.6204 384.143 97.7817 378.527 104.715C369.079 116.291 358.453 127.409 344.075 130.935C334.2 133.324 324.065 131.99 314.596 129.976C311.789 129.51 308.953 128.775 306.22 128.167C301.749 127.161 297.134 126.108 292.54 125.388C270.251 121.901 250.316 125.97 229.202 130.194C224.558 131.131 219.728 132.125 214.917 133.012C202.91 135.244 188.902 137.451 174.781 135.365C165.429 133.761 156.304 131.086 147.642 127.412C137.505 123.534 127.953 119.755 116.734 119.51C111.347 119.421 106.013 120.064 100.921 121.417C90.4511 124.058 80.1492 129.16 70.1302 134.068C55.0093 141.458 39.3681 149.112 24.0052 148.157C18.7896 147.679 13.6195 146.738 8.57413 145.35C3.31925 143.915 -2.06054 142.932 -7.4878 142.415C-11.1157 142.15 -14.7452 142.344 -18.2655 142.99C-28.4681 144.931 -36.4847 150.916 -44.2286 156.619C-48.23 159.75 -52.4866 162.623 -56.9674 165.216C-75.7022 175.489 -100.44 176.174 -117.123 166.87C-125.821 162.027 -129.207 154.342 -132.191 147.556L-133.172 145.311C-138.483 133.215 -142.912 120.862 -146.43 108.33C-150.196 95.5419 -153.424 83.5882 -156.296 71.7594C-161.381 51.9727 -163.531 31.7982 -162.691 11.7492C-162.074 0.65402 -160.339 -10.0798 -158.665 -20.4512C-158.31 -22.5836 -157.991 -24.5027 -157.658 -26.5071C-156.041 -36.2306 -154.758 -47.4122 -156.1 -56.5322C-156.612 -60.6282 -157.949 -64.6426 -160.046 -68.3862C-161.189 -70.4398 -162.785 -72.2857 -164.736 -73.8117C-165.566 -74.379 -166.475 -74.8472 -167.438 -75.2034C-168.291 -75.5367 -169.115 -75.9302 -169.9 -76.3799C-172.33 -77.9673 -174.649 -79.6851 -176.844 -81.5228C-183.943 -87.0861 -194.552 -95.6655 -208.574 -100.912C-211.479 -102.031 -214.505 -102.857 -217.593 -103.376C-225.231 -104.646 -232.124 -103.755 -239.775 -102.682C-241.952 -102.409 -244.209 -102.105 -246.557 -101.86C-256.382 -100.619 -266.39 -100.415 -276.372 -101.252L-276.571 -100.058C-266.454 -99.2263 -256.313 -99.46 -246.365 -100.754C-243.992 -100.995 -241.735 -101.299 -239.558 -101.573C-229.305 -102.913 -220.364 -104.056 -209.108 -99.8173C-195.423 -94.649 -184.813 -86.2229 -177.791 -80.6505C-175.517 -78.7325 -173.098 -76.9534 -170.552 -75.3268C-169.755 -74.8583 -168.917 -74.4478 -168.048 -74.0996C-167.221 -73.7925 -166.445 -73.3828 -165.743 -72.8835C-163.999 -71.4342 -162.582 -69.7093 -161.572 -67.8072C-159.55 -64.214 -158.272 -60.3558 -157.798 -56.4203C-156.46 -47.4323 -157.847 -36.3776 -159.352 -26.7231C-159.685 -24.7187 -160.022 -22.693 -160.359 -20.6672C-162.09 -10.2613 -163.877 0.485746 -164.406 11.6611C-165.228 31.7884 -163.058 52.039 -157.95 71.9008C-155.081 83.7509 -151.885 95.7431 -148.08 108.603C-144.429 121.204 -139.86 133.617 -134.401 145.764C-134.068 146.477 -133.742 147.233 -133.416 147.988C-130.36 154.939 -126.859 162.84 -117.774 167.923C-112.489 170.813 -106.664 172.801 -100.619 173.778C-85.0477 176.145 -69.276 173.498 -56.2241 166.326C-51.6767 163.666 -47.3582 160.723 -43.2999 157.518C-35.6887 151.86 -27.7945 146.007 -17.9411 144.205C-14.5371 143.609 -11.0316 143.454 -7.53331 143.745C-2.19531 144.24 3.09654 145.201 8.26374 146.613C13.3876 148.028 18.6402 148.982 23.9388 149.461C39.7201 150.463 55.5255 142.727 70.7963 135.34C80.7665 130.424 91.075 125.433 101.304 122.883C106.251 121.585 111.427 120.967 116.653 121.053C127.565 121.334 137.037 124.991 147.028 128.843C155.738 132.563 164.909 135.296 174.312 136.975C188.654 139.097 202.794 136.847 214.832 134.576C219.644 133.688 224.47 132.716 229.142 131.762C250.117 127.471 269.922 123.424 291.943 126.867C296.433 127.613 301.058 128.602 305.501 129.625C308.258 130.237 311.109 130.887 313.925 131.443C323.632 133.386 333.934 134.77 344.061 132.379C358.927 128.781 369.766 117.436 379.312 105.722C384.953 98.7929 390.382 91.6316 395.646 84.7059C398.259 81.2546 400.855 77.8588 403.433 74.5185C409.856 66.0543 416.309 58.1649 422.468 50.5334C429.638 41.6457 436.427 33.2424 442.615 24.9803C453.505 10.4659 467.012 -7.57946 491.7 -6.30064C509.964 -5.45446 523.468 5.92905 537.82 17.9359C547.013 25.688 556.543 33.6716 567.438 38.5733C585.243 46.5526 607.81 47.917 627.84 42.2198C645.874 37.0671 655.262 25.5462 665.235 13.3774C673.266 3.5372 681.576 -6.62901 695.024 -14.2098C700.788 -17.3184 706.868 -19.9731 713.194 -22.1446C716.773 -23.456 720.197 -24.5958 723.513 -25.6878C730.633 -27.8919 737.443 -30.7467 743.837 -34.2068L741.763 -34.5517Z" fill="white"/>
<path d="M683.616 -44.2218L681.159 -43.6224C674.315 -41.9334 667.79 -39.4528 661.752 -36.2438C646.66 -27.9723 639.278 -15.548 632.165 -3.53905C624.366 9.58288 617.015 21.9686 600.354 27.9191C582.976 33.925 563.305 33.5437 545.614 26.8579C535.282 22.7949 525.969 15.7678 516.973 8.94672C503.846 -0.927977 490.224 -11.1478 473.275 -12.5202C449.804 -14.4734 436.178 -0.545425 424.106 11.7344L423.899 11.9192L417.181 18.8441C406.969 29.1324 395.401 40.7948 384.078 54.4482C379.848 59.5298 375.634 64.9648 371.427 70.2038C368.085 74.4689 364.641 78.8924 361.167 83.2012C352.429 93.9757 342.586 104.457 329.561 108.142C320.141 110.804 310.561 109.759 302.369 108.353C298.855 107.768 295.297 107.001 291.86 106.254C288.424 105.508 285.2 104.84 281.864 104.241C258.781 100.403 237.988 103.146 215.992 106.193L209.886 107.019C198.363 108.609 185.305 110.381 172.464 109.035C164.434 108.014 156.505 106.292 148.796 103.893C138.899 101.13 129.63 98.5145 118.897 99.1182C114.012 99.4355 109.236 100.376 104.716 101.91C94.9881 105.494 85.7258 109.929 77.0632 115.148C63.6893 122.588 49.8368 130.342 36.1129 130.689C31.2939 130.699 26.4647 130.299 21.6922 129.496C16.9727 128.721 12.2055 128.287 7.43921 128.2C4.08728 128.193 0.763802 128.537 -2.46091 129.227C-11.415 131.2 -18.8254 136.103 -25.9877 140.873C-30.1419 143.788 -34.5444 146.425 -39.1606 148.762C-57.5389 157.495 -80.3172 156.95 -94.5616 147.459C-103.173 141.645 -105.099 133.019 -106.808 125.35L-107.238 123.416C-110.106 110.197 -112.01 96.866 -112.938 83.5061C-113.525 76.3305 -114.08 68.963 -114.663 61.3061C-115.055 55.9232 -115.478 50.3746 -115.932 44.6601C-117.785 23.963 -118.083 3.2404 -116.824 -17.3716C-116.316 -24.6499 -115.522 -31.8369 -114.763 -38.8107C-114.084 -45.0087 -113.436 -50.8614 -112.981 -56.768C-111.89 -70.4139 -112.584 -80.2589 -115.165 -87.81C-116.487 -92.0486 -118.926 -95.9926 -122.279 -99.3142C-124.215 -101.273 -126.765 -102.684 -129.581 -103.355C-130.912 -103.519 -132.256 -103.445 -133.53 -103.135C-134.743 -102.849 -136.015 -102.764 -137.283 -102.883C-140.996 -103.325 -146.372 -106.279 -153.166 -110.061C-161.957 -115.258 -171.319 -119.629 -181.088 -123.097C-192.576 -126.848 -201.148 -125.513 -211.039 -123.936C-213.925 -123.474 -216.911 -123.007 -220.103 -122.661C-232.042 -120.878 -244.372 -121.244 -256.359 -123.738C-261.678 -124.623 -266.973 -125.503 -272.238 -126.116L-272.436 -124.922C-267.169 -124.323 -261.885 -123.532 -256.582 -122.548C-244.487 -120.035 -232.051 -119.635 -219.992 -121.371C-216.772 -121.734 -213.761 -122.198 -210.851 -122.656C-201.121 -124.171 -192.702 -125.489 -181.594 -121.866C-171.933 -118.459 -162.678 -114.149 -153.991 -109.015C-147.107 -105.174 -141.546 -102.124 -137.537 -101.654C-136.123 -101.511 -134.701 -101.586 -133.338 -101.876C-132.233 -102.137 -131.072 -102.205 -129.92 -102.075C-127.348 -101.483 -125.024 -100.191 -123.286 -98.386C-120.083 -95.2274 -117.75 -91.4738 -116.481 -87.4371C-113.973 -80.0516 -113.285 -70.3172 -114.347 -56.8419C-114.827 -50.9394 -115.447 -45.1039 -116.127 -38.9059C-116.91 -31.9362 -117.683 -24.7238 -118.191 -17.4455C-119.432 3.18146 -119.094 23.9191 -117.18 44.6278C-116.725 50.3352 -116.315 55.8598 -115.911 61.2738C-115.35 68.9053 -114.791 76.2515 -114.211 83.4698C-113.278 96.8823 -111.366 110.266 -108.487 123.537L-108.057 125.471C-106.31 133.366 -104.312 142.31 -95.2615 148.351C-89.7841 151.892 -83.4834 154.27 -76.881 155.286C-63.5061 157.305 -49.9433 155.357 -38.3472 149.752C-33.6767 147.387 -29.2196 144.723 -25.0103 141.78C-17.9633 137.101 -10.6612 132.246 -1.9337 130.279C1.17394 129.616 4.37708 129.288 7.60706 129.302C12.3075 129.387 17.009 129.81 21.6648 130.566C26.5178 131.395 31.4314 131.801 36.3331 131.778C50.4443 131.364 64.4259 123.587 77.9395 116.061C86.5423 110.902 95.7215 106.499 105.352 102.914C109.762 101.443 114.412 100.534 119.166 100.215C129.55 99.597 138.892 102.224 148.472 104.935C156.263 107.348 164.273 109.084 172.385 110.117C185.448 111.479 198.587 109.676 210.183 108.098L216.317 107.255C237.926 104.275 258.384 101.432 280.979 105.19L281.711 105.312C285.005 105.859 288.365 106.615 291.634 107.312C294.904 108.01 298.657 108.809 302.216 109.423C310.561 110.811 320.382 111.918 330.092 109.172C343.438 105.365 353.48 94.7421 362.337 83.8559C365.815 79.5258 369.283 75.1063 372.601 70.8372C376.706 65.6033 380.92 60.1684 385.248 55.103C396.539 41.4881 408.08 29.843 418.264 19.5719L424.982 12.8004L425.191 12.5942C437.03 0.51654 450.438 -13.1626 473.216 -11.2591C489.771 -9.93034 503.166 0.142343 516.112 9.89929C525.206 16.7366 534.592 23.9292 545.144 27.8754C563.183 34.6897 583.237 35.0801 600.958 28.9618C618.073 22.8457 625.529 10.2803 633.409 -3.02545C640.417 -15.008 647.757 -27.1764 662.545 -35.2793C668.478 -38.3846 674.885 -40.7673 681.602 -42.3654C683.336 -42.8439 685.057 -43.2371 686.837 -43.6862L683.616 -44.2218Z" fill="white"/>
<path d="M624.444 -54.0637C611.642 -45.2361 606.194 -32.3805 600.925 -19.8459C594.904 -5.50778 589.189 8.04843 573.191 14.9858C565.509 18.1474 557.122 19.9046 548.519 20.1553C539.915 20.406 531.265 19.1452 523.073 16.4462C512.975 13.0796 503.663 6.95113 494.647 1.00334C482.349 -7.06818 469.629 -15.4727 454.551 -17.2352C432.789 -19.8243 418.643 -9.40135 406.182 -0.210296C391.321 10.2836 377.768 22.1182 365.728 35.1137C360.407 41.022 355.239 47.5252 350.255 53.8183C348.225 56.3733 346.22 58.9324 344.152 61.5686C336.607 70.898 327.55 81.1811 315.458 85.284C308.449 87.6245 300.779 88.0582 290.579 86.6686C286.19 86.0701 281.77 85.2037 277.539 84.259L271.62 83.0556C248.772 78.708 228.559 79.0278 205.296 80.7908L199.091 81.3147C189.665 82.3584 180.127 82.736 170.567 82.4439C164.049 81.9851 157.551 81.1753 151.111 80.019C141.106 78.3552 131.59 76.7726 121.266 78.5399C116.892 79.2694 112.668 80.4966 108.698 82.191C100.06 86.1647 91.8626 90.8064 84.1987 96.0637C72.5476 103.549 60.5295 111.28 48.4024 113.032C43.8821 113.586 39.2942 113.762 34.6989 113.558C30.6411 113.397 26.5868 113.455 22.5587 113.73C19.5139 113.967 16.5124 114.451 13.5921 115.175C6.13313 117.481 -0.855686 120.748 -7.1534 124.873C-11.5685 127.621 -16.2397 130.046 -21.1231 132.126C-35.7269 137.915 -57.8333 139.06 -71.8219 127.88C-80.3682 121.068 -80.7493 111.297 -81.0708 102.676L-81.1264 101.352C-81.5219 87.0059 -80.9001 72.6915 -79.2646 58.4921L-78.4795 50.7558C-77.3652 39.9844 -76.2296 29.0851 -75.4442 17.4264C-74.9297 10.412 -74.4839 3.05754 -73.9956 -4.55282C-73.0835 -17.8778 -72.2886 -31.7044 -70.9788 -46.3657L-70.3055 -54.033C-69.2978 -65.3699 -68.3405 -76.1016 -68.2865 -86.8301C-68.2135 -100.689 -70.1443 -111.244 -74.2419 -118.872C-76.4705 -123.307 -80.0318 -127.162 -84.527 -130.005C-86.5354 -131.231 -88.7908 -132.09 -91.1531 -132.531C-92.2942 -132.73 -93.4562 -132.768 -94.5949 -132.643C-96.4854 -132.346 -98.2842 -131.746 -99.9041 -130.875C-101.417 -130.072 -103.08 -129.498 -104.826 -129.173C-110.722 -128.247 -119.417 -131.907 -129.665 -136.175C-137.431 -139.605 -145.434 -142.568 -153.617 -145.045C-165.088 -148.289 -173.735 -146.659 -182.873 -144.936C-186.317 -144.282 -189.886 -143.626 -193.8 -143.159C-205.993 -141.282 -218.658 -142.131 -230.652 -145.629C-242.881 -148.821 -255.439 -150.718 -268.053 -151.279L-268.252 -150.085C-255.687 -149.529 -243.178 -147.648 -230.993 -144.48C-218.82 -140.89 -205.951 -140 -193.56 -141.892C-189.621 -142.355 -186.024 -143.028 -182.552 -143.699C-173.197 -145.518 -165.123 -147.024 -153.937 -143.871C-145.825 -141.422 -137.893 -138.485 -130.198 -135.08C-119.814 -130.724 -110.858 -126.977 -104.526 -127.962C-102.644 -128.324 -100.849 -128.942 -99.2061 -129.795C-97.7273 -130.607 -96.0789 -131.164 -94.3436 -131.44C-91.123 -131.624 -87.8857 -130.758 -85.2447 -129.007C-80.9649 -126.301 -77.5802 -122.625 -75.4743 -118.397C-71.4601 -110.871 -69.5634 -100.563 -69.629 -86.9C-69.6795 -76.1928 -70.682 -65.4905 -71.6617 -54.1709C-71.885 -51.6222 -72.1082 -49.0736 -72.3106 -46.4996C-73.5508 -31.8047 -74.5374 -18.032 -75.2578 -4.65317C-75.7205 2.95416 -76.194 10.2748 -76.6784 17.3088C-77.5127 28.9594 -78.666 39.9653 -79.7102 50.6168L-80.5196 58.3491C-82.1415 72.6012 -82.7634 86.9658 -82.3819 101.362L-82.3263 102.686C-82.0008 111.133 -81.6112 121.607 -72.6022 128.802C-67.1545 133.01 -60.52 135.809 -53.482 136.869C-42.1129 138.567 -30.5729 137.318 -20.2858 133.274C-15.3449 131.17 -10.6189 128.717 -6.15198 125.938C0.0361186 121.907 6.90188 118.723 14.2267 116.486C17.0728 115.781 19.9968 115.306 22.9631 115.068C26.9352 114.799 30.9315 114.732 34.9324 114.868C39.6117 115.079 44.2838 114.902 48.887 114.34C61.3247 112.529 73.4825 104.712 85.2454 97.1581C92.8453 91.9516 100.968 87.3494 109.524 83.4022C113.391 81.7393 117.511 80.5386 121.779 79.8303C131.904 78.2053 141.232 79.7127 151.097 81.3095C157.602 82.4771 164.165 83.2978 170.748 83.7669C180.378 84.0561 189.985 83.668 199.478 82.6062L205.683 82.0824C228.831 80.2564 248.919 79.9376 271.593 84.2781C273.569 84.6068 275.524 85.0634 277.487 85.4774C281.777 86.3663 286.211 87.3008 290.648 87.9073C301.096 89.3162 309.011 88.7698 316.215 86.4617C328.645 82.2837 337.853 71.8503 345.496 62.3837C347.55 59.8328 349.58 57.2778 351.599 54.6334C356.583 48.3404 361.723 41.8544 367.016 35.9634C379.013 23.0367 392.506 11.259 407.292 0.806959C419.554 -8.2419 433.465 -18.4628 454.638 -15.9497C469.388 -14.176 481.934 -5.9319 494.073 2.04723C503.124 7.93513 512.582 14.2413 522.846 17.6576C531.22 20.4153 540.061 21.7033 548.855 21.4466C557.649 21.19 566.222 19.3938 574.073 16.1625C590.547 8.9316 596.318 -4.81245 602.552 -19.378C607.87 -32.0579 613.406 -45.1399 626.623 -53.7452L624.444 -54.0637Z" fill="white"/>
<path d="M579.624 -61.5222C575.359 -53.5569 572.168 -45.1469 570.114 -36.4571C565.652 -20.786 561.462 -5.99025 546 2.24169C539.247 5.59025 531.73 7.66566 523.906 8.3421C516.083 9.01853 508.115 8.2819 500.486 6.17687C490.438 3.56373 480.87 -1.77478 471.649 -6.94578C460.427 -13.1948 448.703 -19.7464 435.833 -21.821C415.263 -25.2418 399.765 -17.6953 388.464 -12.1679C372.893 -5.02939 358.971 4.49726 347.322 15.9856C341.29 22.1041 335.628 29.1609 330.179 35.9901L327.03 39.849C319.758 48.8951 311.764 58.0621 301.262 62.2542C294.227 64.9151 286.415 65.7983 278.671 64.8081C273.269 64.1772 267.906 63.234 262.615 61.9847L261.273 61.7615C243.041 57.8529 223.072 54.2908 200.577 54.6038C195.548 54.6878 190.483 54.985 185.426 55.2396C179.856 55.5623 174.083 55.8952 168.465 55.9031C163.949 55.919 159.712 55.7622 155.621 55.6298C144.152 55.2345 134.232 54.8775 123.475 58.041C119.661 59.2078 116.023 60.7489 112.63 62.6362C105.077 66.9911 97.9376 71.8622 91.2748 77.207C81.3814 84.6776 71.1907 92.4275 60.6431 95.5381C56.1794 96.7378 51.5907 97.5948 46.927 98.0999C43.9511 98.5035 40.8741 98.9121 37.6117 99.5309C34.8966 100.04 32.2209 100.677 29.5958 101.441C23.6211 103.419 17.8895 105.884 12.4732 108.805C7.5262 111.456 2.3171 113.727 -3.09939 115.594C-17.12 119.836 -37.5275 119.51 -49.0716 108.409C-57.5272 100.297 -56.2346 89.3584 -55.1024 79.6857L-55.0457 79.3445C-52.9854 63.8848 -49.8394 48.5932 -45.6255 33.5564L-44.1843 28.2082C-40.9599 16.0567 -37.5669 3.49485 -34.8487 -9.68319C-30.6821 -29.6107 -27.3849 -51.6988 -25.0772 -75.3758C-23.4516 -89.1424 -22.9344 -103.035 -23.5292 -116.951C-24.501 -131.312 -27.6656 -142.138 -33.3284 -150.004C-36.5304 -154.653 -41.2121 -158.403 -46.7602 -160.762C-48.4233 -161.418 -50.1641 -161.892 -51.9421 -162.172C-54.4317 -162.63 -56.9841 -162.55 -59.3779 -161.94C-61.8644 -161.179 -64.176 -160.061 -66.2223 -158.63C-68.0477 -157.363 -70.0592 -156.314 -72.2084 -155.506C-80.4393 -152.755 -92.0836 -156.62 -105.759 -161.086C-112.324 -163.229 -119.094 -165.495 -126.116 -167.145C-137.628 -169.848 -146.03 -168.024 -154.894 -166.145C-158.984 -165.18 -163.138 -164.408 -167.34 -163.832C-182.99 -161.855 -190.781 -163.107 -204.948 -167.633C-226.778 -174.484 -246.569 -177.009 -264.12 -174.909L-264.325 -173.673C-246.9 -175.771 -227.168 -173.344 -205.352 -166.407C-191.603 -161.929 -183.234 -160.537 -167.075 -162.561C-162.831 -163.123 -158.636 -163.888 -154.507 -164.854C-145.42 -166.871 -137.558 -168.609 -126.35 -165.891C-119.404 -164.231 -112.651 -162.013 -106.136 -159.877C-92.2649 -155.379 -80.3105 -151.419 -71.5978 -154.353C-69.3332 -155.216 -67.2169 -156.337 -65.3008 -157.688C-63.3866 -159.1 -61.2103 -160.218 -58.8574 -160.999C-55.0053 -161.863 -50.8653 -161.439 -47.2196 -159.809C-41.9476 -157.533 -37.4969 -153.955 -34.4352 -149.531C-28.9148 -141.864 -25.788 -131.263 -24.7807 -117.115C-24.1861 -103.264 -24.6927 -89.4361 -26.2968 -75.7321C-28.636 -52.0164 -31.9155 -30.0349 -36.0506 -10.146C-38.8211 3.04521 -42.1617 15.5938 -45.4106 27.7413L-46.8273 33.0936C-51.0706 48.1756 -54.2331 63.5162 -56.2968 79.0269L-56.357 79.3894C-57.4711 88.8021 -58.8705 100.534 -49.9837 109.068C-44.5397 114.075 -37.4099 117.384 -29.7546 118.458C-20.5319 119.874 -11.1539 119.233 -2.48836 116.594C3.0098 114.712 8.29237 112.409 13.3007 109.71C18.6473 106.836 24.2972 104.402 30.1824 102.437C32.7479 101.697 35.3618 101.078 38.0133 100.584C41.2234 99.9782 44.2973 99.4376 47.2519 99.162C51.9895 98.6393 56.6496 97.7574 61.181 96.526C71.9379 93.3625 82.2648 85.5477 92.2736 77.9867C98.8924 72.6891 105.975 67.8532 113.461 63.5194C116.836 61.7039 120.444 60.2316 124.222 59.1294C134.765 56.04 144.54 56.3727 155.883 56.7691C159.998 56.9055 164.259 57.0663 168.8 57.0545C174.471 57.0334 180.232 56.7645 185.838 56.3819C190.773 56.107 195.953 55.8727 200.863 55.7471C223.208 55.4311 243.08 58.9769 261.214 62.8693L262.556 63.0925C267.904 64.3514 273.324 65.3041 278.782 65.9443C286.775 66.9466 294.83 66.0127 302.075 63.244C312.822 58.9393 321.015 49.6301 328.43 40.4763L331.579 36.6174C337.021 29.8308 342.631 22.7873 348.632 16.7073C360.174 5.26795 373.989 -4.21859 389.453 -11.3243C403.875 -18.2828 417.33 -23.8023 435.934 -20.7741L436.105 -20.7457C448.745 -18.6437 460.169 -12.2515 471.288 -6.12936C480.627 -0.916743 490.265 4.45526 500.5 7.14351C508.316 9.29032 516.477 10.0375 524.489 9.33977C532.501 8.64209 540.197 6.51406 547.114 3.08429C563.04 -5.3772 567.488 -21.1163 571.795 -36.3091C574.267 -44.992 576.767 -53.8455 581.423 -61.4859L579.624 -61.5222Z" fill="white"/>
<path d="M542.309 -67.7275C541.146 -62.9905 540.281 -58.0942 539.424 -53.2406C536.714 -36.9494 533.669 -20.1443 518.849 -10.6443C508.18 -3.78484 493.313 -1.39245 477.924 -4.30232C467.481 -6.19244 457.669 -10.6729 447.175 -15.4203C437.527 -19.8297 427.552 -24.3812 417.096 -26.646C399.286 -30.5283 384.282 -27.9176 370.749 -24.4927C354.761 -20.7969 340.34 -13.4249 328.928 -3.11383C322.336 3.22108 316.306 9.99675 310.888 17.1579L309.908 18.3755C302.94 27.0997 295.939 35.2705 287.031 39.5303C280.892 42.4473 273.861 43.7325 266.756 43.2363C261.409 42.8615 256.099 41.9785 250.92 40.6027C245.497 39.2846 240.176 37.8079 235.022 36.3811C221.982 32.7662 209.635 29.3543 195.911 28.4962C186.859 28.1383 177.819 28.4007 168.874 29.281L166.513 29.4581C149.889 30.6597 138.073 31.8941 125.789 37.6084C122.497 39.1579 119.383 40.9725 116.487 43.0299C110.04 47.8002 103.96 52.9369 98.2819 58.4095C90.1288 65.8189 81.6852 73.6183 72.8046 78.0142C67.6865 80.4016 62.3228 82.3837 56.774 83.9383L52.5925 85.2589L51.322 85.6612C49.4685 86.2514 47.5104 86.868 45.4893 87.5618C41.5969 88.9524 37.7526 90.6578 34.0306 92.2301C27.9399 95.0916 21.501 97.3768 14.8171 99.0492C1.06514 101.978 -17.0605 99.9931 -26.4565 88.9421C-34.0484 80.0098 -32.0473 68.882 -29.0965 57.3204C-24.5731 40.7507 -18.8949 24.4831 -12.0935 8.60796L-9.98695 3.47996C-4.64331 -9.50249 0.896809 -22.9125 5.58062 -36.9031C13.0412 -58.8786 18.1229 -81.5095 20.7594 -104.501C22.6066 -118.606 22.7326 -132.909 21.1351 -147.17C20.7936 -149.791 20.3505 -152.253 19.8688 -154.634L18.4048 -154.877C18.9419 -152.377 19.4196 -149.822 19.7678 -147.09C21.3459 -132.917 21.226 -118.702 19.4103 -104.682C16.7603 -81.7798 11.6932 -59.2361 4.27406 -37.3395C-0.406213 -23.3702 -5.9428 -9.98157 -11.2585 2.98361L-13.3651 8.11161C-20.1979 24.0302 -25.8927 40.3469 -30.4172 56.9693C-32.8498 66.4695 -36.1638 79.4608 -27.5429 89.5941C-22.1419 95.5825 -14.3757 99.5654 -5.91661 100.685C1.15091 101.814 8.34383 101.644 15.2046 100.187C21.9777 98.4877 28.5047 96.1734 34.6834 93.281C38.3809 91.7046 42.2182 90.0418 46.0688 88.6004C48.069 87.8812 49.9992 87.2819 51.8527 86.6917L53.1232 86.2894L57.2768 84.9861C62.9 83.3812 68.3376 81.3532 73.531 78.9239C82.6001 74.4498 91.0926 66.6585 99.3925 59.1201C105.035 53.6881 111.076 48.5888 117.478 43.8522C120.32 41.8472 123.367 40.0735 126.585 38.5516C138.653 32.9327 150.29 31.7125 166.81 30.5374L169.175 30.339C178.001 29.5357 186.913 29.3256 195.834 29.7107C209.409 30.5657 221.65 34.004 234.652 37.5468C239.806 38.9736 245.152 40.4543 250.623 41.7806C255.888 43.1929 261.289 44.0912 266.728 44.4589C274.083 44.9585 281.359 43.6324 287.726 40.6318C296.882 36.238 303.97 27.9941 311.036 19.1328L312.019 17.8939C317.395 10.776 323.384 4.04445 329.937 -2.24481C341.233 -12.3521 355.469 -19.5638 371.23 -23.1637C384.579 -26.5316 399.355 -29.1362 416.872 -25.3027C427.161 -23.0876 437.067 -18.5696 446.645 -14.1937C456.666 -9.6127 467.038 -4.88559 477.676 -2.96299C493.303 -0.12322 508.699 -2.537 519.676 -9.58639C535.003 -19.4186 537.847 -36.5201 540.79 -53.0134C541.599 -57.8751 542.414 -62.7795 543.676 -67.5002L542.309 -67.7275Z" fill="white"/>
<path d="M510.393 -73.0356L509.027 -73.2628C508.853 -72.218 508.843 -71.1021 508.774 -70.0836C507.285 -52.5376 505.75 -34.4077 491.658 -23.406C482.666 -16.3772 469.75 -13.2002 455.291 -14.4653C443.081 -15.5317 430.521 -20.0747 418.362 -24.4635C411.833 -26.8202 405.068 -29.2602 398.433 -31.1306C383.726 -35.3612 368.371 -37.1716 353.156 -36.4689C335.48 -35.7271 321.594 -31.0899 310.682 -22.3205C303.965 -16.5497 297.998 -10.1373 292.882 -3.1921C286.895 4.31449 280.711 12.0953 272.932 16.6524C267.669 19.843 261.383 21.5498 254.864 21.5584C250.051 21.5297 245.242 20.8113 240.624 19.4312C233.618 17.3319 226.774 14.7875 220.149 11.8188C210.988 7.95051 201.544 3.96957 191.278 2.37185C182.32 1.15553 173.256 1.36289 164.521 2.98399C151.099 4.9697 138.582 9.85702 128.077 17.2148C125.349 19.1395 122.781 21.231 120.391 23.4748C115.101 28.4459 110.129 34.215 105.315 39.7912C99.3172 47.2704 92.5135 54.2088 84.9925 60.5161C79.6655 64.5617 73.8358 68.0735 67.6033 70.9913C65.5848 71.9704 63.4515 72.8866 61.4543 73.7378C52.3137 77.5864 42.6007 81.559 32.8195 82.4743C20.3343 83.8164 4.13575 81.1006 -3.77993 69.4411C-10.6293 59.3614 -7.57876 47.0494 -3.11026 35.2581C3.87037 17.6105 12.0675 0.394319 21.4368 -16.2975L23.7223 -20.5411C31.3532 -34.6114 39.2259 -49.0797 46.0013 -64.0373C56.3308 -86.1562 63.2565 -109.501 66.6011 -133.473C67.1506 -137.984 67.5183 -142.305 67.7395 -146.651L66.373 -146.878C66.1518 -142.532 65.7842 -138.211 65.2418 -133.743C61.9227 -109.876 55.0225 -86.6357 44.7195 -64.623C37.9721 -49.6827 30.0959 -35.193 22.4512 -21.1908L20.1657 -16.9472C10.7536 -0.192979 2.52813 17.0922 -4.46563 34.8136C-8.98024 46.8821 -12.1816 59.4977 -5.05443 70.018C-2.50783 73.5611 0.884329 76.591 4.87265 78.885C8.86097 81.1789 13.3441 82.6785 17.9923 83.2735C22.9775 84.0437 28.0338 84.1457 32.9873 83.5759C42.9713 82.4971 52.7956 78.6088 62.0445 74.7124C64.0661 73.8653 66.2273 72.9319 68.2737 71.9355C74.5858 68.9788 80.4965 65.4299 85.9074 61.3475C93.4873 54.9756 100.351 47.9746 106.412 40.4337C111.194 34.8962 116.138 29.1443 121.397 24.2118C123.739 22.0043 126.26 19.9486 128.939 18.0595C139.27 10.8205 151.585 6.01882 164.79 4.08055C173.36 2.47845 182.255 2.26525 191.049 3.45124C201.077 5.11906 210.508 8.87866 219.585 12.7987C226.278 15.8003 233.192 18.3712 240.272 20.4903C245.034 21.9111 249.993 22.6471 254.955 22.6692C261.7 22.6602 268.208 20.9082 273.672 17.6301C281.65 12.9308 287.897 5.07283 293.983 -2.57084C299.033 -9.46079 304.925 -15.8266 311.559 -21.5611C322.387 -30.1254 336.056 -34.6672 353.356 -35.4059C368.405 -36.1033 383.593 -34.3205 398.144 -30.1487C404.73 -28.2864 411.447 -25.8545 417.952 -23.5018C430.208 -19.0969 442.862 -14.5163 455.295 -13.4347C470.123 -12.1301 483.395 -15.3356 492.646 -22.5624C507.066 -33.882 508.693 -52.2596 510.197 -70.0443C510.209 -70.8748 510.324 -72.0172 510.393 -73.0356Z" fill="white"/>
<path d="M477.867 -78.445C477.443 -62.475 475.597 -46.851 464.478 -36.2315C448.585 -21.037 420.075 -20.8917 379.75 -35.7937C349.795 -46.8671 315.86 -57.3754 292.172 -41.4396C284.89 -36.5586 279.322 -29.4643 273.985 -22.5508C265.358 -11.5387 257.201 -1.23746 242.916 -0.0849343C231.004 0.826588 220.912 -5.43177 210.234 -12.0942C202.805 -16.7263 195.097 -21.4924 186.597 -23.7605C161.234 -30.4766 137.172 -13.0471 124.316 3.94523C120.077 9.52945 116.221 15.5279 112.494 21.3506C104.263 34.2035 95.7348 47.4891 82.635 56.7492C76.7361 60.7581 69.8573 63.5464 62.4786 64.9194C55.0999 66.2924 47.399 66.2171 39.9131 64.6988C35.4193 63.8169 31.1777 62.026 27.5303 59.4706C23.8828 56.9152 20.9314 53.6667 18.9141 49.987C12.6594 37.9901 17.7895 24.0299 22.9737 13.2122C33.1142 -7.95694 46.4011 -28.1427 59.2502 -47.6561C68.5448 -61.7784 78.1755 -76.4146 86.5725 -91.3216C95.4523 -106.82 102.492 -123.137 107.586 -140.024L106.244 -140.248C101.13 -123.48 94.0929 -107.281 85.2384 -91.8941C76.873 -77.0256 67.2737 -62.4281 57.9162 -48.2286C45.0355 -28.6766 31.7451 -8.4695 21.5695 12.7596C16.2731 23.7996 11.0445 38.0503 17.5455 50.5264C19.6256 54.3897 22.7006 57.8011 26.5157 60.4781C30.3308 63.1552 34.7764 65.0207 39.4843 65.9204C40.4603 66.0827 41.4608 66.2491 42.4612 66.4155C49.7164 67.4964 57.081 67.2795 64.1101 65.7782C71.1393 64.2768 77.6871 61.522 83.3578 57.6802C96.6533 48.2992 105.252 34.8939 113.546 21.9638C117.244 16.1583 121.115 10.0746 125.308 4.61424C137.957 -12.0399 161.443 -29.1708 186.116 -22.5257C194.379 -20.3408 201.975 -15.5056 209.286 -11.0685C219.696 -4.60405 230.495 2.07863 242.896 1.09494C257.801 -0.0201052 266.137 -10.6422 274.949 -21.8645C280.265 -28.6501 285.77 -35.6672 292.884 -40.4446C316.003 -55.9712 349.509 -45.5999 379.108 -34.6513C420.026 -19.5413 449.053 -19.776 465.361 -35.3615C476.753 -46.2643 478.652 -62.0548 479.08 -78.1995L477.867 -78.445Z" fill="white"/>
<path d="M826.429 371.114C777.518 364.711 734.112 399.697 705.665 431.277C703.423 433.753 701.205 436.233 698.955 438.751C668.822 472.483 637.656 507.445 590.582 512.764C545.504 517.846 503.172 493.143 462.205 469.282C418.773 443.958 373.808 417.745 326.117 428.133C304.472 432.839 286.468 444.745 269.083 456.251C257.026 464.217 244.574 472.445 230.968 478.268C161.664 507.94 88.9011 473.071 40.0693 444.33C35.129 441.317 29.651 438.521 23.9853 435.497C9.38367 427.854 -7.12981 419.191 -17.749 407.805C-23.7678 401.325 -27.0472 391.642 -30.1775 382.269C-34.5913 369.154 -39.1365 355.622 -51.4629 349.978C-59.1722 346.491 -67.3847 344.024 -75.8232 342.662C-104.128 337.955 -134.518 344.427 -161.657 352.01L-168.683 353.997C-201.811 363.367 -236.046 373.057 -269.901 365.389C-295.079 359.667 -316.632 344.82 -337.437 330.447C-340.613 328.136 -343.816 325.887 -347.047 323.699L-347.493 326.386C-344.677 328.3 -341.865 330.236 -339.101 332.164C-318.035 346.624 -296.364 361.667 -270.486 367.548C-235.899 375.492 -201.256 365.607 -167.761 356.145L-160.739 354.179C-126.169 344.589 -86.2549 336.632 -52.5495 351.989C-41.3167 357.122 -37.1381 369.541 -32.5886 382.744C-29.3718 392.351 -26.0338 402.285 -19.629 409.157C-8.69341 420.903 8.07423 429.696 22.8569 437.457C28.6238 440.476 34.0423 443.327 38.9516 446.226C68.0833 463.451 105.739 482.796 146.245 489.532C175.794 494.895 206.105 491.705 232.587 480.444C246.41 474.525 258.973 466.228 271.118 458.189C288.304 446.826 306.08 435.078 327.209 430.462C373.655 420.327 416.081 445.067 461 471.251C502.399 495.381 545.218 520.318 591.315 515.143C639.432 509.734 672.343 472.871 701.396 440.362L708.077 432.905C736.066 401.819 778.631 367.372 826.276 373.543L826.429 371.114Z" fill="white"/>
<path d="M877.3 65.2271C875.414 68.9225 873.093 72.4209 870.373 75.6673C847.564 102.75 803.181 104.704 763.363 104.393C731.656 104.16 703.576 102.777 681.327 88.3395C668.266 79.8782 657.605 67.0829 647.299 54.7191C629.614 33.5022 612.891 13.4316 585.532 14.9515C551.015 16.8371 538.741 51.7417 529.915 84.3053C517.309 130.602 494.777 174.005 463.503 212.235C452.184 226.02 436.411 242.155 414.817 244.59C401.125 246.104 387.953 242.073 373.97 237.797C364.361 234.464 354.405 232.073 344.288 230.669C317.167 227.89 292.064 239.515 267.771 250.639C239.801 263.518 213.462 275.639 184.752 267.336C170.089 263.079 157.78 253.712 145.892 244.679C133.603 235.339 120.894 225.665 105.411 221.359C81.802 214.803 57.6668 221.965 34.4459 228.906C9.64744 236.287 -13.7794 243.26 -36.9908 235.368C-44.6324 232.469 -51.9363 228.875 -58.7785 224.644C-71.0523 217.629 -83.7614 210.366 -98.0947 211.663C-113.995 213.183 -124.306 224.221 -134.187 234.937C-138.141 239.368 -142.399 243.577 -146.941 247.542C-166.079 263.555 -197.133 269.654 -230.227 263.888C-260.197 258.64 -287.708 245.388 -314.313 232.57C-319.607 230.024 -325.047 227.301 -330.51 224.42L-330.932 226.958C-325.817 229.671 -320.656 232.26 -315.616 234.676C-288.826 247.59 -261.103 260.922 -230.61 266.344L-229.342 266.555C-195.937 272.11 -164.459 265.731 -144.969 249.404C-140.388 245.327 -136.094 241.007 -132.11 236.466C-122.033 225.629 -112.512 215.423 -97.7213 214.092C-84.3821 212.892 -72.6585 219.597 -60.2453 226.679C-53.2211 231.002 -45.7301 234.679 -37.8968 237.649C-13.7342 245.853 11.2493 238.416 35.3916 231.211C58.2634 224.409 81.9031 217.362 104.648 223.686C119.58 227.835 132.046 237.315 144.136 246.491C156.226 255.667 168.779 265.227 183.993 269.642C213.657 278.235 241.808 265.32 269.041 252.801C292.992 241.773 317.777 230.402 344.012 233.078C353.924 234.438 363.681 236.759 373.103 239.998C386.772 244.199 400.895 248.542 415.194 246.998C437.782 244.465 454.055 227.887 465.682 213.759C497.223 175.282 519.957 131.585 532.689 84.9638C541.282 53.1943 553.209 19.1742 585.905 17.3803C611.744 15.958 628.032 35.4743 645.21 56.1247C655.665 68.6449 666.43 81.5671 679.836 90.3705C704.737 106.498 738.7 106.734 763.544 106.921C804.015 107.231 849.088 105.195 872.692 77.2581C873.941 75.7785 875.096 74.2613 876.153 72.7279L877.3 65.2271Z" fill="white"/>
<path d="M477.135 -78.5669C476.701 -62.6863 474.921 -47.1608 463.921 -36.653C448.224 -21.7327 419.986 -21.5641 379.943 -36.3534C349.825 -47.4979 315.639 -58.0041 291.678 -41.9383C284.337 -37.0014 278.737 -29.8685 273.327 -22.9672C264.77 -12.0749 256.717 -1.80012 242.751 -0.748167C231.093 0.139972 221.067 -6.06357 210.532 -12.6803C203.029 -17.3246 195.276 -22.1201 186.679 -24.4045C160.936 -31.2495 136.619 -13.6432 123.612 3.49937C119.37 9.10491 115.51 15.1247 111.759 20.9434C103.56 33.7577 95.0629 47.0046 82.054 56.1703C76.2428 60.133 69.4603 62.8891 62.1825 64.2454C54.9048 65.6017 47.308 65.5252 39.9253 64.0213C35.5349 63.1652 31.3905 61.4182 27.828 58.9221C24.2654 56.426 21.3851 53.2511 19.4205 49.6547C13.2559 37.87 18.3332 24.0763 23.4718 13.3825C33.6052 -7.74399 46.8642 -27.9124 59.7133 -47.4259C69.0114 -61.5695 78.6386 -76.1843 87.0355 -91.0914C95.9843 -106.626 103.098 -122.981 108.269 -139.911L105.536 -140.366C100.429 -123.664 93.4105 -107.529 84.5869 -92.1998C76.2459 -77.3273 66.6466 -62.7298 57.2647 -48.5344C44.3841 -28.9823 31.0621 -8.73667 20.8795 12.5351C15.5409 23.6777 10.2596 38.0948 16.8542 50.7618C18.9841 54.7162 22.1313 58.2083 26.0357 60.9495C29.9401 63.6907 34.4896 65.6024 39.3081 66.5264C40.3085 66.6928 41.3089 66.8591 42.3094 67.0255C49.6846 68.1425 57.1755 67.9349 64.3257 66.4153C71.476 64.8958 78.1361 62.096 83.9003 58.1866C97.3843 48.7274 105.889 35.2845 114.319 22.2894C118.014 16.5052 121.867 10.5281 126.046 4.99975C138.569 -11.5 161.71 -28.5131 186.128 -21.9979C194.297 -19.8506 201.841 -15.1555 209.163 -10.629C219.687 -4.10164 230.574 2.66124 243.26 1.61557C258.497 0.467984 267.256 -10.7411 275.782 -21.5948C281.066 -28.3417 286.54 -35.3202 293.57 -40.0459C316.406 -55.3784 349.72 -45.0609 379.131 -34.1875C420.331 -18.9648 449.616 -19.2442 466.138 -35.0572C477.561 -45.9986 479.377 -61.8906 479.941 -78.1003L477.135 -78.5669Z" fill="white"/>
</g>
<defs>
<linearGradient id="paint0_linear" x1="546.002" y1="148.305" x2="-231.362" y2="859.395" gradientUnits="userSpaceOnUse">
<stop offset="0.14257" stop-color="#53FFE0"/>
<stop offset="0.76547" stop-color="#32CEFF"/>
</linearGradient>
</defs>
</svg>
