<svg width="34" height="28" viewBox="0 0 34 28" fill="none" xmlns="http://www.w3.org/2000/svg">
<g clip-path="url(#clip0)">
<path d="M32.3719 19.7943C32.5098 19.0467 32.5098 18.2831 32.3719 17.5354L33.74 16.7454C33.899 16.6552 33.968 16.4696 33.9149 16.2947C33.5597 15.1493 32.9499 14.11 32.1545 13.251C32.0325 13.1184 31.8364 13.0866 31.6773 13.1768L30.3092 13.9668C29.7312 13.4737 29.0684 13.0919 28.3526 12.8374V11.2573C28.3526 11.077 28.2253 10.9179 28.0503 10.8808C26.8679 10.6157 25.6642 10.6263 24.5401 10.8808C24.3651 10.9179 24.2378 11.077 24.2378 11.2573V12.8374C23.522 13.0919 22.8592 13.4737 22.2812 13.9668L20.9132 13.1768C20.7594 13.0866 20.5579 13.1184 20.4359 13.251C19.6405 14.11 19.0308 15.1493 18.6755 16.2947C18.6225 16.4696 18.6967 16.6552 18.8505 16.7454L20.2185 17.5354C20.0807 18.2831 20.0807 19.0467 20.2185 19.7943L18.8505 20.5844C18.6914 20.6745 18.6225 20.8601 18.6755 21.0351C19.0308 22.1805 19.6405 23.2145 20.4359 24.0788C20.5579 24.2113 20.7541 24.2431 20.9132 24.153L22.2812 23.3629C22.8592 23.8561 23.522 24.2378 24.2378 24.4924V26.0725C24.2378 26.2528 24.3651 26.4119 24.5401 26.449C25.7225 26.7141 26.9262 26.7035 28.0503 26.449C28.2253 26.4119 28.3526 26.2528 28.3526 26.0725V24.4924C29.0684 24.2378 29.7312 23.8561 30.3092 23.3629L31.6773 24.153C31.8311 24.2431 32.0325 24.2113 32.1545 24.0788C32.9499 23.2198 33.5597 22.1805 33.9149 21.0351C33.968 20.8601 33.8937 20.6745 33.74 20.5844L32.3719 19.7943ZM26.3005 21.2366C24.8794 21.2366 23.7288 20.0807 23.7288 18.6649C23.7288 17.2491 24.8847 16.0932 26.3005 16.0932C27.7163 16.0932 28.8722 17.2491 28.8722 18.6649C28.8722 20.0807 27.7216 21.2366 26.3005 21.2366ZM11.8777 13.5745C15.6265 13.5745 18.6649 10.5361 18.6649 6.78723C18.6649 3.03835 15.6265 0 11.8777 0C8.12877 0 5.09042 3.03835 5.09042 6.78723C5.09042 10.5361 8.12877 13.5745 11.8777 13.5745ZM22.5463 25.5847C22.4244 25.5211 22.3024 25.4468 22.1858 25.3779L21.7669 25.6218C21.4487 25.8021 21.0881 25.9028 20.7276 25.9028C20.1496 25.9028 19.5928 25.6589 19.1951 25.2347C18.2248 24.1848 17.4824 22.9069 17.0635 21.5442C16.7719 20.6056 17.1643 19.614 18.0127 19.1209L18.4316 18.877C18.4263 18.7391 18.4263 18.6013 18.4316 18.4634L18.0127 18.2195C17.1643 17.7316 16.7719 16.7348 17.0635 15.7962C17.1112 15.6424 17.1802 15.4887 17.2332 15.3349C17.0317 15.319 16.8355 15.2713 16.6287 15.2713H15.7432C14.566 15.8121 13.2563 16.1197 11.8777 16.1197C10.499 16.1197 9.19458 15.8121 8.01211 15.2713H7.12659C3.19212 15.2713 0 18.4634 0 22.3979V24.6037C0 26.0089 1.14004 27.1489 2.54521 27.1489H21.2101C21.7456 27.1489 22.2441 26.9792 22.6524 26.6982C22.5888 26.4967 22.5463 26.2899 22.5463 26.0725V25.5847Z" fill="#09CAA7"/>
<path fill-rule="evenodd" clip-rule="evenodd" d="M33.74 20.585L32.3719 19.795C32.5098 19.0473 32.5098 18.2837 32.3719 17.5361L33.74 16.746C33.8991 16.6559 33.968 16.4703 33.915 16.2953C33.5597 15.1499 32.9499 14.1106 32.1545 13.2516C32.0326 13.1191 31.8364 13.0873 31.6773 13.1774L30.3092 13.9675C29.7313 13.4743 29.0685 13.0926 28.3526 12.838V11.2579C28.3526 11.0776 28.2254 10.9185 28.0504 10.8814C26.8679 10.6163 25.6642 10.6269 24.5401 10.8814C24.3651 10.9185 24.2379 11.0776 24.2379 11.2579V12.838C23.522 13.0926 22.8592 13.4743 22.2812 13.9675L20.9132 13.1774C20.7594 13.0873 20.5579 13.1191 20.4359 13.2516C19.6406 14.1106 19.0308 15.1499 18.6755 16.2953C18.6225 16.4703 18.6967 16.6559 18.8505 16.746L20.2185 17.5361C20.0807 18.2837 20.0807 19.0473 20.2185 19.795L18.8505 20.585C18.6914 20.6752 18.6225 20.8608 18.6755 21.0357C19.0308 22.1811 19.6406 23.2151 20.4359 24.0794C20.5579 24.212 20.7541 24.2438 20.9132 24.1536L22.2812 23.3636C22.8592 23.8567 23.522 24.2385 24.2379 24.493V26.0731C24.2379 26.2534 24.3651 26.4125 24.5401 26.4496C25.7226 26.7147 26.9262 26.7041 28.0504 26.4496C28.2254 26.4125 28.3526 26.2534 28.3526 26.0731V24.493C29.0685 24.2385 29.7313 23.8567 30.3092 23.3636L31.6773 24.1536C31.8311 24.2438 32.0326 24.212 32.1545 24.0794C32.9499 23.2204 33.5597 22.1811 33.915 21.0357C33.968 20.8608 33.8938 20.6752 33.74 20.585ZM23.7288 18.6655C23.7288 20.0813 24.8795 21.2372 26.3005 21.2372C27.7216 21.2372 28.8723 20.0813 28.8723 18.6655C28.8723 17.2497 27.7163 16.0938 26.3005 16.0938C24.8848 16.0938 23.7288 17.2497 23.7288 18.6655Z" fill="#226DFF"/>
</g>
<defs>
<clipPath id="clip0">
<rect width="33.9362" height="27.1489" fill="white"/>
</clipPath>
</defs>
</svg>
