<svg width="37" height="27" viewBox="0 0 37 27" fill="none" xmlns="http://www.w3.org/2000/svg">
<path d="M36.3033 7.81405C36.2011 7.76968 33.7096 6.69034 18.9586 0.298032C18.6652 0.170838 18.3327 0.170838 18.0393 0.298032L0.694658 7.81405C-0.236028 8.21652 -0.227067 9.53761 0.694658 9.93588C4.06415 11.3958 9.5726 13.7831 18.0393 17.4519C18.331 17.5784 18.6634 17.5799 18.9586 17.4519C19.7626 17.1035 30.7176 12.3563 31.2184 12.1394V24.4527C31.2184 25.0755 31.6972 25.6113 32.3194 25.6402C32.9834 25.6711 33.531 25.1424 33.531 24.4852V11.72C33.531 11.5383 33.3964 11.3849 33.2162 11.3617C31.0459 11.082 20.8104 9.76092 18.3508 9.44373C17.6394 9.35484 17.1961 8.63446 17.3831 7.99328C17.5298 7.45177 18.0439 7.10682 18.5647 7.14267C18.6166 7.14571 35.0949 9.27216 35.0831 9.27064C35.391 9.31025 35.6441 9.5074 35.7656 9.77472C35.8506 9.96161 36.067 10.0473 36.2529 9.96009C36.564 9.81425 36.8339 9.62231 36.9566 9.1879C37.1146 8.62499 36.8291 8.04141 36.3033 7.81405Z" fill="#B9C1CC"/>
<path d="M17.1193 19.5737L7.44087 15.3798C7.20224 15.2764 6.93585 15.4513 6.93585 15.7114V19.8599C6.93585 23.7502 12.0149 26.7978 18.499 26.7978C24.983 26.7978 30.0621 23.7502 30.0621 19.8599V15.7114C30.0621 15.4513 29.7957 15.2765 29.5571 15.3798L19.8779 19.5737C18.9991 19.9558 17.999 19.9555 17.1193 19.5737Z" fill="#B9C1CC"/>
</svg>
