<svg width="63" height="46" viewBox="0 0 63 46" fill="none" xmlns="http://www.w3.org/2000/svg">
<path d="M42.8199 35.7234L40.3236 31.4776C39.1707 29.5179 38.5615 27.2733 38.5615 24.9887V21.2695C38.5615 16.5742 35.4908 12.6029 31.2919 11.3226V8.65968C31.2919 7.02334 29.9878 5.69263 28.3841 5.69263C26.7804 5.69263 25.4763 7.02334 25.4763 8.65968V11.3226C21.2774 12.6029 18.2068 16.5742 18.2068 21.2695V24.9887C18.2068 27.2733 17.5976 29.5164 16.4461 31.4761L13.9498 35.7219C13.8146 35.9519 13.8116 36.2367 13.9411 36.4696C14.0705 36.7025 14.3104 36.8465 14.5721 36.8465H42.1962C42.4579 36.8465 42.6992 36.7026 42.8287 36.4712C42.9581 36.2397 42.9537 35.9518 42.8199 35.7234Z" fill="#B34BF3"/>
<path d="M23.5385 37.5383C24.3444 39.5772 26.0507 40.9999 28.0384 40.9999C30.0262 40.9999 31.7325 39.5772 32.5385 37.5383H23.5385Z" fill="#B34BF3"/>
<g clip-path="url(#clip0)">
<path d="M48.86 18.6062L48.86 18.6062L48.8592 18.6038C48.4974 17.4375 47.8768 16.3797 47.0674 15.5055C46.8298 15.2477 46.4467 15.1863 46.1388 15.3607L46.1388 15.3607L46.1361 15.3623L45.0353 15.998C44.5609 15.6267 44.037 15.3248 43.4786 15.0996V13.8279C43.4786 13.4779 43.2341 13.167 42.8873 13.0922C41.6857 12.8231 40.4622 12.8336 39.3182 13.0923C38.9717 13.1673 38.7274 13.4781 38.7274 13.8279V15.0996C38.1691 15.3248 37.6451 15.6267 37.1708 15.998L36.0708 15.3628C35.7645 15.184 35.375 15.2493 35.139 15.505C34.3295 16.3793 33.7086 17.4373 33.3468 18.6038L33.3468 18.6038L33.3461 18.6062C33.2438 18.9438 33.3866 19.3045 33.687 19.4806L33.6891 19.4818L34.79 20.1176C34.7057 20.7142 34.7057 21.3182 34.79 21.9147L33.6918 22.549C33.6912 22.5493 33.6907 22.5497 33.6901 22.55C33.3746 22.7298 33.2461 23.0963 33.3461 23.4262L33.346 23.4262L33.3468 23.4286C33.7088 24.5958 34.3298 25.648 35.1382 26.5265C35.3758 26.7847 35.7592 26.8462 36.0672 26.6717L36.0672 26.6717L36.0699 26.6701L37.1708 26.0344C37.6451 26.4057 38.1691 26.7076 38.7274 26.9327V28.2045C38.7274 28.5545 38.9719 28.8654 39.3187 28.9402C40.5203 29.2093 41.7438 29.1987 42.8878 28.9401C43.2343 28.8651 43.4786 28.5543 43.4786 28.2045V26.9327C44.037 26.7076 44.5609 26.4057 45.0353 26.0344L46.134 26.6689C46.1344 26.6691 46.1348 26.6693 46.1352 26.6696C46.4414 26.8484 46.831 26.7831 47.067 26.5274C47.8766 25.653 48.4974 24.5951 48.8592 23.4286L48.86 23.4262C48.9623 23.0886 48.8194 22.7279 48.5191 22.5518L48.5169 22.5506L47.416 21.9147C47.5003 21.3182 47.5003 20.7142 47.416 20.1176L48.5142 19.4834C48.5148 19.4831 48.5153 19.4828 48.5158 19.4825C48.8314 19.3027 48.9599 18.9361 48.86 18.6062ZM41.1082 23.1327C39.939 23.1327 38.9917 22.1812 38.9917 21.0162C38.9917 19.8517 39.9437 18.8997 41.1082 18.8997C42.2726 18.8997 43.2246 19.8517 43.2246 21.0162C43.2246 22.1812 42.2773 23.1327 41.1082 23.1327Z" fill="#226DFF" stroke="#DDCEFF" stroke-width="0.758242"/>
</g>
<defs>
<clipPath id="clip0">
<rect width="32.9314" height="26.3451" fill="white" transform="translate(15.5862 10.5195)"/>
</clipPath>
</defs>
</svg>
