<svg width="38" height="38" viewBox="0 0 38 38" fill="none" xmlns="http://www.w3.org/2000/svg">
<path d="M36.642 10.7671C35.9924 10.7671 35.4659 10.2405 35.4659 9.59098L35.4659 3.56328C35.4659 2.99579 35.0042 2.53416 34.4367 2.53416L28.409 2.53416C27.7595 2.53416 27.2329 2.00754 27.2329 1.35802C27.2329 0.7085 27.7595 0.181885 28.409 0.181885L34.4367 0.181885C36.3012 0.181885 37.8181 1.69881 37.8181 3.56328L37.8181 9.59098C37.8181 10.2405 37.2916 10.7671 36.642 10.7671Z" fill="#226DFF"/>
<path d="M1.3579 10.7671C0.708304 10.7671 0.181763 10.2405 0.181763 9.59098L0.181763 3.56328C0.181763 1.69881 1.69868 0.181885 3.56315 0.181885L9.59085 0.181885C10.2404 0.181885 10.767 0.7085 10.767 1.35802C10.767 2.00754 10.2404 2.53416 9.59085 2.53416L3.56315 2.53416C2.99567 2.53416 2.53404 2.99579 2.53404 3.56328L2.53404 9.59098C2.53404 10.2405 2.00749 10.7671 1.3579 10.7671Z" fill="#226DFF"/>
<path d="M9.59085 37.8181L3.56315 37.8181C1.69868 37.8181 0.181763 36.3012 0.181763 34.4367L0.181763 28.409C0.181763 27.7595 0.708304 27.2329 1.3579 27.2329C2.00749 27.2329 2.53404 27.7595 2.53404 28.409L2.53404 34.4367C2.53404 35.0042 2.99567 35.4659 3.56315 35.4659L9.59085 35.4659C10.2404 35.4659 10.767 35.9925 10.767 36.642C10.767 37.2915 10.2404 37.8181 9.59085 37.8181Z" fill="#226DFF"/>
<path d="M34.4367 37.8181L28.409 37.8181C27.7595 37.8181 27.2329 37.2915 27.2329 36.642C27.2329 35.9925 27.7595 35.4659 28.409 35.4659L34.4367 35.4659C35.0042 35.4659 35.4659 35.0042 35.4659 34.4367L35.4659 28.409C35.4659 27.7595 35.9924 27.2329 36.642 27.2329C37.2916 27.2329 37.8181 27.7595 37.8181 28.409L37.8181 34.4367C37.8181 36.3012 36.3012 37.8181 34.4367 37.8181Z" fill="#226DFF"/>
<path d="M14.4424 17.824L8.26768 17.824C6.40321 17.824 4.88629 16.3071 4.88629 14.4426L4.88629 8.26787C4.88629 6.4034 6.40321 4.88647 8.26768 4.88647L14.4424 4.88647C16.3069 4.88647 17.8238 6.4034 17.8238 8.26787L17.8238 14.4426C17.8238 16.3071 16.3069 17.824 14.4424 17.824ZM8.26768 7.23875C7.7002 7.23875 7.23856 7.70038 7.23856 8.26787L7.23856 14.4426C7.23856 15.0101 7.7002 15.4717 8.26768 15.4717L14.4424 15.4717C15.0099 15.4717 15.4715 15.0101 15.4715 14.4426L15.4715 8.26787C15.4715 7.70038 15.0099 7.23875 14.4424 7.23875L8.26768 7.23875Z" fill="#226DFF"/>
<path d="M14.4424 33.1138L8.26768 33.1138C6.40321 33.1138 4.88629 31.5968 4.88629 29.7324L4.88629 23.5577C4.88629 21.6932 6.40321 20.1763 8.26768 20.1763L14.4424 20.1763C16.3069 20.1763 17.8238 21.6932 17.8238 23.5577L17.8238 29.7324C17.8238 31.5968 16.3069 33.1138 14.4424 33.1138ZM8.26768 22.5285C7.7002 22.5285 7.23856 22.9902 7.23856 23.5577L7.23856 29.7324C7.23856 30.2999 7.7002 30.7615 8.26768 30.7615L14.4424 30.7615C15.0099 30.7615 15.4715 30.2999 15.4715 29.7324L15.4715 23.5577C15.4715 22.9902 15.0099 22.5285 14.4424 22.5285L8.26768 22.5285Z" fill="#226DFF"/>
<path d="M29.7322 17.824L23.5575 17.824C21.693 17.824 20.1761 16.3071 20.1761 14.4426L20.1761 8.26787C20.1761 6.4034 21.693 4.88647 23.5575 4.88647L29.7322 4.88647C31.5967 4.88647 33.1136 6.4034 33.1136 8.26787L33.1136 14.4426C33.1136 16.3071 31.5967 17.824 29.7322 17.824ZM23.5575 7.23875C22.99 7.23875 22.5284 7.70038 22.5284 8.26787L22.5284 14.4426C22.5284 15.0101 22.99 15.4717 23.5575 15.4717L29.7322 15.4717C30.2997 15.4717 30.7613 15.0101 30.7613 14.4426L30.7613 8.26787C30.7613 7.70038 30.2997 7.23875 29.7322 7.23875L23.5575 7.23875Z" fill="#226DFF"/>
<path d="M31.2024 26.057L28.409 26.057L28.409 22.0875C28.409 21.0337 27.5517 20.1763 26.4978 20.1763L22.0873 20.1763C21.0334 20.1763 20.1761 21.0337 20.1761 22.0875L20.1761 26.498C20.1761 27.5518 21.0334 28.4092 22.0873 28.4092L26.0568 28.4092L26.0568 31.2025C26.0568 32.2564 26.9141 33.1138 27.968 33.1138L31.2024 33.1138C32.2563 33.1138 33.1136 32.2564 33.1136 31.2025L33.1136 27.9682C33.1136 26.9144 32.2563 26.057 31.2024 26.057ZM22.5284 22.5285L26.0568 22.5285L26.0568 26.057L22.5284 26.057L22.5284 22.5285ZM30.7613 30.7615L28.409 30.7615L28.409 28.4092L30.7613 28.4092L30.7613 30.7615Z" fill="#226DFF"/>
<path d="M11.9432 13.1195L10.767 13.1195C10.1174 13.1195 9.59088 12.5929 9.59088 11.9433L9.59088 10.7672C9.59088 10.1177 10.1174 9.59106 10.767 9.59106L11.9432 9.59106C12.5927 9.59106 13.1193 10.1177 13.1193 10.7672L13.1193 11.9433C13.1193 12.5929 12.5927 13.1195 11.9432 13.1195Z" fill="#00F2C6"/>
<path d="M27.2329 13.1195L26.0568 13.1195C25.4072 13.1195 24.8806 12.5929 24.8806 11.9433L24.8806 10.7672C24.8806 10.1177 25.4072 9.59106 26.0568 9.59106L27.2329 9.59106C27.8825 9.59106 28.409 10.1177 28.409 10.7672L28.409 11.9433C28.409 12.5929 27.8825 13.1195 27.2329 13.1195Z" fill="#00F2C6"/>
<path d="M11.9432 28.4093L10.767 28.4093C10.1174 28.4093 9.59088 27.8827 9.59088 27.2331L9.59088 26.057C9.59088 25.4075 10.1174 24.8809 10.767 24.8809L11.9432 24.8809C12.5927 24.8809 13.1193 25.4075 13.1193 26.057L13.1193 27.2331C13.1193 27.8827 12.5927 28.4093 11.9432 28.4093Z" fill="#00F2C6"/>
</svg>
