<svg width="364" height="46" viewBox="0 0 364 46" fill="none" xmlns="http://www.w3.org/2000/svg">
<path d="M0 23.377C0 10.4663 10.4663 0 23.3771 0H341C353.703 0 364 10.2975 364 23C364 35.7025 353.703 46 341 46H22.6229C10.1286 46 0 35.8714 0 23.377Z" fill="white" fill-opacity="0.92"/>
<mask id="mask0" mask-type="alpha" maskUnits="userSpaceOnUse" x="0" y="0" width="364" height="46">
<path d="M0 23.377C0 10.4663 10.4663 0 23.3771 0H341C353.703 0 364 10.2975 364 23C364 35.7025 353.703 46 341 46H22.6229C10.1286 46 0 35.8714 0 23.377Z" fill="white" fill-opacity="0.92"/>
</mask>
<g mask="url(#mask0)">
<g opacity="0.71" filter="url(#filter0_d)">
<rect y="-13" width="71" height="71" rx="35.5" fill="#5CFFE2"/>
<rect x="0.222222" y="-12.7778" width="70.5556" height="70.5556" rx="35.2778" stroke="#9BAFB6" stroke-opacity="0.14" stroke-width="0.444444"/>
</g>
<path d="M41.3798 13.4678C39.1782 8.97222 34.5725 6 29.4065 6C22.0144 6 16.0006 11.9797 16.0006 19.3297C16.0006 21.3272 16.4294 23.2417 17.2758 25.0268L16.0228 31.2929C15.8633 32.0905 16.5669 32.7956 17.3647 32.6377L23.7081 31.3836C24.5622 31.7887 25.4457 32.0969 26.3536 32.3091C24.3186 22.6705 31.6245 13.6231 41.3798 13.4678Z" fill="#226DFF"/>
<path d="M53.7243 34.7763C53.9432 34.3146 54.1336 33.8442 54.2964 33.3661H54.2546C57.107 24.9937 51.1084 16.1943 42.2527 15.7658C42.2526 15.7653 42.2525 15.7649 42.2524 15.7644C34.6326 15.4133 28.302 21.5142 28.302 29.0792C28.302 36.4231 34.2707 42.3981 41.6121 42.4087C43.6035 42.4061 45.5121 41.9774 47.292 41.1331C54.2392 42.5066 53.6974 42.4089 53.857 42.4089C54.579 42.4089 55.1184 41.7473 54.9774 41.0424L53.7243 34.7763Z" fill="#1CCEAE"/>
</g>
<defs>
<filter id="filter0_d" x="-7.11111" y="-20.1111" width="85.2222" height="85.2222" filterUnits="userSpaceOnUse" color-interpolation-filters="sRGB">
<feFlood flood-opacity="0" result="BackgroundImageFix"/>
<feColorMatrix in="SourceAlpha" type="matrix" values="0 0 0 0 0 0 0 0 0 0 0 0 0 0 0 0 0 0 127 0"/>
<feMorphology radius="1.77778" operator="dilate" in="SourceAlpha" result="effect1_dropShadow"/>
<feOffset/>
<feGaussianBlur stdDeviation="2.66667"/>
<feColorMatrix type="matrix" values="0 0 0 0 0.6875 0 0 0 0 0.6875 0 0 0 0 0.6875 0 0 0 0.33 0"/>
<feBlend mode="normal" in2="BackgroundImageFix" result="effect1_dropShadow"/>
<feBlend mode="normal" in="SourceGraphic" in2="effect1_dropShadow" result="shape"/>
</filter>
</defs>
</svg>
