<svg width="78" height="41" viewBox="0 0 78 41" fill="none" xmlns="http://www.w3.org/2000/svg">
<g opacity="0.71" filter="url(#filter0_d)">
<rect x="-2" y="-13" width="72" height="70" rx="35" fill="#CBB5FF"/>
<rect x="-1.77778" y="-12.7778" width="71.5556" height="69.5556" rx="34.7778" stroke="#9BAFB6" stroke-opacity="0.14" stroke-width="0.444444"/>
</g>
<path d="M29.5781 29.1558H29.0605C28.5764 29.1558 28.1323 28.8528 27.988 28.3907C27.8133 27.8311 28.1058 27.2459 28.6389 27.0415L36.843 23.8861C37.4192 23.6645 37.6959 23.0112 37.4581 22.4414C34.2218 14.6851 33.4119 5.11795 33.4028 5.00543C33.3194 3.97636 31.9784 3.62445 31.4026 4.48659L29.8215 6.85794L27.4508 5.27749C26.8233 4.85866 25.9661 5.18774 25.7829 5.92211L25.0651 8.79112L23.0759 7.46497C22.4484 7.04613 21.5912 7.37521 21.4079 8.10959L20.6902 10.9786L18.7009 9.65244C17.9431 9.1472 16.9322 9.73884 17.0036 10.6471C17.0255 10.9307 17.5662 17.6784 19.6176 24.5471C20.8399 28.6383 22.3506 31.9141 24.1074 34.2847C25.3402 35.9466 27.2297 36.8119 29.1387 36.8119H29.5201C31.6209 36.8119 33.3739 35.1437 33.4058 33.0431C33.4383 30.9052 31.7087 29.1558 29.5781 29.1558ZM22.5468 17.5308C22.3226 16.9702 22.5953 16.3338 23.1565 16.1089L28.6252 13.9214C29.1857 13.6972 29.8222 13.97 30.0471 14.5312C30.2713 15.0917 29.9985 15.7281 29.4373 15.953C23.515 18.3219 23.8645 18.2184 23.5626 18.2184C23.1292 18.2184 22.7183 17.9587 22.5468 17.5308ZM25.0624 22.5155C24.5097 22.7365 23.868 22.4731 23.6405 21.9057C23.4163 21.3452 23.689 20.7087 24.2503 20.4838L29.7189 18.2964C30.2795 18.0722 30.9159 18.3449 31.1408 18.9061C31.365 19.4667 31.0923 20.1031 30.531 20.328L25.0624 22.5155ZM46.531 22.5934C46.2454 22.5934 46.8103 22.4082 38.9029 25.4494C38.8933 25.4334 33.6128 27.4721 33.6217 27.4686C33.2328 27.6182 33.1494 28.128 33.4671 28.3978C36.7952 31.224 36.104 36.5283 32.1667 38.4132C31.8728 38.554 31.9713 38.9989 32.2971 38.9994C33.2054 39.0009 34.077 38.7792 34.839 38.3815L46.6329 33.5253C46.8571 33.5048 47.0622 33.4166 47.2262 33.2812C50.4225 31.9657 50.2724 32.0625 50.4897 31.8354C53.7937 28.3714 51.3184 22.5934 46.531 22.5934Z" fill="#AD3CF2"/>
<path d="M45.117 16.8045C44.6905 17.2308 43.3547 17.2297 42.9295 16.8045C42.5024 16.3774 41.8098 16.3774 41.3827 16.8045C40.9556 17.2317 40.9556 17.9242 41.3827 18.3513C41.8415 18.81 42.4988 19.1218 43.2498 19.2486V20.4061C43.2498 21.0101 43.7395 21.4998 44.3435 21.4998C44.9476 21.4998 45.4373 21.0101 45.4373 20.4061V19.087C48.3078 18.1113 48.2256 14.2678 45.6018 13.1811L43.9224 12.4854C43.0484 12.1234 42.8913 10.5625 44.6639 10.5625C45.1982 10.5625 45.5982 10.7234 45.7577 10.8829C46.1848 11.31 46.8773 11.3101 47.3044 10.8829C47.7316 10.4557 47.7315 9.76326 47.3044 9.33616C46.8457 8.87741 46.1884 8.56562 45.4373 8.43889V7.28124C45.4373 6.67722 44.9477 6.1875 44.3436 6.1875C43.7395 6.1875 43.2499 6.67722 43.2499 7.28124V8.60028C40.4042 9.56748 40.4391 13.4102 43.0853 14.5062L44.7648 15.2019C45.3947 15.4629 45.6253 16.2948 45.117 16.8045Z" fill="#226DFF"/>
<defs>
<filter id="filter0_d" x="-9.11111" y="-20.1111" width="86.2222" height="84.2222" filterUnits="userSpaceOnUse" color-interpolation-filters="sRGB">
<feFlood flood-opacity="0" result="BackgroundImageFix"/>
<feColorMatrix in="SourceAlpha" type="matrix" values="0 0 0 0 0 0 0 0 0 0 0 0 0 0 0 0 0 0 127 0"/>
<feMorphology radius="1.77778" operator="dilate" in="SourceAlpha" result="effect1_dropShadow"/>
<feOffset/>
<feGaussianBlur stdDeviation="2.66667"/>
<feColorMatrix type="matrix" values="0 0 0 0 0.6875 0 0 0 0 0.6875 0 0 0 0 0.6875 0 0 0 0.33 0"/>
<feBlend mode="normal" in2="BackgroundImageFix" result="effect1_dropShadow"/>
<feBlend mode="normal" in="SourceGraphic" in2="effect1_dropShadow" result="shape"/>
</filter>
</defs>
</svg>
