<svg width="36" height="34" viewBox="0 0 36 34" fill="none" xmlns="http://www.w3.org/2000/svg">
<path d="M31.52 24.0474L36 19.5677L31.52 15.0877L32.2418 14.3659C33.4907 13.1171 33.4907 11.0851 32.2421 9.83627C31.637 9.23148 30.8326 8.89832 29.977 8.89832C29.1217 8.89832 28.3172 9.23148 27.7124 9.83627L26.9906 10.5581L22.5107 6.07812L21.1888 7.40033V9.48993C23.5272 10.0472 25.2715 12.1541 25.2715 14.6606C25.2715 17.1674 23.5272 19.2744 21.1888 19.8314V26.3108H17.3106L16.5374 27.084L22.5107 33.057L26.9906 28.577L27.6127 29.1994C28.8616 30.4483 30.8935 30.4483 32.1424 29.1994C33.3913 27.9505 33.3913 25.9186 32.1424 24.6697L31.52 24.0474Z" fill="#B9C1CC"/>
<path d="M19.0769 24.1993V17.8638H19.9567C21.723 17.8638 23.1597 16.427 23.1597 14.6607C23.1597 12.8947 21.723 11.4579 19.9567 11.4579H19.0769V5.12238H12.7414V4.10175C12.7414 2.33542 11.3047 0.898682 9.53833 0.898682C7.77228 0.898682 6.33554 2.33542 6.33554 4.10175V5.12238H0V11.4579H0.880005C2.42963 11.4579 3.72546 12.564 4.0199 14.0282C4.14761 14.2067 4.22369 14.4248 4.22369 14.6607C4.22369 14.8966 4.14761 15.1147 4.0199 15.2935C3.72546 16.7574 2.42963 17.8638 0.880005 17.8638H0V24.1993H6.33554V23.1784C6.33554 21.4124 7.77228 19.9756 9.53833 19.9756C11.3047 19.9756 12.7414 21.4124 12.7414 23.1784V24.1993H19.0769Z" fill="#B9C1CC"/>
</svg>
