<svg width="54" height="22" viewBox="0 0 54 22" fill="none" xmlns="http://www.w3.org/2000/svg">
<g filter="url(#filter0_d)">
<path d="M5.39571 15.0002V4.50024H7.67571L11.0207 11.1602L14.3207 4.50024H16.6007V15.0002H14.6807V7.75524L11.7557 13.5002H10.2407L7.31571 7.75524V15.0002H5.39571ZM21.3523 15.1802C20.6023 15.1802 19.9373 15.0202 19.3573 14.7002C18.7773 14.3802 18.3223 13.9302 17.9923 13.3502C17.6623 12.7702 17.4973 12.1002 17.4973 11.3402C17.4973 10.5702 17.6573 9.88524 17.9773 9.28524C18.3073 8.68524 18.7573 8.22024 19.3273 7.89024C19.9073 7.55024 20.5873 7.38024 21.3673 7.38024C22.0973 7.38024 22.7423 7.54024 23.3023 7.86024C23.8623 8.18024 24.2973 8.62024 24.6073 9.18024C24.9273 9.73024 25.0873 10.3452 25.0873 11.0252C25.0873 11.1352 25.0823 11.2502 25.0723 11.3702C25.0723 11.4902 25.0673 11.6152 25.0573 11.7452H19.4023C19.4423 12.3252 19.6423 12.7802 20.0023 13.1102C20.3723 13.4402 20.8173 13.6052 21.3373 13.6052C21.7273 13.6052 22.0523 13.5202 22.3123 13.3502C22.5823 13.1702 22.7823 12.9402 22.9123 12.6602H24.8623C24.7223 13.1302 24.4873 13.5602 24.1573 13.9502C23.8373 14.3302 23.4373 14.6302 22.9573 14.8502C22.4873 15.0702 21.9523 15.1802 21.3523 15.1802ZM21.3673 8.94024C20.8973 8.94024 20.4823 9.07524 20.1223 9.34524C19.7623 9.60524 19.5323 10.0052 19.4323 10.5452H23.1373C23.1073 10.0552 22.9273 9.66524 22.5973 9.37524C22.2673 9.08524 21.8573 8.94024 21.3673 8.94024ZM28.6366 15.1802C27.7066 15.1802 26.9866 14.8902 26.4766 14.3102C25.9766 13.7302 25.7266 12.8802 25.7266 11.7602V7.56024H27.6316V11.5802C27.6316 12.2202 27.7616 12.7102 28.0216 13.0502C28.2816 13.3902 28.6916 13.5602 29.2516 13.5602C29.7816 13.5602 30.2166 13.3702 30.5566 12.9902C30.9066 12.6102 31.0816 12.0802 31.0816 11.4002V7.56024H33.0016V15.0002H31.3066L31.1566 13.7402C30.9266 14.1802 30.5916 14.5302 30.1516 14.7902C29.7216 15.0502 29.2166 15.1802 28.6366 15.1802ZM36.8807 15.0002V4.50024H38.8007V15.0002H36.8807ZM39.9802 15.0002V4.50024H43.5652C44.7952 4.50024 45.8052 4.72024 46.5952 5.16024C47.3952 5.59024 47.9852 6.20024 48.3652 6.99024C48.7552 7.77024 48.9502 8.69024 48.9502 9.75024C48.9502 10.8102 48.7552 11.7352 48.3652 12.5252C47.9852 13.3052 47.3952 13.9152 46.5952 14.3552C45.8052 14.7852 44.7952 15.0002 43.5652 15.0002H39.9802ZM41.9002 13.3502H43.4752C44.3552 13.3502 45.0502 13.2102 45.5602 12.9302C46.0702 12.6402 46.4352 12.2302 46.6552 11.7002C46.8752 11.1602 46.9852 10.5102 46.9852 9.75024C46.9852 9.00024 46.8752 8.35524 46.6552 7.81524C46.4352 7.27524 46.0702 6.86024 45.5602 6.57024C45.0502 6.28024 44.3552 6.13524 43.4752 6.13524H41.9002V13.3502Z" fill="white"/>
</g>
<defs>
<filter id="filter0_d" x="0.395691" y="0.500244" width="53.5545" height="20.68" filterUnits="userSpaceOnUse" color-interpolation-filters="sRGB">
<feFlood flood-opacity="0" result="BackgroundImageFix"/>
<feColorMatrix in="SourceAlpha" type="matrix" values="0 0 0 0 0 0 0 0 0 0 0 0 0 0 0 0 0 0 127 0"/>
<feOffset dy="1"/>
<feGaussianBlur stdDeviation="2.5"/>
<feColorMatrix type="matrix" values="0 0 0 0 0 0 0 0 0 0 0 0 0 0 0 0 0 0 0.14 0"/>
<feBlend mode="normal" in2="BackgroundImageFix" result="effect1_dropShadow"/>
<feBlend mode="normal" in="SourceGraphic" in2="effect1_dropShadow" result="shape"/>
</filter>
</defs>
</svg>
