<svg width="28" height="28" viewBox="0 0 28 28" fill="none" xmlns="http://www.w3.org/2000/svg">
<path d="M21.875 11.375C18.498 11.375 15.75 14.123 15.75 17.5C15.75 20.1241 17.4176 22.3501 19.7421 23.2203C19.2825 23.9834 18.4539 24.5 17.5 24.5C14.0579 24.5 11.2042 21.9977 10.6234 18.7198L11.8305 16.9089C13.6665 16.181 15.207 14.8122 16.1251 12.9686C17.0377 11.134 17.5 9.42078 17.5 7.875V2.625C17.5 1.65857 16.7164 0.875 15.75 0.875H15.0673C14.5864 0.341903 13.8978 0 13.125 0C11.6775 0 10.5 1.17749 10.5 2.625C10.5 4.07251 11.6775 5.25 13.125 5.25C13.4333 5.25 13.725 5.18687 14 5.08882V7.875C14 8.86023 13.6514 10.083 12.9917 11.4092C12.1962 13.0071 10.588 14 8.79614 14C6.98461 14 5.3628 12.978 4.56384 11.3314C3.86828 9.89929 3.49999 8.60303 3.49999 7.58362V5.08882C3.77504 5.18687 4.06674 5.25 4.37499 5.25C5.8225 5.25 6.99999 4.07251 6.99999 2.625C6.99999 1.17749 5.8225 0 4.37499 0C3.60221 0 2.9136 0.341905 2.43274 0.875H1.75C0.78357 0.875 0 1.65857 0 2.625V7.58362C0 9.15162 0.475953 10.9272 1.41504 12.8601C2.2973 14.6781 3.81957 16.0712 5.62223 16.8382L7.1366 19.1096C7.91505 24.1362 12.2586 28 17.5 28C20.3448 28 22.722 26.0406 23.4072 23.4072C26.0406 22.722 28 20.3448 28 17.5C28 14.123 25.252 11.375 21.875 11.375L21.875 11.375ZM21.875 20.1249C20.4252 20.1249 19.25 18.9496 19.25 17.4999C19.25 16.0502 20.4252 14.875 21.875 14.875C23.3246 14.875 24.4999 16.0502 24.4999 17.4999C24.4999 18.9496 23.3246 20.1249 21.875 20.1249Z" fill="#B9C1CC"/>
</svg>
