<svg width="9" height="15" viewBox="0 0 9 15" fill="none" xmlns="http://www.w3.org/2000/svg">
<path d="M7.87284 5.02504L2.82083 0.43912C2.51084 0.157862 2.09046 -9.37249e-05 1.65218 4.17228e-08C1.21389 9.38083e-05 0.793592 0.158229 0.48375 0.439619C0.173907 0.721009 -0.000103251 1.1026 4.59633e-08 1.50045C0.000103343 1.89831 0.174312 2.27983 0.484301 2.56108L5.53631 7.14601C5.58761 7.19245 5.62831 7.24763 5.65607 7.30837C5.68384 7.36911 5.69813 7.43423 5.69813 7.5C5.69813 7.56577 5.68384 7.63089 5.65607 7.69163C5.62831 7.75237 5.58761 7.80755 5.53631 7.85399L0.484301 12.4389C0.174312 12.7202 0.000103343 13.1017 4.59633e-08 13.4995C-0.000103251 13.8974 0.173907 14.279 0.48375 14.5604C0.793592 14.8418 1.21389 14.9999 1.65218 15C2.09046 15.0001 2.51084 14.8421 2.82083 14.5609L7.87284 9.97496C8.59466 9.31793 9 8.4279 9 7.5C9 6.5721 8.59466 5.68207 7.87284 5.02504Z" fill="#226DFF"/>
</svg>
