<svg width="24" height="35" viewBox="0 0 24 35" fill="none" xmlns="http://www.w3.org/2000/svg">
<path d="M21.8748 18.9581C21.0684 18.9581 20.4166 19.6115 20.4166 20.4163V26.2498C20.4166 27.0533 19.7632 27.708 18.9581 27.708H14.5831V5.8332C14.5831 4.58778 13.7898 3.47509 12.597 3.06093L12.1652 2.91647H18.9581C19.7632 2.91647 20.4166 3.57121 20.4166 4.37496V8.74993C20.4166 9.55475 21.0684 10.2082 21.8748 10.2082C22.6812 10.2082 23.3331 9.55475 23.3331 8.74993V4.37496C23.3331 1.96291 21.3701 0 18.9581 0H3.28122C3.22568 0 3.17922 0.0248335 3.12528 0.0320432C3.05505 0.0261686 2.98803 0 2.91673 0C1.30816 0 0 1.3079 0 2.91647V29.1663C0 30.4117 0.793336 31.5244 1.98614 31.9385L10.7625 34.8641C11.06 34.9559 11.3558 34.9997 11.6667 34.9997C13.2752 34.9997 14.5831 33.6916 14.5831 32.083V30.6248H18.9581C21.3701 30.6248 23.3331 28.6618 23.3331 26.2498V20.4163C23.3331 19.6115 22.6812 18.9581 21.8748 18.9581Z" fill="#2ED2B4"/>
</svg>
