<svg width="26" height="25" viewBox="0 0 26 25" fill="none" xmlns="http://www.w3.org/2000/svg">
<path d="M25.5705 11.5016L14.1051 1.05441C13.6018 0.595779 12.8429 0.595829 12.3399 1.05436L0.874447 11.5017C0.471318 11.869 0.338156 12.435 0.535104 12.9435C0.732102 13.4521 1.21174 13.7806 1.75712 13.7806H3.58834V24.248C3.58834 24.663 3.92484 24.9995 4.33985 24.9995H10.6243C11.0393 24.9995 11.3758 24.663 11.3758 24.248V17.8925H15.0693V24.248C15.0693 24.663 15.4058 24.9995 15.8208 24.9995H22.105C22.52 24.9995 22.8565 24.6631 22.8565 24.248V13.7806H24.688C25.2334 13.7806 25.7131 13.452 25.91 12.9435C26.1067 12.4349 25.9736 11.869 25.5705 11.5016Z" fill="#B9C1CC"/>
</svg>
