<svg width="35" height="35" viewBox="0 0 35 35" fill="none" xmlns="http://www.w3.org/2000/svg">
<path d="M12.5781 25.1558H12.0605C11.5764 25.1558 11.1323 24.8528 10.988 24.3907C10.8133 23.8311 11.1058 23.2459 11.6389 23.0415L19.843 19.8861C20.4192 19.6645 20.6959 19.0112 20.4581 18.4414C17.2218 10.6851 16.4119 1.11795 16.4028 1.00543C16.3194 -0.0236416 14.9784 -0.375551 14.4026 0.486586L12.8215 2.85794L10.4508 1.27749C9.82334 0.858661 8.96613 1.18774 8.78286 1.92211L8.06509 4.79112L6.07586 3.46497C5.4484 3.04613 4.59118 3.37521 4.40792 4.10959L3.69015 6.97859L1.70092 5.65244C0.943098 5.1472 -0.0677873 5.73884 0.00357893 6.64705C0.0254536 6.93074 0.566169 13.6784 2.61761 20.5471C3.83986 24.6383 5.35058 27.9141 7.10739 30.2847C8.34017 31.9466 10.2297 32.8119 12.1387 32.8119H12.5201C14.6209 32.8119 16.3739 31.1437 16.4058 29.0431C16.4383 26.9052 14.7087 25.1558 12.5781 25.1558ZM5.54677 13.5308C5.32255 12.9702 5.5953 12.3338 6.15653 12.1089L11.6252 9.92142C12.1857 9.69721 12.8222 9.96996 13.0471 10.5312C13.2713 11.0917 12.9985 11.7281 12.4373 11.953C6.515 14.3219 6.86451 14.2184 6.56257 14.2184C6.12918 14.2184 5.71835 13.9587 5.54677 13.5308ZM8.06236 18.5155C7.50968 18.7365 6.868 18.4731 6.6405 17.9057C6.41629 17.3452 6.68904 16.7087 7.25026 16.4838L12.7189 14.2964C13.2795 14.0722 13.9159 14.3449 14.1408 14.9061C14.365 15.4667 14.0923 16.1031 13.531 16.328L8.06236 18.5155ZM29.531 18.5934C29.2454 18.5934 29.8103 18.4082 21.9029 21.4494C21.8933 21.4334 16.6128 23.4721 16.6217 23.4686C16.2328 23.6182 16.1494 24.128 16.4671 24.3978C19.7952 27.224 19.104 32.5283 15.1667 34.4132C14.8728 34.554 14.9713 34.9989 15.2971 34.9994C16.2054 35.0009 17.077 34.7792 17.839 34.3815L29.6329 29.5253C29.8571 29.5048 30.0622 29.4166 30.2262 29.2812C33.4225 27.9657 33.2724 28.0625 33.4897 27.8354C36.7937 24.3714 34.3184 18.5934 29.531 18.5934Z" fill="#AD3CF2"/>
</svg>
