<svg width="17" height="12" viewBox="0 0 17 12" fill="none" xmlns="http://www.w3.org/2000/svg">
<path fill-rule="evenodd" clip-rule="evenodd" d="M16 0.318848H15C14.448 0.318848 14 0.801391 14 1.39643V10.7355C14 11.3307 14.448 11.8131 15 11.8131H16C16.552 11.8131 17 11.3307 17 10.7355V1.39643C17 0.801391 16.552 0.318848 16 0.318848ZM10.333 2.83329H11.333C11.886 2.83329 12.333 3.31572 12.333 3.91087V10.7355C12.333 11.3307 11.886 11.8131 11.333 11.8131H10.333C9.78101 11.8131 9.33301 11.3307 9.33301 10.7355V3.91087C9.33301 3.31572 9.78101 2.83329 10.333 2.83329ZM6.66699 5.34762H5.66699C5.11399 5.34762 4.66699 5.83005 4.66699 6.4252V10.7355C4.66699 11.3307 5.11399 11.8131 5.66699 11.8131H6.66699C7.21899 11.8131 7.66699 11.3307 7.66699 10.7355V6.4252C7.66699 5.83005 7.21899 5.34762 6.66699 5.34762ZM2 7.50279H1C0.448 7.50279 0 7.98523 0 8.58038V10.7355C0 11.3307 0.448 11.8131 1 11.8131H2C2.552 11.8131 3 11.3307 3 10.7355V8.58038C3 7.98523 2.552 7.50279 2 7.50279Z" fill="white"/>
</svg>
