<svg width="52" height="38" viewBox="0 0 52 38" fill="none" xmlns="http://www.w3.org/2000/svg">
<path d="M0.968075 36.6335C1.01773 34.5033 0.999261 15.639 0.876917 14.0097C0.754573 12.3804 3.29214 12.075 7.18772 11.8917C11.0833 11.7084 43.9524 10.9825 44.7999 10.9139C46.7023 10.7597 47.0959 13.6028 46.9057 19.7757C46.7618 24.4133 46.5257 32.0526 46.4166 35.5658C46.4011 36.0688 46.1907 36.546 45.8298 36.8967C45.4689 37.2473 44.9858 37.4439 44.4826 37.4449C36.5729 37.4667 6.25767 37.5535 4.2397 37.6128C1.91588 37.6826 0.947924 37.4782 0.968075 36.6335Z" fill="#FFEB84" fill-opacity="0.93"/>
<mask id="mask0" mask-type="alpha" maskUnits="userSpaceOnUse" x="0" y="0" width="52" height="38">
<path d="M0.898371 35.8344C0.953333 32.8899 0.932888 6.81508 0.797475 4.56296C0.662061 2.31083 3.4707 1.88873 7.78244 1.6354C12.0942 1.38206 48.4745 0.378689 49.4126 0.283856C51.5182 0.0706469 51.9539 4.00059 51.7433 12.5329C51.584 18.9431 51.3227 29.5024 51.2019 34.3585C51.1848 35.0537 50.952 35.7134 50.5525 36.1981C50.153 36.6828 49.6183 36.9545 49.0613 36.9558C40.3067 36.986 6.75303 37.106 4.5195 37.1879C1.94743 37.2844 0.876067 37.0019 0.898371 35.8344Z" fill="#FFEB84" fill-opacity="0.93"/>
</mask>
<g mask="url(#mask0)">
<path d="M9.44316 32.3407C8.69949 33.1323 7.60679 33.8184 6.83746 34.2454C7.98654 35.6661 9.54151 37.0884 11.6 38.4807L12.1892 39.8027L14.0769 37.5406C14.0769 37.5406 10.6896 35.8549 9.44316 32.3407Z" fill="#C4421B"/>
<path d="M21.5523 37.0691C21.5523 37.0691 25.3023 51.3205 25.2344 69.2545C25.2338 69.4134 25.1787 69.5672 25.0782 69.6904C24.9778 69.8135 24.8382 69.8984 24.6827 69.931C24.2113 70.0303 23.5182 70.1469 22.9444 70.132C22.7957 70.1271 22.6533 70.0708 22.5414 69.9728C22.4295 69.8747 22.355 69.741 22.3305 69.5942C21.8057 66.5114 18.7881 49.1397 17.0685 46.3195C17.0685 46.3195 15.9375 61.791 16.299 69.8178C16.3035 69.914 16.2714 70.0083 16.209 70.0818C16.1467 70.1552 16.0588 70.2022 15.9631 70.2133C15.4992 70.263 15.0313 70.2617 14.5677 70.2095C14.4548 70.1984 14.3488 70.1499 14.2666 70.0716C14.1844 69.9934 14.1307 69.8899 14.1141 69.7777C13.7393 67.1679 11.5837 51.6343 11.6753 40.4444C11.6806 39.8132 13.3442 37.0696 13.3442 37.0696L21.5523 37.0691Z" fill="url(#paint0_linear)"/>
<path d="M26.7675 19.8215C26.1643 19.0648 25.6328 18.2537 25.1797 17.3986C24.556 16.2217 25.1296 18.1605 24.9595 16.8315C20.2948 13.4654 13.2708 15.1693 10.5538 15.5121C9.66372 15.6249 8.84697 16.0634 8.26117 16.743C5.93303 19.4375 0.824562 26.8139 6.83742 34.2466C7.60675 33.8196 8.70041 33.1345 9.44312 32.3419C8.7779 30.4664 8.72344 28.0699 10.1174 25.131C10.1648 25.3642 10.2243 25.5947 10.2957 25.8217C12.2172 31.9096 12.3199 36.9766 12.3156 38.1434C12.3151 38.2207 12.3379 38.2964 12.3811 38.3606C12.4242 38.4248 12.4856 38.4745 12.5574 38.5033C15.0865 39.5168 19.9549 38.9137 21.589 38.6712C21.7325 38.649 21.8614 38.571 21.9475 38.4541C22.0337 38.3373 22.0701 38.1911 22.0489 38.0475C21.2469 32.2366 25.3632 22.6777 26.4504 20.2833C26.528 20.1118 26.6353 19.9555 26.7675 19.8215Z" fill="url(#paint1_linear)"/>
<path d="M14.9251 10.6168L14.4379 15.5969C14.4379 15.5969 17.2394 16.4409 19.277 15.0029L17.8446 10.4769L14.9251 10.6168Z" fill="#C4421B"/>
<path d="M18.1759 4.94212C18.2434 5.00545 21.0215 10.4613 21.0215 10.4613L17.8727 11.9815L14.4713 7.20165C14.4713 7.20165 17.0473 3.8794 18.1759 4.94212Z" fill="#C4421B"/>
<path d="M15.8646 7.33393C15.8368 7.40547 15.8258 7.48241 15.8323 7.55886C15.8389 7.63532 15.8628 7.70927 15.9022 7.77508L17.4728 10.393C17.4964 10.4326 17.5254 10.4687 17.5589 10.5002C17.7458 10.6742 18.3856 11.1803 18.88 10.4911C19.3015 9.90387 19.6971 9.36988 20.1207 9.14966C20.1798 9.11948 20.2443 9.10132 20.3104 9.09621C20.3766 9.0911 20.4431 9.09915 20.5061 9.1199C20.5691 9.14064 20.6274 9.17367 20.6776 9.21707C20.7277 9.26047 20.7688 9.31339 20.7984 9.37276C21.057 9.88564 21.5581 10.932 21.8731 11.9223C21.9108 12.0424 21.9018 12.1724 21.8478 12.2861C21.7939 12.3999 21.699 12.4891 21.5821 12.536C20.9445 12.7943 19.6844 13.2614 18.5662 13.4159C18.4762 13.4282 18.3845 13.4159 18.3009 13.3803C18.2173 13.3448 18.1448 13.2873 18.0912 13.2139C17.61 12.5549 16.2542 10.713 15.7914 10.252C15.3613 9.82351 14.568 9.98496 14.2103 10.0879C14.1434 10.1072 14.0732 10.1125 14.0041 10.1034C13.935 10.0943 13.8686 10.0711 13.809 10.0351C13.4462 9.81655 12.8132 9.27248 13.3923 8.3513C13.5362 8.12221 13.4628 7.81707 13.2368 7.66833C12.8319 7.40181 12.3922 6.90068 12.811 6.09177C13.2349 5.27182 13.992 5.19842 14.5075 5.26127C14.7357 5.28934 14.9671 5.16963 15.0547 4.95709C15.0936 4.86257 15.1706 4.78197 15.3138 4.75294C15.5841 4.69801 15.7614 4.45092 15.7084 4.18032C15.6175 3.71637 15.6861 3.11377 16.4281 2.70643C17.7866 1.95941 18.9767 3.17662 19.2794 4.20407C19.5822 5.23152 18.0629 5.95767 17.1072 6.07882C16.4043 6.16734 16.0193 6.93355 15.8646 7.33393Z" fill="url(#paint2_linear)"/>
<path d="M16.3813 11.2129C16.3813 11.2129 15.777 9.44513 15.0036 9.50966C14.2302 9.57419 13.6216 10.345 14.5802 11.211C15.7732 12.2888 16.3813 11.2129 16.3813 11.2129Z" fill="#C4421B"/>
<path d="M9.86249 24.6746C8.84319 21.8852 9.21286 18.5164 9.21694 18.4828L9.49761 18.5149C9.49401 18.548 9.13202 21.8518 10.1283 24.5777L9.86249 24.6746Z" fill="url(#paint3_linear)"/>
<path d="M36.2358 21.3879C30.9601 22.1795 27.5216 18.8508 24.9593 16.8314C21.5768 14.1655 18.9438 15.4623 18.9438 15.4623L22.5515 22.3472C27.9392 27.4271 33.4632 26.2989 36.9449 24.6528C36.9994 23.3231 36.6436 22.21 36.2358 21.3879Z" fill="url(#paint4_linear)"/>
<path d="M43.6511 18.2402L41.9016 19.1811C39.8035 20.4587 37.9259 21.1338 36.2361 21.3881C36.6439 22.2107 36.9994 23.3238 36.9459 24.6535C39.1625 23.6051 40.5539 22.3476 40.5539 22.3476C44.5159 19.9842 43.6511 18.2402 43.6511 18.2402Z" fill="#C4421B"/>
<path d="M48.8061 20.7056C48.7504 20.5203 48.6537 20.3498 48.5231 20.2069C48.3925 20.064 48.2315 19.9524 48.0519 19.8802L44.5015 18.4523C44.5015 18.4523 44.4478 17.9965 45.2517 17.6873C46.0555 17.3781 45.8675 16.4778 45.8675 16.4778C45.8675 16.4778 44.7695 16.9787 43.1617 17.7732C42.2422 18.2275 41.7265 19.0297 41.4528 19.6338L42.367 20.8356C44.5553 21.4932 46.7697 21.6189 49.0028 21.3581L48.8061 20.7056Z" fill="#C4421B"/>
</g>
<defs>
<linearGradient id="paint0_linear" x1="19752" y1="43914.7" x2="-25814.5" y2="72816.7" gradientUnits="userSpaceOnUse">
<stop stop-color="#2B3582"/>
<stop offset="1" stop-color="#150E42"/>
</linearGradient>
<linearGradient id="paint1_linear" x1="32396.7" y1="17011.1" x2="16233.2" y2="38557.3" gradientUnits="userSpaceOnUse">
<stop stop-color="#53D8FF"/>
<stop offset="1" stop-color="#3840F7"/>
</linearGradient>
<linearGradient id="paint2_linear" x1="6940.46" y1="10039.2" x2="12765" y2="4799.86" gradientUnits="userSpaceOnUse">
<stop stop-color="#2B3582"/>
<stop offset="1" stop-color="#150E42"/>
</linearGradient>
<linearGradient id="paint3_linear" x1="1075.51" y1="3842.49" x2="7.76162" y2="4077.28" gradientUnits="userSpaceOnUse">
<stop stop-color="#53D8FF"/>
<stop offset="1" stop-color="#3840F7"/>
</linearGradient>
<linearGradient id="paint4_linear" x1="29476.8" y1="9262.5" x2="24039.9" y2="22051.8" gradientUnits="userSpaceOnUse">
<stop stop-color="#53D8FF"/>
<stop offset="1" stop-color="#3840F7"/>
</linearGradient>
</defs>
</svg>
