<svg width="69" height="68" viewBox="0 0 69 68" fill="none" xmlns="http://www.w3.org/2000/svg">
<path opacity="0.3" d="M60.1828 57.7676C58.4232 59.5811 56.8484 60.6474 55.6434 61.4523C43.8871 69.3022 30.4482 67.0396 26.2932 66.2664C19.5897 65.019 13.931 64.1386 9.0691 59.7459C-1.97859 49.765 -1.44123 28.944 7.00052 16.046C8.00135 14.5167 16.4304 2.02247 29.8983 0.261191C30.2277 0.21825 30.4741 0.193781 30.69 0.170992C32.7734 -0.0497076 45.6831 -1.2139 56.2115 7.60593C57.7184 8.86847 60.1437 11.1458 62.3925 14.6189C70.6145 27.3194 70.6404 46.9883 60.1828 57.7676Z" fill="url(#paint0_linear)"/>
<path d="M63.9755 48.5919C63.9747 48.8773 63.8609 49.1509 63.6589 49.3526C63.457 49.5544 63.1833 49.668 62.8979 49.6685H4.62363C4.33815 49.668 4.0645 49.5544 3.86255 49.3526C3.6606 49.1509 3.5468 48.8773 3.54604 48.5919L3.06122 15.1031C3.06122 14.5108 3.75882 13.3548 5.0372 13.4419L61.9894 11.9682C62.3572 11.9585 62.7231 12.0237 63.065 12.1597C63.4068 12.2958 63.7175 12.4999 63.978 12.7596C64.2386 13.0193 64.4437 13.3293 64.5808 13.6707C64.7179 14.0121 64.7842 14.3779 64.7757 14.7457L63.9755 48.5919Z" fill="url(#paint1_linear)"/>
<path d="M62.9116 47.5586C62.9107 47.8287 62.803 48.0875 62.6119 48.2784C62.4208 48.4694 62.1619 48.5769 61.8918 48.5776H6.02895C5.75878 48.5769 5.4999 48.4692 5.30887 48.2782C5.11783 48.0871 5.01017 47.8283 5.00941 47.5581L4.55194 17.1575C4.60592 15.3288 6.20983 14.6705 7.1821 14.7091L61.7671 13.2458C62.0256 13.2389 62.2828 13.2846 62.5231 13.3802C62.7634 13.4759 62.9816 13.6194 63.1647 13.8021C63.3477 13.9848 63.4916 14.2029 63.5877 14.443C63.6837 14.6831 63.7299 14.9402 63.7234 15.1988L62.9116 47.5586Z" fill="url(#paint2_linear)"/>
<path d="M5.61345 33.063C5.588 33.063 5.5636 33.0529 5.5456 33.0349C5.52761 33.0169 5.5175 32.9925 5.5175 32.9671L5.48127 30.5015C5.48108 30.4889 5.48338 30.4763 5.48803 30.4646C5.49267 30.4529 5.49958 30.4422 5.50836 30.4332C5.52609 30.4149 5.55034 30.4044 5.57579 30.4041C5.60124 30.4037 5.6258 30.4134 5.64406 30.4312C5.66233 30.4489 5.6728 30.4731 5.67319 30.4986L5.70941 32.9654C5.70963 32.978 5.70735 32.9906 5.70271 33.0023C5.69806 33.0141 5.69113 33.0248 5.68233 33.0339C5.67352 33.043 5.66301 33.0502 5.6514 33.0552C5.63978 33.0602 5.62729 33.0629 5.61465 33.063H5.61345Z" fill="white"/>
<path d="M5.5244 27.021C5.49895 27.021 5.47455 27.0109 5.45655 26.9929C5.43856 26.9749 5.42845 26.9505 5.42845 26.9251L5.28955 17.4834C5.29243 16.8487 5.48818 16.3416 5.87129 15.9745C6.56697 15.3074 7.65583 15.341 7.70189 15.3427L25.1319 14.8749C25.1446 14.8743 25.1573 14.8762 25.1692 14.8806C25.1811 14.885 25.192 14.8918 25.2012 14.9006C25.2105 14.9093 25.2178 14.9198 25.2229 14.9315C25.228 14.9431 25.2306 14.9557 25.2307 14.9684C25.2311 14.9811 25.229 14.9937 25.2245 15.0055C25.22 15.0173 25.2132 15.0281 25.2045 15.0373C25.1958 15.0465 25.1854 15.0539 25.1738 15.059C25.1622 15.0641 25.1498 15.0669 25.1371 15.0673L7.70045 15.535C7.65079 15.5331 6.64133 15.5022 6.00347 16.1134C5.65946 16.443 5.48362 16.9036 5.48098 17.4825L5.61964 26.9236C5.61983 26.9363 5.61749 26.949 5.61275 26.9608C5.60802 26.9726 5.60098 26.9833 5.59205 26.9924C5.58312 27.0015 5.57248 27.0087 5.56074 27.0136C5.549 27.0185 5.53641 27.021 5.52368 27.021H5.5244Z" fill="white"/>
<path d="M8.96808 41.6335C9.01773 39.5033 8.99926 20.639 8.87692 19.0097C8.75457 17.3804 11.2921 17.075 15.1877 16.8917C19.0833 16.7084 51.9524 15.9825 52.7999 15.9139C54.7023 15.7597 55.0959 18.6028 54.9057 24.7757C54.7618 29.4133 54.5257 37.0526 54.4166 40.5658C54.4011 41.0688 54.1907 41.546 53.8298 41.8967C53.4689 42.2473 52.9858 42.4439 52.4826 42.4449C44.5729 42.4667 14.2577 42.5535 12.2397 42.6128C9.91588 42.6826 8.94792 42.4782 8.96808 41.6335Z" fill="#FFEB84" fill-opacity="0.93"/>
<mask id="mask0" mask-type="alpha" maskUnits="userSpaceOnUse" x="8" y="5" width="52" height="38">
<path d="M8.89837 40.8344C8.95333 37.8899 8.93289 11.8151 8.79747 9.56296C8.66206 7.31083 11.4707 6.88873 15.7824 6.6354C20.0942 6.38206 56.4745 5.37869 57.4126 5.28386C59.5182 5.07065 59.9539 9.00059 59.7433 17.5329C59.584 23.9431 59.3227 34.5024 59.2019 39.3585C59.1848 40.0537 58.952 40.7134 58.5525 41.1981C58.153 41.6828 57.6183 41.9545 57.0613 41.9558C48.3067 41.986 14.753 42.106 12.5195 42.1879C9.94743 42.2844 8.87607 42.0019 8.89837 40.8344Z" fill="#FFEB84" fill-opacity="0.93"/>
</mask>
<g mask="url(#mask0)">
<path d="M17.4432 37.3406C16.6995 38.1322 15.6068 38.8183 14.8375 39.2453C15.9865 40.6659 17.5415 42.0883 19.6 43.4806L20.1892 44.8026L22.0769 42.5404C22.0769 42.5404 18.6896 40.8547 17.4432 37.3406Z" fill="#C4421B"/>
<path d="M29.5523 42.0691C29.5523 42.0691 33.3023 56.3205 33.2344 74.2545C33.2338 74.4134 33.1787 74.5672 33.0782 74.6904C32.9778 74.8135 32.8382 74.8984 32.6827 74.931C32.2113 75.0303 31.5182 75.1469 30.9444 75.132C30.7957 75.1271 30.6533 75.0708 30.5414 74.9728C30.4295 74.8747 30.355 74.741 30.3305 74.5942C29.8057 71.5114 26.7881 54.1397 25.0685 51.3195C25.0685 51.3195 23.9375 66.791 24.299 74.8178C24.3035 74.914 24.2714 75.0083 24.209 75.0818C24.1467 75.1552 24.0588 75.2022 23.9631 75.2133C23.4992 75.263 23.0313 75.2617 22.5677 75.2095C22.4548 75.1984 22.3488 75.1499 22.2666 75.0716C22.1844 74.9934 22.1307 74.8899 22.1141 74.7777C21.7393 72.1679 19.5837 56.6343 19.6753 45.4444C19.6806 44.8132 21.3442 42.0696 21.3442 42.0696L29.5523 42.0691Z" fill="url(#paint3_linear)"/>
<path d="M34.7675 24.8215C34.1643 24.0648 33.6328 23.2537 33.1797 22.3986C32.556 21.2217 33.1296 23.1605 32.9595 21.8315C28.2948 18.4654 21.2708 20.1693 18.5538 20.5121C17.6637 20.6249 16.847 21.0634 16.2612 21.743C13.933 24.4375 8.82456 31.8139 14.8374 39.2466C15.6068 38.8196 16.7004 38.1345 17.4431 37.3419C16.7779 35.4664 16.7234 33.0699 18.1174 30.131C18.1648 30.3642 18.2243 30.5947 18.2957 30.8217C20.2172 36.9096 20.3199 41.9766 20.3156 43.1434C20.3151 43.2207 20.3379 43.2964 20.3811 43.3606C20.4242 43.4248 20.4856 43.4745 20.5574 43.5033C23.0865 44.5168 27.9549 43.9137 29.589 43.6712C29.7325 43.649 29.8614 43.571 29.9475 43.4541C30.0337 43.3373 30.0701 43.1911 30.0489 43.0475C29.2469 37.2366 33.3632 27.6777 34.4504 25.2833C34.528 25.1118 34.6353 24.9555 34.7675 24.8215Z" fill="url(#paint4_linear)"/>
<path d="M22.9251 15.6167L22.4379 20.5968C22.4379 20.5968 25.2394 21.4407 27.277 20.0028L25.8446 15.4768L22.9251 15.6167Z" fill="#C4421B"/>
<path d="M26.1759 9.94212C26.2434 10.0055 29.0215 15.4613 29.0215 15.4613L25.8727 16.9815L22.4713 12.2017C22.4713 12.2017 25.0473 8.8794 26.1759 9.94212Z" fill="#C4421B"/>
<path d="M23.8646 12.3339C23.8368 12.4055 23.8258 12.4824 23.8323 12.5589C23.8389 12.6353 23.8628 12.7093 23.9022 12.7751L25.4728 15.393C25.4964 15.4326 25.5254 15.4687 25.5589 15.5002C25.7458 15.6742 26.3856 16.1803 26.88 15.4911C27.3015 14.9039 27.6971 14.3699 28.1207 14.1497C28.1798 14.1195 28.2443 14.1013 28.3104 14.0962C28.3766 14.0911 28.4431 14.0992 28.5061 14.1199C28.5691 14.1406 28.6274 14.1737 28.6776 14.2171C28.7277 14.2605 28.7688 14.3134 28.7984 14.3728C29.057 14.8856 29.5581 15.932 29.8731 16.9223C29.9108 17.0424 29.9018 17.1724 29.8478 17.2861C29.7939 17.3999 29.699 17.4891 29.5821 17.536C28.9445 17.7943 27.6844 18.2614 26.5662 18.4159C26.4762 18.4282 26.3845 18.4159 26.3009 18.3803C26.2173 18.3448 26.1448 18.2873 26.0912 18.2139C25.61 17.5549 24.2542 15.713 23.7914 15.252C23.3613 14.8235 22.568 14.985 22.2103 15.0879C22.1434 15.1072 22.0732 15.1125 22.0041 15.1034C21.935 15.0943 21.8686 15.0711 21.809 15.0351C21.4462 14.8166 20.8132 14.2725 21.3923 13.3513C21.5362 13.1222 21.4628 12.8171 21.2368 12.6683C20.8319 12.4018 20.3922 11.9007 20.811 11.0918C21.2349 10.2718 21.992 10.1984 22.5075 10.2613C22.7357 10.2893 22.9671 10.1696 23.0547 9.95709C23.0936 9.86257 23.1706 9.78197 23.3138 9.75294C23.5841 9.69801 23.7614 9.45092 23.7084 9.18032C23.6175 8.71637 23.6861 8.11377 24.4281 7.70643C25.7866 6.95941 26.9767 8.17662 27.2794 9.20407C27.5822 10.2315 26.0629 10.9577 25.1072 11.0788C24.4043 11.1673 24.0193 11.9335 23.8646 12.3339Z" fill="url(#paint5_linear)"/>
<path d="M24.3813 16.2128C24.3813 16.2128 23.777 14.445 23.0036 14.5095C22.2302 14.5741 21.6216 15.3448 22.5802 16.2108C23.7732 17.2887 24.3813 16.2128 24.3813 16.2128Z" fill="#C4421B"/>
<path d="M17.8625 29.6745C16.8432 26.885 17.2129 23.5163 17.2169 23.4827L17.4976 23.5148C17.494 23.5479 17.132 26.8517 18.1283 29.5776L17.8625 29.6745Z" fill="url(#paint6_linear)"/>
<path d="M44.2358 26.3879C38.9601 27.1795 35.5216 23.8508 32.9593 21.8314C29.5768 19.1655 26.9438 20.4623 26.9438 20.4623L30.5515 27.3472C35.9392 32.4271 41.4632 31.2989 44.9449 29.6528C44.9994 28.3231 44.6436 27.21 44.2358 26.3879Z" fill="url(#paint7_linear)"/>
<path d="M51.6511 23.2402L49.9016 24.1811C47.8035 25.4587 45.9259 26.1338 44.2361 26.3881C44.6439 27.2107 44.9994 28.3238 44.9459 29.6535C47.1625 28.6051 48.5539 27.3476 48.5539 27.3476C52.5159 24.9842 51.6511 23.2402 51.6511 23.2402Z" fill="#C4421B"/>
<path d="M56.8061 25.7056C56.7504 25.5203 56.6537 25.3498 56.5231 25.2069C56.3925 25.064 56.2315 24.9524 56.0519 24.8802L52.5015 23.4523C52.5015 23.4523 52.4478 22.9965 53.2517 22.6873C54.0555 22.3781 53.8675 21.4778 53.8675 21.4778C53.8675 21.4778 52.7695 21.9787 51.1617 22.7732C50.2422 23.2275 49.7265 24.0297 49.4528 24.6338L50.367 25.8356C52.5553 26.4932 54.7697 26.6189 57.0028 26.3581L56.8061 25.7056Z" fill="#C4421B"/>
</g>
<path d="M67.2318 52.4481H1.47125C1.08136 52.447 0.707766 52.2916 0.432093 52.0159C0.15642 51.7401 0.00107591 51.3665 0 50.9766H0C0.00113948 50.5868 0.156519 50.2133 0.432192 49.9376C0.707865 49.662 1.08142 49.5067 1.47125 49.5056H67.2318C67.6216 49.5067 67.9951 49.662 68.2708 49.9376C68.5465 50.2133 68.7019 50.5868 68.703 50.9766C68.7019 51.3665 68.5466 51.7401 68.2709 52.0159C67.9952 52.2916 67.6217 52.447 67.2318 52.4481Z" fill="url(#paint8_linear)"/>
<path d="M33.281 2.22199C33.4147 2.09187 33.573 1.98961 33.7467 1.92117C33.9203 1.85272 34.1058 1.81946 34.2924 1.8233L60.339 2.3369C61.1006 2.35202 61.7323 2.97333 61.7323 3.73499V7.12488C61.7323 7.89253 61.0927 8.51745 60.3243 8.52344L38.0901 8.69137C37.1667 9.3218 35.0794 10.878 34.2211 11.5221C34.194 11.5421 34.1613 11.5533 34.1276 11.554C34.0938 11.5547 34.0607 11.5449 34.0328 11.5259C34.0052 11.507 33.9842 11.48 33.9728 11.4486C33.9614 11.4172 33.96 11.383 33.969 11.3508L34.7299 8.71656L34.2804 8.71991C33.9056 8.72343 33.5448 8.5782 33.277 8.31607C33.0092 8.05394 32.8563 7.6963 32.8518 7.32159V3.22042C32.8536 3.03386 32.8925 2.84952 32.9662 2.67812C33.0398 2.50672 33.1468 2.35167 33.281 2.22199Z" fill="url(#paint9_linear)"/>
<path d="M60.4909 4.26074C60.4909 4.24445 60.4877 4.2283 60.4815 4.21324C60.4753 4.19818 60.4661 4.1845 60.4546 4.17297C60.4431 4.16145 60.4294 4.15232 60.4144 4.1461C60.3993 4.13987 60.3832 4.13669 60.3669 4.13672H42.0788C42.0625 4.13669 42.0463 4.13987 42.0313 4.14609C42.0162 4.15231 42.0025 4.16144 41.9909 4.17296C41.9794 4.18448 41.9702 4.19816 41.964 4.21323C41.9577 4.22829 41.9545 4.24444 41.9545 4.26074C41.9545 4.2937 41.9676 4.32531 41.9909 4.34861C42.0142 4.37191 42.0458 4.38501 42.0788 4.38501H60.3669C60.3832 4.38501 60.3993 4.38179 60.4144 4.37554C60.4294 4.36929 60.4431 4.36014 60.4546 4.3486C60.4662 4.33705 60.4753 4.32335 60.4815 4.30828C60.4877 4.2932 60.4909 4.27705 60.4909 4.26074Z" fill="white"/>
<path d="M53.126 6.66064C53.126 6.64433 53.1228 6.62818 53.1166 6.6131C53.1104 6.59803 53.1012 6.58433 53.0897 6.57279C53.0782 6.56125 53.0645 6.55209 53.0494 6.54584C53.0344 6.53959 53.0182 6.53638 53.0019 6.53638H34.7139C34.6809 6.53638 34.6493 6.54947 34.626 6.57277C34.6027 6.59608 34.5896 6.62768 34.5896 6.66064C34.5896 6.67695 34.5928 6.69309 34.5991 6.70816C34.6053 6.72322 34.6145 6.7369 34.626 6.74842C34.6376 6.75994 34.6513 6.76907 34.6663 6.77529C34.6814 6.78151 34.6976 6.7847 34.7139 6.78466H53.0019C53.0182 6.7847 53.0344 6.78151 53.0494 6.77529C53.0645 6.76907 53.0782 6.75993 53.0897 6.74841C53.1012 6.73689 53.1104 6.7232 53.1166 6.70814C53.1228 6.69308 53.126 6.67694 53.126 6.66064Z" fill="white"/>
<path d="M40.5478 4.26074C40.5478 4.24445 40.5446 4.2283 40.5384 4.21324C40.5322 4.19818 40.523 4.1845 40.5115 4.17297C40.5 4.16145 40.4863 4.15232 40.4712 4.1461C40.4562 4.13987 40.44 4.13669 40.4237 4.13672H34.5483C34.532 4.13669 34.5159 4.13987 34.5008 4.14609C34.4857 4.15231 34.472 4.16144 34.4605 4.17296C34.4489 4.18448 34.4398 4.19816 34.4335 4.21323C34.4273 4.22829 34.4241 4.24444 34.4241 4.26074C34.4241 4.2937 34.4372 4.32531 34.4605 4.34861C34.4838 4.37191 34.5154 4.38501 34.5483 4.38501H40.4237C40.44 4.38501 40.4562 4.38179 40.4713 4.37554C40.4863 4.36929 40.5 4.36014 40.5115 4.3486C40.523 4.33705 40.5322 4.32335 40.5384 4.30828C40.5446 4.2932 40.5478 4.27705 40.5478 4.26074Z" fill="white"/>
<path d="M45.3475 5.50195C45.3474 5.46904 45.3343 5.43749 45.311 5.41424C45.2877 5.39099 45.2562 5.37793 45.2232 5.37793H39.3478C39.315 5.37799 39.2835 5.39108 39.2602 5.41433C39.237 5.43757 39.2239 5.46908 39.2238 5.50195C39.2238 5.53487 39.2369 5.56644 39.2601 5.58974C39.2834 5.61303 39.3149 5.62615 39.3478 5.62622H45.2232C45.2562 5.62622 45.2878 5.61312 45.3111 5.58982C45.3344 5.56652 45.3475 5.53491 45.3475 5.50195Z" fill="white"/>
<path d="M60.4908 5.50195C60.4908 5.46906 60.4778 5.43751 60.4545 5.41426C60.4312 5.391 60.3997 5.37793 60.3668 5.37793H46.8782C46.8619 5.37793 46.8458 5.38114 46.8308 5.38737C46.8157 5.3936 46.8021 5.40274 46.7905 5.41426C46.779 5.42577 46.7699 5.43944 46.7637 5.45449C46.7574 5.46954 46.7542 5.48567 46.7542 5.50195C46.7542 5.51826 46.7574 5.53441 46.7636 5.54949C46.7698 5.56456 46.7789 5.57826 46.7905 5.58981C46.802 5.60135 46.8157 5.61051 46.8307 5.61675C46.8458 5.623 46.8619 5.62622 46.8782 5.62622H60.3668C60.3831 5.62622 60.3993 5.623 60.4143 5.61675C60.4294 5.61051 60.4431 5.60135 60.4546 5.58981C60.4661 5.57826 60.4752 5.56456 60.4815 5.54949C60.4877 5.53441 60.4909 5.51826 60.4908 5.50195Z" fill="white"/>
<path d="M38.2307 5.50195C38.2307 5.46906 38.2176 5.43751 38.1943 5.41426C38.1711 5.391 38.1395 5.37793 38.1066 5.37793H34.4656C34.4493 5.37793 34.4332 5.38114 34.4181 5.38737C34.4031 5.3936 34.3894 5.40274 34.3779 5.41426C34.3664 5.42577 34.3572 5.43944 34.351 5.45449C34.3448 5.46954 34.3416 5.48567 34.3416 5.50195C34.3415 5.51826 34.3447 5.53441 34.3509 5.54949C34.3571 5.56456 34.3663 5.57826 34.3778 5.58981C34.3893 5.60135 34.403 5.61051 34.4181 5.61675C34.4331 5.623 34.4493 5.62622 34.4656 5.62622H38.1066C38.1229 5.62622 38.1391 5.623 38.1542 5.61675C38.1692 5.61051 38.1829 5.60135 38.1944 5.58981C38.2059 5.57826 38.2151 5.56456 38.2213 5.54949C38.2275 5.53441 38.2307 5.51826 38.2307 5.50195Z" fill="white"/>
<path d="M60.6564 6.82592C60.6565 6.80962 60.6533 6.79346 60.6471 6.77839C60.6408 6.76331 60.6317 6.74961 60.6202 6.73807C60.6087 6.72653 60.595 6.71737 60.5799 6.71112C60.5649 6.70488 60.5487 6.70166 60.5324 6.70166H56.8914C56.8584 6.70166 56.8268 6.71475 56.8035 6.73806C56.7802 6.76136 56.7671 6.79297 56.7671 6.82592C56.7671 6.84223 56.7703 6.85838 56.7765 6.87344C56.7828 6.8885 56.792 6.90219 56.8035 6.91371C56.815 6.92523 56.8287 6.93436 56.8438 6.94058C56.8589 6.94679 56.875 6.94998 56.8914 6.94995H60.5324C60.5487 6.94998 60.5648 6.94679 60.5799 6.94057C60.595 6.93435 60.6087 6.92521 60.6202 6.91369C60.6317 6.90217 60.6408 6.88848 60.6471 6.87342C60.6533 6.85836 60.6565 6.84222 60.6564 6.82592Z" fill="white"/>
<path d="M16.932 58.5905C16.932 58.5905 12.5478 63.4241 8.88631 61.3812C5.94357 59.7396 10.1244 60.1685 13.6707 59.3927C13.949 59.332 13.876 58.9158 13.5937 58.9535C10.8189 59.3213 6.58528 59.6218 5.84977 58.1751C4.7398 55.992 5.81619 56.6995 9.19481 57.0149C12.5734 57.3304 13.225 56.4961 11.018 55.9765C8.81098 55.4568 5.30426 56.6062 4.48695 55.5375C3.66965 54.4687 3.22297 52.3469 2.8972 51.4353C2.57143 50.5237 7.10392 49.1537 8.32904 50.3515C9.55417 51.5493 10.549 54.2224 12.003 54.7105C13.4569 55.1987 11.8929 52.8339 10.9285 51.6133C9.96414 50.3928 9.58223 49.4857 11.5086 49.777C13.4349 50.0682 14.4532 52.4191 14.6574 54.1742C14.8615 55.9292 15.539 56.9106 15.5083 56.0424C15.4775 55.1743 15.1611 52.5122 14.5456 51.711C13.93 50.9097 18.3253 51.8885 16.932 58.5905Z" fill="url(#paint10_linear)"/>
<path opacity="0.53" d="M16.575 58.6365C16.5652 58.6403 16.5546 58.6414 16.5443 58.6395C16.534 58.6377 16.5244 58.6331 16.5165 58.6262C12.7535 55.3339 6.44107 52.9408 6.37869 52.9168C6.37161 52.9141 6.36511 52.9101 6.35958 52.9049C6.35405 52.8998 6.3496 52.8936 6.34647 52.8867C6.34334 52.8798 6.34159 52.8723 6.34134 52.8648C6.34109 52.8572 6.34233 52.8496 6.34499 52.8426C6.34765 52.8355 6.35168 52.829 6.35686 52.8234C6.36203 52.8179 6.36824 52.8135 6.37513 52.8103C6.38203 52.8072 6.38947 52.8055 6.39704 52.8052C6.4046 52.805 6.41215 52.8062 6.41924 52.8089C6.48281 52.8328 12.8135 55.2317 16.5925 58.5389C16.5982 58.5439 16.6029 58.5499 16.6063 58.5567C16.6096 58.5635 16.6116 58.5709 16.6121 58.5784C16.6126 58.586 16.6116 58.5936 16.6091 58.6008C16.6067 58.6079 16.6028 58.6145 16.5978 58.6202C16.5918 58.6276 16.5839 58.6332 16.575 58.6365Z" fill="white"/>
<path d="M19.5786 61.6775C19.5786 61.6775 11.572 61.9414 10.245 56.9685C9.17842 52.9717 12.3718 57.0239 16.0854 59.4873C16.3768 59.6807 16.6812 59.2611 16.407 59.0443C13.7121 56.9126 9.8302 53.4368 10.4774 51.5525C11.4545 48.7078 11.7488 50.2621 14.3581 53.5102C16.9674 56.7583 18.2578 56.6194 16.8319 54.2313C15.406 51.8432 11.3948 49.7322 11.6395 48.098C11.8841 46.4639 13.3719 44.2584 13.898 43.1918C14.4241 42.1252 19.5021 44.9507 19.4928 47.054C19.4834 49.1574 17.9766 52.3182 18.7884 54.0169C19.6002 55.7155 20.3477 52.3165 20.6011 50.4238C20.8544 48.531 21.3265 47.4192 22.7157 49.3661C24.1049 51.3131 22.9018 54.2196 21.5282 55.8978C20.1546 57.5761 19.8689 59.0131 20.608 58.2454C21.3471 57.4778 23.4255 54.9232 23.6052 53.6964C23.7849 52.4696 26.6787 57.1793 19.5786 61.6775Z" fill="url(#paint11_linear)"/>
<path opacity="0.53" d="M19.2332 61.4026C19.2216 61.3971 19.2117 61.3885 19.2045 61.3778C19.1973 61.3672 19.1932 61.3548 19.1924 61.3419C18.8805 55.212 15.5976 47.6036 15.5645 47.5274C15.5576 47.5102 15.5576 47.4911 15.5646 47.474C15.5716 47.4569 15.585 47.4432 15.6019 47.4358C15.6188 47.4284 15.638 47.428 15.6553 47.4346C15.6725 47.4411 15.6866 47.4542 15.6943 47.471C15.7274 47.5473 19.0199 55.1789 19.3337 61.335C19.3342 61.3442 19.3328 61.3535 19.3297 61.3623C19.3266 61.371 19.3218 61.379 19.3156 61.3859C19.3094 61.3928 19.3019 61.3984 19.2935 61.4024C19.2851 61.4064 19.276 61.4087 19.2668 61.4091C19.2552 61.4097 19.2437 61.4075 19.2332 61.4026Z" fill="white"/>
<path d="M67.937 59.802H33.0876V52.8269H67.937C67.1912 52.8269 67.1912 59.802 67.937 59.802Z" fill="url(#paint12_linear)"/>
<path d="M33.0877 58.0567V54.8644C33.0877 53.7393 33.7764 52.827 34.6258 52.827H68.9173C68.9392 52.827 68.9602 52.8182 68.9757 52.8027C68.9912 52.7872 68.9999 52.7662 69 52.7443V51.3325C68.9999 51.3106 68.9911 51.2896 68.9756 51.2741C68.9601 51.2586 68.9392 51.2499 68.9173 51.2498H32.3865C31.555 51.2498 30.2354 52.5567 30.2354 54.169V58.6271C30.2354 60.1471 31.5166 61.3791 32.3003 61.3791H68.9173C68.9392 61.3791 68.9602 61.3703 68.9757 61.3548C68.9912 61.3393 68.9999 61.3183 69 61.2964V59.8849C68.9999 59.8629 68.9912 59.8419 68.9757 59.8264C68.9602 59.8109 68.9392 59.8022 68.9173 59.8021H34.4054C33.6778 59.8021 33.0877 59.0205 33.0877 58.0567Z" fill="url(#paint13_linear)"/>
<path d="M66.7304 54.3411H34.0542C34.0322 54.3411 34.0112 54.3323 33.9957 54.3168C33.9802 54.3013 33.9714 54.2802 33.9714 54.2583C33.9714 54.2363 33.9802 54.2153 33.9957 54.1998C34.0112 54.1843 34.0322 54.1755 34.0542 54.1755H66.7304C66.7524 54.1755 66.7734 54.1843 66.7889 54.1998C66.8045 54.2153 66.8132 54.2363 66.8132 54.2583C66.8132 54.2802 66.8045 54.3013 66.7889 54.3168C66.7734 54.3323 66.7524 54.3411 66.7304 54.3411Z" fill="white"/>
<path d="M66.7304 55.3765H34.0542C34.0322 55.3765 34.0112 55.3677 33.9957 55.3522C33.9802 55.3367 33.9714 55.3156 33.9714 55.2937C33.9714 55.2717 33.9802 55.2507 33.9957 55.2352C34.0112 55.2197 34.0322 55.2109 34.0542 55.2109H66.7304C66.7524 55.2109 66.7734 55.2197 66.7889 55.2352C66.8045 55.2507 66.8132 55.2717 66.8132 55.2937C66.8132 55.3156 66.8045 55.3367 66.7889 55.3522C66.7734 55.3677 66.7524 55.3765 66.7304 55.3765Z" fill="white"/>
<path d="M66.7304 56.4116H34.0542C34.0322 56.4116 34.0112 56.4029 33.9957 56.3874C33.9802 56.3719 33.9714 56.3508 33.9714 56.3289C33.9714 56.3069 33.9802 56.2859 33.9957 56.2703C34.0112 56.2548 34.0322 56.2461 34.0542 56.2461H66.7304C66.7524 56.2461 66.7734 56.2548 66.7889 56.2703C66.8045 56.2859 66.8132 56.3069 66.8132 56.3289C66.8132 56.3508 66.8045 56.3719 66.7889 56.3874C66.7734 56.4029 66.7524 56.4116 66.7304 56.4116Z" fill="white"/>
<path d="M66.7304 57.4468H34.0542C34.0322 57.4468 34.0112 57.4381 33.9957 57.4225C33.9802 57.407 33.9714 57.386 33.9714 57.364C33.9714 57.3421 33.9802 57.321 33.9957 57.3055C34.0112 57.29 34.0322 57.2812 34.0542 57.2812H66.7304C66.7524 57.2812 66.7734 57.29 66.7889 57.3055C66.8045 57.321 66.8132 57.3421 66.8132 57.364C66.8132 57.386 66.8045 57.407 66.7889 57.4225C66.7734 57.4381 66.7524 57.4468 66.7304 57.4468Z" fill="white"/>
<path d="M66.7304 58.4822H34.0542C34.0322 58.4822 34.0112 58.4735 33.9957 58.4579C33.9802 58.4424 33.9714 58.4214 33.9714 58.3994C33.9714 58.3775 33.9802 58.3564 33.9957 58.3409C34.0112 58.3254 34.0322 58.3167 34.0542 58.3167H66.7304C66.7524 58.3167 66.7734 58.3254 66.7889 58.3409C66.8045 58.3564 66.8132 58.3775 66.8132 58.3994C66.8132 58.4214 66.8045 58.4424 66.7889 58.4579C66.7734 58.4735 66.7524 58.4822 66.7304 58.4822Z" fill="white"/>
<path d="M67.7566 44.5024H41.8362C41.2207 44.5024 40.7217 45.0014 40.7217 45.617V50.1828C40.7217 50.7983 41.2207 51.2973 41.8362 51.2973H67.7566C68.3722 51.2973 68.8712 50.7983 68.8712 50.1828V45.617C68.8712 45.0014 68.3722 44.5024 67.7566 44.5024Z" fill="url(#paint14_linear)"/>
<path opacity="0.6" d="M62.3832 50.5166H65.6901V45.2836H62.3832V50.5166Z" fill="white"/>
<path opacity="0.6" d="M60.6559 50.5166H61.8966V45.2836H60.6559V50.5166Z" fill="white"/>
<path d="M50.4914 51.8061C50.502 51.802 56.1826 41.8542 56.9503 40.9179C57.0137 40.8406 57.0956 40.7805 57.1885 40.7431C57.2813 40.7058 57.382 40.6925 57.4814 40.7044L59.0671 40.8935L60.9296 44.9236L57.8266 43.1165C58.1336 45.24 54.1471 48.396 52.78 49.5478C52.7472 49.5754 52.7204 49.6095 52.7013 49.648C52.6822 49.6864 52.6712 49.7283 52.6689 49.7712C52.6667 49.814 52.6733 49.8569 52.6882 49.8971C52.7032 49.9373 52.7263 49.9741 52.756 50.005L53.302 50.5764C52.4058 51.4846 51.3718 52.0681 50.2048 52.3377L50.4914 51.8061Z" fill="url(#paint15_linear)"/>
<path d="M52.9851 50.2673C52.9851 50.2673 53.3337 50.3798 53.4515 50.69C53.5078 50.8385 53.4471 51.0067 53.3181 51.0978C52.7445 51.5088 50.8522 52.8356 49.9793 53.0954C49.9628 53.1002 49.9454 53.1005 49.9288 53.0965C49.9121 53.0925 49.8968 53.0842 49.8843 53.0725C49.8719 53.0607 49.8627 53.0459 49.8577 53.0296C49.8526 53.0132 49.852 52.9958 49.8557 52.9791C49.9004 52.7764 50.0455 52.3712 50.5123 51.7782L50.4703 51.8628C50.4587 51.8861 50.4548 51.9124 50.4593 51.938C50.4637 51.9636 50.4762 51.9871 50.495 52.0051C50.5138 52.023 50.5379 52.0344 50.5637 52.0377C50.5895 52.0409 50.6156 52.0358 50.6383 52.0231C51.2224 51.6947 52.4118 50.9731 52.9851 50.2673Z" fill="url(#paint16_linear)"/>
<path d="M52.7039 54.2477C52.7133 54.2417 53.5656 52.1882 53.5752 52.1822C54.3565 47.4245 56.2632 43.3499 56.8253 42.2779C56.8717 42.1892 56.9398 42.1137 57.0232 42.0584C57.1066 42.003 57.2026 41.9696 57.3024 41.9612L58.8933 41.8252L61.5321 45.3945L58.1276 44.2526C58.8581 46.2704 55.5929 50.1676 54.487 51.5722C54.4605 51.6059 54.4411 51.6447 54.4301 51.6862C54.419 51.7277 54.4167 51.771 54.423 51.8134C54.4294 51.8558 54.4444 51.8965 54.4672 51.9329C54.4899 51.9694 54.5198 52.0007 54.5552 52.0251L55.2055 52.4742C54.5117 53.5451 53.6172 54.3254 52.5288 54.8251L52.7039 54.2477Z" fill="#F58A73"/>
<path d="M54.835 52.2361C54.835 52.2361 55.1989 52.2759 55.3771 52.5559C55.4623 52.6897 55.4368 52.8677 55.3291 52.9833C54.8506 53.502 53.2661 55.1841 52.4636 55.6154C52.4485 55.6232 52.4316 55.6269 52.4146 55.6262C52.3976 55.6256 52.381 55.6205 52.3666 55.6115C52.3521 55.6026 52.3402 55.5901 52.332 55.5751C52.3237 55.5602 52.3195 55.5434 52.3197 55.5264C52.3226 55.3187 52.3826 54.8926 52.7198 54.2176L52.6959 54.309C52.6892 54.334 52.6908 54.3606 52.7004 54.3847C52.7099 54.4088 52.727 54.4292 52.7489 54.4429C52.7709 54.4566 52.7967 54.463 52.8226 54.461C52.8484 54.459 52.873 54.4487 52.8926 54.4318C53.3973 53.9906 54.4161 53.0433 54.835 52.2361Z" fill="url(#paint17_linear)"/>
<path d="M66.3409 41.0735C66.3409 41.0735 67.7802 43.2141 67.898 44.1906C68.0158 45.1672 67.5 45.5048 65.9937 45.63C61.5109 46.0006 59.3008 44.657 59.3008 44.657C58.994 42.7019 58.7759 42.2046 56.2148 41.1414C56.2148 41.1414 59.4534 41.3986 60.1061 41.1455C60.7589 40.8924 66.3409 41.0735 66.3409 41.0735Z" fill="url(#paint18_linear)"/>
<path d="M60.6014 29.0803C60.6014 29.0803 61.6039 27.8943 62.6698 29.3495C62.8617 29.6134 63.6039 29.3956 63.8757 29.9471C64.016 30.2321 64.3193 30.3937 64.6314 30.3362C65.4091 30.1922 66.6803 30.1807 67.3078 31.3994C67.7876 32.3294 67.417 32.8737 66.9382 33.1842C66.5865 33.412 66.4608 33.875 66.6743 34.2361C66.8782 34.5825 66.9166 35.0517 66.39 35.6162C65.2095 36.8811 62.873 34.8132 62.873 34.8132L61.0179 30.4295L60.6014 29.0803Z" fill="url(#paint19_linear)"/>
<path d="M62.4486 40.7901C62.4486 40.7901 60.7725 39.1943 59.9475 38.1374C59.7281 37.8555 59.5791 37.5253 59.513 37.1742C59.447 36.8231 59.4658 36.4613 59.5678 36.1189C59.9444 34.8499 60.6137 33.5356 60.6749 33.3312C60.7684 33.0176 62.6477 33.0306 62.6477 33.0306C62.6477 33.0306 66.3457 35.4295 67.7984 39.4959L66.1672 40.004C66.1672 40.004 65.2016 38.3842 64.2481 37.3544C64.2481 37.3544 65.8987 39.535 65.9568 40.4276L62.4486 40.7901Z" fill="url(#paint20_linear)"/>
<path d="M59.2551 41.42L60.5146 40.0498L61.9688 40.4415C61.9688 40.4415 63.6646 40.7054 64.6349 40.4415L65.6053 40.1788L67.7984 39.4958L68.1428 40.4693C68.1852 40.5896 68.1873 40.7204 68.1487 40.8419C68.1101 40.9634 68.0329 41.069 67.9289 41.1427C67.7391 41.2775 67.5167 41.4258 67.3749 41.4877C67.0871 41.6141 60.7221 41.5277 60.7221 41.5277L59.2551 41.42Z" fill="url(#paint21_linear)"/>
<path d="M61.3561 30.771L62.6191 33.1198C62.5356 33.6324 61.2443 33.6475 61.0449 33.3407C61.0254 33.3089 61.012 33.2738 61.0054 33.2371L60.2497 31.6677C60.2173 31.5149 60.6369 30.9991 60.7748 30.9257L61.2769 30.6585C61.4703 30.5556 60.6635 30.5474 61.3561 30.771Z" fill="url(#paint22_linear)"/>
<path d="M58.7998 30.2197C58.7998 30.2197 58.6573 31.0133 59.281 32.0223C59.9047 33.0312 60.5256 32.9857 60.8403 32.6258C61.155 32.266 61.5338 31.6663 61.3618 30.6604C61.1898 29.6545 59.0152 29.2079 58.7998 30.2197Z" fill="url(#paint23_linear)"/>
<path d="M60.6076 30.7699C60.6076 30.7699 59.5979 29.4435 58.8226 30.5998L58.8355 30.9992C58.8355 30.9992 57.828 30.9512 57.9367 30.0228C58.0453 29.0945 58.8691 28.4588 60.0103 28.7754C61.1514 29.0921 61.8181 29.4545 61.9469 30.2469C62.0757 31.0393 61.429 30.9097 61.429 30.9097C61.429 30.9097 61.1819 30.363 60.8835 30.3256C60.5851 30.2882 60.693 30.7207 60.693 30.7207L60.6076 30.7699Z" fill="url(#paint24_linear)"/>
<path d="M60.8394 30.7345C60.8394 30.7345 60.3164 30.0556 60.7914 29.9148C61.2664 29.774 61.2498 30.5798 61.2186 30.8796L60.8394 30.7345Z" fill="url(#paint25_linear)"/>
<path d="M63.4237 41.9621H63.4105L57.6179 41.9557C57.5505 41.9536 57.4866 41.9254 57.4396 41.877C57.3927 41.8286 57.3665 41.7639 57.3665 41.6965C57.3665 41.629 57.3927 41.5643 57.4396 41.5159C57.4866 41.4675 57.5505 41.4393 57.6179 41.4373L63.4103 41.4435C63.4775 41.4442 63.5418 41.471 63.5896 41.5182C63.6374 41.5654 63.6651 41.6293 63.6667 41.6964C63.6684 41.7636 63.6439 41.8288 63.5984 41.8783C63.553 41.9277 63.4901 41.9576 63.423 41.9617L63.4237 41.9621Z" fill="url(#paint26_linear)"/>
<path d="M52.4108 36.7034H57.2348C57.4092 36.7034 57.58 36.753 57.7272 36.8465C57.8745 36.9399 57.9922 37.0733 58.0665 37.2311L60.2974 41.9599H54.3016C54.1896 41.9599 54.0801 41.9262 53.9874 41.8632C53.8947 41.8002 53.8232 41.7107 53.782 41.6065L52.0526 37.2311C52.0293 37.1727 52.0207 37.1094 52.0275 37.0468C52.0343 36.9842 52.0563 36.9243 52.0916 36.8722C52.127 36.8201 52.1746 36.7775 52.2302 36.7481C52.2858 36.7186 52.3479 36.7033 52.4108 36.7034Z" fill="url(#paint27_linear)"/>
<path d="M55.8093 39.1277C55.9139 39.4525 55.8366 39.768 55.6368 39.8322C55.437 39.8965 55.1904 39.6854 55.085 39.3606C54.9797 39.0358 55.0577 38.7203 55.2575 38.6561C55.4574 38.5918 55.7047 38.8029 55.8093 39.1277Z" fill="url(#paint28_linear)"/>
<defs>
<linearGradient id="paint0_linear" x1="74.4942" y1="78.1242" x2="26.8292" y2="27.384" gradientUnits="userSpaceOnUse">
<stop stop-color="#B37CFF"/>
<stop offset="1" stop-color="#F895E7"/>
</linearGradient>
<linearGradient id="paint1_linear" x1="28.4381" y1="47.094" x2="42.2013" y2="5.80448" gradientUnits="userSpaceOnUse">
<stop stop-color="#2B3582"/>
<stop offset="1" stop-color="#150E42"/>
</linearGradient>
<linearGradient id="paint2_linear" x1="64.835" y1="15.3888" x2="-64.7626" y2="84.3727" gradientUnits="userSpaceOnUse">
<stop stop-color="#FDF53F"/>
<stop offset="1" stop-color="#D93C65"/>
</linearGradient>
<linearGradient id="paint3_linear" x1="19760" y1="43919.7" x2="-25806.5" y2="72821.7" gradientUnits="userSpaceOnUse">
<stop stop-color="#2B3582"/>
<stop offset="1" stop-color="#150E42"/>
</linearGradient>
<linearGradient id="paint4_linear" x1="32404.7" y1="17016.1" x2="16241.2" y2="38562.3" gradientUnits="userSpaceOnUse">
<stop stop-color="#53D8FF"/>
<stop offset="1" stop-color="#3840F7"/>
</linearGradient>
<linearGradient id="paint5_linear" x1="6948.46" y1="10044.2" x2="12773" y2="4804.86" gradientUnits="userSpaceOnUse">
<stop stop-color="#2B3582"/>
<stop offset="1" stop-color="#150E42"/>
</linearGradient>
<linearGradient id="paint6_linear" x1="1083.51" y1="3847.49" x2="15.7616" y2="4082.28" gradientUnits="userSpaceOnUse">
<stop stop-color="#53D8FF"/>
<stop offset="1" stop-color="#3840F7"/>
</linearGradient>
<linearGradient id="paint7_linear" x1="29484.8" y1="9267.5" x2="24047.9" y2="22056.8" gradientUnits="userSpaceOnUse">
<stop stop-color="#53D8FF"/>
<stop offset="1" stop-color="#3840F7"/>
</linearGradient>
<linearGradient id="paint8_linear" x1="91023.2" y1="8025.31" x2="91051.4" y2="4430.76" gradientUnits="userSpaceOnUse">
<stop stop-color="#2B3582"/>
<stop offset="1" stop-color="#150E42"/>
</linearGradient>
<linearGradient id="paint9_linear" x1="118280" y1="-1893.68" x2="155550" y2="46145.5" gradientUnits="userSpaceOnUse">
<stop stop-color="#B37CFF"/>
<stop offset="1" stop-color="#F895E7"/>
</linearGradient>
<linearGradient id="paint10_linear" x1="7.96033" y1="56.8331" x2="26.5264" y2="38.2668" gradientUnits="userSpaceOnUse">
<stop stop-color="#CB236D"/>
<stop offset="1" stop-color="#4C246D"/>
</linearGradient>
<linearGradient id="paint11_linear" x1="15.3899" y1="60.2104" x2="23.8535" y2="32.9086" gradientUnits="userSpaceOnUse">
<stop stop-color="#A737D5"/>
<stop offset="1" stop-color="#EF497A"/>
</linearGradient>
<linearGradient id="paint12_linear" x1="43306.3" y1="21760.1" x2="52380.5" y2="-18366.1" gradientUnits="userSpaceOnUse">
<stop stop-color="#B37CFF"/>
<stop offset="1" stop-color="#F895E7"/>
</linearGradient>
<linearGradient id="paint13_linear" x1="-4551.47" y1="23422.2" x2="111858" y2="33507.7" gradientUnits="userSpaceOnUse">
<stop stop-color="#CB236D"/>
<stop offset="1" stop-color="#4C246D"/>
</linearGradient>
<linearGradient id="paint14_linear" x1="68.2333" y1="37.3772" x2="40.7598" y2="58.8925" gradientUnits="userSpaceOnUse">
<stop stop-color="#CE1567"/>
<stop offset="1" stop-color="#7A1DBC"/>
</linearGradient>
<linearGradient id="paint15_linear" x1="-111768" y1="21130.1" x2="-107611" y2="23317.2" gradientUnits="userSpaceOnUse">
<stop stop-color="#F9B776"/>
<stop offset="1" stop-color="#F47960"/>
</linearGradient>
<linearGradient id="paint16_linear" x1="7304.36" y1="4963.89" x2="8099" y2="7876.17" gradientUnits="userSpaceOnUse">
<stop stop-color="#2B3582"/>
<stop offset="1" stop-color="#150E42"/>
</linearGradient>
<linearGradient id="paint17_linear" x1="6448.52" y1="5871.5" x2="7693.2" y2="9144.09" gradientUnits="userSpaceOnUse">
<stop stop-color="#2B3582"/>
<stop offset="1" stop-color="#150E42"/>
</linearGradient>
<linearGradient id="paint18_linear" x1="30659.7" y1="6299.65" x2="30587.1" y2="9140.1" gradientUnits="userSpaceOnUse">
<stop stop-color="#53D8FF"/>
<stop offset="1" stop-color="#3840F7"/>
</linearGradient>
<linearGradient id="paint19_linear" x1="-26260.2" y1="21080.3" x2="-25038.7" y2="22426" gradientUnits="userSpaceOnUse">
<stop stop-color="#2B3582"/>
<stop offset="1" stop-color="#150E42"/>
</linearGradient>
<linearGradient id="paint20_linear" x1="23478.3" y1="9263.98" x2="21747.4" y2="13740.4" gradientUnits="userSpaceOnUse">
<stop stop-color="#53D8FF"/>
<stop offset="1" stop-color="#3840F7"/>
</linearGradient>
<linearGradient id="paint21_linear" x1="-19699.8" y1="3520.7" x2="-16382.2" y2="3520.7" gradientUnits="userSpaceOnUse">
<stop stop-color="#F9B776"/>
<stop offset="1" stop-color="#F47960"/>
</linearGradient>
<linearGradient id="paint22_linear" x1="-9398.4" y1="4101.44" x2="-9360.18" y2="3708.64" gradientUnits="userSpaceOnUse">
<stop stop-color="#F9B776"/>
<stop offset="1" stop-color="#F47960"/>
</linearGradient>
<linearGradient id="paint23_linear" x1="-3618.14" y1="16903" x2="-4021.23" y2="15922.7" gradientUnits="userSpaceOnUse">
<stop stop-color="#F9B776"/>
<stop offset="1" stop-color="#F47960"/>
</linearGradient>
<linearGradient id="paint24_linear" x1="-10328.3" y1="22909.6" x2="-9803.44" y2="23103.2" gradientUnits="userSpaceOnUse">
<stop stop-color="#2B3582"/>
<stop offset="1" stop-color="#150E42"/>
</linearGradient>
<linearGradient id="paint25_linear" x1="-416.461" y1="4212.03" x2="-499.468" y2="3925.87" gradientUnits="userSpaceOnUse">
<stop stop-color="#F9B776"/>
<stop offset="1" stop-color="#F47960"/>
</linearGradient>
<linearGradient id="paint26_linear" x1="-14315.8" y1="1619.8" x2="-14409" y2="1991.55" gradientUnits="userSpaceOnUse">
<stop stop-color="#2B3582"/>
<stop offset="1" stop-color="#150E42"/>
</linearGradient>
<linearGradient id="paint27_linear" x1="72697.2" y1="8729.62" x2="87022.7" y2="6832.89" gradientUnits="userSpaceOnUse">
<stop stop-color="#2B3582"/>
<stop offset="1" stop-color="#150E42"/>
</linearGradient>
<linearGradient id="paint28_linear" x1="-1946.46" y1="1952.3" x2="-2027.93" y2="2035.96" gradientUnits="userSpaceOnUse">
<stop stop-color="#53D8FF"/>
<stop offset="1" stop-color="#3840F7"/>
</linearGradient>
</defs>
</svg>
