<svg width="91" height="68" viewBox="0 0 91 68" fill="none" xmlns="http://www.w3.org/2000/svg">
<path d="M44.7548 51.4199L33.9963 55.7404L20.6788 22.5798L29.7726 18.9279C30.214 18.7506 30.7078 18.756 31.1453 18.9427C31.5828 19.1295 31.9282 19.4824 32.1055 19.9239L44.7548 51.4199Z" fill="#F4A640"/>
<path d="M40.8855 21.2249L20.2856 24.8757L25.4187 53.8392L46.0186 50.1884L40.8855 21.2249Z" fill="#ADCFD8"/>
<path d="M35.682 25.1119L26.483 26.7422L26.5196 26.9489L35.7186 25.3185L35.682 25.1119Z" fill="#55769F"/>
<path d="M37.5219 24.2459L24.4579 26.5612L24.4945 26.7678L37.5585 24.4525L37.5219 24.2459Z" fill="#55769F"/>
<path d="M39.3915 26.6914L23.542 29.5004L23.5786 29.707L39.4282 26.8981L39.3915 26.6914Z" fill="#55769F"/>
<path d="M39.5677 27.6842L23.7182 30.4932L23.7548 30.6998L39.6044 27.8909L39.5677 27.6842Z" fill="#55769F"/>
<path d="M39.9197 29.671L24.0701 32.48L24.1068 32.6867L39.9563 29.8777L39.9197 29.671Z" fill="#55769F"/>
<path d="M40.0956 30.6642L24.246 33.4731L24.2827 33.6798L40.1322 30.8709L40.0956 30.6642Z" fill="#55769F"/>
<path d="M40.2716 31.6578L24.4221 34.4668L24.4587 34.6735L40.3082 31.8645L40.2716 31.6578Z" fill="#55769F"/>
<path d="M41.0462 36.0265L25.1967 38.8354L25.2333 39.0421L41.0828 36.2332L41.0462 36.0265Z" fill="#55769F"/>
<path d="M41.2284 37.0565L25.3789 39.8655L25.4155 40.0722L41.2651 37.2632L41.2284 37.0565Z" fill="#55769F"/>
<path d="M41.4114 38.0864L25.5619 40.8954L25.5985 41.1021L41.4481 38.2931L41.4114 38.0864Z" fill="#55769F"/>
<path d="M41.5937 39.1166L25.7441 41.9255L25.7808 42.1322L41.6303 39.3232L41.5937 39.1166Z" fill="#55769F"/>
<path d="M41.7763 40.1467L25.9268 42.9557L25.9634 43.1624L41.8129 40.3534L41.7763 40.1467Z" fill="#55769F"/>
<path d="M41.9589 41.1765L26.1093 43.9855L26.1459 44.1921L41.9955 41.3832L41.9589 41.1765Z" fill="#55769F"/>
<path d="M42.1415 42.2067L26.2919 45.0156L26.3286 45.2223L42.1781 42.4133L42.1415 42.2067Z" fill="#55769F"/>
<path d="M37.9165 20.5031L17.6841 25.826L25.1682 54.2728L45.4006 48.9499L37.9165 20.5031Z" fill="#DAEEF7"/>
<path d="M33.0481 24.8022L24.0132 27.1792L24.0666 27.3822L33.1015 25.0052L33.0481 24.8022Z" fill="#55769F"/>
<path d="M34.8108 23.7888L21.9799 27.1646L22.0333 27.3675L34.8642 23.9918L34.8108 23.7888Z" fill="#55769F"/>
<path d="M36.8745 26.0733L21.3077 30.1688L21.3611 30.3718L36.9279 26.2763L36.8745 26.0733Z" fill="#55769F"/>
<path d="M37.1313 27.0486L21.5645 31.144L21.6179 31.347L37.1847 27.2515L37.1313 27.0486Z" fill="#55769F"/>
<path d="M37.6444 28.9994L22.0776 33.0948L22.131 33.2975L37.6978 29.202L37.6444 28.9994Z" fill="#55769F"/>
<path d="M37.9012 29.9753L22.3344 34.0708L22.3878 34.2738L37.9546 30.1783L37.9012 29.9753Z" fill="#55769F"/>
<path d="M38.158 30.9507L22.5912 35.0461L22.6446 35.2491L38.2114 31.1536L38.158 30.9507Z" fill="#55769F"/>
<path d="M39.2364 35.526L23.6228 39.5502L23.6753 39.7538L39.2889 35.7296L39.2364 35.526Z" fill="#55769F"/>
<path d="M39.5531 36.2538L23.9863 40.3492L24.0397 40.5522L39.6065 36.4567L39.5531 36.2538Z" fill="#55769F"/>
<path d="M39.8194 37.265L24.2526 41.3605L24.306 41.5635L39.8728 37.468L39.8194 37.265Z" fill="#55769F"/>
<path d="M40.0853 38.2765L24.5185 42.3719L24.5719 42.5749L40.1387 38.4794L40.0853 38.2765Z" fill="#55769F"/>
<path d="M40.3517 39.2885L24.7849 43.384L24.8383 43.587L40.4051 39.4915L40.3517 39.2885Z" fill="#55769F"/>
<path d="M40.5491 40.6049L24.9354 44.629L24.9879 44.8326L40.6015 40.8085L40.5491 40.6049Z" fill="#55769F"/>
<path d="M40.8838 41.3121L25.317 45.4076L25.3704 45.6106L40.9372 41.5151L40.8838 41.3121Z" fill="#55769F"/>
<path d="M40.6724 53.0593L19.013 61.7578L6.38184 30.3022L24.5808 19.0747C24.8212 18.9265 25.091 18.8325 25.3714 18.7995C25.6518 18.7664 25.9361 18.795 26.2043 18.8834C26.4724 18.9717 26.7181 19.1175 26.924 19.3107C27.1299 19.5039 27.2911 19.7398 27.3963 20.0019L40.6724 53.0593Z" fill="#FEB546"/>
<path d="M12.0234 56.6673L8.93461 56.6113C7.86175 54.6673 7.07465 52.9768 7.07465 52.9768C10.5645 52.1723 13.5097 52.5028 15.9632 53.4459L17.3154 56.7304L17.6048 54.2014C23.686 57.4828 26.1916 64.4298 26.1916 64.4298C26.1916 64.4298 15.4445 63.285 13.1662 62.2256C12.2865 61.8164 11.1778 60.3443 10.1482 58.6911C10.9715 57.9072 12.0234 56.6673 12.0234 56.6673Z" fill="#FF5B7E"/>
<path d="M7.07404 52.9768C7.07404 52.9768 20.872 58.7833 26.191 64.4287C26.191 64.4287 15.4439 63.2839 13.1655 62.2245C12.2859 61.8154 11.1772 60.3433 10.1476 58.69C10.9716 57.9061 12.0235 56.6662 12.0235 56.6662L8.93471 56.6113C7.86113 54.6673 7.07404 52.9768 7.07404 52.9768Z" fill="#E03268"/>
<path d="M7.51434 62.2587C9.37218 61.1274 11.2463 60.5215 13.0606 60.2807C13.5924 60.9416 14.2448 61.7191 14.2448 61.7191L14.3135 60.1694C21.2733 59.8524 27.0418 64.5155 27.0418 64.5155C23.0103 67.0544 19.5711 67.7543 16.7542 67.5281C16.5873 66.9856 16.3511 66.1769 16.3511 66.1769L15.8548 67.422C14.6124 67.2265 13.4078 66.8395 12.2841 66.2747C12.5479 65.6291 12.8255 64.892 12.8255 64.892L11.3254 65.7429C8.81022 64.2059 7.51434 62.2587 7.51434 62.2587Z" fill="#FF5B7E"/>
<path d="M16.7542 67.5281C16.5872 66.9856 16.3511 66.1769 16.3511 66.1769L15.8547 67.4221C14.6124 67.2266 13.4078 66.8395 12.2841 66.2748C12.5479 65.6291 12.8255 64.892 12.8255 64.892L11.3254 65.7429C8.81162 64.206 7.51575 62.257 7.51575 62.257C15.6246 61.3203 27.0415 64.5137 27.0415 64.5137C23.0103 67.0544 19.5711 67.7543 16.7542 67.5281Z" fill="#E03268"/>
<path d="M48.1233 20.4508L50.614 18.6213C50.3658 16.4146 50.0347 14.5795 50.0347 14.5795C46.7207 15.937 44.5062 17.9066 43.0469 20.0934L43.8389 23.5559L42.1428 21.6577C39.071 27.8474 41.0348 34.9664 41.0348 34.9664C41.0348 34.9664 49.1501 27.8283 50.3988 25.6481C50.8814 24.8061 50.9367 22.9642 50.8243 21.0202C49.6979 20.8553 48.1233 20.4508 48.1233 20.4508Z" fill="#02CCC0"/>
<path d="M50.0347 14.5798C50.0347 14.5798 42.1191 27.2858 41.0349 34.9664C41.0349 34.9664 49.1501 27.8283 50.3988 25.6481C50.8814 24.8061 50.9367 22.9642 50.8243 21.0202C49.699 20.855 48.1244 20.4505 48.1244 20.4505L50.6151 18.621C50.3676 16.4157 50.0347 14.5798 50.0347 14.5798Z" fill="#06BFAD"/>
<path d="M55.0321 22.4122C52.8619 22.5608 50.9817 23.1486 49.3593 23.9981C49.3068 24.8448 49.2224 25.8563 49.2224 25.8563L48.2719 24.6306C42.4055 28.3889 40.3881 35.5259 40.3881 35.5259C45.1462 35.2739 48.3584 33.8596 50.5282 32.0514C50.351 31.5121 50.0776 30.7154 50.0776 30.7154L51.2022 31.4447C52.1041 30.5683 52.8645 29.5571 53.4561 28.4474C52.8683 28.0719 52.2152 27.6294 52.2152 27.6294L53.9319 27.4592C55.0987 24.7523 55.0321 22.4122 55.0321 22.4122Z" fill="#02CCC0"/>
<path d="M50.5293 32.0512C50.352 31.5119 50.0786 30.7152 50.0786 30.7152L51.2033 31.4445C52.1051 30.5681 52.8655 29.5569 53.4571 28.4472C52.8693 28.0717 52.2162 27.6292 52.2162 27.6292L53.9329 27.459C55.0987 24.7535 55.032 22.4135 55.032 22.4135C47.8701 26.3291 40.3892 35.5272 40.3892 35.5272C45.1479 35.2737 48.3605 33.8594 50.5293 32.0512Z" fill="#06BFAD"/>
<path d="M74.9428 31.4639H76.4241C76.1657 31.2894 75.8606 31.1971 75.5488 31.199H38.4434C36.5023 31.199 34.9284 32.5942 34.9284 34.3148V36.2939C34.9284 38.0149 36.5023 39.41 38.4434 39.41L75.1339 39.399L74.9428 31.4639Z" fill="#E03268"/>
<path d="M38.0409 36.2938V34.3148C38.0409 32.5941 39.6144 31.199 41.5559 31.199H40.7593C38.8177 31.199 37.2439 32.5941 37.2439 34.3148V36.2938C37.2439 38.0148 38.8177 39.41 40.7593 39.41H41.5453C39.6091 39.4047 38.0409 38.0116 38.0409 36.2938Z" fill="#FEB546"/>
<path d="M46.7296 36.2938V34.3148C46.7296 32.5941 48.3034 31.199 50.2446 31.199H49.4479C47.5068 31.199 45.9329 32.5941 45.9329 34.3148V36.2938C45.9329 38.0148 47.5068 39.41 49.4479 39.41H50.2343C48.2992 39.4047 46.7296 38.0116 46.7296 36.2938Z" fill="#FEB546"/>
<path d="M53.8773 31.2062C52.0209 31.2062 50.5159 32.5401 50.5159 34.1845V36.4209C50.5159 38.0668 52.0209 39.3992 53.8773 39.3992H76.9766V38.8989H76.8812L71.0088 38.4057L69.8218 34.2784C69.8218 34.2784 72.1129 31.9976 72.2621 31.9384C72.4114 31.8792 76.8812 31.7008 76.8812 31.7008H76.9766V31.2045L53.8773 31.2062Z" fill="#FF5B7E"/>
<path d="M75.4782 35.2897C75.4782 32.8763 76.885 31.7067 76.885 31.7067H54.3524C52.647 31.7067 51.2646 32.932 51.2646 34.4434V36.1641C51.2646 37.6759 52.6473 38.9012 54.3524 38.9012H76.8868C76.8868 38.9012 75.4782 38.3268 75.4782 35.2897Z" fill="#DAEEF7"/>
<g style="mix-blend-mode:multiply">
<path d="M51.2628 34.4433V36.1639C51.2629 36.3858 51.2932 36.6067 51.3529 36.8205C52.113 35.1719 53.5695 33.5842 56.3424 33.074C62.8165 31.882 76.885 31.7054 76.885 31.7054H54.3524C52.6452 31.7065 51.2628 32.9318 51.2628 34.4433Z" fill="#DAEEF7"/>
</g>
<path d="M74.3319 47.8755H76.0082C75.7231 47.6597 75.3752 47.5432 75.0176 47.5439H33.0216C30.8234 47.5439 29.0432 49.2901 29.0432 51.444V53.9216C29.0432 56.0755 30.8245 57.8216 33.0216 57.8216L74.5482 57.8078L74.3319 47.8755Z" fill="#07085B"/>
<path d="M50.4899 47.5531C48.3885 47.5531 46.6852 49.223 46.6852 51.283V54.0839C46.6852 56.1438 48.3871 57.8138 50.4899 57.8138H76.6337V57.1876H76.5255L69.8791 56.5707L68.5343 51.4028C68.5343 51.4028 71.1272 48.5476 71.2963 48.4742C71.4654 48.4008 76.5241 48.1771 76.5241 48.1771H76.6322V47.5542L50.4899 47.5531Z" fill="#55769F"/>
<path d="M74.9379 52.6642C74.9379 49.6438 76.5302 48.1792 76.5302 48.1792H51.0253C49.0955 48.1792 47.5309 49.7133 47.5309 51.6052V53.7602C47.5309 55.6524 49.0955 57.1862 51.0253 57.1862H76.5302C76.5302 57.1862 74.9379 56.4678 74.9379 52.6642Z" fill="#DAEEF7"/>
<g style="mix-blend-mode:multiply">
<path d="M47.5309 51.6052V53.7602C47.531 54.0372 47.5652 54.3133 47.6326 54.582C48.4928 52.5185 50.1414 50.5313 53.2799 49.8924C60.6074 48.4004 76.5302 48.1792 76.5302 48.1792H51.0253C49.0955 48.1792 47.5309 49.7133 47.5309 51.6052Z" fill="#DAEEF7"/>
</g>
<path d="M27.6591 39.6521H25.9821C26.2826 39.4766 26.625 39.3857 26.973 39.389H68.9871C71.1853 39.389 72.9669 40.7746 72.9669 42.4835V44.4495C72.9669 46.1584 71.1849 47.544 68.9871 47.544L27.4421 47.533L27.6591 39.6521Z" fill="#02CCC0"/>
<path d="M51.5107 39.3961C53.6124 39.3961 55.3167 40.7211 55.3167 42.3559V44.5771C55.3167 46.2116 53.6124 47.5369 51.5107 47.5369H25.3566V47.0406H25.4648L32.1136 46.5509L33.4574 42.4513C33.4574 42.4513 30.8638 40.1861 30.6947 40.1276C30.5256 40.0691 25.4648 39.8921 25.4648 39.8921H25.3566V39.3979L51.5107 39.3961Z" fill="#06BFAD"/>
<path d="M27.0521 43.4518C27.0521 41.055 25.4595 39.8932 25.4595 39.8932H50.9742C52.9051 39.8932 54.4701 41.11 54.4701 42.6115V44.3215C54.4701 45.8227 52.9051 47.0398 50.9742 47.0398H25.4602C25.4602 47.0398 27.0521 46.4697 27.0521 43.4518Z" fill="#DAEEF7"/>
<g style="mix-blend-mode:multiply">
<path d="M54.4708 42.6115V44.3215C54.4704 44.5427 54.4361 44.7626 54.369 44.9735C53.5082 43.3362 51.8592 41.7591 48.7193 41.2507C41.3894 40.0672 25.4609 39.8917 25.4609 39.8917H50.9757C52.9058 39.8931 54.4708 41.11 54.4708 42.6115Z" fill="#DAEEF7"/>
</g>
<path opacity="0.5" d="M65.2689 44.4494V42.4834C65.2689 40.7745 63.4873 39.3889 61.2891 39.3889H65.2785C67.4767 39.3889 69.2587 40.7745 69.2587 42.4834V44.4494C69.2587 46.1583 67.4767 47.5439 65.2785 47.5439H61.343C63.5157 47.5209 65.2689 46.1445 65.2689 44.4494Z" fill="#55769F"/>
<path d="M24.4873 58.1364H22.6791C23.001 57.9412 23.3709 57.8394 23.7473 57.8425H69.0382C71.4076 57.8425 73.3282 59.3908 73.3282 61.3004V63.4965C73.3282 65.4061 71.4072 66.9544 69.0382 66.9544L24.2543 66.942L24.4873 58.1364Z" fill="#FEB546"/>
<path d="M50.1995 57.8507C52.4658 57.8507 54.3027 59.3313 54.3027 61.1576V63.6394C54.3027 65.4657 52.4658 66.9463 50.1995 66.9463H22.0051V66.3911H22.1217L29.2893 65.844L30.7394 61.2636C30.7394 61.2636 27.9434 58.7325 27.7612 58.6672C27.5789 58.602 22.1238 58.4042 22.1238 58.4042H22.0072V57.8518L50.1995 57.8507Z" fill="#F4A640"/>
<path d="M23.8339 62.3823C23.8339 59.7044 22.1168 58.406 22.1168 58.406H49.6224C51.7036 58.406 53.3909 59.7661 53.3909 61.4434V63.3537C53.3909 65.0315 51.7036 66.3912 49.6224 66.3912H22.1168C22.1168 66.3912 23.8339 65.7544 23.8339 62.3823Z" fill="#DAEEF7"/>
<path d="M25.3971 64.3649L25.7821 65.2236C25.797 65.2577 25.798 65.2962 25.7847 65.331C25.7714 65.3657 25.745 65.3939 25.7112 65.4094L23.7009 66.3106C23.6695 66.3249 23.6342 66.3286 23.6004 66.3211C23.5667 66.3136 23.5363 66.2953 23.5139 66.269C23.4914 66.2427 23.4782 66.2098 23.4761 66.1753C23.474 66.1407 23.4833 66.1065 23.5024 66.0777L24.2803 64.8655C24.2803 64.8655 24.8954 64.9782 25.3971 64.3649Z" fill="#07085B"/>
<path d="M27.9516 64.3649L28.3366 65.2236C28.3515 65.2577 28.3525 65.2962 28.3392 65.331C28.3259 65.3657 28.2995 65.3939 28.2657 65.4094L26.2551 66.3106C26.2236 66.3247 26.1885 66.3281 26.1549 66.3205C26.1213 66.3129 26.091 66.2946 26.0687 66.2684C26.0464 66.2422 26.0331 66.2094 26.0309 66.1751C26.0287 66.1407 26.0377 66.1065 26.0565 66.0777L26.8365 64.8655C26.8365 64.8655 27.4499 64.9782 27.9516 64.3649Z" fill="#07085B"/>
<path d="M71.0776 38.6167L70.6929 39.4751C70.6779 39.5092 70.6769 39.5478 70.6902 39.5827C70.7035 39.6175 70.7299 39.6457 70.7638 39.6612L72.7745 40.5625C72.8059 40.5765 72.8411 40.5799 72.8747 40.5723C72.9083 40.5647 72.9385 40.5464 72.9608 40.5202C72.9832 40.494 72.9965 40.4613 72.9986 40.4269C73.0008 40.3925 72.9919 40.3584 72.973 40.3295L72.1948 39.1173C72.1948 39.1173 71.5793 39.2297 71.0776 38.6167Z" fill="#07085B"/>
<path d="M68.472 38.5143L68.0873 39.373C68.0723 39.4071 68.0713 39.4458 68.0846 39.4806C68.0979 39.5154 68.1243 39.5437 68.1582 39.5591L70.1685 40.4604C70.2 40.4745 70.2353 40.478 70.269 40.4704C70.3026 40.4628 70.3329 40.4445 70.3553 40.4182C70.3777 40.3919 70.3909 40.3591 70.3931 40.3246C70.3952 40.2902 70.3861 40.2559 70.3671 40.2271L69.5892 39.0149C69.5892 39.0149 68.9741 39.1277 68.472 38.5143Z" fill="#07085B"/>
<g style="mix-blend-mode:multiply">
<path d="M53.3909 61.4434V63.3537C53.3908 63.6007 53.3537 63.8463 53.281 64.0823C52.3535 62.2532 50.5754 60.4911 47.1909 59.9245C39.2887 58.6021 22.1168 58.406 22.1168 58.406H49.6224C51.7036 58.406 53.3909 59.7661 53.3909 61.4434Z" fill="#DAEEF7"/>
</g>
<path d="M32.2944 40.6923L32.5072 42.0332L32.9589 40.2452C32.9589 40.2452 32.3256 39.9382 32.2976 40.0498C32.2696 40.1615 32.2944 40.6923 32.2944 40.6923Z" fill="#07085B"/>
<path d="M35.8878 43.5784L36.0832 45.8961L34.0378 45.7986L34.2736 43.7457L35.8878 43.5784Z" fill="#FFC0BB"/>
<path d="M34.1615 44.7221L34.2735 43.7457L35.8878 43.5784L35.9555 44.3811C35.6343 44.7009 35.0574 45.0324 34.1615 44.7221Z" fill="#F99893"/>
<path d="M32.9071 42.0161C33.0301 42.2707 32.9649 42.5564 32.7614 42.6543C32.5579 42.7521 32.293 42.6263 32.17 42.3706C32.047 42.115 32.1125 41.8303 32.3161 41.7324C32.5196 41.6346 32.7841 41.7619 32.9071 42.0161Z" fill="#F99893"/>
<path d="M32.6104 42.2027C32.5994 42.1364 32.5852 42.0708 32.5692 42.0056C32.498 41.711 32.4888 41.4049 32.5422 41.1065C32.5956 40.8082 32.7105 40.5243 32.8796 40.2727C33.0486 40.0212 33.2681 39.8075 33.5241 39.6453C33.7801 39.4832 34.0671 39.376 34.3667 39.3306C34.6664 39.2853 34.9722 39.3028 35.2647 39.3819C35.5573 39.4611 35.8302 39.6002 36.0661 39.7905C36.3019 39.9807 36.4957 40.218 36.635 40.4871C36.7743 40.7563 36.8561 41.0515 36.8752 41.3539C36.936 41.3114 37.0059 41.2838 37.0794 41.2734C37.1528 41.2629 37.2276 41.2698 37.2979 41.2937C37.5638 41.3929 37.6794 41.7432 37.5553 42.0758C37.4312 42.4084 37.1149 42.598 36.8486 42.4988C36.8124 42.485 36.7783 42.4662 36.7472 42.4431C36.7061 43.5181 35.8832 44.3977 34.8327 44.447C34.3352 44.4696 33.8478 44.302 33.4694 43.9783C32.9653 43.6096 32.71 42.8207 32.6104 42.2027Z" fill="#FFC0BB"/>
<path d="M34.2037 41.5018C34.1995 41.627 34.1984 41.75 34.192 41.8691C34.1856 41.9883 34.1715 42.1113 34.1243 42.1939C34.0768 42.2606 34.0389 42.3031 34.0378 42.3854C34.0375 42.424 34.0459 42.4623 34.0624 42.4973C34.0789 42.5323 34.1031 42.5631 34.1332 42.5875C34.1856 42.6285 34.247 42.6566 34.3124 42.6693C34.3778 42.6821 34.4453 42.6792 34.5093 42.6609C34.387 42.6392 34.27 42.5974 34.2019 42.519C34.1862 42.5024 34.174 42.4826 34.1662 42.461C34.1584 42.4394 34.1551 42.4164 34.1566 42.3935C34.1619 42.3474 34.1761 42.3382 34.2314 42.2613C34.2653 42.1997 34.2855 42.1314 34.2906 42.0613C34.2966 41.9973 34.2966 41.9328 34.2906 41.8688C34.2794 41.7429 34.2502 41.6193 34.2037 41.5018Z" fill="#F99893"/>
<path d="M34.9288 41.6674C34.9306 41.705 34.9435 41.7413 34.966 41.7717C34.9884 41.802 35.0193 41.825 35.0548 41.8378C35.0903 41.8505 35.1288 41.8525 35.1654 41.8434C35.202 41.8343 35.2351 41.8145 35.2605 41.7866C35.2858 41.7587 35.3024 41.7239 35.308 41.6866C35.3136 41.6493 35.308 41.6112 35.2919 41.577C35.2758 41.5429 35.25 41.5143 35.2177 41.4948C35.1854 41.4754 35.148 41.466 35.1103 41.4677C35.0853 41.4689 35.0608 41.475 35.0381 41.4857C35.0154 41.4964 34.9951 41.5114 34.9782 41.5299C34.9614 41.5485 34.9483 41.5702 34.9398 41.5937C34.9314 41.6173 34.9276 41.6423 34.9288 41.6674Z" fill="#333333"/>
<path d="M33.2972 41.8512C33.2989 41.8889 33.3119 41.9252 33.3343 41.9555C33.3567 41.9858 33.3876 42.0088 33.4231 42.0216C33.4586 42.0344 33.4971 42.0363 33.5337 42.0272C33.5703 42.0181 33.6034 41.9984 33.6288 41.9704C33.6542 41.9425 33.6707 41.9077 33.6763 41.8704C33.6819 41.8331 33.6763 41.795 33.6603 41.7609C33.6442 41.7267 33.6184 41.6981 33.586 41.6787C33.5537 41.6592 33.5164 41.6498 33.4787 41.6516C33.4537 41.6528 33.4291 41.6589 33.4064 41.6695C33.3838 41.6802 33.3634 41.6952 33.3466 41.7138C33.3297 41.7323 33.3167 41.754 33.3082 41.7776C33.2997 41.8011 33.296 41.8262 33.2972 41.8512Z" fill="#333333"/>
<path d="M35.2486 42.959C35.1492 43.0452 35.0392 43.1184 34.9214 43.177C34.8049 43.2349 34.6797 43.2732 34.5509 43.2905C34.4221 43.3059 34.2916 43.2963 34.1665 43.2621C34.0404 43.225 33.9201 43.1703 33.8091 43.0997C33.9108 43.1875 34.0282 43.2551 34.1552 43.299C34.2843 43.3426 34.4216 43.3567 34.5569 43.3401C34.6915 43.3223 34.8213 43.2783 34.9391 43.2107C35.0563 43.1457 35.161 43.0604 35.2486 42.959Z" fill="#F99893"/>
<path d="M34.6891 41.2365C34.7803 41.2072 34.8736 41.1848 34.9681 41.1695C35.0558 41.1555 35.1451 41.1534 35.2333 41.1634C35.321 41.1735 35.4068 41.1963 35.4879 41.2312C35.5517 41.251 35.7056 41.3414 35.7456 41.3592C35.6997 41.2664 35.6309 41.1868 35.5457 41.128C35.4587 41.065 35.3568 41.0258 35.25 41.0142C35.1437 41.0018 35.0359 41.0162 34.9366 41.056C34.8395 41.0931 34.7541 41.1554 34.6891 41.2365Z" fill="#07085B"/>
<path d="M33.8488 41.3308C33.7692 41.2642 33.6734 41.2198 33.5712 41.2021C33.4659 41.1823 33.3573 41.1891 33.2553 41.222C33.1551 41.2545 33.0645 41.3112 32.9915 41.387C32.9184 41.4628 32.8651 41.5554 32.8362 41.6567C32.8716 41.6311 33.0057 41.5127 33.0642 41.4794C33.1369 41.4292 33.2167 41.3901 33.301 41.3634C33.3855 41.3364 33.4733 41.321 33.5619 41.3177C33.6577 41.3152 33.7536 41.3196 33.8488 41.3308Z" fill="#07085B"/>
<path d="M34.7614 54.4516C34.7614 54.4516 35.1868 57.3454 32.3919 57.8496C29.597 58.3537 26.1164 58.2041 26.1164 58.2041L25.6339 64.8505L24.1742 64.9249C24.1742 64.9249 20.416 55.6893 25.6183 54.2456L30.2934 54.2683L32.2182 54.1311C32.2182 54.1311 34.1661 53.6496 34.1891 53.7411C34.2122 53.8325 34.7153 54.4977 34.7614 54.4516Z" fill="#06BFAD"/>
<path d="M37.3308 54.4672C37.3308 54.4672 37.7563 57.3607 34.9614 57.8648C32.1665 58.369 28.6859 58.2194 28.6859 58.2194L28.2016 64.8665L26.7419 64.9409C26.7419 64.9409 22.9837 55.7053 28.186 54.2616L32.861 54.2843L34.7859 54.147C34.7859 54.147 36.7338 53.6656 36.7568 53.757C36.7799 53.8485 37.2848 54.5129 37.3308 54.4672Z" fill="#02CCC0"/>
<path d="M33.8091 44.9717C33.8091 44.9717 31.8843 45.2164 31.3954 45.6135C30.9064 46.0106 28.5536 51.8468 28.5536 51.8468L30.509 54.1397L34.6647 54.1702C34.6647 54.1702 37.7815 55.8507 39.7372 54.262C41.6929 52.6733 40.6842 47.1423 39.5539 45.9506C38.4236 44.759 36.4066 44.7895 36.4066 44.7895C36.4066 44.7895 34.5732 46.0719 33.8091 44.9717Z" fill="#FF5B7E"/>
<path d="M37.5372 47.8748C37.4703 48.1931 37.4229 48.5153 37.3954 48.8395C37.3787 49.0015 37.3716 49.1639 37.3624 49.3266C37.3532 49.4894 37.3536 49.6521 37.3557 49.8152C37.3577 50.1419 37.3846 50.468 37.4362 50.7906C37.4908 51.1118 37.5702 51.4344 37.7198 51.7248C37.6191 51.4149 37.5695 51.0965 37.5333 50.7774C37.4971 50.4584 37.4854 50.1357 37.4815 49.8134C37.4776 49.4911 37.4815 49.1685 37.4929 48.8455C37.5042 48.5225 37.5198 48.1992 37.5372 47.8748Z" fill="white"/>
<path d="M31.7772 47.6606C31.6892 48.134 31.596 48.6055 31.5013 49.0767C31.4067 49.5479 31.3049 50.0163 31.1907 50.4821C31.0766 50.948 30.9532 51.4111 30.8007 51.8649C30.7262 52.092 30.6396 52.315 30.5412 52.5329C30.4474 52.7538 30.3232 52.9605 30.1721 53.1469C30.3494 52.9817 30.4792 52.7725 30.5976 52.5616C30.7109 52.3475 30.81 52.1263 30.8943 51.8993C30.9808 51.6734 31.0549 51.4433 31.1251 51.2125C31.1953 50.9817 31.2549 50.7473 31.3131 50.5133C31.3712 50.2793 31.4212 50.0432 31.4687 49.8067C31.5162 49.5702 31.5595 49.3334 31.5974 49.0955C31.6761 48.619 31.7375 48.1407 31.7772 47.6606Z" fill="white"/>
<path d="M30.8103 52.8178C30.8223 52.721 31.5548 52.6129 31.8268 52.599C32.0314 52.5884 33.3868 52.543 33.8477 52.5225L33.814 52.6409L33.8211 53.1645L33.8966 53.5117C33.4921 53.5372 32.5029 53.5758 32.2973 53.618C32.0221 53.6726 31.5449 53.88 31.5449 53.88C31.5449 53.88 31.3464 53.8346 31.5985 53.7262C31.7521 53.6584 31.8899 53.5595 32.0034 53.4358C32.0388 53.3971 32.0005 53.3294 31.9753 53.3347C31.2886 53.5148 31.218 53.5446 31.218 53.5446C31.218 53.5446 30.4107 53.54 31.2134 53.3588C31.6945 53.25 31.8668 53.1869 31.9097 53.1326C31.9278 53.1099 31.8952 53.0316 31.8658 53.0298C31.4492 53.0039 30.7011 53.1518 30.906 53.055C31.073 52.9759 31.5995 52.8894 31.8041 52.8568C31.8165 52.8547 31.8367 52.7784 31.781 52.7738C31.384 52.7394 30.7986 52.9075 30.8103 52.8178Z" fill="#FFC0BB"/>
<path d="M38.0076 51.6444C37.8385 51.6855 37.6718 51.733 37.502 51.7685C37.3322 51.804 37.1627 51.8394 36.9932 51.8749C36.6529 51.937 36.3112 51.9919 35.9682 52.0394C35.625 52.0844 35.2815 52.1259 34.9372 52.1589C34.5929 52.1918 34.2451 52.2223 33.9055 52.2411L33.8597 52.2436L33.8494 52.2833C33.7941 52.5088 33.7663 52.7401 33.7665 52.9722C33.7675 53.0883 33.7776 53.2041 33.7966 53.3186C33.8179 53.4334 33.8517 53.5455 33.8973 53.6529L33.9012 53.6621L33.9087 53.6671L34.2859 53.9203C34.4118 54.0046 34.538 54.0887 34.6653 54.1706C34.5471 54.076 34.4278 53.9825 34.3075 53.8901L33.948 53.6125L33.9594 53.6267C33.9213 53.5228 33.8948 53.4151 33.8803 53.3055C33.8665 53.1953 33.8611 53.0842 33.864 52.9733C33.868 52.8618 33.8781 52.7507 33.8941 52.6403C33.9098 52.5306 33.9322 52.4219 33.9611 52.3149L33.9055 52.3571C34.0849 52.3524 34.2547 52.3407 34.4295 52.328C34.6043 52.3152 34.7766 52.3014 34.9496 52.2833C35.2957 52.2479 35.641 52.2042 35.9845 52.1493C36.3281 52.0943 36.6702 52.027 37.0088 51.9468C37.1776 51.9039 37.3464 51.8621 37.5126 51.81C37.6789 51.7579 37.8431 51.7029 38.0076 51.6444Z" fill="white"/>
<path d="M22.1168 48.9277H29.6333L31.7645 54.13H35.3858C35.4344 54.13 35.4811 54.1493 35.5154 54.1837C35.5498 54.2181 35.5691 54.2647 35.5691 54.3133C35.569 54.3619 35.5497 54.4085 35.5153 54.4428C35.481 54.4772 35.4344 54.4965 35.3858 54.4966H24.6146L22.1168 48.9277Z" fill="#07085B"/>
<path d="M25.8438 51.8974C25.8885 52.119 26.0814 52.2672 26.2757 52.2286C26.47 52.1899 26.5909 51.9804 26.5465 51.7567C26.5022 51.5329 26.309 51.3869 26.1151 51.4255C25.9211 51.4641 25.7995 51.6755 25.8438 51.8974Z" fill="#DAEEF7"/>
<path d="M32.2534 39.4237C32.2534 39.4237 31.6116 39.4443 32.2853 38.9015C32.9589 38.3587 34.7671 37.7226 35.9258 38.3342C35.9258 38.3342 36.1577 37.8414 36.4931 37.9591C36.8285 38.0768 36.275 38.4157 36.275 38.4157C36.275 38.4157 36.703 38.4019 36.8334 38.6118C36.9299 38.7671 36.6679 38.7738 36.5246 38.7667C36.7682 38.8082 37.7021 39.3978 37.2337 41.2805C37.0671 41.245 36.118 39.8676 36.118 39.8676C36.118 39.8676 33.9474 41.0731 34.1623 40.1158C34.1623 40.1158 31.9134 41.5191 32.2325 40.3597C32.2317 40.359 31.362 40.4228 32.2534 39.4237Z" fill="#07085B"/>
<path d="M37.2348 41.2923C37.2348 41.2923 37.055 41.2291 36.8618 41.3827C36.6686 41.5362 36.6898 42.0751 36.6898 42.0751C36.6898 42.0751 35.768 42.67 35.8644 40.1524C35.968 37.4738 36.6342 40.3672 36.6342 40.3672L37.2348 41.2923Z" fill="#07085B"/>
<path d="M66.1989 65.2261H85.28V64.1681H66.1989V65.2261Z" fill="#DAEEF7"/>
<path d="M84.7478 55.9808L85.0372 57.3115C85.0635 57.4328 85.0657 57.5581 85.0435 57.6802C85.0212 57.8024 84.9751 57.9189 84.9077 58.0232C84.8403 58.1274 84.7529 58.2173 84.6506 58.2877C84.5484 58.3581 84.4332 58.4075 84.3117 58.4332L67.2707 62.0291C67.1467 62.0553 67.0188 62.0562 66.8944 62.0317C66.7701 62.0073 66.652 61.958 66.5472 61.8868C66.4424 61.8157 66.353 61.7241 66.2845 61.6175C66.2159 61.511 66.1696 61.3917 66.1482 61.2668L65.9982 60.3928C65.9651 60.199 65.9934 59.9997 66.0792 59.8228C66.1649 59.6459 66.3038 59.5002 66.4765 59.4061L71.582 56.6307C71.69 56.5718 71.8086 56.5347 71.9309 56.5215L83.6211 55.2586L83.7051 55.2473C83.9392 55.2165 84.1764 55.2749 84.3695 55.4108C84.5626 55.5466 84.6977 55.7501 84.7478 55.9808Z" fill="#DAEEF7"/>
<path d="M67.5126 59.9355C67.5126 59.9355 65.0789 61.7083 66.8513 64.6312L66.745 65.385L63.6249 65.5977L60.768 65.0155L60.2379 60.2532L67.0896 58.217L67.5126 59.9355Z" fill="#E03268"/>
<path d="M60.375 66.9541H86.8715C87.1223 66.9541 87.3257 66.7508 87.3257 66.4999V65.0849C87.3257 64.8341 87.1223 64.6307 86.8715 64.6307H60.375C60.1242 64.6307 59.9208 64.8341 59.9208 65.0849V66.4999C59.9208 66.7508 60.1242 66.9541 60.375 66.9541Z" fill="#FF5B7E"/>
<path d="M86.7135 55.6752L67.2374 60.2676C67.0817 60.3042 66.9191 60.2999 66.7655 60.2552C65.999 60.0351 63.4009 59.4862 61.2143 61.3543C60.6985 61.7947 59.9025 61.5607 59.7153 60.908L59.3671 59.683C59.3121 59.4898 59.3214 59.2839 59.3935 59.0964C59.4657 58.909 59.5968 58.75 59.7671 58.6435C62.5946 56.8739 74.974 49.4635 83.1237 50.0279C83.5023 50.0543 83.8687 50.1723 84.1915 50.3718C84.5143 50.5713 84.7837 50.8463 84.9766 51.1731L87.1 54.7714C87.1482 54.8539 87.1765 54.9466 87.1824 55.0419C87.1884 55.1373 87.1719 55.2328 87.1344 55.3206C87.0968 55.4085 87.0392 55.4863 86.9661 55.5479C86.893 55.6095 86.8065 55.6531 86.7135 55.6752Z" fill="#FF5B7E"/>
<path d="M63.7653 63.9337C64.4082 63.9337 64.9293 63.4126 64.9293 62.7697C64.9293 62.1268 64.4082 61.6057 63.7653 61.6057C63.1225 61.6057 62.6013 62.1268 62.6013 62.7697C62.6013 63.4126 63.1225 63.9337 63.7653 63.9337Z" fill="#FF5B7E"/>
<path d="M66.1234 10.7093C66.1234 10.7093 68.3145 10.3399 69.0495 12.788L68.1412 14.1463C68.1412 14.1463 66.2379 13.4149 66.2305 13.3433C66.223 13.2716 66.1234 10.7093 66.1234 10.7093Z" fill="#FF5B7E"/>
<path d="M62.5957 11.8125C62.5957 11.8125 61.9575 12.7737 61.6306 13.1545C60.8105 14.1118 60.7049 13.8125 60.195 14.6372C59.6448 15.5271 60.2014 16.0845 60.518 16.3408C60.8346 16.5971 60.3053 17.5463 60.8945 18.0781C61.666 18.7744 62.3801 18.1178 62.9109 18.5078C63.4416 18.8978 63.5579 19.4761 64.8162 19.3669C66.0745 19.2577 66.0621 15.1435 66.0621 15.1435C66.0621 15.1435 65.0339 12.9619 64.9914 12.9453C64.9488 12.9286 62.5957 11.8125 62.5957 11.8125Z" fill="#FF5B7E"/>
<path d="M69.0485 12.7883C69.0485 12.7883 69.1236 13.5432 69.3736 13.9782C70.0015 15.0723 70.3401 14.7139 70.6879 15.6187C71.0637 16.5951 70.4131 17.0397 70.0547 17.233C69.6962 17.4262 70.0405 18.4569 69.3626 18.8703C68.4762 19.4113 67.8955 18.6338 67.3016 18.9188C66.7077 19.2039 66.4861 19.7503 65.27 19.4095C64.0539 19.0688 64.8286 15.028 64.8286 15.028C64.8286 15.028 66.2468 13.0755 66.2886 13.0656C66.3305 13.0557 69.0485 12.7883 69.0485 12.7883Z" fill="#FF5B7E"/>
<path d="M65.8692 17.6604C65.8692 17.6604 63.7692 17.2739 62.8034 17.3058C61.8376 17.3377 63.3888 19.8497 63.3888 19.8497L64.9662 19.8852C64.9662 19.8852 65.933 18.8056 65.8692 18.6797C65.8054 18.5538 65.8724 17.7302 65.8724 17.7302L65.8692 17.6604Z" fill="#FFC0BB"/>
<path d="M63.9961 15.6566L63.4426 17.3375C63.4426 17.3375 63.9252 18.3345 65.4019 17.9048C65.4019 17.9048 65.2335 17.5566 65.4597 16.8412C65.6905 16.1069 63.9961 15.6566 63.9961 15.6566Z" fill="#FFC0BB"/>
<path opacity="0.6" d="M63.9961 15.6566L63.7362 16.4419C63.8908 17.016 64.3935 17.407 65.3416 17.5283C65.345 17.2941 65.3846 17.0618 65.459 16.8397C65.6905 16.1069 63.9961 15.6566 63.9961 15.6566Z" fill="#FC8D84"/>
<path d="M67.3756 14.4254C67.2558 14.6984 67.3359 14.9973 67.5529 15.0934C67.7699 15.1894 68.0454 15.0455 68.1652 14.7743C68.2851 14.503 68.2053 14.2024 67.9879 14.1063C67.7706 14.0102 67.4955 14.1524 67.3756 14.4254Z" fill="#F99893"/>
<path d="M67.437 15.6653C67.5679 15.3262 67.6549 14.9717 67.6962 14.6105C67.7047 14.5396 67.7175 14.4687 67.7317 14.4007C67.7952 14.0873 67.7929 13.7642 67.7248 13.4517C67.6568 13.1393 67.5246 12.8445 67.3366 12.5859C67.1485 12.3273 66.9088 12.1106 66.6326 11.9496C66.3563 11.7886 66.0497 11.6867 65.732 11.6506C65.4143 11.6144 65.0926 11.6446 64.7872 11.7394C64.4818 11.8342 64.1995 11.9914 63.9581 12.2011C63.7168 12.4108 63.5216 12.6683 63.3851 12.9575C63.2486 13.2466 63.1737 13.5609 63.1651 13.8805C63.0233 13.7965 62.8616 13.7742 62.7173 13.8334C62.4404 13.9483 62.3326 14.3223 62.4762 14.6683C62.6198 15.0144 62.9608 15.2002 63.2374 15.0867C63.2756 15.071 63.3114 15.05 63.3438 15.0243C63.4285 16.1564 64.3305 17.0523 65.4402 17.0637C66.2723 17.0722 67.0928 16.5666 67.437 15.6653Z" fill="#FFC0BB"/>
<path d="M65.9886 13.9338C65.9456 14.0597 65.9206 14.191 65.9145 14.3238C65.9105 14.3915 65.9129 14.4594 65.9216 14.5266C65.9301 14.6 65.9543 14.6706 65.9925 14.7337C66.0429 14.7986 66.0695 14.8199 66.0769 14.872C66.0794 14.8965 66.0767 14.9213 66.0691 14.9447C66.0615 14.9682 66.049 14.9898 66.0326 15.0081C65.9617 15.0953 65.8401 15.1432 65.7135 15.1694C65.7816 15.1856 65.8525 15.1855 65.9206 15.1692C65.9887 15.1529 66.0519 15.1208 66.1053 15.0755C66.1357 15.0489 66.1597 15.0157 66.1756 14.9785C66.1914 14.9413 66.1986 14.901 66.1968 14.8606C66.1904 14.7713 66.1503 14.7316 66.0982 14.6639C66.0702 14.6151 66.0509 14.5618 66.0411 14.5064C66.0288 14.4455 66.0201 14.384 66.0149 14.3221C66.0014 14.1937 65.9964 14.0647 65.9886 13.9338Z" fill="#F99893"/>
<path d="M65.2303 14.1353C65.2299 14.1751 65.2178 14.214 65.1953 14.2469C65.1729 14.2798 65.1412 14.3054 65.1042 14.3203C65.0673 14.3352 65.0267 14.3388 64.9877 14.3306C64.9487 14.3225 64.913 14.303 64.8851 14.2745C64.8572 14.2461 64.8384 14.21 64.831 14.1708C64.8236 14.1317 64.828 14.0912 64.8436 14.0546C64.8592 14.0179 64.8854 13.9867 64.9187 13.9649C64.9521 13.9431 64.9912 13.9317 65.031 13.9321C65.0574 13.9324 65.0836 13.9378 65.1079 13.9482C65.1322 13.9585 65.1543 13.9735 65.1728 13.9924C65.1913 14.0113 65.2059 14.0336 65.2158 14.0581C65.2256 14.0826 65.2306 14.1089 65.2303 14.1353Z" fill="#333333"/>
<path d="M66.9579 14.2664C66.9576 14.3062 66.9454 14.3451 66.923 14.378C66.9005 14.4109 66.8688 14.4365 66.8319 14.4514C66.7949 14.4663 66.7544 14.4699 66.7154 14.4618C66.6764 14.4536 66.6407 14.4341 66.6128 14.4056C66.5849 14.3772 66.5661 14.3411 66.5587 14.3019C66.5513 14.2628 66.5557 14.2223 66.5713 14.1857C66.5869 14.149 66.6131 14.1178 66.6464 14.096C66.6798 14.0742 66.7188 14.0628 66.7587 14.0632C66.7851 14.0635 66.8112 14.0689 66.8356 14.0793C66.8599 14.0896 66.8819 14.1046 66.9004 14.1235C66.9189 14.1424 66.9336 14.1647 66.9434 14.1892C66.9533 14.2137 66.9582 14.24 66.9579 14.2664Z" fill="#333333"/>
<g style="mix-blend-mode:multiply" opacity="0.3">
<path d="M65.1948 15.6668C65.2879 15.6383 65.386 15.6302 65.4825 15.643C65.5789 15.6557 65.6715 15.6892 65.7539 15.7409C65.7539 15.7409 66.0468 15.5576 66.2776 15.7328C66.2776 15.7328 66.1713 16.1689 65.6891 16.1394C65.2069 16.11 65.1948 15.6668 65.1948 15.6668Z" fill="#F99893"/>
</g>
<path d="M64.9427 15.5106C65.0514 15.5976 65.1705 15.6706 65.2973 15.728C65.4222 15.7849 65.5557 15.8208 65.6923 15.8343C65.8286 15.8455 65.9659 15.8302 66.0965 15.7893C66.2281 15.7452 66.3529 15.6829 66.4673 15.6042C66.4152 15.6516 66.3593 15.6946 66.3 15.7326C66.2397 15.7701 66.1761 15.802 66.1099 15.8279C66.0429 15.8531 65.9734 15.8709 65.9025 15.8811C65.8313 15.8903 65.7593 15.8922 65.6877 15.8868C65.5451 15.8733 65.4066 15.832 65.2799 15.7652C65.1534 15.7008 65.0393 15.6147 64.9427 15.5106Z" fill="#F99893"/>
<path d="M65.4661 13.6723C65.3688 13.645 65.2696 13.625 65.1693 13.6123C65.0763 13.6008 64.9822 13.6022 64.8896 13.6162C64.7973 13.6301 64.7076 13.6575 64.6233 13.6974C64.5574 13.7208 64.3982 13.8226 64.3567 13.8425C64.4037 13.7418 64.4748 13.6542 64.5636 13.5874C64.6525 13.5206 64.7564 13.4767 64.8662 13.4595C64.9778 13.4424 65.092 13.4533 65.1984 13.4914C65.302 13.527 65.3944 13.5894 65.4661 13.6723Z" fill="#FF5B7E"/>
<path d="M66.3563 13.7389C66.4375 13.6655 66.5367 13.6149 66.6439 13.5925C66.754 13.5675 66.8687 13.5704 66.9775 13.601C67.0869 13.631 67.1866 13.6889 67.2668 13.7691C67.3457 13.8446 67.4042 13.9389 67.4366 14.0431C67.3976 14.018 67.2519 13.8978 67.1885 13.8659C67.1098 13.8158 67.0241 13.7777 66.9342 13.7528C66.844 13.7274 66.7507 13.7147 66.657 13.7148C66.5563 13.7155 66.4558 13.7236 66.3563 13.7389Z" fill="#FF5B7E"/>
<path d="M62.2163 27.9331C62.2163 27.9331 61.5969 30.8479 64.4074 31.5399C67.2179 32.232 70.7641 32.3022 70.7641 32.3022L70.8297 39.0915L72.3089 39.2609C72.3089 39.2609 76.723 30.1136 71.5264 28.3103L66.7715 28.0338L64.8215 27.7704C64.8215 27.7704 62.8715 27.1559 62.8428 27.2478C62.8141 27.3396 62.2588 27.9827 62.2163 27.9331Z" fill="#F4A640"/>
<path d="M59.6029 27.7838C59.6029 27.7838 58.9835 30.6986 61.794 31.3906C64.6045 32.0827 68.1507 32.1529 68.1507 32.1529L68.2163 38.9422L69.6955 39.1117C69.6955 39.1117 74.1096 29.9643 68.913 28.1611L64.1585 27.8842L62.2085 27.6207C62.2085 27.6207 60.2585 27.0066 60.2297 27.0985C60.201 27.1903 59.6469 27.832 59.6029 27.7838Z" fill="#FEB546"/>
<path d="M69.0006 32.3477C68.9197 32.3331 68.8385 32.3193 68.7588 32.3005C68.679 32.2817 68.5996 32.2604 68.5216 32.2367C68.4822 32.2246 68.4429 32.2115 68.4042 32.197C68.4447 32.1879 68.4845 32.1761 68.5234 32.1615C68.5999 32.1334 68.6728 32.096 68.7403 32.0502C68.8061 32.0033 68.867 31.9499 68.9219 31.8906C68.9754 31.8313 69.0229 31.7668 69.0637 31.6981L68.9832 31.7853C68.9541 31.8123 68.9275 31.841 68.8974 31.8662C68.8396 31.9184 68.7769 31.9648 68.7102 32.0048C68.6443 32.0445 68.5744 32.0773 68.5017 32.1027C68.4305 32.1277 68.3562 32.1427 68.2808 32.1473L68.1497 32.1519L68.2663 32.2062C68.3434 32.2406 68.4232 32.2686 68.5049 32.2899C68.5854 32.3122 68.6673 32.3282 68.7492 32.3423C68.8311 32.3565 68.9137 32.3672 68.9974 32.3732C69.0811 32.3792 69.1626 32.3835 69.2456 32.3831C69.1637 32.3725 69.0818 32.3625 69.0006 32.3477Z" fill="#DAEEF7"/>
<path d="M68.256 21.752C68.256 21.752 68.4475 26.5143 68.9828 27.2603L66.0376 26.5912V21.4077L68.256 21.752Z" fill="#FFC0BB"/>
<path d="M67.0013 22.4023C67.0013 22.4023 66.5914 23.601 66.517 24.2378C66.3316 25.8187 66.5329 26.9324 66.8602 27.834C67.319 29.0962 63.5707 28.6374 63.4941 28.5991C63.4175 28.5608 60.2046 27.3178 60.2046 27.3178L59.5923 25.539V22.4023L59.7646 20.9681L67.0013 22.4023Z" fill="#02CCC0"/>
<path d="M58.0241 20.9681L60.3829 21.7712C60.3829 21.7712 59.9748 25.5454 60.1025 26.0807C60.2113 26.5385 61.922 27.4486 63.0059 27.9581C63.1802 28.0402 63.373 28.0752 63.565 28.0595C64.1823 28.0088 65.2768 27.913 65.4487 27.9013C65.7185 27.8826 66.4602 27.9013 66.484 27.9964C66.5063 28.0843 65.9047 27.9875 65.5147 28.0673C65.4597 28.0786 65.4891 28.152 65.5015 28.1524C65.7086 28.1602 66.2415 28.1829 66.417 28.2414C66.6318 28.3123 65.8717 28.2559 65.4597 28.3318C65.4306 28.3371 65.4076 28.4186 65.4285 28.4381C65.4778 28.4864 65.6565 28.5285 66.1468 28.58C66.9655 28.6636 66.1645 28.7654 66.1645 28.7654C66.1645 28.7654 66.0912 28.7441 65.3877 28.648C65.3618 28.6445 65.3331 28.7189 65.3721 28.7516C65.4994 28.8607 65.6481 28.9422 65.8086 28.9909C66.072 29.0689 65.8795 29.1373 65.8795 29.1373C65.8795 29.1373 65.3806 28.9888 65.0995 28.9678C64.8899 28.9519 63.9036 29.0324 63.4987 29.0554L63.4678 28.9845C62.9194 28.9685 58.5432 28.8547 58.122 26.1424C57.6926 23.3525 58.0241 20.9681 58.0241 20.9681Z" fill="#FFC0BB"/>
<path d="M75.1693 23.6707H67.6529L65.5206 28.873H61.9003C61.8517 28.873 61.8051 28.8923 61.7707 28.9266C61.7364 28.961 61.717 29.0076 61.717 29.0563C61.7171 29.1048 61.7365 29.1514 61.7708 29.1858C61.8052 29.2201 61.8518 29.2395 61.9003 29.2396H72.6715L75.1693 23.6707Z" fill="#07085B"/>
<path d="M71.4417 26.6394C71.3974 26.861 71.2042 27.0092 71.0102 26.9706C70.8163 26.9319 70.695 26.7202 70.7394 26.4987C70.7837 26.2771 70.9769 26.1289 71.1708 26.1675C71.3648 26.2061 71.4867 26.4175 71.4417 26.6394Z" fill="#DAEEF7"/>
<path d="M65.8692 17.6605C65.8692 17.6605 64.4418 19.3269 62.8034 17.3059C62.8034 17.3059 61.0137 17.1602 59.694 18.0973C58.3744 19.0344 57.5845 21.1393 57.5845 21.1393C57.5845 21.1393 59.9748 22.3448 60.568 22.4015H67.2041C67.2041 22.4015 68.2181 22.3253 69.1931 21.8279C69.1931 21.8286 69.0251 18.4827 65.8692 17.6605Z" fill="#02CCC0"/>
<path d="M61.4405 20.5037C61.3789 20.71 61.3235 20.9185 61.2686 21.127C61.1654 21.5365 61.0708 21.9265 61.0016 22.3452C60.8666 22.347 60.7316 22.3366 60.5985 22.314C59.9093 22.1913 59.4565 21.9984 58.8428 21.7467C57.9234 21.328 58.0475 21.3684 57.5845 21.1397C57.9775 21.3931 58.3848 21.6234 58.8045 21.8297C59.342 22.0779 59.8557 22.3097 60.5793 22.437C60.8953 22.4803 60.9864 22.4707 61.1062 22.4572C61.153 22.1498 61.2065 21.8354 61.3544 21.1454L61.4909 20.5147L61.6327 19.8839C61.5622 20.0899 61.5015 20.297 61.4405 20.5037Z" fill="#07085B"/>
<path d="M66.6761 19.4014C66.7707 19.646 66.8556 19.8921 66.9307 20.1395C67.0071 20.3862 67.0687 20.6372 67.1151 20.8912C67.1628 21.143 67.1832 21.3993 67.1757 21.6556C67.1661 21.9109 66.7857 23.1131 66.6761 23.351C66.8336 23.1383 67.2456 21.9275 67.2736 21.6634C67.3001 21.3982 67.2882 21.1306 67.2381 20.8688C67.1906 20.6089 67.1184 20.3542 67.0225 20.108C66.9305 19.8617 66.8144 19.625 66.6761 19.4014Z" fill="#07085B"/>
<path d="M63.165 13.8804C63.165 13.8804 65.6171 13.2886 66.7885 11.6226C66.7885 11.6226 66.8091 10.1055 64.558 10.4494C62.3708 10.7841 61.8588 12.9125 63.165 13.8804Z" fill="#FF5B7E"/>
<path d="M87.4786 66.8914H11.0949C10.8691 66.8914 10.6861 67.0744 10.6861 67.3001V67.4881C10.6861 67.7138 10.8691 67.8969 11.0949 67.8969H87.4786C87.7044 67.8969 87.8874 67.7138 87.8874 67.4881V67.3001C87.8874 67.0744 87.7044 66.8914 87.4786 66.8914Z" fill="#C4DFE8"/>
<path d="M10.2181 33.7751L24.9641 25.3407L26.9574 29.289L11.8685 37.2716L10.2181 33.7751Z" fill="#F4A640"/>
<path d="M38.0077 9.75024C38.0077 9.75024 37.891 10.8972 36.9862 10.9766C37.891 11.0557 38.0077 12.2027 38.0077 12.2027C38.0077 12.2027 38.124 11.0557 39.0288 10.9766C38.1232 10.8972 38.0077 9.75024 38.0077 9.75024Z" fill="#02CCC0"/>
<path d="M22.3699 0.939697C22.3699 0.939697 22.215 2.46745 21.0095 2.57311C22.215 2.67947 22.3699 4.20651 22.3699 4.20651C22.3699 4.20651 22.5249 2.67876 23.7303 2.57311C22.5249 2.46745 22.3699 0.939697 22.3699 0.939697Z" fill="#FEB546"/>
<path d="M16.0544 14.603C16.0544 14.603 15.9501 15.6287 15.1393 15.7C15.9487 15.7709 16.053 16.7966 16.053 16.7966C16.053 16.7966 16.1568 15.7709 16.9663 15.7C16.1583 15.6287 16.0544 14.603 16.0544 14.603Z" fill="#FF5B7E"/>
<path d="M85.0589 35.6382C85.0589 35.6382 84.904 37.1659 83.6985 37.2716C84.904 37.378 85.0589 38.9046 85.0589 38.9046C85.0589 38.9046 85.2138 37.3772 86.4193 37.2716C85.2138 37.1659 85.0589 35.6382 85.0589 35.6382Z" fill="#FF5B7E"/>
<path d="M1.36041 25.6267C1.36041 25.6267 1.20547 27.1545 0 27.2601C1.20547 27.3665 1.36041 28.8932 1.36041 28.8932C1.36041 28.8932 1.51534 27.3658 2.72081 27.2601C1.51534 27.1545 1.36041 25.6267 1.36041 25.6267Z" fill="#02CCC0"/>
<path d="M89.6393 23.7076C89.6393 23.7076 89.4844 25.235 88.2789 25.3407C89.4844 25.4471 89.6393 26.9741 89.6393 26.9741C89.6393 26.9741 89.7943 25.4464 91.0001 25.3407C89.7943 25.235 89.6393 23.7076 89.6393 23.7076Z" fill="#02CCC0"/>
<path d="M53.3909 0C53.3909 0 53.2359 1.52775 52.0305 1.63341C53.2359 1.73977 53.3909 3.26646 53.3909 3.26646C53.3909 3.26646 53.5458 1.73906 54.7513 1.63341C53.5458 1.52775 53.3909 0 53.3909 0Z" fill="#FF5B7E"/>
<path d="M79.2169 11.7266C79.2169 11.7266 79.1325 12.6913 78.4773 12.7579C79.1325 12.8246 79.2169 13.7893 79.2169 13.7893C79.2169 13.7893 79.3009 12.8246 79.9561 12.7579C79.3009 12.6931 79.2169 11.7266 79.2169 11.7266Z" fill="#FEB546"/>
</svg>
