<svg width="140" height="162" viewBox="0 0 140 162" fill="none" xmlns="http://www.w3.org/2000/svg">
<path d="M111.521 27.0177C110.919 27.0177 110.34 26.7798 109.913 26.3556C109.485 25.9314 109.242 25.3554 109.237 24.753V-6.62989C109.225 -6.93687 109.276 -7.24303 109.385 -7.53004C109.495 -7.81706 109.661 -8.07904 109.874 -8.30031C110.087 -8.52158 110.343 -8.69759 110.625 -8.81781C110.908 -8.93803 111.212 -9 111.519 -9C111.827 -9 112.131 -8.93803 112.413 -8.81781C112.696 -8.69759 112.952 -8.52158 113.165 -8.30031C113.378 -8.07904 113.544 -7.81706 113.653 -7.53004C113.763 -7.24303 113.813 -6.93687 113.802 -6.62989V24.753C113.802 25.0518 113.743 25.3476 113.628 25.6234C113.513 25.8992 113.345 26.1496 113.133 26.3601C112.921 26.5707 112.669 26.7371 112.393 26.85C112.116 26.9629 111.82 27.0199 111.521 27.0177Z" fill="#D1D1D1"/>
<path d="M91.3777 29.538C90.8752 29.5366 90.3872 29.3698 89.989 29.0634C89.5907 28.757 89.3045 28.328 89.1744 27.8426L84.9685 12.1415C84.8797 11.8486 84.8508 11.5408 84.8833 11.2364C84.9158 10.9321 85.0092 10.6374 85.1579 10.3698C85.3065 10.1023 85.5074 9.86734 85.7487 9.67896C85.9899 9.49057 86.2665 9.35259 86.5621 9.27322C86.8577 9.19384 87.1663 9.17468 87.4694 9.21688C87.7726 9.25909 88.0642 9.36178 88.3269 9.51888C88.5896 9.67598 88.818 9.88427 88.9986 10.1314C89.1792 10.3785 89.3083 10.6594 89.3783 10.9574L93.5842 26.6617C93.6642 26.9515 93.6856 27.2543 93.6473 27.5525C93.609 27.8507 93.5118 28.1382 93.3612 28.3984C93.2106 28.6586 93.0098 28.8862 92.7703 29.068C92.5309 29.2497 92.2576 29.382 91.9665 29.4571C91.7748 29.5106 91.5767 29.5378 91.3777 29.538Z" fill="#D1D1D1"/>
<path d="M72.6936 37.442C72.2925 37.4438 71.8981 37.3389 71.5508 37.1383C71.2035 36.9376 70.9157 36.6483 70.7168 36.2999L55.0027 9.08419C54.8361 8.82396 54.7242 8.53259 54.6736 8.22778C54.623 7.92296 54.6349 7.61104 54.7085 7.31095C54.7821 7.01086 54.916 6.72886 55.1019 6.48206C55.2878 6.23525 55.5219 6.0288 55.79 5.87521C56.0581 5.72163 56.3546 5.62412 56.6616 5.5886C56.9685 5.55309 57.2795 5.58031 57.5756 5.66861C57.8717 5.75691 58.1467 5.90445 58.3841 6.10228C58.6215 6.30011 58.8161 6.5441 58.9563 6.81945L74.6704 34.0352C74.8222 34.2942 74.921 34.5808 74.961 34.8784C75.001 35.1759 74.9814 35.4784 74.9035 35.7684C74.8255 36.0583 74.6906 36.3298 74.5068 36.5671C74.3229 36.8045 74.0937 37.0029 73.8325 37.1508C73.4855 37.3474 73.0924 37.448 72.6936 37.442Z" fill="#D1D1D1"/>
<path d="M56.6657 49.8302C56.3651 49.8315 56.0673 49.7729 55.7895 49.658C55.5118 49.543 55.2597 49.3738 55.048 49.1604L43.4008 37.5132C42.9717 37.0842 42.7307 36.5023 42.7307 35.8955C42.7307 35.2888 42.9717 34.7069 43.4008 34.2778C43.8298 33.8488 44.4117 33.6078 45.0185 33.6078C45.6252 33.6078 46.2071 33.8488 46.6361 34.2778L58.2834 45.9251C58.5972 46.2455 58.8098 46.6513 58.8946 47.0918C58.9793 47.5322 58.9325 47.9879 58.76 48.4019C58.5875 48.816 58.2969 49.1701 57.9245 49.42C57.552 49.67 57.1142 49.8047 56.6657 49.8075V49.8302Z" fill="#D1D1D1"/>
<path d="M44.2711 65.8483C43.8695 65.8433 43.4765 65.7317 43.1323 65.5248L15.8939 49.8139C15.3696 49.5115 14.9869 49.0131 14.8301 48.4285C14.7524 48.139 14.7325 47.8371 14.7716 47.54C14.8106 47.2428 14.9078 46.9563 15.0575 46.6967C15.2073 46.4371 15.4067 46.2095 15.6444 46.027C15.8821 45.8445 16.1535 45.7106 16.4429 45.6329C17.0275 45.476 17.6505 45.5579 18.1748 45.8603L45.4164 61.5874C45.8514 61.8392 46.1912 62.2275 46.3832 62.6921C46.5751 63.1567 46.6084 63.6716 46.4779 64.1571C46.3474 64.6425 46.0604 65.0714 45.6614 65.3771C45.2625 65.6829 44.7738 65.8485 44.2711 65.8483Z" fill="#D1D1D1"/>
<path d="M36.4869 84.5551C36.287 84.5547 36.088 84.5286 35.8948 84.4774L20.1192 80.2488C19.8106 80.1901 19.5174 80.0683 19.2579 79.891C18.9985 79.7138 18.7784 79.4849 18.6114 79.2187C18.4445 78.9526 18.3342 78.6548 18.2876 78.3441C18.2409 78.0334 18.2589 77.7164 18.3403 77.4129C18.4218 77.1094 18.565 76.826 18.7609 76.5804C18.9569 76.3348 19.2014 76.1323 19.4792 75.9855C19.757 75.8387 20.0621 75.7508 20.3754 75.7272C20.6887 75.7037 21.0035 75.7451 21.3001 75.8488L37.0757 80.0547C37.6082 80.2003 38.0699 80.5337 38.3755 80.9934C38.6811 81.4531 38.8099 82.0079 38.7381 82.5552C38.6663 83.1025 38.3987 83.6053 37.9848 83.9706C37.571 84.3358 37.0388 84.5389 36.4869 84.5421V84.5551Z" fill="#D1D1D1"/>
<path d="M33.753 104.643H2.37011C2.06313 104.655 1.75697 104.604 1.46996 104.495C1.18294 104.385 0.920962 104.219 0.699693 104.006C0.478424 103.793 0.302413 103.537 0.182189 103.255C0.0619655 102.972 0 102.668 0 102.361C0 102.053 0.0619655 101.749 0.182189 101.467C0.302413 101.184 0.478424 100.929 0.699693 100.715C0.920962 100.502 1.18294 100.336 1.46996 100.227C1.75697 100.117 2.06313 100.067 2.37011 100.078H33.753C34.3435 100.1 34.9024 100.351 35.3123 100.776C35.7222 101.202 35.9512 101.77 35.9512 102.361C35.9512 102.952 35.7222 103.52 35.3123 103.945C34.9024 104.371 34.3435 104.621 33.753 104.643Z" fill="#D1D1D1"/>
<path d="M131.642 29.538C131.442 29.5381 131.242 29.5109 131.05 29.4571C130.758 29.382 130.485 29.2497 130.246 29.068C130.006 28.8862 129.805 28.6586 129.655 28.3984C129.504 28.1382 129.407 27.8507 129.369 27.5525C129.33 27.2543 129.352 26.9515 129.432 26.6617L133.638 10.9574C133.708 10.6594 133.837 10.3785 134.018 10.1314C134.198 9.88427 134.427 9.67598 134.689 9.51888C134.952 9.36178 135.244 9.25909 135.547 9.21688C135.85 9.17468 136.158 9.19384 136.454 9.27322C136.75 9.35259 137.026 9.49057 137.267 9.67896C137.509 9.86734 137.71 10.1023 137.858 10.3698C138.007 10.6374 138.1 10.9321 138.133 11.2364C138.165 11.5408 138.136 11.8486 138.048 12.1415L133.842 27.8426C133.712 28.3274 133.426 28.7561 133.028 29.0624C132.631 29.3688 132.144 29.5359 131.642 29.538Z" fill="#D1D1D1"/>
<path d="M45.0056 170.897C44.557 170.894 44.1192 170.759 43.7468 170.509C43.3744 170.259 43.0838 169.905 42.9112 169.491C42.7387 169.077 42.6919 168.621 42.7767 168.181C42.8615 167.74 43.074 167.335 43.3879 167.014L55.0351 155.351C55.2476 155.138 55.4998 154.97 55.7773 154.855C56.0549 154.74 56.3524 154.681 56.6528 154.681C56.9532 154.681 57.2507 154.74 57.5283 154.855C57.8059 154.97 58.058 155.138 58.2705 155.351C58.4829 155.563 58.6514 155.815 58.7664 156.093C58.8814 156.371 58.9405 156.668 58.9405 156.969C58.9405 157.269 58.8814 157.566 58.7664 157.844C58.6514 158.122 58.4829 158.374 58.2705 158.586L46.6232 170.233C46.411 170.446 46.1587 170.614 45.881 170.727C45.6033 170.841 45.3057 170.899 45.0056 170.897Z" fill="#D1D1D1"/>
<path d="M17.0359 158.945C16.5335 158.945 16.0453 158.779 15.6469 158.473C15.2485 158.167 14.962 157.738 14.832 157.253C14.7019 156.767 14.7354 156.253 14.9274 155.789C15.1194 155.324 15.4591 154.936 15.8939 154.685L43.1355 138.957C43.6583 138.677 44.2697 138.611 44.8402 138.774C45.4107 138.936 45.8956 139.314 46.1923 139.828C46.4891 140.342 46.5744 140.951 46.4302 141.526C46.286 142.101 45.9236 142.598 45.4196 142.911L18.178 158.638C17.8317 158.841 17.4373 158.947 17.0359 158.945Z" fill="#D1D1D1"/>
<path d="M20.7081 128.74C20.154 128.74 19.619 128.538 19.2026 128.172C18.7863 127.807 18.517 127.302 18.445 126.753C18.373 126.204 18.5031 125.647 18.8111 125.186C19.1191 124.726 19.584 124.393 20.1193 124.25L35.8948 120.024C36.1883 119.934 36.497 119.903 36.8025 119.935C37.108 119.967 37.4039 120.06 37.6726 120.208C37.9414 120.357 38.1774 120.558 38.3666 120.8C38.5557 121.042 38.6942 121.32 38.7736 121.616C38.8531 121.913 38.8719 122.223 38.8289 122.527C38.786 122.831 38.6821 123.123 38.5236 123.386C38.3651 123.649 38.1552 123.877 37.9064 124.057C37.6576 124.238 37.3751 124.366 37.0757 124.434L21.3002 128.659C21.1074 128.713 20.9082 128.74 20.7081 128.74Z" fill="#D1D1D1"/>
<path d="M174.753 104.352C169.372 142.529 147.032 155.053 111.663 155.053C76.2945 155.053 53.6406 142.523 48.2505 104.352C43.074 67.4952 73.2242 50.3802 94.4125 52.6417C96.7743 51.4737 101.339 48.8434 111.443 48.8434C121.547 48.8434 124.867 50.9237 128.607 52.6417C150.125 50.3446 179.91 67.7896 174.753 104.352Z" fill="#FF0000"/>
<path d="M173.986 84.4872C171.446 87.3149 166.344 90.2137 159.456 92.6111C150.74 95.6491 135.288 99.2695 111.194 99.2695C87.1006 99.2695 71.8233 95.6491 63.227 92.6111C56.5136 90.2396 51.528 87.3699 49.0173 84.5584C49.1122 84.1701 49.2125 83.7851 49.3182 83.4033C50.0633 84.3223 50.9209 85.1441 51.8709 85.8493C54.608 87.949 58.6457 89.9743 63.5473 91.7052C72.0724 94.7173 87.2624 98.3086 111.194 98.3086C135.126 98.3086 150.494 94.7173 159.142 91.7052C164.118 89.9679 168.227 87.9425 171.022 85.846C172.013 85.1268 172.908 84.2842 173.685 83.3386C173.789 83.7172 173.889 84.1022 173.986 84.4872Z" fill="#CD0B0B"/>
<path d="M108.884 117.116C108.884 117.578 108.884 119.134 108.884 119.134C109.007 119.134 109.143 119.134 109.266 119.134C109.389 119.134 109.47 119.134 110.767 119.134C110.945 119.134 110.958 119.134 111.013 119.287C111.032 119.371 111.041 119.458 111.039 119.545C111.047 119.633 111.038 119.72 111.013 119.804C110.971 119.898 110.89 119.914 110.78 119.914C110.398 119.914 110.017 119.914 109.619 119.914C109.619 119.914 108.677 119.914 108.308 119.914C108.159 119.914 108.037 119.885 108.037 119.668C108.062 118.766 108.037 118.125 108.037 117.662C108.015 117.25 108.047 116.837 108.13 116.433C108.218 116.169 108.38 115.937 108.596 115.763C108.729 115.637 108.813 115.614 109.567 114.932C109.81 114.746 110.002 114.503 110.127 114.223C110.179 114.041 110.201 113.852 110.195 113.664C110.195 113.016 110.195 112.369 110.156 111.722C110.156 111.463 110.14 111.451 110.14 111.383C110.14 111.15 109.868 111.014 109.609 111.014C108.962 111.04 108.962 111.493 108.962 111.955C108.962 112.337 108.962 112.816 108.962 113.249C108.96 113.27 108.951 113.289 108.936 113.304C108.921 113.319 108.902 113.328 108.881 113.33C108.736 113.351 108.59 113.361 108.444 113.359C108.211 113.359 108.121 113.304 108.121 113.22C108.121 113.136 108.121 113.139 108.121 112.13C108.08 111.682 108.135 111.231 108.282 110.807C108.436 110.619 108.63 110.47 108.851 110.37C109.071 110.27 109.312 110.222 109.554 110.231C109.728 110.237 109.901 110.255 110.072 110.286C110.589 110.286 111 110.913 111.013 111.392C111.013 111.557 111.013 111.716 111.055 112.745C111.055 113.126 111.055 113.657 111.081 113.864C111.081 114.751 110.334 115.271 109.69 115.951C109.318 116.333 108.884 116.54 108.884 117.116Z" fill="white"/>
<path d="M108.325 119.998C108.163 119.998 108.001 119.963 108.001 119.694C108.024 118.898 108.001 118.296 108.001 117.856V117.688C107.979 117.272 108.012 116.854 108.098 116.446C108.189 116.172 108.356 115.929 108.58 115.747C108.624 115.705 108.67 115.666 108.719 115.63C108.836 115.537 109.043 115.378 109.538 114.912C109.775 114.734 109.962 114.498 110.081 114.226C110.124 114.099 110.144 113.966 110.14 113.832C110.14 113.783 110.14 113.735 110.14 113.683C110.14 113.052 110.14 112.389 110.098 111.742C110.098 111.57 110.098 111.509 110.098 111.467C110.096 111.444 110.096 111.421 110.098 111.399C110.098 111.208 109.852 111.075 109.625 111.075C109.03 111.101 109.03 111.499 109.03 111.958C109.03 112.143 109.03 112.35 109.03 112.567C109.03 112.783 109.03 113.029 109.03 113.256C109.029 113.292 109.014 113.327 108.988 113.353C108.962 113.379 108.927 113.394 108.891 113.395C108.746 113.416 108.6 113.426 108.454 113.424C108.195 113.424 108.066 113.359 108.066 113.227V113.201C108.066 113.142 108.066 112.974 108.066 112.136V112.042C108.032 111.617 108.091 111.188 108.237 110.787C108.395 110.589 108.597 110.431 108.827 110.326C109.056 110.22 109.308 110.17 109.561 110.179C109.737 110.184 109.914 110.202 110.088 110.234C110.615 110.234 111.058 110.881 111.081 111.395C111.081 111.56 111.081 111.719 111.12 112.748C111.12 112.922 111.12 113.13 111.12 113.324C111.12 113.518 111.12 113.757 111.136 113.864C111.136 114.615 110.631 115.106 110.098 115.627C109.975 115.747 109.848 115.87 109.726 115.999C109.603 116.129 109.554 116.164 109.47 116.242C109.323 116.336 109.201 116.463 109.114 116.613C109.026 116.763 108.975 116.932 108.965 117.106C108.965 117.513 108.965 118.778 108.965 119.066H109.101H109.289H109.357C109.483 119.066 109.745 119.066 110.79 119.066C110.981 119.066 111.026 119.066 111.091 119.254C111.114 119.346 111.125 119.441 111.123 119.536C111.133 119.632 111.121 119.729 111.088 119.82C111.033 119.953 110.913 119.963 110.803 119.963H110.431C110.178 119.963 109.916 119.963 109.651 119.963C109.638 119.985 108.693 119.998 108.325 119.998ZM109.593 110.965C109.887 110.965 110.188 111.127 110.188 111.395C110.187 111.414 110.187 111.432 110.188 111.45C110.188 111.496 110.188 111.56 110.188 111.735C110.23 112.382 110.23 113.049 110.23 113.676C110.227 113.726 110.227 113.776 110.23 113.825C110.233 113.973 110.21 114.119 110.162 114.259C110.037 114.548 109.839 114.8 109.586 114.99C109.082 115.456 108.884 115.614 108.765 115.711C108.719 115.746 108.674 115.782 108.632 115.821C108.424 115.99 108.269 116.214 108.185 116.468C108.102 116.867 108.07 117.275 108.092 117.682V117.85C108.092 118.29 108.124 118.895 108.092 119.691C108.092 119.849 108.156 119.875 108.305 119.875C108.674 119.875 109.616 119.875 109.616 119.875C109.881 119.875 110.143 119.875 110.395 119.875H110.777C110.89 119.875 110.929 119.859 110.955 119.804C110.977 119.727 110.985 119.647 110.978 119.568C110.979 119.485 110.97 119.403 110.952 119.322C110.913 119.218 110.913 119.218 110.764 119.218C109.722 119.218 109.45 119.218 109.334 119.218H109.263H109.069H108.881H108.82V119.16C108.82 119.16 108.82 117.604 108.82 117.141C108.829 116.951 108.884 116.765 108.979 116.599C109.074 116.433 109.207 116.292 109.366 116.187C109.447 116.113 109.535 116.038 109.616 115.951C109.696 115.863 109.865 115.698 109.988 115.575C110.505 115.074 110.991 114.605 110.991 113.906C110.991 113.796 110.991 113.583 110.974 113.362C110.958 113.142 110.974 112.961 110.974 112.787C110.936 111.748 110.936 111.596 110.936 111.434C110.936 110.965 110.512 110.389 110.052 110.389C109.882 110.357 109.708 110.338 109.535 110.334C109.303 110.326 109.072 110.371 108.86 110.466C108.648 110.561 108.46 110.703 108.312 110.881C108.18 111.265 108.128 111.673 108.16 112.078V112.172C108.16 113.013 108.16 113.185 108.16 113.243V113.262C108.16 113.298 108.231 113.34 108.428 113.34C108.571 113.341 108.714 113.333 108.855 113.314C108.862 113.313 108.869 113.311 108.874 113.307C108.88 113.303 108.885 113.298 108.888 113.291C108.888 113.065 108.888 112.829 108.888 112.599C108.888 112.369 108.888 112.178 108.888 111.994C108.888 111.538 108.888 111.023 109.599 110.991L109.593 110.965Z" fill="white"/>
<path d="M115.096 117.277C115.054 118.193 115.219 119.054 114.756 119.626L114.659 119.707C114.356 119.906 114 120.011 113.637 120.008C113.509 120.012 113.381 120.004 113.255 119.982C113.013 119.955 112.784 119.856 112.599 119.697C112.414 119.538 112.281 119.328 112.217 119.092C112.182 118.908 112.163 118.72 112.162 118.533C112.162 117.824 112.162 117.455 112.162 116.993C112.162 116.841 112.611 116.87 112.747 116.87C112.799 116.863 112.852 116.873 112.898 116.897C112.944 116.921 112.982 116.959 113.006 117.006V117.116C113.006 117.481 113.035 117.85 113.035 118.261C113.035 118.834 113.035 119.257 113.65 119.257C113.724 119.266 113.799 119.258 113.869 119.235C113.94 119.212 114.005 119.173 114.059 119.123C114.114 119.072 114.157 119.01 114.185 118.941C114.213 118.872 114.226 118.798 114.223 118.724L114.265 117.387C114.248 115.831 114.125 115.517 113.443 115.517H112.433C112.34 115.543 112.285 115.517 112.255 115.462C112.221 115.4 112.212 115.327 112.23 115.258C112.188 113.987 112.175 112.706 112.187 111.26V110.535C112.187 110.493 112.188 110.438 112.23 110.412C112.236 110.404 112.244 110.397 112.254 110.392C112.264 110.388 112.274 110.386 112.285 110.386C112.993 110.386 113.705 110.37 114.549 110.37C114.782 110.37 115.122 110.331 115.122 110.658C115.122 110.752 115.122 110.875 115.122 110.981V111.078C115.122 111.214 114.261 111.172 114.168 111.172C113.731 111.172 113.129 111.172 113.087 111.172C113.087 112.143 113.087 114.731 113.087 114.731C113.294 114.731 113.54 114.731 113.718 114.731C114.303 114.731 114.876 114.964 115.041 115.592C115.048 115.609 115.048 115.629 115.041 115.647C115.094 115.953 115.117 116.264 115.109 116.575L115.096 117.277Z" fill="white"/>
<path d="M113.637 120.066C113.505 120.071 113.373 120.062 113.242 120.04C112.989 120.011 112.75 119.906 112.557 119.739C112.363 119.573 112.225 119.352 112.158 119.105C112.124 118.916 112.105 118.725 112.103 118.533C112.103 118.093 112.103 117.776 112.103 117.501C112.103 117.329 112.103 117.177 112.103 116.993C112.104 116.975 112.108 116.958 112.115 116.942C112.122 116.925 112.133 116.911 112.145 116.899C112.236 116.808 112.469 116.805 112.695 116.808H112.75C112.815 116.801 112.881 116.813 112.939 116.844C112.997 116.874 113.044 116.922 113.074 116.98V117.006V117.116C113.074 117.294 113.074 117.472 113.074 117.656C113.074 117.84 113.074 118.051 113.074 118.261C113.074 118.908 113.097 119.199 113.63 119.199C113.697 119.208 113.764 119.202 113.827 119.182C113.891 119.161 113.949 119.127 113.998 119.082C114.047 119.036 114.085 118.981 114.11 118.919C114.135 118.857 114.146 118.79 114.142 118.724L114.184 117.384C114.184 115.847 114.058 115.576 113.423 115.576H112.424C112.38 115.595 112.331 115.597 112.286 115.581C112.241 115.565 112.205 115.531 112.184 115.488C112.142 115.415 112.131 115.328 112.152 115.246C112.11 113.971 112.097 112.699 112.11 111.256V110.535C112.105 110.503 112.109 110.47 112.121 110.44C112.133 110.41 112.153 110.384 112.178 110.363C112.188 110.351 112.202 110.34 112.217 110.334C112.232 110.327 112.249 110.324 112.265 110.325H113.3H114.517H114.585C114.751 110.297 114.922 110.335 115.06 110.431C115.091 110.463 115.114 110.501 115.129 110.542C115.144 110.583 115.15 110.627 115.148 110.671C115.151 110.723 115.151 110.774 115.148 110.826C115.148 110.884 115.148 110.943 115.148 110.998V111.095C115.148 111.107 115.146 111.12 115.141 111.132C115.136 111.144 115.128 111.154 115.119 111.163C115.038 111.24 114.773 111.266 114.197 111.25H114.135C113.812 111.25 113.368 111.25 113.165 111.25H113.116C113.116 112.166 113.116 114.294 113.116 114.689C113.307 114.689 113.524 114.689 113.685 114.689C114.407 114.689 114.908 115.013 115.064 115.582C115.076 115.607 115.081 115.635 115.08 115.663C115.133 115.97 115.155 116.281 115.148 116.591V117.316C115.148 117.539 115.148 117.763 115.148 117.979C115.148 118.627 115.148 119.251 114.798 119.697L114.695 119.788C114.377 119.982 114.009 120.079 113.637 120.066ZM112.582 116.938C112.456 116.926 112.33 116.946 112.213 116.996C112.213 117.177 112.213 117.339 112.213 117.51C112.213 117.789 112.213 118.102 112.213 118.549C112.216 118.732 112.234 118.915 112.268 119.096C112.33 119.318 112.456 119.517 112.632 119.667C112.809 119.816 113.026 119.909 113.255 119.934C113.379 119.958 113.505 119.968 113.63 119.963C113.975 119.962 114.313 119.861 114.601 119.672L114.695 119.594C115.018 119.186 115.018 118.623 115.018 117.957C115.018 117.74 115.018 117.517 115.018 117.29V116.569C115.029 116.259 115.009 115.949 114.96 115.644C114.962 115.633 114.962 115.622 114.96 115.611C114.769 114.877 114.009 114.796 113.695 114.796C113.517 114.796 113.271 114.796 113.071 114.812H113.019V114.747C113.019 114.747 113.019 112.159 113.019 111.188V111.114H113.19C113.391 111.114 113.821 111.114 114.161 111.114H114.226C114.873 111.133 115.022 111.088 115.054 111.066V110.981C115.054 110.923 115.054 110.862 115.054 110.803C115.054 110.745 115.054 110.7 115.054 110.655C115.056 110.626 115.052 110.598 115.043 110.571C115.033 110.545 115.018 110.52 114.999 110.499C114.921 110.422 114.756 110.425 114.611 110.428H114.54H113.323H112.288L112.265 110.444C112.265 110.444 112.265 110.493 112.265 110.519V111.243C112.249 112.683 112.265 113.955 112.304 115.239C112.289 115.296 112.294 115.357 112.32 115.411C112.32 115.436 112.349 115.469 112.433 115.443H113.459C114.213 115.443 114.326 115.854 114.339 117.384L114.297 118.724C114.301 118.806 114.287 118.887 114.256 118.963C114.225 119.04 114.178 119.108 114.118 119.164C114.058 119.22 113.986 119.262 113.908 119.288C113.83 119.314 113.748 119.322 113.666 119.312C112.99 119.312 112.99 118.824 112.99 118.258C112.99 118.047 112.99 117.85 112.99 117.656C112.99 117.462 112.99 117.29 112.99 117.112V117.015C112.969 116.983 112.938 116.957 112.903 116.941C112.867 116.925 112.828 116.919 112.789 116.925H112.637L112.582 116.938Z" fill="white"/>
<path d="M139.749 115.168C139.749 115.631 139.766 117.187 139.766 117.187C139.889 117.187 140.024 117.203 140.147 117.203C140.27 117.203 140.351 117.187 141.649 117.203C141.827 117.203 141.839 117.203 141.894 117.352C141.913 117.437 141.922 117.524 141.92 117.611C141.929 117.698 141.92 117.786 141.894 117.869C141.852 117.966 141.772 117.979 141.662 117.979C141.28 117.979 140.898 117.979 140.503 117.979C140.503 117.979 139.559 117.979 139.19 117.979C139.041 117.979 138.918 117.954 138.918 117.734C138.947 116.834 138.918 116.194 138.918 115.728C138.897 115.315 138.928 114.902 139.012 114.498C139.099 114.236 139.261 114.004 139.478 113.832C139.61 113.706 139.694 113.68 140.432 112.997C140.677 112.814 140.87 112.569 140.992 112.288C141.044 112.107 141.067 111.918 141.06 111.729C141.06 111.082 141.06 110.435 141.021 109.788C141.021 109.529 141.005 109.513 141.005 109.445C141.005 109.212 140.733 109.076 140.474 109.076C139.827 109.105 139.827 109.555 139.827 110.017C139.827 110.402 139.827 110.878 139.827 111.311C139.826 111.333 139.817 111.353 139.802 111.368C139.787 111.384 139.767 111.393 139.746 111.395C139.601 111.414 139.455 111.423 139.309 111.421C139.077 111.421 138.986 111.366 138.986 111.285C138.986 111.205 138.986 111.201 138.986 110.192C138.947 109.744 139.002 109.294 139.148 108.869C139.302 108.682 139.497 108.534 139.717 108.435C139.937 108.335 140.178 108.288 140.419 108.296C140.593 108.3 140.766 108.318 140.937 108.351C141.454 108.351 141.865 108.979 141.878 109.454C141.878 109.619 141.878 109.778 141.92 110.807C141.92 111.188 141.92 111.722 141.946 111.926C141.946 112.813 141.202 113.333 140.555 114.016C140.196 114.385 139.749 114.595 139.749 115.168Z" fill="white"/>
<path d="M139.19 118.054C139.028 118.054 138.866 118.018 138.866 117.747C138.889 116.951 138.866 116.349 138.866 115.912V115.744C138.842 115.326 138.873 114.907 138.96 114.498C139.051 114.224 139.218 113.982 139.442 113.799C139.487 113.761 139.523 113.728 139.581 113.683C139.698 113.589 139.905 113.434 140.4 112.968C140.636 112.788 140.823 112.551 140.943 112.279C140.986 112.153 141.006 112.02 141.001 111.887C141.001 111.839 141.001 111.787 141.001 111.738C141.001 111.091 141.001 110.444 140.959 109.797C140.959 109.626 140.959 109.561 140.959 109.519C140.959 109.477 140.959 109.477 140.959 109.451C140.959 109.26 140.713 109.128 140.487 109.128C139.892 109.15 139.892 109.548 139.892 110.008C139.892 110.195 139.892 110.402 139.892 110.616C139.892 110.829 139.892 111.082 139.892 111.305C139.89 111.342 139.875 111.377 139.848 111.404C139.822 111.43 139.787 111.446 139.749 111.447C139.605 111.466 139.459 111.475 139.313 111.473C139.054 111.473 138.924 111.408 138.924 111.279V111.25C138.924 111.195 138.924 111.027 138.924 110.186V110.095C138.891 109.668 138.949 109.239 139.096 108.836C139.255 108.64 139.457 108.483 139.686 108.377C139.916 108.272 140.167 108.221 140.419 108.228C140.596 108.233 140.773 108.253 140.946 108.286C141.474 108.286 141.917 108.933 141.94 109.448C141.94 109.61 141.94 109.771 141.978 110.797C141.978 110.975 141.978 111.182 141.978 111.373C141.978 111.564 141.978 111.806 141.978 111.916C141.978 112.664 141.474 113.156 140.94 113.676C140.817 113.796 140.691 113.919 140.568 114.049C140.445 114.178 140.396 114.217 140.312 114.291C140.166 114.385 140.044 114.512 139.956 114.663C139.869 114.813 139.818 114.981 139.808 115.155C139.808 115.566 139.808 116.831 139.808 117.116H139.943H140.131H140.202C140.328 117.116 140.591 117.116 141.632 117.116C141.823 117.116 141.868 117.116 141.933 117.307C141.956 117.397 141.967 117.491 141.966 117.585C141.976 117.682 141.963 117.781 141.93 117.873C141.875 118.002 141.755 118.015 141.645 118.015H141.267C141.011 118.015 140.749 118.015 140.484 118.015C140.519 118.041 139.549 118.054 139.19 118.054ZM140.458 109.021C140.752 109.021 141.053 109.179 141.053 109.448C141.052 109.467 141.052 109.487 141.053 109.506C141.053 109.548 141.053 109.616 141.053 109.791C141.095 110.438 141.095 111.104 141.095 111.732C141.095 111.784 141.095 111.832 141.095 111.881C141.098 112.028 141.075 112.175 141.027 112.314C140.902 112.605 140.703 112.858 140.451 113.049C139.947 113.515 139.749 113.673 139.63 113.767C139.584 113.801 139.541 113.837 139.5 113.877C139.292 114.046 139.137 114.27 139.051 114.524C138.967 114.923 138.936 115.331 138.957 115.737V115.909C138.957 116.349 138.989 116.951 138.957 117.75C138.957 117.908 139.018 117.934 139.167 117.934C139.536 117.934 140.477 117.934 140.477 117.934C140.746 117.934 141.005 117.934 141.257 117.934H141.639C141.752 117.934 141.791 117.918 141.817 117.86C141.839 117.783 141.846 117.703 141.839 117.624C141.84 117.541 141.831 117.458 141.813 117.378C141.775 117.274 141.775 117.274 141.626 117.274C140.584 117.274 140.312 117.274 140.196 117.274H140.125H139.931H139.743H139.681V117.216C139.681 117.216 139.681 115.656 139.681 115.194C139.691 115.003 139.745 114.818 139.84 114.652C139.935 114.487 140.068 114.347 140.228 114.243C140.309 114.168 140.396 114.091 140.477 114.006C140.558 113.922 140.726 113.754 140.849 113.631C141.367 113.126 141.852 112.661 141.852 111.958C141.852 111.852 141.852 111.635 141.852 111.415C141.852 111.195 141.852 111.017 141.852 110.842C141.813 109.804 141.813 109.652 141.813 109.487C141.813 109.018 141.39 108.442 140.93 108.442C140.759 108.411 140.586 108.392 140.413 108.387C140.181 108.379 139.951 108.424 139.74 108.519C139.528 108.614 139.341 108.756 139.193 108.933C139.059 109.318 139.006 109.727 139.038 110.134V110.224C139.038 111.069 139.038 111.24 139.038 111.295V111.318C139.038 111.353 139.109 111.396 139.306 111.396C139.449 111.397 139.592 111.387 139.733 111.366C139.733 111.366 139.766 111.366 139.766 111.344C139.766 111.117 139.766 110.881 139.766 110.651C139.766 110.422 139.766 110.231 139.766 110.046C139.766 109.593 139.766 109.076 140.477 109.047L140.458 109.021Z" fill="white"/>
<path d="M79.1935 113.243C79.3291 113.298 79.4539 113.377 79.5623 113.476C79.7582 113.755 79.8591 114.09 79.8502 114.43V115.32C79.8082 116.232 79.9732 117.093 79.5073 117.666L79.4135 117.75C79.1079 117.947 78.7514 118.05 78.3879 118.047C78.2601 118.052 78.1321 118.043 78.0061 118.022C77.7641 117.996 77.5357 117.897 77.3508 117.739C77.166 117.581 77.0335 117.37 76.9708 117.135C76.9361 116.95 76.9177 116.763 76.9158 116.575C76.9158 115.864 76.9158 115.495 76.9158 115.032C76.9158 114.883 77.3655 114.909 77.5014 114.909C77.5532 114.903 77.6058 114.912 77.6521 114.936C77.6984 114.961 77.7361 114.999 77.7602 115.045V115.155C77.7602 115.524 77.7893 115.893 77.7893 116.3C77.7893 116.876 77.7893 117.297 78.4008 117.297C78.4748 117.306 78.55 117.3 78.6211 117.277C78.6922 117.254 78.7575 117.216 78.8124 117.166C78.8673 117.115 78.9105 117.053 78.9388 116.984C78.9672 116.915 78.9801 116.841 78.9767 116.766L79.0155 115.427L78.9767 114.391C78.9605 114.336 78.9346 113.871 78.7308 113.744C78.5934 113.618 78.4126 113.55 78.2261 113.554C78.1302 113.561 78.034 113.561 77.9381 113.554C77.7731 113.554 77.7731 113.46 77.7731 113.295C77.7731 113.269 77.7731 113.269 77.7731 112.939C77.7731 112.761 78.1549 112.79 78.2617 112.79C78.3725 112.785 78.4817 112.762 78.5852 112.722C78.9087 112.599 78.9249 112.324 78.9799 111.958C79.009 111.289 78.9605 111.03 78.9799 109.771C78.992 109.599 78.9643 109.427 78.899 109.267C78.7843 109.16 78.6322 109.101 78.4752 109.105H78.3523C78.0514 109.105 77.7667 109.173 77.7667 109.597C77.7667 110.14 77.7667 110.891 77.7667 111.315C77.7375 111.451 77.5467 111.438 77.4108 111.438C77.2749 111.438 76.987 111.438 76.9319 111.26V111.137C76.9319 110.891 76.9319 110.674 76.9319 110.441C76.9092 110.068 76.9146 109.694 76.9481 109.322C76.9481 108.558 77.8476 108.299 78.3523 108.299C78.4799 108.301 78.6073 108.31 78.734 108.325C79.3358 108.387 79.7046 108.885 79.7985 109.5L79.8276 109.894C79.8276 111.137 79.8276 111.548 79.7985 112.447C79.7773 112.621 79.7101 112.787 79.6038 112.927C79.4975 113.067 79.3558 113.176 79.1935 113.243Z" fill="white"/>
<path d="M78.4007 118.122C78.2685 118.126 78.1362 118.117 78.006 118.093C77.7534 118.063 77.5153 117.959 77.3227 117.793C77.1301 117.627 76.9917 117.407 76.9254 117.161C76.8901 116.972 76.8707 116.781 76.8672 116.588C76.8672 116.145 76.8672 115.831 76.8672 115.553C76.8672 115.382 76.8672 115.23 76.8672 115.045C76.8676 115.027 76.8715 115.01 76.8788 114.994C76.886 114.978 76.8963 114.963 76.9092 114.951C76.9998 114.861 77.2328 114.857 77.4593 114.861H77.5143C77.5788 114.853 77.6443 114.865 77.702 114.895C77.7597 114.925 77.807 114.972 77.8378 115.029V115.055V115.165C77.8378 115.343 77.8378 115.521 77.8378 115.705C77.8378 115.89 77.8378 116.1 77.8378 116.31C77.8378 116.957 77.8604 117.248 78.391 117.248C78.4571 117.258 78.5244 117.252 78.5881 117.232C78.6518 117.212 78.7103 117.178 78.7595 117.133C78.8086 117.088 78.8472 117.033 78.8724 116.971C78.8977 116.909 78.9089 116.843 78.9055 116.776L78.9475 115.437L78.9055 114.401C78.9041 114.386 78.9041 114.371 78.9055 114.356C78.8893 114.23 78.844 113.893 78.6919 113.796C78.6293 113.735 78.5548 113.687 78.4731 113.655C78.3913 113.623 78.304 113.609 78.2163 113.612C78.1313 113.62 78.0457 113.62 77.9607 113.612H77.9349C77.7116 113.612 77.7116 113.447 77.7116 113.288C77.7116 113.259 77.7116 113.259 77.7116 112.932C77.7103 112.89 77.7254 112.848 77.7537 112.816C77.8939 112.73 78.0602 112.697 78.2228 112.722H78.2616C78.3723 112.719 78.4817 112.697 78.5852 112.657C78.8537 112.557 78.8828 112.334 78.9281 112.01V111.929C78.9281 111.606 78.9281 111.383 78.9281 111.091C78.9281 110.8 78.9119 110.399 78.9281 109.752C78.9362 109.594 78.912 109.435 78.8569 109.286C78.7549 109.192 78.6204 109.141 78.4816 109.144H78.3587C77.9834 109.144 77.8313 109.27 77.8313 109.577C77.8313 109.956 77.8313 110.448 77.8313 110.839C77.8313 111.011 77.8313 111.163 77.8313 111.295C77.7957 111.48 77.5887 111.48 77.4496 111.48H77.4301C77.291 111.48 76.9675 111.48 76.8963 111.26V111.117C76.8963 110.994 76.8963 110.875 76.8963 110.758C76.8963 110.642 76.8963 110.535 76.8963 110.435C76.8721 110.06 76.8721 109.684 76.8963 109.309C76.8963 108.526 77.7957 108.231 78.3619 108.231C78.4831 108.233 78.6041 108.242 78.7243 108.257H78.7502C79.3261 108.316 79.7434 108.772 79.8696 109.48L79.8955 109.881C79.8955 110.36 79.8955 110.71 79.8955 111.017C79.8955 111.519 79.8955 111.881 79.8728 112.441C79.8477 112.605 79.7866 112.762 79.6937 112.9C79.6009 113.038 79.4786 113.154 79.3358 113.24C79.4344 113.283 79.5234 113.346 79.5978 113.424C79.7996 113.714 79.9049 114.061 79.8987 114.414V115.32C79.8987 115.547 79.8987 115.77 79.8987 115.967C79.8987 116.614 79.8987 117.239 79.5493 117.688L79.4458 117.779C79.1387 117.993 78.7752 118.113 78.4007 118.122ZM77.3363 114.997C77.2107 114.984 77.084 115.003 76.9675 115.052C76.9675 115.236 76.9675 115.395 76.9675 115.566C76.9675 115.844 76.9837 116.161 76.9675 116.605C76.9696 116.789 76.988 116.973 77.0225 117.155C77.0848 117.377 77.2121 117.575 77.3879 117.724C77.5637 117.874 77.78 117.967 78.0093 117.992C78.1321 118.014 78.2568 118.023 78.3813 118.018C78.7326 118.023 79.0772 117.923 79.3713 117.73L79.4619 117.65C79.7855 117.245 79.7855 116.679 79.7855 116.012C79.7855 115.796 79.7855 115.572 79.7855 115.346V114.447C79.7894 114.122 79.6958 113.805 79.5169 113.534C79.4447 113.46 79.3576 113.401 79.2613 113.363L79.1611 113.311L79.009 113.227L79.1837 113.201C79.3352 113.139 79.4681 113.039 79.5691 112.91C79.67 112.781 79.7357 112.628 79.7596 112.467C79.7855 111.91 79.7855 111.548 79.7822 111.046C79.7822 110.739 79.7822 110.399 79.7822 109.914L79.7564 109.522C79.6399 108.875 79.2646 108.458 78.7469 108.406H78.7243C78.6084 108.391 78.4917 108.383 78.3749 108.38C77.854 108.38 77.029 108.642 77.029 109.351C77.0049 109.724 77.0049 110.098 77.029 110.47C77.029 110.587 77.029 110.697 77.029 110.81C77.029 110.923 77.029 111.043 77.029 111.166V111.279C77.0742 111.392 77.2748 111.409 77.4463 111.409H77.4819C77.621 111.409 77.7278 111.409 77.744 111.334C77.7601 111.26 77.744 111.059 77.744 110.888C77.744 110.496 77.744 110.008 77.744 109.626C77.744 109.131 78.1128 109.073 78.391 109.073H78.514C78.5992 109.071 78.684 109.086 78.7634 109.117C78.8428 109.148 78.9153 109.195 78.9766 109.254V109.27C79.0469 109.439 79.0768 109.622 79.064 109.804C79.064 110.451 79.064 110.829 79.064 111.14C79.064 111.451 79.064 111.661 79.064 111.988V112.075C79.0155 112.415 78.9766 112.68 78.6402 112.806C78.5285 112.849 78.4104 112.874 78.2907 112.877H78.2519C78.1646 112.877 77.9284 112.877 77.8701 112.936C77.8664 112.945 77.8664 112.955 77.8701 112.965C77.8701 113.288 77.8701 113.288 77.8701 113.324C77.8701 113.508 77.8701 113.524 77.9737 113.524H78.006C78.0889 113.531 78.1722 113.531 78.2552 113.524C78.4599 113.52 78.6584 113.595 78.8084 113.735C78.9928 113.854 79.0413 114.214 79.0608 114.382C79.059 114.397 79.059 114.412 79.0608 114.427L79.1028 115.479L79.0608 116.818C79.0649 116.902 79.0505 116.985 79.0186 117.063C78.9868 117.14 78.9382 117.21 78.8764 117.266C78.8146 117.323 78.7411 117.365 78.6611 117.39C78.5811 117.415 78.4966 117.422 78.4137 117.41C77.7407 117.41 77.7407 116.922 77.7407 116.352C77.7407 116.145 77.7407 115.945 77.7407 115.75C77.7407 115.556 77.7407 115.388 77.7407 115.207V115.113C77.7199 115.08 77.6899 115.053 77.6543 115.036C77.6187 115.02 77.5791 115.014 77.5401 115.019H77.3881L77.3363 114.997Z" fill="white"/>
<path d="M80.9567 116.711C80.9405 114.964 80.9567 113.68 80.9567 112.738C80.9405 110.406 81.0085 110.088 81.0085 109.775C81.0085 108.765 81.4064 108.481 82.102 108.328C82.2281 108.307 82.356 108.298 82.4838 108.303C83.0306 108.303 83.9171 108.519 83.9171 109.38C83.9171 111.101 83.9171 116.465 83.9171 116.465C83.9171 117.488 83.5223 118.06 82.445 118.06C81.7623 118.06 80.9567 117.747 80.9567 116.711ZM83.0565 113.858C83.0565 112.641 83.0856 109.804 83.0856 109.6C83.0856 109.176 82.7426 109.108 82.4385 109.108C81.9597 109.108 81.8238 109.27 81.8076 109.755V116.812C81.8076 117.167 82.0697 117.303 82.3964 117.303C82.7782 117.303 83.0112 117.019 83.0112 116.582L83.0565 113.858Z" fill="white"/>
<path d="M82.4579 118.122C82.0923 118.122 80.8952 118.018 80.8952 116.711C80.8952 115.482 80.8952 114.479 80.8952 113.673C80.8952 113.327 80.8952 113.026 80.8952 112.738C80.8952 111.007 80.9211 110.386 80.9405 110.053C80.9405 109.936 80.9405 109.856 80.9405 109.775C80.9405 108.726 81.3579 108.429 82.0793 108.27C82.2095 108.247 82.3418 108.237 82.474 108.241C83.1632 108.241 83.9688 108.539 83.9688 109.38C83.9688 111.082 83.9688 116.41 83.9688 116.465C83.9914 117.585 83.5029 118.122 82.4579 118.122ZM82.4838 108.361C82.3603 108.357 82.2367 108.366 82.1149 108.387C81.4355 108.535 81.0699 108.801 81.0699 109.775C81.0699 109.859 81.0699 109.94 81.0699 110.059C81.0537 110.383 81.0181 111.011 81.0278 112.738C81.0278 113.02 81.0278 113.33 81.0278 113.673C81.0278 114.479 81.0278 115.482 81.0278 116.711C81.0278 117.908 82.1311 118.005 82.4708 118.005C83.4414 118.005 83.8847 117.53 83.8847 116.469C83.8847 116.414 83.8847 111.085 83.8847 109.383C83.8588 108.39 82.6261 108.361 82.4838 108.361ZM82.4029 117.371C81.992 117.371 81.7558 117.171 81.7558 116.818V109.762C81.7558 109.228 81.9435 109.047 82.4449 109.047C82.9464 109.047 83.1438 109.234 83.1438 109.6C83.1438 109.658 83.1438 109.943 83.1438 110.344C83.1438 111.334 83.1244 112.997 83.1244 113.858L83.0823 116.588C83.0758 117.064 82.8105 117.371 82.4029 117.371ZM82.4449 109.173C82.0114 109.173 81.8885 109.302 81.8755 109.771V116.824C81.8755 117.184 82.1602 117.258 82.4029 117.258C82.7458 117.258 82.9561 117.002 82.9561 116.595L82.9982 113.864C82.9982 113.004 82.9982 111.341 83.0208 110.347C83.0208 109.946 83.0208 109.665 83.0208 109.606C83.0241 109.299 82.8461 109.173 82.4449 109.173Z" fill="white"/>
<path d="M53.0357 105.184C53.1709 105.24 53.2956 105.319 53.4045 105.417C53.5974 105.697 53.6971 106.031 53.6892 106.371V107.274C53.6504 108.186 53.8122 109.047 53.3495 109.619L53.2524 109.703C52.9483 109.901 52.5927 110.005 52.2301 110.001C52.1023 110.005 51.9744 109.997 51.8483 109.975C51.6061 109.949 51.3773 109.851 51.192 109.692C51.0067 109.534 50.8735 109.324 50.8098 109.089C50.7767 108.904 50.7583 108.717 50.7548 108.529C50.7548 107.817 50.7548 107.448 50.7548 106.986C50.7548 106.837 51.2045 106.863 51.3436 106.863C51.3954 106.857 51.4478 106.866 51.494 106.891C51.5402 106.915 51.578 106.953 51.6024 106.999V107.109C51.6024 107.477 51.6283 107.846 51.6283 108.254C51.6283 108.83 51.6283 109.25 52.243 109.25C52.3168 109.259 52.3916 109.252 52.4623 109.229C52.5331 109.207 52.5979 109.168 52.6524 109.118C52.707 109.067 52.7498 109.006 52.778 108.937C52.8062 108.868 52.819 108.794 52.8157 108.72L52.8577 107.38L52.8157 106.345C52.8157 106.29 52.7769 105.824 52.5698 105.698C52.4324 105.572 52.2516 105.503 52.0651 105.507C51.9703 105.514 51.8751 105.514 51.7804 105.507C51.6154 105.507 51.6154 105.413 51.6154 105.248C51.6154 105.219 51.6154 105.219 51.6154 104.892C51.6154 104.714 51.9971 104.744 52.1071 104.744C52.2179 104.738 52.3272 104.715 52.4307 104.676C52.7542 104.553 52.7736 104.278 52.8286 103.909C52.8545 103.242 52.806 102.984 52.8286 101.725C52.8397 101.553 52.8109 101.38 52.7445 101.22C52.6313 101.113 52.48 101.055 52.3239 101.059H52.1945C51.8936 101.059 51.6057 101.126 51.6057 101.55C51.6057 102.094 51.6057 102.844 51.6057 103.268C51.5798 103.404 51.3889 103.391 51.2498 103.391C51.1106 103.391 50.8292 103.391 50.7742 103.213V103.09C50.7742 102.844 50.7742 102.628 50.7742 102.395C50.7499 102.022 50.7499 101.648 50.7742 101.275C50.7742 100.512 51.6768 100.253 52.1816 100.253C52.3092 100.255 52.4366 100.264 52.5633 100.279C53.1619 100.34 53.5177 100.839 53.6277 101.453L53.6536 101.848C53.6536 103.09 53.6536 103.501 53.6277 104.401C53.6056 104.571 53.5394 104.733 53.4356 104.871C53.3318 105.008 53.1939 105.116 53.0357 105.184Z" fill="white"/>
<path d="M52.2301 110.063C52.0978 110.067 51.9655 110.057 51.8353 110.033C51.5823 110.004 51.3437 109.9 51.1505 109.734C50.9573 109.568 50.8184 109.348 50.7515 109.102C50.717 108.913 50.6986 108.721 50.6965 108.529C50.6965 108.086 50.6965 107.772 50.6965 107.494C50.6965 107.322 50.6965 107.17 50.6965 106.986C50.6963 106.968 50.6997 106.951 50.7063 106.935C50.713 106.919 50.7229 106.904 50.7353 106.892C50.8259 106.801 51.0589 106.798 51.2853 106.801H51.3436C51.4082 106.794 51.4736 106.806 51.5313 106.836C51.589 106.866 51.6363 106.912 51.6671 106.97V106.995V107.105C51.6671 107.283 51.6671 107.461 51.6671 107.646C51.6671 107.83 51.6833 108.04 51.6833 108.251C51.6833 108.898 51.7059 109.189 52.2365 109.189C52.3025 109.198 52.3696 109.192 52.433 109.172C52.4965 109.151 52.5547 109.118 52.6037 109.073C52.6528 109.028 52.6913 108.972 52.7168 108.911C52.7422 108.849 52.7539 108.783 52.7509 108.717L52.7898 107.377L52.7509 106.342V106.297C52.7509 106.17 52.6895 105.834 52.5406 105.734C52.4116 105.614 52.2411 105.549 52.0651 105.553C51.979 105.56 51.8923 105.56 51.8062 105.553H51.7836C51.5603 105.553 51.5603 105.391 51.5603 105.229C51.5603 105.2 51.5603 105.2 51.5603 104.87C51.5588 104.849 51.5618 104.828 51.5691 104.809C51.5763 104.789 51.5877 104.771 51.6024 104.757C51.6897 104.663 51.8903 104.66 52.0715 104.663H52.1103C52.221 104.659 52.3303 104.637 52.4339 104.598C52.6992 104.498 52.7315 104.275 52.7768 103.951V103.87C52.7768 103.547 52.7768 103.323 52.7768 103.032C52.7768 102.741 52.7768 102.34 52.7768 101.693C52.7883 101.534 52.7651 101.375 52.7089 101.227C52.6064 101.134 52.4722 101.083 52.3336 101.084H52.1945C51.8192 101.084 51.6671 101.211 51.6671 101.518C51.6671 101.897 51.6671 102.388 51.6671 102.78V103.236C51.6283 103.42 51.4212 103.42 51.2853 103.42H51.2497C51.1139 103.42 50.7903 103.42 50.7159 103.2V103.058C50.7159 102.935 50.7159 102.815 50.7159 102.699C50.7159 102.586 50.7159 102.476 50.7159 102.375C50.6894 102.001 50.6894 101.624 50.7159 101.249C50.7159 100.467 51.6153 100.172 52.1815 100.172C52.3027 100.174 52.4236 100.183 52.5439 100.198H52.5698C53.1424 100.256 53.5598 100.712 53.686 101.421L53.7151 101.822C53.7151 102.301 53.7151 102.65 53.7151 102.958C53.7151 103.459 53.7151 103.822 53.6892 104.381C53.6648 104.546 53.6039 104.703 53.511 104.842C53.4181 104.98 53.2955 105.096 53.1521 105.18C53.2517 105.224 53.3418 105.287 53.4174 105.365C53.6192 105.655 53.7245 106.001 53.7183 106.355V107.261C53.7183 107.487 53.7183 107.707 53.7183 107.924C53.7183 108.571 53.7183 109.196 53.3689 109.645L53.2654 109.736C52.9589 109.942 52.5994 110.056 52.2301 110.063ZM51.1753 106.908C51.0497 106.896 50.923 106.914 50.8065 106.963C50.8065 107.148 50.8065 107.306 50.8065 107.478C50.8065 107.756 50.8065 108.073 50.8065 108.516C50.8089 108.701 50.8262 108.884 50.8583 109.066C50.92 109.294 51.0502 109.498 51.2312 109.65C51.4122 109.802 51.6355 109.895 51.8709 109.917C52.3417 109.994 52.8245 109.901 53.233 109.655L53.3236 109.574C53.6471 109.166 53.6471 108.603 53.6471 107.937C53.6471 107.72 53.6471 107.497 53.6471 107.27V106.371C53.6499 106.047 53.5564 105.73 53.3786 105.459C53.3046 105.385 53.2166 105.327 53.1198 105.287L53.0227 105.235L52.8674 105.151L53.0421 105.125C53.1945 105.064 53.3281 104.964 53.4297 104.836C53.5313 104.707 53.5974 104.553 53.6213 104.391C53.6439 103.835 53.6439 103.472 53.6439 102.971C53.6439 102.663 53.6439 102.324 53.6439 101.838L53.618 101.447C53.5015 100.8 53.123 100.382 52.6054 100.327H52.5795C52.4635 100.313 52.3469 100.304 52.2301 100.302C51.7092 100.302 50.8841 100.564 50.8841 101.272C50.8563 101.645 50.8563 102.019 50.8841 102.392C50.8841 102.508 50.8841 102.618 50.8841 102.731C50.8841 102.845 50.8841 102.964 50.8841 103.087V103.2C50.9327 103.314 51.1333 103.33 51.3015 103.33H51.3371C51.4795 103.33 51.5862 103.33 51.5992 103.255C51.6121 103.181 51.5992 102.98 51.5992 102.809C51.5992 102.417 51.5992 101.929 51.5992 101.547C51.5992 101.052 51.968 100.994 52.2462 100.994H52.3692C52.4544 100.992 52.5392 101.007 52.6186 101.038C52.698 101.069 52.7705 101.116 52.8318 101.175C52.9027 101.345 52.9337 101.529 52.9224 101.712C52.9224 102.359 52.9224 102.738 52.9224 103.045C52.9224 103.352 52.9224 103.569 52.9224 103.896V103.983C52.8739 104.307 52.8383 104.588 52.5018 104.715C52.3902 104.758 52.2721 104.782 52.1524 104.786H52.1103C52.023 104.786 51.7868 104.786 51.7318 104.844C51.7295 104.848 51.7283 104.853 51.7283 104.859C51.7283 104.864 51.7295 104.869 51.7318 104.873C51.7318 105.197 51.7318 105.197 51.7318 105.232C51.7318 105.413 51.7318 105.433 51.8386 105.433H51.8709C51.9528 105.44 52.035 105.44 52.1168 105.433C52.3226 105.428 52.5221 105.503 52.6733 105.643C52.8577 105.763 52.9062 106.122 52.9256 106.29C52.9256 106.313 52.9256 106.329 52.9256 106.335L52.9677 107.387L52.9289 108.726C52.933 108.81 52.9186 108.894 52.8868 108.971C52.8549 109.049 52.8063 109.118 52.7445 109.175C52.6828 109.231 52.6092 109.273 52.5293 109.298C52.4493 109.323 52.3648 109.33 52.2818 109.318C51.6089 109.318 51.6089 108.827 51.6089 108.26C51.6089 108.053 51.6089 107.853 51.5927 107.659C51.5765 107.465 51.5927 107.296 51.5927 107.115V107.021C51.5727 106.988 51.5433 106.961 51.5082 106.945C51.4731 106.928 51.4338 106.922 51.3953 106.928H51.24L51.1753 106.908Z" fill="white"/>
<path d="M57.7301 107.274C57.6913 108.186 57.8531 109.047 57.3904 109.619L57.2933 109.703C56.9891 109.901 56.6336 110.004 56.271 110.001C56.1432 110.005 56.0153 109.997 55.8892 109.975C55.647 109.949 55.4182 109.851 55.2329 109.692C55.0476 109.534 54.9144 109.324 54.8507 109.089C54.8114 108.903 54.7887 108.715 54.7827 108.526C54.7827 107.814 54.7827 107.445 54.7827 106.982C54.7827 106.834 55.2324 106.86 55.3683 106.86C55.4206 106.853 55.4738 106.862 55.5206 106.886C55.5675 106.911 55.6057 106.949 55.6304 106.995V107.105C55.6304 107.474 55.6563 107.843 55.6563 108.251C55.6563 108.827 55.6563 109.247 56.271 109.247C56.3447 109.256 56.4196 109.249 56.4903 109.226C56.561 109.203 56.6259 109.165 56.6804 109.115C56.7349 109.064 56.7778 109.002 56.806 108.934C56.8341 108.865 56.847 108.791 56.8436 108.717L56.8857 107.377C56.8695 105.821 56.7498 105.507 56.0671 105.507H55.0545C54.9607 105.536 54.9057 105.507 54.8765 105.452C54.8416 105.39 54.8323 105.317 54.8507 105.248C54.8086 103.98 54.7957 102.696 54.8086 101.249V100.525C54.8051 100.502 54.8071 100.479 54.8144 100.458C54.8217 100.437 54.8342 100.417 54.8507 100.402C54.8572 100.394 54.8656 100.387 54.8751 100.382C54.8846 100.378 54.8951 100.376 54.9057 100.376C55.6142 100.376 56.326 100.376 57.1704 100.376C57.4033 100.376 57.7431 100.334 57.7431 100.661C57.7431 100.758 57.7431 100.881 57.7431 100.984V101.084C57.7431 101.22 56.8825 101.182 56.7886 101.182C56.3519 101.182 55.7501 101.182 55.708 101.182C55.708 102.152 55.7242 104.74 55.7242 104.74C55.928 104.724 56.1739 104.724 56.3519 104.724C56.9375 104.724 57.5101 104.957 57.6751 105.585C57.681 105.603 57.681 105.622 57.6751 105.64C57.728 105.946 57.7507 106.257 57.7431 106.568L57.7301 107.274Z" fill="white"/>
<path d="M56.271 110.063C56.1387 110.067 56.0064 110.058 55.8763 110.033C55.623 110.005 55.3843 109.9 55.191 109.734C54.9977 109.568 54.8589 109.348 54.7924 109.102C54.7579 108.913 54.7395 108.721 54.7374 108.529C54.7374 108.086 54.7374 107.772 54.7374 107.494C54.7374 107.322 54.7374 107.17 54.7374 106.986C54.7372 106.968 54.7406 106.951 54.7472 106.935C54.7539 106.919 54.7638 106.904 54.7762 106.892C54.8668 106.801 55.0998 106.798 55.3262 106.801H55.3812C55.4458 106.794 55.5113 106.806 55.569 106.836C55.6267 106.866 55.674 106.912 55.7048 106.97V106.995V107.105C55.7048 107.283 55.7048 107.461 55.7048 107.646C55.7048 107.83 55.7048 108.04 55.7048 108.251C55.7048 108.898 55.7307 109.189 56.2613 109.189C56.3273 109.198 56.3943 109.192 56.4578 109.172C56.5212 109.151 56.5795 109.118 56.6285 109.073C56.6775 109.028 56.7161 108.972 56.7415 108.911C56.7669 108.849 56.7786 108.783 56.7757 108.717L56.8145 107.377C56.8145 105.837 56.6883 105.569 56.0574 105.569H55.0545C55.0108 105.586 54.9622 105.587 54.9181 105.571C54.8739 105.555 54.8372 105.523 54.8151 105.481C54.7729 105.408 54.7613 105.321 54.7827 105.239C54.7406 103.964 54.7277 102.692 54.7406 101.25V100.525C54.7366 100.493 54.7406 100.46 54.7525 100.43C54.7644 100.4 54.7837 100.374 54.8086 100.353C54.8196 100.341 54.8331 100.332 54.8483 100.326C54.8634 100.32 54.8797 100.317 54.8959 100.318H55.9313C56.3163 100.318 56.7142 100.318 57.1477 100.318H57.2189C57.3843 100.291 57.5536 100.329 57.6913 100.424C57.7219 100.456 57.7457 100.494 57.7613 100.535C57.7768 100.576 57.7839 100.62 57.7819 100.664C57.7819 100.712 57.7819 100.767 57.7819 100.822C57.7819 100.877 57.7819 100.936 57.7819 100.994V101.084C57.7823 101.098 57.78 101.111 57.7749 101.123C57.7699 101.135 57.7624 101.147 57.7528 101.156C57.6751 101.23 57.4066 101.256 56.8307 101.243H56.7692C56.4457 101.243 56.0024 101.243 55.7986 101.243H55.7533C55.7533 102.159 55.7533 104.291 55.7533 104.682C55.9442 104.682 56.161 104.682 56.3227 104.682C57.0442 104.682 57.5457 105.006 57.701 105.575C57.7152 105.6 57.7219 105.628 57.7204 105.656C57.7713 105.963 57.7941 106.274 57.7883 106.585V107.309C57.7883 107.536 57.7883 107.756 57.7883 107.973C57.7883 108.62 57.7883 109.244 57.4389 109.694L57.3354 109.784C57.0148 109.978 56.6452 110.074 56.271 110.063ZM55.2162 106.908C55.0906 106.896 54.9639 106.914 54.8474 106.963C54.8474 107.148 54.8474 107.306 54.8474 107.478C54.8474 107.756 54.8474 108.073 54.8474 108.516C54.8498 108.701 54.8671 108.884 54.8992 109.066C54.9615 109.288 55.0888 109.487 55.2646 109.636C55.4404 109.785 55.6567 109.879 55.886 109.904C56.0099 109.925 56.1356 109.934 56.2613 109.93C56.6115 109.934 56.9549 109.834 57.248 109.642L57.3419 109.561C57.6654 109.153 57.6654 108.591 57.6654 107.924C57.6654 107.71 57.6654 107.484 57.6654 107.258V106.536C57.6723 106.228 57.6496 105.921 57.5975 105.617C57.5997 105.608 57.5997 105.598 57.5975 105.588C57.4066 104.85 56.6495 104.773 56.3324 104.773C56.1545 104.773 55.9118 104.773 55.708 104.773H55.6433V104.711C55.6433 104.711 55.6433 102.123 55.6433 101.152V101.084H55.8148C56.0186 101.084 56.4619 101.084 56.7854 101.084H56.8501C57.1278 101.121 57.41 101.105 57.6816 101.036V100.952C57.6816 100.894 57.6816 100.832 57.6816 100.774C57.6816 100.716 57.6816 100.667 57.6816 100.622C57.6838 100.594 57.6803 100.566 57.6714 100.539C57.6625 100.512 57.6484 100.488 57.6298 100.467C57.5114 100.398 57.3731 100.373 57.2383 100.395H57.1672H55.9507H54.9154L54.8927 100.415C54.8927 100.415 54.8927 100.46 54.8927 100.486V101.211C54.8927 102.654 54.8927 103.922 54.9315 105.21C54.916 105.266 54.9217 105.326 54.9477 105.378C54.9477 105.404 54.9768 105.436 55.0609 105.413H56.0768C56.8307 105.413 56.9407 105.824 56.9536 107.355L56.9116 108.694C56.9163 108.778 56.9023 108.862 56.8706 108.939C56.839 109.017 56.7904 109.087 56.7285 109.144C56.6665 109.2 56.5928 109.242 56.5125 109.267C56.4323 109.292 56.3476 109.298 56.2645 109.286C55.5915 109.286 55.5915 108.794 55.5915 108.228C55.5915 108.021 55.5915 107.82 55.5754 107.626C55.5592 107.432 55.5754 107.264 55.5754 107.083V106.989C55.5548 106.955 55.5249 106.929 55.4892 106.912C55.4535 106.895 55.4137 106.889 55.3748 106.895H55.2227L55.2162 106.908Z" fill="white"/>
<path d="M153.784 66.0973C146.249 59.2287 137.753 56.3719 125.427 58.1966C128.306 56.4463 133.036 54.3886 141.5 53.5054C138.588 52.8389 133.735 51.8618 128.148 52.5348C124.44 52.9961 120.791 53.8441 117.261 55.0648C115.295 55.7729 113.394 56.6463 111.576 57.6757C109.761 56.6443 107.863 55.7677 105.901 55.0551C102.37 53.8344 98.7216 52.9864 95.0143 52.5251C89.4398 51.878 84.5868 52.8486 81.6653 53.4957C90.2228 54.3886 94.9658 56.4851 97.842 58.2484C85.2921 56.3072 76.6925 59.1446 69.0765 66.0876C77.5984 63.3149 88.9804 62.1502 95.5287 64.5379C92.7884 66.8641 90.5819 70.6042 89.9284 76.8678C96.2146 68.6985 102.815 66.0973 111.44 65.845C120.062 66.0973 126.662 68.6985 132.949 76.8678C132.302 70.6042 130.089 66.8641 127.348 64.5379C133.884 62.1599 145.266 63.3246 153.784 66.0973Z" fill="#0BCDAA"/>
<path d="M111.476 107.448C111.192 107.448 110.919 107.336 110.719 107.135C110.518 106.934 110.405 106.662 110.405 106.378V103.071C110.42 102.797 110.54 102.539 110.739 102.35C110.938 102.161 111.203 102.056 111.477 102.056C111.752 102.056 112.016 102.161 112.216 102.35C112.415 102.539 112.535 102.797 112.55 103.071V106.378C112.549 106.662 112.436 106.934 112.234 107.135C112.033 107.336 111.76 107.448 111.476 107.448Z" fill="white"/>
<path d="M117.704 106.309C117.641 106.309 117.579 106.297 117.521 106.273C117.463 106.249 117.411 106.214 117.366 106.169C117.322 106.125 117.287 106.072 117.263 106.014C117.24 105.956 117.228 105.893 117.228 105.831V102.527C117.228 102.401 117.278 102.28 117.367 102.191C117.457 102.102 117.578 102.052 117.704 102.052C117.83 102.052 117.951 102.102 118.04 102.191C118.129 102.28 118.179 102.401 118.179 102.527V105.831C118.18 105.893 118.168 105.956 118.144 106.014C118.12 106.072 118.085 106.125 118.041 106.169C117.997 106.214 117.944 106.249 117.887 106.273C117.829 106.297 117.766 106.309 117.704 106.309Z" fill="white"/>
<path d="M123.896 106.038C123.77 106.038 123.649 105.988 123.56 105.899C123.471 105.809 123.421 105.688 123.421 105.562V102.256C123.421 102.13 123.471 102.009 123.56 101.919C123.649 101.83 123.77 101.78 123.896 101.78C124.022 101.78 124.143 101.83 124.233 101.919C124.322 102.009 124.372 102.13 124.372 102.256V105.562C124.372 105.688 124.322 105.809 124.233 105.899C124.143 105.988 124.022 106.038 123.896 106.038Z" fill="white"/>
<path d="M130.089 105.565C130.026 105.565 129.964 105.553 129.907 105.529C129.849 105.505 129.796 105.47 129.752 105.426C129.708 105.382 129.673 105.329 129.649 105.272C129.625 105.214 129.613 105.152 129.613 105.09V101.783C129.623 101.663 129.677 101.552 129.766 101.47C129.854 101.389 129.97 101.344 130.09 101.344C130.21 101.344 130.326 101.389 130.415 101.47C130.503 101.552 130.558 101.663 130.567 101.783V105.09C130.567 105.153 130.555 105.215 130.531 105.273C130.507 105.33 130.472 105.383 130.427 105.427C130.383 105.471 130.33 105.506 130.272 105.53C130.214 105.554 130.151 105.566 130.089 105.565Z" fill="white"/>
<path d="M136.281 104.967C136.155 104.967 136.034 104.917 135.945 104.828C135.856 104.738 135.806 104.617 135.806 104.491V101.175C135.815 101.055 135.87 100.944 135.958 100.862C136.047 100.781 136.163 100.736 136.283 100.736C136.403 100.736 136.519 100.781 136.607 100.862C136.696 100.944 136.75 101.055 136.76 101.175V104.482C136.761 104.545 136.75 104.608 136.726 104.667C136.703 104.726 136.668 104.78 136.623 104.825C136.578 104.871 136.525 104.906 136.466 104.931C136.408 104.955 136.345 104.967 136.281 104.967Z" fill="white"/>
<path d="M80.4908 105.268C80.2065 105.267 79.9341 105.153 79.7334 104.952C79.5326 104.751 79.4199 104.478 79.4199 104.194V100.89C79.4199 100.606 79.5328 100.334 79.7336 100.133C79.9344 99.9323 80.2068 99.8195 80.4908 99.8195C80.7748 99.8195 81.0472 99.9323 81.2481 100.133C81.4489 100.334 81.5617 100.606 81.5617 100.89V104.194C81.5617 104.478 81.449 104.751 81.2483 104.952C81.0475 105.153 80.7751 105.267 80.4908 105.268Z" fill="white"/>
<path d="M75.2431 103.058C75.1806 103.058 75.1188 103.046 75.061 103.022C75.0033 102.998 74.9509 102.963 74.9068 102.919C74.8626 102.875 74.8276 102.822 74.8037 102.764C74.7798 102.707 74.7675 102.645 74.7675 102.582V99.2759C74.7773 99.1562 74.8319 99.0445 74.9203 98.963C75.0087 98.8816 75.1245 98.8364 75.2447 98.8364C75.3649 98.8364 75.4806 98.8816 75.5691 98.963C75.6575 99.0445 75.712 99.1562 75.7219 99.2759V102.582C75.7219 102.645 75.7095 102.707 75.6854 102.765C75.6613 102.823 75.6259 102.876 75.5814 102.92C75.5369 102.964 75.4841 102.999 75.426 103.023C75.368 103.046 75.3058 103.058 75.2431 103.058Z" fill="white"/>
<path d="M69.9889 101.977C69.8628 101.977 69.7418 101.927 69.6526 101.838C69.5634 101.749 69.5133 101.628 69.5133 101.502V98.1953C69.5133 98.0692 69.5634 97.9482 69.6526 97.859C69.7418 97.7698 69.8628 97.7197 69.9889 97.7197C70.115 97.7197 70.236 97.7698 70.3252 97.859C70.4144 97.9482 70.4645 98.0692 70.4645 98.1953V101.502C70.4645 101.628 70.4144 101.749 70.3252 101.838C70.236 101.927 70.115 101.977 69.9889 101.977Z" fill="white"/>
<path d="M64.7508 100.457C64.6883 100.457 64.6265 100.445 64.5688 100.421C64.5111 100.397 64.4587 100.362 64.4145 100.318C64.3703 100.273 64.3353 100.221 64.3114 100.163C64.2875 100.106 64.2752 100.044 64.2752 99.9812V96.6747C64.2752 96.5486 64.3253 96.4276 64.4145 96.3384C64.5037 96.2492 64.6247 96.1991 64.7508 96.1991C64.8769 96.1991 64.9979 96.2492 65.0871 96.3384C65.1763 96.4276 65.2264 96.5486 65.2264 96.6747V99.9812C65.2264 100.107 65.1763 100.228 65.0871 100.318C64.9979 100.407 64.8769 100.457 64.7508 100.457Z" fill="white"/>
<path d="M59.5063 98.6677C59.4436 98.6681 59.3814 98.6561 59.3233 98.6324C59.2652 98.6087 59.2124 98.5737 59.1679 98.5295C59.1234 98.4853 59.0881 98.4327 59.064 98.3748C59.0399 98.3169 59.0275 98.2548 59.0275 98.1921V94.8855C59.0373 94.7658 59.0919 94.6541 59.1803 94.5727C59.2687 94.4912 59.3845 94.446 59.5047 94.446C59.6249 94.446 59.7407 94.4912 59.8291 94.5727C59.9175 94.6541 59.972 94.7658 59.9819 94.8855V98.1921C59.9819 98.3182 59.9318 98.4392 59.8426 98.5284C59.7534 98.6176 59.6324 98.6677 59.5063 98.6677Z" fill="white"/>
<path d="M50.0721 93.5398C49.946 93.5398 49.825 93.4897 49.7358 93.4005C49.6466 93.3113 49.5965 93.1903 49.5965 93.0642V89.7609C49.5965 89.6347 49.6466 89.5138 49.7358 89.4246C49.825 89.3354 49.946 89.2853 50.0721 89.2853C50.1982 89.2853 50.3192 89.3354 50.4084 89.4246C50.4976 89.5138 50.5477 89.6347 50.5477 89.7609V93.0674C50.5468 93.193 50.4963 93.3131 50.4072 93.4016C50.3181 93.4901 50.1977 93.5398 50.0721 93.5398Z" fill="white"/>
<path d="M54.2586 96.8559C53.9746 96.8559 53.7022 96.7431 53.5013 96.5423C53.3005 96.3414 53.1877 96.069 53.1877 95.785V92.4785C53.1877 92.1945 53.3005 91.9221 53.5013 91.7213C53.7022 91.5204 53.9746 91.4076 54.2586 91.4076C54.5426 91.4076 54.815 91.5204 55.0158 91.7213C55.2167 91.9221 55.3295 92.1945 55.3295 92.4785V95.785C55.3295 96.069 55.2167 96.3414 55.0158 96.5423C54.815 96.7431 54.5426 96.8559 54.2586 96.8559Z" fill="white"/>
<path d="M105.209 106.31C105.146 106.31 105.084 106.297 105.026 106.273C104.967 106.249 104.915 106.214 104.87 106.169C104.826 106.125 104.79 106.072 104.766 106.014C104.742 105.956 104.73 105.894 104.73 105.831V102.527C104.74 102.408 104.794 102.296 104.883 102.215C104.971 102.133 105.087 102.088 105.207 102.088C105.327 102.088 105.443 102.133 105.532 102.215C105.62 102.296 105.675 102.408 105.684 102.527V105.831C105.685 105.893 105.673 105.956 105.649 106.014C105.625 106.072 105.59 106.125 105.546 106.169C105.502 106.214 105.449 106.249 105.392 106.273C105.334 106.297 105.272 106.31 105.209 106.31Z" fill="white"/>
<path d="M99.0132 106.038C98.9507 106.038 98.8889 106.025 98.8312 106.002C98.7735 105.978 98.7211 105.943 98.6769 105.898C98.6327 105.854 98.5977 105.802 98.5738 105.744C98.5499 105.686 98.5376 105.625 98.5376 105.562V102.256C98.5475 102.136 98.602 102.024 98.6904 101.943C98.7788 101.861 98.8946 101.816 99.0148 101.816C99.135 101.816 99.2508 101.861 99.3392 101.943C99.4276 102.024 99.4822 102.136 99.492 102.256V105.562C99.492 105.625 99.4796 105.687 99.4555 105.745C99.4314 105.803 99.3961 105.855 99.3516 105.9C99.3071 105.944 99.2543 105.979 99.1962 106.003C99.1381 106.026 99.0759 106.038 99.0132 106.038Z" fill="white"/>
<path d="M92.8207 105.565C92.7582 105.565 92.6964 105.553 92.6387 105.529C92.581 105.505 92.5286 105.47 92.4844 105.426C92.4402 105.382 92.4052 105.33 92.3813 105.272C92.3574 105.214 92.3451 105.152 92.3451 105.09V101.783C92.3451 101.657 92.3952 101.536 92.4844 101.447C92.5736 101.358 92.6946 101.308 92.8207 101.308C92.9468 101.308 93.0678 101.358 93.157 101.447C93.2462 101.536 93.2963 101.657 93.2963 101.783V105.09C93.2963 105.216 93.2462 105.337 93.157 105.426C93.0678 105.515 92.9468 105.565 92.8207 105.565Z" fill="white"/>
<path d="M86.6283 104.967C86.5027 104.963 86.3836 104.911 86.2969 104.82C86.2102 104.729 86.163 104.607 86.1656 104.482V101.175C86.1656 101.049 86.2157 100.928 86.3049 100.839C86.3941 100.75 86.5151 100.699 86.6412 100.699C86.7674 100.699 86.8883 100.75 86.9775 100.839C87.0667 100.928 87.1168 101.049 87.1168 101.175V104.482C87.1182 104.546 87.1064 104.61 87.0823 104.67C87.0582 104.729 87.0222 104.784 86.9765 104.829C86.9308 104.874 86.8764 104.91 86.8166 104.934C86.7567 104.957 86.6926 104.969 86.6283 104.967Z" fill="white"/>
<path d="M114.245 63.0658H108.577V54.3304C108.577 53.5787 108.876 52.8578 109.407 52.3263C109.939 51.7948 110.659 51.4962 111.411 51.4962C112.163 51.4962 112.884 51.7948 113.415 52.3263C113.947 52.8578 114.245 53.5787 114.245 54.3304V63.0658Z" fill="#0BCDAA"/>
<path d="M111.592 95.7786L106.16 85.6293H117.021C117.021 85.6293 111.356 95.7786 111.592 95.7786Z" fill="white"/>
</svg>
