<svg width="62" height="39" viewBox="0 0 62 39" fill="none" xmlns="http://www.w3.org/2000/svg">
<path d="M60.9755 37.5919C60.9747 37.8773 60.8609 38.1509 60.6589 38.3526C60.457 38.5544 60.1833 38.668 59.8979 38.6685H1.62363C1.33815 38.668 1.0645 38.5544 0.862554 38.3526C0.660604 38.1509 0.546798 37.8773 0.546037 37.5919L0.0612183 4.10312C0.0612183 3.51083 0.75882 2.3548 2.0372 2.44188L58.9894 0.968227C59.3572 0.95854 59.7231 1.02369 60.065 1.15973C60.4068 1.29577 60.7175 1.49985 60.978 1.75959C61.2386 2.01934 61.4437 2.32932 61.5808 2.67073C61.7179 3.01214 61.7842 3.37786 61.7757 3.74568L60.9755 37.5919Z" fill="url(#paint0_linear)"/>
<defs>
<linearGradient id="paint0_linear" x1="25.4381" y1="36.094" x2="39.2013" y2="-5.19552" gradientUnits="userSpaceOnUse">
<stop stop-color="#2B3582"/>
<stop offset="1" stop-color="#150E42"/>
</linearGradient>
</defs>
</svg>
