<svg width="60" height="36" viewBox="0 0 60 36" fill="none" xmlns="http://www.w3.org/2000/svg">
<path d="M58.9116 34.5587C58.9107 34.8288 58.803 35.0876 58.6119 35.2786C58.4208 35.4695 58.1619 35.5771 57.8918 35.5778H2.02895C1.75878 35.577 1.4999 35.4693 1.30887 35.2783C1.11783 35.0873 1.01017 34.8284 1.00941 34.5582L0.551941 4.15759C0.605916 2.3289 2.20983 1.67064 3.1821 1.70926L57.7671 0.245928C58.0256 0.238977 58.2828 0.284715 58.5231 0.380357C58.7634 0.475998 58.9816 0.619541 59.1647 0.802246C59.3477 0.984951 59.4916 1.203 59.5877 1.4431C59.6837 1.68321 59.7299 1.94035 59.7234 2.19888L58.9116 34.5587Z" fill="url(#paint0_linear)"/>
<defs>
<linearGradient id="paint0_linear" x1="60.835" y1="2.38887" x2="-68.7626" y2="71.3728" gradientUnits="userSpaceOnUse">
<stop stop-color="#FDF53F"/>
<stop offset="1" stop-color="#D93C65"/>
</linearGradient>
</defs>
</svg>
