<svg width="69" height="68" viewBox="0 0 69 68" fill="none" xmlns="http://www.w3.org/2000/svg">
<path opacity="0.3" d="M60.1828 57.7677C58.4232 59.5812 56.8484 60.6476 55.6434 61.4524C43.8871 69.3023 30.4482 67.0397 26.2932 66.2665C19.5897 65.0191 13.931 64.1387 9.0691 59.7461C-1.97859 49.7652 -1.44123 28.9441 7.00052 16.0461C8.00135 14.5168 16.4304 2.02259 29.8983 0.261313C30.2277 0.218372 30.4741 0.193904 30.69 0.171114C32.7734 -0.0495855 45.6831 -1.21378 56.2115 7.60605C57.7184 8.86859 60.1437 11.1459 62.3925 14.619C70.6145 27.3195 70.6404 46.9884 60.1828 57.7677Z" fill="url(#paint0_linear)"/>
<defs>
<linearGradient id="paint0_linear" x1="74.4942" y1="78.1243" x2="26.8292" y2="27.3841" gradientUnits="userSpaceOnUse">
<stop stop-color="#B37CFF"/>
<stop offset="1" stop-color="#F895E7"/>
</linearGradient>
</defs>
</svg>
