<svg width="38" height="13" viewBox="0 0 38 13" fill="none" xmlns="http://www.w3.org/2000/svg">
<rect y="0.361633" width="37.9225" height="12.3469" rx="6.17343" fill="#E0E9FC"/>
<g clip-path="url(#clip0)">
<path d="M7.05532 3.00739C5.10713 3.00739 3.52765 4.58671 3.52765 6.53506C3.52765 8.48341 5.10713 10.0627 7.05532 10.0627C9.00352 10.0627 10.583 8.48341 10.583 6.53506C10.583 4.58671 9.00352 3.00739 7.05532 3.00739ZM8.03694 5.70345C8.23188 5.70345 8.39799 5.9306 8.46409 6.2507C8.47575 6.30822 8.46103 6.36788 8.42406 6.41343C8.3871 6.45883 8.33142 6.48552 8.27299 6.48552H7.8012C7.74245 6.48552 7.68693 6.45914 7.64997 6.41359C7.61285 6.36819 7.59828 6.30822 7.61009 6.25085C7.67604 5.9306 7.84215 5.70345 8.03694 5.70345ZM6.07371 5.70345C6.26865 5.70345 6.43476 5.93075 6.50071 6.2507C6.51252 6.30822 6.4978 6.36788 6.46068 6.41343C6.42372 6.45883 6.36804 6.48552 6.3096 6.48552H5.83782C5.77923 6.48552 5.7237 6.45914 5.68659 6.41359C5.64962 6.36803 5.6349 6.30822 5.64671 6.2507C5.71251 5.93075 5.87861 5.70345 6.07371 5.70345ZM7.05532 8.79415C6.13705 8.79415 5.3352 8.29568 4.90482 7.55487C4.8697 7.49443 4.8697 7.42005 4.90452 7.35946C4.93933 7.29888 5.00375 7.26191 5.07369 7.26191H9.03696C9.10659 7.26191 9.17116 7.29919 9.20598 7.35962C9.2411 7.42005 9.2411 7.49459 9.20598 7.55471C8.77545 8.29568 7.97344 8.79415 7.05532 8.79415Z" fill="#558FFF"/>
</g>
<path d="M15.449 9.12547H16.375V7.17423H17.85V6.44003H16.375V5.25605H18.2998V4.50863H15.449V9.12547ZM21.6353 4.50201H18.9564V9.12547H21.6353V8.37143H19.8825V7.14777H21.4368V6.41357H19.8825V5.25605H21.6353V4.50201ZM22.4768 4.50863V9.12547H24.9241V8.39128H23.4028V4.50863H22.4768ZM25.5127 9.12547H26.4387V4.50863H25.5127V9.12547ZM30.3764 4.50863H27.2279V5.28913H29.2916L27.2279 8.41112V9.12547H30.3764V8.34497H28.2995L30.3764 5.22298V4.50863Z" fill="#558FFF"/>
<defs>
<clipPath id="clip0">
<rect width="7.05535" height="7.05535" fill="white" transform="translate(3.52765 3.00739)"/>
</clipPath>
</defs>
</svg>
