<svg width="279" height="32" viewBox="0 0 279 32" fill="none" xmlns="http://www.w3.org/2000/svg">
<rect y="12.4375" width="279" height="7.75" rx="3.875" fill="#E6E6E6"/>
<rect y="12.4375" width="124" height="7.75" rx="3.875" fill="url(#paint0_linear)"/>
<g filter="url(#filter0_dd)">
<circle cx="120.688" cy="16.3125" r="9.6875" fill="#FF4026"/>
</g>
<g clip-path="url(#clip0)">
<path d="M121 10C117.41 10 114.5 12.91 114.5 16.5C114.5 20.09 117.41 23 121 23C124.59 23 127.5 20.09 127.5 16.5C127.5 12.91 124.59 10 121 10ZM122.809 14.9677C123.168 14.9677 123.474 15.3862 123.596 15.976C123.617 16.082 123.59 16.192 123.522 16.2759C123.454 16.3595 123.351 16.4087 123.244 16.4087H122.374C122.266 16.4087 122.164 16.3601 122.096 16.2762C122.027 16.1925 122 16.082 122.022 15.9763C122.144 15.3862 122.45 14.9677 122.809 14.9677ZM119.191 14.9677C119.55 14.9677 119.857 15.3865 119.978 15.976C120 16.082 119.973 16.192 119.904 16.2759C119.836 16.3595 119.734 16.4087 119.626 16.4087H118.757C118.649 16.4087 118.546 16.3601 118.478 16.2762C118.41 16.1922 118.383 16.082 118.405 15.976C118.526 15.3865 118.832 14.9677 119.191 14.9677ZM121 20.6625C119.308 20.6625 117.831 19.7441 117.038 18.3791C116.973 18.2677 116.973 18.1307 117.037 18.019C117.101 17.9074 117.22 17.8393 117.349 17.8393H124.651C124.78 17.8393 124.899 17.908 124.963 18.0193C125.027 18.1307 125.027 18.268 124.963 18.3788C124.169 19.7441 122.692 20.6625 121 20.6625Z" fill="#F7FBFA"/>
</g>
<defs>
<filter id="filter0_dd" x="107.125" y="0.8125" width="27.125" height="31" filterUnits="userSpaceOnUse" color-interpolation-filters="sRGB">
<feFlood flood-opacity="0" result="BackgroundImageFix"/>
<feColorMatrix in="SourceAlpha" type="matrix" values="0 0 0 0 0 0 0 0 0 0 0 0 0 0 0 0 0 0 127 0"/>
<feOffset dy="1.9375"/>
<feGaussianBlur stdDeviation="1.9375"/>
<feColorMatrix type="matrix" values="0 0 0 0 0.54902 0 0 0 0 0.54902 0 0 0 0 0.54902 0 0 0 0.3 0"/>
<feBlend mode="normal" in2="BackgroundImageFix" result="effect1_dropShadow"/>
<feColorMatrix in="SourceAlpha" type="matrix" values="0 0 0 0 0 0 0 0 0 0 0 0 0 0 0 0 0 0 127 0"/>
<feOffset dy="-1.9375"/>
<feGaussianBlur stdDeviation="1.9375"/>
<feColorMatrix type="matrix" values="0 0 0 0 0.54902 0 0 0 0 0.54902 0 0 0 0 0.54902 0 0 0 0.2 0"/>
<feBlend mode="normal" in2="effect1_dropShadow" result="effect2_dropShadow"/>
<feBlend mode="normal" in="SourceGraphic" in2="effect2_dropShadow" result="shape"/>
</filter>
<linearGradient id="paint0_linear" x1="110.5" y1="20" x2="-3.58337e-07" y2="20" gradientUnits="userSpaceOnUse">
<stop stop-color="#FFC555"/>
<stop offset="0.963694" stop-color="#FFF9BF"/>
</linearGradient>
<clipPath id="clip0">
<rect width="13" height="13" fill="white" transform="translate(114.5 10)"/>
</clipPath>
</defs>
</svg>
