<svg width="46" height="36" viewBox="0 0 46 36" fill="none" xmlns="http://www.w3.org/2000/svg">
<g filter="url(#filter0_d)">
<path d="M3 17C3 9.8203 8.8203 4 16 4H41V19C41 26.1797 35.1797 32 28 32H16C8.8203 32 3 26.1797 3 19V17Z" fill="url(#paint0_linear)"/>
<path d="M25.9217 9C25.9687 9 26.0156 9 26.0652 9C26.1803 10.4097 25.6375 11.4631 24.9779 12.2259C24.3307 12.9834 23.4444 13.7181 22.011 13.6066C21.9154 12.2171 22.459 11.2419 23.1177 10.4808C23.7286 9.7716 24.8486 9.1404 25.9217 9Z" fill="white"/>
<path d="M30 21.7941C30 21.8052 30 21.815 30 21.8254C29.6324 22.7822 29.108 23.6023 28.4682 24.3634C27.884 25.0543 27.1682 25.984 25.8901 25.984C24.7856 25.984 24.052 25.3736 22.9201 25.357C21.7228 25.3403 21.0643 25.8673 19.9696 26C19.8444 26 19.7191 26 19.5963 26C18.7924 25.9 18.1436 25.3528 17.671 24.8598C16.2773 23.403 15.2004 21.5212 15 19.1131C15 18.877 15 18.6416 15 18.4055C15.0849 16.682 16.0592 15.2808 17.3543 14.6017C18.0378 14.2406 18.9774 13.933 20.0237 14.0705C20.4721 14.1302 20.9302 14.2621 21.3317 14.3927C21.7123 14.5183 22.1881 14.7412 22.639 14.7295C22.9444 14.7218 23.2482 14.585 23.556 14.4885C24.4576 14.2087 25.3415 13.8878 26.5065 14.0385C27.9067 14.2205 28.9004 14.7552 29.5145 15.5801C28.33 16.2279 27.3937 17.2042 27.5536 18.8715C27.6958 20.3859 28.7203 21.272 30 21.7941Z" fill="white"/>
</g>
<defs>
<filter id="filter0_d" x="0" y="0" width="46" height="36" filterUnits="userSpaceOnUse" color-interpolation-filters="sRGB">
<feFlood flood-opacity="0" result="BackgroundImageFix"/>
<feColorMatrix in="SourceAlpha" type="matrix" values="0 0 0 0 0 0 0 0 0 0 0 0 0 0 0 0 0 0 127 0"/>
<feOffset dx="1"/>
<feGaussianBlur stdDeviation="2"/>
<feColorMatrix type="matrix" values="0 0 0 0 0 0 0 0 0 0 0 0 0 0 0 0 0 0 0.15 0"/>
<feBlend mode="normal" in2="BackgroundImageFix" result="effect1_dropShadow"/>
<feBlend mode="normal" in="SourceGraphic" in2="effect1_dropShadow" result="shape"/>
</filter>
<linearGradient id="paint0_linear" x1="5.6389" y1="9" x2="34.9572" y2="33.5443" gradientUnits="userSpaceOnUse">
<stop offset="0.218759" stop-color="#4081FF"/>
<stop offset="1" stop-color="#32CEFF"/>
</linearGradient>
</defs>
</svg>
