<svg width="46" height="36" viewBox="0 0 46 36" fill="none" xmlns="http://www.w3.org/2000/svg">
<g filter="url(#filter0_d)">
<path d="M3 17C3 9.8203 8.8203 4 16 4H41V19C41 26.1797 35.1797 32 28 32H16C8.8203 32 3 26.1797 3 19V17Z" fill="url(#paint0_linear)"/>
<g clip-path="url(#clip0)">
<path d="M30 18.5C30 18.0288 29.9528 17.5571 29.8595 17.0992C29.8173 16.892 29.6237 16.7422 29.399 16.7422H22.0312C21.7722 16.7422 21.5625 16.9387 21.5625 17.1816V19.8183C21.5625 20.0612 21.7722 20.2578 22.0312 20.2578H25.8115C25.5759 20.7048 25.2513 21.0927 24.8702 21.419L27.5196 23.9028C29.044 22.5412 30 20.6252 30 18.5Z" fill="white"/>
<path d="M22 14.5156C22.9196 14.5156 23.7944 14.7894 24.5296 15.3078C24.7154 15.4387 24.9777 15.4229 25.1425 15.2671L27.143 13.3917C27.2359 13.3045 27.2858 13.1848 27.2798 13.0616C27.2739 12.9385 27.2135 12.8234 27.1127 12.7441C25.6813 11.6193 23.8654 11 22 11C19.2547 11 16.8294 12.3082 15.3957 14.2945L18.1472 16.874C18.8036 15.4878 20.2806 14.5156 22 14.5156Z" fill="white"/>
<path d="M22 26C23.7895 26 25.4373 25.4375 26.7688 24.5004L24.0697 21.97C23.4528 22.2957 22.7476 22.4844 22 22.4844C20.2806 22.4844 18.8036 21.5122 18.1472 20.126L15.3957 22.7055C16.8294 24.6918 19.2547 26 22 26Z" fill="white"/>
<path d="M17.8183 19.133C17.7824 18.9256 17.75 18.7167 17.75 18.5C17.75 18.2833 17.7824 18.0744 17.8183 17.8671L14.8769 15.1095C14.3204 16.1285 14 17.2788 14 18.5C14 19.7212 14.3204 20.8716 14.8769 21.8905L17.8183 19.133Z" fill="white"/>
</g>
</g>
<defs>
<filter id="filter0_d" x="0" y="0" width="46" height="36" filterUnits="userSpaceOnUse" color-interpolation-filters="sRGB">
<feFlood flood-opacity="0" result="BackgroundImageFix"/>
<feColorMatrix in="SourceAlpha" type="matrix" values="0 0 0 0 0 0 0 0 0 0 0 0 0 0 0 0 0 0 127 0"/>
<feOffset dx="1"/>
<feGaussianBlur stdDeviation="2"/>
<feColorMatrix type="matrix" values="0 0 0 0 0 0 0 0 0 0 0 0 0 0 0 0 0 0 0.15 0"/>
<feBlend mode="normal" in2="BackgroundImageFix" result="effect1_dropShadow"/>
<feBlend mode="normal" in="SourceGraphic" in2="effect1_dropShadow" result="shape"/>
</filter>
<linearGradient id="paint0_linear" x1="5.6389" y1="9" x2="34.9572" y2="33.5443" gradientUnits="userSpaceOnUse">
<stop offset="0.218759" stop-color="#4081FF"/>
<stop offset="1" stop-color="#32CEFF"/>
</linearGradient>
<clipPath id="clip0">
<rect width="16" height="15" fill="white" transform="translate(14 11)"/>
</clipPath>
</defs>
</svg>
