<svg width="45" height="43" viewBox="0 0 45 43" fill="none" xmlns="http://www.w3.org/2000/svg">
<g filter="url(#filter0_d)">
<ellipse cx="22.3205" cy="21.1964" rx="13.6795" ry="12.8741" fill="#4081FF"/>
</g>
<path d="M28.0379 19.1408L24.8715 16.1623C24.6231 15.9287 24.2861 15.7975 23.9348 15.7976C23.5835 15.7977 23.2467 15.929 22.9983 16.1628C22.75 16.3965 22.6105 16.7134 22.6106 17.0439C22.6106 17.2075 22.6449 17.3695 22.7115 17.5207C22.7781 17.6718 22.8757 17.8092 22.9988 17.9248L25.1488 19.9506H17.9084C17.5571 19.9506 17.2202 20.0818 16.9719 20.3155C16.7235 20.5491 16.5839 20.866 16.5839 21.1964C16.5839 21.5269 16.7235 21.8438 16.9719 22.0774C17.2202 22.311 17.5571 22.4423 17.9084 22.4423H25.1488L22.9952 24.4681C22.7468 24.7017 22.6071 25.0186 22.607 25.349C22.607 25.6795 22.7464 25.9964 22.9948 26.2301C23.2431 26.4638 23.58 26.5952 23.9313 26.5953C24.2826 26.5953 24.6195 26.4642 24.868 26.2305L28.0344 23.2521C28.6134 22.7068 28.9389 21.9678 28.9396 21.1971C28.9402 20.4264 28.616 19.6869 28.0379 19.1408Z" fill="white"/>
<defs>
<filter id="filter0_d" x="0.33517" y="0.0164442" width="43.9707" height="42.36" filterUnits="userSpaceOnUse" color-interpolation-filters="sRGB">
<feFlood flood-opacity="0" result="BackgroundImageFix"/>
<feColorMatrix in="SourceAlpha" type="matrix" values="0 0 0 0 0 0 0 0 0 0 0 0 0 0 0 0 0 0 127 0"/>
<feOffset/>
<feGaussianBlur stdDeviation="4.15294"/>
<feColorMatrix type="matrix" values="0 0 0 0 0.452563 0 0 0 0 0.692884 0 0 0 0 0.975 0 0 0 0.31 0"/>
<feBlend mode="normal" in2="BackgroundImageFix" result="effect1_dropShadow"/>
<feBlend mode="normal" in="SourceGraphic" in2="effect1_dropShadow" result="shape"/>
</filter>
</defs>
</svg>
