<svg width="21" height="21" viewBox="0 0 21 21" fill="none" xmlns="http://www.w3.org/2000/svg">
<path d="M15.5413 0C15.5902 0 15.639 0 15.6907 0C15.8105 1.48096 15.2453 2.58754 14.5583 3.38888C13.8842 4.18469 12.9611 4.95653 11.4682 4.83942C11.3686 3.37966 11.9348 2.35516 12.6209 1.55566C13.2571 0.810565 14.4236 0.147543 15.5413 0Z" fill="white"/>
<path d="M20.0607 15.4146C20.0607 15.4293 20.0607 15.4422 20.0607 15.4561C19.6411 16.7268 19.0427 17.8158 18.3123 18.8265C17.6456 19.744 16.8286 20.9788 15.3698 20.9788C14.1092 20.9788 13.2719 20.1682 11.98 20.1461C10.6134 20.124 9.8618 20.8239 8.6123 21C8.46936 21 8.32643 21 8.18627 21C7.26873 20.8672 6.52825 20.1406 5.9888 19.4858C4.3981 17.5512 3.16888 15.0522 2.94019 11.8542C2.94019 11.5406 2.94019 11.228 2.94019 10.9145C3.03701 8.62574 4.14912 6.76485 5.62731 5.86299C6.40745 5.38347 7.4799 4.97496 8.67408 5.15755C9.18587 5.23685 9.70873 5.41206 10.167 5.58542C10.6014 5.75233 11.1445 6.04834 11.6591 6.03266C12.0076 6.02252 12.3544 5.84086 12.7057 5.71268C13.7348 5.34106 14.7436 4.91503 16.0734 5.11513C17.6714 5.35673 18.8057 6.06678 19.5065 7.16229C18.1546 8.02265 17.0859 9.31919 17.2685 11.5333C17.4308 13.5445 18.6 14.7211 20.0607 15.4146Z" fill="white"/>
</svg>
