<svg width="18" height="17" viewBox="0 0 18 17" fill="none" xmlns="http://www.w3.org/2000/svg">
<g clip-path="url(#clip0)">
<path d="M17.5 8.16667C17.5 7.65358 17.4484 7.14 17.3463 6.64139C17.3002 6.41569 17.0884 6.25258 16.8426 6.25258H8.78418C8.5008 6.25258 8.27148 6.4666 8.27148 6.73109V9.60219C8.27148 9.86668 8.5008 10.0807 8.78418 10.0807H12.9188C12.6612 10.5675 12.3062 10.9898 11.8893 11.3451L14.787 14.0497C16.4543 12.5671 17.5 10.4807 17.5 8.16667Z" fill="white"/>
<path d="M8.74998 3.82812C9.75586 3.82812 10.7126 4.12627 11.5167 4.69076C11.72 4.83329 12.0069 4.816 12.1871 4.64635L14.3751 2.60424C14.4768 2.50937 14.5313 2.37899 14.5248 2.24488C14.5183 2.11076 14.4522 1.98552 14.3421 1.89907C12.7765 0.674324 10.7902 0 8.74998 0C5.74733 0 3.09468 1.42451 1.52655 3.58734L4.536 6.39616C5.25398 4.88673 6.86938 3.82812 8.74998 3.82812Z" fill="white"/>
<path d="M8.74998 16.3333C10.7072 16.3333 12.5095 15.7208 13.9659 14.7004L11.0137 11.9451C10.339 12.2997 9.56773 12.5052 8.74998 12.5052C6.86938 12.5052 5.25398 11.4466 4.536 9.93718L1.52655 12.746C3.09468 14.9088 5.74733 16.3333 8.74998 16.3333Z" fill="white"/>
<path d="M4.17624 8.85591C4.13697 8.63008 4.10159 8.40265 4.10159 8.16668C4.10159 7.93071 4.13697 7.70329 4.17624 7.47746L0.959113 4.47481C0.350441 5.58433 3.05176e-05 6.83692 3.05176e-05 8.16668C3.05176e-05 9.49645 0.350441 10.749 0.959147 11.8585L4.17624 8.85591Z" fill="white"/>
</g>
<defs>
<clipPath id="clip0">
<rect width="17.5" height="16.3333" fill="white"/>
</clipPath>
</defs>
</svg>
