<svg width="304" height="108" viewBox="0 0 304 108" fill="none" xmlns="http://www.w3.org/2000/svg">
<g filter="url(#filter0_d)">
<rect x="40" y="36" width="224" height="28" rx="14" fill="white"/>
</g>
<path d="M93.2849 55H100.994V52.991H95.6042V50.4593H100.88V48.4667H95.6042V46.0983H100.994V44.1057H93.2849V55ZM108.083 55H110.157V49.4303C110.157 47.895 109.324 46.915 107.593 46.915C106.303 46.915 105.339 47.5357 104.833 48.14V47.111H102.758V55H104.833V49.6917C105.176 49.218 105.813 48.7607 106.629 48.7607C107.511 48.7607 108.083 49.1363 108.083 50.2307V55ZM114.863 55.196C115.729 55.196 116.284 54.9673 116.594 54.6897L116.153 53.1217C116.039 53.236 115.745 53.3503 115.435 53.3503C114.977 53.3503 114.716 52.9747 114.716 52.4847V48.924H116.317V47.111H114.716V44.955H112.625V47.111H111.319V48.924H112.625V53.04C112.625 54.4447 113.409 55.196 114.863 55.196ZM117.736 55H119.81V49.7897C120.153 49.2833 121.068 48.8913 121.754 48.8913C121.983 48.8913 122.179 48.924 122.326 48.9567V46.9313C121.346 46.9313 120.366 47.4867 119.81 48.189V47.111H117.736V55ZM123.115 51.0473C123.115 53.579 124.928 55.196 127.329 55.196C128.554 55.196 129.796 54.8203 130.58 54.1017L129.665 52.7623C129.159 53.2523 128.293 53.5463 127.558 53.5463C126.219 53.5463 125.418 52.7133 125.288 51.717H131.151V51.2597C131.151 48.679 129.551 46.915 127.199 46.915C124.798 46.915 123.115 48.7607 123.115 51.0473ZM127.199 48.5647C128.571 48.5647 129.093 49.561 129.142 50.3123H125.255C125.353 49.5283 125.908 48.5647 127.199 48.5647ZM136.322 51.0473C136.322 53.481 138.07 55.196 140.504 55.196C142.121 55.196 143.101 54.4937 143.623 53.7587L142.268 52.501C141.892 53.0237 141.32 53.3503 140.602 53.3503C139.344 53.3503 138.462 52.4193 138.462 51.0473C138.462 49.6753 139.344 48.7607 140.602 48.7607C141.32 48.7607 141.892 49.0547 142.268 49.61L143.623 48.336C143.101 47.6173 142.121 46.915 140.504 46.915C138.07 46.915 136.322 48.63 136.322 51.0473ZM148.638 55.196C151.251 55.196 152.819 53.3013 152.819 51.0473C152.819 48.8097 151.251 46.915 148.638 46.915C146.041 46.915 144.473 48.8097 144.473 51.0473C144.473 53.3013 146.041 55.196 148.638 55.196ZM148.638 53.3503C147.348 53.3503 146.629 52.2887 146.629 51.0473C146.629 49.8223 147.348 48.7607 148.638 48.7607C149.928 48.7607 150.663 49.8223 150.663 51.0473C150.663 52.2887 149.928 53.3503 148.638 53.3503ZM164.142 55H166.233V49.2997C166.233 47.6827 165.367 46.915 163.913 46.915C162.705 46.915 161.659 47.6337 161.202 48.3523C160.908 47.454 160.173 46.915 159.013 46.915C157.805 46.915 156.759 47.6663 156.433 48.14V47.111H154.358V55H156.433V49.6917C156.743 49.2507 157.347 48.7607 158.066 48.7607C158.915 48.7607 159.242 49.2833 159.242 50.0183V55H161.333V49.6753C161.627 49.2507 162.231 48.7607 162.966 48.7607C163.815 48.7607 164.142 49.2833 164.142 50.0183V55ZM176.105 55.196C178.718 55.196 180.286 53.3013 180.286 51.0473C180.286 48.8097 178.718 46.915 176.105 46.915C173.508 46.915 171.94 48.8097 171.94 51.0473C171.94 53.3013 173.508 55.196 176.105 55.196ZM176.105 53.3503C174.814 53.3503 174.096 52.2887 174.096 51.0473C174.096 49.8223 174.814 48.7607 176.105 48.7607C177.395 48.7607 178.13 49.8223 178.13 51.0473C178.13 52.2887 177.395 53.3503 176.105 53.3503ZM193.681 55H196.212L192.015 44.1057H189.107L184.893 55H187.441L188.127 53.1217H192.995L193.681 55ZM190.561 46.1147L192.358 51.1127H188.748L190.561 46.1147ZM199.244 58.0053V53.9873C199.881 54.804 200.746 55.196 201.677 55.196C203.703 55.196 205.173 53.677 205.173 51.0473C205.173 48.4177 203.703 46.915 201.677 46.915C200.714 46.915 199.848 47.3397 199.244 48.1073V47.111H197.169V58.0053H199.244ZM203.017 51.0473C203.017 52.4193 202.216 53.3503 201.024 53.3503C200.354 53.3503 199.587 52.942 199.244 52.452V49.659C199.587 49.1527 200.354 48.7607 201.024 48.7607C202.216 48.7607 203.017 49.6917 203.017 51.0473ZM208.798 58.0053V53.9873C209.435 54.804 210.301 55.196 211.232 55.196C213.257 55.196 214.727 53.677 214.727 51.0473C214.727 48.4177 213.257 46.915 211.232 46.915C210.268 46.915 209.402 47.3397 208.798 48.1073V47.111H206.724V58.0053H208.798ZM212.571 51.0473C212.571 52.4193 211.771 53.3503 210.578 53.3503C209.909 53.3503 209.141 52.942 208.798 52.452V49.659C209.141 49.1527 209.909 48.7607 210.578 48.7607C211.771 48.7607 212.571 49.6917 212.571 51.0473ZM216.278 55H218.353V44.1057H216.278V55ZM219.903 51.0473C219.903 53.579 221.716 55.196 224.117 55.196C225.342 55.196 226.583 54.8203 227.367 54.1017L226.453 52.7623C225.946 53.2523 225.081 53.5463 224.346 53.5463C223.006 53.5463 222.206 52.7133 222.075 51.717H227.939V51.2597C227.939 48.679 226.338 46.915 223.986 46.915C221.585 46.915 219.903 48.7607 219.903 51.0473ZM223.986 48.5647C225.358 48.5647 225.881 49.561 225.93 50.3123H222.043C222.141 49.5283 222.696 48.5647 223.986 48.5647ZM233.665 55H235.985V44.1057H233.665V55ZM238.147 55H242.443C245.857 55 248.225 52.844 248.225 49.561C248.225 46.278 245.857 44.1057 242.443 44.1057H238.147V55ZM240.467 52.9583V46.1473H242.443C244.681 46.1473 245.857 47.6337 245.857 49.561C245.857 51.4067 244.599 52.9583 242.443 52.9583H240.467Z" fill="black"/>
<g filter="url(#filter1_d)">
<path d="M40 49C40 41.8203 45.8203 36 53 36H76V51C76 58.1797 70.1797 64 63 64H53C45.8203 64 40 58.1797 40 51V49Z" fill="url(#paint0_linear)"/>
</g>
<path d="M62.5413 39C62.5902 39 62.639 39 62.6907 39C62.8105 40.481 62.2453 41.5875 61.5583 42.3889C60.8842 43.1847 59.9611 43.9565 58.4682 43.8394C58.3686 42.3797 58.9348 41.3552 59.6209 40.5557C60.2571 39.8106 61.4236 39.1475 62.5413 39Z" fill="white"/>
<path d="M67.0607 54.4146C67.0607 54.4293 67.0607 54.4422 67.0607 54.4561C66.6411 55.7268 66.0427 56.8158 65.3123 57.8265C64.6456 58.744 63.8286 59.9788 62.3698 59.9788C61.1092 59.9788 60.2719 59.1682 58.98 59.1461C57.6134 59.124 56.8618 59.8239 55.6123 60C55.4694 60 55.3264 60 55.1863 60C54.2687 59.8672 53.5282 59.1406 52.9888 58.4858C51.3981 56.5512 50.1689 54.0522 49.9402 50.8542C49.9402 50.5406 49.9402 50.228 49.9402 49.9145C50.037 47.6257 51.1491 45.7648 52.6273 44.863C53.4074 44.3835 54.4799 43.975 55.6741 44.1575C56.1859 44.2369 56.7087 44.4121 57.167 44.5854C57.6014 44.7523 58.1445 45.0483 58.6591 45.0327C59.0076 45.0225 59.3544 44.8409 59.7057 44.7127C60.7348 44.3411 61.7436 43.915 63.0734 44.1151C64.6714 44.3567 65.8057 45.0668 66.5065 46.1623C65.1546 47.0227 64.0859 48.3192 64.2685 50.5333C64.4308 52.5445 65.6 53.7211 67.0607 54.4146Z" fill="white"/>
<defs>
<filter id="filter0_d" x="0" y="0" width="304" height="108" filterUnits="userSpaceOnUse" color-interpolation-filters="sRGB">
<feFlood flood-opacity="0" result="BackgroundImageFix"/>
<feColorMatrix in="SourceAlpha" type="matrix" values="0 0 0 0 0 0 0 0 0 0 0 0 0 0 0 0 0 0 127 0"/>
<feOffset dy="4"/>
<feGaussianBlur stdDeviation="20"/>
<feColorMatrix type="matrix" values="0 0 0 0 0.619608 0 0 0 0 0.619608 0 0 0 0 0.619608 0 0 0 0.15 0"/>
<feBlend mode="normal" in2="BackgroundImageFix" result="effect1_dropShadow"/>
<feBlend mode="normal" in="SourceGraphic" in2="effect1_dropShadow" result="shape"/>
</filter>
<filter id="filter1_d" x="37" y="32" width="44" height="36" filterUnits="userSpaceOnUse" color-interpolation-filters="sRGB">
<feFlood flood-opacity="0" result="BackgroundImageFix"/>
<feColorMatrix in="SourceAlpha" type="matrix" values="0 0 0 0 0 0 0 0 0 0 0 0 0 0 0 0 0 0 127 0"/>
<feOffset dx="1"/>
<feGaussianBlur stdDeviation="2"/>
<feColorMatrix type="matrix" values="0 0 0 0 0 0 0 0 0 0 0 0 0 0 0 0 0 0 0.15 0"/>
<feBlend mode="normal" in2="BackgroundImageFix" result="effect1_dropShadow"/>
<feBlend mode="normal" in="SourceGraphic" in2="effect1_dropShadow" result="shape"/>
</filter>
<linearGradient id="paint0_linear" x1="42.5" y1="41" x2="71.5" y2="64" gradientUnits="userSpaceOnUse">
<stop offset="0.218759" stop-color="#4081FF"/>
<stop offset="1" stop-color="#32CEFF"/>
</linearGradient>
</defs>
</svg>
