<svg width="70" height="20" viewBox="0 0 70 20" fill="none" xmlns="http://www.w3.org/2000/svg">
<g filter="url(#filter0_d)">
<rect x="4" y="2" width="62" height="12" rx="6" fill="#FF4026"/>
</g>
<g clip-path="url(#clip0)">
<path d="M9.54704 6.05965L9.89087 6.28887L10.047 6.05487L9.54704 5.72159L9.12517 6.00284L8.35946 5.49237L8.20337 5.72637L9.12517 6.3409L9.54704 6.05965Z" fill="white"/>
<path d="M9.54704 6.76278L9.89087 6.992L10.047 6.758L9.54704 6.42471L9.12517 6.70596L8.35946 6.1955L8.20337 6.4295L9.12517 7.04403L9.54704 6.76278Z" fill="white"/>
<path d="M14.9534 6.05487L15.1095 6.28887L15.4533 6.05965L15.8752 6.3409L16.797 5.72637L16.6409 5.49237L15.8752 6.00284L15.4533 5.72159L14.9534 6.05487Z" fill="white"/>
<path d="M15.8752 6.70596L15.4533 6.42471L14.9534 6.758L15.1095 6.992L15.4533 6.76278L15.8752 7.04403L16.797 6.4295L16.6409 6.1955L15.8752 6.70596Z" fill="white"/>
<path d="M10.3911 10.3203V10.9531C10.3911 11.1082 10.5173 11.2344 10.6724 11.2344C10.8275 11.2344 10.9536 11.1082 10.9536 10.9531V10.6719H11.2349C11.3125 10.6719 11.3755 10.6087 11.3755 10.5312V10.3203C11.3755 10.0489 11.1547 9.82812 10.8833 9.82812C10.6119 9.82812 10.3911 10.0489 10.3911 10.3203Z" fill="white"/>
<path d="M13.3741 10.1094H11.6267C11.6457 10.1766 11.6567 10.247 11.6567 10.3203V10.5312C11.6567 10.5806 11.6481 10.6279 11.6326 10.6719H13.3682C13.3527 10.6279 13.3442 10.5806 13.3442 10.5312V10.3203C13.3442 10.247 13.3551 10.1766 13.3741 10.1094Z" fill="white"/>
<path d="M14.0701 5.74606C14.0972 5.79219 14.1196 5.84028 14.1373 5.89062H14.1879C14.3128 5.89062 14.4282 5.93155 14.5218 6.00059L15.4535 5.38367L15.7348 5.57112V5.04688C15.7348 4.89177 15.6086 4.76562 15.4535 4.76562H14.7421C14.6947 5.19228 14.4344 5.55509 14.0701 5.74606Z" fill="white"/>
<path d="M15.7345 7.57811V7.28828L15.4533 7.10083L15.0314 7.38208L14.6361 6.78906C14.5335 6.92575 14.3715 7.01561 14.1877 7.01561H14.1622C14.1079 7.3368 13.9631 7.62677 13.7544 7.85936H15.4533C15.6084 7.85936 15.7345 7.73322 15.7345 7.57811Z" fill="white"/>
<path d="M13.9003 6.86192L13.893 6.05248C13.8771 5.97908 13.846 5.91031 13.8024 5.84858C13.7007 5.87516 13.5947 5.89062 13.4849 5.89062H13.2036C12.9748 5.89062 12.7732 5.77911 12.6448 5.60938H11.6567C11.3465 5.60938 11.0942 5.86166 11.0942 6.17188V6.73438C11.0942 7.50978 11.7251 8.14062 12.5005 8.14062C13.2327 8.14062 13.8354 7.5777 13.9003 6.86192ZM11.5161 6.59375C11.5161 6.43836 11.642 6.3125 11.7974 6.3125C11.9528 6.3125 12.0786 6.43836 12.0786 6.59375C12.0786 6.74914 11.9528 6.875 11.7974 6.875C11.642 6.875 11.5161 6.74914 11.5161 6.59375ZM12.7965 7.78161L12.7817 7.75194C12.7282 7.64478 12.6204 7.57812 12.5005 7.57812C12.3805 7.57812 12.2728 7.64478 12.2192 7.75194L12.2045 7.78161L11.9529 7.65575L11.9677 7.62608C12.0692 7.42302 12.2734 7.29688 12.5005 7.29688C12.7276 7.29688 12.9318 7.42302 13.0333 7.62622L13.0481 7.65575L12.7965 7.78161ZM13.2036 6.875C13.0482 6.875 12.9224 6.74914 12.9224 6.59375C12.9224 6.43836 13.0482 6.3125 13.2036 6.3125C13.359 6.3125 13.4849 6.43836 13.4849 6.59375C13.4849 6.74914 13.359 6.875 13.2036 6.875Z" fill="white"/>
<path d="M14.3286 11.2344C14.4837 11.2344 14.6099 11.1082 14.6099 10.9531V10.3203C14.6099 10.0489 14.3891 9.82812 14.1177 9.82812C13.8463 9.82812 13.6255 10.0489 13.6255 10.3203V10.5312C13.6255 10.6087 13.6885 10.6719 13.7661 10.6719H14.0474V10.9531C14.0474 11.1082 14.1735 11.2344 14.3286 11.2344Z" fill="white"/>
<path d="M14.7133 9.82812H14.9964C14.8694 9.38051 14.4982 9.0447 14.0269 8.97214L13.2701 8.8557C13.097 9.11234 12.8097 9.26562 12.5 9.26562C12.1904 9.26562 11.9031 9.11234 11.73 8.8557L10.9731 8.97214C10.502 9.04456 10.1306 9.38051 10.0037 9.82812H10.2867C10.4288 9.65642 10.6432 9.54687 10.8828 9.54687C11.1225 9.54687 11.3369 9.65642 11.479 9.82812H13.5211C13.6631 9.65642 13.8776 9.54687 14.1172 9.54687C14.3568 9.54687 14.5713 9.65642 14.7133 9.82812Z" fill="white"/>
<path d="M12.0298 8.35367L11.949 8.67682L11.9618 8.69595C12.0821 8.87651 12.2837 8.98437 12.5006 8.98437C12.7176 8.98437 12.9191 8.87651 13.0395 8.69595L13.0523 8.67682L12.9715 8.35367C12.8218 8.39726 12.6642 8.42187 12.5006 8.42187C12.3371 8.42187 12.1795 8.39726 12.0298 8.35367Z" fill="white"/>
<path d="M14.188 6.17188V6.73438C14.3431 6.73438 14.4692 6.60823 14.4692 6.45312C14.4692 6.29802 14.3431 6.17188 14.188 6.17188Z" fill="white"/>
<path d="M10.813 6.73438V6.17188C10.6579 6.17188 10.5317 6.29802 10.5317 6.45312C10.5317 6.60823 10.6579 6.73438 10.813 6.73438Z" fill="white"/>
<path d="M8.42236 10.25V10.6719H10.1099V10.3203C10.1099 10.247 10.1208 10.1766 10.1398 10.1094H8.56299C8.48536 10.1094 8.42236 10.1725 8.42236 10.25Z" fill="white"/>
<path d="M14.3286 11.5156C14.0184 11.5156 13.7661 11.2633 13.7661 10.9531H11.2349C11.2349 11.2633 10.9826 11.5156 10.6724 11.5156C10.3621 11.5156 10.1099 11.2633 10.1099 10.9531H8.42236V11.9375C8.42236 12.015 8.48536 12.0781 8.56299 12.0781H16.438C16.5156 12.0781 16.5786 12.015 16.5786 11.9375V10.9531H14.8911C14.8911 11.2633 14.6388 11.5156 14.3286 11.5156Z" fill="white"/>
<path d="M16.4379 10.1094H14.8611C14.8801 10.1766 14.891 10.247 14.891 10.3203V10.6719H16.5785V10.25C16.5785 10.1725 16.5155 10.1094 16.4379 10.1094Z" fill="white"/>
<path d="M10.3358 5.90919L10.2782 5.62048C10.2598 5.5288 10.2505 5.43514 10.2505 5.34205C10.2505 5.13673 10.2952 4.94197 10.374 4.76562H9.54736C9.39225 4.76562 9.26611 4.89177 9.26611 5.04688V5.57112L9.54736 5.38367L10.3358 5.90919Z" fill="white"/>
<path d="M9.96924 7.38194L9.54736 7.10069L9.26611 7.28814V7.57811C9.26611 7.73322 9.39225 7.85936 9.54736 7.85936H11.2463C11.0374 7.62677 10.8926 7.3368 10.8384 7.01561H10.813C10.6292 7.01561 10.4672 6.92575 10.3645 6.78906L9.96924 7.38194Z" fill="white"/>
<path d="M10.6258 5.92508C10.6846 5.90413 10.747 5.89063 10.813 5.89063H10.8622C10.9784 5.56339 11.2901 5.32813 11.6567 5.32813H12.5147C12.5054 5.2827 12.5005 5.23559 12.5005 5.1875C12.5005 4.7998 12.8159 4.48438 13.2036 4.48438V4.76563C12.971 4.76563 12.7817 4.95491 12.7817 5.1875C12.7817 5.42009 12.971 5.60938 13.2036 5.60938H13.4849C14.0275 5.60938 14.4692 5.16781 14.4692 4.625V3.99866C14.1364 4.13281 13.7772 4.20313 13.4185 4.20313H11.6705C11.0426 4.20313 10.5317 4.71402 10.5317 5.34205C10.5317 5.41658 10.5392 5.49181 10.5538 5.56536L10.6258 5.92508Z" fill="white"/>
</g>
<path d="M23.7587 9.64467C23.7587 8.05707 21.4483 8.56046 21.4483 7.65695C21.4483 7.28909 21.7129 7.11484 22.0679 7.12775C22.4551 7.1342 22.6939 7.36653 22.7133 7.6634H23.7071C23.649 6.85024 23.0166 6.37913 22.0937 6.37913C21.1644 6.37913 20.5061 6.8696 20.5061 7.68276C20.4997 9.31553 22.823 8.72825 22.823 9.70275C22.823 10.0254 22.5713 10.2513 22.1453 10.2513C21.7258 10.2513 21.4871 10.0125 21.4612 9.65112H20.4932C20.5061 10.503 21.2289 10.9935 22.1647 10.9935C23.1908 10.9935 23.7587 10.3546 23.7587 9.64467ZM28.937 8.68308C28.937 7.33426 27.9173 6.37913 26.633 6.37913C25.3617 6.37913 24.3226 7.33426 24.3226 8.68308C24.3226 10.0383 25.3617 10.9935 26.633 10.9935C27.9109 10.9935 28.937 10.0383 28.937 8.68308ZM25.252 8.68308C25.252 7.76666 25.8134 7.19228 26.633 7.19228C27.4462 7.19228 28.0077 7.76666 28.0077 8.68308C28.0077 9.59949 27.4462 10.1868 26.633 10.1868C25.8134 10.1868 25.252 9.59949 25.252 8.68308ZM32.5585 6.43721V9.53496L30.5127 6.43721H29.6092V10.9483H30.5127V7.85701L32.5585 10.9483H33.462V6.43721H32.5585ZM38.7498 8.68308C38.7498 7.33426 37.7301 6.37913 36.4458 6.37913C35.1745 6.37913 34.1354 7.33426 34.1354 8.68308C34.1354 10.0383 35.1745 10.9935 36.4458 10.9935C37.7237 10.9935 38.7498 10.0383 38.7498 8.68308ZM35.0648 8.68308C35.0648 7.76666 35.6262 7.19228 36.4458 7.19228C37.259 7.19228 37.8205 7.76666 37.8205 8.68308C37.8205 9.59949 37.259 10.1868 36.4458 10.1868C35.6262 10.1868 35.0648 9.59949 35.0648 8.68308ZM43.3476 7.8441C43.3476 8.25068 43.1217 8.51528 42.6183 8.51528H41.8633V7.19228H42.6183C43.1217 7.19228 43.3476 7.44398 43.3476 7.8441ZM40.9598 6.44366V10.9483H41.8633V9.19291H42.2892L43.2831 10.9483H44.3286L43.2508 9.12192C43.9736 8.92831 44.2769 8.3733 44.2769 7.82474C44.2769 7.06967 43.7348 6.44366 42.6506 6.44366H40.9598ZM45.0812 9.22518C45.0812 10.4127 45.8944 10.9935 46.8818 10.9935C47.8692 10.9935 48.7211 10.4127 48.7211 9.22518V6.44366H47.8111V9.23163C47.8111 9.85118 47.4755 10.1739 46.8947 10.1739C46.3203 10.1739 45.9847 9.85118 45.9847 9.23163V6.44366H45.0812V9.22518ZM49.594 10.9483H50.4975V6.44366H49.594V10.9483ZM51.3902 10.9483H52.2937V8.01835L53.507 10.9483H54.1911L55.3979 8.01835V10.9483H56.3014V6.44366H55.2817L53.849 9.7931L52.4163 6.44366H51.3902V10.9483Z" fill="white"/>
<defs>
<filter id="filter0_d" x="0" y="0" width="70" height="20" filterUnits="userSpaceOnUse" color-interpolation-filters="sRGB">
<feFlood flood-opacity="0" result="BackgroundImageFix"/>
<feColorMatrix in="SourceAlpha" type="matrix" values="0 0 0 0 0 0 0 0 0 0 0 0 0 0 0 0 0 0 127 0"/>
<feOffset dy="2"/>
<feGaussianBlur stdDeviation="2"/>
<feColorMatrix type="matrix" values="0 0 0 0 1 0 0 0 0 0.2498 0 0 0 0 0.1475 0 0 0 0.3 0"/>
<feBlend mode="normal" in2="BackgroundImageFix" result="effect1_dropShadow"/>
<feBlend mode="normal" in="SourceGraphic" in2="effect1_dropShadow" result="shape"/>
</filter>
<clipPath id="clip0">
<rect width="9" height="9" fill="white" transform="translate(8 3.5)"/>
</clipPath>
</defs>
</svg>
