<svg width="60" height="12" viewBox="0 0 60 12" fill="none" xmlns="http://www.w3.org/2000/svg">
<rect width="60" height="12" rx="6" fill="#FFDFDA"/>
<path d="M7.01562 5.75C6.49869 5.75 6.07812 5.32944 6.07812 4.8125C6.07812 4.29556 6.49869 3.875 7.01562 3.875C7.53256 3.875 7.95312 4.29556 7.95312 4.8125C7.95312 5.32944 7.53256 5.75 7.01562 5.75ZM7.01562 4.5C6.84331 4.5 6.70312 4.64019 6.70312 4.8125C6.70312 4.98481 6.84331 5.125 7.01562 5.125C7.18794 5.125 7.32812 4.98481 7.32812 4.8125C7.32812 4.64019 7.18794 4.5 7.01562 4.5ZM7.95312 8.82812H8.57812V6.98438C8.57812 6.46744 8.15756 6.04688 7.64062 6.04688H6.39062C5.87369 6.04688 5.45312 6.46744 5.45312 6.98438V8.82812H6.07812V10H7.32812L8.09244 8.20312L8 7V6.5C8 6.32769 6.59701 6.67188 6.76933 6.67188H7.64062C7.81294 6.67188 7.95312 6.81206 7.95312 6.98438V8.20312H7.32812V10H7.95312V8.82812ZM9.82812 5.4375C9.82812 3.88669 8.56644 2.625 7.01562 2.625C5.46481 2.625 4.20312 3.88669 4.20312 5.4375V10H4.82812V5.4375C4.82812 4.23131 5.80944 3.25 7.01562 3.25C8.22181 3.25 9.20312 4.23131 9.20312 5.4375V10H9.82812V5.4375ZM4.92188 2.3125C4.92188 2.48509 5.06178 2.625 5.23438 2.625C5.40697 2.625 5.54688 2.48509 5.54688 2.3125C5.54688 2.13991 5.40697 2 5.23438 2C5.06178 2 4.92188 2.13991 4.92188 2.3125ZM3 2.3125C3 2.48509 3.13991 2.625 3.3125 2.625C3.48509 2.625 3.625 2.48509 3.625 2.3125C3.625 2.13991 3.48509 2 3.3125 2C3.13991 2 3 2.13991 3 2.3125ZM3.59375 3.375C3.59375 3.54759 3.73366 3.6875 3.90625 3.6875C4.07884 3.6875 4.21875 3.54759 4.21875 3.375C4.21875 3.20241 4.07884 3.0625 3.90625 3.0625C3.73366 3.0625 3.59375 3.20241 3.59375 3.375ZM3 4.82812C3 5.00072 3.13991 5.14062 3.3125 5.14062C3.48509 5.14062 3.625 5.00072 3.625 4.82812C3.625 4.65553 3.48509 4.51562 3.3125 4.51562C3.13991 4.51562 3 4.65553 3 4.82812ZM3.26562 6.45312C3.26562 6.62572 3.40553 6.76562 3.57812 6.76562C3.75072 6.76562 3.89062 6.62572 3.89062 6.45312C3.89062 6.28053 3.75072 6.14062 3.57812 6.14062C3.40553 6.14062 3.26562 6.28053 3.26562 6.45312ZM8.76562 2C8.59303 2 8.45312 2.13991 8.45312 2.3125C8.45312 2.48509 8.59303 2.625 8.76562 2.625C8.93822 2.625 9.07812 2.48509 9.07812 2.3125C9.07812 2.13991 8.93822 2 8.76562 2ZM10.6875 2C10.5149 2 10.375 2.13991 10.375 2.3125C10.375 2.48509 10.5149 2.625 10.6875 2.625C10.8601 2.625 11 2.48509 11 2.3125C11 2.13991 10.8601 2 10.6875 2ZM10.0938 3.09375C9.92116 3.09375 9.78125 3.23366 9.78125 3.40625C9.78125 3.57884 9.92116 3.71875 10.0938 3.71875C10.2663 3.71875 10.4062 3.57884 10.4062 3.40625C10.4062 3.23366 10.2663 3.09375 10.0938 3.09375ZM10.6875 4.51562C10.5149 4.51562 10.375 4.65553 10.375 4.82812C10.375 5.00072 10.5149 5.14062 10.6875 5.14062C10.8601 5.14062 11 5.00072 11 4.82812C11 4.65553 10.8601 4.51562 10.6875 4.51562ZM10.4375 6.14062C10.2649 6.14062 10.125 6.28053 10.125 6.45312C10.125 6.62572 10.2649 6.76562 10.4375 6.76562C10.6101 6.76562 10.75 6.62572 10.75 6.45312C10.75 6.28053 10.6101 6.14062 10.4375 6.14062Z" fill="#FF4026"/>
<path d="M7.01562 4.5C6.84331 4.5 6.70312 4.64019 6.70312 4.8125C6.70312 4.98481 6.84331 5.125 7.01562 5.125C7.18794 5.125 7.32812 4.98481 7.32812 4.8125C7.32812 4.64019 7.18794 4.5 7.01562 4.5Z" fill="#FF4026"/>
<path d="M13.4453 9H14.3488V4.49536H13.4453V9ZM18.3909 7.69636C18.3909 6.10877 16.0805 6.61215 16.0805 5.70864C16.0805 5.34079 16.3451 5.16654 16.7 5.17944C17.0872 5.1859 17.326 5.41823 17.3454 5.7151H18.3392C18.2811 4.90194 17.6487 4.43082 16.7258 4.43082C15.7965 4.43082 15.1382 4.9213 15.1382 5.73446C15.1318 7.36723 17.4551 6.77995 17.4551 7.75445C17.4551 8.07713 17.2034 8.30301 16.7774 8.30301C16.358 8.30301 16.1192 8.06422 16.0934 7.70282H15.1253C15.1382 8.5547 15.861 9.04518 16.7968 9.04518C17.8229 9.04518 18.3909 8.40627 18.3909 7.69636ZM23.5691 6.73477C23.5691 5.38596 22.5494 4.43082 21.2651 4.43082C19.9938 4.43082 18.9547 5.38596 18.9547 6.73477C18.9547 8.09004 19.9938 9.04518 21.2651 9.04518C22.543 9.04518 23.5691 8.09004 23.5691 6.73477ZM19.8841 6.73477C19.8841 5.81836 20.4455 5.24398 21.2651 5.24398C22.0783 5.24398 22.6398 5.81836 22.6398 6.73477C22.6398 7.65119 22.0783 8.23847 21.2651 8.23847C20.4455 8.23847 19.8841 7.65119 19.8841 6.73477ZM24.2413 4.49536V9H26.6291V8.28365H25.1448V4.49536H24.2413ZM30.2624 9H31.2176L29.5977 4.4889H28.5458L26.9259 9H27.8746L28.1714 8.14167H29.9656L30.2624 9ZM29.7203 7.41886H28.4167L29.0685 5.5344L29.7203 7.41886ZM31.8231 9H32.7266V6.07005L33.9398 9H34.6239L35.8308 6.07005V9H36.7343V4.49536H35.7146L34.2819 7.8448L32.8492 4.49536H31.8231V9ZM40.2413 4.4889H37.6275V9H40.2413V8.26428H38.5311V7.07036H40.0477V6.35401H38.5311V5.22462H40.2413V4.4889ZM44.0117 4.4889V7.58665L41.9659 4.4889H41.0623V9H41.9659V5.90871L44.0117 9H44.9152V4.4889H44.0117ZM45.5693 5.22462H46.7696V9H47.6731V5.22462H48.8735V4.49536H45.5693V5.22462ZM53.9277 6.73477C53.9277 5.38596 52.908 4.43082 51.6237 4.43082C50.3524 4.43082 49.3133 5.38596 49.3133 6.73477C49.3133 8.09004 50.3524 9.04518 51.6237 9.04518C52.9015 9.04518 53.9277 8.09004 53.9277 6.73477ZM50.2426 6.73477C50.2426 5.81836 50.8041 5.24398 51.6237 5.24398C52.4369 5.24398 52.9984 5.81836 52.9984 6.73477C52.9984 7.65119 52.4369 8.23847 51.6237 8.23847C50.8041 8.23847 50.2426 7.65119 50.2426 6.73477Z" fill="#717181"/>
</svg>
