<svg width="48" height="12" viewBox="0 0 48 12" fill="none" xmlns="http://www.w3.org/2000/svg">
<rect width="48" height="12" rx="6" fill="#FFDFDA"/>
<g clip-path="url(#clip0)">
<path d="M7.2351 8.80681L6.33068 7.90239L7.65519 6.5779L6.33068 5.2534L7.2351 4.34898V3.32624C6.77897 2.87401 6.17479 2.61788 5.53241 2.60492C4.88834 2.59189 4.2728 2.82417 3.79916 3.25885C3.29824 3.71859 3.0146 4.34886 3.00052 5.03357C2.98643 5.71969 3.25716 6.39104 3.74224 6.87441L7.2351 10.3956V8.80681Z" fill="#FF4026"/>
<path d="M11.9996 5.03355C11.9856 4.34886 11.7019 3.71859 11.201 3.25887C10.7273 2.82417 10.1116 2.59187 9.46774 2.60494C8.82541 2.6179 8.22126 2.87399 7.76505 3.32626V4.56846L7.08008 5.25342L8.40456 6.57791L7.08008 7.90241L7.76505 8.58739V10.3956L11.2573 6.87504C11.7432 6.39059 12.0137 5.71946 11.9996 5.03355Z" fill="#FF4026"/>
</g>
<path d="M14.2065 5.22462H15.4069V9H16.3104V5.22462H17.5108V4.49536H14.2065V5.22462ZM20.7837 4.4889H18.17V9H20.7837V8.26428H19.0735V7.07036H20.5901V6.35401H19.0735V5.22462H20.7837V4.4889ZM18.6669 3.59185V4.23721L20.1513 3.55958V2.82387L18.6669 3.59185ZM23.9927 5.8958C23.9927 6.30238 23.7668 6.56698 23.2634 6.56698H22.5083V5.24398H23.2634C23.7668 5.24398 23.9927 5.49567 23.9927 5.8958ZM21.6048 4.49536V9H22.5083V7.24461H22.9343L23.9281 9H24.9736L23.8959 7.17362C24.6187 6.98001 24.922 6.425 24.922 5.87644C24.922 5.12136 24.3799 4.49536 23.2957 4.49536H21.6048ZM25.7392 9H26.6427V6.07005L27.856 9H28.5401L29.7469 6.07005V9H30.6504V4.49536H29.6307L28.198 7.8448L26.7653 4.49536H25.7392V9ZM31.5437 9H32.4472V4.49536H31.5437V9ZM36.2892 4.4889V7.58665L34.2434 4.4889H33.3398V9H34.2434V5.90871L36.2892 9H37.1927V4.4889H36.2892ZM42.4805 6.73477C42.4805 5.38596 41.4608 4.43082 40.1765 4.43082C38.9052 4.43082 37.8661 5.38596 37.8661 6.73477C37.8661 8.09004 38.9052 9.04518 40.1765 9.04518C41.4543 9.04518 42.4805 8.09004 42.4805 6.73477ZM38.7954 6.73477C38.7954 5.81836 39.3569 5.24398 40.1765 5.24398C40.9897 5.24398 41.5511 5.81836 41.5511 6.73477C41.5511 7.65119 40.9897 8.23847 40.1765 8.23847C39.3569 8.23847 38.7954 7.65119 38.7954 6.73477Z" fill="#717181"/>
<defs>
<clipPath id="clip0">
<rect width="9" height="9" fill="white" transform="translate(3 2)"/>
</clipPath>
</defs>
</svg>
