<svg width="77" height="13" viewBox="0 0 77 13" fill="none" xmlns="http://www.w3.org/2000/svg">
<rect x="0.295654" y="0.227341" width="76.2857" height="12.1364" rx="6.0234" fill="#FFDFDA"/>
<path d="M4.8231 6.49773C4.82426 6.49775 4.8254 6.49775 4.82658 6.49775C5.13069 6.49775 5.37503 6.25135 5.37689 5.95077C5.37877 5.64681 5.13389 5.39886 4.82993 5.39697C4.82876 5.39697 4.82761 5.39696 4.82644 5.39696C4.52408 5.39697 4.27802 5.64114 4.27613 5.94394C4.27425 6.2479 4.51913 6.49585 4.8231 6.49773Z" fill="#FF4026"/>
<path d="M10.7386 4.69936C10.5942 4.69936 10.4771 4.81641 10.4771 4.96079V6.39753C10.2413 6.46788 10.0042 6.53089 9.77176 6.58608L8.98426 5.41803C8.92905 5.33613 8.83674 5.28705 8.73799 5.28705C8.7379 5.28705 8.7378 5.28705 8.73769 5.28705C8.63883 5.28714 8.54649 5.33643 8.49138 5.41852C8.21206 5.83459 8.30213 5.70044 8.06318 6.05636L5.89783 5.97624C5.8187 5.97333 5.74241 6.00268 5.68586 6.05678C5.62898 6.11117 5.59657 6.18628 5.59599 6.26499L5.59181 6.83372C5.09783 6.77179 4.61041 6.67987 4.14471 6.56606C3.91482 6.50987 3.70606 6.45235 3.52288 6.39773V4.96079C3.52288 4.81641 3.40582 4.69936 3.26144 4.69936C3.11705 4.69936 3 4.81641 3 4.96079V9.22065C3 9.26483 3.03582 9.30066 3.08002 9.30066H3.44286C3.48704 9.30066 3.52288 9.26485 3.52288 9.22065V6.79937C4.31409 7.35403 5.57689 8.03675 6.99977 8.03675C8.24678 8.03675 9.46449 7.50906 10.4771 6.79907V9.22065C10.4771 9.26483 10.5129 9.30066 10.5571 9.30066H10.92C10.9642 9.30066 11 9.26485 11 9.22065V4.96079C11 4.81641 10.883 4.69936 10.7386 4.69936ZM6.05447 6.88259L5.83878 6.65979L6.2041 6.89448C6.1539 6.89082 6.10403 6.88686 6.05447 6.88259ZM7.57506 6.90845L7.74644 6.8333C7.86475 6.78145 7.91916 6.64318 7.86703 6.52435C7.81532 6.40635 7.67683 6.35168 7.55808 6.40376L6.81516 6.72953L6.06475 6.24745L6.80343 6.48885L7.46768 6.19757C7.7014 6.09509 7.97192 6.20292 8.07322 6.43393C8.13726 6.57995 8.1201 6.74617 8.03395 6.87466C7.88385 6.88872 7.73079 6.90016 7.57506 6.90845ZM8.24378 6.85315C8.57947 6.35311 8.59012 6.33726 8.73853 6.11616L9.14485 6.71884C8.84906 6.77394 8.54684 6.81936 8.24378 6.85315Z" fill="#FF4026"/>
<path d="M14.5388 6.48947V5.17938H15.2551C15.7649 5.17938 15.9908 5.42462 15.9908 5.83765C15.9908 6.23777 15.7649 6.48947 15.2551 6.48947H14.5388ZM16.9201 5.83765C16.9201 5.05676 16.378 4.44366 15.2938 4.44366H13.6352V8.9483H14.5388V7.21873H15.2938C16.4555 7.21873 16.9201 6.52173 16.9201 5.83765ZM19.9495 5.8441C19.9495 6.25068 19.7236 6.51528 19.2202 6.51528H18.4651V5.19228H19.2202C19.7236 5.19228 19.9495 5.44398 19.9495 5.8441ZM17.5616 4.44366V8.9483H18.4651V7.19291H18.8911L19.8849 8.9483H20.9304L19.8527 7.12192C20.5755 6.92831 20.8788 6.3733 20.8788 5.82474C20.8788 5.06967 20.3367 4.44366 19.2525 4.44366H17.5616ZM26.0909 6.68308C26.0909 5.33426 25.0712 4.37913 23.787 4.37913C22.5156 4.37913 21.4766 5.33426 21.4766 6.68308C21.4766 8.03834 22.5156 8.99348 23.787 8.99348C25.0648 8.99348 26.0909 8.03834 26.0909 6.68308ZM22.4059 6.68308C22.4059 5.76666 22.9674 5.19228 23.787 5.19228C24.6001 5.19228 25.1616 5.76666 25.1616 6.68308C25.1616 7.59949 24.6001 8.18677 23.787 8.18677C22.9674 8.18677 22.4059 7.59949 22.4059 6.68308ZM26.5437 6.68953C26.5437 8.03834 27.5311 8.98703 28.8283 8.98703C29.8286 8.98703 30.6417 8.45783 30.9451 7.5285H29.906C29.6931 7.96735 29.3058 8.18032 28.8218 8.18032C28.0345 8.18032 27.473 7.59949 27.473 6.68953C27.473 5.77311 28.0345 5.19874 28.8218 5.19874C29.3058 5.19874 29.6931 5.41171 29.906 5.8441H30.9451C30.6417 4.92123 29.8286 4.38558 28.8283 4.38558C27.5311 4.38558 26.5437 5.34072 26.5437 6.68953ZM34.1046 5.8441C34.1046 6.25068 33.8787 6.51528 33.3754 6.51528H32.6203V5.19228H33.3754C33.8787 5.19228 34.1046 5.44398 34.1046 5.8441ZM31.7168 4.44366V8.9483H32.6203V7.19291H33.0462L34.0401 8.9483H35.0856L34.0078 7.12192C34.7306 6.92831 35.034 6.3733 35.034 5.82474C35.034 5.06967 34.4918 4.44366 33.4076 4.44366H31.7168ZM38.9102 8.9483H39.8653L38.2454 4.43721H37.1935L35.5736 8.9483H36.5223L36.8192 8.08997H38.6133L38.9102 8.9483ZM38.3681 7.36716H37.0644L37.7162 5.4827L38.3681 7.36716ZM43.6202 7.64467C43.6202 6.05707 41.3098 6.56046 41.3098 5.65695C41.3098 5.28909 41.5744 5.11484 41.9293 5.12775C42.3165 5.1342 42.5553 5.36653 42.5747 5.6634H43.5685C43.5105 4.85024 42.878 4.37913 41.9551 4.37913C41.0258 4.37913 40.3675 4.8696 40.3675 5.68276C40.3611 7.31553 42.6844 6.72825 42.6844 7.70275C42.6844 8.02543 42.4327 8.25131 42.0068 8.25131C41.5873 8.25131 41.3485 8.01253 41.3227 7.65112H40.3546C40.3675 8.503 41.0903 8.99348 42.0261 8.99348C43.0522 8.99348 43.6202 8.35457 43.6202 7.64467ZM44.1647 5.17292H45.3651V8.9483H46.2686V5.17292H47.469V4.44366H44.1647V5.17292ZM48.1282 8.9483H49.0317V4.44366H48.1282V8.9483ZM52.8737 4.43721V7.53496L50.8279 4.43721H49.9244V8.9483H50.8279V5.85701L52.8737 8.9483H53.7772V4.43721H52.8737ZM57.7291 8.9483H58.6842L57.0644 4.43721H56.0124L54.3926 8.9483H55.3412L55.6381 8.08997H57.4322L57.7291 8.9483ZM57.187 7.36716H55.8833L56.5352 5.4827L57.187 7.36716ZM59.0703 6.68953C59.0703 7.93508 59.9157 8.84504 61.0709 8.97412V9.72919H61.471C61.6646 9.72919 61.7873 9.76792 61.7873 9.92926C61.7873 10.0906 61.6646 10.1358 61.471 10.1358H60.7031V10.665H61.6195C62.0712 10.665 62.4778 10.4262 62.4778 9.94216C62.4778 9.45814 62.0712 9.23872 61.6388 9.23872V8.97412C62.5101 8.88377 63.2006 8.36748 63.4717 7.5285H62.4326C62.2197 7.96735 61.8324 8.18032 61.3484 8.18032C60.5611 8.18032 59.9996 7.59949 59.9996 6.68953C59.9996 5.77311 60.5611 5.19874 61.3484 5.19874C61.8324 5.19874 62.2197 5.41171 62.4326 5.8441H63.4717C63.1683 4.92123 62.3552 4.38558 61.3549 4.38558C60.0577 4.38558 59.0703 5.34072 59.0703 6.68953ZM67.3024 8.9483H68.2575L66.6377 4.43721H65.5857L63.9659 8.9483H64.9146L65.2114 8.08997H67.0055L67.3024 8.9483ZM64.9468 4.09517H65.4244C65.4567 3.90156 65.5599 3.81121 65.7084 3.81121C65.9665 3.81121 66.1343 4.10162 66.5022 4.10162C66.9152 4.10162 67.2185 3.84347 67.3024 3.25619H66.8184C66.7926 3.4498 66.6893 3.5337 66.5409 3.5337C66.2827 3.5337 66.1149 3.24974 65.7471 3.24974C65.334 3.24974 65.0307 3.50788 64.9468 4.09517ZM66.7603 7.36716H65.4567L66.1085 5.4827L66.7603 7.36716ZM73.258 6.68308C73.258 5.33426 72.2383 4.37913 70.954 4.37913C69.6826 4.37913 68.6436 5.33426 68.6436 6.68308C68.6436 8.03834 69.6826 8.99348 70.954 8.99348C72.2318 8.99348 73.258 8.03834 73.258 6.68308ZM69.5729 6.68308C69.5729 5.76666 70.1344 5.19228 70.954 5.19228C71.7672 5.19228 72.3286 5.76666 72.3286 6.68308C72.3286 7.59949 71.7672 8.18677 70.954 8.18677C70.1344 8.18677 69.5729 7.59949 69.5729 6.68308Z" fill="#717181"/>
</svg>
