<svg width="19" height="20" viewBox="0 0 19 20" fill="none" xmlns="http://www.w3.org/2000/svg">
<path d="M18.8105 0.187211C18.7006 0.0679557 18.5453 0 18.3834 0H18.3728C16.9943 0.734855 13.7624 1.25185 9.97957 1.25185C6.1967 1.25185 2.9668 0.734855 1.58637 0H1.57837C1.41648 0 1.26125 0.0679557 1.15199 0.187211C1.04206 0.306467 0.987426 0.466363 1.00075 0.627591L2.03008 12.771C2.44115 16.853 5.87757 19.961 9.9809 19.961C14.0829 19.961 17.5187 16.853 17.9311 12.771L18.9604 0.627591C18.9737 0.466363 18.9204 0.306467 18.8105 0.187211ZM4.52779 8.06941C4.40254 7.48246 5.14805 6.82622 6.1907 6.60437C7.23402 6.38251 8.18141 6.67765 8.30599 7.2646C8.43124 7.85155 7.6864 8.50779 6.64374 8.72965C5.60175 8.95217 4.65371 8.65636 4.52779 8.06941ZM13.4826 15.4433C13.3927 15.5652 13.2508 15.6371 13.1002 15.6371H6.86227C6.71103 15.6371 6.57046 15.5652 6.48052 15.4433C6.38991 15.3207 6.36459 15.1648 6.41056 15.0196C6.88758 13.4992 8.30466 12.3959 9.98223 12.3959C11.6598 12.3959 13.0769 13.4985 13.5532 15.0196C13.5985 15.1635 13.5726 15.3207 13.4826 15.4433ZM15.434 8.06941C15.3088 8.65636 14.3627 8.95217 13.3187 8.72965C12.2761 8.50779 11.5299 7.85155 11.6558 7.2646C11.7811 6.67765 12.7278 6.38251 13.7711 6.60437C14.8151 6.82622 15.5593 7.48246 15.434 8.06941Z" fill="#FB6E5A"/>
</svg>
