<svg width="180" height="186" viewBox="0 0 180 186" fill="none" xmlns="http://www.w3.org/2000/svg">
<g filter="url(#filter0_d)">
<rect x="54" y="58" width="62" height="58" rx="10.7907" fill="url(#paint0_linear)"/>
</g>
<g clip-path="url(#clip0)">
<path d="M86.8868 86.9505C87.025 87.3081 87.1016 87.6959 87.1016 88.1016C87.1016 89.8678 85.6646 91.3047 83.8984 91.3047C82.1322 91.3047 80.6953 89.8678 80.6953 88.1016C80.6953 86.3354 82.1322 84.8984 83.8984 84.8984C84.0675 84.8984 84.2335 84.9118 84.3956 84.9372L89.3791 78.7671C89.9348 78.079 90.9432 77.9717 91.6313 78.5275C92.3194 79.0832 92.4266 80.0916 91.8709 80.7797L86.8868 86.9505ZM84.8445 103.769C84.5316 103.787 84.2133 103.797 83.8984 103.797C75.244 103.797 68.2031 96.756 68.2031 88.1016C68.2031 79.4471 75.244 72.4062 83.8984 72.4062C92.3971 72.4062 99.4369 79.3165 99.5911 87.8103C99.6072 88.6946 100.338 89.3984 101.221 89.3825C102.106 89.3664 102.81 88.6365 102.794 87.7521C102.703 82.7775 100.698 78.1152 97.1463 74.6239C93.9737 71.5051 89.8862 69.6378 85.5 69.2712V67.6016C85.5 66.717 84.783 66 83.8984 66C83.0139 66 82.2969 66.717 82.2969 67.6016V69.271C77.853 69.6415 73.7244 71.5491 70.5352 74.7383C66.9658 78.3078 65 83.0536 65 88.1016C65 93.1495 66.9658 97.8954 70.5352 101.465C74.1046 105.034 78.8505 107 83.8984 107C84.2764 107 84.6586 106.989 85.0344 106.966C85.9174 106.914 86.5907 106.156 86.5382 105.273C86.4858 104.39 85.7278 103.716 84.8445 103.769ZM94.807 69.9549L99.1275 73.5421C99.4266 73.7904 99.7892 73.9115 100.15 73.9115C100.61 73.9115 101.066 73.7144 101.383 73.3329C101.948 72.6523 101.854 71.6427 101.174 71.0776L96.8531 67.4904C96.1725 66.9254 95.1628 67.019 94.5978 67.6996C94.0329 68.3802 94.1265 69.3899 94.807 69.9549ZM67.6472 73.9115C68.0029 73.9115 68.361 73.7935 68.6582 73.5512L73.0588 69.964C73.7445 69.4052 73.8471 68.3963 73.2882 67.7107C72.7294 67.0251 71.7206 66.9223 71.0349 67.4813L66.6343 71.0685C65.9487 71.6273 65.846 72.6362 66.4049 73.3218C66.7214 73.7102 67.1824 73.9115 67.6472 73.9115ZM106 97.3906C106 98.3954 105.487 99.3069 104.629 99.8289L93.5202 106.583C93.066 106.859 92.5518 106.997 92.0373 106.997C91.5552 106.997 91.0728 106.876 90.6385 106.632C89.7411 106.127 89.1836 105.174 89.1836 104.144V90.6369C89.1836 89.6074 89.7411 88.6543 90.6385 88.1496C91.536 87.6449 92.6404 87.6636 93.5202 88.1986L104.629 94.9523C105.487 95.4744 106 96.3859 106 97.3906ZM102.474 97.3906L92.3867 91.258V103.523L102.474 97.3906Z" fill="white"/>
</g>
<path d="M67.2168 124.225C67.2168 123.681 67.3357 123.194 67.5736 122.766C67.8115 122.333 68.1365 121.997 68.5488 121.759C68.9611 121.516 69.4209 121.395 69.9284 121.395C70.5468 121.395 71.0754 121.543 71.5141 121.839C71.9581 122.129 72.2805 122.542 72.4813 123.075H71.8312C71.6726 122.7 71.4295 122.407 71.1018 122.195C70.7794 121.984 70.3882 121.878 69.9284 121.878C69.5214 121.878 69.154 121.973 68.8263 122.164C68.5039 122.354 68.2502 122.629 68.0652 122.988C67.8802 123.342 67.7877 123.755 67.7877 124.225C67.7877 124.695 67.8802 125.108 68.0652 125.462C68.2502 125.816 68.5039 126.088 68.8263 126.279C69.154 126.469 69.5214 126.564 69.9284 126.564C70.3882 126.564 70.7794 126.461 71.1018 126.255C71.4295 126.043 71.6726 125.753 71.8312 125.383H72.4813C72.2805 125.911 71.9581 126.321 71.5141 126.612C71.0701 126.902 70.5415 127.048 69.9284 127.048C69.4209 127.048 68.9611 126.929 68.5488 126.691C68.1365 126.448 67.8115 126.112 67.5736 125.684C67.3357 125.256 67.2168 124.769 67.2168 124.225ZM75.4822 127.063C75.0752 127.063 74.7078 126.974 74.3801 126.794C74.0577 126.609 73.8013 126.35 73.611 126.017C73.426 125.679 73.3335 125.285 73.3335 124.836C73.3335 124.386 73.4287 123.995 73.619 123.662C73.8093 123.324 74.0682 123.065 74.396 122.885C74.7237 122.7 75.091 122.608 75.498 122.608C75.905 122.608 76.2724 122.7 76.6001 122.885C76.9331 123.065 77.1921 123.324 77.3771 123.662C77.5674 123.995 77.6625 124.386 77.6625 124.836C77.6625 125.28 77.5674 125.671 77.3771 126.009C77.1868 126.347 76.9252 126.609 76.5922 126.794C76.2592 126.974 75.8892 127.063 75.4822 127.063ZM75.4822 126.58C75.7676 126.58 76.0319 126.516 76.275 126.39C76.5182 126.257 76.7137 126.062 76.8617 125.803C77.015 125.539 77.0917 125.216 77.0917 124.836C77.0917 124.455 77.0177 124.135 76.8697 123.876C76.7217 123.612 76.5261 123.416 76.2829 123.289C76.0398 123.157 75.7755 123.091 75.4901 123.091C75.2047 123.091 74.9404 123.157 74.6972 123.289C74.4541 123.416 74.2585 123.612 74.1105 123.876C73.9678 124.135 73.8965 124.455 73.8965 124.836C73.8965 125.216 73.9678 125.539 74.1105 125.803C74.2585 126.062 74.4515 126.257 74.6893 126.39C74.9325 126.516 75.1967 126.58 75.4822 126.58ZM83.8277 122.592C84.3352 122.592 84.7474 122.753 85.0646 123.075C85.387 123.393 85.5482 123.855 85.5482 124.463V127H85.0012V124.526C85.0012 124.056 84.8875 123.696 84.6602 123.448C84.4329 123.2 84.1237 123.075 83.7326 123.075C83.3256 123.075 83.0005 123.21 82.7574 123.48C82.5142 123.749 82.3927 124.14 82.3927 124.653V127H81.8456V124.526C81.8456 124.056 81.732 123.696 81.5047 123.448C81.2774 123.2 80.9655 123.075 80.5691 123.075C80.1621 123.075 79.837 123.21 79.5939 123.48C79.3508 123.749 79.2292 124.14 79.2292 124.653V127H78.6742V122.671H79.2292V123.416C79.3666 123.147 79.5622 122.943 79.8159 122.806C80.0696 122.663 80.3524 122.592 80.6643 122.592C81.0395 122.592 81.3673 122.682 81.6474 122.861C81.9328 123.041 82.139 123.305 82.2658 123.654C82.3821 123.311 82.5803 123.049 82.8605 122.869C83.1459 122.684 83.4683 122.592 83.8277 122.592ZM90.6975 124.614C90.6975 124.804 90.6922 124.949 90.6816 125.05H87.09C87.1059 125.377 87.1852 125.657 87.3279 125.89C87.4706 126.123 87.6582 126.3 87.8908 126.421C88.1234 126.538 88.3771 126.596 88.6519 126.596C89.0114 126.596 89.3126 126.508 89.5558 126.334C89.8042 126.16 89.9681 125.924 90.0473 125.628H90.6341C90.5283 126.051 90.3011 126.397 89.9522 126.667C89.6086 126.931 89.1752 127.063 88.6519 127.063C88.2449 127.063 87.8802 126.974 87.5578 126.794C87.2354 126.609 86.9817 126.35 86.7967 126.017C86.6169 125.679 86.5271 125.285 86.5271 124.836C86.5271 124.386 86.6169 123.992 86.7967 123.654C86.9764 123.316 87.2274 123.057 87.5499 122.877C87.8723 122.697 88.2396 122.608 88.6519 122.608C89.0642 122.608 89.4236 122.697 89.7302 122.877C90.0421 123.057 90.2799 123.3 90.4438 123.607C90.6129 123.908 90.6975 124.244 90.6975 124.614ZM90.1346 124.598C90.1398 124.275 90.0738 124 89.9363 123.773C89.8042 123.546 89.6218 123.374 89.3893 123.258C89.1567 123.141 88.903 123.083 88.6281 123.083C88.2159 123.083 87.8644 123.215 87.5736 123.48C87.2829 123.744 87.1217 124.117 87.09 124.598H90.1346ZM93.5602 126.596C93.9249 126.596 94.2289 126.508 94.472 126.334C94.7204 126.154 94.8817 125.906 94.9557 125.589H95.5503C95.4551 126.006 95.249 126.347 94.9319 126.612C94.62 126.876 94.2236 127.024 93.7426 127.055V127.531C94.0544 127.521 94.3002 127.579 94.4799 127.706C94.6649 127.838 94.7574 128.025 94.7574 128.269C94.7574 128.506 94.6729 128.694 94.5037 128.831C94.3346 128.974 94.1099 129.046 93.8298 129.046H93.037V128.673H93.7188C93.9144 128.673 94.0571 128.639 94.1469 128.57C94.2421 128.506 94.2897 128.406 94.2897 128.269C94.2897 128.015 94.0994 127.888 93.7188 127.888H93.3541V127.055C92.9841 127.024 92.6564 126.915 92.371 126.73C92.0855 126.54 91.8609 126.284 91.697 125.961C91.5385 125.634 91.4592 125.258 91.4592 124.836C91.4592 124.386 91.549 123.995 91.7287 123.662C91.9085 123.324 92.1569 123.065 92.474 122.885C92.7912 122.7 93.1532 122.608 93.5602 122.608C94.0941 122.608 94.5328 122.74 94.8764 123.004C95.2252 123.268 95.4499 123.628 95.5503 124.082H94.9557C94.8817 123.77 94.7204 123.527 94.472 123.353C94.2289 123.173 93.9249 123.083 93.5602 123.083C93.2695 123.083 93.0079 123.149 92.7753 123.282C92.5427 123.414 92.3577 123.612 92.2203 123.876C92.0882 124.135 92.0221 124.455 92.0221 124.836C92.0221 125.216 92.0882 125.539 92.2203 125.803C92.3577 126.067 92.5427 126.265 92.7753 126.397C93.0079 126.53 93.2695 126.596 93.5602 126.596ZM96.3216 124.828C96.3216 124.384 96.4088 123.995 96.5832 123.662C96.7629 123.324 97.0087 123.065 97.3206 122.885C97.6377 122.7 97.9945 122.608 98.3909 122.608C98.8032 122.608 99.1574 122.703 99.4533 122.893C99.7546 123.083 99.9713 123.326 100.103 123.622V122.671H100.658V127H100.103V126.041C99.9661 126.337 99.7467 126.582 99.4454 126.778C99.1494 126.968 98.7953 127.063 98.383 127.063C97.9919 127.063 97.6377 126.971 97.3206 126.786C97.0087 126.601 96.7629 126.339 96.5832 126.001C96.4088 125.663 96.3216 125.272 96.3216 124.828ZM100.103 124.836C100.103 124.487 100.032 124.18 99.8894 123.916C99.7467 123.652 99.5511 123.448 99.3027 123.305C99.0596 123.163 98.79 123.091 98.494 123.091C98.1874 123.091 97.9126 123.16 97.6694 123.297C97.4263 123.435 97.2334 123.636 97.0907 123.9C96.9532 124.159 96.8845 124.468 96.8845 124.828C96.8845 125.182 96.9532 125.494 97.0907 125.763C97.2334 126.027 97.4263 126.231 97.6694 126.374C97.9126 126.511 98.1874 126.58 98.494 126.58C98.79 126.58 99.0596 126.508 99.3027 126.366C99.5511 126.223 99.7467 126.02 99.8894 125.755C100.032 125.491 100.103 125.184 100.103 124.836ZM102.48 123.44C102.602 123.171 102.787 122.962 103.035 122.814C103.289 122.666 103.598 122.592 103.963 122.592V123.171H103.812C103.411 123.171 103.088 123.279 102.845 123.496C102.602 123.712 102.48 124.074 102.48 124.582V127H101.925V122.671H102.48V123.44ZM73.5344 133.91V135.979H75.6355V136.439H73.5344V138.54H75.8734V139H72.9795V133.45H75.8734V133.91H73.5344ZM78.4575 139.063C77.9606 139.063 77.5536 138.95 77.2365 138.723C76.9247 138.49 76.7502 138.175 76.7132 137.779H77.2841C77.3105 138.022 77.4241 138.22 77.625 138.374C77.8311 138.522 78.106 138.596 78.4496 138.596C78.7509 138.596 78.9861 138.524 79.1552 138.382C79.3296 138.239 79.4168 138.062 79.4168 137.85C79.4168 137.702 79.3693 137.581 79.2741 137.486C79.179 137.391 79.0574 137.317 78.9094 137.264C78.7667 137.206 78.5711 137.145 78.3227 137.081C78.0003 136.997 77.7386 136.912 77.5378 136.828C77.3369 136.743 77.1651 136.619 77.0224 136.455C76.885 136.286 76.8163 136.061 76.8163 135.781C76.8163 135.57 76.8797 135.374 77.0066 135.194C77.1334 135.015 77.3131 134.872 77.5457 134.766C77.7783 134.66 78.0426 134.608 78.3386 134.608C78.8037 134.608 79.179 134.727 79.4644 134.964C79.7498 135.197 79.9031 135.519 79.9243 135.932H79.3693C79.3534 135.678 79.253 135.474 79.068 135.321C78.8883 135.163 78.6399 135.083 78.3227 135.083C78.0426 135.083 77.8153 135.149 77.6409 135.282C77.4664 135.414 77.3792 135.578 77.3792 135.773C77.3792 135.942 77.4294 136.082 77.5299 136.193C77.6356 136.299 77.7651 136.384 77.9184 136.447C78.0716 136.505 78.2778 136.571 78.5368 136.645C78.8486 136.73 79.0971 136.812 79.2821 136.891C79.4671 136.97 79.6256 137.087 79.7578 137.24C79.8899 137.393 79.9586 137.597 79.9639 137.85C79.9639 138.083 79.9005 138.292 79.7736 138.477C79.6468 138.656 79.4697 138.799 79.2424 138.905C79.0151 139.011 78.7535 139.063 78.4575 139.063ZM81.7301 135.139V137.827C81.7301 138.091 81.7803 138.273 81.8808 138.374C81.9812 138.474 82.1583 138.524 82.412 138.524H82.9194V139H82.3248C81.9336 139 81.6429 138.91 81.4526 138.73C81.2623 138.545 81.1672 138.244 81.1672 137.827V135.139H80.5646V134.671H81.1672V133.585H81.7301V134.671H82.9194V135.139H81.7301ZM87.5849 134.671V139H87.0299V138.239C86.903 138.508 86.7075 138.715 86.4432 138.857C86.1789 139 85.8829 139.071 85.5552 139.071C85.0372 139.071 84.6143 138.913 84.2866 138.596C83.9589 138.273 83.7951 137.808 83.7951 137.2V134.671H84.3421V137.137C84.3421 137.607 84.4584 137.967 84.691 138.215C84.9288 138.464 85.2513 138.588 85.6583 138.588C86.0758 138.588 86.4088 138.456 86.6573 138.191C86.9057 137.927 87.0299 137.539 87.0299 137.026V134.671H87.5849ZM88.5983 136.828C88.5983 136.384 88.6881 135.995 88.8678 135.662C89.0475 135.324 89.2933 135.065 89.6052 134.885C89.9223 134.7 90.2791 134.608 90.6755 134.608C91.0561 134.608 91.3997 134.7 91.7062 134.885C92.0128 135.07 92.2374 135.311 92.3802 135.607V133.133H92.9352V139H92.3802V138.033C92.248 138.334 92.0313 138.582 91.73 138.778C91.4287 138.968 91.0746 139.063 90.6676 139.063C90.2712 139.063 89.9144 138.971 89.5972 138.786C89.2854 138.601 89.0396 138.339 88.8599 138.001C88.6855 137.663 88.5983 137.272 88.5983 136.828ZM92.3802 136.836C92.3802 136.487 92.3088 136.18 92.1661 135.916C92.0234 135.652 91.8278 135.448 91.5794 135.305C91.3362 135.163 91.0667 135.091 90.7707 135.091C90.4641 135.091 90.1892 135.16 89.9461 135.297C89.703 135.435 89.51 135.636 89.3673 135.9C89.2299 136.159 89.1612 136.468 89.1612 136.828C89.1612 137.182 89.2299 137.494 89.3673 137.763C89.51 138.027 89.703 138.231 89.9461 138.374C90.1892 138.511 90.4641 138.58 90.7707 138.58C91.0667 138.58 91.3362 138.508 91.5794 138.366C91.8278 138.223 92.0234 138.02 92.1661 137.755C92.3088 137.491 92.3802 137.184 92.3802 136.836ZM96.0971 139.063C95.6901 139.063 95.3227 138.974 94.995 138.794C94.6726 138.609 94.4162 138.35 94.2259 138.017C94.041 137.679 93.9485 137.285 93.9485 136.836C93.9485 136.386 94.0436 135.995 94.2339 135.662C94.4242 135.324 94.6832 135.065 95.0109 134.885C95.3386 134.7 95.7059 134.608 96.1129 134.608C96.5199 134.608 96.8873 134.7 97.215 134.885C97.548 135.065 97.807 135.324 97.992 135.662C98.1823 135.995 98.2774 136.386 98.2774 136.836C98.2774 137.28 98.1823 137.671 97.992 138.009C97.8017 138.347 97.5401 138.609 97.2071 138.794C96.8741 138.974 96.5041 139.063 96.0971 139.063ZM96.0971 138.58C96.3825 138.58 96.6468 138.516 96.8899 138.39C97.1331 138.257 97.3286 138.062 97.4766 137.803C97.6299 137.539 97.7066 137.216 97.7066 136.836C97.7066 136.455 97.6326 136.135 97.4846 135.876C97.3366 135.612 97.141 135.416 96.8979 135.289C96.6547 135.157 96.3904 135.091 96.105 135.091C95.8196 135.091 95.5553 135.157 95.3122 135.289C95.069 135.416 94.8734 135.612 94.7254 135.876C94.5827 136.135 94.5114 136.455 94.5114 136.836C94.5114 137.216 94.5827 137.539 94.7254 137.803C94.8734 138.062 95.0664 138.257 95.3042 138.39C95.5474 138.516 95.8117 138.58 96.0971 138.58Z" fill="#8F8F8F"/>
<defs>
<filter id="filter0_d" x="-9.58805" y="0.770757" width="189.176" height="185.176" filterUnits="userSpaceOnUse" color-interpolation-filters="sRGB">
<feFlood flood-opacity="0" result="BackgroundImageFix"/>
<feColorMatrix in="SourceAlpha" type="matrix" values="0 0 0 0 0 0 0 0 0 0 0 0 0 0 0 0 0 0 127 0"/>
<feOffset dy="6.3588"/>
<feGaussianBlur stdDeviation="31.794"/>
<feColorMatrix type="matrix" values="0 0 0 0 0.619608 0 0 0 0 0.619608 0 0 0 0 0.619608 0 0 0 0.15 0"/>
<feBlend mode="normal" in2="BackgroundImageFix" result="effect1_dropShadow"/>
<feBlend mode="normal" in="SourceGraphic" in2="effect1_dropShadow" result="shape"/>
</filter>
<linearGradient id="paint0_linear" x1="49.8902" y1="100.182" x2="121.556" y2="99.9621" gradientUnits="userSpaceOnUse">
<stop stop-color="#3AFFDB"/>
<stop offset="1" stop-color="#00F2C6"/>
</linearGradient>
<clipPath id="clip0">
<rect width="41" height="41" fill="white" transform="translate(65 66)"/>
</clipPath>
</defs>
</svg>
