<svg width="266" height="266" viewBox="0 0 266 266" fill="none" xmlns="http://www.w3.org/2000/svg">
<g filter="url(#filter0_bd)">
<path d="M121.719 17.075C126.848 9.08983 138.519 9.08984 143.648 17.075L175.173 66.1568C176.938 68.9043 179.67 70.8891 182.828 71.7184L239.25 86.5337C248.429 88.9441 252.036 100.044 246.026 107.389L209.089 152.539C207.021 155.066 205.977 158.278 206.165 161.538L209.51 219.776C210.054 229.251 200.612 236.111 191.769 232.666L137.415 211.488C134.372 210.302 130.995 210.302 127.953 211.488L73.5985 232.666C64.7555 236.111 55.3133 229.251 55.8575 219.776L59.2025 161.538C59.3897 158.278 58.3462 155.066 56.2786 152.539L19.3409 107.389C13.3315 100.044 16.9381 88.9441 26.1173 86.5337L82.5388 71.7184C85.6971 70.8891 88.429 68.9043 90.1937 66.1568L121.719 17.075Z" fill="#EFEFEF" fill-opacity="0.61"/>
<path d="M121.719 17.075C126.848 9.08983 138.519 9.08984 143.648 17.075L175.173 66.1568C176.938 68.9043 179.67 70.8891 182.828 71.7184L239.25 86.5337C248.429 88.9441 252.036 100.044 246.026 107.389L209.089 152.539C207.021 155.066 205.977 158.278 206.165 161.538L209.51 219.776C210.054 229.251 200.612 236.111 191.769 232.666L137.415 211.488C134.372 210.302 130.995 210.302 127.953 211.488L73.5985 232.666C64.7555 236.111 55.3133 229.251 55.8575 219.776L59.2025 161.538C59.3897 158.278 58.3462 155.066 56.2786 152.539L19.3409 107.389C13.3315 100.044 16.9381 88.9441 26.1173 86.5337L82.5388 71.7184C85.6971 70.8891 88.429 68.9043 90.1937 66.1568L121.719 17.075Z" stroke="white"/>
<path d="M121.719 17.075C126.848 9.08983 138.519 9.08984 143.648 17.075L175.173 66.1568C176.938 68.9043 179.67 70.8891 182.828 71.7184L239.25 86.5337C248.429 88.9441 252.036 100.044 246.026 107.389L209.089 152.539C207.021 155.066 205.977 158.278 206.165 161.538L209.51 219.776C210.054 229.251 200.612 236.111 191.769 232.666L137.415 211.488C134.372 210.302 130.995 210.302 127.953 211.488L73.5985 232.666C64.7555 236.111 55.3133 229.251 55.8575 219.776L59.2025 161.538C59.3897 158.278 58.3462 155.066 56.2786 152.539L19.3409 107.389C13.3315 100.044 16.9381 88.9441 26.1173 86.5337L82.5388 71.7184C85.6971 70.8891 88.429 68.9043 90.1937 66.1568L121.719 17.075Z" stroke="#BEBCBC" stroke-opacity="0.19"/>
</g>
<defs>
<filter id="filter0_bd" x="-0.142351" y="-5.44275" width="265.652" height="255.542" filterUnits="userSpaceOnUse" color-interpolation-filters="sRGB">
<feFlood flood-opacity="0" result="BackgroundImageFix"/>
<feGaussianBlur in="BackgroundImage" stdDeviation="8.01444"/>
<feComposite in2="SourceAlpha" operator="in" result="effect1_backgroundBlur"/>
<feColorMatrix in="SourceAlpha" type="matrix" values="0 0 0 0 0 0 0 0 0 0 0 0 0 0 0 0 0 0 127 0"/>
<feOffset dy="5"/>
<feGaussianBlur stdDeviation="2"/>
<feColorMatrix type="matrix" values="0 0 0 0 0.758333 0 0 0 0 0.758333 0 0 0 0 0.758333 0 0 0 0.28 0"/>
<feBlend mode="normal" in2="effect1_backgroundBlur" result="effect2_dropShadow"/>
<feBlend mode="normal" in="SourceGraphic" in2="effect2_dropShadow" result="shape"/>
</filter>
</defs>
</svg>
