<svg width="184" height="186" viewBox="0 0 184 186" fill="none" xmlns="http://www.w3.org/2000/svg">
<g filter="url(#filter0_d)">
<rect x="64" y="58" width="62" height="58" rx="10.7907" fill="url(#paint0_linear)"/>
</g>
<g clip-path="url(#clip0)">
<path d="M110.71 92.9118C108.2 92.9118 105.735 92.5192 103.4 91.7474C102.234 91.3503 100.912 91.6584 100.15 92.4325L95.5398 95.9126C90.1934 93.0587 86.9002 89.7665 84.0853 84.4604L87.463 79.9704C88.3405 79.0941 88.6553 77.8139 88.2782 76.6127C87.503 74.2648 87.1092 71.8013 87.1092 69.29C87.1093 67.4759 85.6334 66 83.8194 66H76.2898C74.4759 66 73 67.4759 73 69.2898C73 90.0836 89.9166 107 110.71 107C112.524 107 114 105.524 114 103.71V96.2016C114 94.3877 112.524 92.9118 110.71 92.9118ZM111.722 103.71C111.722 104.268 111.268 104.722 110.71 104.722C91.1722 104.722 75.2778 88.8278 75.2778 69.2899C75.2778 68.7316 75.7316 68.2778 76.2899 68.2778H83.8195C84.3778 68.2778 84.8316 68.7316 84.8316 69.2899C84.8316 72.0448 85.2642 74.7486 86.1106 77.31C86.2285 77.6882 86.1328 78.0796 85.7503 78.4779L81.8353 83.6628C81.5728 84.0109 81.5316 84.4769 81.7285 84.865C84.9238 91.1456 88.8066 95.0283 95.1316 98.2692C95.5186 98.4705 95.989 98.4283 96.3372 98.1647L101.641 94.1464C101.909 93.8784 102.31 93.7827 102.673 93.9062C105.253 94.7581 107.956 95.1896 110.71 95.1896C111.268 95.1896 111.722 95.6434 111.722 96.2017V103.71Z" fill="white"/>
<path d="M94.6389 75.1111H92.3612C91.7316 75.1111 91.2222 75.6205 91.2222 76.25C91.2222 76.8795 91.7316 77.3889 92.3612 77.3889H94.6389C96.523 77.3889 98.0556 75.8563 98.0556 73.9723C98.0556 72.0882 96.523 70.5556 94.6389 70.5556C94.0104 70.5556 93.5 70.045 93.5 69.4167C93.5 68.7883 94.0104 68.2777 94.6389 68.2777H96.9166C97.5462 68.2777 98.0556 67.7683 98.0556 67.1388C98.0556 66.5094 97.5462 66 96.9166 66H94.6389C92.7548 66 91.2222 67.5326 91.2222 69.4167C91.2222 71.3007 92.7548 72.8333 94.6389 72.8333C95.2672 72.8333 95.7778 73.3438 95.7778 73.9723C95.7777 74.6006 95.2672 75.1111 94.6389 75.1111Z" fill="white"/>
<path d="M110.583 70.5556C109.955 70.5556 109.444 70.0451 109.444 69.4167C109.444 68.7882 109.955 68.2777 110.583 68.2777H112.861C113.491 68.2777 114 67.7683 114 67.1388C114 66.5094 113.491 66 112.861 66H110.583C108.699 66 107.167 67.5326 107.167 69.4167C107.167 71.3007 108.699 72.8333 110.583 72.8333C111.212 72.8333 111.722 73.3438 111.722 73.9723C111.722 74.6006 111.212 75.1112 110.583 75.1112H108.306C107.676 75.1111 107.167 75.6205 107.167 76.25C107.167 76.8795 107.676 77.3889 108.306 77.3889H110.583C112.467 77.3889 114 75.8563 114 73.9723C114 72.0882 112.467 70.5556 110.583 70.5556Z" fill="white"/>
<path d="M102.611 77.3889C104.495 77.3889 106.028 75.8563 106.028 73.9723V69.4167C106.028 67.5326 104.495 66 102.611 66C100.727 66 99.1945 67.5326 99.1945 69.4167V73.9723C99.1945 75.8563 100.727 77.3889 102.611 77.3889ZM101.472 69.4167C101.472 68.7883 101.983 68.2777 102.611 68.2777C103.24 68.2777 103.75 68.7883 103.75 69.4167V73.9723C103.75 74.6006 103.24 75.1112 102.611 75.1112C101.983 75.1112 101.472 74.6007 101.472 73.9723V69.4167H101.472Z" fill="white"/>
</g>
<defs>
<filter id="filter0_d" x="0.411953" y="0.770757" width="189.176" height="185.176" filterUnits="userSpaceOnUse" color-interpolation-filters="sRGB">
<feFlood flood-opacity="0" result="BackgroundImageFix"/>
<feColorMatrix in="SourceAlpha" type="matrix" values="0 0 0 0 0 0 0 0 0 0 0 0 0 0 0 0 0 0 127 0"/>
<feOffset dy="6.3588"/>
<feGaussianBlur stdDeviation="31.794"/>
<feColorMatrix type="matrix" values="0 0 0 0 0.619608 0 0 0 0 0.619608 0 0 0 0 0.619608 0 0 0 0.15 0"/>
<feBlend mode="normal" in2="BackgroundImageFix" result="effect1_dropShadow"/>
<feBlend mode="normal" in="SourceGraphic" in2="effect1_dropShadow" result="shape"/>
</filter>
<linearGradient id="paint0_linear" x1="59.8902" y1="100.182" x2="131.556" y2="99.9621" gradientUnits="userSpaceOnUse">
<stop stop-color="#3AFFDB"/>
<stop offset="1" stop-color="#00F2C6"/>
</linearGradient>
<clipPath id="clip0">
<rect width="41" height="41" fill="white" transform="translate(73 66)"/>
</clipPath>
</defs>
</svg>
