<svg width="190" height="186" viewBox="0 0 190 186" fill="none" xmlns="http://www.w3.org/2000/svg">
<g filter="url(#filter0_d)">
<rect x="64" y="58" width="62" height="58" rx="10.7907" fill="url(#paint0_linear)"/>
</g>
<g clip-path="url(#clip0)">
<path d="M112.264 90.3462C111.909 89.4663 110.907 89.041 110.027 89.397C109.147 89.7528 108.722 90.7545 109.078 91.6346L111.102 96.6418L105.09 93.9916C104.655 93.7998 104.159 93.7968 103.722 93.9834C101.667 94.8601 99.4663 95.3046 97.18 95.3046C87.9784 95.3046 81.7972 88.1 81.7972 81.371C81.7972 73.6881 88.6979 67.4375 97.18 67.4375C105.662 67.4375 112.563 73.6881 112.563 81.371C112.563 81.9704 112.507 82.6882 112.41 83.3401C112.27 84.279 112.917 85.1536 113.856 85.2936C114.795 85.4341 115.67 84.7862 115.81 83.8473C115.933 83.0232 116 82.1437 116 81.371C116 76.7021 114.023 72.3211 110.433 69.0353C106.885 65.7883 102.179 64 97.18 64C92.1814 64 87.4748 65.7883 83.927 69.0352C80.7188 71.9715 78.8 75.7827 78.4278 79.8921C74.3924 82.5644 72.0004 86.8466 72.0004 91.4591C72.0004 94.3404 72.9081 97.0743 74.6361 99.427L72.1257 105.637C71.8635 106.285 72.0205 107.028 72.5228 107.515C72.8501 107.833 73.2814 108 73.7195 108C73.9535 108 74.1894 107.952 74.4124 107.854L81.6508 104.663C83.4716 105.341 85.3964 105.684 87.3831 105.684C87.426 105.684 87.4682 105.681 87.5104 105.678C90.3839 105.656 93.1775 104.9 95.597 103.486C97.7641 102.218 99.5468 100.478 100.797 98.4224C102.017 98.2032 103.209 97.8722 104.367 97.4297L113.588 101.495C113.811 101.593 114.047 101.641 114.281 101.641C114.719 101.641 115.151 101.473 115.478 101.156C115.98 100.669 116.137 99.9262 115.875 99.2776L112.264 90.3462ZM87.3832 102.242C87.3598 102.242 87.3369 102.245 87.3136 102.246C85.5586 102.237 83.8694 101.892 82.2919 101.219C81.8545 101.032 81.3593 101.035 80.9241 101.227L76.899 103.001L78.1975 99.7892C78.4375 99.1955 78.3274 98.5174 77.912 98.0301C76.2934 96.1311 75.4379 93.859 75.4379 91.4591C75.4379 88.7125 76.5933 86.11 78.6149 84.1368C79.2443 87.5678 81.0202 90.8499 83.6991 93.4282C87.0327 96.6365 91.4421 98.4952 96.2035 98.7189C93.9681 100.919 90.7692 102.242 87.3832 102.242Z" fill="white"/>
<path d="M97.0937 83.164C98.043 83.164 98.8125 82.3945 98.8125 81.4453C98.8125 80.496 98.043 79.7265 97.0937 79.7265C96.1445 79.7265 95.375 80.496 95.375 81.4453C95.375 82.3945 96.1445 83.164 97.0937 83.164Z" fill="white"/>
<path d="M103.969 83.164C104.918 83.164 105.687 82.3945 105.687 81.4453C105.687 80.496 104.918 79.7265 103.969 79.7265C103.02 79.7265 102.25 80.496 102.25 81.4453C102.25 82.3945 103.02 83.164 103.969 83.164Z" fill="white"/>
<path d="M90.2188 83.164C91.168 83.164 91.9376 82.3945 91.9376 81.4453C91.9376 80.496 91.168 79.7265 90.2188 79.7265C89.2696 79.7265 88.5001 80.496 88.5001 81.4453C88.5001 82.3945 89.2696 83.164 90.2188 83.164Z" fill="white"/>
</g>
<defs>
<filter id="filter0_d" x="0.411953" y="0.770757" width="189.176" height="185.176" filterUnits="userSpaceOnUse" color-interpolation-filters="sRGB">
<feFlood flood-opacity="0" result="BackgroundImageFix"/>
<feColorMatrix in="SourceAlpha" type="matrix" values="0 0 0 0 0 0 0 0 0 0 0 0 0 0 0 0 0 0 127 0"/>
<feOffset dy="6.3588"/>
<feGaussianBlur stdDeviation="31.794"/>
<feColorMatrix type="matrix" values="0 0 0 0 0.619608 0 0 0 0 0.619608 0 0 0 0 0.619608 0 0 0 0.15 0"/>
<feBlend mode="normal" in2="BackgroundImageFix" result="effect1_dropShadow"/>
<feBlend mode="normal" in="SourceGraphic" in2="effect1_dropShadow" result="shape"/>
</filter>
<linearGradient id="paint0_linear" x1="59.8902" y1="100.182" x2="131.556" y2="99.9621" gradientUnits="userSpaceOnUse">
<stop stop-color="#3AFFDB"/>
<stop offset="1" stop-color="#00F2C6"/>
</linearGradient>
<clipPath id="clip0">
<rect width="44" height="44" fill="white" transform="translate(72 64)"/>
</clipPath>
</defs>
</svg>
