<svg width="292" height="270" viewBox="0 0 292 270" fill="none" xmlns="http://www.w3.org/2000/svg">
<path d="M150 27C143.925 27 139 31.9247 139 38C139 44.0753 143.925 49 150 49C156.075 49 161 44.0753 161 38C161 31.9247 156.075 27 150 27ZM153.061 35.4069C153.669 35.4069 154.187 36.1152 154.393 37.1133C154.429 37.2927 154.383 37.4787 154.268 37.6207C154.153 37.7623 153.979 37.8455 153.797 37.8455H152.326C152.143 37.8455 151.969 37.7633 151.854 37.6212C151.738 37.4797 151.693 37.2927 151.73 37.1138C151.936 36.1152 152.453 35.4069 153.061 35.4069ZM146.939 35.4069C147.547 35.4069 148.065 36.1157 148.271 37.1133C148.307 37.2927 148.262 37.4787 148.146 37.6207C148.031 37.7623 147.857 37.8455 147.675 37.8455H146.204C146.021 37.8455 145.848 37.7633 145.732 37.6212C145.617 37.4792 145.571 37.2927 145.608 37.1133C145.813 36.1157 146.331 35.4069 146.939 35.4069ZM150 45.0443C147.137 45.0443 144.636 43.49 143.294 41.18C143.185 40.9915 143.185 40.7596 143.293 40.5707C143.402 40.3817 143.603 40.2665 143.821 40.2665H156.179C156.396 40.2665 156.598 40.3827 156.706 40.5711C156.816 40.7596 156.816 40.992 156.706 41.1795C155.364 43.49 152.863 45.0443 150 45.0443Z" fill="#B3B1B1"/>
<g clip-path="url(#clip0)">
<path d="M207.171 214.012C204.33 214.012 201.659 212.906 199.65 210.897C197.641 208.888 196.534 206.217 196.534 203.376C196.534 200.535 197.641 197.864 199.65 195.855C201.659 193.846 204.33 192.739 207.171 192.739C210.012 192.739 212.683 193.846 214.692 195.855C216.701 197.864 217.807 200.535 217.807 203.376C217.807 206.217 216.701 208.888 214.692 210.897C212.683 212.906 210.012 214.012 207.171 214.012ZM207.171 194.401C202.222 194.401 198.196 198.427 198.196 203.376C198.196 208.324 202.222 212.35 207.171 212.35C212.119 212.35 216.145 208.324 216.145 203.376C216.145 198.427 212.119 194.401 207.171 194.401ZM209.663 209.442H204.678C204.001 209.442 203.374 209.074 203.043 208.482C202.71 207.885 202.723 207.182 203.081 206.601C203.682 205.622 204.88 204.456 207.171 204.456C209.462 204.456 210.66 205.622 211.261 206.601C211.618 207.182 211.632 207.885 211.298 208.482C210.967 209.074 210.341 209.442 209.663 209.442ZM207.171 206.118C205.948 206.118 205.048 206.573 204.496 207.471C204.447 207.551 204.468 207.624 204.494 207.671C204.517 207.712 204.571 207.78 204.678 207.78H209.663C209.771 207.78 209.825 207.712 209.848 207.671C209.874 207.624 209.895 207.551 209.845 207.471C209.293 206.573 208.394 206.118 207.171 206.118ZM211.285 203.75C211.226 203.75 211.166 203.743 211.106 203.73C210.466 203.589 209.826 203.315 209.206 202.914C208.68 202.574 208.37 201.996 208.376 201.367C208.382 200.739 208.703 200.167 209.235 199.838C209.788 199.496 210.402 199.228 211.06 199.044C211.502 198.92 211.96 199.178 212.084 199.62C212.208 200.062 211.95 200.52 211.509 200.644C211.001 200.787 210.53 200.991 210.109 201.251C210.051 201.287 210.038 201.343 210.038 201.383C210.037 201.424 210.049 201.48 210.108 201.518C210.561 201.811 211.017 202.009 211.463 202.107C211.911 202.206 212.194 202.649 212.096 203.097C212.01 203.485 211.667 203.75 211.285 203.75ZM203.236 203.73C203.876 203.589 204.515 203.315 205.136 202.914C205.662 202.574 205.972 201.996 205.966 201.367C205.96 200.739 205.639 200.167 205.107 199.838C204.554 199.496 203.94 199.228 203.282 199.044C202.84 198.92 202.381 199.178 202.257 199.62C202.134 200.062 202.391 200.52 202.833 200.644C203.341 200.787 203.812 200.991 204.232 201.251C204.291 201.287 204.304 201.343 204.304 201.383C204.304 201.424 204.293 201.48 204.234 201.518C203.781 201.811 203.325 202.009 202.879 202.107C202.431 202.206 202.147 202.649 202.246 203.097C202.331 203.485 202.675 203.75 203.057 203.75C203.116 203.75 203.176 203.743 203.236 203.73Z" fill="#B3B1B1"/>
<path fill-rule="evenodd" clip-rule="evenodd" d="M207.171 194.401C202.222 194.401 198.196 198.427 198.196 203.376C198.196 208.324 202.222 212.35 207.171 212.35C212.119 212.35 216.145 208.324 216.145 203.376C216.145 198.427 212.119 194.401 207.171 194.401ZM204.678 209.442H209.663C210.341 209.442 210.967 209.074 211.298 208.482C211.632 207.885 211.618 207.182 211.261 206.601C210.66 205.622 209.462 204.456 207.171 204.456C204.88 204.456 203.682 205.622 203.081 206.601C202.723 207.182 202.71 207.885 203.043 208.482C203.374 209.074 204.001 209.442 204.678 209.442ZM211.106 203.73C211.166 203.743 211.226 203.75 211.285 203.75C211.667 203.75 212.01 203.485 212.096 203.097C212.194 202.649 211.911 202.206 211.463 202.107C211.017 202.009 210.561 201.811 210.108 201.518C210.049 201.48 210.037 201.424 210.038 201.383C210.038 201.343 210.051 201.287 210.109 201.251C210.53 200.991 211.001 200.787 211.509 200.644C211.95 200.52 212.208 200.062 212.084 199.62C211.96 199.178 211.502 198.92 211.06 199.044C210.402 199.228 209.788 199.496 209.235 199.838C208.703 200.167 208.382 200.739 208.376 201.367C208.37 201.996 208.68 202.574 209.206 202.914C209.826 203.315 210.466 203.589 211.106 203.73ZM205.136 202.914C204.515 203.315 203.876 203.589 203.236 203.73C203.176 203.743 203.116 203.75 203.057 203.75C202.675 203.75 202.331 203.485 202.246 203.097C202.147 202.649 202.431 202.206 202.879 202.107C203.325 202.009 203.781 201.811 204.234 201.518C204.293 201.48 204.304 201.424 204.304 201.383C204.304 201.343 204.291 201.287 204.232 201.251C203.812 200.991 203.341 200.787 202.833 200.644C202.391 200.52 202.134 200.062 202.257 199.62C202.381 199.178 202.84 198.92 203.282 199.044C203.94 199.228 204.554 199.496 205.107 199.838C205.639 200.167 205.96 200.739 205.966 201.367C205.972 201.996 205.662 202.574 205.136 202.914Z" fill="#B3B1B1"/>
<path d="M207.171 206.118C205.948 206.118 205.048 206.573 204.496 207.471C204.447 207.551 204.468 207.624 204.494 207.671C204.517 207.712 204.571 207.78 204.678 207.78H209.663C209.771 207.78 209.825 207.712 209.848 207.671C209.874 207.624 209.895 207.551 209.845 207.471C209.293 206.573 208.394 206.118 207.171 206.118Z" fill="#B3B1B1"/>
<mask id="mask0" mask-type="alpha" maskUnits="userSpaceOnUse" x="200" y="198" width="13" height="12">
<rect x="200.897" y="198.141" width="11.8829" height="11.7167" fill="#C4C4C4"/>
</mask>
<g mask="url(#mask0)">
<path d="M207.171 214.012C204.33 214.012 201.659 212.906 199.65 210.897C197.641 208.888 196.534 206.217 196.534 203.376C196.534 200.535 197.641 197.864 199.65 195.855C201.659 193.846 204.33 192.739 207.171 192.739C210.012 192.739 212.683 193.846 214.692 195.855C216.701 197.864 217.807 200.535 217.807 203.376C217.807 206.217 216.701 208.888 214.692 210.897C212.683 212.906 210.012 214.012 207.171 214.012ZM207.171 194.401C202.222 194.401 198.196 198.427 198.196 203.376C198.196 208.324 202.222 212.35 207.171 212.35C212.119 212.35 216.145 208.324 216.145 203.376C216.145 198.427 212.119 194.401 207.171 194.401ZM209.663 209.442H204.678C204.001 209.442 203.374 209.074 203.043 208.482C202.71 207.885 202.723 207.182 203.081 206.601C203.682 205.622 204.88 204.456 207.171 204.456C209.462 204.456 210.66 205.622 211.261 206.601C211.618 207.182 211.632 207.885 211.298 208.482C210.967 209.074 210.341 209.442 209.663 209.442ZM207.171 206.118C205.948 206.118 205.048 206.573 204.496 207.471C204.447 207.552 204.468 207.624 204.494 207.671C204.517 207.712 204.571 207.78 204.678 207.78H209.663C209.771 207.78 209.825 207.712 209.848 207.671C209.874 207.624 209.895 207.552 209.845 207.471C209.293 206.573 208.394 206.118 207.171 206.118ZM211.285 203.75C211.226 203.75 211.166 203.744 211.106 203.73C210.466 203.589 209.826 203.315 209.206 202.914C208.68 202.574 208.37 201.996 208.376 201.367C208.382 200.739 208.703 200.167 209.235 199.838C209.788 199.496 210.402 199.228 211.06 199.044C211.502 198.92 211.96 199.178 212.084 199.62C212.208 200.062 211.95 200.52 211.509 200.644C211.001 200.787 210.53 200.991 210.109 201.251C210.051 201.287 210.038 201.343 210.038 201.383C210.037 201.424 210.049 201.48 210.108 201.518C210.561 201.811 211.017 202.009 211.463 202.107C211.911 202.206 212.194 202.649 212.096 203.097C212.01 203.485 211.667 203.75 211.285 203.75ZM203.236 203.73C203.876 203.589 204.515 203.315 205.136 202.914C205.662 202.574 205.972 201.996 205.966 201.367C205.96 200.739 205.639 200.167 205.107 199.838C204.554 199.496 203.94 199.228 203.282 199.044C202.84 198.92 202.381 199.178 202.257 199.62C202.134 200.062 202.391 200.52 202.833 200.644C203.341 200.787 203.812 200.991 204.232 201.251C204.291 201.287 204.304 201.343 204.304 201.383C204.304 201.424 204.293 201.48 204.234 201.518C203.781 201.811 203.325 202.009 202.879 202.107C202.431 202.206 202.147 202.649 202.246 203.097C202.331 203.485 202.675 203.75 203.057 203.75C203.116 203.75 203.176 203.744 203.236 203.73Z" fill="#F4F4F4"/>
</g>
</g>
<g clip-path="url(#clip1)">
<path d="M204.08 196.234V196.708C204.08 197.232 203.655 197.657 203.131 197.657H195.304C194.78 197.657 194.356 197.232 194.356 196.708V192.202C194.356 191.678 194.78 191.253 195.304 191.253H203.131C203.655 191.253 204.08 191.678 204.08 192.202V192.676H204.554C204.816 192.676 205.029 192.889 205.029 193.15V195.759C205.029 196.021 204.816 196.234 204.554 196.234H204.08Z" fill="#F4F4F4"/>
<path d="M203.131 198.013H195.304C194.585 198.013 194 197.428 194 196.708V192.202C194 191.482 194.585 190.897 195.304 190.897H203.131C203.85 190.897 204.436 191.482 204.436 192.202V192.32H204.55C205.008 192.32 205.38 192.693 205.38 193.15V195.759C205.38 196.217 205.008 196.589 204.55 196.589H204.436V196.708C204.436 197.428 203.85 198.013 203.131 198.013ZM195.304 191.609C194.978 191.609 194.712 191.875 194.712 192.202V196.708C194.712 197.035 194.978 197.301 195.304 197.301H203.131C203.458 197.301 203.724 197.035 203.724 196.708V196.234C203.724 196.037 203.883 195.878 204.08 195.878H204.55C204.615 195.878 204.669 195.825 204.669 195.759V193.15C204.669 193.085 204.615 193.032 204.55 193.032H204.08C203.883 193.032 203.724 192.872 203.724 192.676V192.202C203.724 191.875 203.458 191.609 203.131 191.609H195.304Z" fill="#B3B1B1"/>
<path d="M195.779 196.589C195.582 196.589 195.423 196.43 195.423 196.234V192.676C195.423 192.48 195.582 192.32 195.779 192.32C195.975 192.32 196.135 192.48 196.135 192.676V196.234C196.135 196.43 195.975 196.589 195.779 196.589Z" fill="#B3B1B1"/>
</g>
<path d="M96 192C89.9349 192 85 196.935 85 203C85 209.065 89.9349 214 96 214C102.065 214 107 209.065 107 203C107 196.935 102.065 192 96 192ZM97.65 199.7L100.4 197.637C100.702 197.411 101.133 197.47 101.362 197.775C101.589 198.079 101.528 198.509 101.224 198.738L99.2079 200.25L101.225 201.762C101.529 201.991 101.591 202.421 101.364 202.725C101.228 202.905 101.02 203 100.812 203C100.67 203 100.524 202.955 100.4 202.863L97.65 200.8C97.4767 200.671 97.375 200.466 97.375 200.25C97.375 200.034 97.4767 199.829 97.65 199.7ZM90.775 198.738C90.4711 198.509 90.4092 198.079 90.6375 197.775C90.8657 197.471 91.2961 197.409 91.6 197.637L94.35 199.7C94.5233 199.829 94.625 200.034 94.625 200.25C94.625 200.466 94.5233 200.671 94.35 200.8L91.6 202.863C91.4763 202.955 91.3319 203 91.1875 203C90.9785 203 90.7722 202.905 90.6375 202.725C90.4092 202.421 90.4711 201.991 90.775 201.762L92.7921 200.25L90.775 198.738ZM102.115 208.121C101.994 208.36 101.752 208.5 101.5 208.5C101.397 208.5 101.292 208.477 101.192 208.427L98.75 207.206L96.308 208.428C96.1141 208.525 95.8859 208.525 95.6934 208.428L93.25 207.206L90.808 208.428C90.4684 208.6 90.0559 208.459 89.8854 208.121C89.7149 207.781 89.8537 207.368 90.1934 207.198L92.9434 205.823C93.1372 205.727 93.3655 205.727 93.558 205.823L96 207.044L98.442 205.821C98.6359 205.725 98.8641 205.725 99.0566 205.821L101.807 207.196C102.148 207.368 102.284 207.781 102.115 208.121Z" fill="#B3B1B1"/>
<defs>
<clipPath id="clip0">
<rect width="21.2728" height="21.2728" fill="white" transform="translate(196.534 192.739)"/>
</clipPath>
<clipPath id="clip1">
<rect width="11.3843" height="11.3843" fill="white" transform="translate(194 189)"/>
</clipPath>
</defs>
</svg>
