<svg width="180" height="186" viewBox="0 0 180 186" fill="none" xmlns="http://www.w3.org/2000/svg">
<g filter="url(#filter0_d)">
<rect x="54" y="58" width="62" height="58" rx="10.7907" fill="url(#paint0_linear)"/>
</g>
<g clip-path="url(#clip0)">
<path d="M86.8868 86.9505C87.025 87.3081 87.1016 87.6959 87.1016 88.1016C87.1016 89.8678 85.6646 91.3047 83.8984 91.3047C82.1322 91.3047 80.6953 89.8678 80.6953 88.1016C80.6953 86.3354 82.1322 84.8984 83.8984 84.8984C84.0675 84.8984 84.2335 84.9118 84.3956 84.9372L89.3791 78.7671C89.9348 78.079 90.9432 77.9717 91.6313 78.5275C92.3194 79.0832 92.4266 80.0916 91.8709 80.7797L86.8868 86.9505ZM84.8445 103.769C84.5316 103.787 84.2133 103.797 83.8984 103.797C75.244 103.797 68.2031 96.756 68.2031 88.1016C68.2031 79.4471 75.244 72.4062 83.8984 72.4062C92.3971 72.4062 99.4369 79.3165 99.5911 87.8103C99.6072 88.6946 100.338 89.3984 101.221 89.3825C102.106 89.3664 102.81 88.6365 102.794 87.7521C102.703 82.7775 100.698 78.1152 97.1463 74.6239C93.9737 71.5051 89.8862 69.6378 85.5 69.2712V67.6016C85.5 66.717 84.783 66 83.8984 66C83.0139 66 82.2969 66.717 82.2969 67.6016V69.271C77.853 69.6415 73.7244 71.5491 70.5352 74.7383C66.9658 78.3078 65 83.0536 65 88.1016C65 93.1495 66.9658 97.8954 70.5352 101.465C74.1046 105.034 78.8505 107 83.8984 107C84.2764 107 84.6586 106.989 85.0344 106.966C85.9174 106.914 86.5907 106.156 86.5382 105.273C86.4858 104.39 85.7278 103.716 84.8445 103.769ZM94.807 69.9549L99.1275 73.5421C99.4266 73.7904 99.7892 73.9115 100.15 73.9115C100.61 73.9115 101.066 73.7144 101.383 73.3329C101.948 72.6523 101.854 71.6427 101.174 71.0776L96.8531 67.4904C96.1725 66.9254 95.1628 67.019 94.5978 67.6996C94.0329 68.3802 94.1265 69.3899 94.807 69.9549ZM67.6472 73.9115C68.0029 73.9115 68.361 73.7935 68.6582 73.5512L73.0588 69.964C73.7445 69.4052 73.8471 68.3963 73.2882 67.7107C72.7294 67.0251 71.7206 66.9223 71.0349 67.4813L66.6343 71.0685C65.9487 71.6273 65.846 72.6362 66.4049 73.3218C66.7214 73.7102 67.1824 73.9115 67.6472 73.9115ZM106 97.3906C106 98.3954 105.487 99.3069 104.629 99.8289L93.5202 106.583C93.066 106.859 92.5518 106.997 92.0373 106.997C91.5552 106.997 91.0728 106.876 90.6385 106.632C89.7411 106.127 89.1836 105.174 89.1836 104.144V90.6369C89.1836 89.6074 89.7411 88.6543 90.6385 88.1496C91.536 87.6449 92.6404 87.6636 93.5202 88.1986L104.629 94.9523C105.487 95.4744 106 96.3859 106 97.3906ZM102.474 97.3906L92.3867 91.258V103.523L102.474 97.3906Z" fill="white"/>
</g>
<defs>
<filter id="filter0_d" x="-9.58805" y="0.770757" width="189.176" height="185.176" filterUnits="userSpaceOnUse" color-interpolation-filters="sRGB">
<feFlood flood-opacity="0" result="BackgroundImageFix"/>
<feColorMatrix in="SourceAlpha" type="matrix" values="0 0 0 0 0 0 0 0 0 0 0 0 0 0 0 0 0 0 127 0"/>
<feOffset dy="6.3588"/>
<feGaussianBlur stdDeviation="31.794"/>
<feColorMatrix type="matrix" values="0 0 0 0 0.619608 0 0 0 0 0.619608 0 0 0 0 0.619608 0 0 0 0.15 0"/>
<feBlend mode="normal" in2="BackgroundImageFix" result="effect1_dropShadow"/>
<feBlend mode="normal" in="SourceGraphic" in2="effect1_dropShadow" result="shape"/>
</filter>
<linearGradient id="paint0_linear" x1="49.8902" y1="100.182" x2="121.556" y2="99.9621" gradientUnits="userSpaceOnUse">
<stop stop-color="#3AFFDB"/>
<stop offset="1" stop-color="#00F2C6"/>
</linearGradient>
<clipPath id="clip0">
<rect width="41" height="41" fill="white" transform="translate(65 66)"/>
</clipPath>
</defs>
</svg>
