<svg width="19" height="21" viewBox="0 0 19 21" fill="none" xmlns="http://www.w3.org/2000/svg">
<path d="M18.7529 0.19659C18.6374 0.0713602 18.4751 0 18.3044 0H18.2939C16.8457 0.771669 13.4526 1.31457 9.48026 1.31457C5.50787 1.31457 2.11547 0.771669 0.666574 0H0.65678C0.486775 0 0.323766 0.0713602 0.20903 0.19659C0.0935941 0.32182 0.0369257 0.489027 0.0509179 0.659032L1.13181 13.4108C1.56347 17.6973 5.17206 20.961 9.48026 20.961C13.7891 20.961 17.397 17.6973 17.8287 13.4108L18.9096 0.659032C18.925 0.489027 18.8676 0.32182 18.7529 0.19659ZM3.75535 7.56138C3.88688 6.94502 4.88102 6.6344 5.97661 6.86807C7.0722 7.10104 7.85436 7.79015 7.72284 8.40651C7.59131 9.02286 6.59716 9.33279 5.50158 9.09982C4.40599 8.86685 3.62382 8.17774 3.75535 7.56138ZM13.2316 14.3637C12.7306 15.9595 11.2426 17.1187 9.48095 17.1187C7.71934 17.1187 6.23127 15.9602 5.73035 14.3637C5.68277 14.2119 5.71006 14.0468 5.80381 13.918C5.89755 13.79 6.04657 13.7151 6.20538 13.7151H12.7558C12.9153 13.7151 13.063 13.79 13.1574 13.918C13.2518 14.0468 13.2791 14.2119 13.2316 14.3637ZM13.461 9.09982C12.3668 9.33279 11.3713 9.02286 11.2398 8.40651C11.1082 7.79015 11.8904 7.10104 12.986 6.86807C14.0809 6.6351 15.0764 6.94502 15.2073 7.56138C15.3388 8.17774 14.5566 8.86685 13.461 9.09982Z" fill="#53FFE0"/>
</svg>
