<svg width="414" height="896" viewBox="0 0 414 896" fill="none" xmlns="http://www.w3.org/2000/svg">
<path d="M-25.1692 -127.185C100.627 -213.429 385.516 -156.571 392.247 -153.943C501.806 -127.08 441.362 -19.0589 414.5 90.5C399.996 94.1431 406.093 115.593 314.5 121.5C297.442 122.6 247.335 120.461 216.5 145.5C185.664 170.539 189.5 220.891 137.5 249C114.956 261.187 60.1492 277.605 -17.0001 270C-94.1494 262.395 -94.3221 -32.9592 -25.1692 -127.185Z" fill="url(#paint0_linear)"/>
<path d="M491.443 -79.182C459.603 -64.1479 447.013 -26.2822 442.08 3.69591C441.695 6.04184 441.306 8.42332 440.94 10.8121C435.793 42.9948 430.475 76.2653 403.926 97.8499C378.497 118.531 343.21 120.052 309.095 121.509C273.025 123.096 235.862 124.663 211.25 149.27C200.058 160.452 193.83 174.589 187.788 188.258C183.595 197.767 179.25 207.597 173.274 216.469C142.723 261.512 84.9807 268.71 44.2208 270.234C40.0643 270.33 35.6732 270.78 31.0739 271.15C19.2398 272.195 5.83793 273.373 -5.06918 270.588C-11.3292 268.984 -17.1049 264.367 -22.6866 259.885C-30.3371 253.74 -38.2736 247.38 -47.721 248.667C-53.6891 249.543 -59.5657 251.225 -65.153 253.656C-84.0125 261.76 -99.806 277.404 -113.213 292.48L-116.706 296.415C-133.137 314.987 -150.146 334.196 -173.719 342.72C-191.26 349.074 -210.094 348.461 -228.306 347.852C-230.997 347.757 -233.704 347.67 -236.399 347.611L-236.013 348.509C-233.473 348.568 -230.96 348.654 -228.447 348.741C-210.13 349.322 -191.168 349.964 -173.425 343.54C-149.606 334.911 -132.502 315.61 -115.983 296.882L-112.507 292.953C-95.288 273.603 -74.1256 253.302 -47.692 249.5C-38.6876 248.217 -30.9227 254.448 -23.3988 260.478C-17.7538 265.017 -11.9148 269.692 -5.45263 271.361C5.63416 274.204 19.13 273.02 31.0417 271.975C35.7002 271.562 40.0994 271.177 44.1763 271.031C68.4371 270.14 98.6417 267.235 125.665 255.623C144.345 247.596 161.474 235.418 174.12 216.816C180.154 207.901 184.52 198.029 188.733 188.477C194.734 174.893 200.927 160.856 211.979 149.751C236.342 125.42 271.641 123.928 309.079 122.327C343.376 120.843 378.865 119.387 404.553 98.4087C431.402 76.5769 436.757 43.1217 441.914 10.7824L443.07 3.65927C447.94 -26.1057 460.395 -63.6093 491.811 -78.4611L491.443 -79.182Z" fill="url(#paint1_linear)"/>
<path d="M483.784 -97.0044C480.893 -95.4832 477.881 -94.1893 474.787 -93.1384C473.33 -92.6135 471.801 -92.0749 470.352 -91.486C449.094 -82.9768 433.987 -63.08 425.593 -32.3759C423.392 -24.1679 421.728 -15.8941 420.61 -7.59993L419.849 -2.03272C415.744 28.1639 411.092 62.3991 386.491 84.33C380.462 89.6802 373.573 94.1385 366.119 97.5127C347.715 106.046 326.479 108.799 306.197 110.533C301.306 110.944 296.296 111.305 291.452 111.645C272.671 112.954 253.079 114.357 236.068 119.875C223.668 123.621 212.32 130.347 203.291 139.302C192.497 150.194 186.299 163.862 180.3 177.09C176.081 186.357 171.759 195.973 165.854 204.512C156.684 218.046 143.781 229.334 128.598 237.104C101.349 251.163 68.5208 253.994 39.8996 255.542C35.4166 255.778 30.5887 256.381 25.6363 256.921C14.2229 258.224 2.42365 259.576 -7.63169 257.693C-13.6282 256.567 -19.183 252.734 -24.5336 249.015C-31.9304 243.91 -39.5969 238.583 -48.6113 240.293C-53.9315 241.298 -59.1555 242.906 -64.1571 245.08C-72.8358 248.961 -80.9868 253.892 -88.3682 259.727C-97.08 266.567 -105.248 273.977 -112.794 281.886C-115.3 284.428 -117.804 287.003 -120.307 289.611C-124.839 294.28 -129.497 299.105 -134.256 303.787C-144.789 314.162 -156.5 324.586 -170.738 330.705L-170.918 330.782C-176.236 333.025 -181.768 334.704 -187.396 335.784C-199.034 338.097 -211.463 338.298 -223.454 338.481C-228.936 338.555 -234.533 338.627 -240.205 338.934L-239.812 339.848C-234.323 339.568 -228.854 339.466 -223.45 339.392C-211.403 339.202 -198.935 339.001 -187.21 336.667C-181.519 335.595 -175.923 333.911 -170.544 331.652L-170.364 331.575C-155.962 325.387 -144.156 314.87 -133.553 304.431C-128.778 299.743 -124.104 294.911 -119.578 290.228C-117.076 287.631 -114.569 285.049 -112.081 282.51C-104.549 274.656 -96.4062 267.296 -87.7267 260.499C-73.9294 249.888 -61.0772 243.605 -48.4598 241.276C-39.8454 239.671 -32.6813 244.639 -25.1252 249.844C-19.646 253.592 -14.087 257.525 -7.80884 258.631C2.39145 260.536 14.2846 259.178 25.7695 257.861C30.7811 257.279 35.5232 256.746 39.9613 256.495C66.1001 255.068 95.7517 252.587 121.567 241.494C124.114 240.4 126.641 239.213 129.125 237.925C144.462 230.071 157.495 218.663 166.754 204.987C172.705 196.328 177.065 186.712 181.294 177.423C187.253 164.281 193.426 150.691 204.081 139.925C212.967 131.043 224.161 124.36 236.409 120.625C253.253 115.077 272.71 113.766 291.524 112.443C296.35 112.059 301.378 111.741 306.269 111.33C326.644 109.59 348.034 106.789 366.575 98.2129C374.123 94.7835 381.102 90.2641 387.216 84.8468C412.078 62.6683 416.749 28.2056 420.904 -2.09745C421.173 -3.90328 421.415 -5.81599 421.665 -7.66464C422.76 -15.9099 424.393 -24.136 426.554 -32.2989C434.867 -62.6975 449.741 -82.3253 470.704 -90.758C472.108 -91.3614 473.633 -91.8645 475.09 -92.3893C478.213 -93.4271 481.257 -94.7014 484.189 -96.1979L483.784 -97.0044Z" fill="url(#paint2_linear)"/>
<path d="M465.733 -139.013C465.753 -138.65 465.752 -138.295 465.788 -137.939C465.875 -136.657 466.025 -135.318 466.18 -133.965C467.015 -126.531 467.968 -118.1 460.866 -110.906C457.24 -107.235 452.288 -105.209 447.5 -103.253C446.046 -102.628 444.544 -101.983 443.091 -101.358C423.544 -92.4687 410.104 -72.8322 403.121 -42.9876C401.318 -35.0126 399.984 -26.9963 399.125 -18.9741L398.76 -15.2333C395.463 14.5484 391.727 48.3052 369.088 70.6609C363.649 75.9714 357.396 80.5359 350.564 84.1822C336.347 91.8804 319.19 96.7001 294.927 99.79C288.568 100.612 282 101.22 275.633 101.843C259.09 103.407 242.011 105.032 226.972 110.142C214.965 113.992 204.031 120.685 195.361 129.49C184.997 140.08 178.82 153.299 172.841 166.078C168.644 175.083 164.288 184.393 158.49 192.733C149.542 205.877 136.905 216.783 122.057 224.177C97.2625 236.521 68.0455 238.663 39.8126 240.754L35.648 241.056C30.7241 241.481 25.4574 242.189 19.9232 242.995C9.65319 244.484 -0.963907 246.02 -10.0471 245.004C-15.7738 244.372 -21.1139 241.308 -26.266 238.366C-33.3766 234.288 -40.7424 230.066 -49.379 232.07C-54.0066 233.15 -58.5447 234.659 -62.9201 236.57C-71.7924 240.554 -80.1941 245.482 -87.9335 251.24C-96.4983 257.502 -104.656 264.232 -112.354 271.386C-119.406 277.797 -126.291 284.508 -133.604 291.572L-133.839 291.792C-144.854 302.441 -155.256 312.49 -168.119 318.929C-172.917 321.309 -177.953 323.189 -183.121 324.531C-194.403 327.536 -206.196 328.361 -218.702 329.238C-226.735 329.766 -235.081 330.377 -243.356 331.6L-242.994 332.442C-234.862 331.246 -226.714 330.669 -218.694 330.113C-206.133 329.229 -194.284 328.398 -182.898 325.365C-177.643 324.004 -172.523 322.093 -167.645 319.672C-154.609 313.141 -144.153 303.036 -133.085 292.33L-132.851 292.111C-125.538 285.046 -118.634 278.378 -111.627 271.952C-103.978 264.833 -95.8705 258.136 -87.3575 251.905C-73.1619 241.681 -61.0526 235.649 -49.2704 232.953C-41.0155 231.096 -34.1868 234.923 -26.8761 239.152C-21.7096 242.172 -16.2307 245.244 -10.2977 245.907C-1.09204 246.938 9.59648 245.387 19.938 243.885C25.4068 243.107 30.6653 242.335 35.575 241.966L39.7558 241.657C66.0066 239.725 93.1515 237.713 116.861 227.525C118.722 226.726 120.567 225.933 122.361 224.976C137.374 217.507 150.15 206.482 159.19 193.193C165.041 184.796 169.412 175.429 173.635 166.396C179.574 153.702 185.743 140.554 195.967 130.092C204.515 121.41 215.293 114.808 227.13 111.004C242.006 105.964 259.078 104.325 275.495 102.781C281.868 102.173 288.495 101.523 294.843 100.722C319.25 97.6042 336.511 92.7567 350.852 84.988C357.767 81.3096 364.091 76.6914 369.58 71.3114C392.481 48.7083 396.243 14.7879 399.55 -15.1502L399.968 -18.9476C400.826 -26.9389 402.153 -34.9242 403.946 -42.8687C410.847 -72.4078 424.097 -91.8106 443.324 -100.546C444.761 -101.163 446.263 -101.809 447.7 -102.426C452.635 -104.445 457.652 -106.5 461.421 -110.334C468.848 -117.853 467.881 -126.498 467.028 -134.11C466.931 -134.829 466.863 -135.527 466.796 -136.225L465.733 -139.013Z" fill="url(#paint3_linear)"/>
<path d="M452.476 -169.864C445.345 -162.286 441.003 -153.844 440.47 -145.586C440.399 -144.491 440.369 -143.345 440.341 -142.15C440.163 -135.497 439.948 -127.984 432.741 -120.898C429.244 -117.468 424.727 -115.375 420.357 -113.345C418.838 -112.693 417.314 -111.919 415.838 -111.167C397.708 -101.77 386.208 -82.9331 380.635 -53.5424C379.295 -46.4417 378.308 -38.8336 377.633 -30.2772L377.495 -28.5275C375.05 0.939192 372.279 34.3319 351.568 57.2117C346.759 62.4961 341.179 67.1723 335.014 71.0866C321.436 79.7778 305.141 85.6132 283.683 89.2895C276.302 90.5681 268.589 91.4817 261.114 92.3612C246.477 94.0866 231.322 95.8657 217.94 100.602C206.336 104.514 195.809 111.128 187.478 119.743C177.529 130.036 171.382 142.786 165.455 155.103C161.46 164.025 156.677 172.696 151.157 181.025C142.429 193.778 130.055 204.298 115.54 211.307C94.2684 221.496 69.6264 223.48 45.7969 225.42C41.0526 225.768 36.1777 226.173 31.4334 226.656C25.8665 227.206 19.8711 228.244 14.0432 229.311C4.97559 230.942 -4.4002 232.621 -12.4377 232.373C-17.907 232.205 -23.0139 229.953 -27.9636 227.753C-34.7981 224.722 -41.8693 221.591 -50.1057 223.896C-53.8158 224.948 -57.4601 226.248 -61.0074 227.786C-70.2431 231.967 -79.0647 236.982 -87.3272 242.747C-95.7563 248.449 -103.899 254.516 -111.724 260.922C-119.312 267.124 -126.362 273.314 -133.232 279.833C-135.183 281.686 -137.108 283.539 -139.007 285.391C-147.528 293.516 -155.744 301.407 -165.179 307C-169.5 309.539 -174.08 311.643 -178.829 313.271C-189.898 317.132 -201.906 318.674 -214.509 320.269C-225.029 321.414 -235.52 323.217 -245.907 325.664L-245.557 326.477C-235.302 324.072 -224.944 322.305 -214.56 321.187C-201.738 319.515 -189.741 317.994 -178.543 314.162C-173.712 312.516 -169.055 310.378 -164.664 307.793C-155.055 302.109 -146.944 294.245 -138.343 285.901C-136.442 284.069 -134.519 282.195 -132.569 280.343C-125.692 273.838 -118.693 267.619 -111.13 261.495C-103.327 255.111 -95.2067 249.066 -86.8023 243.384C-76.2981 236.318 -63.6467 228.531 -49.9073 224.673C-42.0485 222.479 -35.4347 225.402 -28.4593 228.49C-23.4198 230.719 -18.2332 233.021 -12.5537 233.184C-4.39978 233.433 5.03115 231.747 14.1559 230.159C19.9736 229.112 25.9894 228.032 31.4522 227.51C36.2087 227.055 41.1204 226.736 45.8157 226.274C68.4142 224.441 91.7416 222.548 112.332 213.7C113.557 213.174 114.765 212.654 115.959 212.057C130.641 204.948 143.15 194.288 151.964 181.372C157.522 172.951 162.336 164.188 166.356 155.173C172.252 142.919 178.358 130.255 188.207 120.089C196.423 111.596 206.799 105.07 218.236 101.201C231.504 96.5144 246.587 94.749 261.153 93.0375C268.628 92.158 276.363 91.2516 283.777 89.959C305.37 86.191 321.826 80.3708 335.522 71.5949C341.778 67.6528 347.445 62.939 352.337 57.6077C373.337 34.4522 376.052 0.931073 378.513 -28.6778L378.635 -30.4205C379.329 -38.9341 380.311 -46.5067 381.657 -53.5931C387.122 -82.65 398.449 -101.26 416.265 -110.488C417.718 -111.248 419.186 -111.929 420.751 -112.652C425.203 -114.717 429.795 -116.86 433.448 -120.424C440.926 -127.779 441.124 -135.556 441.337 -142.307C441.361 -143.467 441.398 -144.598 441.45 -145.737C441.969 -153.533 446.207 -161.676 452.912 -168.986L452.476 -169.864Z" fill="url(#paint4_linear)"/>
<path d="M446.161 -184.561C429.778 -176.321 418.076 -164.751 415.136 -153.227C414.883 -152.239 414.665 -151.216 414.509 -150.185C413.264 -144.393 411.879 -137.848 404.619 -130.975C401.246 -128.033 397.439 -125.547 393.335 -123.608C391.757 -122.778 390.186 -121.933 388.639 -121.032C372.25 -111.319 362.293 -92.8067 358.283 -64.1893C357.323 -57.4207 356.62 -50.0528 356.225 -41.7011C354.7 -12.7483 352.981 20.0745 334.182 43.5352C329.954 48.7763 325.017 53.5364 319.506 57.6848C306.703 67.4126 291.323 74.2072 272.454 78.4614C264.395 80.2339 255.87 81.4628 247.603 82.6151C234.493 84.428 220.949 86.3094 208.941 90.7762C197.74 94.759 187.617 101.297 179.612 109.718C170.07 119.701 164.019 131.953 158.08 143.836C154.038 152.522 149.254 160.96 143.776 169.068C135.268 181.432 123.157 191.566 108.975 198.188C90.2582 206.805 68.8926 208.447 48.1966 210.071C41.2721 210.612 34.1046 211.173 27.1476 211.999C20.6445 212.894 14.1648 214.104 7.73674 215.624C0.265095 217.503 -7.30708 218.812 -14.8975 219.535C-20.1196 219.852 -25.0607 218.391 -29.763 216.947C-36.3213 214.964 -43.1042 212.909 -50.9341 215.529C-53.453 216.375 -55.9553 217.349 -58.4046 218.402C-68.2953 222.923 -77.8228 228.176 -86.882 234.104C-96.6557 240.214 -104.403 245.368 -111.262 250.293C-118.839 255.66 -126.034 261.481 -132.793 267.71C-136.388 271.047 -139.759 274.456 -143.024 277.753C-149.409 284.232 -155.449 290.343 -162.328 295.176C-166.168 297.878 -170.283 300.213 -174.598 302.139C-185.573 307.074 -198.072 309.453 -211.285 311.97C-223.284 314.252 -235.673 316.618 -247.985 321.097L-247.642 321.896C-235.493 317.487 -223.159 315.128 -211.232 312.86C-197.947 310.329 -185.405 307.915 -174.287 302.952C-169.909 301.007 -165.734 298.646 -161.838 295.912C-154.866 291.023 -148.806 284.869 -142.307 278.34C-139.042 275.044 -135.672 271.635 -132.109 268.312C-125.383 262.12 -118.225 256.332 -110.69 250.994C-103.863 246.083 -96.1266 240.95 -86.3692 234.847C-74.5321 227.462 -62.899 220.502 -50.6602 216.392C-43.1691 213.883 -36.8354 215.793 -30.126 217.812C-25.3175 219.279 -20.3192 220.783 -14.9094 220.453C-7.26532 219.721 0.360017 218.401 7.88415 216.507C14.2736 214.98 20.7173 213.775 27.1848 212.896C34.1255 212.077 41.2766 211.523 48.195 210.968C68.2398 209.403 88.9582 207.786 107.377 199.872L109.369 199.016C123.726 192.314 135.986 182.057 144.599 169.542C150.061 161.402 154.832 152.936 158.867 144.225C164.742 132.42 170.802 120.232 180.23 110.348C188.12 102.048 198.095 95.603 209.133 91.674C221.061 87.2921 234.534 85.4245 247.583 83.604C255.873 82.4591 264.449 81.259 272.544 79.4368C291.573 75.148 307.099 68.2903 320.009 58.4493C325.594 54.2496 330.596 49.4272 334.876 44.1158C353.871 20.4357 355.6 -12.5435 357.125 -41.6315C357.549 -49.9617 358.219 -57.3156 359.11 -64.0206C363.108 -92.2609 372.884 -110.61 388.98 -120.147C390.521 -121.063 392.017 -121.858 393.676 -122.723C397.867 -124.719 401.758 -127.264 405.213 -130.267C412.692 -137.352 414.205 -144.273 415.376 -149.966C415.598 -151.025 415.816 -152.048 416.01 -152.994C418.83 -164.213 430.293 -175.528 446.388 -183.628L446.161 -184.561Z" fill="url(#paint5_linear)"/>
<path d="M442.727 -192.552C440.249 -191.927 437.714 -191.209 435.093 -190.421C413.211 -183.723 395.88 -172.422 389.886 -160.938C389.374 -159.923 388.866 -158.809 388.35 -157.759C385.769 -151.528 381.696 -145.787 376.449 -140.981C373.377 -138.337 370.015 -135.996 366.428 -134.004C364.628 -132.926 362.936 -131.912 361.31 -130.79C346.467 -120.677 338.336 -102.865 335.764 -74.7299C335.177 -68.3077 334.823 -61.2081 334.693 -53.0042C334.203 -28.215 333.511 5.7383 316.663 30.0007C313.002 35.2236 308.708 40.0876 303.874 44.4892C291.876 55.5075 277.109 63.6067 261.169 67.9109C252.431 70.1746 243.595 71.9273 234.718 73.1579C222.896 75.0427 210.695 76.9893 199.822 81.1712C189.021 85.1941 179.291 91.6306 171.595 99.8423C162.479 109.507 156.442 121.297 150.582 132.69C146.535 141.125 141.79 149.319 136.391 157.196C127.154 169.956 115.716 179.35 102.422 185.147C85.6 192.545 66.7229 193.81 48.4602 195.065C40.025 195.647 31.3244 196.242 22.8752 197.421C15.4987 198.626 8.1728 200.289 0.94983 202.397C-5.06486 204.144 -11.1519 205.58 -17.2807 206.698C-22.0975 207.215 -26.8961 206.991 -31.4736 206.035C-37.6905 205.072 -44.2666 204.128 -51.684 207.078C-52.631 207.485 -53.5781 207.892 -54.5415 208.306C-63.5883 212.424 -72.3778 217.071 -80.8496 222.214L-86.3356 225.383L-92.2991 228.791C-98.7281 232.466 -104.8 235.937 -110.692 239.602C-118.397 244.255 -125.624 249.587 -132.252 255.51C-136.959 259.911 -141.441 264.505 -145.681 269.276C-149.941 274.173 -154.551 278.82 -159.474 283.182C-162.838 286.034 -166.489 288.582 -170.366 290.786C-181.467 297.095 -194.853 300.514 -209.013 304.114C-219.409 306.574 -229.69 309.603 -239.799 313.184L-249.659 316.931L-249.316 317.73L-239.476 314.026C-229.407 310.458 -219.166 307.44 -208.811 304.99C-194.563 301.37 -181.121 297.943 -169.886 291.543C-165.949 289.301 -162.237 286.715 -158.811 283.826C-153.855 279.433 -149.214 274.756 -144.921 269.828C-140.729 265.09 -136.29 260.531 -131.621 256.168C-125.042 250.289 -117.87 244.998 -110.222 240.38C-104.346 236.723 -98.2908 233.259 -91.8721 229.605L-85.9146 226.183L-80.4123 223.007C-71.0098 217.563 -61.3052 211.923 -51.3855 207.998C-44.2518 205.153 -38.1758 206.058 -31.7426 207.029C-27.0622 207.96 -22.1638 208.142 -17.2558 207.566C-11.0893 206.452 -4.96506 205.011 1.085 203.251C8.28402 201.155 15.5832 199.492 22.9327 198.275C31.3268 197.103 40.0274 196.508 48.43 195.94C66.5988 194.692 85.3698 193.404 102.253 186.149L102.809 185.911C116.329 180.101 127.875 170.508 137.239 157.593C142.664 149.676 147.437 141.441 151.513 132.966C157.32 121.63 163.348 109.911 172.32 100.359C179.89 92.2469 189.467 85.8766 200.106 81.8774C210.865 77.7446 223.017 75.8191 234.767 73.948C243.684 72.7243 252.561 70.9767 261.341 68.7161C277.462 64.3929 292.402 56.2191 304.535 45.0839C309.434 40.6344 313.781 35.7128 317.483 30.4256C334.489 5.9435 335.175 -28.1593 335.752 -53.1044C335.895 -61.2798 336.232 -68.3724 336.832 -74.7661C339.378 -102.603 347.351 -120.194 361.941 -130.132C363.541 -131.225 365.217 -132.233 366.99 -133.282C370.642 -135.32 374.067 -137.711 377.198 -140.407C382.545 -145.291 386.703 -151.126 389.349 -157.461C389.863 -158.561 390.369 -159.59 390.864 -160.597C396.73 -171.84 413.804 -182.93 435.428 -189.551C438.092 -190.374 440.666 -191.092 443.177 -191.731L442.727 -192.552Z" fill="url(#paint6_linear)"/>
<path d="M440.93 -196.733L436.56 -196.19C428.151 -194.956 419.787 -193.215 411.525 -190.978C389.707 -185.304 372.627 -177.153 364.666 -168.627C363.403 -167.29 362.176 -165.867 360.914 -164.259C357.144 -159.527 352.925 -155.087 348.312 -151.001C345.645 -148.736 342.815 -146.638 339.847 -144.726C337.81 -143.344 335.875 -142.039 334.075 -140.556C316.829 -126.942 313.977 -102.473 313.345 -85.263C313.115 -79.1802 313.033 -72.4846 313.223 -64.3001C313.69 -36.2033 312.914 -6.81183 299.227 16.4808C296.146 21.7068 292.497 26.6744 288.341 31.3011C278.323 43.0472 264.915 52.0857 249.884 57.2251C240.848 60.0186 231.64 62.1148 222.362 63.4902C211.59 65.4312 200.591 67.3851 190.696 71.3666C180.327 75.5127 171.023 81.8887 163.649 89.9026C154.973 99.2428 148.977 110.542 143.18 121.451C139.089 129.658 134.347 137.629 128.995 145.296C119.798 157.7 108.713 166.791 95.8484 172.099C80.5954 178.467 63.6473 179.36 47.2585 180.249C37.7111 180.578 28.1377 181.434 18.5909 182.814C10.121 184.476 1.75655 186.809 -6.40387 189.785C-11.1251 191.357 -15.5952 192.839 -19.7757 193.959C-24.2447 195.003 -28.7915 195.483 -33.2836 195.385C-39.0345 195.507 -44.914 195.599 -51.5434 198.448L-52.5068 198.862C-59.2626 202.001 -66.0344 205.824 -72.5735 209.513C-76.9207 211.956 -81.3863 214.483 -85.8928 216.825C-89.9972 218.978 -94.118 221.002 -98.1081 222.97C-102.098 224.938 -106.284 226.991 -110.209 229.066C-118.008 232.994 -125.283 237.826 -131.834 243.429C-137.446 248.67 -142.583 254.311 -147.184 260.286C-150.34 264.195 -153.339 267.884 -156.612 271.251C-159.513 274.256 -162.705 277.02 -166.142 279.505C-177.488 287.761 -192.389 292.474 -208.182 297.451C-215.744 299.839 -223.491 302.339 -231.357 305.28C-238.056 307.922 -244.753 310.343 -251.462 312.736L-251.119 313.535C-244.41 311.142 -237.713 308.721 -231.059 306.2C-223.298 303.237 -215.478 300.773 -207.938 298.378C-192.064 293.365 -177.082 288.618 -165.578 280.277C-162.09 277.755 -158.851 274.948 -155.909 271.896C-152.594 268.493 -149.601 264.79 -146.412 260.867C-141.834 254.952 -136.733 249.366 -131.166 244.174C-124.7 238.606 -117.506 233.808 -109.786 229.915C-105.861 227.84 -101.855 225.865 -97.7178 223.834C-93.5806 221.802 -89.5741 219.827 -85.4698 217.675C-80.9694 215.318 -76.4651 212.791 -72.124 210.334C-65.595 206.666 -58.8396 202.851 -52.1327 199.732C-45.4259 196.613 -39.5158 196.457 -33.3546 196.345C-28.7781 196.45 -24.1446 195.956 -19.5935 194.878C-15.3743 193.758 -10.8939 192.255 -6.1666 190.697C1.95149 187.755 10.2709 185.453 18.6935 183.818C28.2012 182.439 37.7359 181.582 47.2447 181.253C63.7172 180.378 80.7531 179.464 96.1857 173.019L97.0348 172.654C109.689 167.216 120.711 158.203 129.8 145.863C135.178 138.155 139.947 130.144 144.068 121.898C149.804 110.981 155.837 99.7676 164.374 90.5546C171.628 82.6441 180.812 76.3695 191.051 72.3295C200.832 68.397 211.841 66.4219 222.509 64.5086C231.835 63.0872 241.088 60.9437 250.164 58.102C265.381 52.9066 278.953 43.7558 289.085 31.8607C293.27 27.1852 296.95 22.1708 300.065 16.8986C313.876 -6.5996 314.619 -36.1122 314.19 -64.344C314.049 -72.5496 314.079 -79.1886 314.298 -85.2501C314.943 -102.296 317.734 -126.502 334.664 -139.862C336.439 -141.267 338.364 -142.551 340.353 -143.997C343.36 -145.942 346.227 -148.072 348.931 -150.371C353.599 -154.491 357.874 -158.966 361.7 -163.735C362.971 -165.279 364.162 -166.737 365.399 -168.046C373.21 -176.474 390.107 -184.462 411.734 -190.087C419.941 -192.297 428.248 -194.02 436.599 -195.244C438.16 -195.452 439.72 -195.649 441.278 -195.834L440.93 -196.733Z" fill="url(#paint7_linear)"/>
<path d="M438.797 -201.699C431.622 -199.815 424.366 -198.341 417.075 -197.284L412.217 -196.481C405.644 -195.347 398.983 -193.922 392.537 -192.538L387.968 -191.555C363.51 -186.353 348.105 -181.508 339.468 -176.309C334.716 -173.456 330.603 -169.931 323.77 -164.087L320.191 -161.028C318.077 -159.24 315.863 -157.596 313.855 -156.057C311.402 -154.284 309.05 -152.393 306.81 -150.393C291.928 -136.678 290.49 -114.051 290.879 -95.8604C291.029 -88.8929 291.409 -81.7533 291.804 -75.7023C293.22 -48.6386 292.999 -20.4321 281.827 2.86157C279.301 8.09505 276.301 13.1624 272.86 18.0067C263.149 31.781 252.312 40.8163 238.681 46.5043C229.984 50.1231 220.127 52.0768 210.594 53.9756C201.061 55.8744 190.775 57.9109 181.747 61.7056C171.765 65.8975 162.853 72.2086 155.823 80.0634C147.592 89.0435 141.669 99.8379 135.919 110.27C131.777 118.258 127.029 126.015 121.713 133.482C112.517 145.886 101.893 154.204 89.4133 159.194C75.4052 164.723 60.0595 165.249 45.2058 165.749C35.0658 166.1 24.5767 166.449 14.4517 168.365C4.61875 170.241 -5.36418 174.378 -14.1817 178.032C-16.9412 179.218 -19.5844 180.269 -22.1195 181.257C-26.299 182.797 -30.6014 183.949 -34.9568 184.694C-41.2699 185.678 -47.4453 187.69 -53.1804 190.631C-56.946 192.672 -60.787 194.897 -64.5096 197.038C-71.256 201.088 -78.1913 204.841 -85.2886 208.283C-90.2544 210.636 -95.2939 212.683 -100.148 214.668C-103.234 215.994 -106.489 217.241 -109.569 218.581C-117.405 221.756 -124.698 226.115 -131.117 231.458C-138.031 237.471 -142.819 244.38 -147.456 251.055C-149.5 253.996 -151.434 256.788 -153.517 259.458C-155.96 262.619 -158.684 265.605 -161.656 268.381C-173.485 279.296 -190.951 285.737 -209.323 292.499C-213.683 294.102 -218.206 295.775 -222.65 297.498C-233.094 301.462 -243.363 304.844 -253.498 307.998L-253.154 308.798C-243.036 305.65 -232.751 302.261 -222.588 298.317C-218.112 296.579 -213.605 294.913 -209.262 293.317C-201.918 290.601 -194.753 287.962 -188.01 285.064C-177.723 280.644 -168.473 275.655 -161.227 268.975C-158.205 266.162 -155.442 263.13 -152.971 259.916C-150.862 257.218 -148.928 254.426 -146.923 251.485C-142.322 244.86 -137.565 238.015 -130.753 232.079C-124.398 226.792 -117.175 222.481 -109.416 219.343C-106.33 218.017 -103.293 216.712 -100.021 215.458C-95.0852 213.439 -90.1376 211.448 -85.0963 209.045C-77.8854 205.659 -70.8789 201.617 -64.2194 197.758C-60.5192 195.611 -56.6945 193.392 -52.9289 191.352C-47.3016 188.459 -41.2367 186.489 -35.038 185.54C-30.594 184.755 -26.2052 183.566 -21.9395 181.991C-19.3717 180.989 -16.7408 179.909 -13.969 178.752C-5.2005 175.119 4.72732 170.989 14.4399 169.148C24.4934 167.245 34.9437 166.896 45.0285 166.552C59.9762 166.045 75.422 165.527 89.6097 159.921C102.332 154.911 113.072 146.458 122.449 133.977C127.785 126.472 132.555 118.677 136.722 110.653C142.418 100.277 148.311 89.546 156.472 80.6296C163.395 72.8975 172.17 66.6859 181.999 62.5611C190.898 58.7371 200.945 56.8201 210.637 54.8867C220.329 52.9533 230.138 51.0207 238.933 47.3597C252.759 41.5875 263.742 32.4393 273.567 18.4806C277.047 13.5882 280.091 8.47422 282.666 3.19402C293.883 -20.2204 294.14 -48.6116 292.714 -75.7892C292.391 -81.854 292.005 -89.0079 291.796 -95.9331C291.399 -113.918 292.819 -136.317 307.358 -149.749C309.576 -151.718 311.899 -153.585 314.317 -155.342C316.406 -156.917 318.571 -158.54 320.696 -160.349L324.291 -163.415C331.07 -169.202 335.174 -172.706 339.844 -175.524C348.373 -180.66 363.663 -185.455 387.979 -190.63L392.553 -191.598C398.994 -192.996 405.638 -194.415 412.146 -195.521L417.004 -196.324C424.383 -197.395 431.725 -198.895 438.983 -200.815L438.797 -201.699Z" fill="url(#paint8_linear)"/>
<path d="M433.707 -213.542C431.881 -212.119 429.932 -210.84 427.883 -209.721C415.353 -202.866 402.34 -199.793 387.857 -196.765L384.15 -195.983C377.643 -194.607 370.927 -193.175 364.395 -192.126C357.164 -190.946 350.393 -190.048 343.81 -189.163C331.921 -187.57 321.663 -186.188 314.282 -183.963C306.901 -181.738 300.794 -178.168 292.06 -171.034L289.279 -168.774C285.807 -166.132 282.554 -163.252 279.553 -160.166C266.813 -146.239 266.932 -124.129 268.466 -106.379C268.895 -101.374 269.382 -96.3259 269.878 -91.299L270.297 -86.9486C272.394 -64.4208 273.609 -35.3944 264.404 -10.6299C262.415 -5.3586 260.044 -0.182862 257.307 4.86105C251.758 15.1739 243.333 28.0238 227.423 35.9252C218.83 40.1922 208.8 42.3726 199.093 44.4981C190.248 46.4224 180.997 48.4367 172.684 52.0935C163.076 56.3065 154.525 62.5177 147.785 70.18C140.021 78.8071 134.175 89.0612 128.515 98.982C124.322 106.774 119.557 114.34 114.258 121.624C105.106 133.636 94.7961 141.65 82.7432 146.103C69.8025 150.92 55.8468 151.034 42.1933 151.221C31.6 151.327 20.6474 151.452 10.0776 153.729C-1.52913 156.249 -12.5667 162.073 -22.3205 167.194L-24.684 168.447C-28.6544 170.484 -32.7338 172.31 -36.8996 173.916C-42.8919 176.163 -48.6631 178.972 -54.1135 182.293L-57.2442 184.28C-66.0056 189.82 -75.0691 195.557 -84.9316 199.66C-90.2711 201.955 -95.7966 203.636 -101.138 205.34C-103.796 206.177 -106.535 207.05 -109.185 207.952C-117.078 210.365 -124.47 214.262 -130.854 219.376C-138.48 225.848 -142.961 233.741 -147.281 241.378C-148.48 243.584 -149.661 245.562 -150.885 247.576C-152.857 250.915 -155.104 254.13 -157.605 257.191C-170.137 272.144 -192.674 281.051 -214.443 289.678C-227.99 294.817 -241.825 299.113 -255.846 302.533L-255.497 303.347C-241.493 299.912 -227.677 295.602 -214.151 290.448C-208.264 288.122 -202.328 285.774 -196.548 283.29C-180.791 276.519 -166.161 268.745 -156.866 257.651C-154.313 254.56 -152.016 251.311 -149.995 247.937C-148.777 245.909 -147.563 243.782 -146.397 241.725C-142.085 234.159 -137.699 226.358 -130.161 220.042C-123.873 215.029 -116.603 211.207 -108.843 208.836C-106.216 207.927 -103.471 207.069 -100.836 206.224C-95.3283 204.569 -89.8897 202.666 -84.5413 200.524C-74.5971 196.386 -65.4622 190.635 -56.6804 185.052L-53.5497 183.065C-48.1586 179.795 -42.4524 177.032 -36.5297 174.822C-32.3331 173.196 -28.2232 171.351 -24.2222 169.296L-21.8526 168.058C-12.1702 162.951 -1.20204 157.19 10.2455 154.705C20.7051 152.442 31.5903 152.295 42.0693 152.238C55.7412 152.093 69.8561 151.945 82.9989 147.058C95.2539 142.535 105.725 134.402 115.014 122.212C120.326 114.89 125.114 107.292 129.344 99.4709C134.961 89.5855 140.758 79.3524 148.487 70.8247C155.082 63.2749 163.457 57.1395 172.88 52.9558C181.002 49.3477 190.226 47.3616 199.088 45.4302C208.849 43.298 218.945 41.0895 227.662 36.7521C243.866 28.7244 252.389 15.6972 258.016 5.2496C260.78 0.170002 263.174 -5.04383 265.18 -10.3548C274.499 -35.3036 273.285 -64.4652 271.173 -87.0714L270.754 -91.4218C270.274 -96.4557 269.787 -101.504 269.364 -106.495C267.845 -124.031 267.718 -145.935 280.215 -159.571C283.18 -162.616 286.389 -165.46 289.812 -168.073L292.593 -170.333C301.164 -177.397 307.128 -180.805 314.454 -183.023C321.78 -185.241 331.966 -186.609 343.8 -188.195C350.406 -189.073 357.226 -189.992 364.424 -191.158C370.948 -192.271 377.711 -193.639 384.218 -195.015L387.942 -195.804C402.496 -198.846 415.597 -201.94 428.267 -208.872C430.275 -209.985 432.195 -211.24 434.006 -212.622L433.707 -213.542Z" fill="url(#paint9_linear)"/>
<path d="M424.657 -234.604C423.509 -232.775 422.417 -231.038 421.132 -229.303C416.131 -222.324 409.533 -216.342 401.853 -211.822C389.814 -205.129 376.862 -200.134 363.488 -197.027C356.011 -195.041 348.43 -193.581 340.817 -192.661C330.205 -191.709 319.605 -191.436 309.097 -191.844C302.462 -192.097 295.779 -192.003 289.082 -191.56C279.54 -190.672 272.229 -187.699 263.911 -181.082C259.55 -177.827 255.639 -174.088 252.284 -169.967C241.651 -155.999 243.156 -135.346 246.027 -117.005C246.903 -111.364 247.907 -104.797 248.806 -98.3371C252.888 -68.5816 252.265 -44.3269 246.9 -24.2214C245.449 -18.9076 243.696 -13.6403 241.649 -8.44165C237.084 3.44269 230.439 16.7447 216.059 25.1891C207.654 30.1191 197.55 32.5338 187.774 34.8581C179.595 36.8007 171.12 38.8198 163.515 42.3243C154.356 46.6393 146.251 52.7938 139.873 60.2762C132.552 68.4932 126.835 78.2358 121.274 87.6234C116.989 95.2328 112.194 102.629 106.919 109.766C97.8199 121.452 87.7815 129.062 76.2102 133.105C64.1572 137.286 51.2404 137.073 38.7402 136.883C27.8752 136.717 16.655 136.534 5.8241 139.194C-6.57041 142.221 -17.689 149.297 -27.1176 155.716C-31.0829 158.417 -34.9136 160.756 -38.5708 163.139C-43.7158 166.381 -49.0609 169.743 -54.8526 173.956C-63.2626 180.088 -73.1952 186.909 -84.3928 191.01C-89.9459 192.893 -95.5979 194.435 -101.309 195.625C-103.707 196.166 -106.21 196.734 -108.6 197.338C-115.573 199.118 -123.533 201.659 -130.321 207.247C-138.516 214.014 -142.37 222.871 -146.104 231.423C-146.716 232.836 -147.344 234.255 -147.98 235.61C-149.513 239.123 -151.317 242.553 -153.377 245.874C-164.4 263.255 -187.315 274.167 -206.048 281.709C-223.097 288.714 -241.073 292.618 -258.544 296.255L-258.207 297.04C-240.752 293.41 -222.778 289.456 -205.719 282.565C-203.58 281.646 -201.322 280.778 -199.151 279.844C-181.761 272.372 -162.521 261.957 -152.637 246.334C-150.539 242.982 -148.691 239.522 -147.106 235.978C-146.472 234.573 -145.86 233.161 -145.214 231.784C-141.531 223.339 -137.722 214.602 -129.73 207.99C-123.104 202.523 -115.24 200.073 -108.438 198.3C-106.048 197.696 -103.578 197.141 -101.169 196.58C-95.4146 195.394 -89.7196 193.845 -84.127 191.944C-72.7742 187.844 -62.7742 180.909 -54.3051 174.735C-48.5338 170.564 -43.2173 167.181 -38.0886 163.946C-34.3844 161.627 -30.5782 159.231 -26.5864 156.502C-17.2374 150.168 -6.24945 143.148 5.97971 140.141C16.6576 137.531 27.8165 137.705 38.6509 137.935C51.2349 138.14 64.2455 138.347 76.4944 134.081C88.28 129.997 98.4898 122.246 107.699 110.412C113.013 103.244 117.838 95.8116 122.144 88.1624C127.662 78.8101 133.328 69.174 140.616 60.971C146.906 53.5816 154.911 47.5098 163.958 43.2664C171.449 39.8109 179.875 37.8129 188 35.877C197.857 33.5177 208.039 31.1034 216.659 26.0467C231.413 17.391 238.304 3.22242 242.71 -8.08651C244.746 -13.3379 246.497 -18.6545 247.955 -24.0157C253.343 -44.2492 253.952 -68.5822 249.876 -98.4587C249.026 -104.939 247.973 -111.485 247.09 -117.141C244.146 -135.383 242.639 -155.815 253.162 -169.499C256.454 -173.548 260.298 -177.219 264.587 -180.409C272.736 -186.835 279.892 -189.809 289.19 -190.677C295.857 -191.118 302.508 -191.21 309.111 -190.954C319.666 -190.553 330.311 -190.84 340.969 -191.813C348.638 -192.724 356.275 -194.191 363.805 -196.2C377.275 -199.34 390.319 -204.374 402.447 -211.114C410.255 -215.72 416.966 -221.808 422.057 -228.906C423.179 -230.436 424.224 -232.012 425.191 -233.633L424.657 -234.604Z" fill="url(#paint10_linear)"/>
<path d="M414.797 -257.549C413.164 -253.512 411.109 -249.594 408.662 -245.852C404.8 -239.903 400.257 -234.305 395.117 -229.162C389.418 -223.373 382.939 -218.256 375.865 -213.959C364.396 -206.929 352.04 -201.335 339.171 -197.346C332.01 -195.124 324.648 -193.757 317.28 -193.281C305.53 -192.627 294.125 -194.589 283.104 -196.514C276.777 -197.736 270.345 -198.624 263.837 -199.172C252.541 -199.845 244.141 -197.47 235.768 -191.117C231.446 -187.962 227.796 -184.092 225.044 -179.747C216.411 -165.759 219.242 -146.387 223.569 -127.538C224.956 -121.609 226.225 -115.596 227.379 -109.668C232.094 -83.4811 232.802 -59.325 229.442 -37.7485C228.598 -32.4664 227.504 -27.1788 226.135 -21.5869C222.981 -8.80445 218.015 5.56809 204.807 14.6245C196.68 20.2464 186.562 22.8532 176.801 25.3911C169.156 27.0907 161.662 29.5513 154.458 32.7267C145.712 37.103 138.007 43.18 131.949 50.4791C125.161 58.3151 119.545 67.4391 114.121 76.2441C109.742 83.7228 104.88 90.9894 99.5617 98.0015C90.4317 109.481 80.93 116.539 69.679 120.156C58.428 123.774 46.4074 123.259 34.8236 122.726C23.8339 122.225 12.489 121.708 1.57252 124.708C-11.079 128.218 -21.6867 136.393 -29.5431 143.049C-33.5836 146.475 -37.4935 149.846 -41.2196 153.239C-45.811 157.274 -50.5676 161.465 -55.6366 165.739C-63.1196 172.048 -72.3499 178.973 -83.8929 182.496C-89.5342 184.047 -95.2667 185.153 -101.024 185.8C-103.336 186.134 -105.749 186.461 -108.06 186.846C-115.07 187.998 -123.117 189.935 -129.827 195.252C-138.459 202.173 -141.412 211.911 -144.306 221.337C-144.565 222.175 -144.808 223.006 -145.154 223.865C-146.248 227.563 -147.591 231.218 -149.177 234.806C-158.164 254.406 -180.575 266.893 -197.665 273.983C-216.98 281.927 -237.692 285.317 -257.715 288.596L-258.546 288.733L-261.586 289.177L-261.23 290.005L-258.478 289.566L-257.576 289.415C-237.475 286.136 -216.692 282.733 -197.263 274.74L-194.895 273.722C-177.946 266.439 -156.933 254.029 -148.197 235.061C-146.592 231.441 -145.237 227.753 -144.14 224.02L-143.298 221.478C-140.442 212.188 -137.511 202.578 -129.153 195.875C-122.659 190.685 -114.77 188.833 -107.902 187.708C-105.592 187.323 -103.218 186.996 -100.899 186.676C-95.0784 186.014 -89.2837 184.887 -83.5822 183.309C-71.8637 179.744 -62.515 172.735 -54.9462 166.355C-49.8671 162.06 -45.0614 157.848 -40.5027 153.827C-36.7398 150.519 -32.83 147.149 -28.8058 143.729C-21.0841 137.03 -10.5375 129.118 1.8649 125.614C12.6344 122.676 23.8793 123.186 34.7853 123.673C46.4466 124.206 58.4755 124.785 70.0204 121.041C81.5652 117.297 91.1895 110.254 100.426 98.5262C105.767 91.4846 110.656 84.1899 115.065 76.684C120.478 67.9003 126.051 58.8115 132.792 51.0464C138.758 43.8596 146.343 37.8747 154.952 33.5623C161.855 30.2242 169.606 28.2292 177.071 26.2893C186.942 23.7379 197.14 21.0462 205.436 15.3684C218.856 6.08554 223.988 -8.4425 227.184 -21.3955C228.61 -27.0796 229.661 -32.3319 230.516 -37.6352C233.939 -59.2897 233.231 -83.5809 228.398 -109.819C227.286 -115.781 226.011 -121.809 224.575 -127.717C220.277 -146.409 217.477 -165.575 225.938 -179.286C228.614 -183.559 232.181 -187.365 236.415 -190.465C244.564 -196.621 252.749 -198.954 263.751 -198.29C270.225 -197.753 276.622 -196.873 282.912 -195.654C293.988 -193.736 305.42 -191.802 317.311 -192.398C324.747 -192.848 332.181 -194.2 339.415 -196.419C352.375 -200.433 364.82 -206.059 376.376 -213.13C383.524 -217.484 390.074 -222.659 395.842 -228.51C401.027 -233.709 405.618 -239.361 409.53 -245.363C411.8 -248.879 413.741 -252.541 415.331 -256.307L414.797 -257.549Z" fill="url(#paint11_linear)"/>
<path d="M403.909 -282.892C404.066 -280.379 403.981 -277.836 403.653 -275.293C400.342 -249.867 374.163 -231.383 349.816 -216.018C330.456 -203.811 312.963 -193.742 293.606 -193.775C282.459 -193.921 271.033 -197.463 259.968 -200.975C241.153 -206.903 223.387 -212.505 207.671 -201.137C187.796 -186.798 193.925 -161.101 201.149 -138.122C211.495 -105.169 214.706 -70.1145 210.614 -34.7968C209.101 -21.9759 205.798 -5.98503 193.536 3.96667C185.781 10.274 176.132 12.9833 166.006 15.7964C158.937 17.5043 152.023 19.9085 145.39 22.9647C128.093 31.7329 117.411 48.4259 107.155 64.5309C95.16 83.2085 83.8508 100.915 63.1938 107.087C52.5775 110.246 41.461 109.36 30.706 108.504C19.9509 107.649 8.31177 106.717 -2.63309 110.101C-19.2994 115.251 -31.017 128.857 -42.3592 142.031C-53.9891 155.48 -66.0413 169.568 -83.3144 173.846C-89.0962 175.066 -94.9444 175.732 -100.76 175.831C-110.826 176.354 -121.236 176.888 -129.254 183.122C-138.147 190.021 -140.073 200.619 -141.93 210.883C-142.603 215.115 -143.549 219.332 -144.763 223.511C-150.159 240.756 -166.714 256.609 -189.07 266.029C-209.293 274.516 -231.125 277.187 -252.219 279.777C-256.359 280.271 -260.644 280.743 -264.961 281.094L-264.599 281.936C-260.392 281.598 -256.217 281.14 -252.171 280.652C-231.006 278.049 -209.119 275.371 -188.712 266.907L-187.863 266.542C-165.656 256.999 -149.205 241.039 -143.79 223.752C-142.58 219.536 -141.63 215.284 -140.944 211.017C-139.016 200.469 -137.224 190.503 -128.637 183.838C-120.892 177.822 -111.124 177.327 -100.721 176.778C-94.8326 176.657 -88.9142 175.978 -83.0608 174.751C-65.4427 170.375 -53.2925 156.246 -41.5219 142.584C-30.3021 129.53 -18.6682 116.045 -2.33051 110.986C8.4123 107.671 19.69 108.572 30.6002 109.429C41.5105 110.285 52.6392 111.2 63.48 107.978C84.5718 101.738 96.5278 83.0603 108.078 65.0133C118.332 48.9937 128.885 32.4066 145.962 23.8007C152.528 20.7837 159.371 18.4102 166.365 16.7237C176.206 13.9657 186.375 11.1173 194.32 4.7115C206.872 -5.46611 210.232 -21.6843 211.765 -34.6831C215.875 -70.1126 212.655 -105.279 202.276 -138.336C195.103 -161.015 189.054 -186.392 208.396 -200.35C223.694 -211.386 241.213 -205.864 259.775 -200.029C270.95 -196.531 282.431 -192.861 293.816 -192.834C314.928 -192.727 335.547 -205.694 350.557 -215.238C375.039 -230.694 401.455 -249.348 404.805 -275.18C405.027 -276.92 405.138 -278.661 405.137 -280.394L403.909 -282.892Z" fill="url(#paint12_linear)"/>
<path d="M359.794 -325.194L358.814 -324.773C362.558 -321.101 365.912 -317.107 368.838 -312.835C377.458 -299.889 379.907 -288.246 376.78 -275.086C375.721 -270.938 374.238 -266.854 372.35 -262.888C363.815 -244.531 349.035 -227.834 328.394 -213.252C313.335 -202.605 295.324 -191.671 276.045 -191.298C265.411 -191.106 254.556 -194.218 244.039 -197.221C226.261 -202.311 209.453 -207.124 194.47 -196.662C175.653 -183.506 180.04 -159.747 185.636 -138.486C190.736 -118.619 193.412 -98.0971 193.62 -77.2752C193.816 -65.2899 193.216 -53.2338 191.821 -41.1725C190.409 -29.0199 187.303 -13.8746 176.032 -4.31537C168.668 1.90893 158.978 4.70338 150.46 7.2986L149.295 7.6473C142.986 9.31761 136.811 11.5347 130.861 14.2667C114.262 22.4983 103.639 37.797 93.4328 52.714C89.467 58.4751 85.3543 64.4346 81.0209 69.8804C71.4133 81.734 62.3442 88.5385 51.6117 91.967C41.7426 95.1091 31.5042 94.6908 21.6476 94.2607C11.4317 93.8498 0.854423 93.4082 -9.22683 96.9118C-14.3172 98.7318 -19.0896 101.355 -23.3094 104.654C-31.6458 110.957 -38.6847 119.56 -45.4972 127.88C-56.0862 140.781 -67.0056 154.128 -82.7679 158.636C-88.0394 159.949 -93.3939 160.765 -98.7435 161.072C-104.485 161.345 -110.236 162.288 -115.856 163.878C-119.198 164.919 -122.331 166.57 -125.051 168.725C-133.264 175.314 -135.387 185.185 -137.352 194.702C-138.117 198.692 -139.131 202.66 -140.388 206.588C-146.212 223.375 -162.557 238.276 -182.989 245.466C-190.33 247.848 -197.884 249.39 -205.468 250.054C-217.521 251.227 -229.57 251.748 -241.551 251.613C-252.798 251.836 -263.939 251.082 -274.822 249.361C-276.245 249.111 -277.591 248.86 -278.951 248.532L-278.503 249.574C-277.397 249.808 -276.257 250.029 -275.102 250.242C-264.156 251.977 -252.95 252.731 -241.636 252.495C-229.603 252.633 -217.5 252.101 -205.394 250.902C-197.736 250.217 -190.11 248.645 -182.703 246.222C-181.021 245.635 -179.2 244.92 -177.502 244.191C-159.198 236.325 -144.865 222.323 -139.447 206.708C-138.172 202.697 -137.149 198.645 -136.382 194.572C-134.37 185.255 -132.354 175.498 -124.424 169.149C-121.808 167.083 -118.801 165.496 -115.592 164.492C-110.05 162.943 -104.384 162.019 -98.7269 161.741C-93.305 161.435 -87.8778 160.604 -82.5369 159.264C-66.4521 154.651 -55.4755 141.212 -44.7212 128.155C-37.9455 119.885 -30.927 111.325 -22.6681 105.156C-18.5473 101.955 -13.8892 99.4144 -8.9243 97.6608C0.971209 94.2201 11.426 94.6467 21.548 95.0642C31.67 95.4818 41.892 95.907 51.9407 92.6878C62.8978 89.1965 72.1465 82.3148 81.8621 70.2626C86.263 64.8386 90.3859 58.8578 94.3558 53.0611C104.525 38.329 115.017 23.0864 131.362 14.9813C137.258 12.2742 143.378 10.0805 149.632 8.43211L150.797 8.08342C159.379 5.5455 169.223 2.61681 176.759 -3.74876C188.316 -13.4984 191.466 -28.8996 192.899 -41.23C194.312 -53.3506 194.919 -65.4664 194.719 -77.5104C194.516 -98.3944 191.839 -118.978 186.732 -138.906C181.198 -159.889 176.823 -183.349 195.146 -196.124C209.682 -206.276 226.266 -201.535 243.803 -196.511C254.387 -193.486 265.309 -190.353 276.098 -190.543C295.682 -190.929 313.877 -201.976 329.07 -212.714C349.846 -227.388 364.775 -244.233 373.342 -262.74C375.228 -266.742 376.696 -270.866 377.723 -275.052C380.918 -288.461 378.476 -300.309 369.683 -313.435C366.789 -317.638 363.481 -321.572 359.794 -325.194V-325.194Z" fill="url(#paint13_linear)"/>
<path d="M344.901 -318.794L343.937 -318.38C345.533 -316.223 346.938 -313.946 348.142 -311.566C354.271 -299.239 354.778 -288.605 349.875 -274.851C348.357 -270.75 346.609 -266.703 344.639 -262.729C335.07 -242.862 325.63 -225.215 307.105 -210.527C289.779 -196.828 273.467 -189.548 258.528 -188.842C248.519 -188.412 238.238 -191.043 228.262 -193.552C211.499 -197.81 195.688 -201.834 181.459 -192.272C162.067 -179.375 166.995 -154.987 170.237 -138.935C173.741 -120.217 175.365 -101.087 175.09 -81.7707C175.067 -70.4273 174.409 -59.0358 173.12 -47.6402C171.716 -35.4235 168.883 -21.714 158.61 -12.6681C152.186 -7.00026 144.073 -4.13928 134.892 -1.24212L132.693 -0.55102C127.133 1.03627 121.684 3.03835 116.405 5.43386C100.395 13.1923 89.9253 27.2253 79.7633 40.8047C75.9768 45.8126 72.1046 51.0264 68.026 55.8048C61.6847 63.1953 52.7923 72.2567 40.2024 76.5847C31.1193 79.7102 21.7529 79.7456 12.7029 79.7972C3.2589 79.8322 -6.59336 79.9073 -15.7375 83.5661C-20.3738 85.4193 -24.6893 87.9835 -28.4809 91.1381C-36.0375 97.2758 -42.3641 105.556 -48.5419 113.417C-58.0431 125.698 -67.8646 138.404 -82.212 143.099C-86.9869 144.515 -91.8644 145.478 -96.7624 145.97C-102.017 146.495 -107.245 147.605 -112.325 149.277C-115.412 150.376 -118.29 151.997 -120.797 154.05C-128.343 160.302 -130.558 169.418 -132.714 178.222C-133.577 182.072 -134.694 185.893 -136.056 189.665C-142.287 205.866 -158.357 219.651 -177.001 224.924C-184.262 226.979 -190.927 226.818 -197.377 226.665L-198.375 226.637C-209.398 226.222 -220.316 225.183 -231.067 223.527C-241.292 222.219 -251.293 220.115 -260.966 217.24C-277.233 212.245 -288.549 204.277 -295.616 193.097C-299.778 186.518 -302.395 178.988 -304.168 168.694C-304.895 164.256 -305.418 159.799 -305.967 155.504C-306.295 152.67 -306.611 150 -306.959 147.479C-307.426 144.096 -307.902 140.784 -308.605 137.705C-309.072 135.404 -309.649 133.252 -310.301 130.878L-310.387 130.678C-311.008 127.934 -311.997 125.3 -313.333 122.833C-315.865 118.639 -319.532 115.164 -324.024 112.702C-328.516 110.24 -333.702 108.862 -339.142 108.685L-338.75 109.599C-333.542 109.811 -328.586 111.161 -324.292 113.537C-319.998 115.913 -316.49 119.246 -314.057 123.262C-312.755 125.676 -311.791 128.253 -311.185 130.937L-311.105 131.122C-310.459 133.481 -309.87 135.663 -309.428 137.907C-308.79 141.013 -308.245 144.261 -307.784 147.63C-307.417 150.194 -307.124 152.857 -306.792 155.656C-306.292 159.971 -305.763 164.443 -304.974 168.889C-303.263 179.31 -300.609 186.926 -296.41 193.591C-289.237 204.927 -277.731 212.932 -261.286 218.07C-251.555 220.952 -241.494 223.058 -231.21 224.366C-220.417 226.025 -209.459 227.068 -198.395 227.491L-197.397 227.518C-190.87 227.672 -184.127 227.834 -176.697 225.723C-173.966 224.955 -171.284 224.006 -168.671 222.883C-161.047 219.646 -154.11 215.028 -148.322 209.335C-142.534 203.642 -138.027 197.004 -135.1 189.863C-133.745 186.047 -132.635 182.183 -131.774 178.291C-129.69 169.637 -127.486 160.677 -120.197 154.637C-117.789 152.661 -115.019 151.103 -112.049 150.054C-107.041 148.423 -101.891 147.345 -96.715 146.846C-91.7494 146.33 -86.8065 145.339 -81.9686 143.89C-67.4335 139.047 -57.4896 126.221 -47.8721 113.805C-41.7617 105.922 -35.4248 97.7563 -27.9743 91.7318C-24.266 88.6546 -20.0502 86.1506 -15.5227 84.3359C-6.46837 80.7833 2.77551 80.7329 12.5584 80.7214C21.6921 80.6846 31.1361 80.6496 40.3988 77.447C53.2887 73.0069 62.3423 63.8255 68.7673 56.3146C72.8786 51.5221 76.7732 46.3156 80.5475 41.2791C90.6462 27.7776 101.104 13.8513 116.804 6.22615C122.029 3.85744 127.421 1.87421 132.922 0.297186L135.143 -0.386677C144.439 -3.33296 152.673 -6.22878 159.262 -12.0522C169.775 -21.3029 172.671 -35.2255 174.102 -47.6057C175.396 -59.03 176.054 -70.4501 176.074 -81.8217C176.359 -101.193 174.725 -120.377 171.192 -139.142C167.108 -159.362 164.596 -179.971 181.899 -191.565C195.678 -200.867 211.306 -196.865 227.832 -192.708C237.828 -190.242 248.233 -187.545 258.398 -187.974C273.57 -188.679 290.127 -196.064 307.624 -209.905C326.398 -224.734 335.882 -242.502 345.519 -262.481C347.506 -266.495 349.277 -270.579 350.822 -274.717C355.805 -288.691 355.306 -299.532 349.069 -312.065C347.867 -314.412 346.474 -316.66 344.901 -318.794V-318.794Z" fill="url(#paint14_linear)"/>
<path d="M327.201 -311.188C327.324 -310.903 327.44 -310.632 327.563 -310.347C331.999 -297.411 329.405 -287.827 323.089 -274.616C322.069 -272.487 320.87 -270.282 319.689 -267.898C318.782 -266.139 317.848 -264.351 316.922 -262.499C313.96 -256.561 311.577 -250.855 309.268 -245.333C303.333 -231.101 298.209 -218.807 285.679 -207.676C277.376 -200.305 260.53 -187.741 240.875 -186.26C231.402 -185.57 221.637 -187.679 212.184 -189.736C196.503 -193.141 181.678 -196.355 168.284 -187.777C150.216 -176.21 152.891 -154.859 154.845 -139.285C156.815 -121.755 157.399 -103.998 156.594 -86.1462C156.233 -73.7523 155.57 -63.5449 154.454 -53.9878C153.137 -42.468 150.532 -29.5327 141.227 -20.9364C135.183 -15.3303 127.47 -12.4384 119.346 -9.6913L115.964 -8.55913C111.185 -7.09448 106.491 -5.33742 101.917 -3.30064C86.5458 3.96359 76.0302 16.7652 65.8391 29.1063C62.3482 33.3617 58.741 37.7516 55.005 41.8419C48.4411 49.0744 40.0545 57.1071 28.5936 61.4064C20.2576 64.5151 11.8734 64.9906 3.69945 65.4602C-5.39724 65.9883 -13.9856 66.4839 -22.4151 70.2751C-26.6126 72.1903 -30.4847 74.7234 -33.8602 77.7626C-40.6595 83.727 -46.3391 91.5769 -51.8413 99.1646C-60.2506 110.791 -68.9476 122.828 -81.6617 127.767C-85.9478 129.277 -90.3523 130.388 -94.8032 131.081C-99.5475 131.822 -104.234 133.064 -108.765 134.782C-111.595 135.941 -114.227 137.53 -116.537 139.474C-123.367 145.367 -125.715 153.678 -127.969 161.713C-128.934 165.425 -130.145 169.101 -131.595 172.72C-138.177 188.058 -153.921 200.756 -170.764 204.326C-177.7 205.785 -183.531 204.639 -189.189 203.537L-191.026 203.177C-201.008 201.147 -210.78 198.537 -220.285 195.364C-229.493 192.523 -238.418 189.095 -246.997 185.103C-261.632 178.055 -272.212 169.145 -279.154 157.76C-283.563 150.079 -286.787 141.803 -288.745 133.144C-289.244 131.127 -289.737 129.124 -290.218 127.15C-291.493 121.934 -292.651 116.988 -294.131 112.688C-295.067 109.823 -296.202 107.031 -297.53 104.327C-298.143 102.901 -298.938 101.636 -299.567 100.487C-299.751 100.059 -300.027 99.6869 -300.231 99.3014C-300.436 98.9158 -300.632 98.5944 -300.801 98.2447C-301.528 96.7214 -302.484 95.3133 -303.645 94.0574C-307.426 90.5039 -312.099 87.8271 -317.337 86.2144C-322.574 84.6017 -328.249 84.0921 -333.964 84.7214C-337.141 85.0692 -340.283 85.8992 -343.258 87.1767C-344.689 87.7944 -346.078 88.5042 -347.413 89.3004L-347.064 90.1138C-343.057 87.676 -338.542 86.131 -333.927 85.6183C-328.372 84.9968 -322.854 85.4813 -317.758 87.0377C-312.662 88.5941 -308.111 91.185 -304.425 94.6291C-303.314 95.8288 -302.402 97.1773 -301.716 98.6376L-301.146 99.6943C-300.968 100.108 -300.708 100.487 -300.469 100.908C-299.83 102.036 -299.123 103.322 -298.44 104.685C-297.138 107.366 -296.021 110.132 -295.094 112.967C-293.665 117.238 -292.458 122.163 -291.19 127.365C-290.709 129.339 -290.226 131.363 -289.711 133.373C-287.738 142.115 -284.486 150.469 -280.038 158.224C-273.001 169.738 -262.383 178.783 -247.519 185.869C-238.9 189.877 -229.937 193.321 -220.689 196.179C-211.145 199.38 -201.332 202.012 -191.306 204.058L-189.468 204.418C-183.721 205.549 -177.767 206.71 -170.623 205.195C-167.21 204.468 -163.86 203.397 -160.639 202.004C-153.939 199.078 -147.831 194.993 -142.685 189.998C-137.539 185.003 -133.463 179.202 -130.705 172.946C-129.237 169.291 -128.016 165.576 -127.05 161.825C-124.818 153.919 -122.52 145.763 -115.889 140.125C-113.681 138.245 -111.152 136.717 -108.426 135.616C-103.943 133.931 -99.3062 132.722 -94.6149 132.015C-90.0951 131.302 -85.6231 130.168 -81.2713 128.63C-68.247 123.558 -59.4664 111.4 -50.9571 99.6468C-45.4916 92.1086 -39.8487 84.3083 -33.1331 78.4643C-29.8421 75.5016 -26.0666 73.0328 -21.9737 71.1673C-13.7075 67.4462 -5.22934 66.9642 3.77344 66.4427C12.0188 65.9593 20.5296 65.4632 29.0861 62.3274C40.749 57.9581 49.1826 49.8546 55.8914 42.5091C59.6539 38.3905 63.2713 33.9793 66.7622 29.7239C76.8615 17.4392 87.2975 4.72247 102.415 -2.50062C106.947 -4.51536 111.595 -6.25829 116.326 -7.71725L119.708 -8.8494C127.903 -11.6103 135.78 -14.5723 141.989 -20.334C151.535 -29.1352 154.186 -42.2765 155.53 -53.9599C156.64 -63.5313 157.323 -73.7813 157.662 -86.1824C158.438 -104.094 157.815 -121.909 155.8 -139.493C153.883 -154.846 151.25 -175.876 168.783 -187.112C181.787 -195.472 196.383 -192.295 211.835 -188.927C221.372 -186.855 231.227 -184.717 240.826 -185.427C260.818 -186.935 277.901 -199.668 286.284 -207.125C298.995 -218.418 304.423 -231.4 310.163 -245.142C312.455 -250.657 314.828 -256.343 317.779 -262.259C318.705 -264.111 319.623 -265.892 320.547 -267.658C321.726 -269.956 322.86 -272.134 323.961 -274.298C330.387 -287.658 333.024 -297.412 328.494 -310.611C328.371 -310.897 328.242 -311.196 328.113 -311.496L327.201 -311.188Z" fill="url(#paint15_linear)"/>
<path d="M307.574 -302.755C307.711 -293.161 303.234 -285.845 296.92 -275.644L295.321 -273.063C293.234 -269.681 291.103 -266.179 289.106 -262.363C285.243 -254.391 282.301 -246.144 280.331 -237.767C277.216 -226.065 274.235 -214.997 264.203 -204.939C252.32 -193.071 237.372 -185.363 223.165 -183.806C214.281 -182.828 205.012 -184.457 196.055 -186.035C182.098 -188.489 167.672 -191.047 155.11 -183.367C138.148 -173.052 138.821 -154.561 139.365 -139.699C139.908 -124.482 138.973 -108.021 137.989 -90.593C137.439 -80.755 136.901 -70.618 135.695 -60.4139C134.525 -49.6331 132.028 -37.4373 123.725 -29.2547C118.593 -24.2265 112.25 -21.2978 103.681 -18.1905L99.1761 -16.6098C95.2015 -15.2994 91.2859 -13.803 87.4458 -12.127C72.4951 -5.28009 61.8545 6.37508 51.5852 17.634C48.496 21.0238 45.3008 24.5267 42.0156 27.8654C35.4677 34.5501 27.3993 41.9728 17.1571 46.1372C9.68875 49.1943 2.1826 50.1376 -5.07656 51.0256C-13.4156 52.0564 -21.3075 53.0472 -28.9326 56.9999C-32.6757 58.971 -36.095 61.4627 -39.0528 64.3745C-45.0887 70.1799 -50.0806 77.6497 -54.9113 84.8644C-62.2613 95.8493 -69.8399 107.203 -81.0207 112.379C-84.8169 114.001 -88.7505 115.272 -92.7575 116.172C-97.0271 117.118 -101.214 118.487 -105.241 120.251C-107.814 121.458 -110.193 123.022 -112.284 124.884C-118.41 130.39 -120.862 137.918 -123.231 145.19C-124.312 148.752 -125.637 152.269 -127.198 155.719C-134.114 170.101 -149.52 181.606 -164.658 183.649C-171.609 184.624 -176.906 182.471 -182.027 180.412C-182.636 180.166 -183.228 179.913 -183.83 179.682C-192.77 176.011 -201.395 171.814 -209.657 167.114C-219.018 161.941 -226.247 157.542 -233.183 152.881C-246.543 143.713 -255.983 133.942 -262.836 122.315C-267.233 114.402 -270.809 106.079 -273.524 97.4435C-275.629 90.6766 -278.324 84.1201 -281.583 77.8325C-282.952 75.3304 -284.645 73.0068 -286.629 70.9064C-287.793 69.7364 -289.054 68.6515 -290.403 67.6598L-290.947 67.2509C-291.922 66.4643 -293.007 65.796 -294.181 65.26C-300.06 62.5628 -311.993 58.4268 -325.913 60.7401C-328.557 61.1519 -331.161 61.8953 -333.649 62.9487C-338.503 65.283 -342.999 68.2643 -346.972 71.7838L-349.116 73.4999L-352.963 76.5221L-352.632 77.2927C-351.295 76.2619 -349.971 75.2026 -348.587 74.1009L-346.443 72.3848C-339.912 67.1445 -334.749 62.9989 -325.863 61.5303C-312.201 59.2937 -300.493 63.3572 -294.722 65.9826C-293.58 66.5132 -292.532 67.182 -291.604 67.9727L-291.06 68.3816C-289.749 69.338 -288.528 70.3896 -287.407 71.5278C-285.432 73.5985 -283.74 75.8883 -282.365 78.3543C-279.138 84.606 -276.468 91.1216 -274.377 97.8439C-271.617 106.518 -268.021 114.886 -263.628 122.858C-256.642 134.614 -247.183 144.427 -233.715 153.668C-226.855 158.378 -219.591 162.812 -210.159 167.972C-201.878 172.668 -193.23 176.856 -184.267 180.512L-182.47 181.227C-177.461 183.25 -171.815 185.54 -164.582 184.546C-160.692 183.994 -156.857 182.916 -153.209 181.349C-141.308 176.081 -131.66 167.005 -126.278 156.016C-124.711 152.527 -123.376 148.972 -122.281 145.374C-119.958 138.222 -117.544 130.829 -111.569 125.557C-109.564 123.771 -107.281 122.27 -104.812 121.115C-100.846 119.391 -96.7283 118.046 -92.5304 117.105C-88.4727 116.187 -84.4886 114.9 -80.6405 113.264C-69.1658 107.961 -61.4934 96.466 -54.076 85.3676C-49.2535 78.224 -44.3106 70.7752 -38.342 65.0833C-35.453 62.2474 -32.1203 59.8162 -28.4749 57.8851C-21.0233 54.0238 -13.2477 53.0323 -5.00662 52.0436C2.3403 51.1348 9.90771 50.1989 17.523 47.0788C27.9815 42.7875 36.1255 35.3155 42.7427 28.5672C46.0381 25.2072 49.2497 21.6973 52.3552 18.3005C63.0162 6.60277 73.0998 -4.45806 87.8443 -11.1995C91.6518 -12.8615 95.5349 -14.3438 99.4767 -15.6402L104.008 -17.2492C110.819 -19.7197 118.596 -22.8246 124.452 -28.5529C133.022 -36.9687 135.441 -49.3002 136.687 -60.2655C137.854 -70.4698 138.429 -80.6564 138.996 -90.5015C139.95 -108.086 140.904 -124.64 140.325 -139.807C139.834 -154.455 139.141 -172.633 155.6 -182.631C167.86 -190.113 181.394 -187.697 195.792 -185.161C204.81 -183.576 214.163 -181.932 223.18 -182.916C237.646 -184.5 252.851 -192.285 264.886 -204.387C275.131 -214.621 278.135 -225.818 281.328 -237.654C283.254 -245.961 286.155 -254.14 289.978 -262.044C291.936 -265.861 294.086 -269.32 296.162 -272.681L297.755 -275.275C303.969 -285.349 308.722 -293.105 308.537 -303.169L307.574 -302.755Z" fill="url(#paint16_linear)"/>
<path d="M282.623 -292.033C280.172 -287.97 277.353 -284.077 274.198 -280.4C272.623 -278.439 270.995 -276.421 269.324 -274.232C266.312 -270.398 263.644 -266.367 261.347 -262.183C256.065 -252.239 255.006 -242.774 253.939 -233.644C252.676 -222.536 251.494 -212.054 242.779 -202.173C233.049 -191.146 219.123 -183.354 205.514 -181.309C197.173 -180.057 188.39 -181.186 179.939 -182.304C167.056 -183.97 153.729 -185.681 142.014 -178.956C126.109 -169.874 124.919 -153.422 123.968 -140.149C123.435 -132.837 122.585 -125.135 121.699 -116.979C120.886 -109.868 120.073 -102.757 119.505 -95.0749C119.247 -92.0451 118.995 -88.9844 118.75 -85.8928C118.255 -79.6622 117.752 -73.2253 117.047 -66.8536C115.827 -56.1871 113.718 -45.3409 106.392 -37.6292C101.348 -32.3514 94.7029 -29.2253 88.1958 -26.7672C86.318 -25.9603 84.3176 -25.3036 82.4296 -24.6106C79.3353 -23.4838 76.1368 -22.3292 73.0793 -20.9815C58.249 -14.4398 47.775 -4.24242 36.648 6.50607C34.2034 8.87502 31.6691 11.3502 29.1042 13.754C22.7111 19.7636 15.0976 26.5343 5.74961 30.754C-0.527651 33.4132 -7.08261 35.3376 -13.746 36.4774C-21.3804 38.0676 -28.623 39.4893 -35.5007 43.6956C-38.7927 45.7322 -41.7683 48.1911 -44.3226 50.9856C-49.6277 56.646 -53.8766 63.729 -58.0297 70.5849C-64.3042 80.9217 -70.7909 91.6202 -80.4507 97.0051C-83.7896 98.7404 -87.2807 100.178 -90.8704 101.297C-94.6045 102.468 -98.2388 103.962 -101.721 105.756C-104.017 107.004 -106.137 108.529 -108.015 110.286C-113.43 115.419 -115.954 122.15 -118.423 128.603C-119.627 132.05 -121.086 135.439 -122.789 138.746C-130.13 152.228 -144.822 162.244 -158.52 163.092C-165.659 163.54 -170.688 160.207 -175.126 157.263L-176.59 156.286C-184.496 151.033 -191.969 145.283 -198.96 139.071C-206.2 132.801 -212.791 126.826 -219.118 120.788C-229.872 110.798 -239.002 99.4338 -246.275 86.9854C-250.208 80.0376 -253.325 72.8741 -256.338 65.9532C-256.951 64.5263 -257.503 63.2421 -258.079 61.9007C-260.875 55.3939 -264.439 48.1352 -268.79 43.1417C-270.69 40.8641 -273.056 38.9555 -275.777 37.506C-277.265 36.7079 -278.946 36.2111 -280.718 36.0455C-281.44 36.0247 -282.171 36.0944 -282.892 36.2529C-283.537 36.3825 -284.188 36.4642 -284.838 36.4972C-286.923 36.4804 -288.992 36.3418 -291.032 36.0823C-297.483 35.4737 -307.228 34.4038 -317.742 36.6738C-319.933 37.1245 -322.083 37.799 -324.152 38.6841C-329.263 40.8803 -333.085 44.0947 -337.295 47.7125C-338.505 48.7227 -339.752 49.7825 -341.076 50.8418C-346.535 55.4051 -352.507 59.4128 -358.868 62.7807L-358.524 63.5798C-352.084 60.1563 -346.044 56.0793 -340.531 51.4357C-339.19 50.3694 -337.943 49.3096 -336.733 48.2994C-331.054 43.5094 -326.091 39.3483 -317.64 37.5425C-307.36 35.3565 -297.675 36.3335 -291.266 36.9775C-289.147 37.2546 -286.993 37.3914 -284.823 37.3868C-284.159 37.3606 -283.493 37.2838 -282.832 37.157C-282.213 37.0219 -281.585 36.9682 -280.967 36.9976C-279.35 37.1973 -277.824 37.6902 -276.475 38.4481C-273.858 39.8362 -271.587 41.6729 -269.774 43.8687C-265.476 48.7836 -262.024 56.006 -259.187 62.4277C-258.611 63.769 -258.029 65.1246 -257.446 66.4802C-254.454 73.4436 -251.363 80.6354 -247.346 87.598C-240.032 100.087 -230.86 111.489 -220.063 121.515C-213.729 127.567 -207.143 133.578 -199.851 139.877C-192.753 146.078 -185.173 151.81 -177.158 157.037C-176.68 157.339 -176.19 157.669 -175.699 157.999C-171.154 161.016 -165.971 164.434 -158.505 163.982C-154.188 163.678 -149.894 162.619 -145.859 160.864C-135.526 156.252 -127.017 148.53 -121.909 139.128C-120.192 135.755 -118.723 132.299 -117.513 128.787C-115.107 122.411 -112.605 115.809 -107.347 110.895C-105.52 109.214 -103.46 107.76 -101.233 106.578C-97.8127 104.805 -94.2402 103.332 -90.5678 102.181C-86.9204 101.048 -83.3741 99.5864 -79.9848 97.8191C-70.0536 92.3007 -63.4996 81.4888 -57.1332 71.0956C-53.0128 64.2537 -48.7169 57.2351 -43.5219 51.7234C-41.0348 49.0185 -38.1446 46.6365 -34.9511 44.6597C-28.2448 40.5946 -21.0982 39.1296 -13.5617 37.5815C-6.85185 36.45 -0.246228 34.5433 6.09111 31.9089C15.5861 27.626 23.2628 20.7774 29.6599 14.7323C32.2249 12.3284 34.7653 9.86758 37.2201 7.47733C48.2369 -3.25759 58.6414 -13.3914 73.2922 -19.8559C76.2966 -21.1469 79.4767 -22.3444 82.5608 -23.4499C84.4652 -24.1499 86.441 -24.8637 88.3597 -25.6205C94.9831 -28.2131 101.749 -31.374 106.944 -36.7505C114.537 -44.6955 116.687 -55.762 117.913 -66.5495C118.634 -72.9281 119.137 -79.365 119.632 -85.5956C119.873 -88.6967 120.125 -91.7575 120.387 -94.7778C120.986 -102.388 121.825 -109.663 122.587 -116.667C123.473 -124.824 124.317 -132.54 124.852 -139.937C125.803 -152.939 126.967 -169.093 142.39 -177.901C153.762 -184.478 166.345 -182.836 179.683 -181.146C188.249 -180.026 197.11 -178.898 205.6 -180.163C219.463 -182.249 233.637 -190.182 243.537 -201.4C252.441 -211.515 253.646 -222.125 254.953 -233.353C255.99 -242.419 257.07 -251.792 262.258 -261.594C264.537 -265.711 267.183 -269.676 270.165 -273.444C271.82 -275.626 273.448 -277.644 275.029 -279.591C278.479 -283.687 281.489 -288.056 284.011 -292.63L282.623 -292.033Z" fill="url(#paint17_linear)"/>
<path d="M243.713 -275.313L242.46 -273.997C238.977 -270.32 235.995 -266.288 233.589 -262.004C227.674 -251.145 228.033 -240.768 228.393 -230.747C228.77 -219.786 229.132 -209.444 221.367 -199.379C213.191 -189.004 201.149 -181.6 187.858 -178.776C180.034 -177.223 171.675 -177.858 163.589 -178.49C151.819 -179.366 139.616 -180.259 128.836 -174.511C113.886 -166.582 111.053 -152.873 108.519 -140.763L108.466 -140.571L107.092 -133.776C104.91 -123.592 102.442 -112.051 100.895 -99.401C100.309 -94.6867 99.8705 -89.7651 99.3604 -84.9649C98.9949 -81.0889 98.6294 -77.0778 98.2007 -73.1239C97.0991 -63.218 95.2157 -53.0607 88.7702 -45.7777C84.108 -40.5118 77.9095 -37.4256 72.4108 -35.0967C70.0595 -34.0863 67.6102 -33.169 65.2425 -32.2868C62.8747 -31.4047 60.6663 -30.5571 58.417 -29.6244C42.9702 -22.9868 31.463 -13.2582 19.3456 -2.87868L15.9745 -0.0101282C9.62403 5.42336 2.4165 11.5632 -5.86994 15.7325C-11.1215 18.2322 -16.5843 20.2681 -22.1765 21.8098C-29.2329 23.9798 -35.8525 25.996 -42.1075 30.5263C-44.938 32.6141 -47.4611 35.0363 -49.5983 37.7177C-54.0892 43.6608 -57.9686 49.9366 -61.1806 56.4546C-66.3796 66.1434 -71.7458 76.2083 -79.9091 81.7446C-82.8192 83.6205 -85.8942 85.2532 -89.0914 86.62C-92.246 87.9827 -95.2967 89.5706 -98.2125 91.3677C-100.242 92.6641 -102.118 94.1625 -103.8 95.8309C-108.448 100.499 -111.026 106.34 -113.505 112.003C-114.886 115.378 -116.524 118.681 -118.408 121.886C-126.131 134.299 -140.115 142.81 -152.411 142.6C-159.875 142.426 -164.387 137.958 -168.397 133.984L-169.408 132.982C-176.272 126.102 -182.597 118.781 -188.343 111.063C-191.483 106.952 -194.678 102.713 -198.002 98.3095C-200.328 95.2069 -202.737 92.0161 -205.23 88.7371C-214.383 76.9422 -222.606 64.5282 -229.844 51.5767C-232.362 46.9787 -234.671 42.325 -236.919 37.814C-238.913 33.8026 -240.793 30.0126 -242.81 26.2644C-247.447 17.5902 -251.688 11.9071 -256.179 8.34311C-258.623 6.29331 -261.628 4.85519 -264.945 4.14816C-266.876 3.71509 -268.965 3.85145 -270.928 4.53865C-271.797 4.95613 -272.58 5.52273 -273.23 6.20399C-273.853 6.8477 -274.589 7.3931 -275.402 7.8132C-277.818 8.98684 -282.215 9.28737 -287.791 9.63765C-295.123 9.907 -302.48 10.8976 -309.733 12.5922C-318.135 14.7826 -322.8 18.917 -328.169 23.7089C-329.734 25.1083 -331.358 26.5501 -333.154 27.9979C-339.681 33.7095 -347.278 38.2732 -355.494 41.4177C-359.053 42.9473 -362.597 44.4699 -366.017 46.1426L-365.674 46.9417C-362.257 45.2594 -358.755 43.6868 -355.167 42.2238C-346.878 39.0493 -339.204 34.4647 -332.586 28.7343C-330.78 27.2652 -329.139 25.8164 -327.558 24.41C-322.263 19.7173 -317.683 15.6535 -309.561 13.5326C-302.398 11.8438 -295.129 10.8573 -287.884 10.5906C-282.231 10.2408 -277.685 9.92697 -275.079 8.65486C-274.168 8.19286 -273.337 7.59577 -272.626 6.89081C-272.059 6.30449 -271.383 5.81321 -270.636 5.44416C-268.852 4.80399 -266.945 4.68345 -265.193 5.10019C-262.031 5.76696 -259.164 7.13108 -256.829 9.0792C-252.447 12.5714 -248.253 18.1901 -243.665 26.7502C-241.665 30.5054 -239.774 34.2742 -237.78 38.2855C-235.548 42.8035 -233.217 47.4645 -230.699 52.0625C-223.444 65.016 -215.191 77.4237 -205.997 89.2021C-203.507 92.4764 -201.115 95.6576 -198.769 98.7744C-195.468 103.171 -192.279 107.396 -189.127 111.535C-183.358 119.283 -177.007 126.633 -170.116 133.54L-169.105 134.542C-164.985 138.638 -160.306 143.27 -152.489 143.411C-147.802 143.426 -143.07 142.418 -138.683 140.47C-129.813 136.5 -122.368 130.058 -117.532 122.169C-115.626 118.927 -113.965 115.586 -112.562 112.173C-110.117 106.609 -107.586 100.839 -103.073 96.2623C-101.451 94.6555 -99.6417 93.214 -97.6835 91.9686C-94.8082 90.1961 -91.8014 88.6271 -88.693 87.2771C-85.4368 85.8951 -82.3083 84.2336 -79.3535 82.3172C-70.9821 76.5901 -65.5465 66.4616 -60.2965 56.6664C-57.0973 50.208 -53.2558 43.9837 -48.8244 38.0782C-46.7288 35.4773 -44.2697 33.1232 -41.5192 31.085C-35.4806 26.6814 -28.812 24.6442 -21.9679 22.5653C-16.3206 21.0008 -10.8036 18.9416 -5.49806 16.4179C2.9292 12.1712 10.1735 5.98176 16.5729 0.527212L19.9543 -2.36263C31.8634 -12.5513 43.1298 -22.2102 58.25 -28.7074L58.7399 -28.9179C60.9442 -29.8651 63.2691 -30.712 65.5164 -31.5593C67.7637 -32.4067 70.3436 -33.3801 72.7337 -34.3902C78.3181 -36.7898 84.686 -39.9319 89.4911 -45.3605C96.0835 -52.842 98.0321 -63.1625 99.1621 -73.1821C99.5848 -77.1502 99.9666 -81.1684 100.316 -85.0374C100.767 -89.7952 101.205 -94.7168 101.856 -99.4592C103.399 -112.074 105.858 -123.594 108.029 -133.756L109.463 -140.458L109.51 -140.664C111.98 -152.561 114.778 -166.036 129.29 -173.725C139.815 -179.347 151.824 -178.455 163.438 -177.58C171.59 -176.976 180.057 -176.269 187.969 -177.979C201.52 -180.859 213.797 -188.407 222.137 -198.983C230.112 -209.324 229.744 -219.815 229.344 -230.919C228.931 -240.884 228.646 -251.09 234.443 -261.728C236.825 -265.908 239.775 -269.836 243.215 -273.409C244.078 -274.372 244.966 -275.277 245.868 -276.239L243.713 -275.313Z" fill="url(#paint18_linear)"/>
<path d="M204.116 -258.298C199.801 -247.992 201.497 -238.105 203.175 -228.481C205.1 -217.475 206.906 -207.06 199.925 -196.657C196.507 -191.764 192.118 -187.446 187.013 -183.955C181.908 -180.465 176.189 -177.87 170.188 -176.322C162.776 -174.439 154.768 -174.531 147.008 -174.628C136.439 -174.735 125.486 -174.88 115.685 -170.094C101.523 -163.214 97.0146 -151.421 93.047 -141.028C88.1345 -128.915 84.5327 -116.499 82.2965 -103.969C81.3724 -98.3317 80.7711 -92.3936 80.2003 -86.6544C79.9646 -84.3218 79.7454 -81.9963 79.5179 -79.5995C78.5769 -71.0305 77.0915 -61.2978 71.3727 -54.1241C68.043 -49.9887 63.5737 -46.7497 56.8669 -43.6311C53.9809 -42.2895 50.9723 -41.0981 48.0473 -40.0272L44.0018 -38.4579C28.4997 -32.2191 16.4017 -24.1806 3.02054 -14.0864L-0.528281 -11.3612C-5.82223 -7.07201 -11.4427 -3.142 -17.3363 0.391578C-21.4556 2.64401 -25.6987 4.67618 -30.0416 6.4766C-36.7364 9.35335 -43.1045 12.0897 -48.661 17.1652C-51.0225 19.3038 -53.1003 21.6853 -54.8432 24.2506C-58.5239 30.0058 -61.6787 35.9936 -64.2722 42.1468C-68.412 51.1944 -72.6781 60.5331 -79.3306 66.2992C-81.8489 68.3883 -84.5546 70.2753 -87.4121 71.9356C-89.9281 73.4132 -92.3571 75.0215 -94.6857 76.7515C-96.4346 78.0766 -98.0617 79.534 -99.5464 81.1053C-103.162 85.3941 -106.119 90.0819 -108.326 95.0205C-109.929 98.3953 -111.812 101.675 -113.958 104.828C-120.541 113.996 -133.463 123.267 -146.26 121.937C-154.071 121.135 -158.094 115.375 -161.634 110.287L-162.182 109.508C-167.989 100.987 -173.168 92.0908 -177.69 82.8705L-180.218 77.8881C-183.725 70.9429 -187.268 63.912 -191.318 56.5579C-193.729 52.117 -196.314 47.4972 -198.973 42.7062C-203.593 34.2954 -208.478 25.6268 -213.376 16.2536L-215.945 11.3564C-219.735 4.11056 -223.322 -2.74978 -227.453 -9.25763C-232.787 -17.6657 -238.051 -23.298 -243.489 -26.3199C-246.558 -28.1366 -250.207 -29.0853 -254.029 -29.0598C-255.719 -29.0214 -257.416 -28.666 -259.016 -28.0157C-259.783 -27.6929 -260.5 -27.2648 -261.14 -26.7477C-262.168 -25.8339 -263.023 -24.7736 -263.664 -23.6178C-264.268 -22.5453 -265.05 -21.5526 -265.98 -20.6788C-269.186 -17.8306 -275.863 -16.6687 -283.716 -15.272C-289.743 -14.3317 -295.732 -13.0177 -301.64 -11.3394C-309.836 -8.84896 -314.431 -4.50775 -319.287 0.0809249C-321.116 1.8132 -323.02 3.59483 -325.205 5.39608C-331.849 11.2631 -339.836 15.6654 -348.445 18.2055C-357.079 21.0212 -365.408 24.7479 -373.252 29.3047L-372.909 30.1038C-365.096 25.5632 -356.803 21.8461 -348.206 19.0324C-339.452 16.4783 -331.326 12.0219 -324.568 6.06887C-322.366 4.2606 -320.452 2.45769 -318.613 0.704127C-313.663 -4.0263 -309.366 -8.07045 -301.378 -10.5052C-295.523 -12.1729 -289.587 -13.4755 -283.613 -14.4033C-275.644 -15.7992 -268.775 -17.0098 -265.328 -20.0629C-264.331 -21.0119 -263.485 -22.0821 -262.823 -23.2356C-262.244 -24.3004 -261.464 -25.2775 -260.521 -26.1177C-258.645 -27.4789 -256.352 -28.2118 -254.075 -28.1777C-250.437 -28.2024 -246.964 -27.2938 -244.05 -25.5548C-238.702 -22.562 -233.555 -17.0655 -228.292 -8.77886C-224.167 -2.28527 -220.619 4.57482 -216.818 11.7994C-215.964 13.427 -215.11 15.0547 -214.233 16.6896C-209.28 26.056 -204.531 34.7664 -199.775 43.1354C-197.102 47.9146 -194.547 52.5248 -192.11 56.9658C-188.093 64.334 -184.519 71.4362 -181.016 78.2818L-178.505 83.2712C-173.954 92.518 -168.755 101.445 -162.937 110.001L-162.39 110.78C-158.915 115.761 -154.614 121.943 -146.374 122.797C-141.447 123.227 -136.35 122.344 -131.683 120.254C-124.149 116.868 -117.657 111.634 -113.006 105.196C-110.835 102.007 -108.93 98.6898 -107.307 95.2758C-105.13 90.4369 -102.215 85.8468 -98.654 81.6516C-97.2069 80.1205 -95.623 78.6987 -93.9218 77.4037C-91.6245 75.6995 -89.2342 74.1079 -86.7626 72.6369C-83.8514 70.9486 -81.095 69.0284 -78.53 66.9018C-71.7123 60.9802 -67.3951 51.5351 -63.2146 42.4023C-60.6401 36.3047 -57.5148 30.3694 -53.8733 24.6621C-52.1806 22.1559 -50.1557 19.831 -47.8502 17.7465C-42.359 12.8344 -36.1337 10.1255 -29.5492 7.26235C-25.1627 5.44359 -20.8761 3.39276 -16.7133 1.12121C-10.7785 -2.44126 -5.12044 -6.40444 0.206985 -10.7305L3.75578 -13.4556C17.043 -23.5434 29.0655 -31.5325 44.4595 -37.7079C45.7821 -38.2762 47.1415 -38.759 48.4887 -39.2702C51.4279 -40.398 54.4712 -41.5535 57.3899 -42.9092C64.2539 -46.1122 68.8272 -49.5142 72.2875 -53.7058C78.1818 -61.0563 79.6998 -70.9383 80.6468 -79.6282C80.8988 -81.9679 81.1344 -84.3005 81.3292 -86.6831C81.9 -92.4223 82.4912 -98.3392 83.405 -103.955C85.6418 -116.427 89.229 -128.785 94.1128 -140.843C98.0151 -151.074 102.46 -162.653 116.237 -169.35C125.844 -174.003 136.629 -173.887 147.065 -173.774C154.823 -173.726 162.989 -173.584 170.521 -175.502C176.655 -177.085 182.5 -179.737 187.718 -183.305C192.936 -186.874 197.422 -191.287 200.915 -196.288C208.069 -207.053 206.225 -217.603 204.341 -228.83C202.636 -238.56 200.905 -248.619 205.557 -258.951L204.116 -258.298Z" fill="url(#paint19_linear)"/>
<path d="M174.121 -245.412C174.634 -238.94 175.969 -232.617 178.099 -226.566C181.484 -215.359 184.692 -204.786 178.538 -193.808C175.754 -189.162 172.015 -184.99 167.547 -181.545C163.079 -178.099 157.976 -175.452 152.546 -173.764C145.457 -171.445 137.599 -170.959 130.017 -170.507C120.806 -169.93 111.175 -169.341 102.588 -165.601C88.823 -159.686 82.3812 -149.108 77.6937 -141.38C71.0488 -131.02 66.3285 -119.857 63.7441 -108.39C62.4712 -102.349 61.7864 -95.885 61.1424 -89.6411L60.7358 -86.0856C59.8499 -77.7937 58.5741 -69.1484 53.8513 -62.538C50.6306 -58.1989 46.2497 -54.6329 41.1828 -52.2259C37.6722 -50.5111 34.0631 -48.9998 30.3794 -47.7019L29.4813 -47.316C16.9406 -42.6034 3.48374 -37.0068 -9.99598 -28.0873C-13.0042 -26.0847 -15.951 -23.9394 -18.9102 -21.8226C-22.1529 -19.4656 -25.5141 -17.024 -28.908 -14.8387C-31.6325 -13.0763 -34.2551 -11.5268 -36.7797 -10.0194C-43.8678 -5.80721 -50.0047 -2.17278 -55.281 3.91482C-57.1344 6.10063 -58.7354 8.444 -60.0547 10.9021C-62.9316 16.4667 -65.3577 22.1827 -67.3119 28.0003C-70.3945 36.357 -73.5485 44.998 -78.7187 50.9723C-80.952 53.4301 -83.3939 55.7292 -86.0177 57.8446C-87.6604 59.2435 -89.3623 60.6848 -91.0947 62.3252C-92.5389 63.6865 -93.9093 65.1105 -95.2001 66.5911C-98.0451 70.1058 -100.554 73.8207 -102.695 77.6891C-104.657 81.2118 -106.926 84.6066 -109.476 87.8378C-116.307 95.8444 -128.773 103.568 -140.061 101.335C-148.322 99.7125 -151.786 92.5967 -154.855 86.3088L-154.953 86.0805C-159.708 75.9334 -163.74 65.4665 -167.028 54.7392L-168.233 50.9462C-170.999 42.3474 -173.823 33.4352 -177.294 24.4123C-182.508 10.7463 -189.087 -3.88874 -196.881 -19.1004C-201.241 -28.0551 -206.32 -36.6559 -212.081 -44.8391C-218.242 -53.1455 -224.357 -58.4628 -230.834 -61.0214C-234.574 -62.5896 -238.86 -63.0399 -243.131 -62.3132C-244.391 -62.0643 -245.627 -61.675 -246.811 -61.1543C-248.494 -60.4649 -250.006 -59.4262 -251.217 -58.1284C-252.425 -56.7029 -253.389 -55.1298 -254.071 -53.4706C-254.683 -51.9962 -255.491 -50.5807 -256.478 -49.2584C-260.387 -44.4006 -268.927 -42.2183 -278.929 -39.6108C-283.73 -38.3591 -288.703 -37.1015 -293.589 -35.3736C-301.599 -32.5404 -305.972 -28.1765 -310.601 -23.6007C-312.7 -21.4299 -314.912 -19.3508 -317.229 -17.3719C-325.924 -10.1026 -331.121 -7.83576 -341.443 -5.07364C-357.302 -0.744155 -370.248 5.41054 -380.045 13.4915L-379.69 14.3191C-369.968 6.28752 -357.095 0.0967919 -341.212 -4.17561C-331.161 -6.80419 -325.561 -9.21083 -316.575 -16.7061C-314.228 -18.6925 -311.988 -20.7835 -309.866 -22.97C-305.155 -27.7161 -301.076 -31.8185 -293.244 -34.5247C-288.4 -36.2172 -283.456 -37.4964 -278.688 -38.734C-268.555 -41.3977 -259.79 -43.6427 -255.661 -48.798C-254.626 -50.1989 -253.782 -51.698 -253.148 -53.2586C-252.538 -54.8553 -251.657 -56.3761 -250.537 -57.7614C-248.543 -59.7785 -245.875 -61.1292 -243.038 -61.5583C-238.967 -62.2284 -234.888 -61.7923 -231.319 -60.3056C-225.006 -57.8121 -219.001 -52.6164 -212.901 -44.4527C-207.166 -36.3087 -202.106 -27.7511 -197.757 -18.8425C-189.967 -3.59523 -183.419 10.9684 -178.2 24.5989C-174.756 33.6501 -171.905 42.534 -169.155 51.1398L-167.935 54.9258C-164.647 65.6918 -160.605 76.1947 -155.833 86.374L-155.729 86.6166C-152.749 92.7403 -149.042 100.377 -140.357 102.088C-135.122 103.002 -129.527 102.236 -124.481 99.9147C-118.355 97.1913 -112.934 93.164 -108.718 88.2054C-106.124 84.9336 -103.824 81.4907 -101.844 77.9149C-99.7261 74.1023 -97.2547 70.4379 -94.4589 66.9657C-93.1949 65.5226 -91.8545 64.1341 -90.4433 62.8059C-88.7374 61.1939 -87.0886 59.674 -85.4091 58.3607C-82.7474 56.2059 -80.272 53.8641 -78.0101 51.3609C-72.7338 45.2733 -69.5227 36.5402 -66.4055 28.0841C-64.4595 22.3122 -62.054 16.6395 -59.2094 11.1136C-57.8738 8.70622 -56.2632 6.41545 -54.4071 4.28307C-49.2308 -1.67705 -43.1918 -5.26939 -36.1792 -9.4322C-33.6383 -10.9466 -30.9994 -12.5032 -28.2585 -14.2726C-24.8381 -16.4862 -21.4585 -18.885 -18.2178 -21.2918C-15.3403 -23.3735 -12.2995 -25.5253 -9.37915 -27.5071C4.00873 -36.3703 17.4003 -41.9388 29.8756 -46.6234L30.7737 -47.0093C34.4957 -48.3235 38.1427 -49.8511 41.6914 -51.5823C46.9128 -54.0781 51.4212 -57.7692 54.7273 -62.2551C59.5541 -69.0286 60.8951 -77.8371 61.8259 -86.2497L62.2324 -89.8052C62.8887 -96.0206 63.547 -102.457 64.8159 -108.462C67.3551 -119.858 72.0262 -130.956 78.6185 -141.254C84.6381 -151.058 90.6318 -159.618 103.056 -165.007L103.17 -165.056C111.628 -168.691 121.017 -169.26 130.116 -169.873C137.785 -170.346 145.698 -170.839 152.93 -173.186C158.489 -174.921 163.713 -177.636 168.287 -181.168C172.86 -184.699 176.688 -188.973 179.539 -193.731C185.884 -205.028 182.465 -216.271 179.173 -227.128C177.298 -233.338 175.374 -239.662 175.224 -246.088L174.121 -245.412Z" fill="url(#paint20_linear)"/>
<path d="M149.152 -234.682C150.287 -231.367 151.665 -228.071 153.03 -224.803C157.715 -213.901 162.395 -202.558 157.122 -191.063C153.333 -182.774 145.272 -175.558 134.838 -171.345C127.79 -168.435 120.119 -167.336 111.931 -166.133C104.386 -165.055 96.5882 -163.935 89.3871 -161.247C77.1118 -156.682 69.0536 -149.281 62.1998 -141.957C53.9673 -133.518 48.1089 -123.463 45.2106 -112.8C43.6834 -106.411 42.6671 -99.9741 42.1702 -93.5412L42.0503 -92.4247C41.2233 -84.4456 40.1615 -76.7882 36.4285 -70.7552C33.8486 -66.6087 30.0961 -63.1028 25.6074 -60.6453C22.2293 -58.797 18.6761 -57.2702 15.0102 -56.0916C11.2198 -54.784 7.4293 -53.6117 3.75925 -52.4741C-5.52818 -49.5989 -14.3176 -46.8702 -22.9487 -42.0626C-28.5611 -38.7657 -33.9249 -35.0987 -38.9915 -31.095L-40.3507 -30.0714C-49.936 -22.8929 -56.601 -17.5609 -61.8109 -9.33815C-63.2001 -7.12353 -64.3783 -4.81811 -65.3311 -2.44999C-67.3775 2.93619 -69.0603 8.40189 -70.3695 13.9146C-72.4236 21.5588 -74.5019 29.5517 -78.1654 35.6562C-80.3335 39.0861 -82.8073 42.3662 -85.559 45.4597L-87.5748 47.8811L-88.1869 48.6174C-89.0785 49.6936 -90.0231 50.8264 -90.9759 52.0303C-92.7896 54.3817 -94.4522 56.9049 -96.0924 59.3001C-98.6646 63.3941 -101.671 67.2748 -105.063 70.8801C-112.242 77.9879 -123.971 83.8227 -133.941 80.7874C-141.998 78.3331 -145.107 70.8281 -147.81 62.6923C-151.506 50.918 -154.386 38.8783 -156.435 26.6399L-157.152 22.7217C-158.959 12.7981 -160.814 2.5398 -163.412 -7.7373C-167.43 -23.9201 -173.14 -39.5758 -180.469 -54.5008C-184.826 -63.7459 -190.302 -72.4432 -196.802 -80.4457C-198.026 -81.8977 -199.249 -83.2145 -200.464 -84.4672L-201.444 -84.0462C-200.149 -82.7432 -198.869 -81.3834 -197.598 -79.867C-191.143 -71.9098 -185.699 -63.2684 -181.355 -54.0864C-174.069 -39.2104 -168.383 -23.613 -164.371 -7.49409C-161.779 2.76874 -159.931 13.0128 -158.113 22.9151L-157.397 26.8333C-155.35 39.1102 -152.461 51.1861 -148.745 62.9926C-146.529 69.6809 -143.491 78.8221 -134.345 81.6033C-128.755 83.128 -122.514 82.522 -116.965 79.916C-112.253 77.8556 -107.97 74.9615 -104.387 71.4179C-100.952 67.7615 -97.9032 63.829 -95.2899 59.6821C-93.6661 57.294 -91.9912 54.7994 -90.2224 52.4334C-89.2921 51.2222 -88.3576 50.1107 -87.466 49.0345L-86.8539 48.2982L-84.8483 45.8981C-82.0712 42.7453 -79.5705 39.4088 -77.3732 35.9243C-73.6261 29.6993 -71.515 21.6925 -69.4223 13.9132C-68.1187 8.43887 -66.4455 3.01124 -64.4123 -2.33764C-63.4723 -4.65279 -62.3183 -6.90783 -60.9635 -9.07682C-55.8474 -17.1579 -49.2846 -22.4122 -39.7522 -29.5341L-38.3992 -30.5719C-33.3743 -34.4831 -28.0673 -38.0689 -22.5237 -41.2985C-13.9844 -46.0498 -5.24807 -48.722 3.9883 -51.6259C7.65836 -52.7635 11.4652 -53.9428 15.2883 -55.2645C19.0196 -56.4538 22.6342 -58.007 26.0651 -59.8953C30.7061 -62.4477 34.5908 -66.0734 37.2759 -70.3587C41.1068 -76.5689 42.1931 -84.3045 43.0261 -92.4046L43.1399 -93.5353C43.6278 -99.9254 44.6366 -106.32 46.1579 -112.666C49.0654 -123.161 54.8739 -133.047 63.0065 -141.34C69.7705 -148.558 77.694 -155.867 89.7734 -160.348C96.8541 -163.002 104.597 -164.114 112.087 -165.186C119.923 -166.305 128.03 -167.472 135.208 -170.439C145.759 -174.786 154.131 -182.221 158.032 -190.744C163.483 -202.637 158.566 -214.081 153.944 -225.196C152.546 -228.449 151.136 -231.731 150.067 -235.075L149.152 -234.682Z" fill="url(#paint21_linear)"/>
<path d="M127.795 -225.505L126.88 -225.112C127.181 -224.413 127.608 -223.734 127.961 -223.092C133.871 -211.905 139.979 -200.347 135.728 -188.226C133.019 -180.486 126.443 -173.552 117.209 -168.706C109.413 -164.612 100.055 -162.484 91.0003 -160.419C86.138 -159.31 81.1001 -158.159 76.3625 -156.715C65.8285 -153.565 55.8417 -148.701 46.9148 -142.371C36.5149 -135.062 29.9188 -126.869 26.7245 -117.332C24.9027 -111.235 23.7834 -105.042 23.3856 -98.8576C22.6786 -91.9949 21.9594 -84.8904 19.0246 -79.1159C17.0807 -75.1442 13.9423 -71.6725 10.004 -69.1373C7.08297 -67.2868 3.89604 -65.8545 0.568247 -64.8968C-4.48266 -63.447 -9.60789 -62.3295 -14.7659 -61.5532C-21.8064 -60.3366 -29.0613 -59.0786 -35.8886 -56.0604C-41.7775 -53.3188 -47.1775 -49.6757 -51.8295 -45.3057C-59.1747 -38.8956 -64.8456 -31.0829 -68.3421 -22.5568C-69.2445 -20.3344 -69.9855 -18.0732 -70.5599 -15.7888C-71.8293 -10.73 -72.5962 -5.31225 -73.3428 -0.0723203C-74.0666 6.77767 -75.4876 13.6135 -77.5872 20.3461C-79.238 24.8596 -81.3999 29.2455 -84.0359 33.4287C-84.8763 34.804 -85.8106 36.186 -86.6879 37.4757C-90.721 43.3503 -95.052 49.5219 -100.611 53.8715C-107.639 59.5286 -118.487 64.1732 -127.799 60.1956C-135.852 56.7592 -138.786 48.131 -140.66 39.2673C-143.289 25.8876 -145.014 12.2967 -145.827 -1.43212L-146.092 -4.885C-146.939 -16.354 -147.794 -28.1576 -149.503 -39.8311C-151.841 -57.214 -156.714 -74.0169 -163.996 -89.8097C-165.414 -92.7501 -166.869 -95.5057 -168.422 -98.2193L-169.336 -97.8264C-167.783 -95.1128 -166.328 -92.3572 -164.922 -89.4453C-157.666 -73.726 -152.819 -56.9962 -150.505 -39.6878C-148.786 -28.0355 -147.925 -16.2177 -147.113 -4.78448L-146.848 -1.3316C-146.036 12.4515 -144.301 26.0952 -141.652 39.5245C-139.698 48.5738 -136.738 57.4441 -128.345 61.039C-125.43 62.193 -122.203 62.7085 -118.902 62.5476C-115.6 62.3867 -112.307 61.5535 -109.266 60.1093C-105.953 58.6401 -102.856 56.7394 -100.082 54.4724C-94.4639 49.9453 -90.0328 43.7814 -85.9527 37.836C-85.0592 36.5392 -84.1147 35.136 -83.2641 33.7393C-80.595 29.5019 -78.3986 25.0621 -76.7113 20.4937C-74.6011 13.6992 -73.1681 6.80214 -72.4303 -0.109451C-71.6877 -5.31383 -70.931 -10.7103 -69.6657 -15.7335C-69.106 -17.9775 -68.38 -20.1986 -67.4928 -22.3809C-64.0558 -30.7673 -58.4735 -38.45 -51.2413 -44.747C-46.6817 -49.0415 -41.3859 -52.6228 -35.6086 -55.3186C-28.8975 -58.2024 -21.7366 -59.589 -14.7267 -60.7418C-9.51493 -61.5245 -4.33636 -62.6536 0.766676 -64.1199C4.19724 -65.1089 7.48168 -66.5888 10.4902 -68.501C14.5651 -71.1243 17.8199 -74.7092 19.8515 -78.812C22.8516 -84.7498 23.5789 -91.9254 24.292 -98.9089C24.6719 -105.035 25.7638 -111.171 27.5493 -117.213C30.7723 -126.593 37.2746 -134.645 47.4479 -141.805C56.2767 -148.068 66.1519 -152.884 76.569 -156.009C81.274 -157.439 86.2792 -158.576 91.1252 -159.678C100.246 -161.771 109.674 -163.913 117.612 -168.084C127.084 -173.05 133.864 -180.139 136.653 -188.099C140.979 -200.54 134.83 -212.283 128.837 -223.62C128.522 -224.127 128.148 -224.862 127.795 -225.505Z" fill="url(#paint22_linear)"/>
<path d="M106.029 -216.152C111.97 -206.331 116.918 -196.168 114.316 -185.431C110.604 -170.076 93.4222 -158.924 63.2562 -152.283C40.847 -147.353 16.2502 -140.537 8.11193 -121.708C5.60375 -115.93 4.99043 -109.48 4.44641 -103.228C3.50414 -93.2219 2.56972 -83.8274 -5.61973 -77.5867C-12.4685 -72.4125 -20.9998 -72.2794 -30.0416 -72.1638C-36.3314 -72.0811 -42.8417 -71.9714 -48.8612 -70.0441C-66.8031 -64.2614 -74.5877 -44.3841 -75.7662 -29.1203C-76.1618 -24.0989 -76.1654 -18.9754 -76.1589 -14.0084C-76.1473 -3.04255 -76.1478 8.30036 -80.4745 18.9836C-82.4854 23.6969 -85.5624 28.0525 -89.491 31.7464C-93.4195 35.4402 -98.105 38.3835 -103.221 40.3708C-106.28 41.5816 -109.54 42.1449 -112.737 42.0155C-115.934 41.886 -118.979 41.0672 -121.627 39.6253C-130.065 34.799 -132.381 24.367 -133.445 15.8142C-135.53 -0.921043 -135.33 -18.2828 -135.134 -35.0683C-134.995 -47.2144 -134.852 -59.8018 -135.561 -72.0741C-136.207 -84.8914 -138.283 -97.4896 -141.757 -109.677L-142.655 -109.291C-139.24 -97.1683 -137.208 -84.6426 -136.59 -71.9024C-135.877 -59.6657 -136.016 -47.1139 -136.163 -34.8967C-136.363 -18.0757 -136.556 -0.699589 -134.47 16.0855C-133.387 24.8163 -131.018 35.4621 -122.245 40.4825C-119.488 42.0112 -116.305 42.8805 -112.959 43.0184C-109.613 43.1564 -106.201 42.559 -103.006 41.2758C-102.353 40.9952 -101.683 40.7075 -101.014 40.4198C-96.2074 38.2576 -91.8386 35.2682 -88.1712 31.6324C-84.5038 27.9965 -81.6139 23.7897 -79.6762 19.2659C-75.278 8.43375 -75.2817 -3.0088 -75.2851 -14.0457C-75.3019 -18.9914 -75.3228 -24.172 -74.9068 -29.1009C-73.722 -44.0799 -66.1699 -63.5531 -48.6729 -69.1107C-42.829 -70.9964 -36.3595 -71.021 -30.2167 -71.1757C-21.4138 -71.3071 -12.2904 -71.4578 -5.17433 -76.8653C3.40493 -83.3241 4.3229 -92.9821 5.29571 -103.188C5.87652 -109.354 6.4817 -115.733 8.92871 -121.382C16.8814 -139.743 41.1659 -146.476 63.3118 -151.344C93.9167 -158.088 111.376 -169.495 115.188 -185.248C117.845 -196.262 112.864 -206.546 106.857 -216.474L106.029 -216.152Z" fill="url(#paint23_linear)"/>
<path d="M491.259 -79.6101C459.201 -64.499 446.534 -26.4985 441.59 3.63606C441.195 6.00327 440.817 8.3635 440.434 10.7593C435.305 42.8496 430.03 76.0847 403.632 97.5706C378.348 118.138 343.165 119.632 309.134 121.104C273.045 122.648 235.685 124.249 210.88 149.04C199.619 160.286 193.354 174.472 187.308 188.176C183.109 197.672 178.774 207.48 172.807 216.282C142.419 261.119 84.891 268.276 44.2107 269.85C40.0542 269.945 35.657 270.381 31.0577 270.751C19.2624 271.797 5.91559 272.968 -4.92415 270.205C-11.078 268.623 -16.819 264.041 -22.3496 259.588C-30.1084 253.371 -38.1082 246.954 -47.7515 248.325C-53.7666 249.208 -59.6894 250.904 -65.3203 253.356C-84.2614 261.495 -100.124 277.203 -113.591 292.321L-117.067 296.249C-133.462 314.772 -150.401 333.917 -173.847 342.42C-191.291 348.732 -210.085 348.12 -228.243 347.504C-231.06 347.339 -233.87 347.223 -236.672 347.153L-235.9 348.951C-233.454 349.016 -231.002 349.095 -228.583 349.188C-210.234 349.755 -191.292 350.44 -173.363 343.953C-149.367 335.332 -132.257 315.91 -115.677 297.19L-112.194 293.276C-95.0139 274.06 -73.9679 253.759 -47.6282 249.963C-38.8443 248.707 -31.498 254.594 -23.6229 260.812C-17.9493 265.372 -12.0756 270.083 -5.53583 271.752C5.63468 274.61 19.1856 273.419 31.136 272.374C35.7945 271.962 40.1775 271.583 44.2706 271.43C68.5702 270.539 98.8463 267.621 125.952 255.974C145.9 247.748 162.989 234.055 174.63 216.969C180.691 208.025 185.067 198.132 189.291 188.558C195.272 175.018 201.461 161.016 212.445 150.024C236.594 125.87 271.848 124.363 309.17 122.762C343.566 121.285 379.135 119.744 404.998 98.7246C431.993 76.7798 437.585 41.7178 442.535 10.7863L443.681 3.68439C448.539 -25.9739 460.906 -63.3216 492.109 -78.0821L491.259 -79.6101Z" fill="url(#paint24_linear)"/>
<path d="M403.302 -284.304C403.595 -281.338 403.55 -278.322 403.165 -275.303C399.885 -250.076 373.808 -231.669 349.611 -216.403C330.349 -204.239 312.834 -194.177 293.779 -194.272C282.597 -194.318 271.186 -197.917 260.156 -201.393C241.228 -207.358 223.327 -213.003 207.375 -201.466C187.236 -186.93 193.361 -161.061 200.663 -137.947C211.009 -105.061 214.231 -70.0736 210.158 -34.8208C208.664 -22.0923 205.389 -6.21515 193.278 3.63782C185.587 9.86725 176.058 12.5417 165.944 15.3834C158.84 17.0972 151.892 19.5157 145.23 22.5937C127.753 31.4391 117.087 48.2105 106.716 64.3646C94.8025 83.0071 83.5809 100.558 62.9995 106.68C52.4812 109.797 41.4035 108.911 30.7097 108.063C19.6545 107.185 8.21548 106.268 -2.81717 109.673C-19.6366 114.872 -31.4501 128.57 -42.7963 141.779C-54.9261 155.866 -66.3846 169.174 -83.4821 173.411C-89.2273 174.624 -95.0387 175.285 -100.818 175.383C-110.962 175.905 -121.465 176.445 -129.628 182.793C-138.652 189.882 -140.602 200.559 -142.418 210.873C-143.089 215.086 -144.03 219.284 -145.237 223.444C-150.594 240.554 -167.004 256.294 -189.252 265.651C-209.409 274.11 -231.187 276.774 -252.248 279.35C-256.437 279.865 -260.783 280.329 -265.204 280.708L-264.475 282.406C-260.329 282.061 -256.203 281.624 -252.218 281.129C-231.008 278.54 -209.072 275.841 -188.53 267.285L-187.681 266.92C-165.327 257.315 -148.77 241.241 -143.322 223.804C-142.135 219.562 -141.215 215.283 -140.568 210.991C-138.681 200.528 -136.885 190.662 -128.459 184.116C-120.86 178.214 -111.169 177.718 -100.915 177.183C-94.99 177.07 -89.0335 176.386 -83.1444 175.142C-65.3508 170.725 -53.1313 156.531 -41.33 142.806C-30.1408 129.816 -18.5824 116.38 -2.37534 111.377C8.26335 108.09 19.4798 108.984 30.3513 109.84C41.2227 110.696 52.5229 111.605 63.4352 108.369C84.7066 102.052 96.7156 83.3176 108.323 65.1785C118.524 49.2155 129.097 32.7211 145.999 24.1568C152.519 21.1325 159.319 18.7491 166.273 17.0505C176.169 14.2858 186.394 11.4306 194.44 4.94713C207.115 -5.35073 210.52 -21.6896 212.067 -34.7452C216.205 -70.2508 212.992 -105.495 202.596 -138.625C195.462 -161.169 189.47 -186.368 208.543 -200.142C223.614 -211.03 241.037 -205.552 259.438 -199.732C270.619 -196.22 282.143 -192.585 293.665 -192.465C314.981 -192.378 335.608 -205.416 350.702 -214.945C375.292 -230.465 401.755 -249.189 405.184 -275.241C405.365 -276.621 405.475 -277.986 405.519 -279.324L403.302 -284.304Z" fill="url(#paint25_linear)"/>
<path d="M105.539 -215.941C111.44 -206.171 116.389 -196.093 113.816 -185.47C110.116 -170.357 93.1077 -159.296 63.1559 -152.697C40.6202 -147.746 15.8724 -140.831 7.61987 -121.817C5.09742 -115.983 4.48003 -109.497 3.88704 -103.225C2.94063 -93.3179 2.05925 -83.9799 -5.97719 -77.9234C-12.681 -72.8621 -21.1512 -72.7216 -30.0888 -72.6337C-36.4276 -72.5301 -42.9768 -72.4205 -49.0615 -70.4652C-67.2831 -64.613 -75.1533 -44.5299 -76.3644 -29.1169C-76.7539 -24.0811 -76.7514 -18.9434 -76.7611 -13.9693C-76.7455 -3.03908 -76.7419 8.26825 -81.0503 18.8591C-83.0261 23.5104 -86.0574 27.8092 -89.9314 31.4538C-93.8055 35.0984 -98.4285 38.0005 -103.476 39.9565C-106.463 41.1427 -109.647 41.6949 -112.77 41.5683C-115.892 41.4417 -118.866 40.6399 -121.45 39.2278C-129.751 34.4949 -132.034 24.1841 -133.078 15.724C-135.15 -0.982777 -134.961 -18.3233 -134.765 -35.1087C-134.632 -47.2692 -134.483 -59.8422 -135.191 -72.1145C-135.81 -84.9804 -137.856 -97.6302 -141.3 -109.874L-143.129 -109.088C-139.735 -97.0072 -137.716 -84.5272 -137.102 -71.8344C-136.373 -59.6047 -136.512 -47.0529 -136.675 -34.8286C-136.875 -18.0076 -137.073 -0.596002 -134.974 16.2177C-133.877 25.0268 -131.475 35.7937 -122.572 40.8932C-119.749 42.4576 -116.491 43.3476 -113.066 43.4898C-109.642 43.6319 -106.149 43.0221 -102.877 41.7107C-102.207 41.423 -101.538 41.1353 -100.869 40.8476C-95.9757 38.6607 -91.527 35.6279 -87.7934 31.934C-84.0598 28.2402 -81.1195 23.9625 -79.1515 19.3616C-74.6697 8.40897 -74.7448 -3.01977 -74.6911 -14.1489C-74.7018 -19.0803 -74.6921 -24.1895 -74.3107 -29.1542C-73.1422 -43.991 -65.7534 -63.2588 -48.4605 -68.7963C-42.688 -70.6683 -36.3043 -70.7574 -30.1206 -70.862C-21.2238 -71 -12.0167 -71.136 -4.75167 -76.692C4.01535 -83.2991 4.96163 -93.4763 5.90397 -103.348C6.48071 -109.478 7.08186 -115.822 9.49827 -121.407C17.3552 -139.541 41.5028 -146.232 63.5058 -151.072C94.3251 -157.858 111.923 -169.392 115.776 -185.366C118.437 -196.415 113.366 -206.728 107.417 -216.748L105.539 -215.941Z" fill="url(#paint26_linear)"/>
<defs>
<linearGradient id="paint0_linear" x1="124.639" y1="-125.155" x2="354.928" y2="403.239" gradientUnits="userSpaceOnUse">
<stop offset="0.145966" stop-color="#53FFE0"/>
<stop offset="1" stop-color="#32CEFF"/>
</linearGradient>
<linearGradient id="paint1_linear" x1="106.865" y1="86.0731" x2="171.296" y2="236.016" gradientUnits="userSpaceOnUse">
<stop stop-color="#558FFF"/>
<stop offset="0.523958" stop-color="#53FFE0"/>
<stop offset="1" stop-color="white"/>
</linearGradient>
<linearGradient id="paint2_linear" x1="99.0739" y1="68.0331" x2="165.499" y2="222.617" gradientUnits="userSpaceOnUse">
<stop stop-color="#558FFF"/>
<stop offset="0.523958" stop-color="#53FFE0"/>
<stop offset="1" stop-color="white"/>
</linearGradient>
<linearGradient id="paint3_linear" x1="81.0974" y1="26.2663" x2="159.674" y2="209.128" gradientUnits="userSpaceOnUse">
<stop stop-color="#558FFF"/>
<stop offset="0.523958" stop-color="#53FFE0"/>
<stop offset="1" stop-color="white"/>
</linearGradient>
<linearGradient id="paint4_linear" x1="67.8654" y1="-4.59452" x2="153.978" y2="195.804" gradientUnits="userSpaceOnUse">
<stop stop-color="#558FFF"/>
<stop offset="0.523958" stop-color="#53FFE0"/>
<stop offset="1" stop-color="white"/>
</linearGradient>
<linearGradient id="paint5_linear" x1="61.4769" y1="-19.2607" x2="148.117" y2="182.365" gradientUnits="userSpaceOnUse">
<stop stop-color="#558FFF"/>
<stop offset="0.523958" stop-color="#53FFE0"/>
<stop offset="1" stop-color="white"/>
</linearGradient>
<linearGradient id="paint6_linear" x1="57.4071" y1="-28.9778" x2="142.43" y2="168.885" gradientUnits="userSpaceOnUse">
<stop stop-color="#558FFF"/>
<stop offset="0.523958" stop-color="#53FFE0"/>
<stop offset="1" stop-color="white"/>
</linearGradient>
<linearGradient id="paint7_linear" x1="52.9678" y1="-39.1963" x2="136.681" y2="155.618" gradientUnits="userSpaceOnUse">
<stop stop-color="#558FFF"/>
<stop offset="0.523958" stop-color="#53FFE0"/>
<stop offset="1" stop-color="white"/>
</linearGradient>
<linearGradient id="paint8_linear" x1="47.7053" y1="-51.4432" x2="133.026" y2="147.114" gradientUnits="userSpaceOnUse">
<stop stop-color="#558FFF"/>
<stop offset="0.523958" stop-color="#53FFE0"/>
<stop offset="1" stop-color="white"/>
</linearGradient>
<linearGradient id="paint9_linear" x1="41.0609" y1="-66.9058" x2="131.052" y2="142.519" gradientUnits="userSpaceOnUse">
<stop stop-color="#558FFF"/>
<stop offset="0.523958" stop-color="#53FFE0"/>
<stop offset="1" stop-color="white"/>
</linearGradient>
<linearGradient id="paint10_linear" x1="33.6388" y1="-84.3134" x2="129.445" y2="138.645" gradientUnits="userSpaceOnUse">
<stop stop-color="#558FFF"/>
<stop offset="0.523958" stop-color="#53FFE0"/>
<stop offset="1" stop-color="white"/>
</linearGradient>
<linearGradient id="paint11_linear" x1="25.841" y1="-102.325" x2="127.839" y2="135.042" gradientUnits="userSpaceOnUse">
<stop stop-color="#558FFF"/>
<stop offset="0.523958" stop-color="#53FFE0"/>
<stop offset="1" stop-color="white"/>
</linearGradient>
<linearGradient id="paint12_linear" x1="18.1081" y1="-120.616" x2="126.437" y2="131.485" gradientUnits="userSpaceOnUse">
<stop stop-color="#558FFF"/>
<stop offset="0.523958" stop-color="#53FFE0"/>
<stop offset="1" stop-color="white"/>
</linearGradient>
<linearGradient id="paint13_linear" x1="-11.2731" y1="-165.745" x2="111.512" y2="119.999" gradientUnits="userSpaceOnUse">
<stop stop-color="#558FFF"/>
<stop offset="0.523958" stop-color="#53FFE0"/>
<stop offset="1" stop-color="white"/>
</linearGradient>
<linearGradient id="paint14_linear" x1="-20.7566" y1="-161.669" x2="95.6769" y2="109.292" gradientUnits="userSpaceOnUse">
<stop stop-color="#558FFF"/>
<stop offset="0.523958" stop-color="#53FFE0"/>
<stop offset="1" stop-color="white"/>
</linearGradient>
<linearGradient id="paint15_linear" x1="-29.7249" y1="-157.816" x2="80.3867" y2="98.4337" gradientUnits="userSpaceOnUse">
<stop stop-color="#558FFF"/>
<stop offset="0.523958" stop-color="#53FFE0"/>
<stop offset="1" stop-color="white"/>
</linearGradient>
<linearGradient id="paint16_linear" x1="-39.5226" y1="-153.606" x2="64.255" y2="87.9035" gradientUnits="userSpaceOnUse">
<stop stop-color="#558FFF"/>
<stop offset="0.523958" stop-color="#53FFE0"/>
<stop offset="1" stop-color="white"/>
</linearGradient>
<linearGradient id="paint17_linear" x1="-51.7854" y1="-148.336" x2="45.7074" y2="78.5471" gradientUnits="userSpaceOnUse">
<stop stop-color="#558FFF"/>
<stop offset="0.523958" stop-color="#53FFE0"/>
<stop offset="1" stop-color="white"/>
</linearGradient>
<linearGradient id="paint18_linear" x1="-70.8572" y1="-140.141" x2="20.3577" y2="72.1323" gradientUnits="userSpaceOnUse">
<stop stop-color="#558FFF"/>
<stop offset="0.523958" stop-color="#53FFE0"/>
<stop offset="1" stop-color="white"/>
</linearGradient>
<linearGradient id="paint19_linear" x1="-91.0186" y1="-131.511" x2="-6.03299" y2="66.2654" gradientUnits="userSpaceOnUse">
<stop stop-color="#558FFF"/>
<stop offset="0.523958" stop-color="#53FFE0"/>
<stop offset="1" stop-color="white"/>
</linearGradient>
<linearGradient id="paint20_linear" x1="-106.216" y1="-125.152" x2="-27.4207" y2="58.2172" gradientUnits="userSpaceOnUse">
<stop stop-color="#558FFF"/>
<stop offset="0.523958" stop-color="#53FFE0"/>
<stop offset="1" stop-color="white"/>
</linearGradient>
<linearGradient id="paint21_linear" x1="-30.2897" y1="-157.592" x2="42.3574" y2="11.4706" gradientUnits="userSpaceOnUse">
<stop stop-color="#558FFF"/>
<stop offset="0.523958" stop-color="#53FFE0"/>
<stop offset="1" stop-color="white"/>
</linearGradient>
<linearGradient id="paint22_linear" x1="-34.1771" y1="-155.905" x2="32.4807" y2="-0.7802" gradientUnits="userSpaceOnUse">
<stop stop-color="#558FFF"/>
<stop offset="0.523958" stop-color="#53FFE0"/>
<stop offset="1" stop-color="white"/>
</linearGradient>
<linearGradient id="paint23_linear" x1="-37.8256" y1="-154.337" x2="22.9694" y2="-12.8563" gradientUnits="userSpaceOnUse">
<stop stop-color="#558FFF"/>
<stop offset="0.523958" stop-color="#53FFE0"/>
<stop offset="1" stop-color="white"/>
</linearGradient>
<linearGradient id="paint24_linear" x1="106.705" y1="85.6346" x2="171.497" y2="236.416" gradientUnits="userSpaceOnUse">
<stop stop-color="#558FFF"/>
<stop offset="0.523958" stop-color="#53FFE0"/>
<stop offset="1" stop-color="white"/>
</linearGradient>
<linearGradient id="paint25_linear" x1="17.8703" y1="-120.989" x2="126.538" y2="131.899" gradientUnits="userSpaceOnUse">
<stop stop-color="#558FFF"/>
<stop offset="0.523958" stop-color="#53FFE0"/>
<stop offset="1" stop-color="white"/>
</linearGradient>
<linearGradient id="paint26_linear" x1="-37.8034" y1="-154.347" x2="23.1693" y2="-12.452" gradientUnits="userSpaceOnUse">
<stop stop-color="#558FFF"/>
<stop offset="0.523958" stop-color="#53FFE0"/>
<stop offset="1" stop-color="white"/>
</linearGradient>
</defs>
</svg>
