<svg width="414" height="896" viewBox="0 0 414 896" fill="none" xmlns="http://www.w3.org/2000/svg">
<path d="M618.954 925.557C538.514 1055.14 254.838 1117.77 247.618 1118.07C136.514 1137.58 116.01 1007.1 96.5 896C128.031 869.636 148.5 861 189.5 854C206.349 851.123 218 847.5 238 837.5C300.211 796.835 295.168 707.779 322.5 643C340.201 601.048 373.5 568.501 445 568.5C516.5 568.5 644.329 811.466 618.954 925.557Z" fill="url(#paint0_linear)"/>
<path style="mix-blend-mode:screen" opacity="0.7" d="M616.13 528.106C588.123 566.014 534.564 572.356 493.425 570.741C490.206 570.613 486.939 570.481 483.667 570.317C439.541 568.385 393.924 566.385 358.528 595.543C324.616 623.468 313.73 669.581 303.222 714.166C292.05 761.294 280.632 809.867 241.7 835.653C224.006 847.38 203.626 851.762 183.916 856.026C170.206 858.978 156.033 862.045 142.723 867.52C75.0995 895.6 51.0173 969.782 38.7529 1023.11C37.5817 1028.56 35.88 1034.23 34.2318 1040.2C29.8688 1055.52 24.9353 1072.87 25.9024 1088C26.4646 1096.69 31.1604 1105.56 35.7232 1114.13C41.9806 1125.88 48.4526 1138.07 44.3666 1150.17C41.7021 1157.81 37.9878 1165.1 33.3487 1171.81C17.8261 1194.48 -6.96232 1211.06 -30.3942 1224.66L-36.509 1228.2C-65.3545 1244.83 -95.1926 1262.05 -112.457 1290.82C-125.32 1312.23 -129.235 1337.23 -132.998 1361.4C-133.548 1364.98 -134.111 1368.57 -134.709 1372.14L-135.808 1371.39C-135.248 1368.02 -134.732 1364.69 -134.216 1361.35C-130.389 1337.04 -126.482 1311.87 -113.475 1290.21C-96.0087 1261.15 -66.0241 1243.82 -36.9489 1227.12L-30.8475 1223.6C-0.768825 1206.14 31.5658 1183.73 43.2655 1149.91C47.2345 1138.39 40.8912 1126.46 34.7546 1114.91C30.1313 1106.23 25.3752 1097.27 24.7769 1088.3C23.7776 1072.91 28.7434 1055.44 33.1253 1040.01C34.8447 1033.98 36.4632 1028.29 37.6813 1022.95C44.9603 991.207 56.4115 952.17 78.6539 919.685C94.0287 897.231 114.539 877.946 142.474 866.312C155.855 860.77 170.09 857.688 183.862 854.721C203.448 850.487 223.687 846.124 241.243 834.561C279.744 809.029 290.596 762.893 302.129 713.965C312.718 669.148 323.569 622.752 357.941 594.565C393.742 565.078 439.614 567.081 483.951 569.041L493.722 569.446C534.562 571.087 587.605 564.824 615.262 527.426L616.13 528.106Z" fill="url(#paint1_linear)"/>
<path style="mix-blend-mode:screen" opacity="0.7" d="M637.928 543.031C635.177 546.431 632.698 550.051 630.523 553.846C629.458 555.625 628.357 557.495 627.209 559.246C610.545 584.969 580.269 599.499 537.295 602.249C525.818 602.928 514.388 602.881 503.068 602.108L495.467 601.603C454.246 598.836 407.512 595.696 372.144 622.192C363.509 628.691 355.845 636.567 349.482 645.481C333.502 667.434 324.505 694.688 317.104 720.959C315.328 727.297 313.589 733.804 311.92 740.099C305.461 764.507 298.673 789.958 287.056 810.892C278.957 826.227 267.156 839.366 252.969 848.845C235.76 860.127 216.013 864.596 196.901 868.923C183.506 871.975 169.622 875.068 156.774 880.542C136.459 888.966 118.193 902.921 104.039 920.834C78.4842 952.954 66.4711 995.469 57.2232 1032.79C55.7833 1038.63 53.767 1044.83 51.8057 1051.22C47.2039 1065.91 42.4421 1081.1 42.4229 1094.87C42.4147 1103.08 46.1222 1111.45 49.7279 1119.51C54.6641 1130.64 59.8285 1142.19 55.2888 1153.62C52.6159 1160.36 49.1631 1166.81 45.0135 1172.82C37.669 1183.21 29.059 1192.62 19.439 1200.77C8.14651 1210.4 -3.76692 1219.16 -16.1892 1226.97C-20.2014 1229.59 -24.2576 1232.19 -28.3575 1234.79C-35.7099 1239.5 -43.3013 1244.33 -50.7276 1249.34C-67.1816 1260.41 -83.9976 1273.03 -95.7169 1290.15L-95.8647 1290.36C-100.186 1296.77 -103.81 1303.61 -106.66 1310.73C-112.661 1325.45 -116.051 1341.78 -119.307 1357.54C-120.781 1364.75 -122.283 1372.11 -124.116 1379.51L-125.233 1378.74C-123.482 1371.58 -121.973 1364.4 -120.518 1357.29C-117.24 1341.46 -113.84 1325.08 -107.789 1310.25C-104.932 1303.04 -101.286 1296.11 -96.9293 1289.63L-96.7814 1289.42C-84.9278 1272.11 -67.9653 1259.39 -51.4092 1248.24C-43.9695 1243.21 -36.3646 1238.36 -28.9948 1233.66C-24.911 1231.06 -20.8446 1228.46 -16.8399 1225.86C-4.49466 1218.06 7.34589 1209.32 18.572 1199.72C36.1603 1184.4 47.751 1169.15 54.0186 1153.15C58.319 1142.23 53.5061 1131.44 48.476 1120.06C44.8637 1111.82 41.0245 1103.43 41.1297 1094.85C41.1557 1080.89 45.9498 1065.57 50.5879 1050.79C52.6204 1044.34 54.5211 1038.23 55.9691 1032.45C64.4338 998.37 75.1823 959.947 96.4301 928.915C98.5267 925.853 100.741 922.843 103.078 919.917C117.383 901.823 135.841 887.729 156.368 879.226C169.388 873.726 183.281 870.582 196.707 867.521C215.695 863.225 235.333 858.767 252.337 847.634C266.391 838.324 278.098 825.375 286.145 810.239C297.758 789.534 304.391 764.235 310.876 739.788C312.599 733.529 314.285 726.986 316.061 720.649C323.494 694.256 332.594 666.813 348.665 644.69C355.125 635.666 362.893 627.689 371.638 621.096C407.401 594.323 454.442 597.5 495.818 600.229C498.289 600.364 500.896 600.563 503.419 600.734C514.668 601.523 526.027 601.599 537.434 600.96C579.981 598.235 609.841 583.939 626.329 558.585C627.485 556.897 628.537 555.023 629.602 553.244C631.767 549.408 634.228 545.739 636.956 542.279L637.928 543.031Z" fill="url(#paint2_linear)"/>
<path style="mix-blend-mode:screen" opacity="0.7" d="M689.306 578.21C688.828 578.084 688.354 577.99 687.89 577.845C686.206 577.384 684.462 576.824 682.7 576.252C673.015 573.138 662.033 569.598 650.675 577.014C644.878 580.8 640.937 586.78 637.131 592.564C635.935 594.31 634.699 596.116 633.502 597.863C616.761 621.227 587.251 633.628 545.775 634.752C534.708 634.969 523.704 634.556 512.811 633.515L507.74 632.984C467.274 629.264 421.407 625.045 385.966 648.839C377.532 654.572 369.887 661.581 363.318 669.6C349.501 686.26 338.778 707.575 328.571 738.729C325.88 746.89 323.422 755.384 320.994 763.61C314.757 784.999 308.305 807.076 297.726 825.521C289.586 840.309 277.933 852.913 264.036 861.959C247.339 872.754 228.193 877.318 209.683 881.74C196.644 884.835 183.159 888.056 170.603 893.441C150.861 901.679 133.172 915.386 119.602 932.96C96.9447 962.307 86.7564 1000.25 76.883 1036.91L75.4352 1042.32C73.6324 1048.69 71.3674 1055.44 68.9048 1062.52C64.3441 1075.66 59.6328 1089.24 58.7039 1101.49C58.1077 1109.22 60.8446 1117.09 63.4661 1124.68C67.1081 1135.16 70.8775 1146.01 66.0414 1156.86C63.4407 1162.66 60.2936 1168.24 56.651 1173.49C49.1197 1184.11 40.4512 1193.85 30.8436 1202.5C20.3582 1212.09 9.35234 1221.02 -2.10297 1229.24C-12.4072 1236.8 -23.0685 1244.06 -34.3075 1251.79L-34.6581 1252.04C-51.5985 1263.67 -67.5851 1274.67 -79.3866 1289.88C-83.7589 1295.56 -87.526 1301.69 -90.6096 1308.15C-97.443 1322.21 -101.503 1337.53 -105.811 1353.78C-108.53 1364.23 -111.439 1375.07 -115.146 1385.65L-116.176 1384.94C-112.542 1374.55 -109.728 1363.96 -106.974 1353.53C-102.642 1337.21 -98.5601 1321.82 -91.6635 1307.63C-88.5322 1301.07 -84.7032 1294.83 -80.2564 1289.06C-68.2896 1273.64 -52.2144 1262.59 -35.1853 1250.9L-34.8346 1250.65C-23.5956 1242.92 -12.9867 1235.62 -2.67449 1228.12C8.72185 1219.97 19.6712 1211.09 30.1028 1201.56C47.2764 1185.61 58.3456 1171.28 64.8933 1156.47C69.4378 1146.09 66.0588 1136.05 62.2665 1125.27C59.5443 1117.64 56.8317 1109.58 57.4402 1101.58C58.3799 1089.16 63.1275 1075.49 67.7245 1062.26C70.1333 1055.26 72.4815 1048.54 74.2051 1042.17L75.6664 1036.74C84.8307 1002.65 94.326 967.404 113.84 938.904C115.372 936.667 116.891 934.449 118.615 932.343C132.326 914.572 150.209 900.714 170.167 892.393C182.812 886.953 196.376 883.728 209.459 880.607C227.846 876.215 246.895 871.643 263.388 860.996C277.09 852.078 288.584 839.655 296.619 825.079C307.063 806.831 313.532 784.766 319.71 763.539C322.121 755.301 324.65 746.74 327.31 738.586C337.589 707.251 348.376 685.807 362.318 669.002C368.95 660.882 376.685 653.795 385.224 648.014C421.059 623.943 467.151 628.17 507.828 631.92L512.987 632.397C523.838 633.431 534.8 633.843 545.824 633.632C586.873 632.533 616.025 620.319 632.479 597.336C633.662 595.608 634.899 593.802 636.081 592.075C640.008 586.115 644.003 580.057 650.052 576.126C661.925 568.37 673.187 571.988 683.105 575.175C684.038 575.496 684.95 575.775 685.861 576.053L689.306 578.21Z" fill="url(#paint3_linear)"/>
<path style="mix-blend-mode:screen" opacity="0.7" d="M727.037 604.044C715.161 611.394 702.835 614.833 691.709 613.298C690.234 613.095 688.702 612.824 687.104 612.537C678.205 610.971 668.151 609.219 656.91 616.802C651.466 620.484 647.546 625.872 643.747 631.084C642.497 632.909 641.085 634.71 639.712 636.452C622.653 657.81 594.693 667.871 554.176 667.258C544.389 667.101 534.015 666.341 522.457 664.914L520.093 664.622C480.26 659.865 435.12 654.472 399.467 675.583C391.226 680.492 383.6 686.581 376.842 693.65C361.865 709.198 350.006 729.101 339.723 756.397C336.168 765.783 333.015 775.704 329.967 785.323C323.994 804.153 317.82 823.653 308.156 840.014C300.035 854.253 288.588 866.341 275.029 874.992C258.831 885.322 240.317 889.973 222.435 894.45C209.558 897.302 196.816 901.259 184.344 906.281C165.178 914.335 148.069 927.799 135.094 945.039C116.191 970.325 107.361 1002.28 98.7949 1033.17C97.1399 1039.33 95.3773 1045.65 93.5424 1051.77C91.4128 1058.96 88.5256 1066.59 85.6412 1073.98C81.1928 1085.5 76.6033 1097.4 74.9151 1108.07C73.7658 1115.32 75.4796 1122.67 77.1654 1129.79C79.4822 1139.62 81.8741 1149.79 76.7375 1160.03C74.4057 1164.63 71.7597 1169.09 68.822 1173.35C60.9376 1184.39 52.048 1194.66 42.2994 1204C32.5931 1213.57 22.4739 1222.66 11.982 1231.24C1.8224 1239.56 -8.18776 1247.18 -18.5899 1254.48C-21.5454 1256.55 -24.4946 1258.58 -27.4376 1260.58C-40.3909 1269.62 -52.9572 1278.31 -62.7702 1289.24C-67.2352 1294.25 -71.1862 1299.72 -74.5455 1305.54C-82.4637 1319.09 -87.5319 1334.5 -92.8206 1350.68C-96.9864 1364.24 -102.02 1377.59 -107.886 1390.62L-108.881 1389.94C-103.104 1377.07 -98.1502 1363.89 -94.0547 1350.5C-88.6086 1334.05 -83.5714 1318.64 -75.6598 1304.92C-72.2553 1299 -68.2404 1293.43 -63.6964 1288.34C-53.718 1277.22 -41.2149 1268.65 -27.9487 1259.57C-25.0335 1257.56 -22.0565 1255.53 -19.101 1253.46C-8.71634 1246.16 1.31927 1238.61 11.3687 1230.3C21.8252 1221.74 31.9102 1212.67 41.584 1203.13C53.6269 1191.2 67.1672 1176.63 75.7534 1159.56C80.6467 1149.79 78.4183 1140.28 76.0599 1130.24C74.3581 1122.99 72.5973 1115.53 73.8072 1108C75.5236 1097.18 80.1361 1085.2 84.5416 1073.6C87.3951 1066.22 90.3441 1058.58 92.4105 1051.52C94.2105 1045.37 95.8683 1038.98 97.6629 1032.91C105.779 1003.61 114.157 973.371 131.104 948.62C132.112 947.148 133.106 945.696 134.202 944.283C147.351 926.85 164.681 913.246 184.085 905.123C196.688 900.076 209.561 896.103 222.569 893.244C240.358 888.79 258.748 884.17 274.752 873.937C288.119 865.405 299.411 853.493 307.433 839.461C317.003 823.237 323.141 803.828 329.077 785.088C332.125 775.47 335.274 765.517 338.856 756.092C349.294 728.643 361.173 708.523 376.293 692.842C383.111 685.662 390.808 679.467 399.133 674.46C435.226 653.045 480.523 658.545 520.549 663.32L522.899 663.631C534.405 665.023 544.73 665.779 554.5 665.923C594.546 666.589 622.161 656.695 638.917 635.705C640.293 633.995 641.568 632.244 642.924 630.376C646.79 625.067 650.795 619.592 656.456 615.742C668.124 607.874 678.524 609.719 687.564 611.267C689.113 611.549 690.628 611.808 692.156 612.047C702.662 613.475 714.565 610.093 725.978 603.233L727.037 604.044Z" fill="url(#paint4_linear)"/>
<path style="mix-blend-mode:screen" opacity="0.7" d="M745.013 616.353C729.931 635.721 711.592 648.016 695.516 648.771C694.138 648.837 692.721 648.847 691.31 648.774C683.288 648.846 674.229 648.9 663.258 656.61C658.495 660.26 654.231 664.606 650.619 669.492C649.118 671.347 647.599 673.191 646.011 674.986C628.967 693.963 601.828 702.077 562.732 699.612C553.482 699.045 543.499 697.976 532.284 696.236C493.366 690.404 449.249 683.78 413.302 702.21C405.265 706.365 397.689 711.585 390.784 717.727C374.621 731.973 361.716 750.41 351.314 774.137C346.931 784.282 343.154 795.189 339.545 805.777C333.839 822.571 327.933 839.919 318.973 854.541C310.859 868.23 299.615 879.806 286.396 888.08C270.713 897.956 252.886 902.615 235.579 907.227C223.003 910.203 210.57 914.225 198.404 919.252C179.811 927.121 163.281 940.344 150.906 957.249C134.736 979.592 127.186 1007.32 119.826 1034.16C117.366 1043.15 114.819 1052.45 111.973 1061.39C109.149 1069.73 105.911 1077.94 102.274 1086.01C97.8958 1095.35 94.2526 1104.98 91.3838 1114.79C89.6506 1121.59 90.3534 1128.5 91.0954 1135.09C92.0871 1144.27 93.1189 1153.77 87.6643 1163.39C85.9062 1166.48 83.9815 1169.51 81.9656 1172.46C73.464 1184.27 64.0792 1195.41 53.9146 1205.75C43.3278 1216.98 34.5217 1225.8 26.2439 1233.51C17.1982 1242.05 7.64413 1249.96 -2.34464 1257.18C-7.68883 1261.02 -13.0731 1264.54 -18.2801 1267.95C-28.5073 1274.61 -38.1582 1280.92 -46.3179 1288.68C-50.8783 1293.01 -55.0196 1297.81 -58.6668 1302.97C-67.9922 1316.11 -74.2974 1331.94 -80.9657 1348.68C-87.0167 1363.88 -93.2762 1379.58 -102.33 1394.6L-103.307 1393.93C-94.3879 1379.1 -88.1513 1363.48 -82.1366 1348.37C-75.432 1331.54 -69.069 1315.66 -59.671 1302.34C-55.9829 1297.1 -51.7919 1292.23 -47.1742 1287.84C-38.9165 1279.97 -29.2038 1273.65 -18.8825 1266.85C-13.6755 1263.43 -8.29124 1259.91 -2.97393 1256.12C6.95706 1248.93 16.4575 1241.06 25.4547 1232.57C33.7057 1224.9 42.4809 1216.09 53.0543 1204.87C65.8568 1191.27 78.0415 1177.82 86.5849 1162.79C91.8056 1153.59 90.854 1144.73 89.8517 1135.33C89.1071 1128.6 88.3614 1121.6 90.1592 1114.56C93.0525 1104.68 96.7244 1094.98 101.135 1085.57C104.772 1077.56 107.995 1069.39 110.789 1061.1C113.622 1052.17 116.155 1042.89 118.632 1033.92C125.748 1007.92 133.104 981.04 148.264 958.9L149.903 956.505C162.428 939.391 179.159 926.005 197.979 918.039C210.185 913.043 222.652 909.045 235.258 906.085C252.446 901.536 270.19 896.848 285.713 887.093C298.741 878.939 309.825 867.533 317.826 854.045C326.654 839.504 332.523 822.246 338.223 805.536C341.829 794.916 345.58 783.934 350.039 773.753C360.526 749.826 373.553 731.213 389.893 716.857C396.885 710.631 404.56 705.342 412.704 701.138C448.992 682.508 493.32 689.161 532.418 695.03C543.612 696.726 553.568 697.835 562.715 698.476C601.306 700.855 628.184 692.936 644.919 674.297C646.525 672.513 647.959 670.756 649.527 668.802C653.237 663.818 657.6 659.377 662.465 655.635C673.773 647.693 683.365 647.573 691.236 647.571C692.701 647.565 694.118 647.555 695.425 647.556C711.065 646.877 729.005 634.828 743.827 615.8L745.013 616.353Z" fill="url(#paint5_linear)"/>
<path style="mix-blend-mode:screen" opacity="0.7" d="M754.786 623.044C753.331 626.142 751.74 629.29 750.033 632.532C735.622 659.568 716.228 679.357 699.438 684.15C697.959 684.55 696.349 684.918 694.821 685.314C685.881 687.029 677.216 690.844 669.501 696.461C665.211 699.795 661.251 703.594 657.699 707.783C655.813 709.864 654.038 711.82 652.136 713.661C634.948 730.491 609.199 736.387 571.106 732.158C562.411 731.192 552.873 729.735 541.921 727.685C508.805 721.617 463.441 713.332 426.917 728.974C419.046 732.386 411.494 736.73 404.421 741.912C386.744 754.745 372.255 772.022 362.523 791.873C357.315 802.78 352.764 813.956 348.896 825.326C343.419 840.402 337.764 855.962 329.467 869.165C321.4 882.315 310.39 893.401 297.527 901.323C282.374 910.726 265.166 915.492 248.531 920.131C236.288 923.183 224.19 927.22 212.351 932.203C193.048 940.927 177.672 953.463 166.618 969.419C152.547 989.596 146.122 1014.14 139.865 1037.88C136.972 1048.84 133.995 1060.15 130.303 1070.98C126.847 1080.37 122.794 1089.58 118.175 1098.54C114.339 1105.99 110.899 1113.63 107.872 1121.41C105.974 1127.62 105.067 1134.01 105.19 1140.3C104.91 1148.76 104.515 1157.68 98.7247 1166.66C97.9452 1167.8 97.1657 1168.94 96.3728 1170.1C88.6199 1180.91 80.228 1191.24 71.2547 1201.02L65.6594 1207.39L59.626 1214.33C53.1197 1221.81 46.9748 1228.88 40.6178 1235.65C32.4897 1244.55 23.5785 1252.64 14.0301 1259.77C6.99046 1264.79 -0.250214 1269.45 -7.66422 1273.75C-15.2519 1278.04 -22.5947 1282.86 -29.6367 1288.17C-34.2773 1291.83 -38.5867 1295.95 -42.4936 1300.47C-53.6775 1313.4 -61.5907 1330.12 -69.9381 1347.81C-75.8237 1360.85 -82.4374 1373.59 -89.7419 1385.95L-97.2054 1397.93L-98.1827 1397.26L-90.781 1385.29C-83.5034 1372.98 -76.9152 1360.3 -71.0538 1347.31C-62.6566 1329.5 -54.7206 1312.71 -43.3808 1299.63C-39.407 1295.05 -35.0329 1290.85 -30.3278 1287.12C-23.2366 1281.77 -15.8452 1276.92 -8.20885 1272.6C-0.850004 1268.35 6.33332 1263.74 13.3121 1258.76C22.7893 1251.68 31.6335 1243.66 39.6997 1234.82C46.0432 1228.07 52.1747 1221.02 58.6501 1213.55L64.7009 1206.62L70.3097 1200.23C79.9159 1189.3 89.8608 1178.04 97.5755 1166.02C103.154 1157.39 103.476 1149.13 103.798 1140.38C103.735 1133.96 104.723 1127.45 106.723 1121.14C109.754 1113.31 113.21 1105.63 117.071 1098.13C121.669 1089.2 125.715 1080.03 129.181 1070.67C132.85 1059.92 135.826 1048.61 138.693 1037.68C144.917 1014.07 151.345 989.666 165.241 969.371L165.698 968.703C176.826 952.451 192.494 939.827 212.036 930.979C223.935 925.97 236.093 921.908 248.398 918.829C264.944 914.244 282.055 909.469 297.022 900.228C309.72 892.445 320.604 881.543 328.598 868.599C336.801 855.533 342.416 840.033 347.857 825.047C351.725 813.622 356.281 802.391 361.494 791.428C371.297 771.343 385.928 753.859 403.796 740.878C410.948 735.625 418.591 731.226 426.558 727.777C463.413 711.987 508.975 720.32 542.321 726.316C553.238 728.342 562.762 729.818 571.423 730.76C609.111 734.943 634.528 729.195 651.418 712.651C653.275 710.837 655.037 708.901 656.879 706.847C660.509 702.584 664.551 698.716 668.926 695.318C676.769 689.591 685.58 685.69 694.676 683.917C696.269 683.537 697.765 683.149 699.23 682.768C715.668 678.08 734.715 658.572 748.959 631.855C750.724 628.566 752.325 625.366 753.806 622.229L754.786 623.044Z" fill="url(#paint6_linear)"/>
<path style="mix-blend-mode:screen" opacity="0.7" d="M759.9 626.545L758.08 632.161C754.325 642.914 749.907 653.469 744.854 663.756C731.823 690.987 716.686 711.297 703.338 719.485C701.241 720.788 699.039 722.02 696.583 723.249C689.337 726.937 682.369 731.298 675.771 736.273C672.086 739.176 668.584 742.338 665.294 745.734C662.943 748.045 660.72 750.243 658.294 752.214C635.842 771.265 602.559 768.397 579.495 764.57C571.341 763.225 562.409 761.52 551.563 759.053C514.285 750.826 474.972 743.887 440.533 755.624C432.803 758.271 425.275 761.737 418.073 765.963C399.924 775.99 384.526 791.22 373.911 809.645C367.924 820.802 362.821 832.375 358.66 844.236C353.372 857.913 348.009 871.885 340.224 883.853C332.102 896.401 321.279 906.941 308.761 914.493C294.151 923.402 277.606 928.247 261.631 932.935C249.68 936.105 237.88 940.198 226.332 945.178C207.513 953.944 192.63 966.097 182.333 981.621C170.027 1000.01 164.582 1022.11 159.282 1043.48C156.448 1055.98 152.903 1068.37 148.669 1080.58C144.33 1091.3 139.124 1101.69 133.113 1111.65C129.835 1117.45 126.741 1122.94 124.2 1128.15C121.688 1133.76 119.907 1139.62 118.909 1145.57C117.303 1153.12 115.704 1160.85 110.247 1168.82L109.454 1169.97C103.579 1178.03 96.7903 1185.92 90.2382 1193.55C85.8952 1198.62 81.4098 1203.82 77.1607 1209.13C73.2651 1213.96 69.5359 1218.84 65.9142 1223.57C62.2926 1228.3 58.5097 1233.26 54.7618 1237.87C47.5753 1247.09 39.3163 1255.37 30.2137 1262.49C21.8295 1268.47 13.0314 1273.72 3.92304 1278.16C-2.07208 1281.27 -7.73544 1284.22 -13.0391 1287.63C-17.7666 1290.64 -22.2476 1294.1 -26.4174 1297.95C-40.2562 1310.68 -50.2705 1329.05 -60.8616 1348.52C-65.9387 1357.85 -71.2119 1367.38 -77.1016 1376.96C-82.3002 1385.07 -87.2048 1393.25 -92.0745 1401.45L-93.0518 1400.78C-88.1822 1392.58 -83.2776 1384.41 -78.2508 1376.31C-72.3585 1366.89 -67.1148 1357.24 -62.0337 1347.95C-51.3754 1328.38 -41.2939 1309.91 -27.3032 1297C-23.0708 1293.09 -18.5211 1289.58 -13.7208 1286.52C-8.35931 1283.07 -2.67852 1280.13 3.34348 1276.99C12.3654 1272.56 21.0814 1267.34 29.391 1261.41C38.4245 1254.39 46.6173 1246.21 53.7376 1237.08C57.4854 1232.47 61.1205 1227.72 64.8631 1222.82C68.6057 1217.91 72.2408 1213.17 76.1365 1208.34C80.403 1203.04 84.8979 1197.79 89.2583 1192.73C95.7795 1185.12 102.555 1177.24 108.39 1169.25C114.225 1161.25 115.917 1153.5 117.613 1145.4C118.623 1139.34 120.444 1133.37 123.022 1127.66C125.573 1122.4 128.698 1116.9 131.959 1111.09C137.914 1101.18 143.068 1090.84 147.358 1080.17C151.582 1068.01 155.117 1055.67 157.943 1043.22C163.244 1021.74 168.739 999.529 181.193 980.927L181.892 979.907C192.308 964.695 207.072 952.604 225.779 943.964C237.388 938.961 249.249 934.842 261.259 931.643C277.229 927.038 293.669 922.121 308.075 913.36C320.426 905.939 331.084 895.529 339.032 883.123C346.723 871.293 352.116 857.313 357.342 843.766C361.576 831.854 366.753 820.236 372.814 809.039C383.551 790.383 399.139 774.967 417.515 764.831C424.789 760.579 432.387 757.086 440.187 754.407C474.931 742.562 514.397 749.577 551.865 757.789C562.751 760.197 571.594 761.957 579.717 763.309C602.567 767.076 635.484 769.953 657.518 751.25C659.835 749.29 662.026 747.1 664.451 744.869C667.794 741.431 671.349 738.228 675.088 735.286C681.745 730.248 688.773 725.823 696.082 722.071C698.456 720.813 700.697 719.637 702.749 718.361C715.928 710.346 730.803 690.23 743.721 663.24C748.725 653.017 753.104 642.532 756.83 631.853C757.499 629.851 758.153 627.848 758.791 625.844L759.9 626.545Z" fill="url(#paint7_linear)"/>
<path style="mix-blend-mode:screen" opacity="0.7" d="M765.973 630.704C761.664 639.654 757.879 648.82 754.642 658.147L752.353 664.335C749.193 672.694 745.623 681.09 742.162 689.215L739.707 694.972C726.64 725.811 716.323 744.809 707.234 754.789C702.244 760.28 696.518 764.75 687.025 772.175L682.054 776.065C679.144 778.368 676.399 780.842 673.847 783.073C670.871 785.827 667.763 788.416 664.539 790.827C642.548 806.733 612.071 802.5 587.957 797.061C578.722 794.975 569.314 792.541 561.36 790.381C525.695 781.184 488.098 773.835 454.289 782.255C446.689 784.168 439.191 786.751 431.88 789.975C411.108 799.047 396.36 810.89 385.367 827.32C378.366 837.807 373.29 850.274 368.368 862.329C363.447 874.383 358.153 887.394 350.835 898.268C342.749 910.294 332.111 920.335 319.891 927.476C305.872 935.896 290.017 940.782 274.688 945.537C263.017 948.835 251.5 952.993 240.227 957.979C221.408 966.745 207.669 978.5 197.893 993.601C187.016 1010.57 182.462 1030.66 178.066 1050.11C175.052 1063.39 171.954 1077.12 166.86 1089.95C161.894 1102.41 153.88 1114.45 146.803 1125.09C144.532 1128.4 142.469 1131.6 140.517 1134.68C137.418 1139.77 134.804 1145.13 132.718 1150.67C129.823 1158.73 125.594 1166.33 120.239 1173.09C116.577 1177.5 112.651 1181.97 108.867 1186.29C101.783 1194.09 95.0457 1202.22 88.6822 1210.64C84.3025 1216.55 80.3122 1222.64 76.4522 1228.51C73.9122 1232.22 71.4351 1236.17 68.8776 1239.87C62.6833 1249.34 55.0503 1257.77 46.3276 1264.79C36.5874 1272.28 26.1895 1276.72 16.1408 1281.02C11.7135 1282.92 7.51184 1284.72 3.43498 1286.74C-1.38629 1289.1 -6.04453 1291.89 -10.4861 1295.05C-27.9844 1307.69 -40.9426 1328.98 -54.5568 1351.37C-57.7853 1356.68 -61.1481 1362.19 -64.5579 1367.59C-72.4569 1380.28 -79.5366 1392.91 -86.2806 1405.41L-87.2579 1404.74C-80.5274 1392.26 -73.4342 1379.61 -65.6321 1367.28C-62.1954 1361.85 -58.846 1356.36 -55.631 1351.07C-50.1714 1342.12 -44.8595 1333.39 -39.309 1325.28C-30.8422 1312.92 -21.8792 1302.07 -11.168 1294.33C-6.6657 1291.1 -1.9367 1288.28 2.96138 1285.9C7.08258 1283.85 11.2842 1282.05 15.7021 1280.2C25.6756 1275.93 35.9808 1271.52 45.592 1264.14C54.2252 1257.19 61.7773 1248.84 67.9015 1239.46C70.4415 1235.75 72.9413 1232.1 75.4318 1228.12C79.3589 1222.16 83.2512 1216.18 87.7155 1210.18C94.0331 1201.59 101.172 1193.45 107.981 1185.72C111.769 1181.42 115.682 1176.98 119.344 1172.56C124.607 1165.93 128.752 1158.47 131.572 1150.55C133.732 1144.9 136.417 1139.44 139.585 1134.24C141.564 1131.13 143.662 1127.95 145.898 1124.61C152.935 1114.03 160.926 1102.06 165.816 1089.76C170.873 1077.02 173.962 1063.33 176.953 1050.13C181.381 1030.56 185.95 1010.33 196.975 993.146C206.838 977.729 220.785 965.858 239.752 956.876C251.082 951.873 262.655 947.696 274.381 944.375C289.622 939.675 305.384 934.812 319.301 926.466C331.33 919.434 341.802 909.546 349.76 897.705C357.084 887.008 362.159 874.28 367.167 862.025C372.174 849.77 377.21 837.361 384.291 826.757C395.446 810.091 410.38 798.088 431.426 788.915C438.812 785.652 446.383 783.023 454.057 781.058C488.038 772.612 525.89 779.963 561.704 789.204C569.695 791.274 579.12 793.72 588.284 795.872C612.121 801.266 642.291 805.462 663.819 789.93C666.997 787.539 670.066 784.982 673.012 782.271C675.632 779.942 678.336 777.527 681.277 775.216L686.261 771.306C695.666 763.935 701.361 759.474 706.284 754.08C715.261 744.226 725.484 725.365 738.478 694.707L740.916 688.938C744.394 680.826 747.95 672.449 751.057 664.169L753.346 657.98C756.624 648.542 760.465 639.269 764.844 630.219L765.973 630.704Z" fill="url(#paint8_linear)"/>
<path style="mix-blend-mode:screen" opacity="0.7" d="M780.458 640.622C778.105 642.644 775.913 644.868 773.909 647.266C761.639 661.929 754.281 678.254 746.613 696.529L744.642 701.205C741.175 709.412 737.582 717.879 734.546 726.208C731.16 735.421 728.264 744.105 725.433 752.546C720.327 767.79 715.911 780.94 711.096 790.069C706.281 799.198 699.995 806.282 688.307 815.865L684.6 818.92C680.212 822.782 675.563 826.291 670.7 829.411C648.965 842.437 619.567 836.291 596.329 829.46C589.775 827.539 583.178 825.53 576.612 823.514L570.927 821.784C541.47 812.916 503.142 803.452 467.87 808.881C460.355 810.075 452.87 811.8 445.47 814.042C430.35 818.565 411.131 826.193 396.619 845.029C388.782 855.202 383.361 867.837 378.094 880.059C373.312 891.199 368.307 902.851 361.353 912.821C353.332 924.349 342.918 933.94 331.027 940.751C317.595 948.651 302.479 953.581 287.853 958.357C276.429 961.775 265.162 966.007 254.137 971.021C235.85 979.834 222.595 991.256 213.642 1005.94C203.981 1021.7 200.324 1040.07 196.646 1058.02C193.844 1071.96 190.926 1086.36 185.242 1099.68C178.973 1114.3 168.449 1127.28 159.183 1138.75L156.923 1141.53C153.215 1146.21 149.759 1151.1 146.576 1156.15C142.08 1163.45 136.892 1170.29 131.103 1176.58L127.671 1180.17C118.098 1190.22 108.186 1200.62 100.248 1212.51C95.8533 1218.93 92.2279 1225.76 88.6187 1232.34C86.8363 1235.62 84.9867 1238.99 83.121 1242.24C77.9272 1251.99 70.8837 1260.68 62.4737 1267.72C51.9448 1276.02 40.3144 1279.79 29.0641 1283.41C25.8271 1284.4 22.8976 1285.42 19.9104 1286.49C14.9712 1288.18 10.1273 1290.27 5.42494 1292.74C-17.6236 1305.22 -35.1388 1332.52 -52.0882 1358.88C-62.3304 1375.35 -71.5224 1392.43 -79.5964 1409.99L-80.5911 1409.31C-72.5026 1391.78 -63.2962 1374.73 -53.04 1358.29C-48.465 1351.16 -43.8496 1343.97 -39.092 1337.02C-26.1229 1318.08 -12.1019 1300.9 4.99846 1291.64C9.75402 1289.12 14.6544 1286.97 19.6532 1285.22C22.6579 1284.16 25.7942 1283.14 28.8244 1282.15C39.9779 1278.52 51.462 1274.85 61.7611 1266.62C70.0133 1259.69 76.9257 1251.14 82.0296 1241.55C83.8993 1238.33 85.7314 1234.95 87.5178 1231.7C91.1036 1224.89 95.0017 1218.23 99.1969 1211.76C107.202 1199.77 117.15 1189.28 126.786 1179.22L130.217 1175.63C135.923 1169.41 141.034 1162.63 145.463 1155.42C148.68 1150.33 152.168 1145.41 155.908 1140.69L158.151 1137.9C167.38 1126.52 177.803 1113.62 183.985 1099.2C189.624 1086.02 192.554 1071.71 195.261 1057.91C198.887 1039.92 202.63 1021.35 212.435 1005.35C221.532 990.413 234.987 978.811 253.544 969.865C264.624 964.844 275.939 960.59 287.41 957.131C301.978 952.402 317.054 947.531 330.345 939.65C342.05 933.001 352.319 923.62 360.254 912.329C367.096 902.598 372.056 890.974 376.852 879.814C382.142 867.521 387.617 854.808 395.579 844.49C410.333 825.3 429.812 817.592 445.131 813.002C452.586 810.733 460.126 808.99 467.699 807.783C503.245 802.254 541.753 811.755 571.31 820.662L576.995 822.393C583.575 824.389 590.172 826.398 596.708 828.308C619.666 835.061 648.787 841.162 670.075 828.378C674.873 825.294 679.464 821.832 683.801 818.027L687.508 814.972C699.062 805.585 705.095 798.645 709.888 789.587C714.68 780.529 719.059 767.469 724.142 752.296C726.969 743.825 729.905 735.081 733.265 725.907C736.385 717.607 739.904 709.061 743.37 700.853L745.354 696.158C753.059 677.792 760.467 661.357 772.875 646.53C774.861 644.183 777.013 641.992 779.309 639.979L780.458 640.622Z" fill="url(#paint9_linear)"/>
<path style="mix-blend-mode:screen" opacity="0.7" d="M806.217 658.259C803.494 659.278 800.909 660.246 798.276 661.471C787.732 666.174 778.113 673.254 770.168 682.155C758.236 696.215 748.336 711.938 740.842 728.731C736.32 738.051 732.474 747.65 729.337 757.439C725.404 771.173 722.379 785.074 720.283 799.04C718.954 807.856 717.15 816.641 714.878 825.352C711.3 837.692 705.507 846.526 694.611 855.701C689.184 860.568 683.224 864.713 676.897 868.02C655.636 878.256 628.526 870.678 604.836 861.924C597.547 859.24 589.059 856.138 580.687 853.203C542.109 839.762 509.671 834.013 481.564 835.641C474.127 836.115 466.676 836.999 459.243 838.29C442.278 841.09 422.905 846.248 408.055 862.92C399.382 872.666 393.631 885.334 388.082 897.593C383.442 907.852 378.626 918.479 372.052 927.557C364.009 938.463 353.782 947.483 342.221 953.865C329.446 961.292 315.043 966.191 301.152 970.98C289.948 974.569 278.9 978.887 268.076 983.909C250.237 992.741 237.588 1003.91 229.301 1018.08C220.708 1032.83 217.749 1049.92 214.862 1066.46C212.354 1080.83 209.779 1095.67 203.519 1109.23C196.378 1124.75 184.166 1137.49 173.256 1148.19C168.665 1152.68 164.59 1157.1 160.5 1161.28C154.893 1167.18 149.076 1173.32 142.014 1179.81C131.74 1189.24 120.167 1200.49 111.896 1214.14C107.996 1220.95 104.524 1227.99 101.505 1235.19C100.184 1238.21 98.7988 1241.36 97.3939 1244.34C93.2746 1253.06 87.8925 1262.86 78.7513 1270.3C67.6862 1279.27 54.9297 1281.95 42.6096 1284.56C40.5761 1284.98 38.5293 1285.43 36.5657 1285.9C31.5052 1286.97 26.4864 1288.42 21.5494 1290.23C-4.35286 1300.06 -24.6305 1327.32 -39.3742 1349.97C-52.9793 1370.55 -62.6897 1393.2 -71.9176 1415.25L-72.8775 1414.59C-63.663 1392.56 -53.8868 1369.93 -40.4307 1349.31C-38.6701 1346.74 -36.9471 1343.99 -35.1596 1341.38C-20.8466 1320.48 -2.15336 1297.93 21.1229 1289.13C26.1111 1287.28 31.1812 1285.78 36.295 1284.65C38.3245 1284.19 40.3579 1283.77 42.3524 1283.29C54.518 1280.72 67.1027 1278.06 77.9098 1269.32C86.8508 1262.06 92.0865 1252.36 96.1546 1243.87C97.5595 1240.88 98.9175 1237.78 100.27 1234.75C103.294 1227.49 106.786 1220.4 110.72 1213.54C119.029 1199.68 130.769 1188.37 141.115 1178.88C148.115 1172.4 153.953 1166.31 159.547 1160.42C163.563 1156.17 167.708 1151.8 172.344 1147.27C183.121 1136.66 195.224 1124.08 202.297 1108.77C208.454 1095.4 211.024 1080.64 213.439 1066.29C216.327 1049.64 219.318 1032.43 228.073 1017.44C236.468 1003 249.349 991.642 267.413 982.705C278.287 977.641 289.391 973.293 300.653 969.687C314.487 964.945 328.735 960.084 341.483 952.697C352.898 946.406 362.99 937.496 370.91 926.717C377.39 917.777 382.166 907.208 386.782 897.021C392.398 884.663 398.169 871.893 407.064 861.896C422.29 844.788 442.878 839.54 459.037 836.794C466.537 835.533 474.053 834.665 481.555 834.194C509.838 832.571 542.377 838.36 581.118 851.825C589.53 854.702 597.978 857.863 605.283 860.559C628.823 869.382 655.639 876.903 676.495 866.735C682.711 863.492 688.562 859.418 693.885 854.627C704.484 845.624 710.239 836.994 713.73 824.97C715.991 816.3 717.785 807.555 719.102 798.779C721.219 784.755 724.274 770.797 728.246 757.009C731.385 747.144 735.255 737.473 739.82 728.089C747.382 711.179 757.359 695.345 769.375 681.18C777.467 672.132 787.255 664.934 797.98 660.144C800.298 659.079 802.658 658.128 805.059 657.293L806.217 658.259Z" fill="url(#paint10_linear)"/>
<path style="mix-blend-mode:screen" opacity="0.7" d="M834.28 677.474C828.496 678.534 822.765 680.183 817.171 682.394C808.283 685.875 799.691 690.35 791.556 695.733C782.419 701.679 773.982 708.836 766.485 716.998C754.248 730.216 743.7 744.991 735.159 760.878C730.403 769.717 726.734 779.053 724.251 788.64C720.429 803.955 720.176 819.524 719.97 834.576C720.008 843.248 719.574 851.97 718.669 860.699C716.728 875.775 711.457 886.206 700.898 895.525C695.614 900.369 689.547 904.133 683.072 906.585C662.287 914.178 637.214 905.198 613.215 894.387C605.672 890.953 597.987 887.651 590.387 884.523C556.717 871.214 524.744 863.737 495.183 862.323C487.941 862.006 480.629 862.015 472.842 862.306C455.037 863.002 434.661 865.656 419.29 880.618C409.766 889.809 403.756 902.444 397.926 914.627C393.744 924.245 388.587 933.46 382.552 942.098C374.53 952.443 364.507 960.956 353.271 966.967C341.137 973.794 327.582 978.727 314.501 983.493C303.448 987.241 292.555 991.684 281.886 996.796C264.315 1005.72 252.535 1016.34 244.894 1030.19C237.254 1044.05 234.92 1060.04 232.72 1075.45C230.627 1090.08 228.466 1105.18 221.731 1118.76C213.883 1134.49 200.337 1146.26 189.506 1154.82C183.931 1159.21 178.463 1163.46 173.011 1167.45C166.487 1172.41 159.715 1177.55 152.753 1183.07C142.477 1191.23 130.942 1201.52 123.354 1215.79C119.872 1222.81 116.961 1230.06 114.654 1237.48C113.628 1240.44 112.587 1243.53 111.495 1246.47C108.2 1255.4 103.602 1265.49 94.8396 1272.9C83.46 1282.4 69.7574 1283.66 56.4858 1284.92C55.3053 1285.04 54.1383 1285.13 52.9081 1285.35C47.7109 1285.79 42.5096 1286.58 37.3355 1287.69C8.99216 1294.23 -13.2563 1320.4 -26.9851 1341.01C-42.41 1364.33 -52.1223 1390.72 -61.5158 1416.23L-61.9072 1417.29L-63.2615 1421.17L-64.2737 1420.48L-62.9988 1416.97L-62.5712 1415.82C-53.1587 1390.21 -43.4102 1363.73 -27.8912 1340.28L-25.9424 1337.43C-11.9923 1317.06 9.80271 1292.71 37.2422 1286.33C42.4627 1285.2 47.7115 1284.41 52.9558 1283.97L56.551 1283.55C69.6332 1282.3 83.1599 1281.04 94.1794 1271.84C102.719 1264.68 107.165 1254.78 110.387 1246.03C111.479 1243.09 112.511 1240.05 113.519 1237.08C115.863 1229.58 118.818 1222.25 122.35 1215.16C130.038 1200.67 141.714 1190.25 152.106 1182C159.099 1176.46 165.912 1171.27 172.409 1166.35C177.756 1162.28 183.224 1158.04 188.786 1153.66C199.641 1145.29 212.821 1133.53 220.599 1118.13C227.214 1104.72 229.359 1089.76 231.451 1075.25C233.669 1059.73 235.92 1043.71 243.803 1029.5C251.685 1015.3 263.476 1004.52 281.405 995.515C292.119 990.38 303.055 985.91 314.153 982.13C327.203 977.372 340.699 972.486 352.728 965.701C363.791 959.783 373.662 951.403 381.564 941.219C387.74 933.023 392.342 923.344 396.799 914.027C402.673 901.703 408.817 888.987 418.458 879.587C434.183 864.407 454.808 861.576 472.851 860.87C480.774 860.529 488.029 860.567 495.302 860.876C524.983 862.228 557.136 869.742 590.843 883.221C598.5 886.302 606.203 889.615 613.705 893.109C637.503 903.839 662.31 912.723 682.683 905.281C689.042 902.91 695.004 899.237 700.194 894.494C710.433 885.418 715.595 875.258 717.473 860.572C718.385 851.892 718.821 843.219 718.777 834.595C719.007 819.472 719.304 803.876 723.084 788.359C725.549 778.677 729.216 769.242 733.987 760.306C742.583 744.306 753.197 729.421 765.511 716.1C773.1 707.854 781.633 700.62 790.87 694.6C799.091 689.172 807.767 684.651 816.738 681.118C821.987 679.078 827.349 677.511 832.761 676.434L834.28 677.474Z" fill="url(#paint11_linear)"/>
<path style="mix-blend-mode:screen" opacity="0.7" d="M865.275 698.695C861.97 697.807 858.565 697.231 855.098 696.974C820.425 694.452 789.248 723.962 762.684 751.902C741.575 774.12 723.78 794.456 718.962 819.988C716.357 834.724 718.202 850.748 720.097 866.288C723.262 892.701 726.256 917.642 707.178 935.284C683.103 957.605 650.44 942.563 621.67 926.814C580.409 904.248 534.56 890.519 486.526 886.348C469.082 884.87 446.969 884.893 430.644 898.366C420.302 906.881 414.272 918.869 407.985 931.459C403.937 940.316 399 948.781 393.267 956.698C377.252 977.129 352.352 986.69 328.341 995.851C300.47 1006.61 274.062 1016.72 260.66 1042.29C253.79 1055.43 252.177 1070.32 250.614 1084.74C249.052 1099.15 247.369 1114.75 240.116 1128.26C229.076 1148.84 208.024 1160.6 187.642 1171.99C166.821 1183.68 145.044 1195.75 135.012 1217.37C131.935 1224.66 129.581 1232.19 127.988 1239.83C124.764 1252.96 121.439 1266.54 111.127 1275.43C99.7127 1285.28 85.1233 1284.95 70.9957 1284.62C65.1935 1284.36 59.3436 1284.47 53.477 1284.94C29.1699 1287.38 3.91235 1304.91 -14.2406 1331.83C-30.6155 1356.2 -39.6531 1384.26 -48.3976 1411.37C-50.0951 1416.7 -51.7995 1422.22 -53.3508 1427.82L-54.3804 1427.11C-52.8748 1421.65 -51.2162 1416.27 -49.551 1411.07C-40.7703 1383.87 -31.7097 1355.74 -15.3186 1331.13L-14.6197 1330.1C3.65795 1303.41 29.0323 1286.04 53.4011 1283.59C59.3156 1283.13 65.2132 1283.03 71.0649 1283.28C85.5886 1283.6 99.3025 1283.94 110.33 1274.42C120.282 1265.84 123.395 1253.09 126.737 1239.52C128.377 1231.79 130.768 1224.17 133.871 1216.79C144.119 1194.75 165.976 1182.55 187.116 1170.74C207.308 1159.48 228.178 1147.79 239.015 1127.62C246.125 1114.35 247.757 1099.24 249.358 1084.62C250.958 1070.01 252.535 1055.09 259.546 1041.67C273.148 1015.55 301.01 1004.84 327.931 994.504C351.828 985.322 376.555 975.902 392.298 955.717C397.962 947.878 402.84 939.499 406.841 930.733C412.983 918.506 419.329 905.869 429.85 897.13C446.548 883.337 468.978 883.299 486.663 884.799C534.851 888.978 580.847 902.748 622.237 925.387C650.622 940.987 682.878 955.837 706.313 934.115C724.843 916.935 721.894 892.341 718.79 866.287C716.941 850.605 714.939 834.474 717.763 819.455C722.922 791.591 745.36 767.918 761.832 750.713C788.552 722.62 820.013 692.844 855.236 695.425C857.608 695.603 859.953 695.928 862.259 696.399L865.275 698.695Z" fill="url(#paint12_linear)"/>
<path style="mix-blend-mode:screen" opacity="0.7" d="M910.499 768.318L909.692 769.495C905.745 763.564 901.271 758.061 896.321 753.046C881.254 738.175 866.374 731.792 848.073 732.35C842.287 732.623 836.477 733.472 830.725 734.887C804.149 741.167 778.215 756.132 753.622 779.396C735.67 796.367 716.594 817.152 711.255 842.471C708.329 856.44 709.745 871.594 711.1 886.274C713.409 911.092 715.594 934.557 697.907 951.478C675.671 972.723 645.151 960.504 618.259 947.367C593.097 935.262 566.456 926.174 538.795 920.26C522.892 916.755 506.695 914.282 490.292 912.853C473.762 911.424 452.825 911.416 437.271 923.687C427.137 931.711 420.984 943.729 415.391 954.257L414.634 955.699C410.827 963.565 406.325 971.105 401.195 978.21C386.07 997.867 363.04 1007.73 340.623 1017.14C331.959 1020.81 322.994 1024.62 314.658 1028.86C296.468 1038.32 285.134 1048.43 277.875 1061.65C271.215 1073.81 269.2 1087.43 267.297 1100.54C265.278 1114.12 263.21 1128.18 256.015 1140.53C252.314 1146.74 247.623 1152.33 242.174 1157C231.69 1166.28 218.472 1173.23 205.688 1179.96C185.858 1190.43 165.351 1201.21 155.393 1220.77C152.321 1227.36 149.89 1234.2 148.138 1241.17C146.334 1248.67 143.634 1256 140.106 1262.97C137.881 1267.1 134.897 1270.78 131.346 1273.78C120.513 1282.83 106.842 1282.95 93.6824 1282.97C88.1798 1282.9 82.6429 1283.16 77.0994 1283.75C53.2942 1286.88 29.3568 1304.4 14.6548 1329.39C9.64131 1338.42 5.69199 1347.96 2.90292 1357.78C-1.68484 1373.36 -5.40379 1389.1 -8.23422 1404.94C-11.3557 1419.7 -13.1499 1434.6 -13.5927 1449.41C-13.6165 1451.36 -13.6215 1453.2 -13.5258 1455.08L-14.7997 1454.21C-14.8339 1452.69 -14.8411 1451.12 -14.835 1449.54C-14.3947 1434.64 -12.5846 1419.66 -9.42938 1404.81C-6.59072 1388.91 -2.84277 1373.09 1.79382 1357.46C4.62811 1347.55 8.63632 1337.92 13.7204 1328.81C14.9248 1326.75 16.3333 1324.54 17.731 1322.5C32.7967 1300.5 55.0327 1285.39 77.1766 1282.48C82.8343 1281.88 88.4843 1281.63 94.0979 1281.72C107.004 1281.59 120.497 1281.58 130.939 1272.84C134.346 1269.95 137.212 1266.42 139.355 1262.46C142.808 1255.57 145.461 1248.35 147.252 1240.97C149.021 1233.9 151.49 1226.97 154.615 1220.29C164.795 1200.34 185.438 1189.5 205.517 1178.86C218.226 1172.17 231.382 1165.23 241.667 1156.02C246.962 1151.45 251.513 1146 255.094 1139.92C262.159 1127.81 264.216 1113.91 266.203 1100.45C268.189 1086.99 270.19 1073.4 276.999 1061.02C284.397 1047.52 295.879 1037.19 314.36 1027.65C322.685 1023.31 331.68 1019.5 340.393 1015.83C362.555 1006.42 385.477 996.711 400.369 977.357C405.453 970.316 409.91 962.841 413.674 955.042L414.431 953.6C419.964 942.973 426.335 930.787 436.7 922.575C452.578 909.979 473.868 909.997 490.639 911.447C507.126 912.868 523.404 915.349 539.384 918.876C567.129 924.799 593.852 933.905 619.093 946.035C645.631 959.016 675.756 971.138 697.361 950.441C714.523 934.025 712.378 910.876 710.096 886.393C708.728 871.618 707.3 856.37 710.264 842.196C715.696 816.48 734.968 795.483 753.076 778.359C777.825 754.942 803.994 739.821 830.777 733.538C836.578 732.135 842.435 731.318 848.265 731.097C866.913 730.517 882.07 736.946 897.331 752.094C902.199 757.048 906.604 762.476 910.499 768.318V768.318Z" fill="url(#paint13_linear)"/>
<path style="mix-blend-mode:screen" opacity="0.7" d="M898.24 786.22L897.448 787.378C894.978 784.691 892.299 782.221 889.434 779.989C874.567 768.57 860.54 765.02 841.003 767.759C835.163 768.65 829.339 769.859 823.554 771.38C794.709 778.615 768.851 786.28 744.649 806.727C722.064 825.859 708.278 845.395 703.587 864.9C700.501 877.981 701.421 892.248 702.255 906.081C703.712 929.335 705.097 951.272 688.797 967.442C666.761 989.517 635.539 976.413 614.989 967.791C590.957 958.101 565.902 950.778 540.125 945.909C525.021 942.867 509.695 940.648 494.204 939.261C477.591 937.804 458.633 937.826 444.013 948.919C434.856 955.854 429.011 965.776 422.849 977.097L421.377 979.808C417.868 986.71 413.835 993.351 409.32 999.662C394.973 1018.67 373.667 1028.67 353.041 1038.39C345.425 1042.03 337.513 1045.72 330.129 1049.8C318.7 1056.16 304.406 1065.43 295.484 1080.86C289.042 1091.99 286.643 1104.33 284.301 1116.25C281.883 1128.69 279.309 1141.66 272.143 1152.72C268.512 1158.34 264.015 1163.33 258.864 1167.48C248.797 1175.78 236.188 1181.88 224.174 1187.89C205.442 1197.09 186.063 1206.6 176.212 1224.24C173.128 1230.16 170.621 1236.33 168.736 1242.65C166.718 1249.44 163.927 1256.03 160.426 1262.27C158.189 1266.05 155.308 1269.4 151.946 1272.15C141.73 1280.41 129.04 1280.86 116.782 1281.32C111.44 1281.41 106.074 1281.85 100.712 1282.62C77.5842 1286.45 55.2006 1303.9 43.4997 1327.06C38.9411 1336.07 37.4822 1344.91 36.0663 1353.45L35.8521 1354.77C33.6361 1369.42 32.2763 1384.1 31.7805 1398.72C30.9542 1412.56 31.2418 1426.31 32.6402 1439.84C35.2029 1462.64 42.9656 1479.72 56.0704 1492.07C63.7818 1499.34 73.1473 1504.83 86.4021 1509.95C92.1259 1512.11 97.9277 1514.01 103.505 1515.9C107.195 1517.1 110.67 1518.24 113.938 1519.38C118.323 1520.91 122.612 1522.44 126.532 1524.2C129.478 1525.44 132.198 1526.78 135.194 1528.28L135.438 1528.45C138.935 1530.01 142.192 1532.03 145.14 1534.46C150.086 1538.93 153.79 1544.71 155.939 1551.3C158.088 1557.89 158.619 1565.1 157.488 1572.32L156.371 1571.56C157.396 1564.63 156.844 1557.73 154.76 1551.43C152.676 1545.12 149.12 1539.59 144.386 1535.3C141.5 1532.93 138.314 1530.96 134.893 1529.43L134.667 1529.28C131.689 1527.79 128.934 1526.42 126.058 1525.23C122.084 1523.54 117.897 1521.95 113.529 1520.43C110.209 1519.25 106.738 1518.14 103.097 1516.94C97.4786 1515.12 91.6593 1513.21 85.9409 1510.96C72.5008 1505.88 63.0306 1500.32 55.2144 1492.98C41.9272 1480.45 34.1632 1463.11 31.4543 1440.04C30.0627 1426.43 29.7863 1412.59 30.6283 1398.68C31.1311 1384 32.4945 1369.27 34.7107 1354.57L34.925 1353.25C36.3596 1344.6 37.8375 1335.66 42.5129 1326.44C44.2204 1323.05 46.1579 1319.77 48.3088 1316.63C54.5312 1307.45 62.4201 1299.56 71.4512 1293.47C80.4823 1287.38 90.4487 1283.23 100.688 1281.31C106.107 1280.56 111.529 1280.14 116.925 1280.06C128.967 1279.65 141.446 1279.18 151.315 1271.2C154.55 1268.56 157.319 1265.33 159.461 1261.7C162.89 1255.54 165.618 1249.04 167.582 1242.35C169.516 1235.94 172.077 1229.7 175.22 1223.71C185.316 1205.86 204.885 1196.22 223.825 1186.9C235.851 1180.98 248.311 1174.84 258.201 1166.65C263.228 1162.59 267.62 1157.71 271.172 1152.23C278.174 1141.26 280.563 1129.08 283.035 1116.19C285.378 1104.16 287.796 1091.71 294.385 1080.37C303.532 1064.58 318.026 1055.13 329.636 1048.69C337.047 1044.57 344.955 1040.84 352.606 1037.23C373.113 1027.57 394.274 1017.56 408.366 998.922C412.831 992.675 416.825 986.103 420.305 979.276L421.773 976.533C428.029 965.075 433.951 955.004 443.357 947.893C458.31 936.538 477.567 936.49 494.404 937.957C509.935 939.345 525.3 941.571 540.44 944.626C566.293 949.496 591.416 956.847 615.505 966.588C641.391 977.45 668.19 986.344 687.966 966.671C703.807 951.023 702.405 929.334 701.023 906.419C700.252 892.571 699.276 878.123 702.4 864.837C707.148 845.024 721.135 825.195 743.951 805.874C768.403 785.137 794.433 777.446 823.446 770.152C829.287 768.619 835.167 767.391 841.063 766.474C860.913 763.689 875.216 767.284 890.332 778.902C893.153 781.122 895.796 783.568 898.24 786.22V786.22Z" fill="url(#paint14_linear)"/>
<path style="mix-blend-mode:screen" opacity="0.7" d="M883.672 807.498C883.323 807.259 882.991 807.031 882.642 806.793C866.54 797.439 853.133 798.264 833.963 803.013C830.874 803.78 827.637 804.764 824.167 805.675C821.598 806.395 818.984 807.143 816.287 807.862C807.64 810.158 799.446 811.755 791.517 813.303C771.085 817.274 753.435 820.7 735.473 834.205C723.577 843.156 702.624 861.964 695.716 887.477C692.42 899.779 692.774 913.226 693.138 926.247C693.731 947.843 694.286 968.26 679.504 983.596C659.571 1004.28 631.827 994.975 611.589 988.181C588.752 980.836 565.265 975.255 541.303 971.481C524.716 968.601 510.964 966.709 497.964 965.592C482.3 964.208 464.43 964.139 450.652 974.079C441.672 980.529 435.886 989.916 430.19 999.883L427.833 1004.04C424.684 1009.94 421.166 1015.65 417.306 1021.13C403.778 1039.43 384.098 1049.83 365.113 1059.92C358.573 1063.37 351.824 1066.94 345.442 1070.76C334.167 1077.45 321.37 1086.33 312.769 1100.28C306.538 1110.43 303.8 1121.35 301.122 1132C298.134 1143.85 295.318 1155.04 288.155 1165.13C284.551 1170.15 280.207 1174.56 275.315 1178.19C265.669 1185.54 253.794 1190.9 242.314 1196.1C224.728 1204.04 206.523 1212.25 196.756 1227.67C193.669 1232.91 191.085 1238.42 189.044 1244.1C186.866 1250.16 184.036 1256 180.612 1261.51C178.358 1264.93 175.584 1267.96 172.416 1270.48C162.857 1277.89 151.205 1278.74 139.946 1279.53C134.763 1279.8 129.566 1280.4 124.384 1281.33C102.317 1285.86 81.4619 1303.17 72.4815 1324.41C68.7973 1333.16 68.8577 1341.16 68.9034 1348.92L68.9208 1351.44C69.1165 1365.15 70.1357 1378.74 71.9725 1392.13C73.4412 1405.04 75.7623 1417.74 78.92 1430.13C84.626 1451.34 93.8274 1467.7 107.237 1479.94C116.353 1487.83 126.558 1494.32 137.591 1499.25C140.15 1500.45 142.691 1501.65 145.198 1502.81C151.821 1505.91 158.113 1508.77 163.464 1511.89C167.042 1513.9 170.473 1516.15 173.738 1518.64C175.483 1519.83 176.966 1521.22 178.338 1522.36C178.862 1522.72 179.287 1523.19 179.749 1523.56C180.211 1523.93 180.589 1524.28 181.012 1524.6C182.857 1525.97 184.491 1527.61 185.871 1529.48C189.651 1535.43 192.04 1542.32 192.871 1549.66C193.702 1557 192.955 1564.62 190.683 1571.99C189.422 1576.08 187.528 1580 185.081 1583.57C183.899 1585.29 182.605 1586.93 181.21 1588.48L180.216 1587.8C184.466 1583.17 187.657 1577.64 189.498 1571.69C191.72 1564.54 192.462 1557.13 191.67 1549.99C190.878 1542.85 188.573 1536.15 184.915 1530.35C183.597 1528.56 182.031 1527 180.26 1525.7L178.997 1524.66C178.49 1524.31 178.051 1523.87 177.551 1523.44C176.21 1522.29 174.677 1521.01 173.034 1519.74C169.792 1517.3 166.392 1515.08 162.851 1513.09C157.525 1510.04 151.274 1507.12 144.668 1504.04C142.162 1502.87 139.589 1501.68 137.044 1500.46C125.904 1495.49 115.601 1488.94 106.397 1480.98C92.8399 1468.58 83.4679 1452.13 77.7702 1430.61C74.6004 1418.16 72.2668 1405.41 70.7852 1392.44C68.9219 1378.99 67.8843 1365.34 67.6786 1351.57L67.6611 1349.05C67.5994 1341.17 67.5499 1333 71.3604 1323.99C73.1847 1319.69 75.4507 1315.56 78.115 1311.69C83.692 1303.65 90.6624 1296.7 98.6029 1291.27C106.543 1285.84 115.288 1282.04 124.307 1280.1C129.541 1279.15 134.792 1278.55 140.027 1278.29C151.11 1277.49 162.542 1276.67 171.711 1269.45C174.769 1267.05 177.438 1264.13 179.587 1260.83C182.956 1255.38 185.729 1249.59 187.849 1243.6C189.933 1237.83 192.565 1232.25 195.705 1226.92C205.727 1211.13 224.113 1202.84 241.894 1194.81C253.299 1189.64 265.099 1184.31 274.563 1177.04C279.333 1173.51 283.567 1169.2 287.078 1164.31C294.107 1154.42 296.877 1143.37 299.833 1131.64C302.547 1120.9 305.345 1109.81 311.667 1099.38C320.412 1085.19 333.315 1076.26 344.776 1069.41C351.203 1065.56 357.983 1061.99 364.523 1058.54C383.41 1048.55 402.956 1038.23 416.367 1020.26C420.187 1014.83 423.674 1009.17 426.804 1003.33L429.16 999.178C434.893 989.12 440.813 979.537 450.041 972.911C464.153 962.709 482.309 962.773 498.197 964.166C511.215 965.295 525.028 967.171 541.619 970.083C565.654 973.912 589.208 979.558 612.105 986.978C632.059 993.664 659.387 1002.83 678.745 982.759C693.138 967.878 692.575 947.772 691.974 926.488C691.611 913.352 691.241 899.779 694.596 887.316C701.624 861.366 722.862 842.291 734.891 833.258C753.115 819.558 771.757 815.918 791.488 812.072C799.404 810.544 807.567 808.955 816.183 806.666C818.88 805.947 821.48 805.219 824.063 804.48C827.418 803.548 830.602 802.643 833.758 801.777C853.154 796.923 866.798 796.088 883.228 805.637C883.577 805.876 883.944 806.127 884.31 806.378L883.672 807.498Z" fill="url(#paint15_linear)"/>
<path style="mix-blend-mode:screen" opacity="0.7" d="M867.518 831.09C854.784 828.31 843.922 832.232 828.759 837.793L824.923 839.202C819.898 841.038 814.701 842.9 809.12 844.499C797.54 847.433 785.825 849.078 774.18 849.405C757.824 850.344 742.343 851.276 726.437 861.777C707.657 874.231 693.644 891.852 688.003 910.161C684.471 921.609 684.311 934.272 684.161 946.508C683.923 965.575 683.703 985.289 670.327 999.771C652.339 1019.34 627.896 1013.44 608.253 1008.7C588.136 1003.86 565.992 1000.64 542.549 997.215C529.317 995.276 515.69 993.239 501.806 992.065C487.163 990.688 470.304 990.676 457.328 999.407C449.347 1004.81 443.856 1012.38 437.568 1022.84L434.333 1028.35C431.59 1033.23 428.615 1037.99 425.42 1042.6C412.552 1060.46 394.368 1071.33 376.803 1081.82C371.516 1084.98 366.051 1088.24 360.782 1091.67C350.241 1098.49 338.335 1107.12 330.22 1119.49C324.276 1128.51 321.135 1138.15 318.13 1147.48C314.664 1158.2 311.363 1168.34 304.187 1177.32C300.624 1181.72 296.448 1185.55 291.83 1188.66C282.588 1195.05 271.392 1199.61 260.576 1204.02C244.11 1210.74 227.095 1217.65 217.398 1230.99C214.286 1235.56 211.606 1240.4 209.402 1245.44C207.07 1250.81 204.197 1255.96 200.837 1260.8C198.586 1263.86 195.905 1266.57 192.903 1268.83C184.036 1275.41 173.401 1276.61 163.127 1277.76C158.115 1278.22 153.101 1279.01 148.117 1280.14C127.238 1285.36 108.056 1302.56 101.536 1321.96C98.4922 1330.86 100.027 1338.43 101.482 1345.74C101.656 1346.61 101.844 1347.46 102 1348.32C104.64 1361.1 108.061 1373.61 112.241 1385.77C116.776 1399.52 120.815 1410.24 125.276 1420.64C134.124 1440.74 144.758 1455.84 158.511 1468.02C167.939 1475.96 178.118 1482.93 188.93 1488.85C197.408 1493.46 205.457 1498.79 213.007 1504.79C215.994 1507.27 218.661 1510.13 220.958 1513.32C222.223 1515.17 223.351 1517.12 224.332 1519.17L224.739 1520C225.541 1521.5 226.158 1523.11 226.577 1524.8C228.69 1533.29 231.198 1550.14 224.623 1567.86C223.411 1571.24 221.768 1574.47 219.741 1577.47C215.415 1583.23 210.318 1588.35 204.636 1592.64L201.813 1595L196.825 1599.25L195.882 1598.61C197.59 1597.13 199.332 1595.67 201.146 1594.14L203.969 1591.78C212.583 1584.59 219.398 1578.9 223.584 1567.59C229.992 1550.18 227.524 1533.64 225.479 1525.32C225.06 1523.67 224.433 1522.11 223.614 1520.67L223.206 1519.84C222.262 1517.85 221.169 1515.96 219.936 1514.17C217.676 1511.01 215.053 1508.16 212.116 1505.68C204.606 1499.73 196.605 1494.44 188.183 1489.87C177.332 1483.88 167.096 1476.87 157.589 1468.92C143.698 1456.52 133.012 1441.39 124.096 1421.13C119.55 1410.81 115.472 1400.03 110.973 1386.2C106.803 1374.01 103.401 1361.47 100.786 1348.67L100.285 1346.1C98.8507 1338.95 97.2205 1330.89 100.361 1321.62C102.072 1316.64 104.47 1311.88 107.472 1307.49C117.473 1293.23 131.975 1282.96 147.953 1278.84C152.991 1277.72 158.056 1276.93 163.121 1276.46C173.223 1275.33 183.669 1274.15 192.187 1267.7C195.067 1265.54 197.638 1262.94 199.796 1260C203.087 1255.23 205.91 1250.17 208.217 1244.89C210.458 1239.79 213.171 1234.88 216.316 1230.25C226.255 1216.56 243.482 1209.56 260.116 1202.79C270.835 1198.36 281.991 1193.86 291.065 1187.53C295.565 1184.49 299.638 1180.76 303.124 1176.47C310.135 1167.7 313.407 1157.71 316.793 1147.11C319.847 1137.67 322.994 1127.95 329.059 1118.76C337.397 1106.13 349.387 1097.41 360.031 1090.52C365.331 1087.08 370.809 1083.8 376.11 1080.62C394.356 1069.74 411.61 1059.44 424.286 1041.82C427.454 1037.25 430.402 1032.54 433.118 1027.69L436.397 1022.15C441.396 1013.84 447.482 1004.43 456.576 998.258C469.93 989.238 486.95 989.389 501.857 990.716C515.732 991.942 529.434 993.943 542.68 995.863C566.325 999.367 588.596 1002.59 608.638 1007.47C628.01 1012.08 652.031 1017.92 669.47 998.925C682.508 984.788 682.691 966.288 682.932 946.618C683.088 934.299 683.249 921.522 686.823 909.9C692.564 891.257 706.744 873.318 725.874 860.729C742.069 849.993 757.725 849.065 774.28 848.061C785.821 847.771 797.435 846.162 808.915 843.263C814.487 841.715 819.631 839.817 824.625 837.99L828.479 836.592C843.447 831.129 854.964 826.963 868.311 829.932L867.518 831.09Z" fill="url(#paint16_linear)"/>
<path style="mix-blend-mode:screen" opacity="0.7" d="M846.982 861.082C840.959 863.213 835.07 865.876 829.383 869.04C826.377 870.586 823.282 872.186 819.949 873.796C814.091 876.728 808.055 879.155 801.91 881.049C787.347 885.32 774.484 884.152 762.064 883.086C746.963 881.742 732.715 880.462 717.376 889.276C700.255 899.118 686.386 915.368 680.247 932.758C676.486 943.416 675.782 955.302 675.149 966.746C674.13 984.183 673.06 1002.22 661.168 1015.84C645.085 1034.35 622.889 1031.47 604.984 1029.12C595.119 1027.85 584.655 1026.88 573.576 1025.84C563.908 1024.99 554.239 1024.13 543.872 1022.8C539.775 1022.32 535.638 1021.82 531.461 1021.31C523.044 1020.27 514.351 1019.19 505.693 1018.4C491.19 1017.12 476.225 1016.96 464.121 1024.53C455.83 1029.75 450 1037.66 445.094 1045.58C443.549 1047.83 442.172 1050.29 440.776 1052.6C438.499 1056.37 436.159 1060.27 433.597 1063.94C421.166 1081.72 404.963 1092.77 387.863 1104.53C384.096 1107.11 380.165 1109.78 376.321 1112.51C366.717 1119.31 355.794 1127.52 347.83 1138.7C342.714 1146.26 338.506 1154.38 335.316 1162.85C331.282 1172.49 327.571 1181.65 320.245 1189.58C316.708 1193.37 312.688 1196.63 308.327 1199.24C299.461 1204.7 288.966 1208.38 278.798 1212C263.465 1217.47 247.596 1223.13 238.003 1234.41C234.855 1238.34 232.065 1242.55 229.675 1246.98C227.177 1251.59 224.276 1255.98 221.014 1260.08C218.777 1262.77 216.214 1265.15 213.404 1267.15C205.212 1272.9 195.62 1274.41 186.41 1275.91C181.521 1276.57 176.644 1277.57 171.815 1278.92C152.027 1284.95 135.007 1301.61 130.437 1319.44C128.049 1328.73 131.221 1336.26 134.026 1342.91L134.958 1345.11C139.963 1356.95 145.74 1368.36 152.252 1379.26C158.78 1390.51 165.077 1400.82 171.523 1410.79C182.119 1427.68 194.951 1442.79 209.693 1455.76C217.952 1462.82 226.704 1468.87 235.158 1474.72C236.904 1475.91 238.474 1476.99 240.115 1478.11C248.073 1483.56 256.839 1490.23 262.392 1497.32C264.947 1500.44 266.893 1504.07 268.139 1508.06C268.827 1510.23 269.066 1512.58 268.841 1514.97C268.688 1515.92 268.411 1516.87 268.019 1517.78C267.685 1518.59 267.413 1519.43 267.206 1520.27C266.704 1523.03 266.369 1525.79 266.202 1528.55C265.392 1537.22 264.369 1550.36 258.707 1563.61C257.557 1566.38 256.119 1569.03 254.421 1571.52C250.215 1577.66 244.976 1581.83 239.104 1586.4C237.456 1587.72 235.732 1589.08 233.989 1590.54C226.545 1596.5 219.711 1603.29 213.631 1610.76L212.654 1610.09C218.827 1602.53 225.771 1595.67 233.336 1589.66C235.092 1588.18 236.816 1586.82 238.464 1585.5C246.266 1579.31 253.05 1573.89 257.576 1563.24C263.067 1550.28 264.199 1537.24 264.952 1528.62C265.115 1525.75 265.474 1522.87 266.025 1520.01C266.227 1519.15 266.496 1518.29 266.831 1517.45C267.166 1516.67 267.396 1515.86 267.512 1515.04C267.652 1512.85 267.379 1510.7 266.709 1508.72C265.519 1504.89 263.645 1501.4 261.178 1498.42C255.716 1491.42 246.97 1484.91 239.135 1479.43C237.495 1478.31 235.837 1477.17 234.179 1476.04C225.662 1470.21 216.866 1464.18 208.608 1457C193.823 1443.98 180.951 1428.79 170.318 1411.84C163.854 1401.85 157.509 1391.54 150.955 1380.22C144.484 1369.18 138.759 1357.64 133.816 1345.65C133.534 1344.94 133.218 1344.2 132.901 1343.47C130.028 1336.66 126.78 1328.9 129.257 1319.18C130.745 1313.57 133.233 1308.19 136.583 1303.35C145.316 1290.97 157.731 1281.85 171.527 1277.66C176.448 1276.31 181.416 1275.31 186.395 1274.66C195.485 1273.22 204.901 1271.71 212.761 1266.11C215.458 1264.15 217.91 1261.83 220.044 1259.21C223.261 1255.19 226.119 1250.87 228.574 1246.34C230.998 1241.84 233.833 1237.56 237.037 1233.57C246.876 1221.97 262.912 1216.26 278.344 1210.68C288.485 1207.1 298.905 1203.34 307.546 1197.98C311.771 1195.44 315.667 1192.27 319.1 1188.6C326.195 1180.85 329.939 1171.83 333.893 1162.31C337.084 1153.77 341.28 1145.58 346.378 1137.94C354.463 1126.58 365.506 1118.31 375.159 1111.51C379.002 1108.78 382.916 1106.1 386.714 1103.51C403.768 1091.89 419.869 1080.92 432.152 1063.36C434.625 1059.74 437.018 1055.88 439.264 1052.11C440.674 1049.79 442.12 1047.38 443.609 1045.05C448.723 1037.02 454.63 1028.96 463.09 1023.56C475.571 1015.7 490.84 1015.87 505.506 1017.17C514.177 1017.95 522.87 1019.03 531.287 1020.06C535.475 1020.59 539.612 1021.08 543.698 1021.56C553.978 1022.83 563.871 1023.69 573.385 1024.58C584.464 1025.63 594.945 1026.6 604.925 1027.9C622.469 1030.17 644.261 1033.01 659.857 1015.06C671.467 1001.85 672.442 984.814 673.543 966.771C674.204 955.173 674.927 943.185 678.743 932.333C685.001 914.621 699.119 898.081 716.537 888.067C732.235 879.067 746.659 880.352 761.932 881.67C774.259 882.759 787.004 883.874 801.354 879.688C807.406 877.799 813.347 875.385 819.112 872.473C822.431 870.882 825.526 869.282 828.515 867.725C834.833 864.286 841.404 861.501 848.125 859.414L846.982 861.082Z" fill="url(#paint17_linear)"/>
<path style="mix-blend-mode:screen" opacity="0.7" d="M814.956 907.856L812.89 909.152C807.121 912.747 801.005 915.587 794.699 917.598C778.762 922.456 765.04 919.173 751.792 915.983C737.298 912.517 723.625 909.238 708.279 916.75C692.416 924.72 679.538 938.591 672.442 955.35C668.409 965.246 667.155 976.437 665.966 987.271C664.176 1003.03 662.299 1019.36 651.941 1032.01C637.634 1049.58 618.676 1049.6 601.921 1049.66L601.653 1049.68L592.264 1049.65C578.162 1049.77 562.181 1049.9 544.956 1048.51C538.534 1048 531.874 1047.25 525.357 1046.62C520.106 1046.05 514.676 1045.45 509.306 1044.94C495.845 1043.71 481.853 1043.44 470.541 1049.97C462.361 1054.69 456.697 1062.03 452.216 1068.65C450.281 1071.47 448.445 1074.45 446.676 1077.34C444.907 1080.22 443.224 1082.9 441.418 1085.61C428.704 1104.18 412.866 1116.72 396.008 1129.88L391.343 1133.55C382.517 1140.45 372.535 1148.29 364.904 1158.09C360.259 1164.34 356.177 1170.99 352.72 1177.94C348.06 1186.66 343.714 1194.84 336.113 1201.86C332.624 1205.03 328.766 1207.7 324.661 1209.79C315.623 1214.1 306.296 1217.51 296.814 1219.98C282.613 1224.21 267.869 1228.56 258.45 1237.83C255.223 1241.16 252.277 1244.77 249.655 1248.61C247.049 1252.4 244.17 1255.99 241.046 1259.35C238.81 1261.68 236.345 1263.74 233.702 1265.51C226.321 1270.37 217.9 1272.19 209.74 1273.93C204.901 1274.83 200.093 1276.1 195.355 1277.71C176.894 1284.53 162.054 1300.67 159.246 1316.94C157.602 1326.82 162.416 1333.98 166.698 1340.34L167.778 1341.95C175.211 1352.86 183.367 1363.19 192.196 1372.85C196.878 1378.11 201.718 1383.47 206.745 1389.04C210.29 1392.95 213.931 1396.99 217.67 1401.16C231.07 1416.43 245.527 1430.63 260.947 1443.68C266.434 1448.25 272.048 1452.55 277.488 1456.74C282.326 1460.45 286.898 1463.96 291.38 1467.63C301.761 1476.1 308.259 1483.23 311.875 1490.11C313.989 1493.89 315.149 1498.24 315.257 1502.81C315.348 1505.47 314.642 1508.19 313.234 1510.59C312.461 1511.62 311.51 1512.5 310.44 1513.18C309.427 1513.82 308.516 1514.65 307.753 1515.6C305.584 1518.47 304.079 1524.19 302.213 1531.44C300.013 1541.04 296.847 1550.47 292.77 1559.57C287.744 1570.06 281.07 1575.09 273.344 1580.87C271.088 1582.55 268.761 1584.3 266.383 1586.28C257.142 1593.34 249.16 1602.12 242.912 1612.1C239.982 1616.38 237.065 1620.64 233.98 1624.7L233.003 1624.03C236.1 1619.98 239.072 1615.78 241.921 1611.45C248.227 1601.38 256.257 1592.51 265.546 1585.33C267.955 1583.35 270.295 1581.58 272.564 1579.87C280.14 1574.16 286.699 1569.23 291.561 1559.09C295.608 1550.1 298.747 1540.79 300.921 1531.31C302.806 1523.95 304.366 1518.04 306.713 1514.95C307.557 1513.87 308.56 1512.94 309.677 1512.19C310.6 1511.6 311.424 1510.85 312.103 1509.96C313.403 1507.78 314.042 1505.3 313.927 1502.88C313.834 1498.53 312.739 1494.38 310.732 1490.77C307.185 1484.05 300.76 1477 290.519 1468.63C286.023 1464.98 281.482 1461.46 276.644 1457.75C271.191 1453.58 265.573 1449.24 260.085 1444.68C244.667 1431.6 230.225 1417.36 216.858 1402.05C213.126 1397.88 209.492 1393.86 205.933 1389.93C200.911 1384.38 196.088 1379.04 191.37 1373.76C182.508 1364.05 174.32 1353.69 166.858 1342.73L165.778 1341.13C161.361 1334.59 156.371 1327.16 158.147 1316.82C159.304 1310.63 161.834 1304.67 165.528 1299.41C173.04 1288.79 183.483 1280.72 195.198 1276.48C199.993 1274.85 204.856 1273.56 209.751 1272.64C217.771 1270.92 226.086 1269.15 233.31 1264.44C235.856 1262.73 238.229 1260.74 240.379 1258.49C243.46 1255.18 246.303 1251.64 248.881 1247.91C251.538 1243.99 254.535 1240.32 257.828 1236.94C267.553 1227.45 282.399 1223.03 296.754 1218.76C306.153 1216.29 315.402 1212.91 324.375 1208.67C328.363 1206.61 332.114 1204.01 335.518 1200.93C342.895 1194.16 347.282 1185.92 351.767 1177.46C355.268 1170.44 359.394 1163.72 364.086 1157.41C371.854 1147.45 381.912 1139.58 390.779 1132.62L395.474 1128.94C412.026 1116 427.711 1103.76 440.156 1085.59L440.559 1085C442.373 1082.35 444.084 1079.51 445.776 1076.78C447.469 1074.04 449.412 1070.91 451.357 1068.03C455.953 1061.32 461.734 1053.77 470.166 1048.91C481.779 1042.24 496.005 1042.47 509.625 1043.69C515.012 1044.21 520.456 1044.79 525.693 1045.38C532.139 1046.08 538.8 1046.83 545.275 1047.26C562.452 1048.64 578.402 1048.52 592.473 1048.41L601.753 1048.33L602.039 1048.33C618.494 1048.29 637.131 1048.25 651.01 1031.2C661.135 1018.85 662.965 1002.77 664.717 987.223C665.96 976.311 667.146 964.957 671.408 954.988C678.645 937.902 691.774 923.759 707.946 915.628C723.712 907.914 737.582 911.241 752.26 914.776C765.419 918.02 778.932 921.16 794.547 916.399C800.709 914.39 806.677 911.565 812.297 907.996C813.795 907.119 815.223 906.194 816.73 905.265L814.956 907.856Z" fill="url(#paint18_linear)"/>
<path style="mix-blend-mode:screen" opacity="0.7" d="M782.365 955.454C767.565 958.351 754.831 953.438 742.443 948.618C728.278 943.099 714.87 937.897 699.27 944.283C691.9 947.464 685.051 952.081 679.123 957.867C673.195 963.652 668.305 970.489 664.738 977.982C660.37 987.245 658.481 997.829 656.661 1008.09C654.149 1022.05 651.591 1036.53 642.76 1048.16C630.045 1064.97 613.218 1067.71 598.388 1070.13C581.033 1073.33 563.604 1074.71 546.365 1074.27C538.63 1073.96 530.575 1073.14 522.793 1072.34C519.63 1072.02 516.479 1071.68 513.232 1071.33C501.591 1070.25 488.264 1069.57 477.28 1075.17C470.94 1078.44 465.506 1083.45 459.671 1091.45C457.161 1094.89 454.819 1098.54 452.659 1102.1L449.555 1107.01C437.358 1125.76 423.621 1139.54 406.825 1154.44L402.307 1158.38C395.268 1164.2 388.626 1170.55 382.443 1177.36C378.41 1182.18 374.64 1187.23 371.153 1192.47C365.643 1200.51 360.401 1208.17 352.251 1214.12C348.811 1216.65 345.12 1218.75 341.268 1220.35C332.683 1223.65 323.922 1226.18 315.081 1227.94C301.999 1230.94 288.498 1234.04 279.153 1241.25C275.74 1244 272.549 1247.06 269.621 1250.38C267.023 1253.29 264.272 1256.06 261.385 1258.66C259.182 1260.61 256.834 1262.36 254.369 1263.89C247.753 1267.5 240.771 1270.13 233.644 1271.7C228.749 1272.9 223.912 1274.49 219.177 1276.47C205.321 1282.66 189.735 1297.19 188.292 1314.42C187.398 1324.94 194.054 1331.8 199.937 1337.85L200.836 1338.78C210.718 1348.74 221.258 1357.98 232.394 1366.44L238.391 1371.13C246.754 1377.63 255.222 1384.21 263.993 1391.54C269.298 1395.92 274.797 1400.58 280.506 1405.38C290.541 1413.75 300.851 1422.54 312.096 1431.54L317.969 1436.25C326.661 1443.21 334.891 1449.8 342.515 1457.01C352.366 1466.32 358.541 1474.78 361.197 1482.77C362.844 1487.31 363.19 1492.38 362.197 1497.41C361.721 1499.63 360.822 1501.77 359.555 1503.7C358.932 1504.63 358.182 1505.46 357.333 1506.16C355.859 1507.27 354.233 1508.11 352.534 1508.64C350.955 1509.15 349.437 1509.91 348.041 1510.9C343.445 1514.35 340.221 1522.84 336.39 1532.82C333.625 1540.51 330.372 1548.05 326.654 1555.39C321.281 1565.52 314.349 1570.4 307.022 1575.56C304.257 1577.5 301.408 1579.53 298.462 1581.92C288.984 1589.09 281.119 1598.43 275.576 1609.09C269.66 1619.71 262.608 1629.69 254.573 1638.79L253.596 1638.13C261.601 1629.05 268.632 1619.13 274.536 1608.55C280.134 1597.7 288.106 1588.2 297.726 1580.9C300.686 1578.49 303.566 1576.45 306.362 1574.5C313.901 1569.26 320.363 1564.69 325.61 1554.81C329.3 1547.55 332.524 1540.07 335.259 1532.45C339.119 1522.32 342.455 1513.59 347.384 1509.87C348.898 1508.81 350.535 1507.99 352.236 1507.43C353.799 1506.95 355.295 1506.19 356.65 1505.17C358.933 1503.07 360.485 1500.24 361.011 1497.23C361.958 1492.44 361.62 1487.62 360.038 1483.31C357.398 1475.44 351.375 1467.17 341.667 1457.98C334.061 1450.79 325.821 1444.25 317.16 1437.28C315.208 1435.72 313.256 1434.15 311.301 1432.55C300.078 1423.48 289.678 1414.86 279.734 1406.32C274.044 1401.51 268.55 1396.89 263.251 1392.47C254.453 1385.18 245.898 1378.54 237.666 1372.07L231.657 1367.41C220.492 1358.9 209.917 1349.63 199.99 1339.64L199.09 1338.71C193.334 1332.78 186.186 1325.43 187.119 1314.34C187.784 1307.73 190.239 1301.24 194.193 1295.66C200.591 1286.64 209.189 1279.5 218.925 1275.11C223.715 1273.11 228.609 1271.5 233.56 1270.28C240.547 1268.73 247.389 1266.12 253.866 1262.57C256.268 1261.07 258.558 1259.37 260.709 1257.48C263.554 1254.91 266.272 1252.19 268.851 1249.33C271.829 1245.95 275.077 1242.83 278.552 1240.03C288.146 1232.64 301.801 1229.51 315.006 1226.47C323.768 1224.73 332.453 1222.22 340.964 1218.96C344.724 1217.41 348.327 1215.37 351.681 1212.89C359.598 1206.98 364.766 1199.51 370.231 1191.6C373.753 1186.31 377.559 1181.22 381.628 1176.34C387.86 1169.48 394.556 1163.1 401.652 1157.24L406.17 1153.3C422.934 1138.52 436.586 1124.83 448.671 1106.21C449.76 1104.62 450.744 1102.95 451.763 1101.32C454.002 1097.75 456.304 1094.05 458.842 1090.57C464.829 1082.38 470.505 1077.28 476.953 1073.85C488.216 1068.07 501.75 1068.74 513.554 1069.85C516.731 1070.15 519.895 1070.47 523.115 1070.86C530.897 1071.66 538.921 1072.49 546.625 1072.8C563.786 1073.23 581.135 1071.85 598.411 1068.68C613.007 1066.3 629.535 1063.58 641.909 1047.23C650.513 1035.82 653.068 1021.57 655.538 1007.78C657.424 997.538 659.285 986.732 663.73 977.321C667.377 969.663 672.375 962.674 678.435 956.761C684.494 950.848 691.494 946.129 699.028 942.878C715.153 936.361 728.732 941.651 743.2 947.175C755.723 952.06 768.676 957.065 783.596 953.731L782.365 955.454Z" fill="url(#paint19_linear)"/>
<path style="mix-blend-mode:screen" opacity="0.7" d="M757.681 991.51C749.196 989.082 741.115 985.609 733.596 981.161C719.53 973.663 706.264 966.569 690.108 971.709C683.225 974.121 676.733 977.921 671.025 982.879C665.317 987.837 660.513 993.849 656.902 1000.55C652.035 1009.27 649.415 1019.5 646.909 1029.37C643.828 1041.36 640.625 1053.9 633.49 1064.21C622.161 1080.75 606.464 1086.38 595.001 1090.47C579.544 1096.42 563.501 1099.62 547.59 1099.93C539.23 1099.97 530.454 1099.12 521.982 1098.28L517.148 1097.85C505.889 1096.77 494.062 1096.11 484.078 1100.55C477.494 1103.62 471.647 1108.43 467.171 1114.46C464.007 1118.62 461.089 1122.97 458.437 1127.48L457.698 1128.56C448.276 1143.81 437.447 1160.04 422.19 1175.4C418.769 1178.82 415.174 1182.13 411.614 1185.45C407.662 1189.09 403.568 1192.86 399.807 1196.74C396.777 1199.86 394.056 1202.9 391.416 1205.82C384.03 1214.02 377.651 1221.13 368.224 1226.44C364.849 1228.29 361.328 1229.76 357.725 1230.84C349.596 1233.12 341.379 1234.77 333.145 1235.77C321.249 1237.58 308.956 1239.39 299.706 1244.59C295.874 1246.87 292.2 1249.47 288.726 1252.35C286.451 1254.14 284.106 1255.99 281.487 1257.83C279.313 1259.37 277.073 1260.79 274.779 1262.09C269.386 1264.89 263.812 1267.19 258.125 1268.97C252.944 1270.6 247.856 1272.67 242.915 1275.16C230.543 1282 217.133 1296.34 217.269 1311.83C217.354 1323.16 225.955 1329.65 233.553 1335.4L233.832 1335.6C246.143 1344.61 259.062 1352.76 272.513 1360.01L277.259 1362.62C288.009 1368.6 299.162 1374.73 310.299 1381.75C327.178 1392.33 345.005 1404.97 363.293 1419.37C374.117 1427.54 384.289 1436.57 393.733 1446.38C403.241 1456.75 408.783 1466.25 410.561 1475.49C411.709 1480.84 411.232 1486.62 409.192 1492.05C408.545 1493.64 407.716 1495.17 406.726 1496.59C405.386 1498.62 403.623 1500.33 401.592 1501.58C399.391 1502.78 397.055 1503.63 394.676 1504.08C392.56 1504.49 390.473 1505.17 388.465 1506.11C381.018 1509.95 375.968 1520.62 369.986 1533.1C367.114 1539.09 364.191 1545.31 360.664 1551.28C354.882 1561.07 347.976 1565.66 340.723 1570.52C337.306 1572.7 333.984 1575.05 330.768 1577.57C318.909 1587.07 314.587 1593.31 308.318 1606.17C298.573 1625.9 287.13 1641.31 273.914 1652.03L272.902 1651.34C286.033 1640.7 297.506 1625.4 307.181 1605.62C313.204 1593.08 317.813 1586.35 330.046 1576.53C333.279 1573.97 336.625 1571.59 340.068 1569.38C347.568 1564.46 354.053 1560.19 359.621 1550.6C363.09 1544.67 366.035 1538.5 368.879 1532.54C374.969 1519.91 380.159 1508.96 388.057 1504.91C390.182 1503.92 392.389 1503.22 394.625 1502.8C396.904 1502.43 399.149 1501.68 401.274 1500.58C404.46 1498.5 406.927 1495.35 408.211 1491.72C410.125 1486.54 410.569 1481.04 409.487 1475.93C407.754 1466.93 402.346 1457.61 393.013 1447.36C383.614 1437.59 373.495 1428.6 362.73 1420.45C344.393 1406.05 326.654 1393.47 309.823 1382.9C298.641 1375.91 287.533 1369.74 276.77 1363.78L272.037 1361.15C258.534 1353.9 245.57 1345.72 233.22 1336.68L232.924 1336.47C225.522 1330.89 216.289 1323.93 216.193 1312.01C216.29 1304.87 218.715 1297.7 223.072 1291.67C228.236 1284.33 234.957 1278.28 242.616 1274.06C247.622 1271.53 252.782 1269.43 258.039 1267.78C263.645 1266.02 269.143 1263.76 274.466 1261.01C276.704 1259.74 278.889 1258.35 281.011 1256.85C283.585 1255.03 286.022 1253.27 288.192 1251.41C291.728 1248.49 295.467 1245.86 299.366 1243.55C308.794 1238.24 321.224 1236.38 333.261 1234.56C341.432 1233.55 349.587 1231.92 357.656 1229.67C361.195 1228.56 364.649 1227.05 367.953 1225.18C377.186 1219.97 383.484 1212.98 390.785 1204.87C393.439 1201.93 396.174 1198.87 399.217 1195.73C403.022 1191.82 407.064 1188.02 411.081 1184.4C414.574 1181.17 418.202 1177.74 421.573 1174.43C436.732 1159.18 447.507 1143.03 456.875 1127.85L457.614 1126.77C460.298 1122.22 463.247 1117.82 466.442 1113.61C471.075 1107.41 477.12 1102.46 483.921 1099.32C494.149 1094.79 506.209 1095.41 517.64 1096.46L522.474 1096.88C530.912 1097.7 539.643 1098.58 547.954 1098.53C563.76 1098.27 579.703 1095.12 595.065 1089.22C609.627 1083.93 622.524 1078.35 632.818 1063.43L632.912 1063.29C639.873 1053.12 642.989 1040.9 646.09 1029.07C648.646 1019.09 651.288 1008.79 656.228 999.887C659.934 993.028 664.86 986.875 670.709 981.802C676.558 976.728 683.207 972.839 690.256 970.369C706.886 965.063 720.991 972.616 734.615 979.898C742.409 984.052 750.342 988.302 758.858 990.241L757.681 991.51Z" fill="url(#paint20_linear)"/>
<path style="mix-blend-mode:screen" opacity="0.7" d="M737.129 1021.53C733.001 1019.13 728.96 1016.42 724.954 1013.74C711.621 1004.61 697.699 995.364 681.074 999.203C669.091 1001.95 657.462 1010.63 649.234 1023.24C643.591 1031.75 640.202 1041.56 636.545 1052.03C633.215 1061.69 629.766 1071.67 624.379 1080.43C615.221 1095.38 603.346 1104 591.878 1111.05C578.577 1119.62 563.724 1124.62 548.804 1125.56C539.917 1125.84 531.094 1125.44 522.408 1124.35L520.892 1124.2C510.064 1123.13 499.606 1122.46 490.638 1125.75C484.472 1128.03 478.863 1132.02 474.465 1137.28C471.156 1141.23 468.232 1145.5 465.743 1150.01C463.05 1154.66 460.538 1159.34 458.102 1163.87C451.943 1175.33 446.104 1186.18 437.537 1196.26C431.74 1202.77 425.512 1208.85 418.911 1214.44L417.207 1215.96C405.245 1226.65 396.475 1233.99 384.222 1238.64C380.926 1239.87 377.562 1240.8 374.17 1241.41C366.488 1242.65 358.79 1243.39 351.124 1243.62C340.434 1244.26 329.274 1244.84 320.229 1248.01C315.12 1249.94 310.133 1252.31 305.324 1255.1L301.595 1257.11L300.462 1257.71C298.805 1258.6 297.06 1259.54 295.219 1260.47C291.634 1262.22 287.858 1263.73 284.258 1265.24C278.163 1267.53 272.243 1270.44 266.592 1273.93C255.329 1281.47 244.618 1295.36 246.154 1309.33C247.397 1320.61 256.605 1326.75 266.754 1332.51C281.497 1340.58 296.798 1347.63 312.572 1353.65L317.607 1355.66C330.361 1360.73 343.549 1365.95 356.575 1372.16C377.104 1381.84 396.507 1393.61 414.531 1407.32C425.742 1415.57 435.942 1425.14 444.961 1435.88C446.586 1437.89 448.031 1439.86 449.394 1441.8L448.587 1442.97C447.178 1440.91 445.69 1438.86 443.991 1436.77C435.021 1426.11 424.887 1416.59 413.757 1408.37C395.788 1394.74 376.456 1383.02 356.01 1373.36C343.002 1367.16 329.832 1361.95 317.108 1356.87L312.074 1354.87C296.248 1348.84 280.901 1341.76 266.12 1333.66C257.775 1328.93 246.371 1322.45 244.966 1309.64C244.341 1301.85 246.715 1293.79 251.577 1287.18C255.503 1281.53 260.43 1276.66 266.046 1272.9C271.776 1269.36 277.775 1266.4 283.951 1264.08C287.537 1262.59 291.278 1261.06 294.871 1259.36C296.717 1258.47 298.431 1257.53 300.087 1256.65L301.221 1256.04L304.919 1254.05C309.813 1251.24 314.882 1248.85 320.071 1246.89C329.298 1243.64 340.485 1243.03 351.364 1242.37C358.978 1242.14 366.622 1241.4 374.252 1240.17C377.569 1239.56 380.86 1238.65 384.087 1237.45C396.128 1232.89 404.769 1225.66 416.642 1215.02L418.363 1213.52C424.831 1207.95 430.936 1201.93 436.627 1195.49C445.095 1185.52 450.846 1174.73 457.031 1163.34C459.467 1158.81 461.992 1154.11 464.712 1149.42C467.232 1144.83 470.207 1140.48 473.582 1136.47C478.144 1131.04 483.946 1126.9 490.323 1124.52C499.551 1121.15 510.12 1121.82 521.11 1122.91L522.643 1123.07C531.271 1124.16 540.035 1124.56 548.863 1124.27C563.563 1123.28 578.178 1118.3 591.259 1109.82C602.564 1102.86 614.283 1094.39 623.28 1079.68C628.59 1071.06 632.016 1061.16 635.323 1051.57C638.781 1041.54 642.37 1031.17 648.121 1022.51C656.558 1009.78 668.556 1000.75 680.879 997.916C698.077 993.951 712.074 1003.53 725.706 1012.64C729.686 1015.36 733.699 1018.11 737.882 1020.43L737.129 1021.53Z" fill="url(#paint21_linear)"/>
<g style="mix-blend-mode:screen">
<path style="mix-blend-mode:screen" d="M616.654 528.464C588.49 566.639 534.732 573.047 493.382 571.402C490.132 571.282 486.896 571.142 483.611 570.997C439.612 569.067 394.053 567.02 358.826 596.005C325.102 623.77 314.278 669.753 303.772 714.223C292.652 761.387 281.138 810.212 241.914 836.201C224.118 848.003 203.663 852.42 183.905 856.68C170.212 859.643 156.069 862.703 142.856 868.186C75.5469 896.107 51.5737 970.017 39.2624 1023.23C38.0912 1028.68 36.4069 1034.36 34.7588 1040.32C30.4051 1055.59 25.4945 1072.87 26.4496 1087.91C27.0093 1096.46 31.6661 1105.27 36.2035 1113.76C42.5293 1125.68 49.0617 1137.96 44.8143 1150.31C42.1283 1158 38.3835 1165.35 33.7064 1172.11C18.1166 1194.88 -6.77391 1211.54 -30.277 1225.2L-36.3784 1228.72C-65.1486 1245.31 -94.8847 1262.46 -112.09 1291.07C-124.873 1312.36 -128.777 1337.31 -132.518 1361.41C-133.007 1365.17 -133.557 1368.91 -134.169 1372.62L-136.368 1371.12C-135.84 1367.88 -135.329 1364.62 -134.845 1361.41C-130.992 1337.06 -127.146 1311.9 -114.009 1290.02C-96.5087 1260.72 -66.3617 1243.42 -37.2811 1226.63L-31.1971 1223.1C-1.3078 1205.65 30.9986 1183.4 42.666 1149.7C46.5435 1138.46 40.5531 1127.18 34.2556 1115.11C29.6108 1106.4 24.8158 1097.38 24.2363 1088.3C23.2384 1072.8 28.2271 1055.25 32.6184 1039.78C34.3378 1033.75 35.9429 1028.07 37.1744 1022.72C44.4628 990.923 55.9503 951.795 78.2599 919.212C94.2179 895.139 116.734 876.317 142.399 865.596C155.825 860.027 170.091 856.937 183.894 853.962C203.418 849.744 223.609 845.377 240.997 833.872C279.209 808.575 290.069 762.501 301.574 713.727C312.178 668.776 323.162 622.298 357.633 593.891C393.621 564.244 441.691 566.368 484.103 568.22L493.843 568.633C534.537 570.261 587.351 564.071 614.834 526.929L616.654 528.464Z" fill="url(#paint22_linear)"/>
<path style="mix-blend-mode:screen" d="M867.003 699.878C863.128 698.688 859.102 697.931 854.989 697.62C820.588 695.112 789.54 724.508 763.145 752.276C742.117 774.376 724.326 794.744 719.666 819.894C716.921 834.649 718.845 850.67 720.701 866.154C723.886 892.725 726.904 917.856 707.542 935.764C683.137 958.378 650.245 943.296 621.315 927.408C580.144 904.859 534.386 891.135 486.443 886.955C469.127 885.477 447.172 885.495 431.017 898.794C420.794 907.248 414.841 919.086 408.519 931.652C404.454 940.554 399.49 949.059 393.72 957.009C377.558 977.656 352.557 987.177 328.452 996.475C300.648 1007.13 274.47 1017.17 261.153 1042.65C254.363 1055.68 252.76 1070.52 251.202 1084.85C249.595 1099.66 247.942 1114.99 240.639 1128.62C229.495 1149.39 208.298 1161.25 187.867 1172.63C166.072 1184.81 145.481 1196.31 135.549 1217.71C132.491 1224.95 130.151 1232.44 128.57 1240.03C125.328 1253.26 121.97 1266.97 111.472 1276.01C99.7699 1285.99 85.0703 1285.67 70.8864 1285.27C65.1102 1285.01 59.2869 1285.11 53.4469 1285.58C29.3292 1288.01 4.25838 1305.38 -13.783 1332.18C-30.1042 1356.46 -39.119 1384.45 -47.8365 1411.53C-49.5744 1416.91 -51.2841 1422.51 -52.8986 1428.24L-54.9754 1426.82C-53.4752 1421.45 -51.8569 1416.12 -50.1971 1411C-41.4244 1383.74 -32.3236 1355.55 -15.7765 1330.78L-15.0777 1329.76C3.32096 1302.89 28.8726 1285.42 53.4482 1282.96C59.3934 1282.54 65.3187 1282.49 71.1939 1282.8C85.594 1283.14 99.1763 1283.45 110.004 1274.11C119.769 1265.69 122.863 1253.05 126.15 1239.67C127.788 1231.89 130.194 1224.22 133.329 1216.79C143.677 1194.53 165.637 1182.26 186.869 1170.42C206.968 1159.19 227.753 1147.59 238.483 1127.57C245.529 1114.44 247.157 1099.41 248.748 1084.84C250.338 1070.28 251.967 1055.13 259.014 1041.62C272.764 1015.29 300.715 1004.53 327.772 994.136C351.581 985.009 376.189 975.537 391.833 955.573C397.496 947.795 402.376 939.474 406.383 930.766C412.548 918.467 418.916 905.76 429.566 896.907C446.455 882.985 469.057 882.921 486.822 884.418C535.118 888.58 581.219 902.363 622.703 925.043C650.917 940.555 682.95 955.281 706.073 933.865C724.35 916.943 721.434 892.488 718.31 866.651C716.443 850.957 714.499 834.778 717.233 819.554C722.47 791.427 745.005 767.762 761.478 750.442C788.31 722.224 819.878 692.406 855.413 694.941C857.294 695.076 859.14 695.302 860.931 695.606L867.003 699.878Z" fill="url(#paint23_linear)"/>
</g>
<defs>
<linearGradient id="paint0_linear" x1="481" y1="984" x2="57.5004" y2="593" gradientUnits="userSpaceOnUse">
<stop stop-color="#32FFFF"/>
<stop offset="1" stop-color="#558FFF"/>
</linearGradient>
<linearGradient id="paint1_linear" x1="299.596" y1="990.399" x2="116.211" y2="864.835" gradientUnits="userSpaceOnUse">
<stop stop-color="#558FFF"/>
<stop offset="0.378125" stop-color="#32FFDA"/>
<stop offset="1" stop-color="white"/>
</linearGradient>
<linearGradient id="paint2_linear" x1="321.651" y1="1005.56" x2="132.589" y2="876.105" gradientUnits="userSpaceOnUse">
<stop stop-color="#558FFF"/>
<stop offset="0.378125" stop-color="#32FFDA"/>
<stop offset="1" stop-color="white"/>
</linearGradient>
<linearGradient id="paint3_linear" x1="372.726" y1="1040.57" x2="149.078" y2="887.439" gradientUnits="userSpaceOnUse">
<stop stop-color="#558FFF"/>
<stop offset="0.378125" stop-color="#32FFDA"/>
<stop offset="1" stop-color="white"/>
</linearGradient>
<linearGradient id="paint4_linear" x1="410.477" y1="1066.38" x2="165.381" y2="898.559" gradientUnits="userSpaceOnUse">
<stop stop-color="#558FFF"/>
<stop offset="0.378125" stop-color="#32FFDA"/>
<stop offset="1" stop-color="white"/>
</linearGradient>
<linearGradient id="paint5_linear" x1="428.392" y1="1078.77" x2="181.795" y2="909.927" gradientUnits="userSpaceOnUse">
<stop stop-color="#558FFF"/>
<stop offset="0.378125" stop-color="#32FFDA"/>
<stop offset="1" stop-color="white"/>
</linearGradient>
<linearGradient id="paint6_linear" x1="440.304" y1="1086.77" x2="198.309" y2="921.076" gradientUnits="userSpaceOnUse">
<stop stop-color="#558FFF"/>
<stop offset="0.378125" stop-color="#32FFDA"/>
<stop offset="1" stop-color="white"/>
</linearGradient>
<linearGradient id="paint7_linear" x1="452.789" y1="1095.39" x2="214.523" y2="932.25" gradientUnits="userSpaceOnUse">
<stop stop-color="#558FFF"/>
<stop offset="0.378125" stop-color="#32FFDA"/>
<stop offset="1" stop-color="white"/>
</linearGradient>
<linearGradient id="paint8_linear" x1="467.768" y1="1105.65" x2="224.925" y2="939.371" gradientUnits="userSpaceOnUse">
<stop stop-color="#558FFF"/>
<stop offset="0.378125" stop-color="#32FFDA"/>
<stop offset="1" stop-color="white"/>
</linearGradient>
<linearGradient id="paint9_linear" x1="486.679" y1="1118.6" x2="230.544" y2="943.219" gradientUnits="userSpaceOnUse">
<stop stop-color="#558FFF"/>
<stop offset="0.378125" stop-color="#32FFDA"/>
<stop offset="1" stop-color="white"/>
</linearGradient>
<linearGradient id="paint10_linear" x1="507.984" y1="1133.1" x2="235.297" y2="946.387" gradientUnits="userSpaceOnUse">
<stop stop-color="#558FFF"/>
<stop offset="0.378125" stop-color="#32FFDA"/>
<stop offset="1" stop-color="white"/>
</linearGradient>
<linearGradient id="paint11_linear" x1="529.998" y1="1148.26" x2="239.689" y2="949.481" gradientUnits="userSpaceOnUse">
<stop stop-color="#558FFF"/>
<stop offset="0.378125" stop-color="#32FFDA"/>
<stop offset="1" stop-color="white"/>
</linearGradient>
<linearGradient id="paint12_linear" x1="552.401" y1="1163.41" x2="244.07" y2="952.292" gradientUnits="userSpaceOnUse">
<stop stop-color="#558FFF"/>
<stop offset="0.378125" stop-color="#32FFDA"/>
<stop offset="1" stop-color="white"/>
</linearGradient>
<linearGradient id="paint13_linear" x1="605.086" y1="1214.37" x2="255.609" y2="975.082" gradientUnits="userSpaceOnUse">
<stop stop-color="#558FFF"/>
<stop offset="0.378125" stop-color="#32FFDA"/>
<stop offset="1" stop-color="white"/>
</linearGradient>
<linearGradient id="paint14_linear" x1="597.28" y1="1225.77" x2="265.884" y2="998.86" gradientUnits="userSpaceOnUse">
<stop stop-color="#558FFF"/>
<stop offset="0.378125" stop-color="#32FFDA"/>
<stop offset="1" stop-color="white"/>
</linearGradient>
<linearGradient id="paint15_linear" x1="589.898" y1="1236.55" x2="276.495" y2="1021.96" gradientUnits="userSpaceOnUse">
<stop stop-color="#558FFF"/>
<stop offset="0.378125" stop-color="#32FFDA"/>
<stop offset="1" stop-color="white"/>
</linearGradient>
<linearGradient id="paint16_linear" x1="581.835" y1="1248.33" x2="286.46" y2="1046.08" gradientUnits="userSpaceOnUse">
<stop stop-color="#558FFF"/>
<stop offset="0.378125" stop-color="#32FFDA"/>
<stop offset="1" stop-color="white"/>
</linearGradient>
<linearGradient id="paint17_linear" x1="571.742" y1="1263.07" x2="294.254" y2="1073.07" gradientUnits="userSpaceOnUse">
<stop stop-color="#558FFF"/>
<stop offset="0.378125" stop-color="#32FFDA"/>
<stop offset="1" stop-color="white"/>
</linearGradient>
<linearGradient id="paint18_linear" x1="556.044" y1="1285.99" x2="296.426" y2="1108.23" gradientUnits="userSpaceOnUse">
<stop stop-color="#558FFF"/>
<stop offset="0.378125" stop-color="#32FFDA"/>
<stop offset="1" stop-color="white"/>
</linearGradient>
<linearGradient id="paint19_linear" x1="539.495" y1="1310.24" x2="297.606" y2="1144.62" gradientUnits="userSpaceOnUse">
<stop stop-color="#558FFF"/>
<stop offset="0.378125" stop-color="#32FFDA"/>
<stop offset="1" stop-color="white"/>
</linearGradient>
<linearGradient id="paint20_linear" x1="527.215" y1="1328.55" x2="302.946" y2="1174.99" gradientUnits="userSpaceOnUse">
<stop stop-color="#558FFF"/>
<stop offset="0.378125" stop-color="#32FFDA"/>
<stop offset="1" stop-color="white"/>
</linearGradient>
<linearGradient id="paint21_linear" x1="589.459" y1="1237.23" x2="382.688" y2="1095.66" gradientUnits="userSpaceOnUse">
<stop stop-color="#558FFF"/>
<stop offset="0.378125" stop-color="#32FFDA"/>
<stop offset="1" stop-color="white"/>
</linearGradient>
<linearGradient id="paint22_linear" x1="300.14" y1="990.727" x2="115.729" y2="864.46" gradientUnits="userSpaceOnUse">
<stop stop-color="#558FFF"/>
<stop offset="0.378125" stop-color="#32FFDA"/>
<stop offset="1" stop-color="white"/>
</linearGradient>
<linearGradient id="paint23_linear" x1="552.837" y1="1163.82" x2="243.545" y2="952.048" gradientUnits="userSpaceOnUse">
<stop stop-color="#558FFF"/>
<stop offset="0.378125" stop-color="#32FFDA"/>
<stop offset="1" stop-color="white"/>
</linearGradient>
</defs>
</svg>
