<svg width="414" height="896" viewBox="0 0 414 896" fill="none" xmlns="http://www.w3.org/2000/svg">
<g clip-path="url(#clip0)">
<rect width="414" height="896" fill="white"/>
<rect x="-18" y="-62" width="664" height="1108" fill="url(#paint0_linear)"/>
<path d="M113.848 -168.491C301.132 -174.175 557.93 73.6584 563.145 80.8425C658.585 181.317 524.413 252.883 423.939 348.324C406.527 342.465 398.596 368.687 299.984 314.013C281.619 303.83 231.235 268.368 182.741 273.792C134.246 279.216 104.798 333.817 32.3851 328.37C0.992332 326.009 -66.5646 306.613 -141.278 247.554C-215.991 188.496 -20.1728 -116.967 113.848 -168.491Z" fill="url(#paint1_linear)"/>
<g opacity="0.52">
<path d="M472.433 220.579C446.501 217.202 423.441 235.818 408.331 252.575C407.15 253.887 405.951 255.22 404.764 256.566C388.636 274.615 371.965 293.276 346.712 296.116C322.522 298.84 299.857 285.634 277.95 272.859C254.769 259.38 230.913 245.45 205.659 250.956C194.177 253.455 184.613 259.792 175.353 265.911C168.918 270.173 162.259 274.573 154.964 277.721C117.799 293.617 78.8218 274.951 52.7353 259.551C50.0991 257.943 47.1741 256.463 44.1509 254.849C36.3352 250.755 27.4863 246.114 21.7865 239.998C18.5172 236.484 16.76 231.281 15.0693 226.241C12.7529 219.331 10.3442 212.171 3.92295 209.186C-0.158462 207.339 -4.50615 206.033 -8.97363 205.311C-24.0122 202.81 -40.1595 206.251 -54.5871 210.295L-58.349 211.353C-76.0694 216.369 -94.4062 221.551 -112.559 217.422C-126.072 214.356 -137.597 206.417 -148.736 198.73C-150.379 197.591 -152.036 196.451 -153.697 195.333L-153.816 196.049C-152.252 197.105 -150.716 198.167 -149.18 199.229C-137.965 206.941 -126.371 214.949 -112.704 218.052C-94.3559 222.215 -75.9223 217.013 -58.0845 211.935L-54.3356 210.875C-35.8108 205.688 -14.4397 201.49 3.60698 209.718C9.74954 212.529 12.1029 219.538 14.3861 226.326C16.0934 231.427 17.8672 236.692 21.2366 240.327C27.0255 246.552 35.9356 251.226 43.7996 255.352C46.8768 256.963 49.7812 258.486 52.3878 260.031C67.9086 269.207 87.9519 279.509 109.501 283.093C124.396 285.57 139.987 284.83 155.354 278.277C162.702 275.126 169.391 270.707 175.856 266.427C185.057 260.345 194.559 254.056 205.921 251.549C230.91 246.116 253.571 259.345 277.612 273.364C299.643 286.195 322.408 299.523 346.88 296.717C372.419 293.843 389.187 275.081 405.385 256.938L408.965 252.95C423.95 236.3 446.78 217.857 472.373 221.178L472.433 220.579Z" fill="white"/>
<path d="M474.796 206.368C472.378 206.158 469.977 205.759 467.622 205.175C466.5 204.918 465.329 204.641 464.187 204.428C447.487 201.218 430.062 207.593 412.498 223.416C407.829 227.663 403.47 232.166 399.444 236.902L396.735 240.076C382.055 257.303 365.413 276.834 341.239 280.671C335.324 281.597 329.23 281.619 323.217 280.738C308.291 278.688 293.914 271.889 280.542 264.836C277.32 263.131 274.044 261.346 270.88 259.616C258.616 252.899 245.808 245.916 232.963 242.541C223.71 239.907 213.919 239.558 204.683 241.533C193.567 244.01 184.21 250.066 175.154 255.927C168.799 260.027 162.24 264.303 155.123 267.271C143.963 272.051 131.369 273.93 118.763 272.695C96.0919 270.55 74.4382 259.149 55.9288 248.634C53.0322 246.983 49.7725 245.424 46.4609 243.774C38.8043 240.01 30.8876 236.121 25.3583 230.91C22.0619 227.801 20.1282 223.176 18.2759 218.706C15.7006 212.548 13.046 206.143 6.72592 203.595C2.99785 202.088 -0.912498 200.998 -4.91068 200.35C-11.8918 199.294 -18.9645 199.106 -25.9188 199.791C-34.1081 200.572 -42.1856 201.926 -50.0752 203.842C-52.661 204.426 -55.2593 205.03 -57.87 205.656C-62.5755 206.756 -67.4227 207.903 -72.275 208.92C-83.0205 211.179 -94.5222 212.996 -105.876 211.108L-106.019 211.084C-110.243 210.353 -114.374 209.183 -118.325 207.599C-126.527 204.376 -134.375 199.516 -141.944 194.82C-145.399 192.667 -148.927 190.466 -152.595 188.383L-152.716 189.111C-149.173 191.139 -145.713 193.269 -142.306 195.391C-134.701 200.105 -126.828 204.981 -118.563 208.226C-114.576 209.839 -110.403 211.032 -106.135 211.778L-105.991 211.802C-94.5074 213.712 -82.9089 211.876 -72.0945 209.605C-67.2292 208.59 -62.369 207.446 -57.6616 206.334C-55.0565 205.715 -52.4533 205.107 -49.8799 204.518C-42.0215 202.63 -33.9793 201.298 -25.8278 200.532C-12.9473 199.435 -2.39373 200.664 6.42632 204.27C12.4545 206.723 14.9391 212.702 17.5735 218.986C19.4945 223.527 21.3908 228.216 24.8712 231.425C30.4822 236.708 38.4602 240.631 46.167 244.415C49.5325 246.062 52.7104 247.631 55.5847 249.255C72.4944 258.849 92.0221 269.195 112.607 272.618C114.639 272.956 116.694 273.228 118.763 273.42C131.499 274.664 144.222 272.762 155.496 267.929C162.689 264.904 169.272 260.643 175.642 256.534C184.638 250.711 193.948 244.694 204.927 242.24C214.045 240.253 223.722 240.567 232.875 243.146C245.628 246.436 258.315 253.422 270.605 260.143C273.775 261.839 277.045 263.658 280.267 265.363C293.7 272.45 308.193 279.28 323.221 281.358C329.315 282.243 335.49 282.218 341.484 281.285C365.921 277.398 382.666 257.732 397.421 240.459C398.313 239.438 399.231 238.34 400.129 237.285C404.122 232.571 408.442 228.085 413.068 223.85C430.459 208.185 447.63 201.885 464.114 205.024C465.234 205.21 466.389 205.507 467.511 205.764C469.878 206.368 472.292 206.793 474.725 207.034L474.796 206.368Z" fill="white"/>
<path d="M480.367 172.87C480.234 173.105 480.09 173.327 479.971 173.564C479.51 174.399 479.067 175.296 478.622 176.204C476.161 181.186 473.374 186.838 466.049 188.484C462.31 189.324 458.402 188.604 454.624 187.906C453.466 187.713 452.268 187.514 451.109 187.321C435.325 185.035 419.048 191.916 402.71 207.768C398.384 212.029 394.334 216.504 390.579 221.174L388.85 223.365C374.841 240.656 358.964 260.256 335.846 265.146C330.316 266.283 324.576 266.627 318.843 266.166C306.869 265.273 294.213 261.403 277.808 253.6C273.504 251.563 269.155 249.308 264.926 247.143C253.958 241.484 242.632 235.648 231.182 232.808C222.133 230.398 212.614 230.194 203.663 232.219C192.937 234.68 183.773 240.464 174.909 246.052C168.674 249.997 162.216 254.068 155.247 256.954C144.381 261.58 132.107 263.327 119.861 261.991C99.4117 259.759 80.2916 249.377 61.8069 239.357L59.0829 237.875C55.8348 236.165 52.259 234.495 48.4768 232.779C41.4606 229.589 34.2085 226.29 28.939 222.011C25.6135 219.318 23.5051 215.261 21.4652 211.355C18.6571 205.953 15.7472 200.36 9.54529 198.147C6.21945 196.966 2.778 196.088 -0.723427 195.527C-7.86714 194.458 -15.0952 194.167 -22.2424 194.661C-30.1077 195.139 -37.9062 196.073 -45.5878 197.456C-52.5676 198.634 -59.563 200.066 -66.9679 201.547L-67.2025 201.59C-78.3592 203.827 -88.8922 205.934 -99.5148 204.799C-103.468 204.362 -107.37 203.516 -111.139 202.282C-119.396 199.634 -127.097 195.418 -135.266 190.949C-140.498 188.056 -145.959 185.09 -151.622 182.535L-151.734 183.206C-146.171 185.721 -140.847 188.629 -135.611 191.5C-127.406 195.986 -119.667 200.22 -111.334 202.892C-107.503 204.15 -103.536 205.01 -99.5166 205.454C-88.7488 206.601 -78.16 204.48 -66.9474 202.229L-66.7128 202.186C-59.3079 200.705 -52.3182 199.307 -45.3607 198.102C-37.7237 196.721 -29.9699 195.788 -22.1493 195.308C-9.17501 194.613 0.813208 195.701 9.25893 198.743C15.1632 200.894 17.8958 206.026 20.7685 211.601C22.786 215.562 24.978 219.68 28.4204 222.474C33.7604 226.812 41.0628 230.131 48.1291 233.341C51.8592 235.048 55.4556 236.675 58.672 238.415L61.409 239.899C78.5911 249.223 96.3642 258.855 115.27 261.999C116.754 262.246 118.225 262.491 119.731 262.612C132.11 263.967 144.518 262.202 155.5 257.523C162.526 254.622 169.015 250.521 175.278 246.57C184.083 241.018 193.213 235.275 203.801 232.838C212.626 230.841 222.012 231.039 230.935 233.41C242.255 236.228 253.583 242.053 264.463 247.674C268.69 249.85 273.093 252.103 277.382 254.149C293.887 261.992 306.62 265.887 318.7 266.785C324.497 267.26 330.303 266.91 335.892 265.75C359.273 260.81 375.233 241.119 389.31 223.734L391.095 221.529C394.837 216.878 398.87 212.42 403.178 208.173C419.342 192.48 435.407 185.669 450.929 187.922C452.074 188.113 453.272 188.312 454.418 188.503C458.313 189.221 462.273 189.949 466.166 189.065C473.825 187.345 476.688 181.554 479.209 176.454C479.437 175.966 479.675 175.503 479.912 175.039L480.367 172.87Z" fill="white"/>
<path d="M484.458 148.27C476.961 150.145 470.86 153.679 467.214 158.627C466.73 159.283 466.252 159.987 465.755 160.723C462.975 164.809 459.826 169.419 452.479 170.956C448.917 171.697 445.254 171.193 441.709 170.709C440.498 170.507 439.235 170.379 438.011 170.257C422.91 168.857 408.164 176.016 392.89 192.15C389.204 196.051 385.535 200.41 381.681 205.487L380.892 206.525C367.543 223.961 352.415 243.721 330.291 249.711C325.165 251.085 319.802 251.769 314.378 251.742C302.405 251.727 289.88 248.837 274.993 242.526C269.867 240.364 264.68 237.841 259.655 235.392C249.814 230.598 239.628 225.63 229.365 223.222C220.543 221.012 211.31 220.923 202.647 222.965C192.299 225.406 183.342 230.909 174.696 236.23C168.62 240.203 162.152 243.704 155.361 246.695C144.789 251.164 132.835 252.775 120.951 251.333C103.568 249.167 87.3707 240.522 71.6989 232.174C68.5939 230.488 65.3848 228.785 62.2257 227.184C58.5258 225.294 54.3622 223.538 50.2915 221.867C43.9697 219.249 37.4361 216.537 32.5122 213.157C29.1614 210.858 26.8728 207.402 24.662 204.041C21.6061 199.405 18.4428 194.611 12.3702 192.747C9.62934 191.916 6.82986 191.267 3.99585 190.805C-3.45393 189.713 -10.9792 189.308 -18.4564 189.597C-26.0122 189.779 -33.5355 190.304 -40.9963 191.169C-48.2264 192.001 -55.1165 193.042 -62.0259 194.36C-63.9884 194.735 -65.9347 195.121 -67.8649 195.517C-76.4501 197.176 -84.7506 198.812 -92.8913 198.523C-96.6109 198.376 -100.318 197.854 -103.939 196.966C-112.406 194.938 -120.529 191.085 -129.047 187.026C-136.081 183.521 -143.361 180.439 -150.835 177.801L-150.943 178.45C-143.568 181.061 -136.385 184.111 -129.447 187.579C-120.762 191.678 -112.653 195.54 -104.118 197.638C-100.438 198.547 -96.6692 199.079 -92.8876 199.225C-84.6018 199.527 -76.3776 197.866 -67.6544 196.101C-65.731 195.72 -63.7778 195.32 -61.8154 194.944C-54.9078 193.637 -48.0381 192.558 -40.8547 191.765C-33.4164 190.906 -25.9162 190.385 -18.3836 190.205C-8.98363 190.003 2.04725 190.212 12.1825 193.312C17.9743 195.094 20.9357 199.574 24.0564 204.302C26.3117 207.718 28.63 211.237 32.1145 213.617C37.1109 217.044 43.6817 219.774 50.0219 222.442C54.0778 224.122 58.2712 225.86 61.8948 227.725C65.0502 229.349 68.2479 231.121 71.368 232.715C86.2278 240.636 101.567 248.811 117.986 251.541C118.962 251.704 119.926 251.864 120.912 251.97C132.94 253.417 145.035 251.772 155.726 247.235C162.577 244.202 169.102 240.656 175.231 236.635C183.832 231.342 192.729 225.876 202.963 223.473C211.506 221.461 220.609 221.545 229.309 223.715C239.482 226.109 249.618 231.057 259.408 235.83C264.433 238.28 269.631 240.816 274.783 242.983C289.791 249.29 302.411 252.254 314.492 252.264C319.983 252.31 325.416 251.637 330.613 250.268C353.027 244.22 368.172 224.358 381.589 206.84L382.365 205.799C386.214 200.757 389.866 196.418 393.55 192.529C408.623 176.56 423.168 169.473 438.005 170.853C439.218 170.961 440.409 171.124 441.677 171.3C445.288 171.795 449.018 172.299 452.731 171.536C460.355 169.939 463.599 165.159 466.441 161.024C466.921 160.309 467.398 159.616 467.887 158.926C471.339 154.261 477.255 150.872 484.378 148.993L484.458 148.27Z" fill="white"/>
<path d="M486.408 136.55C472.862 135.128 460.906 137.664 454.445 143.688C453.891 144.204 453.344 144.756 452.833 145.337C449.732 148.458 446.24 151.993 438.945 153.376C435.657 153.862 432.28 153.888 428.937 153.454C427.618 153.34 426.297 153.237 424.968 153.18C410.829 152.676 397.179 160.251 383.192 176.529C379.876 180.374 376.481 184.697 372.883 189.758C360.315 207.242 346.073 227.067 324.911 234.189C320.166 235.768 315.171 236.763 310.062 237.145C298.157 238.088 285.819 236.165 272.319 231.254C266.571 229.129 260.75 226.477 255.12 223.88C246.199 219.754 236.979 215.496 227.682 213.47C219.084 211.466 210.134 211.491 201.752 213.543C191.784 215.954 183.086 221.185 174.607 226.229C168.596 230.036 162.221 233.391 155.544 236.26C145.267 240.575 133.631 242.05 122.111 240.499C106.956 238.376 92.9433 230.831 79.3565 223.543C74.8114 221.104 70.1066 218.579 65.4271 216.304C61.0036 214.254 56.4683 212.411 51.8409 210.782C46.417 208.959 41.1594 206.739 36.1252 204.146C32.7343 202.249 30.2319 199.354 27.8725 196.565C24.5689 192.694 21.1541 188.689 15.2089 187.186C13.2953 186.704 11.3406 186.308 9.38754 185.984C1.39194 184.841 -6.6704 184.303 -14.7105 184.373C-23.2704 184.271 -30.1803 184.384 -36.4431 184.711C-43.3318 185.025 -50.1643 185.777 -56.8877 186.959C-60.4735 187.602 -63.9481 188.38 -67.311 189.131C-73.9009 190.619 -80.1276 192.016 -86.3661 192.276C-89.8499 192.424 -93.3586 192.233 -96.8284 191.705C-105.668 190.387 -114.434 186.86 -123.702 183.132C-132.117 179.745 -140.809 176.253 -150.301 174.113L-150.407 174.75C-141.045 176.868 -132.391 180.342 -124.026 183.71C-114.707 187.458 -105.9 190.98 -96.9604 192.338C-93.4438 192.879 -89.887 193.079 -86.3549 192.933C-80.0364 192.674 -73.7798 191.259 -67.0988 189.786C-63.7359 189.035 -60.2614 188.257 -56.7015 187.609C-50.0136 186.437 -43.2181 185.692 -36.3668 185.379C-30.13 185.048 -23.235 184.943 -14.6882 185.043C-4.32698 185.176 5.73592 185.493 15.034 187.835C20.7226 189.272 23.9149 193.007 27.2983 196.96C29.7152 199.806 32.236 202.751 35.7496 204.715C40.8206 207.325 46.1161 209.559 51.5787 211.393C56.1847 213.002 60.6957 214.834 65.0905 216.879C69.757 219.152 74.4488 221.675 78.9958 224.103C92.1515 231.167 105.75 238.468 120.437 240.911L122.025 241.175C133.686 242.746 145.464 241.254 155.868 236.887C162.547 233.991 168.926 230.613 174.942 226.788C183.351 221.767 192.028 216.58 201.886 214.185C210.147 212.163 218.967 212.136 227.442 214.109C236.655 216.155 245.825 220.393 254.711 224.49C260.352 227.1 266.193 229.791 271.984 231.9C285.598 236.853 298.053 238.796 310.07 237.824C315.245 237.44 320.306 236.433 325.112 234.83C346.484 227.65 360.795 207.731 373.418 190.163C377.025 185.127 380.394 180.799 383.641 176.966C397.469 160.919 410.94 153.373 424.827 153.869C426.157 153.915 427.411 154.019 428.796 154.144C432.216 154.577 435.668 154.548 439.033 154.057C446.549 152.629 450.272 148.91 453.288 145.822C453.851 145.249 454.398 144.697 454.898 144.184C461.161 138.303 472.866 135.83 486.175 137.225L486.408 136.55Z" fill="white"/>
<path d="M487.467 130.178C485.667 129.575 483.795 129.006 481.84 128.447C465.477 123.855 450.111 123.966 441.758 128.739C441.031 129.167 440.266 129.66 439.523 130.109C435.41 132.968 430.56 134.922 425.353 135.821C422.372 136.241 419.332 136.356 416.291 136.161C414.734 136.113 413.269 136.068 411.803 136.117C398.468 136.483 386.241 144.354 373.346 160.906C370.402 164.685 367.333 168.98 363.96 174.055C353.709 189.352 339.655 210.296 319.391 218.701C315.008 220.497 310.373 221.814 305.585 222.626C293.667 224.699 281.188 223.837 269.498 220.132C263.129 218.041 256.903 215.592 250.861 212.8C242.716 209.235 234.309 205.557 225.836 203.809C217.472 201.99 208.808 202.109 200.704 204.154C191.128 206.538 182.625 211.485 174.392 216.254C168.478 219.903 162.225 223.121 155.692 225.878C144.799 230.147 133.881 231.43 123.247 229.72C109.765 227.595 97.4591 220.813 85.5413 214.27C80.0357 211.25 74.3592 208.131 68.6052 205.479C63.5113 203.273 58.2655 201.373 52.9055 199.792C48.4454 198.471 44.0648 196.927 39.7858 195.167C36.5678 193.557 33.6585 191.492 31.1811 189.058C27.6818 185.962 23.9503 182.734 18.1306 181.603C17.3755 181.477 16.6203 181.352 15.8521 181.224C8.54567 180.168 1.18805 179.546 -6.17036 179.362L-10.8704 179.142L-15.9648 178.879C-21.4575 178.597 -26.6449 178.331 -31.7976 178.257C-38.4803 178.074 -45.1358 178.508 -51.6552 179.55C-56.3627 180.413 -61.0071 181.486 -65.5706 182.767C-70.198 184.118 -74.9433 185.174 -79.7706 185.924C-83.0171 186.357 -86.3215 186.486 -89.6289 186.308C-99.0976 185.797 -108.836 182.564 -119.131 179.133C-126.615 176.501 -134.256 174.269 -142.011 172.452L-149.677 170.838L-149.783 171.475L-142.146 173.107C-134.422 174.917 -126.81 177.139 -119.356 179.762C-108.998 183.215 -99.2223 186.466 -89.6326 186.974C-86.2721 187.152 -82.9149 187.024 -79.6143 186.594C-74.7548 185.836 -69.9773 184.775 -65.3175 183.417C-60.7965 182.138 -56.1928 181.069 -51.5249 180.215C-45.0545 179.18 -38.4488 178.75 -31.8162 178.932C-26.6766 179.004 -21.5021 179.268 -16.0244 179.559L-10.9281 179.81L-6.21501 180.033C1.84542 180.403 10.1738 180.771 17.9482 182.297C23.5484 183.381 26.9828 186.384 30.614 189.572C33.1657 192.032 36.1545 194.11 39.4531 195.719C43.7542 197.497 48.1599 199.053 52.6471 200.381C57.9876 201.959 63.2167 203.848 68.2985 206.036C74.0153 208.67 79.6918 211.789 85.1713 214.805C97.0278 221.314 109.276 228.04 122.739 230.279L123.182 230.352C133.963 232.145 145.028 230.781 156.062 226.466C162.629 223.694 168.915 220.462 174.863 216.8C183.04 212.045 191.51 207.139 200.949 204.768C208.935 202.735 217.476 202.596 225.73 204.364C234.113 206.097 242.48 209.769 250.575 213.314C256.639 216.126 262.888 218.595 269.283 220.704C281.093 224.47 293.71 225.355 305.76 223.263C310.607 222.447 315.299 221.115 319.734 219.296C340.184 210.817 354.294 189.777 364.663 174.418C368.032 169.366 371.088 165.068 374.027 161.312C386.786 144.936 398.827 137.139 411.933 136.781C413.371 136.74 414.823 136.783 416.352 136.838C419.453 137.029 422.552 136.909 425.591 136.48C430.892 135.573 435.832 133.594 440.027 130.696C440.79 130.215 441.518 129.775 442.232 129.344C450.409 124.67 465.529 124.589 481.701 129.126C483.696 129.68 485.593 130.264 487.418 130.872L487.467 130.178Z" fill="white"/>
<path d="M488.021 126.844L485.072 125.43C479.321 122.828 473.395 120.561 467.334 118.645C451.421 113.437 437.476 111.68 429.079 113.815C427.754 114.144 426.416 114.541 424.982 115.039C420.728 116.485 416.309 117.567 411.787 118.27C409.211 118.616 406.601 118.792 403.979 118.796C402.151 118.843 400.419 118.882 398.699 119.087C382.458 120.678 370.859 134.827 363.559 145.329C360.975 149.039 358.238 153.191 355.073 158.382C344.093 176.13 331.817 194.189 313.918 203.256C309.895 205.286 305.622 206.927 301.168 208.152C290.195 211.474 278.188 211.744 266.732 208.926C259.964 207.047 253.368 204.663 247.017 201.801C239.506 198.692 231.847 195.501 224.065 194.02C215.921 192.451 207.549 192.704 199.725 194.754C190.555 197.111 182.274 201.768 174.275 206.261C168.426 209.749 162.264 212.828 155.843 215.473C145.119 219.536 134.543 220.771 124.373 218.927C112.285 216.788 101.334 210.547 90.734 204.528C84.6352 200.903 78.308 197.598 71.7875 194.63C65.827 192.271 59.6633 190.373 53.369 188.96C49.7874 188.048 46.3992 187.181 43.337 186.204C40.125 185.064 37.0906 183.539 34.3222 181.676C30.6791 179.445 26.9674 177.144 21.6811 176.265L20.9129 176.137C15.4309 175.389 9.66483 175.062 4.09787 174.744C0.40084 174.527 -3.40414 174.315 -7.16035 173.971C-10.5892 173.669 -13.9768 173.281 -17.2603 172.911C-20.5438 172.54 -23.9835 172.143 -27.2691 171.866C-33.7192 171.192 -40.2051 171.294 -46.5471 172.168C-52.1571 173.192 -57.6307 174.657 -62.9035 176.545C-66.4443 177.722 -69.7989 178.825 -73.1953 179.616C-76.2138 180.33 -79.3179 180.778 -82.4626 180.952C-92.8668 181.56 -104.07 178.527 -115.938 175.303C-121.622 173.761 -127.467 172.216 -133.563 170.898C-138.81 169.862 -143.967 168.688 -149.12 167.492L-149.226 168.13C-144.073 169.326 -138.916 170.499 -133.746 171.593C-127.707 172.854 -121.831 174.451 -116.157 175.979C-104.225 179.215 -92.9562 182.258 -82.4199 181.66C-79.228 181.484 -76.0777 181.028 -73.0149 180.301C-69.5774 179.505 -66.221 178.391 -62.6541 177.218C-57.4204 175.358 -51.9909 173.913 -46.4281 172.901C-40.1535 172.015 -33.732 171.903 -27.3455 172.567C-24.0599 172.844 -20.7634 173.217 -17.3627 173.607C-13.962 173.997 -10.6655 174.37 -7.23672 174.671C-3.47861 175.004 0.350513 175.231 4.04944 175.437C9.60147 175.764 15.3545 176.09 20.7975 176.831C26.2404 177.573 29.9969 179.846 33.8926 182.248C36.7109 184.149 39.8051 185.699 43.0821 186.851C46.1685 187.844 49.5716 188.702 53.1513 189.625C59.4057 191.043 65.529 192.941 71.4489 195.299C77.9447 198.251 84.2477 201.541 90.3229 205.15C100.969 211.212 111.983 217.475 124.215 219.638L124.892 219.75C134.983 221.428 145.487 220.217 156.118 216.15C162.572 213.49 168.767 210.397 174.651 206.896C182.615 202.374 190.884 197.786 199.916 195.453C207.623 193.418 215.881 193.181 223.901 194.764C231.592 196.23 239.265 199.412 246.7 202.496C253.1 205.349 259.743 207.722 266.555 209.587C278.15 212.444 290.304 212.17 301.409 208.8C305.9 207.557 310.212 205.899 314.274 203.853C332.333 194.708 344.637 176.56 355.695 158.743C358.899 153.558 361.581 149.42 364.15 145.72C371.392 135.324 382.847 121.315 398.788 119.757C400.461 119.591 402.179 119.561 404.003 119.455C406.662 119.446 409.309 119.265 411.921 118.912C416.491 118.21 420.958 117.128 425.263 115.682C426.677 115.227 428.007 114.794 429.305 114.472C437.567 112.338 451.333 114.124 467.107 119.285C473.123 121.196 479.006 123.452 484.717 126.037C485.776 126.533 486.83 127.036 487.878 127.545L488.021 126.844Z" fill="white"/>
<path d="M488.68 122.885C483.44 121.183 478.313 119.194 473.332 116.93L469.974 115.482C465.411 113.554 460.676 111.773 456.092 110.052L452.842 108.833C435.468 102.272 423.896 99.1198 416.412 98.9042C412.298 98.7812 408.312 99.3345 401.698 100.246L398.234 100.722C396.195 100.991 394.152 101.13 392.279 101.287C390.035 101.411 387.806 101.649 385.604 102.001C370.801 104.602 360.824 118.167 353.769 129.693C351.068 134.108 348.441 138.722 346.26 142.663C336.288 160.146 324.834 177.687 308.506 187.764C304.828 190.021 300.92 191.985 296.826 193.632C285.231 198.345 274.832 199.644 264.031 197.731C257.144 196.504 250.199 193.77 243.479 191.133C236.759 188.495 229.513 185.641 222.348 184.391C214.427 183.007 206.325 183.376 198.781 185.465C190.034 187.775 182.001 192.146 174.222 196.36C168.429 199.69 162.349 202.634 156.031 205.168C145.307 209.231 135.33 210.167 125.528 208.28C114.555 206.116 104.753 200.288 95.2683 194.642C88.79 190.793 82.0943 186.803 74.9972 183.939C68.099 181.166 60.1997 179.747 53.2228 178.494C51.0224 178.128 48.9486 177.724 46.9679 177.325C43.7379 176.61 40.5867 175.604 37.5655 174.323C33.225 172.405 28.5582 171.185 23.7936 170.723C20.6214 170.488 17.328 170.338 14.1425 170.182C8.30132 170.007 2.46104 169.57 -3.3557 168.874C-7.40359 168.353 -11.3746 167.61 -15.2042 166.903C-17.6651 166.494 -20.2001 165.967 -22.6628 165.569C-28.834 164.411 -35.1413 164.209 -41.2963 164.973C-48.0299 165.958 -53.7942 168.355 -59.3702 170.667C-61.8276 171.685 -64.1564 172.654 -66.5295 173.487C-69.3249 174.483 -72.2251 175.256 -75.1965 175.799C-86.9688 177.875 -100.469 174.894 -114.665 171.749C-118.033 171.002 -121.531 170.233 -124.999 169.528C-133.118 167.815 -140.893 165.809 -148.492 163.715L-148.598 164.352C-141.012 166.444 -133.224 168.452 -125.289 170.064C-121.795 170.774 -118.309 171.541 -114.954 172.286C-109.275 173.534 -103.738 174.759 -98.3607 175.653C-90.1579 177.018 -82.3753 177.61 -75.1664 176.342C-72.1492 175.797 -69.206 175.01 -66.3727 173.992C-63.9717 173.152 -61.6429 172.183 -59.2097 171.15C-53.6765 168.854 -47.9569 166.484 -41.3182 165.507C-35.2248 164.752 -28.9808 164.956 -22.8727 166.107C-20.4119 166.517 -17.9901 166.92 -15.4421 167.448C-11.5473 168.166 -7.65636 168.907 -3.54146 169.428C2.32384 170.204 8.32447 170.489 14.0349 170.749C17.2092 170.891 20.4896 171.039 23.6618 171.274C28.3393 171.724 32.9203 172.926 37.1752 174.819C40.2676 176.112 43.4878 177.129 46.7859 177.856C48.7927 178.26 50.8703 178.64 53.0669 179.029C60.0047 180.276 67.8669 181.677 74.6758 184.423C81.7227 187.267 88.3942 191.242 94.8354 195.072C104.381 200.753 114.243 206.625 125.359 208.813C135.321 210.786 145.424 209.812 156.292 205.772C162.638 203.222 168.747 200.264 174.57 196.92C182.293 192.721 190.281 188.378 198.959 186.079C206.388 184.024 214.365 183.662 222.162 185.027C229.258 186.207 236.307 189.04 243.14 191.72C249.974 194.4 256.879 197.127 263.845 198.367C274.802 200.306 285.337 198.994 297.078 194.212C301.215 192.55 305.17 190.575 308.898 188.308C325.301 178.174 336.852 160.532 346.864 142.974C349.095 139.053 351.724 134.427 354.371 130.015C361.338 118.615 371.212 105.185 385.688 102.623C387.864 102.282 390.065 102.047 392.281 101.919C394.219 101.773 396.223 101.627 398.277 101.349L401.754 100.875C408.313 99.9776 412.283 99.4336 416.332 99.5457C423.723 99.7575 435.204 102.895 452.478 109.415L455.725 110.645C460.311 112.355 465.033 114.134 469.544 116.054L472.903 117.501C477.944 119.792 483.135 121.8 488.442 123.511L488.68 122.885Z" fill="white"/>
<path d="M490.25 113.44C488.538 113.597 486.806 113.615 485.077 113.492C474.496 112.75 465.13 109.45 454.863 105.532L452.232 104.534C447.613 102.783 442.841 100.984 438.337 99.019C433.345 96.8557 428.752 94.7005 424.283 92.6125C416.213 88.8383 409.247 85.5868 403.742 84.0163C398.236 82.4459 392.987 82.2278 384.666 83.1826L382.021 83.4793C378.791 83.7378 375.603 84.2323 372.489 84.9577C358.939 88.5508 350.143 102.418 343.981 114.127C342.241 117.427 340.52 120.777 338.814 124.119L337.33 127.006C329.603 141.927 318.718 160.556 303.029 172.341C299.672 174.838 296.113 177.122 292.379 179.176C284.773 183.396 274.352 188.047 261.239 186.603C254.157 185.822 247.012 183.161 240.093 180.595C233.793 178.25 227.203 175.797 220.54 174.748C212.844 173.526 205.008 173.978 197.722 176.063C189.408 178.34 181.641 182.404 174.123 186.334C168.376 189.522 162.363 192.339 156.129 194.765C145.589 198.602 135.931 199.475 126.611 197.422C116.591 195.241 107.823 189.714 99.214 184.353C92.5504 180.17 85.6546 175.854 78.135 173.037C69.8699 169.955 60.6345 169.167 52.4839 168.455L50.5043 168.289C47.2056 167.97 43.9232 167.475 40.6754 166.807C36.0285 165.808 31.2946 165.248 26.5557 165.137L23.8016 165.123C16.1032 165.071 8.13675 165.02 0.326643 163.628C-3.93103 162.92 -8.05903 161.754 -12.0812 160.676C-14.0783 160.133 -16.1405 159.58 -18.1582 159.08C-24.0596 157.422 -30.2432 156.892 -36.2848 157.528C-43.6474 158.513 -49.6147 161.648 -55.3788 164.689C-57.0133 165.586 -58.5451 166.349 -60.1178 167.116C-62.6895 168.412 -65.3839 169.52 -68.1754 170.43C-82.0064 174.748 -99.6661 171.273 -116.733 167.932C-127.261 165.709 -137.632 162.844 -147.768 159.357L-147.875 160.005C-137.745 163.477 -127.381 166.326 -116.859 168.531C-112.246 169.439 -107.595 170.352 -102.986 171.119C-90.4209 173.209 -78.1584 174.219 -67.8979 171.014C-65.0623 170.106 -62.3231 168.998 -59.7063 167.699C-58.1317 166.92 -56.5197 166.078 -54.9654 165.26C-49.2349 162.261 -43.3644 159.145 -36.1192 158.222C-30.1778 157.611 -24.1005 158.139 -18.2997 159.77C-16.2931 160.256 -14.2328 160.821 -12.2468 161.35C-8.14066 162.525 -3.97826 163.518 0.224235 164.324C8.09944 165.727 16.116 165.798 23.8443 165.832L26.5984 165.846C31.2796 165.965 35.9548 166.527 40.5431 167.521C43.818 168.189 47.127 168.685 50.4521 169.006L52.4298 169.183C60.5302 169.875 69.6967 170.674 77.8484 173.714C85.2937 176.495 92.1561 180.77 98.7285 184.939C107.331 190.333 116.213 195.903 126.388 198.121C135.862 200.211 145.669 199.328 156.365 195.436C162.623 192.991 168.664 190.163 174.445 186.972C181.922 183.047 189.65 178.977 197.902 176.748C205.053 174.675 212.749 174.2 220.317 175.366C226.84 176.369 233.402 178.828 239.716 181.176C246.672 183.759 253.868 186.429 261.057 187.216C274.405 188.699 284.958 183.976 292.666 179.704C296.432 177.638 300.02 175.339 303.404 172.825C319.238 160.97 330.177 142.256 337.927 127.28L339.41 124.393C341.13 121.054 342.851 117.704 344.589 114.415C350.674 102.845 359.382 89.104 372.664 85.5949C375.738 84.8808 378.885 84.3912 382.073 84.1311L384.718 83.8344C392.909 82.8579 398.003 83.1205 403.472 84.6731C408.94 86.2256 415.856 89.4571 423.888 93.2134C428.369 95.315 433.001 97.4767 437.967 99.6356C442.491 101.557 447.267 103.416 451.886 105.166L454.53 106.167C464.847 110.104 474.276 113.427 484.976 114.177C486.678 114.287 488.381 114.273 490.068 114.135L490.25 113.44Z" fill="white"/>
<path d="M493.043 96.646C491.592 97.3284 490.213 97.976 488.713 98.5452C482.788 100.9 476.264 101.992 469.651 101.736C459.441 101.09 449.342 99.0156 439.737 95.5919C434.267 93.8333 428.943 91.7047 423.816 89.2257C416.801 85.5633 410.067 81.4816 403.662 77.0107C399.617 74.1905 395.403 71.5688 391.039 69.1585C384.719 65.8857 378.957 64.8105 371.104 65.6092C367.072 65.8943 363.127 66.6622 359.377 67.892C347.128 72.3562 339.783 85.8679 334.219 98.4833C332.504 102.361 330.497 106.868 328.467 111.266C319.081 131.501 308.961 146.41 297.542 156.824C294.503 159.563 291.294 162.152 287.929 164.58C280.308 170.177 270.819 175.825 258.443 175.333C251.213 175.043 243.928 172.499 236.886 170.03C230.995 167.962 224.887 165.824 218.728 164.964C211.273 163.986 203.738 164.581 196.75 166.699C188.878 168.898 181.396 172.693 174.154 176.33C168.423 179.366 162.459 182.066 156.299 184.41C145.924 188.064 136.597 188.793 127.743 186.677C118.532 184.455 110.544 179.14 102.808 174.006C96.0838 169.544 89.1442 164.928 81.3078 162.245C72.3467 159.165 62.5585 159.127 54.0907 159.356C50.5287 159.454 47.196 159.379 43.9542 159.401C39.4379 159.363 34.7485 159.32 29.4385 159.629C21.7219 160.088 12.7776 160.367 4.13346 158.438C-0.0924075 157.387 -4.24354 156.083 -8.29039 154.536C-10.0063 153.912 -11.7984 153.263 -13.5349 152.682C-18.6068 150.996 -24.6019 149.391 -31.0856 150.16C-38.9226 151.102 -44.8848 155.092 -50.6493 158.939C-51.5983 159.576 -52.5603 160.211 -53.5017 160.803C-55.8694 162.383 -58.373 163.804 -60.9924 165.053C-74.8553 171.494 -93.5546 169.121 -108.289 166.32C-121.755 163.858 -134.556 159.087 -146.935 154.35L-147.039 154.976C-134.673 159.71 -121.854 164.45 -108.427 166.987C-106.721 167.271 -104.962 167.633 -103.23 167.921C-89.3632 170.227 -73.1598 171.437 -60.7149 165.637C-58.0587 164.384 -55.5151 162.963 -53.1032 161.384C-52.1431 160.76 -51.1941 160.123 -50.2378 159.522C-44.5478 155.721 -38.6621 151.789 -31.015 150.862C-24.6802 150.103 -18.7819 151.727 -13.8196 153.347C-12.0831 153.929 -10.317 154.573 -8.5862 155.188C-4.51369 156.756 -0.332864 158.072 3.92498 159.128C12.6658 161.12 21.6976 160.798 29.4682 160.336C34.7484 160.045 39.4285 160.063 43.9318 160.099C47.1772 160.136 50.5174 160.165 54.1074 160.06C62.4913 159.853 72.1754 159.873 81.025 162.9C88.7461 165.552 95.6504 170.138 102.33 174.628C110.113 179.805 118.161 185.154 127.529 187.402C136.533 189.577 146.024 188.829 156.528 185.127C162.724 182.778 168.722 180.069 174.482 177.016C181.682 173.384 189.09 169.635 196.936 167.431C203.831 165.336 211.27 164.753 218.628 165.73C224.696 166.576 230.764 168.707 236.618 170.757C243.725 173.237 251.058 175.812 258.475 176.11C271.168 176.619 281.16 170.529 288.45 165.228C291.829 162.763 295.057 160.142 298.119 157.376C309.604 146.892 319.746 131.927 329.184 111.619C331.253 107.228 333.221 102.714 334.938 98.8251C340.416 86.2422 347.672 72.8676 359.738 68.5367C363.42 67.3263 367.296 66.5741 371.256 66.3011C378.927 65.5539 384.593 66.5663 390.753 69.7539C395.096 72.1529 399.29 74.7634 403.315 77.5727C409.75 82.0578 416.519 86.1492 423.57 89.8163C428.729 92.3236 434.091 94.4704 439.603 96.2361C449.282 99.6776 459.454 101.764 469.738 102.417C476.466 102.671 483.103 101.558 489.132 99.1644C490.447 98.6582 491.732 98.0923 492.987 97.4669L493.043 96.646Z" fill="white"/>
<path d="M496.086 78.3496C493.445 80.2175 490.589 81.8419 487.559 83.199C482.758 85.3675 477.673 87.0437 472.397 88.1962C466.513 89.5282 460.411 90.1268 454.265 89.9749C444.276 89.7675 434.31 88.3068 424.667 85.6371C419.299 84.1533 414.15 82.0543 409.354 79.3955C401.747 75.0903 395.406 69.2884 389.29 63.6641C385.826 60.362 382.162 57.2267 378.314 54.2734C371.524 49.3206 365.322 47.4354 357.539 48.0472C353.572 48.2847 349.739 49.2391 346.275 50.8511C335.268 56.13 329.266 69.3739 324.409 82.8902C322.897 87.1523 321.277 91.4199 319.621 95.5878C312.062 113.846 302.813 129.228 292.057 141.366C289.41 144.328 286.606 147.195 283.506 150.14C276.407 156.864 267.537 163.855 255.649 164.216C248.314 164.47 240.944 162.04 233.825 159.71C228.366 157.706 222.695 156.237 216.918 155.331C209.696 154.558 202.442 155.265 195.728 157.397C188.341 159.571 181.171 163.021 174.249 166.348C168.512 169.265 162.557 171.856 156.42 174.105C146.109 177.617 137.338 178.217 128.855 175.964C120.372 173.711 113.065 168.567 106.039 163.587C99.3716 158.865 92.4885 153.99 84.4619 151.486C75.1467 148.604 65.2369 149.458 57.6565 150.466C53.7564 150.987 49.9606 151.525 46.2705 152.15C41.782 152.831 37.1278 153.542 32.2448 154.179C25.0368 155.121 16.4898 155.745 7.86188 153.317C3.71346 152.023 -0.31297 150.415 -4.17052 148.509C-5.75031 147.791 -7.38953 147.027 -8.98801 146.34C-13.8318 144.248 -19.6378 142.23 -25.9648 142.862C-34.1365 143.725 -39.8891 148.626 -45.4793 153.356C-45.9773 153.776 -46.4623 154.198 -47.0235 154.596C-49.1906 156.469 -51.4964 158.214 -53.927 159.82C-67.4071 168.465 -86.4241 167.278 -99.95 164.854C-115.209 162.07 -129.514 155.88 -143.344 149.896L-143.919 149.649L-145.996 148.707L-146.106 149.367L-144.21 150.196L-143.586 150.464C-129.707 156.479 -115.352 162.69 -100.002 165.488L-98.114 165.802C-84.5989 168.05 -66.4866 168.723 -53.4168 160.373C-50.9618 158.754 -48.6352 156.993 -46.4518 155.1L-44.9056 153.849C-39.3938 149.188 -33.7066 144.357 -25.7935 143.522C-19.6526 142.883 -13.9787 144.89 -9.23531 146.942C-7.63682 147.629 -6.02176 148.377 -4.44386 149.107C-0.540526 151.028 3.53327 152.649 7.72988 153.95C16.4842 156.423 25.1392 155.792 32.4291 154.842C37.3269 154.194 42.0202 153.49 46.4827 152.806C50.1614 152.248 53.9573 151.71 57.8443 151.187C65.3579 150.098 75.1241 149.384 84.2814 152.169C92.1908 154.654 99.0145 159.484 105.636 164.163C112.71 169.175 119.996 174.362 128.714 176.654C137.431 178.946 146.272 178.405 156.75 174.78C162.913 172.522 168.895 169.924 174.662 167.001C181.569 163.683 188.699 160.238 196.027 158.09C202.639 155.991 209.781 155.293 216.892 156.052C222.545 156.735 228.19 158.597 233.634 160.38C240.827 162.745 248.281 165.154 255.744 164.934C267.856 164.516 276.891 157.494 284.086 150.681C287.257 147.7 290.021 144.839 292.683 141.868C303.51 129.707 312.812 114.24 320.318 95.9025C322.015 91.7297 323.637 87.4508 325.109 83.1821C329.921 69.7753 335.86 56.6728 346.649 51.498C350.036 49.9009 353.793 48.9531 357.683 48.7141C365.245 48.136 371.297 49.961 377.907 54.7903C381.738 57.7225 385.383 60.8391 388.825 64.1248C394.979 69.7668 401.347 75.5617 409.019 79.9596C413.847 82.662 419.035 84.799 424.447 86.3139C434.157 89.005 444.193 90.4811 454.252 90.6977C460.467 90.8446 466.637 90.2378 472.589 88.8945C477.915 87.7254 483.052 86.0345 487.905 83.8529C490.734 82.566 493.417 81.0556 495.921 79.3395L496.086 78.3496Z" fill="white"/>
<path d="M499.448 58.1417C498.538 59.7756 497.464 61.3303 496.24 62.7882C483.97 77.3518 460.192 78.4021 438.81 78.2373C421.813 78.1 406.84 77.3756 394.755 69.5893C387.847 65.0261 382.126 58.2282 376.62 51.5945C367.238 40.3408 358.382 29.7122 343.998 30.5124C325.824 31.5006 319.345 50.0208 314.642 67.281C307.888 92.0275 295.832 115.225 279.105 135.657C273.016 143.064 264.537 151.733 252.88 153.033C245.503 153.864 238.385 151.687 230.928 149.383C225.824 147.614 220.538 146.343 215.167 145.592C200.838 144.133 187.465 150.281 174.594 156.232C159.604 163.094 145.432 169.624 130.045 165.194C122.143 162.909 115.55 157.896 109.171 153.046C102.792 148.197 95.8917 142.945 87.6933 140.669C75.2106 137.202 62.4287 141.005 50.0547 144.688C37.3902 148.429 24.2058 152.398 11.6937 148.142C7.59035 146.586 3.66811 144.656 -0.00674018 142.385C-6.50781 138.673 -13.2281 134.83 -20.7406 135.51C-29.0665 136.254 -34.5221 142.105 -39.8004 147.776C-41.9188 150.151 -44.2018 152.407 -46.6374 154.531C-56.9277 163.145 -73.6347 166.412 -91.3867 163.331C-107.431 160.522 -122.148 153.433 -136.371 146.589C-139.157 145.237 -142.024 143.813 -144.863 142.3L-144.975 142.972C-142.21 144.449 -139.417 145.837 -136.692 147.155C-122.42 154.019 -107.665 161.127 -91.5151 164.023L-90.8381 164.136C-73.1303 167.08 -56.4454 163.705 -46.1252 155.073C-43.678 152.923 -41.3785 150.647 -39.2378 148.255C-33.801 142.436 -28.6832 136.926 -20.6421 136.205C-13.3883 135.552 -7.08418 139.161 -0.361995 142.992C3.36665 145.279 7.33828 147.229 11.489 148.81C24.2559 153.143 37.5183 149.187 50.3561 145.37C62.6054 141.712 75.2867 137.951 87.5277 141.343C95.5718 143.582 102.259 148.669 108.734 153.582C115.21 158.494 121.798 163.53 129.866 165.866C145.552 170.427 160.518 163.55 174.977 156.904C187.813 151.006 201.063 144.872 215.189 146.344C220.503 147.093 225.732 148.354 230.78 150.106C238.037 152.331 245.536 154.63 253.071 153.814C265 152.488 273.606 143.7 279.779 136.19C296.561 115.695 308.657 92.4244 315.432 67.5995C320.047 50.5468 326.447 32.2591 344.136 31.2953C358.124 30.5347 366.859 41.0143 376.12 52.1077C381.701 58.7772 387.404 65.6774 394.509 70.2618C407.661 78.7983 425.75 78.9652 438.961 79.0223C460.463 79.1839 484.457 78.1228 496.914 63.3213C497.751 62.3226 498.519 61.279 499.213 60.1957L499.448 58.1417Z" fill="white"/>
<path d="M488.847 14.0054L488.066 13.8755C488.933 17.6727 489.427 21.5146 489.542 25.358C489.735 36.9078 486.595 45.1672 479.361 52.1376C477.035 54.3053 474.469 56.2631 471.699 57.9843C459 66.0338 443.064 70.5397 424.313 71.3736C410.63 71.9862 394.986 71.5946 382.786 64.0933C376.063 59.9467 370.527 53.6473 365.159 47.5511C356.089 37.2379 347.515 27.4864 333.953 28.014C316.915 28.6883 310.125 45.2976 305.093 60.8311C300.31 75.2941 293.75 89.1941 285.527 102.291C280.841 109.861 275.629 117.155 269.918 124.134C264.16 131.163 256.143 139.383 245.264 140.836C238.164 141.772 230.986 139.631 224.622 137.836L223.753 137.586C219.14 136.099 214.392 135.008 209.576 134.328C195.899 132.814 183.122 138.114 170.759 143.343C165.969 145.352 161.008 147.427 156.115 149.092C145.354 152.647 136.956 153.261 128.873 151.098C121.444 149.103 115.213 144.734 109.225 140.511C103.005 136.156 96.5709 131.636 88.8644 129.782C84.9528 128.877 80.9174 128.602 76.9569 128.971C69.2176 129.566 61.3668 132.119 53.7712 134.586C41.9774 138.401 29.798 142.363 18.1379 138.857C14.3165 137.562 10.6423 135.925 7.17578 133.97C3.47809 131.837 -0.4948 130.119 -4.6455 128.858C-7.15191 128.168 -9.77235 127.943 -12.3367 128.199C-20.1138 129.022 -25.4004 134.34 -30.4466 139.5C-32.5254 141.687 -34.7511 143.76 -37.1127 145.711C-47.4874 153.866 -63.6812 156.622 -79.3361 152.92C-84.8796 151.463 -90.2196 149.396 -95.2262 146.769C-103.23 142.666 -110.969 138.158 -118.404 133.268C-125.523 128.895 -132.183 123.954 -138.295 118.512C-139.084 117.785 -139.825 117.088 -140.543 116.338L-140.681 117.168C-140.083 117.759 -139.46 118.353 -138.823 118.95C-132.678 124.426 -125.977 129.393 -118.811 133.785C-111.345 138.698 -103.567 143.221 -95.5199 147.328C-90.459 149.973 -85.0619 152.049 -79.4605 153.507C-78.1736 153.814 -76.749 154.098 -75.3948 154.323C-60.799 156.751 -46.2235 153.749 -36.5724 146.163C-34.1667 144.168 -31.9016 142.046 -29.7886 139.808C-24.7932 134.792 -19.6183 129.502 -12.1148 128.715C-9.65142 128.473 -7.13523 128.689 -4.72687 129.348C-0.641785 130.603 3.27037 132.299 6.91781 134.395C10.4293 136.379 14.1545 138.037 18.0305 139.341C29.9342 142.911 42.1863 138.915 54.1458 135.069C61.6985 132.619 69.5195 130.084 77.1563 129.542C81.016 129.194 84.9465 129.475 88.753 130.371C96.3182 132.19 102.681 136.651 108.84 140.973C114.999 145.295 121.217 149.661 128.789 151.681C137.038 153.894 145.58 153.304 156.487 149.669C161.414 148.044 166.39 145.96 171.197 143.93C183.463 138.802 196.136 133.484 209.603 134.976C214.374 135.649 219.079 136.733 223.649 138.212L224.517 138.462C230.899 140.318 238.227 142.437 245.491 141.482C256.625 140.024 264.773 131.662 270.615 124.531C276.36 117.522 281.601 110.193 286.307 102.585C294.559 89.4511 301.143 75.5121 305.947 61.0081C310.905 45.6729 317.583 29.2555 334.16 28.6213C347.318 28.1085 355.781 37.7245 364.726 47.9001C370.128 54.0369 375.697 60.377 382.517 64.5864C394.912 72.202 410.715 72.5968 424.519 71.9809C443.391 71.1438 459.48 66.6048 472.259 58.4752C475.044 56.7303 477.616 54.7415 479.937 52.5374C487.313 45.4385 490.54 37.0534 490.31 25.3221C490.188 21.5342 489.698 17.7482 488.847 14.0054V14.0054Z" fill="white"/>
<path d="M476.971 12.0304L476.202 11.9027C476.334 13.8906 476.299 15.878 476.097 17.8485C474.982 28.0115 471.033 34.8617 462.451 41.491C459.856 43.4452 457.14 45.273 454.314 46.9667C440.364 55.5446 427.384 62.7873 409.913 64.5356C393.589 66.1472 380.473 64.1531 370.852 58.6009C364.424 54.8541 359.054 49.0851 353.826 43.5149C345.057 34.1287 336.789 25.2701 324.06 25.5386C306.766 25.8196 300.062 43.0395 295.648 54.3727C290.329 67.477 283.669 80.0853 275.748 92.0475C271.183 99.128 266.202 105.984 260.824 112.589C255.045 119.661 247.775 127.093 237.725 128.626C231.436 129.591 225.218 128.125 218.317 126.252L216.666 125.802C212.553 124.563 208.345 123.629 204.084 123.008C190.966 121.434 178.792 126.005 166.993 130.415C162.617 132.026 158.105 133.731 153.639 135.082C146.711 137.157 137.518 139.253 127.913 136.907C120.982 135.216 115.113 131.481 109.436 127.883C103.52 124.116 97.3318 120.21 90.1488 118.828C86.5076 118.127 82.7816 117.998 79.1463 118.449C71.961 119.253 64.685 121.89 57.6701 124.325C46.8047 128.189 35.5687 132.19 24.7181 129.369C21.1655 128.338 17.7308 126.983 14.4719 125.326C10.9771 123.546 7.26454 122.143 3.41848 121.149C1.04861 120.598 -1.40096 120.456 -3.79137 120.734C-11.016 121.614 -16.0574 126.423 -20.9365 131.06C-23.021 133.12 -25.2518 135.061 -27.6164 136.872C-38.0102 144.498 -53.5845 146.667 -67.353 142.483C-72.7153 140.854 -76.8166 138.079 -80.7859 135.396L-81.3989 134.978C-88.122 130.297 -94.5292 125.268 -100.584 119.919C-106.45 115 -111.857 109.673 -116.749 103.995C-124.912 94.3466 -128.788 84.8269 -128.72 75.0043C-128.682 69.2226 -127.296 63.4662 -124.275 56.3214C-122.949 53.2561 -121.487 50.2602 -120.108 47.3559C-119.176 45.4529 -118.302 43.6572 -117.508 41.9417C-116.443 39.6399 -115.411 37.3793 -114.616 35.1729C-113.985 33.5474 -113.482 31.9706 -112.937 30.2254L-112.911 30.0661C-112.197 28.1017 -111.759 26.0586 -111.604 23.9808C-111.504 20.3439 -112.402 16.701 -114.222 13.3598C-116.042 10.0186 -118.73 7.07722 -122.06 4.78416L-122.181 5.51238C-119.011 7.73436 -116.455 10.5663 -114.725 13.7739C-112.994 16.9815 -112.139 20.4727 -112.229 23.9586C-112.384 25.9899 -112.815 27.987 -113.513 29.9074L-113.538 30.0553C-114.08 31.7892 -114.587 33.3887 -115.211 34.9687C-116.058 37.1665 -117.021 39.4151 -118.084 41.7056C-118.884 43.4552 -119.769 45.2374 -120.684 47.1198C-122.103 50.0176 -123.566 53.0249 -124.857 56.1194C-127.968 63.3195 -129.365 69.1442 -129.414 74.9941C-129.479 84.9576 -125.499 94.5764 -117.282 104.385C-112.356 110.091 -106.913 115.443 -101.01 120.386C-94.9299 125.753 -88.4993 130.801 -81.7539 135.504L-81.141 135.922C-77.1233 138.636 -72.9738 141.443 -67.4831 143.104C-65.4686 143.72 -63.4109 144.203 -61.3275 144.549C-55.264 145.585 -49.0758 145.481 -43.1742 144.245C-37.2725 143.008 -31.7926 140.668 -27.0986 137.379C-24.7209 135.538 -22.4765 133.568 -20.3775 131.481C-15.6028 126.908 -10.6305 122.192 -3.65163 121.342C-1.35376 121.072 1.00196 121.21 3.27913 121.746C7.06371 122.735 10.7151 124.128 14.1503 125.892C17.4609 127.562 20.9478 128.926 24.5527 129.961C35.5802 132.765 46.941 128.738 57.9329 124.836C64.9144 122.361 72.1511 119.799 79.2247 119.023C82.777 118.587 86.4164 118.714 89.9742 119.396C97.0585 120.808 102.856 124.485 108.975 128.402C114.699 132.043 120.615 135.81 127.689 137.525C137.527 139.921 146.869 137.814 153.898 135.698C158.39 134.352 162.913 132.66 167.293 131.026C179.021 126.639 191.144 122.131 204.016 123.663C208.232 124.279 212.397 125.202 216.469 126.424L218.131 126.888C225.123 128.775 231.431 130.269 237.885 129.272C248.167 127.708 255.563 120.168 261.424 113.005C266.816 106.384 271.809 99.51 276.383 92.4104C284.333 80.4178 291.008 67.7721 296.328 54.6262C301.887 40.3496 308.586 26.4614 324.051 26.1568C336.395 25.8711 344.557 34.6419 353.218 43.8699C358.477 49.4216 363.898 55.2811 370.423 59.0907C380.188 64.7372 393.499 66.7638 409.988 65.1327C427.671 63.3963 440.727 56.0961 454.765 47.4743C457.618 45.7632 460.363 43.921 462.989 41.9547C471.709 35.2198 475.746 28.2439 476.876 17.908C477.066 15.9594 477.098 13.9952 476.971 12.0304V12.0304Z" fill="white"/>
<path d="M462.857 9.68325C462.819 9.91082 462.783 10.127 462.746 10.3546C460.329 20.2192 454.863 25.1684 445.615 30.8919C444.124 31.8132 442.489 32.7106 440.795 33.7268C439.522 34.4622 438.221 35.2047 436.899 35.9905C432.666 38.5138 428.887 41.1243 425.229 43.6497C415.81 50.1632 407.675 55.7911 395.378 57.7218C387.232 58.9978 371.662 60.0919 358.783 53.1325C352.587 49.7633 347.329 44.5275 342.246 39.4493C333.811 31.0307 325.835 23.0742 314.022 23.0624C298.089 23.0436 291.196 37.4607 286.168 47.9786C280.367 59.7251 273.608 71.0582 265.943 81.8927C260.745 89.494 256.236 95.6079 251.705 101.133C246.26 107.805 239.443 114.845 230.178 116.485C224.151 117.564 218.17 116.277 211.991 114.735L209.423 114.085C205.848 113.083 202.21 112.299 198.533 111.736C186.012 110.11 174.304 113.893 162.984 117.517C159.094 118.777 155.079 120.073 151.103 121.131C144.099 123.018 135.635 124.674 126.746 122.763C120.289 121.362 114.858 118.295 109.561 115.31C103.664 111.99 98.0971 108.855 91.3076 107.842C87.9158 107.355 84.4795 107.385 81.1505 107.931C74.508 108.931 67.809 111.558 61.326 114.093C51.406 117.986 41.1412 122.02 31.2133 120.007C27.9285 119.231 24.7301 118.158 21.67 116.806C18.4075 115.366 14.9802 114.262 11.459 113.518C9.22504 113.107 6.94335 113.044 4.71931 113.332C-1.91371 114.276 -6.71541 118.528 -11.3474 122.646C-13.4397 124.579 -15.6715 126.39 -18.03 128.071C-28.2971 135.016 -43.2317 136.637 -55.1904 132.111C-60.1111 130.24 -63.296 127.185 -66.3899 124.226L-67.394 123.264C-72.818 117.991 -77.8785 112.439 -82.5463 106.642C-87.1617 101.172 -91.3644 95.4496 -95.1253 89.5131C-101.445 79.2363 -104.482 69.4234 -104.254 59.5223C-103.928 52.9528 -102.623 46.4869 -100.373 40.2894C-99.876 38.8286 -99.3807 37.3792 -98.8892 35.9525C-97.5929 32.1808 -96.3326 28.6252 -95.5327 25.3439C-94.9684 23.1777 -94.5577 20.9771 -94.3031 18.7547C-94.1138 17.6168 -94.1033 16.5077 -94.0355 15.5368C-93.9788 15.1954 -94.002 14.8525 -93.9751 14.5295C-93.9481 14.2066 -93.9418 13.927 -93.9075 13.6404C-93.7505 12.3968 -93.7834 11.133 -94.005 9.88242C-94.9428 6.14451 -96.7895 2.59671 -99.4159 -0.512375C-102.042 -3.62146 -105.385 -6.21664 -109.209 -8.11608C-111.334 -9.17318 -113.631 -9.91486 -116.003 -10.31C-117.145 -10.4981 -118.298 -10.6117 -119.452 -10.6497L-119.56 -10.0012C-116.078 -9.91743 -112.636 -9.0718 -109.546 -7.54061C-105.825 -5.70052 -102.57 -3.18386 -100.009 -0.166673C-97.4488 2.85051 -95.6441 6.29537 -94.7216 9.92695C-94.5085 11.1225 -94.4799 12.331 -94.6366 13.5192L-94.7042 14.4083C-94.7591 14.7383 -94.7488 15.0791 -94.7685 15.4383C-94.8213 16.4 -94.8951 17.4869 -95.0154 18.6128C-95.2773 20.811 -95.6884 22.9878 -96.2467 25.1316C-97.067 28.3745 -98.2883 31.9365 -99.5826 35.6969C-100.074 37.1236 -100.584 38.5822 -101.068 40.0452C-103.343 46.3001 -104.662 52.8266 -104.993 59.4579C-105.214 69.4772 -102.206 79.3903 -95.7587 89.7819C-91.9797 95.7447 -87.7592 101.494 -83.126 106.99C-78.4451 112.82 -73.3672 118.401 -67.9219 123.702L-66.9178 124.665C-63.7793 127.677 -60.5239 130.791 -55.4507 132.71C-53.0261 133.626 -50.5033 134.3 -47.9308 134.721C-42.5693 135.58 -37.1129 135.478 -31.8928 134.421C-26.6727 133.363 -21.7979 131.372 -17.5643 128.569C-15.1802 126.873 -12.9271 125.041 -10.8183 123.085C-6.25159 119.038 -1.54315 114.863 4.86261 113.999C6.99735 113.71 9.19138 113.77 11.3362 114.176C14.8145 114.921 18.1974 116.025 21.4133 117.465C24.5241 118.833 27.7741 119.918 31.1109 120.703C41.2862 122.758 51.6515 118.682 61.6852 114.75C68.1253 112.231 74.7815 109.619 81.3234 108.661C84.5689 108.13 87.9191 108.101 91.2255 108.577C97.8849 109.568 103.377 112.668 109.213 115.954C114.561 118.959 120.079 122.064 126.685 123.536C135.727 125.484 144.249 123.803 151.389 121.903C155.393 120.839 159.424 119.533 163.313 118.274C174.553 114.647 186.178 110.886 198.524 112.437C202.165 112.995 205.769 113.77 209.311 114.757L211.879 115.406C218.109 116.968 224.22 118.277 230.413 117.167C239.91 115.496 246.839 108.346 252.366 101.583C256.899 96.0456 261.438 89.9133 266.625 82.2984C274.296 71.4146 281.054 60.0305 286.849 48.2321C291.81 37.867 298.601 23.6666 314.067 23.6779C325.549 23.6697 333.397 31.5113 341.703 39.8151C346.833 44.9361 352.135 50.2261 358.419 53.6332C371.519 60.7112 387.304 59.6063 395.535 58.3091C408.01 56.3497 416.611 50.4134 425.712 44.1275C429.357 41.6 433.121 38.9987 437.339 36.4846C438.661 35.6988 439.949 34.9541 441.235 34.2209C442.894 33.2573 444.476 32.3511 446.032 31.4407C455.409 25.6684 460.97 20.6298 463.434 10.5625C463.471 10.335 463.511 10.096 463.551 9.85707L462.857 9.68325Z" fill="white"/>
<path d="M447.206 7.08044C443.443 13.1314 437.71 15.908 429.671 19.7512L427.636 20.7224C424.975 21.9988 422.238 23.3326 419.459 24.9167C413.847 28.3494 408.699 32.3235 404.107 36.7695C397.466 42.8329 391.162 48.5548 380.858 50.8168C368.669 53.467 356.234 52.2876 346.73 47.5617C340.785 44.6086 335.645 39.8717 330.68 35.2925C322.942 28.159 314.951 20.7731 304.019 20.5336C289.279 20.1754 282.281 32.0026 276.659 41.5096C270.894 51.2382 263.705 61.1512 256.099 71.6494C251.808 77.5775 247.405 83.6974 242.558 89.5914C237.501 95.8599 231.048 102.481 222.576 104.264C217.351 105.348 212.211 104.633 205.609 103.138L202.16 102.319C199.15 101.543 196.102 100.907 193.03 100.414C180.939 98.6959 169.612 101.712 158.677 104.629C155.386 105.508 151.984 106.416 148.591 107.184C141.817 108.736 133.796 110.138 125.724 108.632C119.83 107.546 114.76 105.124 109.867 102.767C104.241 100.066 98.911 97.5192 92.5595 96.9306C89.4293 96.661 86.2926 96.8465 83.2758 97.4798C77.1743 98.6867 71.0576 101.353 65.1439 103.924C56.1431 107.841 46.8516 111.897 37.7868 110.647C34.7635 110.137 31.795 109.354 28.9297 108.308C25.8814 107.187 22.7155 106.363 19.4906 105.85C17.3985 105.571 15.2837 105.595 13.2303 105.92C7.19264 106.903 2.6399 110.625 -1.75803 114.22C-3.8625 116.012 -6.10168 117.679 -8.46175 119.209C-18.5538 125.423 -32.7982 126.433 -43.0795 121.637C-47.8151 119.458 -50.2619 115.987 -52.6365 112.646C-52.9183 112.248 -53.187 111.852 -53.4707 111.466C-57.5855 105.586 -61.2928 99.5018 -64.571 93.2498C-68.3461 86.2609 -71.0996 80.6113 -73.5645 74.9161C-78.2364 63.8258 -80.2171 53.9315 -79.8359 43.9154C-79.4091 37.2061 -78.3054 30.5693 -76.5376 24.0829C-75.1389 19.0088 -74.1926 13.83 -73.7073 8.59254C-73.5589 6.47964 -73.6847 4.34821 -74.0824 2.23929C-74.3402 1.04136 -74.6932 -0.142706 -75.1389 -1.30403L-75.3144 -1.77756C-75.6081 -2.66023 -76.0187 -3.51357 -76.5375 -4.31957C-79.1297 -8.36384 -84.9285 -15.736 -94.5566 -19.8746C-96.3745 -20.678 -98.3003 -21.2581 -100.278 -21.5978C-104.248 -22.0863 -108.254 -22.0264 -112.149 -21.4205L-114.178 -21.2084L-117.795 -20.8627L-117.897 -20.2483C-116.648 -20.3563 -115.395 -20.487 -114.088 -20.6205L-112.059 -20.8327C-105.876 -21.4881 -100.986 -22.0079 -94.8427 -19.3609C-85.4061 -15.2776 -79.7187 -8.04083 -77.1652 -4.08487C-76.6646 -3.29518 -76.2779 -2.45676 -76.0146 -1.58998L-75.8391 -1.11646C-75.4032 0.00737394 -75.0617 1.15465 -74.8177 2.31578C-74.414 4.40234 -74.2756 6.51196 -74.4051 8.60511C-74.8966 13.8069 -75.8415 18.9505 -77.2315 23.9909C-78.9863 30.5192 -80.096 37.1923 -80.5486 43.9372C-80.8986 54.0871 -78.9236 64.0156 -74.2128 75.1941C-71.8149 80.8899 -69.0541 86.5758 -65.2288 93.5847C-61.9367 99.842 -58.2119 105.929 -54.0764 111.81L-53.2404 112.978C-50.9214 116.252 -48.3114 119.948 -43.3919 122.228C-40.7389 123.444 -37.91 124.309 -35.0007 124.793C-25.4493 126.274 -15.7779 124.473 -8.00551 119.764C-5.62631 118.211 -3.3662 116.525 -1.23835 114.715C3.08312 111.178 7.55753 107.525 13.407 106.627C15.3768 106.315 17.4056 106.293 19.4123 106.562C22.5829 107.075 25.696 107.887 28.6971 108.983C31.6015 110.037 34.6079 110.831 37.6695 111.352C46.9686 112.641 56.3757 108.535 65.4641 104.574C71.3441 102.044 77.4217 99.371 83.4357 98.2079C86.3791 97.5945 89.4374 97.412 92.4905 97.6675C98.6969 98.2436 103.955 100.743 109.502 103.432C114.458 105.811 119.564 108.262 125.575 109.367C133.833 110.881 141.921 109.478 148.764 107.915C152.172 107.137 155.587 106.231 158.891 105.354C170.247 102.32 180.987 99.4523 192.907 101.154C195.953 101.643 198.975 102.274 201.958 103.045L205.436 103.857C210.684 105.046 216.79 106.225 222.749 104.994C231.481 103.173 237.941 96.4358 243.118 90.0822C247.941 84.1725 252.387 78.0363 256.691 72.1104C264.343 61.5027 271.579 51.5393 277.302 41.827C282.872 32.475 289.732 20.8353 304.03 21.1902C314.694 21.4319 322.184 28.372 330.165 35.733C335.166 40.3415 340.352 45.1212 346.382 48.1236C356.059 52.9367 368.685 54.1713 381.062 51.4355C391.572 49.1491 397.941 43.3562 404.685 37.2398C409.222 32.8205 414.316 28.8723 419.876 25.4655C422.631 23.8657 425.363 22.566 428.009 21.2988L430.046 20.3162C437.97 16.5126 444.053 13.5718 447.974 7.20819L447.206 7.08044Z" fill="white"/>
<path d="M427.311 3.77176C424.149 5.32798 420.825 6.62988 417.378 7.66236C415.606 8.25644 413.779 8.86463 411.857 9.56222C408.437 10.75 405.151 12.1988 402.038 13.8928C394.747 17.9889 390.288 23.4797 385.958 28.7582C380.713 35.1941 375.768 41.2707 366.358 43.9503C355.852 46.9388 344.022 46.2227 334.696 42.0407C328.981 39.4766 323.944 35.2479 319.111 31.1585C311.727 24.9493 304.084 18.5331 294.064 18.0361C280.479 17.3321 273.135 27.1373 267.216 35.0514C263.95 39.4075 260.329 43.8802 256.503 48.6227C253.142 52.741 249.781 56.8593 246.344 61.4327C244.967 63.2227 243.582 65.0347 242.189 66.8688C239.38 70.5644 236.483 74.3857 233.486 78.0851C228.444 84.2625 222.775 90.1951 215.102 92.0764C209.833 93.3515 204.425 92.6393 199.372 91.565C197.874 91.316 196.361 90.924 194.903 90.5996C192.517 90.0625 190.054 89.501 187.603 89.1167C175.709 87.2557 165.072 89.4272 153.805 91.6812C151.327 92.1811 148.75 92.7113 146.183 93.1847C139.776 94.376 132.301 95.5534 124.766 94.4405C119.775 93.5842 114.907 92.1573 110.285 90.1965C104.875 88.1275 99.778 86.1105 93.7918 85.9803C90.9173 85.9325 88.071 86.2756 85.3535 86.9974C79.7669 88.407 74.2697 91.1293 68.9235 93.7481C60.8549 97.6916 52.5087 101.776 44.3109 101.266C41.5279 101.011 38.7691 100.509 36.0768 99.7682C33.2728 99.0026 30.4021 98.4782 27.5061 98.2025C25.5702 98.0611 23.6335 98.1643 21.755 98.5089C16.3109 99.5446 12.0331 102.739 7.90098 105.782C5.76576 107.452 3.49443 108.985 1.10346 110.369C-8.89357 115.851 -22.094 116.216 -30.9959 111.251C-35.6373 108.667 -37.4441 104.566 -39.0364 100.946L-39.5597 99.7478C-42.3938 93.293 -44.757 86.7014 -46.6345 80.0144C-48.644 73.1905 -50.3664 66.812 -51.8991 60.5001C-54.6122 49.9417 -55.7593 39.1765 -55.3112 28.4782C-54.9822 22.5578 -54.0565 16.8301 -53.1629 11.2959C-52.9736 10.158 -52.8033 9.13399 -52.6255 8.06442C-51.7626 2.87588 -51.0781 -3.09069 -51.7941 -7.95717C-52.0677 -10.1428 -52.7808 -12.2849 -53.9 -14.2825C-54.51 -15.3784 -55.3613 -16.3633 -56.4024 -17.1776C-56.8453 -17.4803 -57.3304 -17.7302 -57.8444 -17.9203C-58.2996 -18.0981 -58.7391 -18.3081 -59.1583 -18.548C-60.4549 -19.3951 -61.6923 -20.3117 -62.8632 -21.2923C-66.6513 -24.2609 -72.3126 -28.839 -79.795 -31.6385C-81.3447 -32.2354 -82.9594 -32.6766 -84.6074 -32.9533C-88.6828 -33.6311 -92.3613 -33.1554 -96.4438 -32.5831C-97.6054 -32.4372 -98.8099 -32.275 -100.063 -32.1443C-105.305 -31.4821 -110.646 -31.3733 -115.972 -31.8201L-116.078 -31.1829C-110.68 -30.739 -105.269 -30.8637 -99.9601 -31.5543C-98.6943 -31.6829 -97.4898 -31.845 -96.3282 -31.991C-90.8571 -32.7064 -86.0859 -33.3161 -80.0795 -31.0544C-72.7775 -28.2965 -67.116 -23.8003 -63.3688 -20.8268C-62.1554 -19.8034 -60.8645 -18.8541 -59.506 -17.9861C-59.0805 -17.7361 -58.6336 -17.517 -58.1698 -17.3313C-57.7287 -17.1674 -57.3143 -16.9488 -56.9397 -16.6823C-56.0094 -15.909 -55.2532 -14.9886 -54.714 -13.9736C-53.6354 -12.0562 -52.9532 -9.99745 -52.7006 -7.89743C-51.9862 -3.1014 -52.7263 2.79745 -53.5295 7.94914C-53.7074 9.01871 -53.8872 10.0997 -54.0669 11.1806C-54.9904 16.7333 -55.9441 22.468 -56.2266 28.4312C-56.6652 39.1712 -55.5071 49.9771 -52.7814 60.5755C-51.2506 66.8988 -49.545 73.2979 -47.5151 80.1602C-45.5667 86.8837 -43.1283 93.5075 -40.2154 99.9896C-40.0378 100.37 -39.864 100.773 -39.6902 101.176C-38.0591 104.885 -36.1912 109.101 -31.3436 111.813C-28.5234 113.356 -25.415 114.416 -22.1891 114.938C-13.8804 116.201 -5.4645 114.788 1.50006 110.961C3.92661 109.542 6.23096 107.971 8.39652 106.262C12.4579 103.242 16.6703 100.119 21.9281 99.1575C23.7445 98.8397 25.6151 98.7569 27.4818 98.9118C30.3302 99.176 33.1539 99.6887 35.9112 100.442C38.6453 101.197 41.4481 101.707 44.2755 101.962C52.6965 102.497 61.1303 98.3688 69.279 94.427C74.5991 91.8038 80.0998 89.1405 85.5579 87.7798C88.1976 87.087 90.9596 86.7577 93.7486 86.8033C99.571 86.9531 104.625 88.9045 109.957 90.9605C114.604 92.9451 119.498 94.4035 124.516 95.2994C132.168 96.4317 139.714 95.231 146.137 94.0191C148.705 93.5457 151.28 93.0269 153.773 92.5177C164.965 90.228 175.534 88.0684 187.284 89.9056C189.68 90.304 192.148 90.8314 194.519 91.3777C195.99 91.7042 197.511 92.0508 199.014 92.3475C204.194 93.3843 209.691 94.1231 215.095 92.8468C223.028 90.9271 228.811 84.8731 233.905 78.6225C236.915 74.9253 239.812 71.104 242.621 67.4084C244.015 65.5667 245.4 63.7547 246.776 61.9723C250.203 57.4558 253.647 53.2459 256.933 49.1737C260.759 44.4312 264.382 39.9471 267.684 35.5384C273.494 27.7934 280.702 18.1643 293.876 18.8467C303.622 19.2982 310.827 25.3726 318.486 31.7795C323.391 35.916 328.476 40.1761 334.29 42.7917C343.791 47.0495 355.833 47.7776 366.521 44.7375C376.144 41.988 381.154 35.8404 386.475 29.3471C390.76 24.0962 395.195 18.6715 402.371 14.6263C405.447 12.9676 408.691 11.551 412.067 10.3923C413.976 9.69249 415.803 9.08431 417.573 8.50161C421.372 7.32547 425.006 5.80216 428.417 3.95581L427.311 3.77176Z" fill="white"/>
<path d="M396.283 -1.38827L394.972 -1.0684C391.32 -0.167145 387.839 1.15651 384.617 2.86886C376.564 7.28258 372.624 13.9123 368.829 20.3203C364.667 27.3223 360.745 33.9313 351.854 37.1066C342.581 40.3114 332.085 40.1079 322.645 36.5403C317.131 34.3723 312.162 30.6226 307.362 26.9828C300.357 21.7136 293.088 16.2602 284.044 15.5279C271.52 14.4857 264.249 21.9177 257.807 28.4703L257.697 28.5689L254.112 32.2641C248.663 37.754 242.49 43.9771 236.448 51.2627C234.191 53.9743 231.942 56.8744 229.698 59.6699C227.914 61.9458 226.077 64.3062 224.222 66.6054C219.56 72.3548 214.308 77.9476 207.357 79.9138C202.331 81.3346 197.219 80.7768 192.848 80.0264C190.973 79.7146 189.074 79.3053 187.24 78.9068C185.406 78.5083 183.686 78.152 181.906 77.8326C169.589 75.7842 158.494 77.2482 146.756 78.8742L143.498 79.3147C137.349 80.163 130.381 81.1089 123.53 80.3904C119.245 79.8459 115.013 78.9268 110.9 77.6469C105.619 76.1723 100.673 74.7768 94.9458 75.0989C92.3391 75.2682 89.7905 75.7699 87.379 76.5884C82.1879 78.5012 77.2454 80.8673 72.623 83.6525C65.4866 87.6224 58.0949 91.7602 50.7717 91.9455C48.2002 91.9505 45.6233 91.7373 43.0767 91.3089C40.5584 90.895 38.0146 90.6636 35.4712 90.617C33.6826 90.6131 31.9092 90.7971 30.1884 91.165C25.4105 92.218 21.4563 94.8344 17.6344 97.3794C15.4177 98.9351 13.0685 100.342 10.6053 101.589C0.798486 106.249 -11.3562 105.958 -18.957 100.894C-23.5524 97.7912 -24.5799 93.1886 -25.4916 89.0964L-25.7214 88.0643C-27.2517 81.0105 -28.2677 73.8971 -28.763 66.7682C-29.0762 62.9392 -29.3724 59.0079 -29.6831 54.9221C-29.8923 52.0498 -30.118 49.089 -30.3602 46.0397C-31.3492 34.9956 -31.5083 23.9379 -30.8365 12.9392C-30.5652 9.05542 -30.1416 5.2204 -29.7368 1.49915C-29.3741 -1.80814 -29.0287 -4.93121 -28.7855 -8.08298C-28.2034 -15.3645 -28.5741 -20.6179 -29.9513 -24.6472C-30.6567 -26.909 -31.9581 -29.0135 -33.7473 -30.7859C-34.7804 -31.8312 -36.1411 -32.5843 -37.6437 -32.9423C-38.3541 -33.0298 -39.0709 -32.9899 -39.7506 -32.825C-40.3979 -32.6723 -41.0766 -32.6267 -41.7533 -32.6903C-43.7345 -32.9262 -46.6034 -34.5025 -50.2285 -36.5202C-54.9195 -39.2936 -59.915 -41.6259 -65.1282 -43.4766C-71.2581 -45.4782 -75.8323 -44.7656 -81.1103 -43.9245C-82.65 -43.6777 -84.2436 -43.4283 -85.9468 -43.2438C-92.3174 -42.2924 -98.8966 -42.4878 -105.293 -43.8185C-108.132 -44.2906 -110.957 -44.7605 -113.766 -45.0873L-113.872 -44.4501C-111.062 -44.1309 -108.242 -43.7087 -105.412 -43.1835C-98.9584 -41.8425 -92.3225 -41.6292 -85.8873 -42.5557C-84.1692 -42.7494 -82.5625 -42.9967 -81.0099 -43.2413C-75.8176 -44.0499 -71.3252 -44.7527 -65.398 -42.8199C-60.2431 -41.0014 -55.3043 -38.7019 -50.6692 -35.9621C-46.9958 -33.913 -44.0285 -32.2852 -41.8891 -32.0347C-41.1343 -31.9579 -40.3758 -31.998 -39.6482 -32.1531C-39.0589 -32.2923 -38.4395 -32.3283 -37.8243 -32.2591C-36.4523 -31.9434 -35.212 -31.2536 -34.2847 -30.2906C-32.5756 -28.6051 -31.3306 -26.6022 -30.6534 -24.4482C-29.3151 -20.5073 -28.9479 -15.3129 -29.5149 -8.12242C-29.7711 -4.97282 -30.1016 -1.85896 -30.4643 1.44833C-30.8821 5.1674 -31.2946 9.01598 -31.5659 12.8997C-32.228 23.9064 -32.0478 34.9722 -31.0263 46.0224C-30.7835 49.0679 -30.5646 52.0159 -30.3493 54.9048C-30.0497 58.9771 -29.7516 62.8971 -29.4422 66.7488C-28.9444 73.9058 -27.9242 81.0473 -26.3878 88.1289L-26.158 89.161C-25.2262 93.3735 -24.16 98.1462 -19.3305 101.37C-16.4078 103.26 -13.0456 104.528 -9.52258 105.071C-2.38563 106.148 4.85153 105.108 11.0393 102.117C13.5315 100.856 15.9098 99.4341 18.156 97.8637C21.9163 95.367 25.8128 92.776 30.4698 91.7263C32.128 91.3727 33.8373 91.1977 35.5608 91.2049C38.069 91.2506 40.5777 91.4762 43.0621 91.8794C45.6517 92.322 48.2736 92.5387 50.8892 92.5263C58.419 92.3052 65.8797 88.1555 73.0906 84.1396C77.6811 81.3865 82.5792 79.0374 87.7181 77.1242C90.0712 76.3393 92.5526 75.8545 95.0894 75.684C100.63 75.3543 105.615 76.7564 110.727 78.2028C114.884 79.4906 119.159 80.4168 123.487 80.968C130.458 81.6946 137.469 80.7324 143.657 79.8906L146.929 79.441C158.46 77.8507 169.377 76.3336 181.434 78.3387L181.824 78.4037C183.582 78.696 185.375 79.0994 187.119 79.4714C188.864 79.8434 190.867 80.27 192.766 80.5975C197.219 81.3381 202.46 81.929 207.641 80.4637C214.762 78.4325 220.121 72.7638 224.847 66.9548C226.703 64.6442 228.553 62.286 230.324 60.0079C232.514 57.2151 234.763 54.315 237.072 51.6121C243.098 44.3471 249.256 38.1332 254.69 32.6525L258.274 29.0391L258.386 28.9291C264.703 22.4844 271.858 15.1851 284.013 16.2009C292.846 16.9099 299.994 22.2847 306.902 27.4911C311.755 31.1395 316.763 34.9775 322.394 37.0833C332.019 40.7194 342.721 40.9277 352.176 37.663C361.309 34.3994 365.288 27.6944 369.493 20.5944C373.232 14.2004 377.149 7.70727 385.04 3.38352C388.205 1.7265 391.625 0.455089 395.209 -0.397666C396.134 -0.652996 397.052 -0.862816 398.002 -1.10244L396.283 -1.38827Z" fill="white"/>
<path d="M364.709 -6.63968C357.878 -1.92923 354.971 4.93057 352.159 11.6191C348.946 19.27 345.897 26.5037 337.36 30.2056C333.261 31.8926 328.786 32.8303 324.195 32.964C319.604 33.0978 314.988 32.425 310.617 30.9848C305.229 29.1884 300.26 25.9182 295.449 22.7444C288.886 18.4374 282.099 13.9527 274.053 13.0122C262.441 11.6307 254.892 17.1924 248.243 22.0968C240.313 27.6964 233.081 34.0114 226.657 40.9459C223.817 44.0986 221.059 47.5688 218.4 50.9268C217.317 52.2902 216.247 53.6557 215.143 55.0624C211.117 60.0407 206.284 65.5278 199.832 67.7171C196.092 68.966 191.999 69.1974 186.556 68.4559C184.214 68.1366 181.856 67.6742 179.598 67.1701L176.44 66.528C164.248 64.2081 153.462 64.3787 141.049 65.3195L137.738 65.599C132.708 66.156 127.619 66.3575 122.517 66.2016C119.039 65.9568 115.572 65.5247 112.135 64.9076C106.797 64.0199 101.719 63.1754 96.21 64.1184C93.876 64.5077 91.622 65.1625 89.5035 66.0667C84.8942 68.1871 80.5201 70.6639 76.4307 73.4692C70.2135 77.4633 63.8006 81.5885 57.3295 82.5236C54.9175 82.819 52.4693 82.9129 50.0173 82.8042C47.852 82.7184 45.6886 82.7491 43.5392 82.8962C41.9144 83.0228 40.3129 83.2809 38.7545 83.6674C34.7744 84.8975 31.0451 86.6409 27.6846 88.8422C25.3287 90.3084 22.8361 91.6025 20.2303 92.7124C12.4376 95.8014 0.641486 96.4121 -6.82292 90.4467C-11.3833 86.8118 -11.5866 81.5979 -11.7582 76.9974L-11.7879 76.2909C-11.9989 68.6359 -11.6671 60.9977 -10.7944 53.4208L-10.3754 49.2926C-9.78084 43.545 -9.1749 37.729 -8.75579 31.5078C-8.48122 27.7649 -8.24337 23.8405 -7.98281 19.7796C-7.49612 12.6693 -7.07196 5.29136 -6.37302 -2.53201L-6.01376 -6.62331C-5.47603 -12.6727 -4.96523 -18.3993 -4.93641 -24.1241C-4.89742 -31.5193 -5.92772 -37.1513 -8.11423 -41.2217C-9.30345 -43.5883 -11.2038 -45.6453 -13.6024 -47.1624C-14.6741 -47.8164 -15.8776 -48.2753 -17.1381 -48.5105C-17.7471 -48.6165 -18.3671 -48.6367 -18.9747 -48.5703C-19.9835 -48.4115 -20.9433 -48.0917 -21.8077 -47.6266C-22.6152 -47.1983 -23.5023 -46.8917 -24.4341 -46.7187C-27.5804 -46.2246 -32.2199 -48.1772 -37.6884 -50.4547C-41.8326 -52.2849 -46.1029 -53.8664 -50.4691 -55.1878C-56.5904 -56.9191 -61.2041 -56.0493 -66.0804 -55.1297C-67.9181 -54.7805 -69.8227 -54.4307 -71.9114 -54.1817C-78.4174 -53.1801 -85.1755 -53.6329 -91.5757 -55.4993C-98.1011 -57.2029 -104.802 -58.2152 -111.533 -58.5142L-111.639 -57.8771C-104.934 -57.5807 -98.2595 -56.5766 -91.7579 -54.8864C-85.2617 -52.9708 -78.3951 -52.4961 -71.783 -53.5056C-69.6813 -53.7524 -67.7617 -54.1114 -65.9091 -54.4698C-60.9174 -55.4404 -56.609 -56.244 -50.6401 -54.5614C-46.3116 -53.2548 -42.0789 -51.6874 -37.9728 -49.8706C-32.4319 -47.546 -27.653 -45.5468 -24.274 -46.0723C-23.2697 -46.2653 -22.3122 -46.5951 -21.4353 -47.0502C-20.6462 -47.4835 -19.7666 -47.7812 -18.8406 -47.9283C-17.1221 -48.0265 -15.3947 -47.5645 -13.9854 -46.6297C-11.7017 -45.1857 -9.89557 -43.2246 -8.77183 -40.9685C-6.62983 -36.9524 -5.61777 -31.452 -5.65276 -24.1614C-5.67968 -18.4479 -6.21462 -12.7371 -6.73744 -6.69689C-6.85657 -5.33692 -6.97569 -3.97694 -7.08369 -2.60342C-7.74546 5.23781 -8.27189 12.5871 -8.65631 19.7261C-8.90322 23.7854 -9.15591 27.6917 -9.41438 31.4451C-9.85953 37.6619 -10.4749 43.5348 -11.0321 49.2185L-11.4641 53.3445C-12.3295 60.9495 -12.6614 68.6145 -12.4578 76.2964L-12.4281 77.0029C-12.2544 81.5103 -12.0466 87.0991 -7.23926 90.9388C-4.33236 93.1839 -0.792172 94.6774 2.9634 95.2431C9.02999 96.1494 15.1878 95.4825 20.6771 93.3246C23.3135 92.2023 25.8354 90.8935 28.219 89.4105C31.521 87.2596 35.1846 85.5603 39.0932 84.3668C40.6118 83.9904 42.1721 83.7372 43.755 83.6103C45.8745 83.4668 48.007 83.431 50.1419 83.5031C52.6387 83.6158 55.1318 83.5215 57.5881 83.2214C64.2249 82.2554 70.7124 78.0841 76.9892 74.0532C81.0445 71.275 85.3789 68.8192 89.9446 66.713C92.008 65.8257 94.2063 65.1849 96.4835 64.807C101.886 63.9398 106.864 64.7442 112.128 65.5963C115.599 66.2193 119.101 66.6573 122.614 66.9076C127.753 67.0619 132.879 66.8548 137.944 66.2882L141.255 66.0087C153.607 65.0343 164.326 64.8642 176.425 67.1804C177.48 67.3557 178.523 67.5994 179.57 67.8203C181.86 68.2946 184.225 68.7933 186.594 69.1169C192.169 69.8687 196.392 69.5771 200.236 68.3456C206.869 66.1161 211.782 60.5488 215.86 55.4974C216.956 54.1362 218.04 52.7728 219.117 51.3618C221.776 48.0038 224.52 44.5428 227.344 41.3993C233.745 34.5016 240.945 28.2169 248.835 22.6396C255.378 17.8111 262.802 12.3572 274.099 13.6981C281.97 14.6446 288.665 19.0437 295.142 23.3014C299.972 26.4433 305.018 29.8083 310.496 31.6312C314.964 33.1028 319.682 33.79 324.374 33.6531C329.067 33.5161 333.641 32.5577 337.831 30.8335C346.621 26.975 349.701 19.6411 353.027 11.8688C355.865 5.10274 358.819 -1.8779 365.872 -6.46972L364.709 -6.63968Z" fill="white"/>
<path d="M340.792 -10.6193C338.517 -6.36892 336.814 -1.8813 335.718 2.75564C333.337 11.1178 331.101 19.0129 322.851 23.4055C319.247 25.1924 315.236 26.2998 311.061 26.6608C306.887 27.0217 302.635 26.6286 298.564 25.5054C293.203 24.111 288.097 21.2623 283.177 18.5031C277.188 15.1685 270.932 11.6726 264.065 10.5656C253.089 8.74018 244.819 12.7671 238.789 15.7165C230.479 19.5257 223.051 24.6091 216.835 30.7394C213.616 34.0043 210.595 37.7698 207.687 41.4139L206.007 43.4731C202.126 48.3001 197.861 53.1917 192.257 55.4286C188.503 56.8485 184.335 57.3198 180.202 56.7914C177.32 56.4547 174.458 55.9514 171.635 55.2848L170.919 55.1657C161.19 53.08 150.534 51.1793 138.531 51.3463C135.847 51.3911 133.145 51.5497 130.446 51.6856C127.474 51.8578 124.393 52.0354 121.395 52.0396C118.986 52.0481 116.725 51.9644 114.542 51.8938C108.422 51.6828 103.128 51.4923 97.3885 53.1804C95.3532 53.803 93.4125 54.6254 91.6017 55.6324C87.5712 57.9562 83.7617 60.5555 80.2064 63.4075C74.9272 67.3939 69.4894 71.5292 63.8612 73.1891C61.4793 73.8292 59.0307 74.2866 56.5422 74.5561C54.9542 74.7714 53.3123 74.9895 51.5714 75.3197C50.1227 75.5912 48.6949 75.9314 47.2941 76.3389C44.106 77.3943 41.0475 78.7096 38.1574 80.2684C35.5176 81.6829 32.738 82.8947 29.8478 83.8912C22.3663 86.1549 11.4767 85.9809 5.31667 80.0571C0.804744 75.7286 1.49448 69.8916 2.09861 64.7301L2.12889 64.5481C3.22828 56.2987 4.90701 48.139 7.15558 40.1153L7.92456 37.2614C9.64517 30.7773 11.4557 24.0742 12.9061 17.0424C15.1294 6.40892 16.8889 -5.37744 18.1203 -18.0117C18.9877 -25.3576 19.2637 -32.7708 18.9463 -40.1964C18.4277 -47.8597 16.7391 -53.6363 13.7174 -57.8338C12.0088 -60.3146 9.51058 -62.3155 6.55009 -63.5744C5.66264 -63.9244 4.73371 -64.1771 3.78499 -64.3266C2.45653 -64.5709 1.09454 -64.5285 -0.1828 -64.203C-1.5096 -63.7966 -2.7431 -63.2001 -3.83505 -62.4367C-4.80908 -61.7607 -5.88245 -61.2005 -7.02925 -60.7696C-11.4213 -59.3017 -17.6348 -61.3641 -24.9323 -63.747C-28.4351 -64.8908 -32.0475 -66.0996 -35.7948 -66.98C-41.9374 -68.4225 -46.4211 -67.4493 -51.1506 -66.4468C-53.3331 -65.9319 -55.5499 -65.5199 -57.7919 -65.2126C-66.1428 -64.1576 -70.3001 -64.8256 -77.8599 -67.2404C-89.5084 -70.8965 -100.069 -72.2435 -109.434 -71.1233L-109.544 -70.4634C-100.246 -71.583 -89.7166 -70.288 -78.0757 -66.5864C-70.7391 -64.197 -66.2732 -63.4543 -57.6505 -64.5343C-55.3862 -64.8339 -53.1474 -65.2423 -50.9441 -65.7576C-46.0953 -66.8338 -41.9001 -67.7615 -35.9195 -66.3109C-32.2131 -65.4255 -28.6099 -64.2416 -25.1332 -63.1022C-17.7315 -60.7019 -11.3526 -58.5887 -6.70342 -60.1542C-5.49503 -60.6148 -4.36575 -61.213 -3.3433 -61.934C-2.32185 -62.6874 -1.16062 -63.2842 0.0949418 -63.7008C2.15042 -64.1616 4.35955 -63.9356 6.30491 -63.0656C9.1181 -61.8513 11.493 -59.942 13.1268 -57.5813C16.0725 -53.4899 17.741 -47.8336 18.2784 -40.2841C18.5958 -32.8931 18.3254 -25.5143 17.4695 -18.2017C16.2213 -5.54693 14.4713 6.18253 12.2648 16.7954C10.7864 23.8343 9.00384 30.5303 7.27021 37.0123L6.51424 39.8683C4.25004 47.9162 2.56248 56.102 1.46129 64.3786L1.42912 64.572C0.834678 69.5947 0.0879362 75.855 4.83 80.4088C7.73494 83.0803 11.5395 84.8464 15.6243 85.4195C20.5456 86.1749 25.5498 85.8328 30.1738 84.4248C33.1077 83.4206 35.9265 82.1915 38.5989 80.7511C41.4519 79.2178 44.4667 77.919 47.6071 76.8704C48.9761 76.4756 50.3709 76.1455 51.7857 75.8815C53.4987 75.5584 55.1389 75.2699 56.7155 75.1228C59.2435 74.8439 61.7302 74.3733 64.1481 73.7163C69.8881 72.0282 75.3986 67.8581 80.7393 63.8235C84.2712 60.9967 88.0504 58.4163 92.0452 56.1037C93.8458 55.1349 95.7714 54.3493 97.787 53.7612C103.413 52.1127 108.629 52.2902 114.682 52.5017C116.878 52.5745 119.151 52.6603 121.574 52.654C124.6 52.6427 127.675 52.4992 130.666 52.2951C133.299 52.1484 136.063 52.0234 138.684 51.9564C150.607 51.7877 161.211 53.6798 170.887 55.7568L171.603 55.8759C174.457 56.5477 177.349 57.056 180.262 57.3977C184.526 57.9325 188.825 57.4342 192.691 55.9568C198.425 53.6597 202.797 48.6923 206.754 43.8078L208.434 41.7486C211.338 38.1273 214.331 34.3688 217.534 31.1245C223.693 25.0204 231.064 19.9583 239.316 16.1667C247.012 12.4536 254.192 9.5083 264.119 11.1242L264.21 11.1393C270.955 12.261 277.051 15.6719 282.984 18.9387C287.967 21.7202 293.11 24.5867 298.572 26.0212C302.742 27.1667 307.097 27.5654 311.372 27.1931C315.647 26.8208 319.754 25.6853 323.445 23.8552C331.943 19.3401 334.317 10.9416 336.615 2.83462C337.934 -1.79864 339.268 -6.52291 341.753 -10.5999L340.792 -10.6193Z" fill="white"/>
<path d="M320.882 -13.9305C320.261 -11.4028 319.799 -8.7901 319.342 -6.20016C317.896 2.49293 316.271 11.4602 308.363 16.5295C302.67 20.1897 294.737 21.4663 286.525 19.9136C280.953 18.905 275.717 16.5142 270.117 13.981C264.969 11.6281 259.646 9.19937 254.067 7.99086C244.563 5.91927 236.557 7.31236 229.336 9.13988C220.805 11.112 213.109 15.0458 207.02 20.5478C203.502 23.9281 200.285 27.5437 197.393 31.3649L196.871 32.0146C193.153 36.6699 189.417 41.0299 184.664 43.303C181.388 44.8595 177.636 45.5453 173.844 45.2805C170.991 45.0805 168.158 44.6093 165.394 43.8752C162.5 43.1718 159.661 42.3839 156.911 41.6225C149.953 39.6936 143.364 37.873 136.041 37.4151C131.211 37.2242 126.387 37.3642 121.614 37.8339L120.354 37.9284C111.483 38.5696 105.179 39.2282 98.6235 42.2774C96.8668 43.1043 95.2055 44.0725 93.66 45.1704C90.2201 47.7158 86.9756 50.4568 83.9457 53.377C79.5952 57.3308 75.0896 61.4926 70.3509 63.8382C67.6198 65.1122 64.7577 66.1698 61.7969 66.9993L59.5655 67.704L58.8876 67.9187C57.8986 68.2336 56.8537 68.5627 55.7752 68.9329C53.6983 69.6749 51.6469 70.5849 49.6608 71.424C46.4108 72.9508 42.975 74.1702 39.4084 75.0626C32.0702 76.6252 22.3983 75.5663 17.3845 69.6694C13.3334 64.9031 14.4012 58.9652 15.9758 52.7959C18.3895 43.9542 21.4194 35.2737 25.0487 26.8026L26.1728 24.0663C29.0242 17.1388 31.9804 9.98312 34.4797 2.51763C38.4608 -9.20864 41.1723 -21.2846 42.5792 -33.5532C43.5649 -41.0795 43.6321 -48.7119 42.7797 -56.3214C42.5975 -57.7198 42.361 -59.0337 42.104 -60.3042L41.3228 -60.4341C41.6094 -59.1002 41.8643 -57.7365 42.0501 -56.279C42.8922 -48.7161 42.8282 -41.131 41.8593 -33.6496C40.4453 -21.4289 37.7414 -9.39937 33.7825 2.28476C31.2851 9.73887 28.3308 16.8831 25.4943 23.8014L24.3702 26.5378C20.7241 35.032 17.6854 43.7387 15.271 52.6085C13.973 57.6779 12.2047 64.6102 16.8048 70.0173C19.6868 73.2128 23.8309 75.3381 28.3447 75.9355C32.116 76.5379 35.9542 76.4474 39.6151 75.67C43.2293 74.763 46.7122 73.5281 50.0091 71.9847C51.9822 71.1435 54.0297 70.2562 56.0845 69.4871C57.1518 69.1033 58.1818 68.7835 59.1708 68.4686L59.8487 68.2539L62.0652 67.5585C65.0657 66.7021 67.9672 65.6199 70.7385 64.3236C75.5778 61.9362 80.1094 57.7788 84.5383 53.7562C87.5492 50.8577 90.7725 48.1366 94.1891 45.6092C95.7054 44.5393 97.3314 43.5928 99.0483 42.7807C105.488 39.7825 111.698 39.1314 120.513 38.5043L121.775 38.3985C126.484 37.9698 131.24 37.8577 136 38.0632C143.244 38.5194 149.776 40.3541 156.714 42.2446C159.464 43.0059 162.316 43.796 165.236 44.5038C168.045 45.2574 170.928 45.7367 173.83 45.9329C177.754 46.1995 181.637 45.4919 185.034 43.8908C189.92 41.5462 193.702 37.1472 197.472 32.4187L197.997 31.7576C200.866 27.9595 204.062 24.3675 207.558 21.0115C213.586 15.6182 221.182 11.77 229.592 9.84907C236.715 8.05192 244.6 6.66209 253.947 8.7077C259.438 9.88968 264.723 12.3005 269.834 14.6355C275.182 17.08 280.716 19.6024 286.393 20.6283C294.731 22.1436 302.947 20.8556 308.804 17.094C316.983 11.8475 318.5 2.72202 320.071 -6.0789C320.502 -8.67317 320.938 -11.2902 321.611 -13.8092L320.882 -13.9305Z" fill="white"/>
<path d="M303.851 -16.7627L303.122 -16.884C303.029 -16.3265 303.024 -15.731 302.987 -15.1876C302.192 -5.82488 301.373 3.84934 293.854 9.71993C289.055 13.4705 282.163 15.1658 274.448 14.4907C267.933 13.9217 261.231 11.4975 254.743 9.15566C251.259 7.89808 247.649 6.59609 244.108 5.59804C236.261 3.34056 228.067 2.37451 219.948 2.74947C210.516 3.14529 203.107 5.61976 197.284 10.2992C193.7 13.3785 190.516 16.8002 187.786 20.5062C184.591 24.5118 181.291 28.6636 177.14 31.0954C174.332 32.7979 170.977 33.7086 167.499 33.7132C164.931 33.6979 162.364 33.3146 159.9 32.5781C156.162 31.4579 152.51 30.1002 148.975 28.5161C144.086 26.452 139.047 24.3277 133.569 23.4752C128.789 22.8261 123.952 22.9368 119.291 23.8018C112.129 24.8614 105.45 27.4693 99.8445 31.3955C98.3889 32.4225 97.0186 33.5385 95.7431 34.7358C92.9203 37.3884 90.2674 40.4669 87.6986 43.4423C84.4982 47.4333 80.8676 51.1357 76.8544 54.5013C74.0119 56.66 70.9011 58.5339 67.5754 60.0909C66.4983 60.6134 65.36 61.1023 64.2943 61.5565C59.4168 63.6101 54.2339 65.7299 49.0145 66.2183C42.3524 66.9345 33.7087 65.4853 29.4849 59.2637C25.83 53.8851 27.4578 47.3154 29.8422 41.0235C33.5671 31.6066 37.9412 22.4199 42.9407 13.5131L44.1603 11.2487C48.2322 3.74067 52.433 -3.97972 56.0485 -11.9612C61.5603 -23.764 65.2559 -36.2208 67.0407 -49.0126C67.3339 -51.4194 67.53 -53.7254 67.6481 -56.0444L66.9189 -56.1656C66.8009 -53.8467 66.6047 -51.5407 66.3153 -49.1566C64.5442 -36.4209 60.8622 -24.0198 55.3645 -12.2737C51.764 -4.30146 47.5612 3.43031 43.482 10.902L42.2624 13.1664C37.2401 22.1065 32.8509 31.33 29.119 40.7863C26.71 47.2261 25.0017 53.9578 28.8048 59.5716C30.1637 61.4622 31.9738 63.079 34.1019 64.303C36.2301 65.5271 38.6223 66.3273 41.1027 66.6448C43.7628 67.0558 46.4609 67.1102 49.1041 66.8062C54.4316 66.2305 59.6739 64.1557 64.6092 62.0765C65.6879 61.6245 66.8412 61.1264 67.9331 60.5947C71.3013 59.0171 74.4553 57.1233 77.3426 54.9449C81.3873 51.5448 85.05 47.8091 88.2839 43.7852C90.8359 40.8303 93.4738 37.7611 96.2799 35.1291C97.5299 33.9511 98.8747 32.8542 100.305 31.8462C105.817 27.9834 112.388 25.4212 119.435 24.3869C124.008 23.532 128.754 23.4183 133.447 24.0511C138.798 24.9411 143.83 26.9472 148.674 29.039C152.245 30.6407 155.935 32.0125 159.713 33.1433C162.253 33.9014 164.9 34.2941 167.547 34.3059C171.147 34.3011 174.619 33.3663 177.535 31.6171C181.792 29.1095 185.125 24.9164 188.373 20.8377C191.068 17.1612 194.212 13.7644 197.752 10.7044C203.529 6.13442 210.823 3.7109 220.055 3.31673C228.085 2.9446 236.19 3.89589 243.954 6.122C247.468 7.11571 251.053 8.41337 254.524 9.6688C261.064 12.0193 267.816 14.4635 274.45 15.0407C282.363 15.7368 289.444 14.0264 294.381 10.1701C302.076 4.1299 302.944 -5.67653 303.746 -15.1665C303.753 -15.6097 303.814 -16.2193 303.851 -16.7627Z" fill="white"/>
<path d="M286.495 -19.6492C286.268 -11.1275 285.283 -2.79046 279.35 2.87616C270.87 10.984 255.657 11.0616 234.139 3.1098C218.155 -2.79906 200.047 -8.40635 187.406 0.0971144C183.521 2.70165 180.55 6.4872 177.702 10.1763C173.099 16.0524 168.746 21.5492 161.124 22.1642C154.767 22.6506 149.382 19.3111 143.684 15.756C139.72 13.2843 135.607 10.7411 131.071 9.53078C117.537 5.94703 104.698 15.2475 97.8375 24.3147C95.5757 27.2945 93.518 30.4953 91.5295 33.6024C87.1374 40.4608 82.5865 47.55 75.5964 52.4913C72.4487 54.6305 68.7781 56.1183 64.8408 56.8509C60.9035 57.5836 56.7942 57.5434 52.7997 56.7332C50.4018 56.2626 48.1385 55.307 46.1922 53.9434C44.2458 52.5798 42.671 50.8464 41.5945 48.8829C38.257 42.4813 40.9944 35.032 43.7608 29.2597C49.1718 17.9637 56.2618 7.19243 63.1181 -3.22009C68.0778 -10.7558 73.2168 -18.5658 77.6975 -26.5203C82.4358 -34.7904 86.1925 -43.4972 88.9104 -52.5084L88.1943 -52.6275C85.4655 -43.6803 81.7104 -35.0364 76.9856 -26.8257C72.5217 -18.8918 67.3995 -11.1025 62.4063 -3.52557C55.5331 6.90755 48.4412 17.6902 43.0115 29.0181C40.1853 34.9091 37.3953 42.5134 40.8643 49.1707C41.9742 51.2322 43.615 53.0526 45.6508 54.4811C47.6866 55.9095 50.0588 56.905 52.5709 57.3851C53.0917 57.4717 53.6256 57.5605 54.1594 57.6492C58.0308 58.226 61.9606 58.1103 65.7114 57.3092C69.4622 56.508 72.9561 55.038 75.9821 52.9881C83.0766 47.9823 87.6649 40.8291 92.0905 33.9295C94.0642 30.8317 96.1295 27.5854 98.3669 24.6717C105.117 15.785 117.649 6.64379 130.814 10.1897C135.223 11.3555 139.277 13.9356 143.178 16.3033C148.733 19.7528 154.496 23.3187 161.113 22.7938C169.066 22.1988 173.514 16.5308 178.216 10.5425C181.053 6.92166 183.991 3.17729 187.786 0.628039C200.123 -7.65703 218.002 -2.12285 233.796 3.7194C255.63 11.7822 271.119 11.6569 279.821 3.34043C285.9 -2.47738 286.913 -10.9033 287.142 -19.5182L286.495 -19.6492Z" fill="white"/>
<path d="M472.49 220.238C446.391 216.822 423.228 235.49 408.049 252.342C406.853 253.663 405.669 254.986 404.469 256.33C388.389 274.329 371.759 292.985 346.64 295.824C322.586 298.535 299.998 285.354 278.137 272.621C254.962 259.108 230.968 245.121 205.52 250.664C193.97 253.175 184.363 259.528 175.086 265.668C168.653 269.918 162.008 274.309 154.748 277.416C117.767 293.249 78.9401 274.643 52.8831 259.307C50.2469 257.699 47.3239 256.207 44.3006 254.593C36.5091 250.515 27.6974 245.892 22.0309 239.817C18.8192 236.359 17.0693 231.192 15.399 226.19C13.0438 219.192 10.6184 211.972 4.04099 208.96C-0.0727758 207.099 -4.45499 205.783 -8.95786 205.056C-24.0615 202.544 -40.2777 205.998 -54.7593 210.044L-58.5082 211.105C-76.1857 216.104 -94.4536 221.275 -112.519 217.183C-125.954 214.13 -137.455 206.207 -148.556 198.538C-150.251 197.305 -151.961 196.105 -153.684 194.937L-153.923 196.371C-152.42 197.393 -150.919 198.426 -149.445 199.454C-138.204 207.17 -126.64 215.197 -112.831 218.335C-94.3753 222.574 -75.8894 217.3 -58.0163 212.25L-54.2693 211.202C-35.8229 206.084 -14.5243 201.839 3.46114 210.033C9.45503 212.772 11.6847 219.399 14.1124 226.444C15.8289 231.571 17.6101 236.871 21.0277 240.538C26.863 246.806 35.8103 251.498 43.6985 255.639C46.7757 257.25 49.6671 258.772 52.2867 260.318C67.8316 269.51 87.9251 279.832 109.539 283.427C125.307 286.288 141.481 284.586 155.612 278.577C162.988 275.419 169.692 270.992 176.172 266.702C185.343 260.638 194.828 254.37 206.103 251.907C230.886 246.499 253.525 259.7 277.494 273.672C299.585 286.548 322.434 299.854 347.031 297.093C372.707 294.207 390.268 274.536 405.771 257.189L409.336 253.21C424.271 236.623 446.984 218.242 472.408 221.534L472.49 220.238Z" fill="white"/>
<path d="M499.635 57.0152C498.628 58.987 497.39 60.8538 495.939 62.5861C483.767 77.0375 460.084 78.0802 438.837 77.9143C421.918 77.79 406.934 77.052 395.062 69.3481C388.093 64.8331 382.404 58.0054 376.905 51.408C367.468 40.0866 358.544 29.3767 343.945 30.1878C325.527 31.1939 318.977 49.8192 314.268 67.1954C307.541 91.8998 295.518 115.06 278.83 135.459C272.79 142.815 264.373 151.425 252.851 152.724C245.545 153.532 238.516 151.381 231.055 149.1C225.927 147.321 220.615 146.045 215.216 145.296C200.744 143.813 187.349 150.016 174.386 155.952C159.461 162.824 145.407 169.292 130.087 164.862C122.262 162.59 115.694 157.592 109.351 152.772C102.793 147.788 96.0116 142.626 87.7499 140.328C75.1519 136.83 62.2733 140.651 49.8824 144.355C36.6498 148.294 24.1491 152.015 11.7634 147.803C7.68575 146.257 3.78834 144.338 0.137305 142.081C-6.41208 138.338 -13.1937 134.462 -20.8421 135.154C-29.3263 135.965 -34.8285 141.855 -40.1014 147.573C-42.2108 149.938 -44.4832 152.184 -46.9066 154.299C-57.1187 162.844 -73.6897 166.099 -91.3487 163.022C-107.341 160.222 -122.021 153.15 -136.217 146.31C-139.042 144.952 -141.945 143.499 -144.861 141.962L-145.086 143.316C-142.356 144.763 -139.602 146.145 -136.913 147.434C-122.618 154.325 -107.825 161.439 -91.5533 164.332L-90.8762 164.445C-73.0513 167.409 -56.2547 164.005 -45.8542 155.293C-43.41 153.118 -41.1189 150.812 -38.9926 148.389C-33.6154 142.607 -28.535 137.161 -20.6428 136.45C-13.5249 135.81 -7.26913 139.388 -0.64541 143.167C3.10277 145.474 7.10003 147.436 11.2799 149.021C24.1732 153.398 37.5046 149.43 50.387 145.585C62.5916 141.956 75.2059 138.195 87.3427 141.57C95.3106 143.784 101.962 148.842 108.414 153.739C114.865 158.635 121.563 163.736 129.681 166.092C145.511 170.677 160.532 163.786 175.064 157.106C187.844 151.221 201.07 145.154 215.069 146.581C220.358 147.307 225.564 148.546 230.592 150.274C237.886 152.516 245.422 154.833 253.052 154.009C265.105 152.658 273.788 143.812 279.993 136.273C296.823 115.741 308.954 92.424 315.748 67.5468C320.334 50.5944 326.698 32.441 344.144 31.4838C357.932 30.7249 366.624 41.1389 375.79 52.158C381.369 58.8389 387.113 65.7343 394.267 70.4318C407.554 79.0377 425.677 79.1635 438.934 79.2634C460.529 79.4287 484.581 78.3421 497.176 63.4349C497.842 62.6454 498.458 61.8359 499.023 61.0176L499.635 57.0152Z" fill="white"/>
<path d="M286.104 -19.7142C285.872 -11.2402 284.923 -2.95567 279.053 2.65134C270.677 10.6129 255.609 10.7029 234.242 2.81124C218.171 -3.13553 199.929 -8.74173 187.143 -0.168889C183.226 2.46545 180.238 6.27159 177.351 9.95419C172.785 15.7664 168.488 21.2491 161.035 21.8104C154.815 22.2843 149.464 18.9741 143.843 15.4433C139.84 12.9651 135.702 10.4062 131.115 9.18724C117.378 5.53471 104.403 14.9295 97.4622 24.0769C95.1985 27.0681 93.1389 30.2802 91.1373 33.3851C86.7621 40.2229 82.228 47.2916 75.2864 52.1825C72.1855 54.297 68.5663 55.7677 64.6828 56.4914C60.7994 57.2151 56.7457 57.1743 52.8062 56.3718C50.4635 55.9149 48.252 54.9828 46.351 53.6508C44.45 52.3189 42.9131 50.6247 41.8648 48.7057C38.5753 42.4173 41.2846 35.0569 44.0265 29.3506C49.4338 18.0774 56.5089 7.31537 63.3652 -3.09715C68.3267 -10.6443 73.4639 -18.4428 77.9446 -26.3973C82.7197 -34.6867 86.5155 -43.4139 89.2749 -52.4478L87.8166 -52.6903C85.0911 -43.7784 81.3463 -35.1683 76.638 -26.9888C72.1871 -19.0527 67.0649 -11.2634 62.0586 -3.68862C55.1855 6.74449 48.0768 17.5477 42.6433 28.8984C39.7946 34.8442 36.9764 42.5373 40.4954 49.2964C41.6319 51.4065 43.3113 53.2699 45.3947 54.7327C47.4781 56.1954 49.9057 57.2155 52.4769 57.7085C53.0107 57.7973 53.5446 57.8861 54.0784 57.9749C58.0138 58.5709 62.011 58.4601 65.8265 57.6493C69.6419 56.8384 73.1957 55.3444 76.2716 53.2584C83.4667 48.2108 88.0048 41.0376 92.5031 34.1034C94.4749 31.0169 96.5307 27.8275 98.7607 24.8775C105.443 16.0731 117.791 6.99485 130.821 10.4714C135.18 11.6172 139.206 14.1225 143.112 16.5379C148.728 20.021 154.537 23.6297 161.307 23.0717C169.437 22.4593 174.112 16.4781 178.661 10.6865C181.481 7.0863 184.401 3.36252 188.152 0.84091C200.338 -7.34065 218.115 -1.83517 233.809 3.96699C255.793 12.0899 271.42 11.9408 280.236 3.5029C286.332 -2.3355 287.3 -10.8156 287.601 -19.4652L286.104 -19.7142Z" fill="white"/>
</g>
<g filter="url(#filter0_d)">
<path d="M415 208.743H53C22.6243 208.743 -2 233.367 -2 263.743V951.743C-2 971.073 13.67 986.743 33 986.743H380C399.33 986.743 415 971.073 415 951.743V208.743Z" fill="white"/>
</g>
</g>
<defs>
<filter id="filter0_d" x="-16" y="190.743" width="441" height="802" filterUnits="userSpaceOnUse" color-interpolation-filters="sRGB">
<feFlood flood-opacity="0" result="BackgroundImageFix"/>
<feColorMatrix in="SourceAlpha" type="matrix" values="0 0 0 0 0 0 0 0 0 0 0 0 0 0 0 0 0 0 127 0"/>
<feMorphology radius="3" operator="dilate" in="SourceAlpha" result="effect1_dropShadow"/>
<feOffset dx="-2" dy="-6"/>
<feGaussianBlur stdDeviation="4.5"/>
<feColorMatrix type="matrix" values="0 0 0 0 0.265733 0 0 0 0 0.845833 0 0 0 0 0.814757 0 0 0 0.32 0"/>
<feBlend mode="normal" in2="BackgroundImageFix" result="effect1_dropShadow"/>
<feBlend mode="normal" in="SourceGraphic" in2="effect1_dropShadow" result="shape"/>
</filter>
<linearGradient id="paint0_linear" x1="142" y1="-439" x2="314" y2="1396" gradientUnits="userSpaceOnUse">
<stop stop-color="white"/>
<stop offset="0.827252" stop-color="white" stop-opacity="0"/>
</linearGradient>
<linearGradient id="paint1_linear" x1="444" y1="14.2427" x2="-91.0001" y2="503.743" gradientUnits="userSpaceOnUse">
<stop offset="0.14257" stop-color="#53FFE0"/>
<stop offset="0.76547" stop-color="#32CEFF"/>
</linearGradient>
<clipPath id="clip0">
<rect width="414" height="896" fill="white"/>
</clipPath>
</defs>
</svg>
