<svg width="247" height="177" viewBox="0 0 247 177" fill="none" xmlns="http://www.w3.org/2000/svg">
<path d="M197.6 98.8001C188.188 98.8001 183.449 87.3597 190.104 80.7044C192.098 78.7241 194.79 77.6075 197.6 77.5956C224.767 77.5956 247 99.613 247 126.995C247 154.261 224.865 176.396 197.6 176.396C170.334 176.396 148.2 154.261 148.2 126.995C148.2 111.1 155.196 103.644 155.196 88.1975C155.196 51.1804 125.217 21.2009 88.199 21.2009C51.1811 21.2009 21.2024 51.1804 21.2024 88.1975C21.2024 125.215 51.1819 155.195 88.199 155.195H130.605C136.708 155.195 141.211 160.176 141.211 165.864C141.211 168.483 140.25 171.142 138.1 173.291C137.95 173.353 135.324 176.397 130.605 176.397H88.199C39.5084 176.399 0 136.893 0 88.199C0 39.5048 39.5084 0 88.199 0C136.89 0 176.399 39.5084 176.399 88.199C176.399 107.066 169.402 115.373 169.402 126.997C169.402 142.543 181.972 155.195 197.6 155.195C213.146 155.195 225.798 142.625 225.798 126.997C225.798 111.407 213.189 98.7987 197.6 98.7987V98.8001ZM88.199 39.2242C115.247 39.2242 137.175 61.1513 137.175 88.1997C137.192 98.3694 134.027 108.29 128.124 116.571L135.745 137.178L113.034 130.419C105.511 134.857 96.9333 137.191 88.199 137.178C61.1506 137.178 39.2235 115.25 39.2235 88.2018C39.2235 61.1535 61.1506 39.2242 88.199 39.2242Z" fill="white"/>
</svg>
