<svg width="247" height="268" viewBox="0 0 247 268" fill="none" xmlns="http://www.w3.org/2000/svg">
<path d="M197.6 98.8001C188.188 98.8001 183.449 87.3597 190.104 80.7044C192.098 78.7241 194.79 77.6075 197.6 77.5956C224.767 77.5956 247 99.613 247 126.995C247 154.261 224.865 176.396 197.6 176.396C170.334 176.396 148.2 154.261 148.2 126.995C148.2 111.1 155.196 103.644 155.196 88.1975C155.196 51.1804 125.217 21.2009 88.199 21.2009C51.1811 21.2009 21.2024 51.1804 21.2024 88.1975C21.2024 125.215 51.1819 155.195 88.199 155.195H130.605C136.708 155.195 141.211 160.176 141.211 165.864C141.211 168.483 140.25 171.142 138.1 173.291C137.95 173.353 135.324 176.397 130.605 176.397H88.199C39.5084 176.399 0 136.893 0 88.199C0 39.5048 39.5084 0 88.199 0C136.89 0 176.399 39.5084 176.399 88.199C176.399 107.066 169.402 115.373 169.402 126.997C169.402 142.543 181.972 155.195 197.6 155.195C213.146 155.195 225.798 142.625 225.798 126.997C225.798 111.407 213.189 98.7987 197.6 98.7987V98.8001ZM88.199 39.2242C115.247 39.2242 137.175 61.1513 137.175 88.1997C137.192 98.3694 134.027 108.29 128.124 116.571L135.745 137.178L113.034 130.419C105.511 134.857 96.9333 137.191 88.199 137.178C61.1506 137.178 39.2235 115.25 39.2235 88.2018C39.2235 61.1535 61.1506 39.2242 88.199 39.2242Z" fill="white"/>
<path d="M63.8965 230.243V244.613C63.8965 246.882 63.3819 248.585 62.3526 249.719C61.3234 250.854 59.9643 251.422 58.2752 251.422C56.639 251.422 55.3063 250.854 54.277 249.719C53.2742 248.585 52.7728 246.882 52.7728 244.613V227.393C52.7728 224.675 52.6804 222.563 52.4957 221.059C52.3109 219.555 51.8095 218.328 50.9914 217.377C50.1733 216.401 48.8801 215.913 47.1119 215.913C43.5756 215.913 41.24 217.127 40.1052 219.555C38.9968 221.983 38.4426 225.466 38.4426 230.005V244.613C38.4426 246.856 37.9279 248.558 36.8987 249.719C35.8959 250.854 34.5631 251.422 32.9005 251.422C31.2643 251.422 29.9183 250.854 28.8627 249.719C27.8335 248.558 27.3188 246.856 27.3188 244.613V213.696C27.3188 211.664 27.7807 210.12 28.7044 209.064C29.6544 208.009 30.8948 207.481 32.4255 207.481C33.9034 207.481 35.1305 207.982 36.107 208.985C37.1098 209.962 37.6113 211.321 37.6113 213.063V214.092C39.485 211.849 41.4907 210.199 43.6284 209.144C45.766 208.088 48.1412 207.56 50.7539 207.56C53.4721 207.56 55.8077 208.101 57.7606 209.183C59.7135 210.265 61.3234 211.901 62.5901 214.092C64.4111 211.875 66.364 210.239 68.4489 209.183C70.5338 208.101 72.843 207.56 75.3765 207.56C78.3323 207.56 80.879 208.141 83.0166 209.302C85.1543 210.463 86.7509 212.126 87.8065 214.29C88.7302 216.243 89.1921 219.317 89.1921 223.513V244.613C89.1921 246.882 88.6774 248.585 87.6482 249.719C86.619 250.854 85.2598 251.422 83.5708 251.422C81.9346 251.422 80.5887 250.854 79.533 249.719C78.5038 248.558 77.9892 246.856 77.9892 244.613V226.443C77.9892 224.12 77.8836 222.26 77.6725 220.861C77.4877 219.462 76.9599 218.288 76.089 217.338C75.2181 216.388 73.8986 215.913 72.1304 215.913C70.7053 215.913 69.3462 216.335 68.053 217.18C66.7863 218.024 65.7966 219.159 65.0841 220.584C64.2924 222.405 63.8965 225.625 63.8965 230.243ZM110.489 213.617V244.85C110.489 247.014 109.975 248.651 108.946 249.759C107.916 250.867 106.61 251.422 105.027 251.422C103.443 251.422 102.15 250.854 101.147 249.719C100.171 248.585 99.6824 246.962 99.6824 244.85V213.933C99.6824 211.796 100.171 210.186 101.147 209.104C102.15 208.022 103.443 207.481 105.027 207.481C106.61 207.481 107.916 208.022 108.946 209.104C109.975 210.186 110.489 211.69 110.489 213.617ZM105.145 202.453C103.641 202.453 102.348 201.992 101.266 201.068C100.21 200.144 99.6824 198.838 99.6824 197.149C99.6824 195.618 100.223 194.365 101.305 193.388C102.414 192.385 103.694 191.884 105.145 191.884C106.544 191.884 107.784 192.333 108.866 193.23C109.948 194.127 110.489 195.434 110.489 197.149C110.489 198.812 109.962 200.118 108.906 201.068C107.85 201.992 106.597 202.453 105.145 202.453ZM131.51 213.458V214.765C133.41 212.258 135.482 210.423 137.725 209.262C139.994 208.075 142.594 207.481 145.523 207.481C148.373 207.481 150.92 208.101 153.163 209.341C155.407 210.582 157.082 212.337 158.191 214.606C158.903 215.926 159.365 217.351 159.576 218.882C159.787 220.412 159.893 222.365 159.893 224.74V244.85C159.893 247.014 159.392 248.651 158.389 249.759C157.412 250.867 156.132 251.422 154.549 251.422C152.939 251.422 151.633 250.854 150.63 249.719C149.627 248.585 149.126 246.962 149.126 244.85V226.839C149.126 223.276 148.624 220.558 147.621 218.684C146.645 216.784 144.679 215.834 141.723 215.834C139.796 215.834 138.041 216.414 136.458 217.575C134.875 218.71 133.713 220.28 132.974 222.286C132.447 223.896 132.183 226.905 132.183 231.312V244.85C132.183 247.041 131.668 248.69 130.639 249.799C129.636 250.881 128.33 251.422 126.72 251.422C125.163 251.422 123.883 250.854 122.88 249.719C121.877 248.585 121.376 246.962 121.376 244.85V213.617C121.376 211.558 121.824 210.028 122.722 209.025C123.619 207.996 124.846 207.481 126.403 207.481C127.353 207.481 128.211 207.705 128.976 208.154C129.742 208.603 130.349 209.275 130.797 210.173C131.272 211.07 131.51 212.165 131.51 213.458ZM200.311 245.246V244.177C198.859 245.84 197.421 247.199 195.996 248.255C194.597 249.284 193.066 250.062 191.404 250.59C189.767 251.144 187.973 251.422 186.02 251.422C183.434 251.422 181.032 250.881 178.815 249.799C176.625 248.69 174.725 247.12 173.115 245.088C171.505 243.056 170.278 240.667 169.433 237.923C168.615 235.178 168.206 232.209 168.206 229.016C168.206 222.26 169.856 216.995 173.154 213.221C176.453 209.447 180.795 207.56 186.178 207.56C189.292 207.56 191.918 208.101 194.056 209.183C196.194 210.239 198.278 211.875 200.311 214.092V198.139C200.311 195.922 200.746 194.246 201.617 193.111C202.514 191.976 203.781 191.409 205.417 191.409C207.053 191.409 208.307 191.937 209.178 192.992C210.075 194.022 210.524 195.552 210.524 197.584V245.246C210.524 247.305 210.049 248.848 209.099 249.878C208.149 250.907 206.921 251.422 205.417 251.422C203.939 251.422 202.712 250.894 201.736 249.838C200.786 248.756 200.311 247.225 200.311 245.246ZM179.053 229.372C179.053 232.301 179.501 234.795 180.399 236.854C181.322 238.912 182.576 240.469 184.159 241.525C185.743 242.554 187.471 243.069 189.345 243.069C191.245 243.069 192.974 242.581 194.531 241.604C196.114 240.601 197.368 239.084 198.292 237.052C199.242 234.993 199.717 232.433 199.717 229.372C199.717 226.495 199.242 224.028 198.292 221.969C197.368 219.885 196.101 218.301 194.491 217.219C192.908 216.111 191.166 215.556 189.266 215.556C187.287 215.556 185.518 216.124 183.961 217.259C182.404 218.367 181.19 219.977 180.319 222.088C179.475 224.173 179.053 226.601 179.053 229.372ZM232.177 213.617V244.85C232.177 247.014 231.663 248.651 230.634 249.759C229.604 250.867 228.298 251.422 226.714 251.422C225.131 251.422 223.838 250.854 222.835 249.719C221.859 248.585 221.37 246.962 221.37 244.85V213.933C221.37 211.796 221.859 210.186 222.835 209.104C223.838 208.022 225.131 207.481 226.714 207.481C228.298 207.481 229.604 208.022 230.634 209.104C231.663 210.186 232.177 211.69 232.177 213.617ZM226.833 202.453C225.329 202.453 224.036 201.992 222.954 201.068C221.898 200.144 221.37 198.838 221.37 197.149C221.37 195.618 221.911 194.365 222.993 193.388C224.102 192.385 225.382 191.884 226.833 191.884C228.232 191.884 229.472 192.333 230.554 193.23C231.636 194.127 232.177 195.434 232.177 197.149C232.177 198.812 231.65 200.118 230.594 201.068C229.538 201.992 228.285 202.453 226.833 202.453Z" fill="white"/>
</svg>
