<svg width="206" height="61" viewBox="0 0 206 61" fill="none" xmlns="http://www.w3.org/2000/svg">
<path d="M36.8965 39.243V53.6128C36.8965 55.8824 36.3819 57.5846 35.3526 58.7194C34.3234 59.8542 32.9643 60.4216 31.2752 60.4216C29.639 60.4216 28.3063 59.8542 27.277 58.7194C26.2742 57.5846 25.7728 55.8824 25.7728 53.6128V36.3928C25.7728 33.6745 25.6804 31.5633 25.4957 30.059C25.3109 28.5547 24.8095 27.3275 23.9914 26.3775C23.1733 25.401 21.8801 24.9128 20.1119 24.9128C16.5756 24.9128 14.24 26.1267 13.1052 28.5547C11.9968 30.9827 11.4426 34.4662 11.4426 39.0055V53.6128C11.4426 55.856 10.9279 57.5582 9.89871 58.7194C8.89586 59.8542 7.56312 60.4216 5.9005 60.4216C4.26427 60.4216 2.91834 59.8542 1.86271 58.7194C0.833469 57.5582 0.318849 55.856 0.318849 53.6128V22.6959C0.318849 20.6639 0.780688 19.12 1.70437 18.0644C2.65443 17.0087 3.8948 16.4809 5.42547 16.4809C6.90335 16.4809 8.13052 16.9823 9.10698 17.9852C10.1098 18.9616 10.6113 20.3208 10.6113 22.0626V23.0918C12.485 20.8486 14.4907 19.1992 16.6284 18.1435C18.766 17.0879 21.1412 16.5601 23.7539 16.5601C26.4721 16.5601 28.8077 17.1011 30.7606 18.1831C32.7135 19.2651 34.3234 20.9014 35.5901 23.0918C37.4111 20.875 39.364 19.2388 41.4489 18.1831C43.5338 17.1011 45.843 16.5601 48.3765 16.5601C51.3323 16.5601 53.879 17.1407 56.0166 18.3019C58.1543 19.4631 59.7509 21.1257 60.8065 23.2897C61.7302 25.2427 62.1921 28.3172 62.1921 32.5133V53.6128C62.1921 55.8824 61.6774 57.5846 60.6482 58.7194C59.619 59.8542 58.2598 60.4216 56.5708 60.4216C54.9346 60.4216 53.5887 59.8542 52.533 58.7194C51.5038 57.5582 50.9892 55.856 50.9892 53.6128V35.4427C50.9892 33.1203 50.8836 31.2598 50.6725 29.861C50.4877 28.4623 49.9599 27.2879 49.089 26.3379C48.2181 25.3878 46.8986 24.9128 45.1304 24.9128C43.7053 24.9128 42.3462 25.335 41.053 26.1795C39.7863 27.024 38.7966 28.1588 38.0841 29.5839C37.2924 31.4049 36.8965 34.6246 36.8965 39.243ZM83.4894 22.6168V53.8503C83.4894 56.0143 82.9748 57.6506 81.9456 58.759C80.9163 59.8674 79.61 60.4216 78.0265 60.4216C76.4431 60.4216 75.1499 59.8542 74.1471 58.7194C73.1706 57.5846 72.6824 55.9615 72.6824 53.8503V22.9335C72.6824 20.7958 73.1706 19.186 74.1471 18.1039C75.1499 17.0219 76.4431 16.4809 78.0265 16.4809C79.61 16.4809 80.9163 17.0219 81.9456 18.1039C82.9748 19.186 83.4894 20.6902 83.4894 22.6168ZM78.1453 11.4535C76.641 11.4535 75.3479 10.9916 74.2659 10.068C73.2102 9.14427 72.6824 7.83793 72.6824 6.14892C72.6824 4.61825 73.2234 3.36469 74.3054 2.38823C75.4139 1.38538 76.6938 0.883955 78.1453 0.883955C79.544 0.883955 80.7844 1.3326 81.8664 2.22989C82.9484 3.12717 83.4894 4.43352 83.4894 6.14892C83.4894 7.81154 82.9616 9.11788 81.906 10.068C80.8504 10.9916 79.5968 11.4535 78.1453 11.4535ZM104.51 22.4584V23.7648C106.41 21.2576 108.482 19.4235 110.725 18.2623C112.994 17.0747 115.594 16.4809 118.523 16.4809C121.373 16.4809 123.92 17.1011 126.163 18.3415C128.407 19.5818 130.082 21.3368 131.191 23.6064C131.903 24.926 132.365 26.3511 132.576 27.8817C132.787 29.4124 132.893 31.3653 132.893 33.7405V53.8503C132.893 56.0143 132.392 57.6506 131.389 58.759C130.412 59.8674 129.132 60.4216 127.549 60.4216C125.939 60.4216 124.633 59.8542 123.63 58.7194C122.627 57.5846 122.126 55.9615 122.126 53.8503V35.8386C122.126 32.2758 121.624 29.5576 120.621 27.6838C119.645 25.7837 117.679 24.8336 114.723 24.8336C112.796 24.8336 111.041 25.4142 109.458 26.5754C107.875 27.7102 106.713 29.2804 105.974 31.2861C105.447 32.896 105.183 35.9045 105.183 40.3118V53.8503C105.183 56.0407 104.668 57.6901 103.639 58.7986C102.636 59.8806 101.33 60.4216 99.7198 60.4216C98.1627 60.4216 96.8828 59.8542 95.8799 58.7194C94.8771 57.5846 94.3756 55.9615 94.3756 53.8503V22.6168C94.3756 20.5583 94.8243 19.0276 95.7216 18.0248C96.6189 16.9955 97.846 16.4809 99.4031 16.4809C100.353 16.4809 101.211 16.7052 101.976 17.1539C102.742 17.6025 103.349 18.2755 103.797 19.1728C104.272 20.0701 104.51 21.1653 104.51 22.4584ZM173.311 54.2461V53.1773C171.859 54.8399 170.421 56.1991 168.996 57.2547C167.597 58.2839 166.066 59.0625 164.404 59.5903C162.767 60.1445 160.973 60.4216 159.02 60.4216C156.434 60.4216 154.032 59.8806 151.815 58.7986C149.625 57.6901 147.725 56.1199 146.115 54.0878C144.505 52.0557 143.278 49.6673 142.433 46.9227C141.615 44.1781 141.206 41.2091 141.206 38.0158C141.206 31.2598 142.856 25.9948 146.154 22.2209C149.453 18.447 153.795 16.5601 159.178 16.5601C162.292 16.5601 164.918 17.1011 167.056 18.1831C169.194 19.2388 171.278 20.875 173.311 23.0918V7.13857C173.311 4.92175 173.746 3.24593 174.617 2.11113C175.514 0.976323 176.781 0.408921 178.417 0.408921C180.053 0.408921 181.307 0.936737 182.178 1.99237C183.075 3.02161 183.524 4.55228 183.524 6.58437V54.2461C183.524 56.3046 183.049 57.8485 182.099 58.8777C181.149 59.907 179.921 60.4216 178.417 60.4216C176.939 60.4216 175.712 59.8938 174.736 58.8381C173.786 57.7561 173.311 56.2254 173.311 54.2461ZM152.053 38.3721C152.053 41.3015 152.501 43.7954 153.399 45.8539C154.322 47.9123 155.576 49.4694 157.159 50.525C158.743 51.5543 160.471 52.0689 162.345 52.0689C164.245 52.0689 165.974 51.5807 167.531 50.6042C169.114 49.6014 170.368 48.0839 171.292 46.0518C172.242 43.9933 172.717 41.4334 172.717 38.3721C172.717 35.4955 172.242 33.0279 171.292 30.9695C170.368 28.8846 169.101 27.3011 167.491 26.2191C165.908 25.1107 164.166 24.5565 162.266 24.5565C160.287 24.5565 158.518 25.1239 156.961 26.2587C155.404 27.3671 154.19 28.977 153.319 31.0882C152.475 33.1731 152.053 35.601 152.053 38.3721ZM205.177 22.6168V53.8503C205.177 56.0143 204.663 57.6506 203.634 58.759C202.604 59.8674 201.298 60.4216 199.714 60.4216C198.131 60.4216 196.838 59.8542 195.835 58.7194C194.859 57.5846 194.37 55.9615 194.37 53.8503V22.9335C194.37 20.7958 194.859 19.186 195.835 18.1039C196.838 17.0219 198.131 16.4809 199.714 16.4809C201.298 16.4809 202.604 17.0219 203.634 18.1039C204.663 19.186 205.177 20.6902 205.177 22.6168ZM199.833 11.4535C198.329 11.4535 197.036 10.9916 195.954 10.068C194.898 9.14427 194.37 7.83793 194.37 6.14892C194.37 4.61825 194.911 3.36469 195.993 2.38823C197.102 1.38538 198.382 0.883955 199.833 0.883955C201.232 0.883955 202.472 1.3326 203.554 2.22989C204.636 3.12717 205.177 4.43352 205.177 6.14892C205.177 7.81154 204.65 9.11788 203.594 10.068C202.538 10.9916 201.285 11.4535 199.833 11.4535Z" fill="white"/>
</svg>
