<svg width="364" height="46" viewBox="0 0 364 46" fill="none" xmlns="http://www.w3.org/2000/svg">
<path d="M0 23.377C0 10.4663 10.4663 0 23.3771 0H341C353.703 0 364 10.2975 364 23C364 35.7025 353.703 46 341 46H22.6229C10.1286 46 0 35.8714 0 23.377Z" fill="white" fill-opacity="0.92"/>
<mask id="mask0" mask-type="alpha" maskUnits="userSpaceOnUse" x="0" y="0" width="364" height="46">
<path d="M0 23.377C0 10.4663 10.4663 0 23.3771 0H341C353.703 0 364 10.2975 364 23C364 35.7025 353.703 46 341 46H22.6229C10.1286 46 0 35.8714 0 23.377Z" fill="white" fill-opacity="0.92"/>
</mask>
<g mask="url(#mask0)">
<g opacity="0.71" filter="url(#filter0_d)">
<rect y="-13" width="71" height="71" rx="35.5" fill="#DDCEFF"/>
<rect x="0.222222" y="-12.7778" width="70.5556" height="70.5556" rx="35.2778" stroke="#9BAFB6" stroke-opacity="0.14" stroke-width="0.444444"/>
</g>
<path d="M50.8199 35.7234L48.3236 31.4776C47.1707 29.5179 46.5615 27.2733 46.5615 24.9887V21.2695C46.5615 16.5742 43.4908 12.6029 39.2919 11.3226V8.65968C39.2919 7.02334 37.9878 5.69263 36.3841 5.69263C34.7804 5.69263 33.4763 7.02334 33.4763 8.65968V11.3226C29.2774 12.6029 26.2068 16.5742 26.2068 21.2695V24.9887C26.2068 27.2733 25.5976 29.5164 24.4461 31.4761L21.9498 35.7219C21.8146 35.9519 21.8116 36.2367 21.9411 36.4696C22.0705 36.7025 22.3104 36.8465 22.5721 36.8465H50.1962C50.4579 36.8465 50.6992 36.7026 50.8287 36.4712C50.9581 36.2397 50.9537 35.9518 50.8199 35.7234Z" fill="#B34BF3"/>
<path d="M31.5385 37.5383C32.3444 39.5772 34.0507 40.9999 36.0384 40.9999C38.0262 40.9999 39.7325 39.5772 40.5385 37.5383H31.5385Z" fill="#B34BF3"/>
<g clip-path="url(#clip0)">
<path d="M56.86 18.6062L56.86 18.6062L56.8592 18.6038C56.4974 17.4375 55.8768 16.3797 55.0674 15.5055C54.8298 15.2477 54.4467 15.1863 54.1388 15.3607L54.1388 15.3607L54.1361 15.3623L53.0353 15.998C52.5609 15.6267 52.037 15.3248 51.4786 15.0996V13.8279C51.4786 13.4779 51.2341 13.167 50.8873 13.0922C49.6857 12.8231 48.4622 12.8336 47.3182 13.0923C46.9717 13.1673 46.7274 13.4781 46.7274 13.8279V15.0996C46.1691 15.3248 45.6451 15.6267 45.1708 15.998L44.0708 15.3628C43.7645 15.184 43.375 15.2493 43.139 15.505C42.3295 16.3793 41.7086 17.4373 41.3468 18.6038L41.3468 18.6038L41.3461 18.6062C41.2438 18.9438 41.3866 19.3045 41.687 19.4806L41.6891 19.4818L42.79 20.1176C42.7057 20.7142 42.7057 21.3182 42.79 21.9147L41.6918 22.549C41.6912 22.5493 41.6907 22.5497 41.6901 22.55C41.3746 22.7298 41.2461 23.0963 41.3461 23.4262L41.346 23.4262L41.3468 23.4286C41.7088 24.5958 42.3298 25.648 43.1382 26.5265C43.3758 26.7847 43.7592 26.8462 44.0672 26.6717L44.0672 26.6717L44.0699 26.6701L45.1708 26.0344C45.6451 26.4057 46.1691 26.7076 46.7274 26.9327V28.2045C46.7274 28.5545 46.9719 28.8654 47.3187 28.9402C48.5203 29.2093 49.7438 29.1987 50.8878 28.9401C51.2343 28.8651 51.4786 28.5543 51.4786 28.2045V26.9327C52.037 26.7076 52.5609 26.4057 53.0353 26.0344L54.134 26.6689C54.1344 26.6691 54.1348 26.6693 54.1352 26.6696C54.4414 26.8484 54.831 26.7831 55.067 26.5274C55.8766 25.653 56.4974 24.5951 56.8592 23.4286L56.86 23.4262C56.9623 23.0886 56.8194 22.7279 56.5191 22.5518L56.5169 22.5506L55.416 21.9147C55.5003 21.3182 55.5003 20.7142 55.416 20.1176L56.5142 19.4834C56.5148 19.4831 56.5153 19.4828 56.5158 19.4825C56.8314 19.3027 56.9599 18.9361 56.86 18.6062ZM49.1082 23.1327C47.939 23.1327 46.9917 22.1812 46.9917 21.0162C46.9917 19.8517 47.9437 18.8997 49.1082 18.8997C50.2726 18.8997 51.2246 19.8517 51.2246 21.0162C51.2246 22.1812 50.2773 23.1327 49.1082 23.1327Z" fill="#226DFF" stroke="#DDCEFF" stroke-width="0.758242"/>
</g>
</g>
<defs>
<filter id="filter0_d" x="-7.11111" y="-20.1111" width="85.2222" height="85.2222" filterUnits="userSpaceOnUse" color-interpolation-filters="sRGB">
<feFlood flood-opacity="0" result="BackgroundImageFix"/>
<feColorMatrix in="SourceAlpha" type="matrix" values="0 0 0 0 0 0 0 0 0 0 0 0 0 0 0 0 0 0 127 0"/>
<feMorphology radius="1.77778" operator="dilate" in="SourceAlpha" result="effect1_dropShadow"/>
<feOffset/>
<feGaussianBlur stdDeviation="2.66667"/>
<feColorMatrix type="matrix" values="0 0 0 0 0.6875 0 0 0 0 0.6875 0 0 0 0 0.6875 0 0 0 0.33 0"/>
<feBlend mode="normal" in2="BackgroundImageFix" result="effect1_dropShadow"/>
<feBlend mode="normal" in="SourceGraphic" in2="effect1_dropShadow" result="shape"/>
</filter>
<clipPath id="clip0">
<rect width="32.9314" height="26.3451" fill="white" transform="translate(23.5862 10.5195)"/>
</clipPath>
</defs>
</svg>
