<svg width="364" height="46" viewBox="0 0 364 46" fill="none" xmlns="http://www.w3.org/2000/svg">
<path d="M0 23.377C0 10.4663 10.4663 0 23.3771 0H341C353.703 0 364 10.2975 364 23C364 35.7025 353.703 46 341 46H22.6229C10.1286 46 0 35.8714 0 23.377Z" fill="white" fill-opacity="0.92"/>
<mask id="mask0" mask-type="alpha" maskUnits="userSpaceOnUse" x="0" y="0" width="364" height="46">
<path d="M0 23.377C0 10.4663 10.4663 0 23.3771 0H341C353.703 0 364 10.2975 364 23C364 35.7025 353.703 46 341 46H22.6229C10.1286 46 0 35.8714 0 23.377Z" fill="white" fill-opacity="0.92"/>
</mask>
<g mask="url(#mask0)">
<g opacity="0.71" filter="url(#filter0_d)">
<rect y="-13" width="71" height="71" rx="35.5" fill="#5CFFE2"/>
<rect x="0.222222" y="-12.7778" width="70.5556" height="70.5556" rx="35.2778" stroke="#9BAFB6" stroke-opacity="0.14" stroke-width="0.444444"/>
</g>
<g clip-path="url(#clip0)">
<path d="M53.3719 27.7943C53.5098 27.0467 53.5098 26.2831 53.3719 25.5354L54.74 24.7454C54.899 24.6552 54.968 24.4696 54.9149 24.2947C54.5597 23.1493 53.9499 22.11 53.1545 21.251C53.0325 21.1184 52.8364 21.0866 52.6773 21.1768L51.3092 21.9668C50.7312 21.4737 50.0684 21.0919 49.3526 20.8374V19.2573C49.3526 19.077 49.2253 18.9179 49.0503 18.8808C47.8679 18.6157 46.6642 18.6263 45.5401 18.8808C45.3651 18.9179 45.2378 19.077 45.2378 19.2573V20.8374C44.522 21.0919 43.8592 21.4737 43.2812 21.9668L41.9132 21.1768C41.7594 21.0866 41.5579 21.1184 41.4359 21.251C40.6405 22.11 40.0308 23.1493 39.6755 24.2947C39.6225 24.4696 39.6967 24.6552 39.8505 24.7454L41.2185 25.5354C41.0807 26.2831 41.0807 27.0467 41.2185 27.7943L39.8505 28.5844C39.6914 28.6745 39.6225 28.8601 39.6755 29.0351C40.0308 30.1805 40.6405 31.2145 41.4359 32.0788C41.5579 32.2113 41.7541 32.2431 41.9132 32.153L43.2812 31.3629C43.8592 31.8561 44.522 32.2378 45.2378 32.4924V34.0725C45.2378 34.2528 45.3651 34.4119 45.5401 34.449C46.7225 34.7141 47.9262 34.7035 49.0503 34.449C49.2253 34.4119 49.3526 34.2528 49.3526 34.0725V32.4924C50.0684 32.2378 50.7312 31.8561 51.3092 31.3629L52.6773 32.153C52.8311 32.2431 53.0325 32.2113 53.1545 32.0788C53.9499 31.2198 54.5597 30.1805 54.9149 29.0351C54.968 28.8601 54.8937 28.6745 54.74 28.5844L53.3719 27.7943ZM47.3005 29.2366C45.8794 29.2366 44.7288 28.0807 44.7288 26.6649C44.7288 25.2491 45.8847 24.0932 47.3005 24.0932C48.7163 24.0932 49.8722 25.2491 49.8722 26.6649C49.8722 28.0807 48.7216 29.2366 47.3005 29.2366ZM32.8777 21.5745C36.6265 21.5745 39.6649 18.5361 39.6649 14.7872C39.6649 11.0383 36.6265 8 32.8777 8C29.1288 8 26.0904 11.0383 26.0904 14.7872C26.0904 18.5361 29.1288 21.5745 32.8777 21.5745ZM43.5463 33.5847C43.4244 33.5211 43.3024 33.4468 43.1858 33.3779L42.7669 33.6218C42.4487 33.8021 42.0881 33.9028 41.7276 33.9028C41.1496 33.9028 40.5928 33.6589 40.1951 33.2347C39.2248 32.1848 38.4824 30.9069 38.0635 29.5442C37.7719 28.6056 38.1643 27.614 39.0127 27.1209L39.4316 26.877C39.4263 26.7391 39.4263 26.6013 39.4316 26.4634L39.0127 26.2195C38.1643 25.7316 37.7719 24.7348 38.0635 23.7962C38.1112 23.6424 38.1802 23.4887 38.2332 23.3349C38.0317 23.319 37.8355 23.2713 37.6287 23.2713H36.7432C35.566 23.8121 34.2563 24.1197 32.8777 24.1197C31.499 24.1197 30.1946 23.8121 29.0121 23.2713H28.1266C24.1921 23.2713 21 26.4634 21 30.3979V32.6037C21 34.0089 22.14 35.1489 23.5452 35.1489H42.2101C42.7456 35.1489 43.2441 34.9792 43.6524 34.6982C43.5888 34.4967 43.5463 34.2899 43.5463 34.0725V33.5847Z" fill="#09CAA7"/>
<path fill-rule="evenodd" clip-rule="evenodd" d="M54.74 28.585L53.3719 27.795C53.5098 27.0473 53.5098 26.2837 53.3719 25.5361L54.74 24.746C54.8991 24.6559 54.968 24.4703 54.915 24.2953C54.5597 23.1499 53.9499 22.1106 53.1545 21.2516C53.0326 21.1191 52.8364 21.0873 52.6773 21.1774L51.3092 21.9675C50.7313 21.4743 50.0685 21.0926 49.3526 20.838V19.2579C49.3526 19.0776 49.2254 18.9185 49.0504 18.8814C47.8679 18.6163 46.6642 18.6269 45.5401 18.8814C45.3651 18.9185 45.2379 19.0776 45.2379 19.2579V20.838C44.522 21.0926 43.8592 21.4743 43.2812 21.9675L41.9132 21.1774C41.7594 21.0873 41.5579 21.1191 41.4359 21.2516C40.6406 22.1106 40.0308 23.1499 39.6755 24.2953C39.6225 24.4703 39.6967 24.6559 39.8505 24.746L41.2185 25.5361C41.0807 26.2837 41.0807 27.0473 41.2185 27.795L39.8505 28.585C39.6914 28.6752 39.6225 28.8608 39.6755 29.0357C40.0308 30.1811 40.6406 31.2151 41.4359 32.0794C41.5579 32.212 41.7541 32.2438 41.9132 32.1536L43.2812 31.3636C43.8592 31.8567 44.522 32.2385 45.2379 32.493V34.0731C45.2379 34.2534 45.3651 34.4125 45.5401 34.4496C46.7226 34.7147 47.9262 34.7041 49.0504 34.4496C49.2254 34.4125 49.3526 34.2534 49.3526 34.0731V32.493C50.0685 32.2385 50.7313 31.8567 51.3092 31.3636L52.6773 32.1536C52.8311 32.2438 53.0326 32.212 53.1545 32.0794C53.9499 31.2204 54.5597 30.1811 54.915 29.0357C54.968 28.8608 54.8938 28.6752 54.74 28.585ZM44.7288 26.6655C44.7288 28.0813 45.8795 29.2372 47.3005 29.2372C48.7216 29.2372 49.8723 28.0813 49.8723 26.6655C49.8723 25.2497 48.7163 24.0938 47.3005 24.0938C45.8848 24.0938 44.7288 25.2497 44.7288 26.6655Z" fill="#226DFF"/>
</g>
</g>
<defs>
<filter id="filter0_d" x="-7.11111" y="-20.1111" width="85.2222" height="85.2222" filterUnits="userSpaceOnUse" color-interpolation-filters="sRGB">
<feFlood flood-opacity="0" result="BackgroundImageFix"/>
<feColorMatrix in="SourceAlpha" type="matrix" values="0 0 0 0 0 0 0 0 0 0 0 0 0 0 0 0 0 0 127 0"/>
<feMorphology radius="1.77778" operator="dilate" in="SourceAlpha" result="effect1_dropShadow"/>
<feOffset/>
<feGaussianBlur stdDeviation="2.66667"/>
<feColorMatrix type="matrix" values="0 0 0 0 0.6875 0 0 0 0 0.6875 0 0 0 0 0.6875 0 0 0 0.33 0"/>
<feBlend mode="normal" in2="BackgroundImageFix" result="effect1_dropShadow"/>
<feBlend mode="normal" in="SourceGraphic" in2="effect1_dropShadow" result="shape"/>
</filter>
<clipPath id="clip0">
<rect width="33.9362" height="27.1489" fill="white" transform="translate(21 8)"/>
</clipPath>
</defs>
</svg>
