<svg width="16" height="13" viewBox="0 0 16 13" fill="none" xmlns="http://www.w3.org/2000/svg">
<path fill-rule="evenodd" clip-rule="evenodd" d="M7.66701 2.70314C9.892 2.70325 12.031 3.62372 13.644 5.27404C13.765 5.40152 13.959 5.39991 14.079 5.27049L15.239 4.00939C15.3 3.94376 15.334 3.85475 15.333 3.7623C15.333 3.66984 15.298 3.58126 15.237 3.51639C11.005 -0.850191 4.329 -0.850191 0.0970062 3.51639C0.0350063 3.58126 0.00102145 3.66973 2.14555e-05 3.76219C-0.000978544 3.85475 0.0330156 3.94366 0.0940155 4.00939L1.25503 5.27049C1.37403 5.40012 1.56802 5.40174 1.69002 5.27404C3.30202 3.62361 5.44201 2.70314 7.66701 2.70314ZM7.66701 6.80616C8.88901 6.80616 10.068 7.29527 10.974 8.17868C11.097 8.304 11.29 8.30131 11.409 8.17253L12.569 6.91144C12.63 6.84527 12.663 6.75551 12.663 6.6623C12.662 6.56898 12.626 6.48008 12.564 6.41521C9.80501 3.65184 5.53203 3.65184 2.77303 6.41521C2.71003 6.48008 2.67503 6.56909 2.67403 6.6623C2.67303 6.75562 2.70702 6.84538 2.76802 6.91144L3.92702 8.17253C4.04702 8.30131 4.24002 8.304 4.36202 8.17868C5.26802 7.29581 6.44601 6.80669 7.66701 6.80616ZM9.98903 9.56682C9.99103 9.66025 9.957 9.75044 9.895 9.81596L7.89003 11.9948C7.83103 12.0588 7.75101 12.0949 7.66701 12.0949C7.58301 12.0949 7.50302 12.0588 7.44502 11.9948L5.43901 9.81596C5.37701 9.75044 5.34302 9.66025 5.34502 9.56672C5.34702 9.47318 5.38402 9.3846 5.44902 9.322C6.72902 8.15572 8.605 8.15572 9.886 9.322C9.95 9.38471 9.98803 9.47329 9.98903 9.56682Z" fill="white"/>
</svg>
