<svg width="39" height="39" viewBox="0 0 39 39" fill="none" xmlns="http://www.w3.org/2000/svg">
<path d="M6.0957 29.855V13.5218C3.5824 12.8748 1.69788 10.665 1.5384 7.98975L1.52606 8.00269V29.855C1.52606 34.0645 4.93851 37.4768 9.14791 37.4768H13.7175C9.50815 37.4768 6.0957 34.0645 6.0957 29.855Z" fill="#CEE1F2"/>
<path d="M37.475 10.7444C38.3163 10.7444 38.9982 10.0625 38.9982 9.22122V7.62185C38.9982 3.41915 35.579 0 31.3763 0C31.3763 0 7.49936 0.00357955 7.44049 0.0105102C5.43068 0.0807302 3.50009 0.943173 2.10848 2.40134C0.682073 3.89592 -0.0615591 5.83984 0.00843246 7.88513C0.00553836 7.9239 0.00401515 29.8549 0.00401515 29.8549C0.00401515 34.8975 4.10648 39 9.14907 39H31.3764C35.5791 39 38.9982 35.5808 38.9982 31.3782V19.8133C38.9982 15.6106 35.5791 12.1915 31.3764 12.1915H7.62C5.1744 12.1915 3.1694 10.28 3.05539 7.83982C2.99743 6.59901 3.44381 5.41456 4.31219 4.50459C5.19314 3.58153 6.43037 3.05221 7.70652 3.05221C7.75153 3.05221 31.3762 3.04642 31.3762 3.04642C33.8991 3.04642 35.9517 5.09895 35.9517 7.62185V9.22122C35.9518 10.0625 36.6337 10.7444 37.475 10.7444ZM7.62 15.2379H31.3763C33.8992 15.2379 35.9517 17.2904 35.9517 19.8133V31.3782C35.9517 33.9011 33.8992 35.9536 31.3763 35.9536H9.14907C5.78628 35.9536 3.05044 33.2177 3.05044 29.8549V13.7209C4.32445 14.6752 5.90745 15.2379 7.62 15.2379Z" fill="#226DFF"/>
<path d="M32.9043 25.5955C32.9043 26.647 32.0519 27.4995 31.0003 27.4995C29.9488 27.4995 29.0963 26.647 29.0963 25.5955C29.0963 24.5439 29.9488 23.6915 31.0003 23.6915C32.0519 23.6915 32.9043 24.5439 32.9043 25.5955ZM32.9043 7.6216C32.9043 6.78033 32.2224 6.09839 31.3811 6.09839H7.61904C6.77777 6.09839 6.09583 6.78033 6.09583 7.6216C6.09583 8.46287 6.77777 9.14481 7.61904 9.14481H31.3811C32.2223 9.14481 32.9043 8.46287 32.9043 7.6216Z" fill="#00F2C6"/>
</svg>
