<svg width="228" height="128" viewBox="0 0 228 128" fill="none" xmlns="http://www.w3.org/2000/svg">
<path d="M266.966 124.812C266.338 126.591 265.555 128.311 264.627 129.954H168.055V-5.99935C169.534 -5.70455 170.981 -5.36175 172.397 -4.97097C190.591 0.0223904 222.261 -21.4679 223 -8.49999C223.498 0.241245 230.204 -6.28667 232.5 0.999981C233.563 4.37421 238.327 47.6811 240 50.5C240.457 51.2694 265.73 68.4782 237.787 64.5C242.799 71.597 226.184 73.2911 237.787 74.0726C245.855 74.6142 252.649 78.2273 257.821 83.576L257.965 83.7257C267.96 94.1809 271.817 111.146 266.966 124.812Z" fill="#F0F0F0"/>
<path d="M266.966 124.812C266.157 127.105 265.091 129.299 263.787 131.351H172.397V131.361H166.02V48.8384H176.944V26.1718H187.868V56.7946H196.71V49.9548H207C208.063 53.329 209.4 56.4678 211.072 59.2867L212.112 61.5195L211.072 36C236.5 36.5 225.5 69.5 237.36 69.5703C245.427 70.1119 252.649 78.2249 257.821 83.5737L257.965 83.7234C267.96 94.1808 271.816 111.146 266.966 124.812Z" fill="#DADADA"/>
<path d="M172.397 -4.97324V131.361H165V-6.52838C167.495 -6.15969 169.965 -5.64036 172.397 -4.97324Z" fill="#B9C1CC"/>
<path d="M65.6171 86.4783C64.3868 81.7205 56.7209 83.207 56.7209 83.207C56.7209 83.207 51.5157 91.5334 50.0015 91.7313C48.4873 91.9292 53.1246 83.7013 53.1246 83.7013C50.1908 83.404 42.7142 87.1714 42.7142 87.1714C42.7142 87.1714 43.1874 96.8859 41.6732 96.687C40.1589 96.4882 41.6732 88.0633 41.6732 88.0633C38.834 88.9552 36.1841 92.4244 36.1841 92.4244C32.8717 98.0751 39.9697 102.238 39.9697 102.238C39.9697 102.238 40.0653 105.608 38.0769 109.475C38.0769 109.475 35.5789 113.449 36.38 118.589H34.1813C34.6029 114.889 32.843 112.088 32.843 112.088C31.3345 109.156 31.409 106.598 31.409 106.598C31.409 106.598 36.793 103.444 34.2769 99.1543C34.2769 99.1543 32.2694 96.5226 30.1128 95.8458C30.1128 95.8458 31.2599 102.237 30.1128 102.387C28.9656 102.537 29.3231 95.169 29.3231 95.169C29.3231 95.169 23.6505 92.3106 21.425 92.5362C21.425 92.5362 24.9429 98.7777 23.7948 98.6276C22.6467 98.4775 18.6967 92.1605 18.6967 92.1605C18.6967 92.1605 12.8816 91.0325 11.9476 94.646C11.0136 98.2596 12.5212 100.061 13.3815 100.286C14.2419 100.512 19.7721 100.436 19.6287 101.189C19.4854 101.941 15.7514 103.144 13.6693 102.467C13.6693 102.467 15.9636 108.407 18.9825 108.107C22.0014 107.807 22.9306 105.851 24.7976 105.701C26.6646 105.551 28.0288 106.076 27.0919 106.602C26.1551 107.128 22.9995 106.775 21.4919 108.117C19.9844 109.46 18.7636 110.287 21.5636 110.89C24.3636 111.492 29.3901 111.115 30.3948 108.859C30.4387 108.764 30.4808 108.668 30.5209 108.577C30.491 108.676 30.4486 108.771 30.3948 108.859C30.9119 109.175 31.6863 110.68 32.2235 111.835C32.3 112.026 32.4214 112.304 32.6011 112.673C32.6747 112.84 32.733 112.977 32.7732 113.071C33.3936 114.696 33.4175 117.063 33.3468 118.599H25.3693V119.045H25.8339C26.004 124.972 29.5507 130 34.5255 132.106H27.35C26.4027 132.106 25.6293 132.91 25.6293 133.903H53.8263C53.8263 132.91 53.0615 132.106 52.1113 132.106H44.9349C49.9107 130.003 53.4573 124.968 53.6275 119.045H53.9506V118.599H39.1332C39.4697 117.824 39.8808 117.069 40.3606 116.506C40.419 116.442 40.504 116.351 40.6082 116.241C40.852 116.005 41.0231 115.826 41.1378 115.694C41.8835 114.944 42.914 113.989 43.4102 113.896C43.3922 113.81 43.3852 113.722 43.3891 113.634C43.3958 113.718 43.4025 113.804 43.4102 113.896C43.5803 115.987 47.452 117.816 49.8342 118.188C52.2165 118.559 51.4804 117.537 50.6592 116.017C49.838 114.497 47.2407 113.819 46.6489 113.115C46.0572 112.412 47.2808 112.414 48.7167 113.1C50.1525 113.786 50.3485 115.617 52.6505 116.773C54.9524 117.928 58.4178 113.926 58.4178 113.926C56.5823 113.83 53.962 111.741 54.0567 111.102C54.1513 110.463 58.5048 112.204 59.2495 112.287C59.9941 112.37 61.6871 111.401 61.9491 108.262C62.211 105.122 57.2964 104.247 57.2964 104.247C57.2964 104.247 56.1636 105.129 54.8836 106.017C54.6312 105.675 54.2211 105.295 53.7422 104.87C54.1647 104.479 54.5442 104.142 54.7803 103.934C55.2917 104.08 55.8151 104.179 56.3443 104.23C60.3192 104.627 63.3476 96.796 63.3476 96.796C60.6031 97.6879 55.6818 96.102 55.4925 95.1106C55.3032 94.1193 62.5905 94.2187 63.7262 93.9214C64.8619 93.6241 66.8474 91.2361 65.6171 86.4783ZM45.4282 108.858C45.2026 108.736 45.2169 108.326 45.3622 107.787C45.6758 107.861 45.9989 107.925 46.3268 107.978C45.9951 108.603 45.6758 108.991 45.4282 108.858ZM40.5805 115.7C40.5805 115.7 39.2766 116.711 38.3675 118.586H37.4278C37.3111 116.617 37.2652 113.105 38.1591 110.762C38.2126 110.635 38.29 110.456 38.3856 110.236C38.6237 109.748 38.7833 109.39 38.8837 109.132C39.593 107.609 40.614 105.625 41.2946 105.212C41.2236 105.096 41.1681 104.971 41.1292 104.84C41.1818 104.959 41.2363 105.082 41.2946 105.212C41.4719 105.601 41.7266 105.949 42.0431 106.236C40.7497 108.76 43.2381 111.802 43.2381 111.802C43.2381 111.802 42.5861 113.842 40.5805 115.7ZM51.0339 103.219C48.9987 102.631 46.5409 102.741 45.6481 102.235C44.4177 101.541 46.2159 100.847 48.6765 101.046C50.3323 101.179 51.4316 102.385 53.1829 103.287C52.4682 103.229 51.7509 103.207 51.0339 103.223V103.219Z" fill="#F8F8F8" fill-opacity="0.57"/>
<path d="M53.5691 109.402C53.5691 109.402 49.6392 104.814 53.3273 101.906C53.3273 101.906 56.0202 100.275 58.217 100.407C58.217 100.407 55.1044 105.625 56.1139 106.142C57.1234 106.66 59.1624 100.078 59.1624 100.078C59.1624 100.078 65.292 99.4832 67.2642 100.432C67.2642 100.432 62.0236 104.719 63.1277 104.974C64.2319 105.23 69.8912 101.021 69.8912 101.021C69.8912 101.021 75.5954 101.992 75.2914 105.472C74.9874 108.953 73.0219 110.027 72.1577 109.934C71.2936 109.841 66.2394 107.912 66.1295 108.62C66.0195 109.329 69.0614 111.641 71.1961 111.75C71.1961 111.75 67.1734 116.185 64.5043 114.905C61.8353 113.625 61.603 111.596 59.9368 110.835C58.2705 110.074 56.849 110.07 57.5363 110.852C58.2237 111.633 61.2397 112.381 62.1928 114.068C63.1459 115.756 64.0005 116.89 61.2369 116.474C58.4732 116.059 53.9716 114.035 53.7804 111.718L53.5691 109.402Z" fill="#06E3BB"/>
<path d="M72.4856 105.567C72.4856 105.567 56.9914 104.969 53.5691 109.401C53.5691 109.401 52.8129 111.667 50.4842 113.731L50.1209 114.72C50.1209 114.72 52.8052 111.89 53.7669 111.719C53.7669 111.719 52.2642 106.229 72.4856 105.567Z" fill="#06E3BB"/>
<path d="M50.4842 113.732C50.4842 113.732 47.1585 116.191 46.9271 120.586L47.5303 120.641C47.5303 120.641 48.5924 116.096 50.5129 114.32C52.4335 112.544 50.4842 113.732 50.4842 113.732Z" fill="#06E3BB"/>
<path d="M39.8291 103.636C39.8291 103.636 46.0811 100.135 43.1635 95.3851C43.1635 95.3851 40.83 92.4675 38.3292 91.7171C38.3292 91.7171 39.6628 98.8017 38.3292 98.969C36.9957 99.1363 37.4125 90.9676 37.4125 90.9676C37.4125 90.9676 30.8278 87.7995 28.2439 88.05C28.2439 88.05 32.3277 94.9683 30.9942 94.801C29.6606 94.6337 25.0768 87.6313 25.0768 87.6313C25.0768 87.6313 18.3248 86.3809 17.2379 90.3816C16.151 94.3823 17.9071 96.3831 18.9051 96.6336C19.9031 96.884 26.3233 96.7999 26.1561 97.6335C25.9888 98.4671 21.6554 99.8007 19.2387 99.0502C19.2387 99.0502 21.9059 105.635 25.4066 105.301C28.9073 104.968 29.9904 102.8 32.1576 102.634C34.3247 102.468 35.9088 103.051 34.8247 103.634C33.7406 104.217 30.0736 103.825 28.3242 105.314C26.5748 106.802 25.1571 107.719 28.4073 108.385C31.6576 109.051 37.489 108.636 38.66 106.135L39.8291 103.636Z" fill="#62FFE3"/>
<path d="M20.3256 91.6339C20.3256 91.6339 37.8292 97.3017 39.8272 103.636C39.8272 103.636 39.744 106.47 41.4944 109.721V110.971C41.4944 110.971 39.6609 106.72 38.6609 106.137C38.6628 106.141 42.5804 100.636 20.3256 91.6339Z" fill="#62FFE3"/>
<path d="M41.4963 109.721C41.4963 109.721 44.1959 113.82 42.6568 118.81L41.9628 118.619C41.9628 118.619 42.6367 113.124 41.2238 110.359C39.8109 107.595 41.4963 109.721 41.4963 109.721Z" fill="#62FFE3"/>
<path d="M49.7749 98.8084C49.7749 98.8084 41.5345 94.194 45.3775 87.9315C45.3775 87.9315 48.4547 84.0856 51.7499 83.0972C51.7499 83.0972 49.9929 92.4359 51.7499 92.6568C53.507 92.8776 52.9602 82.1078 52.9602 82.1078C52.9602 82.1078 61.6393 77.9331 65.0454 78.2629C65.0454 78.2629 59.6624 87.3818 61.4194 87.1619C63.1765 86.942 69.221 77.7132 69.221 77.7132C69.221 77.7132 78.1201 76.0651 79.5454 81.3392C80.9707 86.6132 78.6669 89.2497 77.3467 89.5795C76.0265 89.9093 67.5682 89.7994 67.7871 90.8978C68.006 91.9962 73.7198 93.7542 76.906 92.7658C76.906 92.7658 73.39 101.445 68.7803 101.006C64.1707 100.567 62.7377 97.71 59.8804 97.4901C57.023 97.2702 54.9361 98.0398 56.3653 98.8084C57.7944 99.577 62.6278 99.0607 64.9345 101.022C67.2412 102.984 69.1101 104.192 64.8246 105.071C60.539 105.949 52.8493 105.401 51.3111 102.107L49.7749 98.8084Z" fill="#2FFFDA"/>
<path d="M75.4845 82.9872C75.4845 82.9872 52.4114 90.4628 49.7749 98.8083C49.7749 98.8083 49.8848 102.544 47.5762 106.829V108.477C47.5762 108.477 49.9938 102.873 51.3121 102.104C51.313 102.104 46.1489 94.8526 75.4845 82.9872Z" fill="#62FFE3"/>
<path d="M47.5771 106.829C47.5771 106.829 44.019 112.232 46.0476 118.81L46.9634 118.563C46.9634 118.563 46.0743 111.319 47.9356 107.676C49.7968 104.033 47.5771 106.829 47.5771 106.829Z" fill="#62FFE3"/>
<path d="M49.4968 133.073C53.7778 133.073 57.8834 131.372 60.9105 128.345C63.9376 125.318 65.6382 121.212 65.6382 116.931H33.3554C33.3554 121.212 35.056 125.318 38.0831 128.345C41.1102 131.372 45.2158 133.073 49.4968 133.073Z" fill="#C4C4C4"/>
<path d="M53.4687 132.95C51.1978 133.231 48.8928 133.028 46.7065 132.352C44.5202 131.676 42.5025 130.543 40.7869 129.029C39.0713 127.514 37.6969 125.653 36.755 123.567C35.813 121.482 35.3248 119.22 35.3227 116.931H39.3329C39.3331 120.865 40.7696 124.664 43.3724 127.613C45.9753 130.562 49.5655 132.46 53.4687 132.95Z" fill="#8F8F8F"/>
<path d="M66.0052 116.931H32.8248V117.427H66.0052V116.931Z" fill="#C4C4C4"/>
<path d="M112.03 8.77986C112.019 8.47396 111.782 5.17207 106.754 5C106.754 5 109.226 5.29444 109.653 6.38232C109.653 6.38232 107.97 5.03824 106.594 5.47033C105.219 5.90243 104.418 8.30475 104.409 9.09533C104.4 9.88591 105.163 12.4326 106.034 12.6486C106.381 12.7185 106.739 12.7185 107.086 12.6486C106.837 13.0368 106.611 13.4393 106.41 13.8541C104.402 17.9724 106.473 21.9979 108.172 21.5534C109.261 21.2666 109.569 23.1269 109.569 23.1269L120.164 14.5596C120.164 14.5596 116.272 6.51615 112.03 8.77986Z" fill="#2C3A64"/>
<path d="M141.591 56.3666C141.081 55.8561 138 55.9756 138 55.9756C138 55.9756 136.3 55.295 134.207 54.3763C131.297 53.0829 127.64 51.3478 126.84 50.4626C124.985 48.4044 122.757 41.4967 120.664 36.9377C120.477 36.512 120.29 36.1034 120.103 35.7121C120.087 35.6691 120.063 35.6291 120.034 35.5936C119.933 35.4024 119.843 35.2361 119.763 35.0831C119.763 35.0659 119.745 35.0487 119.728 35.0315C119.337 34.283 118.929 33.6932 118.554 33.2964V33.2792C118.095 32.7859 117.653 32.5823 117.245 32.7525C117.245 32.7525 116.444 33.1607 115.628 34.13C115.535 34.2133 115.455 34.3099 115.39 34.4168C114.807 35.1637 114.378 36.0199 114.131 36.9348C113.887 37.8433 113.79 38.7851 113.844 39.7243C113.912 41.4775 114.78 43.6715 116.022 45.8836C116.072 45.989 116.129 46.0912 116.192 46.1895C118.574 50.3584 122.232 54.5264 124.461 55.8877C125.924 56.7891 129.598 57.334 132.696 57.6399C134.754 57.8608 136.574 57.9631 137.323 58.0147C137.647 58.3713 139.999 61.0594 140.879 60.2774C141.845 59.4467 142.101 56.8771 141.591 56.3666Z" fill="#8D6549"/>
<path d="M168.947 100.241L157.623 99.3532C157.623 99.3532 157.352 97.6325 157.944 96.3181C158.511 95.0619 157.73 94.1528 156.955 92.6567C157.674 93.3976 160.153 93.2886 161.789 93.0678C161.99 93.3938 164.009 96.3869 164.679 96.8677C165.419 97.3993 168.719 98.0981 168.947 100.241Z" fill="#233862"/>
<path d="M155.648 99.3532H144.325C144.325 99.3532 144.054 97.6325 144.645 96.318C145.212 95.0619 146.2 93.7131 145.423 92.217C146.143 92.9578 148.416 92.8766 150.053 92.6567C150.253 92.9818 149.295 95.1068 151.381 96.8629C152.077 97.4556 155.421 97.21 155.648 99.3532Z" fill="#233862"/>
<path d="M153.769 59.1131C153.769 59.1131 150.008 57.6065 144.866 62.8356C134.991 70.8341 122.305 91.1817 121.119 92.6099C118.729 95.4702 120.576 99.4508 130.338 99.3561C136.046 99.3007 139.539 96.6794 141.103 94.324C141.52 93.6969 143.052 90.8347 144.927 87.0013C144.871 90.851 144.848 93.6414 144.848 93.6414C144.554 96.3697 150.679 95.6241 150.679 95.6241C161.079 60.8501 153.769 59.1131 153.769 59.1131Z" fill="#163560"/>
<path d="M148.715 46.4494C148.141 45.3023 147.069 44.4993 146.261 44.0242C146.599 43.9515 147.043 44.1408 147.043 44.1408C146.609 43.746 145.214 43.5032 145.214 43.5032C140.243 36.4291 132.576 45.591 131.181 47.978C129.785 50.3651 128.033 53.014 123.309 52.8286C114.015 52.4624 113.424 61.8098 115.325 66.5944C115.352 66.6623 119.908 74.7306 119.908 74.7306C120.981 72.7642 130.628 64.4215 137.05 64.4817C139.207 63.6118 141.485 61.047 141.663 60.8433C139.975 62.957 138.751 63.9559 137.935 64.4339C144.04 63.4904 150.236 49.4913 148.715 46.4494Z" fill="#B5453C"/>
<path d="M137.433 64.4826C137.452 64.5065 136.594 67.6756 134.02 66.2856C132.33 65.3726 129.622 61.479 130.663 60.1598C131.16 59.5327 133.348 58.3435 135.627 54.3065L135.9 54.5426L140.499 58.5203C140.499 58.5203 139.448 60.0852 138.574 61.6195C137.836 62.9082 137.216 64.1739 137.433 64.4826Z" fill="#F4A269"/>
<path d="M135.732 53.5455C135.732 53.5455 135.817 50.2761 136.783 48.0793C137.474 46.5106 141.669 41.7939 146.389 46.0403C147.343 46.8909 148.095 47.9447 148.588 49.1242C149.208 50.649 149.735 53.3983 144.869 56.7059L143.367 57.919L135.732 53.5455Z" fill="#B5453C"/>
<path d="M129.55 58.4315C129.55 58.4315 131.239 58.7537 131.954 57.7968C132.669 56.8399 134.223 54.8142 134.587 55.9805C134.95 57.1467 138.38 60.5213 139.175 60.6102C139.971 60.6991 140.525 60.9209 140.076 61.3319C139.627 61.743 139.815 63.3891 139.366 63.5392C138.916 63.6893 130.584 58.3426 129.55 58.4315Z" fill="#B9C1CC"/>
<path d="M140.173 60.7419C140.173 60.7419 133.54 56.4535 136.274 52.3639C139.008 48.2743 139.994 44.9667 144.344 47.5315C148.695 50.0964 148.466 52.2014 147.881 53.7883C147.296 55.3752 141.969 61.7514 140.173 60.7419Z" fill="#FFB27D"/>
<path d="M140.499 64.0592C140.499 64.0592 129.267 55.7815 125.336 58.897C119.538 63.4961 120.698 79.0199 119.351 81.0399C118.004 83.0598 110.413 97.5464 122.758 99.0205C135.102 100.495 137.942 92.7112 138.503 86.8798C139.064 81.0485 140.499 64.0592 140.499 64.0592Z" fill="#B9C1CC"/>
<path d="M125.72 63.955C125.72 63.955 122.485 81.8314 128.895 86.7202C135.305 91.609 138.531 63.4015 125.72 63.955Z" fill="#A9A9A9"/>
<path d="M132.171 61.0976C132.171 61.0976 132.294 59.0088 134.137 59.8071C135.98 60.6053 139.39 61.8041 140.711 61.3127C142.033 60.8213 138.587 67.4261 135.44 65.214C132.293 63.0019 132.171 61.0976 132.171 61.0976Z" fill="#A9A9A9"/>
<path d="M147.4 49.434C147.4 49.434 142.39 53.0245 139.158 51.886C135.926 50.7474 135.226 49.2093 135.226 49.2093C135.226 49.2093 138.466 48.9464 140.866 46.3089C140.87 46.307 147.573 46.2439 147.4 49.434Z" fill="#B5453C"/>
<path d="M155.939 72.7412C155.939 72.7412 158.479 73.8473 157.974 76.762C157.469 79.6767 156.459 78.7045 156.459 78.7045L155.939 72.7412Z" fill="#FFB27D"/>
<path d="M146.693 49.5248C146.693 49.5248 147.317 51.4941 146.947 52.754C146.577 54.014 145.288 56.2547 145.962 56.5998C145.962 56.5998 149.499 54.2482 149.212 51.386C148.911 48.3499 146.693 49.5248 146.693 49.5248Z" fill="#B5453C"/>
<path d="M117.965 92.6071C119.465 90.8108 139.258 56.2146 147.491 56.6802C159.882 57.38 138.227 91.9217 136.708 94.2093C135.143 96.5657 132.892 99.2978 127.185 99.3533C117.423 99.4489 115.575 95.4673 117.965 92.6071Z" fill="#1C468A"/>
<path d="M150.972 59.113C150.972 59.113 151.464 59.5718 162.673 94.0323C162.673 94.0323 157.996 97.4211 156.955 94.8821C156.955 94.8821 141.851 72.2125 145.408 68.2214C148.965 64.2302 150.972 59.113 150.972 59.113Z" fill="#1C468A"/>
<path d="M124.791 60.1636C124.791 60.1636 121.827 64.7341 131.033 68.9269C140.239 73.1198 141.318 74.1436 143.112 74.5183C145.907 75.1015 156.645 75.0193 156.645 75.0193C156.645 75.0193 156.932 73.3157 155.939 72.7412C154.355 71.8197 145.208 70.3245 143.975 69.8313C142.742 69.338 129.6 55.2118 124.791 60.1636Z" fill="#ED985F"/>
<path d="M115.715 130.122L113.467 130.959C113.467 130.959 103.702 117.421 102.5 105.5C102.286 103.373 102.357 101.312 102.821 99.4087C102.821 99.4087 102.726 98.8628 102.559 97.8992C102.482 97.4499 102.386 96.9089 102.278 96.2884C101.961 94.4721 101.524 91.9799 101.024 89.1465C99.8768 82.6249 98.3864 74.288 97.2307 68.1593L97.8367 67.9681L104.391 65.8507L105.745 61.5488L110.621 60.264C110.621 60.264 111.712 62.3968 112.686 72.4716C112.865 73.7928 113.029 75.2497 113.152 76.8308C113.602 82.7134 113.448 88.6267 112.692 94.4778C112.469 96.2285 112.182 98.0337 111.832 99.8934C111.575 101.256 111.537 103.111 111.641 105.242C112.14 114.984 115.715 130.122 115.715 130.122Z" fill="#2B478B"/>
<path d="M113.157 76.8308L102.559 97.8992C102.482 97.4499 102.386 96.9088 102.278 96.2884C101.961 94.4721 101.524 91.9799 101.024 89.1465C99.8768 82.6249 98.3864 74.288 97.2307 68.1593L97.8367 67.9681L104.391 65.8507L105.745 61.5488L110.621 60.264C110.621 60.264 111.712 62.3968 112.686 72.4716C112.87 73.7928 113.034 75.2497 113.157 76.8308Z" fill="#233862"/>
<path d="M108.495 62.9675L108.249 60.8644C104.138 61.9561 93.1564 57.8139 93.1564 57.8139C93.1564 57.8139 89.1748 61.3137 89.6977 69.7041C89.9529 73.7995 90.4195 91.2008 90.906 96.3506C91.0819 98.2166 91.2358 99.5444 91.2989 100.079C91.2992 100.08 91.2992 100.082 91.2989 100.084C91.3103 100.245 91.2683 100.405 91.1794 100.54C90.473 101.744 89.8717 103.006 89.3822 104.314C84.6024 117.047 90.1174 132.728 90.1174 132.728L91.5513 132.154C91.5513 132.154 94.6897 114.704 97.2393 106.994C97.6723 105.687 98.0872 104.66 98.4667 104.046C99.5756 102.256 100.604 99.3331 101.538 95.8563C103.303 89.2822 104.723 80.7302 105.669 74.1293C105.798 74.1321 108.495 62.9675 108.495 62.9675Z" fill="#2B478B"/>
<path d="M116.347 37.4492C115.056 38.0476 113.498 38.4548 111.613 38.5581C104.547 38.9405 102.943 32.7506 102.651 28.639C103.429 28.3697 104.255 28.2652 105.075 28.3322C105.576 28.3599 106.099 28.4115 106.531 28.4651C107.392 28.0129 108.948 25.8199 109.846 22.1509L110.151 22.2924L115.25 24.6928C115.25 24.6928 114.708 26.3524 114.308 27.9431C113.995 29.1858 113.772 30.3856 113.959 30.7221C114.361 30.8846 114.601 30.9878 114.601 30.9878C114.601 30.9897 114.601 30.9917 114.601 30.9936C115.388 33.0849 115.972 35.2466 116.347 37.4492Z" fill="#A07252"/>
<path d="M115.25 24.6928C115.25 24.6928 114.708 26.3504 114.308 27.943C111.327 27.1113 110.422 23.9787 110.15 22.3029L115.25 24.6928Z" fill="#8D6549"/>
<path d="M115.877 26.4451C115.877 26.4451 108.746 24.7951 109.843 20.3699C110.939 15.9448 110.757 12.7529 115.355 13.619C119.953 14.4851 120.421 16.3912 120.411 17.9581C120.4 19.5249 117.76 26.7605 115.877 26.4451Z" fill="#A07252"/>
<path d="M127.402 58.2039C127.402 58.2039 132.102 58.3951 141.906 67.4261C141.906 67.4261 143.406 69.2481 144.153 69.3695C144.9 69.4909 146.925 70.0225 146.965 70.5368C147.006 71.0511 144.48 77.5028 141.25 77.6873C138.02 77.8718 122.909 66.7655 123.968 63.0334C125.027 59.3014 127.402 58.2039 127.402 58.2039Z" fill="#B9C1CC"/>
<path d="M120.811 15.4467C120.047 13.8426 119.142 13.9277 118.578 14.2126C115.228 11.1124 111.942 13.6447 111.942 13.6447C110.677 16.7038 107.935 17.9465 107.935 17.9465C107.935 17.9465 109.031 19.0679 112.206 19.043C113.175 19.0363 114.15 18.5909 115.037 17.9771C113.93 19.066 112.679 19.9987 111.32 20.7494C115.294 19.9847 117.959 15.3874 118.232 14.8989C118.569 15.396 119.213 16.4543 119.267 17.3481C119.341 18.5622 118.923 20.9215 119.618 21.0104C119.618 21.0142 121.961 17.851 120.811 15.4467Z" fill="#2C3A64"/>
<path d="M120.681 36.929C120.425 36.1585 118.708 33.1635 118.708 33.1635C118.701 33.1559 117.616 32.1626 114.603 30.9801C114.603 30.982 114.603 30.9839 114.603 30.9858C114.651 31.1617 115.942 35.822 115.464 36.8172C114.986 37.8276 105.954 34.563 105.461 33.8174C105.066 33.219 105.055 30.0566 105.066 28.8254C105.066 28.5185 105.071 28.3311 105.071 28.3311C105.071 28.3311 101.7 27.8742 99.8042 28.6418C99.8042 28.6418 100.553 30.267 100.828 32.0613C100.854 32.2315 100.876 32.4026 100.892 32.5727C100.929 32.9303 100.939 33.2902 100.92 33.6491C100.892 34.1147 100.652 34.5277 100.268 34.932C99.9198 35.302 99.4457 35.6681 98.9094 36.0591C98.5595 36.3124 98.1828 36.5782 97.7938 36.8659C97.7613 38.9767 97.9094 42.4497 97.5185 46.1541C97.3746 47.4675 96.8256 48.7036 95.9478 49.6911C93.9556 51.9252 90.4243 56.3828 91.2005 59.1494C91.2579 61.763 113.303 65.1977 112.832 62.327C112.832 62.327 116.144 46.3625 117.934 42.5061C117.999 42.3646 118.057 42.227 118.111 42.0855C118.684 40.5646 118.589 38.9997 118.398 37.6001C119.407 36.8812 120.681 36.929 120.681 36.929Z" fill="#558FFF"/>
<path d="M106.899 56.9621C102.552 56.9163 98.8692 52.4003 96.6188 48.7925C97.1139 47.9926 97.4227 47.0915 97.5222 46.156C97.9132 42.4516 97.765 38.9786 97.7975 36.8679C98.1866 36.5811 98.5623 36.3144 98.9131 36.061C99.4494 35.67 99.9236 35.3039 100.272 34.934C103.833 40.9508 112.795 57.0243 106.899 56.9621Z" fill="#4F7ED9"/>
<path d="M131.158 60.3501C131.158 60.3501 128.333 58.3253 126.648 58.7163C125.151 59.0567 121.953 58.376 121.324 58.2384C120.575 57.8302 119.674 57.3369 118.721 56.792C116.426 55.4995 113.787 53.9165 111.983 52.6068C110.946 51.8583 110.167 51.1948 109.891 50.7178C109.465 49.9865 108.989 48.8298 108.457 47.4006C108.184 46.6521 107.895 45.8357 107.606 44.9677C107.095 43.5386 106.586 41.9899 106.058 40.4422C105.102 37.6183 104.084 34.7762 103.115 32.5823C102.485 31.2038 101.872 30.0643 101.298 29.3665C100.839 28.8053 100.396 28.5157 99.9705 28.5835C99.9026 28.6007 99.852 28.6179 99.8003 28.6352C99.8003 28.6352 97.3512 29.3158 97.3148 34.2495C97.3037 34.5386 97.3094 34.8281 97.3321 35.1166C97.3655 35.9846 97.5357 37.04 97.7909 38.1967C98.2001 40.1363 98.8798 42.3819 99.7306 44.6618C99.9686 45.2746 100.209 45.9046 100.463 46.5326C102.3 51.0926 104.669 55.3466 106.656 56.792C106.731 56.8543 106.81 56.9112 106.894 56.9621C107.727 57.4898 108.952 58.0137 110.364 58.5108C112.371 59.1914 114.753 59.8033 116.88 60.3137H116.898C118.14 60.5862 119.279 60.8414 120.232 61.0288C120.232 61.0288 120.436 61.0795 120.793 61.1473C121.695 61.3691 123.549 61.8452 125.302 62.5258C127.752 63.4952 129.283 61.8959 130.369 61.437C131.467 60.9944 131.158 60.3501 131.158 60.3501Z" fill="#A07252"/>
<path d="M103.117 32.589C99.8413 31.6856 97.3147 34.2438 97.3147 34.2438C97.3568 29.3177 99.8078 28.6428 99.8078 28.6428C100.794 28.2346 101.938 29.9429 103.117 32.589Z" fill="#558FFF"/>
<path d="M98.439 133.897H87.1156C87.1156 133.897 86.8441 132.17 87.4359 130.862C88.0028 129.605 88.8899 129.034 88.6786 127.516C89.3975 128.257 90.5705 129.087 92.208 128.867C92.4078 129.192 93.5024 130.932 94.1725 131.413C94.9115 131.943 98.2105 131.754 98.439 133.897Z" fill="#233862"/>
<path d="M149.966 100.494H108.519V133.897H149.966V100.494Z" fill="#6CC2DD"/>
<path d="M170.689 100.494H133.189V133.896H170.689V100.494Z" fill="#5BA9C1"/>
<path d="M140.122 106.253C139.99 106.257 139.863 106.299 139.755 106.375C139.647 106.45 139.564 106.556 139.517 106.679C139.469 106.801 139.458 106.935 139.486 107.064C139.514 107.192 139.579 107.31 139.673 107.402C139.767 107.493 139.887 107.555 140.016 107.58C140.145 107.604 140.279 107.59 140.4 107.539C140.521 107.488 140.625 107.402 140.697 107.292C140.77 107.183 140.809 107.054 140.809 106.923C140.808 106.833 140.79 106.745 140.755 106.663C140.719 106.581 140.669 106.507 140.605 106.445C140.541 106.383 140.465 106.334 140.382 106.301C140.299 106.268 140.211 106.252 140.122 106.253Z" fill="#9DD2E2"/>
<path d="M164.657 106.919C164.652 106.782 164.688 106.647 164.761 106.531C164.834 106.415 164.939 106.323 165.065 106.268C165.19 106.212 165.329 106.195 165.463 106.219C165.598 106.243 165.723 106.306 165.821 106.402C165.92 106.497 165.987 106.619 166.016 106.753C166.044 106.887 166.032 107.026 165.981 107.153C165.929 107.28 165.841 107.389 165.728 107.465C165.615 107.542 165.481 107.583 165.344 107.583C165.255 107.585 165.167 107.569 165.084 107.536C165.002 107.504 164.926 107.455 164.863 107.393C164.799 107.332 164.748 107.258 164.712 107.176C164.677 107.095 164.658 107.007 164.657 106.919Z" fill="#9DD2E2"/>
<path d="M140.122 127.295C139.99 127.299 139.863 127.341 139.755 127.416C139.647 127.492 139.564 127.598 139.517 127.72C139.469 127.843 139.458 127.977 139.486 128.106C139.514 128.234 139.579 128.352 139.673 128.443C139.767 128.535 139.887 128.597 140.016 128.622C140.145 128.646 140.279 128.632 140.4 128.58C140.521 128.529 140.625 128.444 140.697 128.334C140.77 128.224 140.809 128.096 140.809 127.964C140.808 127.875 140.789 127.787 140.754 127.705C140.719 127.623 140.668 127.549 140.604 127.487C140.54 127.425 140.465 127.376 140.382 127.343C140.299 127.31 140.211 127.294 140.122 127.295Z" fill="#9DD2E2"/>
<path d="M164.656 127.96C164.653 127.824 164.69 127.689 164.763 127.574C164.837 127.458 164.943 127.367 165.068 127.312C165.193 127.258 165.332 127.241 165.466 127.266C165.601 127.29 165.725 127.354 165.823 127.45C165.921 127.545 165.988 127.667 166.016 127.801C166.044 127.935 166.032 128.074 165.98 128.201C165.929 128.327 165.841 128.436 165.727 128.512C165.614 128.589 165.48 128.629 165.344 128.629C165.255 128.631 165.166 128.615 165.083 128.582C165 128.549 164.925 128.5 164.861 128.438C164.797 128.376 164.746 128.301 164.711 128.219C164.676 128.138 164.657 128.049 164.656 127.96Z" fill="#9DD2E2"/>
<path d="M112.421 106.919C112.421 106.551 112.612 106.25 112.846 106.25C113.08 106.25 113.272 106.547 113.272 106.919C113.272 107.291 113.08 107.583 112.846 107.583C112.612 107.583 112.421 107.288 112.421 106.919Z" fill="#89CCE0"/>
<path d="M128.043 106.919C128.043 106.551 128.234 106.25 128.47 106.25C128.705 106.25 128.895 106.547 128.895 106.919C128.895 107.291 128.704 107.583 128.47 107.583C128.235 107.583 128.043 107.288 128.043 106.919Z" fill="#89CCE0"/>
<path d="M112.421 127.96C112.421 127.593 112.612 127.291 112.846 127.291C113.08 127.291 113.272 127.589 113.272 127.96C113.272 128.331 113.08 128.629 112.846 128.629C112.612 128.629 112.421 128.326 112.421 127.96Z" fill="#89CCE0"/>
<path d="M128.47 128.625C128.705 128.625 128.895 128.327 128.895 127.96C128.895 127.593 128.705 127.296 128.47 127.296C128.235 127.296 128.044 127.593 128.044 127.96C128.044 128.327 128.235 128.625 128.47 128.625Z" fill="#89CCE0"/>
<path d="M108.519 100.547C108.519 100.547 114.151 95.3459 117.866 96.9318C122.758 99.0206 134.323 98.4384 137.24 97.8992C140.158 97.3601 162.951 98.9699 170.689 100.494L108.519 100.547Z" fill="#9DD2E2"/>
<path opacity="0.4" d="M170.689 125.134V133.896H133.189V100.494H139.48L139.605 100.547C139.605 100.547 142.97 123.205 170.689 125.134Z" fill="#6CC2DD"/>
<path d="M179.821 104.652C179.821 104.652 172.199 103.572 171.756 102.342C171.756 102.342 172.285 101.23 171.448 100.939C171.224 100.861 170.847 100.717 170.684 100.931L170.694 103.199C170.694 103.199 171.516 104 171.977 104.646C172.231 105.002 177.157 107.064 177.157 107.064L179.821 104.652Z" fill="#163560"/>
<path d="M195.527 121.294C196.249 120.251 195.499 112.874 190.295 115.113C189.19 115.448 187.86 116.247 186.268 117.706C186.268 117.706 183.982 123.092 192.997 126.655C192.997 126.655 193.89 127.037 194.017 127.862C194.144 128.687 194.286 132.39 193.981 132.502C193.675 132.614 193.221 132.189 192.892 132.657C192.562 133.125 192.678 133.9 192.678 133.9H195.954C195.954 133.9 197.519 125.583 197.431 124.919C197.343 124.254 194.67 122.534 195.527 121.294Z" fill="#163560"/>
<path d="M182.676 91.1435C182.676 91.1435 184.409 94.7761 183.453 95.8698L180.759 93.7064C180.759 93.7064 180.745 92.6357 182.676 91.1435Z" fill="#233862"/>
<path d="M201.25 110.722C200.542 109.44 199.482 107.295 200.881 106.42C202.073 105.673 201.617 104.119 200.926 103.743C199.475 102.959 198 103.95 197.309 104.918C195.994 106.759 197.741 109.637 197.741 109.637C199.392 113.194 195.993 115.044 194.353 115.705C193.557 114.522 192.631 113.432 191.592 112.455C191.027 111.919 190.509 111.482 190.074 111.116C185.459 107.172 186.577 105.729 185.486 103.955C185.271 103.604 184.422 102.649 184.196 102.343C183.971 102.038 183.892 100.961 183.865 100.011C184.385 99.5693 184.439 99.0741 184.439 99.0741C184.469 99.2079 184.469 99.3465 184.439 99.4804C184.977 99.0435 184.855 98.0388 184.855 98.0388C184.973 98.1841 185.021 98.4957 185.021 98.4957C185.291 96.9318 184.328 95.6556 184.321 95.646C184.491 94.1777 183.27 91.6224 183.27 91.6224C182.377 92.3116 181.9 92.912 181.645 93.3574C180.81 93.1051 179.828 93.1223 178.795 94.1318C178.479 94.4415 177.543 94.6929 177.101 94.6365C176.857 94.605 176.303 95.8238 176.282 95.9911C176.04 97.8352 176.625 98.7471 177.678 99.6907C177.827 100.107 177.94 100.666 177.678 101.041C177.678 101.041 177.9 100.946 177.928 100.879C177.909 100.975 177.788 101.557 177.472 101.817C177.545 101.809 177.617 101.792 177.686 101.767C177.41 102.118 176.358 103.57 176.373 105.359C174.162 105.378 172.059 105.242 171.856 104.676C171.856 104.676 172.334 103.743 171.548 103.274C171.283 103.134 170.987 103.066 170.688 103.075L170.649 105.621C170.649 105.621 171.61 106.334 172.071 106.98C172.229 107.202 175.321 108.597 177.636 109.62C178.983 115.46 183.31 118.836 184.741 119.814C184.948 121.597 186.008 123.919 189.043 126.622C189.043 126.622 189.749 127.291 189.586 128.107C189.422 128.922 188.283 132.451 187.961 132.451C187.639 132.451 186.549 131.98 186.078 132.306C185.608 132.632 186.259 133.9 186.259 133.9H189.573C189.573 133.9 193.664 127.165 193.808 126.514C193.953 125.863 192.034 123.328 193.265 122.459C193.793 122.086 194.526 120.043 194.373 118.167C195.988 117.601 203.464 114.736 201.25 110.722Z" fill="#2B478B"/>
<path d="M177.02 94.6432C177.065 94.6138 177.117 94.5962 177.171 94.592C177.225 94.5879 177.279 94.5972 177.329 94.6193C177.329 94.6193 177.287 95.2331 176.687 95.2704C176.687 95.2704 176.86 94.7388 177.02 94.6432Z" fill="#163560"/>
<path d="M178.121 96.0198C178.144 96.0274 180.391 96.8648 182.001 98.7137C180.363 96.8314 178.169 95.9538 178.145 95.9462L178.121 96.0198Z" fill="#163560"/>
<path d="M177.912 96.1785C177.936 96.1928 180.291 97.796 181.626 100.385C180.268 97.7501 177.985 96.1164 177.96 96.1011L177.912 96.1785Z" fill="#163560"/>
<path d="M177.67 96.3697C177.686 96.3869 179.343 98.121 179.984 100.487C179.332 98.0789 177.741 96.3314 177.723 96.3142L177.67 96.3697Z" fill="#163560"/>
<path d="M183.266 91.6195C183.266 91.6195 183.395 94.43 183.671 94.9501C183.948 95.4701 184.315 95.6441 184.315 95.6441C184.485 94.1748 183.266 91.6195 183.266 91.6195Z" fill="#233862"/>
</svg>
