<svg width="256" height="168" viewBox="0 0 256 168" fill="none" xmlns="http://www.w3.org/2000/svg">
<path d="M334.938 155.857C334.137 158.122 333.141 160.313 331.959 162.405H208.99V-10.7097C210.873 -10.3343 212.716 -9.89782 214.519 -9.40022C237.686 -3.04198 278.012 -30.4064 278.954 -13.8939C279.588 -2.7633 288.127 -11.0756 291.05 -1.79717C292.404 2.49937 298.47 57.6438 300.601 61.2332C301.183 62.2129 333.363 84.1255 297.783 79.06C304.165 88.0968 283.008 90.254 297.783 91.2492C308.055 91.9388 316.707 96.5395 323.293 103.35L323.477 103.541C336.203 116.854 341.114 138.456 334.938 155.857Z" fill="#F0F0F0"/>
<path d="M334.937 155.857C333.907 158.777 332.55 161.571 330.89 164.184H214.519V164.197H206.399V59.1174H220.309V30.2551H234.218V69.2484H245.478V60.5389H258.58C259.933 64.8355 261.636 68.8323 263.766 72.4217L265.09 75.2647L263.766 42.7698C296.144 43.4064 282.137 85.4267 297.239 85.5162C307.511 86.2058 316.707 96.5365 323.293 103.347L323.477 103.538C336.203 116.854 341.114 138.456 334.937 155.857Z" fill="#DADADA"/>
<path d="M214.52 -9.40314V164.197H205.1V-11.3834C208.277 -10.9139 211.423 -10.2526 214.52 -9.40314Z" fill="#B9C1CC"/>
<path d="M207.958 167.437H214.751V167.426H312.109C313.498 165.239 314.634 162.902 315.495 160.459H205.16V167.426L207.958 167.437Z" fill="#EFCBAB"/>
<path d="M78.5517 107.046C76.9851 100.988 67.2239 102.88 67.2239 102.88C67.2239 102.88 60.5959 113.483 58.6678 113.735C56.7396 113.987 62.6446 103.51 62.6446 103.51C58.9088 103.131 49.3886 107.928 49.3886 107.928C49.3886 107.928 49.9911 120.298 48.063 120.045C46.1348 119.792 48.063 109.064 48.063 109.064C44.4477 110.2 41.0735 114.617 41.0735 114.617C36.8557 121.812 45.8938 127.114 45.8938 127.114C45.8938 127.114 46.0155 131.404 43.4836 136.328C43.4836 136.328 40.3029 141.388 41.323 147.934H38.5233C39.0601 143.223 36.8191 139.656 36.8191 139.656C34.8983 135.922 34.9932 132.666 34.9932 132.666C34.9932 132.666 41.8489 128.649 38.645 123.187C38.645 123.187 36.0888 119.836 33.3426 118.974C33.3426 118.974 34.8033 127.112 33.3426 127.303C31.8819 127.495 32.3372 118.112 32.3372 118.112C32.3372 118.112 25.1139 114.472 22.2802 114.76C22.2802 114.76 26.7597 122.707 25.2977 122.516C23.8358 122.325 18.8061 114.281 18.8061 114.281C18.8061 114.281 11.4015 112.845 10.2122 117.446C9.02296 122.047 10.9426 124.341 12.0381 124.628C13.1336 124.915 20.1755 124.819 19.9929 125.777C19.8103 126.735 15.0557 128.266 12.4045 127.405C12.4045 127.405 15.3259 134.969 19.1701 134.586C23.0142 134.204 24.1973 131.714 26.5747 131.523C28.952 131.331 30.689 132.001 29.4961 132.67C28.3032 133.34 24.285 132.891 22.3654 134.6C20.4457 136.309 18.8913 137.363 22.4567 138.13C26.022 138.897 32.4224 138.417 33.7017 135.544C33.7577 135.423 33.8113 135.301 33.8624 135.185C33.8243 135.311 33.7703 135.432 33.7017 135.544C34.3603 135.946 35.3462 137.863 36.0303 139.334C36.1277 139.577 36.2823 139.93 36.5112 140.4C36.6049 140.613 36.6791 140.787 36.7303 140.908C37.5203 142.977 37.5507 145.991 37.4606 147.946H27.3026V148.514H27.8942C28.1108 156.061 32.6269 162.464 38.9615 165.146H29.8247C28.6184 165.146 27.6337 166.169 27.6337 167.433H63.538C63.538 166.169 62.5642 165.146 61.3543 165.146H52.2163C58.5521 162.468 63.0682 156.056 63.2848 148.514H63.6963V147.946H44.8287C45.2572 146.96 45.7806 145.998 46.3917 145.281C46.4659 145.2 46.5743 145.084 46.707 144.944C47.0174 144.643 47.2352 144.416 47.3813 144.248C48.3308 143.292 49.643 142.076 50.2747 141.958C50.2519 141.848 50.2429 141.736 50.248 141.625C50.2565 141.732 50.265 141.841 50.2747 141.958C50.4914 144.62 55.4213 146.949 58.4547 147.422C61.4882 147.896 60.5509 146.595 59.5052 144.659C58.4596 142.724 55.1523 141.859 54.3988 140.964C53.6453 140.068 55.2034 140.07 57.0318 140.944C58.8601 141.818 59.1096 144.149 62.0408 145.621C64.972 147.093 69.3845 141.996 69.3845 141.996C67.0474 141.874 63.7109 139.213 63.8314 138.4C63.9519 137.587 69.4953 139.804 70.4436 139.909C71.3918 140.015 73.5476 138.781 73.8811 134.784C74.2146 130.786 67.9567 129.671 67.9567 129.671C67.9567 129.671 66.5142 130.795 64.8843 131.925C64.563 131.49 64.0408 131.006 63.4309 130.465C63.9689 129.967 64.4522 129.537 64.7529 129.273C65.404 129.458 66.0705 129.585 66.7443 129.65C71.8057 130.156 75.662 120.184 75.662 120.184C72.1672 121.319 65.9007 119.3 65.6597 118.038C65.4187 116.775 74.6979 116.902 76.144 116.523C77.5901 116.145 80.1184 113.104 78.5517 107.046ZM52.8444 135.543C52.5571 135.387 52.5754 134.865 52.7604 134.179C53.1597 134.274 53.5711 134.355 53.9886 134.422C53.5662 135.218 53.1597 135.712 52.8444 135.543ZM46.6716 144.255C46.6716 144.255 45.0113 145.543 43.8537 147.93H42.6571C42.5086 145.422 42.4502 140.95 43.5883 137.967C43.6565 137.806 43.7551 137.577 43.8768 137.297C44.1799 136.676 44.3832 136.22 44.511 135.891C45.4142 133.952 46.7143 131.426 47.5809 130.9C47.4906 130.752 47.4198 130.593 47.3704 130.427C47.4373 130.578 47.5067 130.735 47.5809 130.9C47.8067 131.395 48.131 131.839 48.5341 132.204C46.8871 135.418 50.0556 139.291 50.0556 139.291C50.0556 139.291 49.2255 141.889 46.6716 144.255ZM59.9824 128.362C57.3909 127.614 54.2613 127.754 53.1244 127.11C51.5577 126.226 53.8474 125.342 56.9806 125.596C59.0889 125.765 60.4888 127.3 62.7188 128.449C61.8087 128.375 60.8953 128.348 59.9824 128.367V128.362Z" fill="#F8F8F8" fill-opacity="0.57"/>
<path d="M63.2107 136.236C63.2107 136.236 58.2065 130.393 62.9027 126.69C62.9027 126.69 66.3317 124.613 69.129 124.781C69.129 124.781 65.1656 131.426 66.451 132.085C67.7364 132.743 70.3329 124.363 70.3329 124.363C70.3329 124.363 78.1379 123.606 80.6492 124.813C80.6492 124.813 73.9761 130.272 75.3821 130.597C76.788 130.922 83.9942 125.564 83.9942 125.564C83.9942 125.564 91.2576 126.8 90.8705 131.232C90.4834 135.664 87.9807 137.031 86.8803 136.913C85.7799 136.795 79.3443 134.338 79.2043 135.24C79.0643 136.142 82.9376 139.087 85.6558 139.225C85.6558 139.225 80.5335 144.872 77.1349 143.242C73.7363 141.612 73.4405 139.029 71.3188 138.06C69.1972 137.092 67.3871 137.087 68.2623 138.081C69.1375 139.076 72.978 140.029 74.1916 142.177C75.4052 144.326 76.4934 145.771 72.9743 145.241C69.4552 144.712 63.7231 142.135 63.4797 139.184L63.2107 136.236Z" fill="#06E3BB"/>
<path d="M87.2978 131.352C87.2978 131.352 67.5684 130.591 63.2106 136.235C63.2106 136.235 62.2478 139.119 59.2825 141.748L58.8199 143.007C58.8199 143.007 62.238 139.403 63.4626 139.185C63.4626 139.186 61.549 132.196 87.2978 131.352Z" fill="#06E3BB"/>
<path d="M59.2826 141.749C59.2826 141.749 55.0478 144.881 54.7532 150.477L55.5213 150.546C55.5213 150.546 56.8736 144.759 59.3191 142.497C61.7646 140.236 59.2826 141.749 59.2826 141.749Z" fill="#06E3BB"/>
<path d="M45.715 128.893C45.715 128.893 53.6759 124.436 49.9608 118.387C49.9608 118.387 46.9895 114.672 43.8051 113.717C43.8051 113.717 45.5032 122.738 43.8051 122.951C42.107 123.164 42.6377 112.762 42.6377 112.762C42.6377 112.762 34.2533 108.728 30.963 109.047C30.963 109.047 36.1631 117.856 34.465 117.643C32.767 117.43 26.9302 108.514 26.9302 108.514C26.9302 108.514 18.3327 106.922 16.9487 112.016C15.5646 117.11 17.8007 119.658 19.0716 119.977C20.3424 120.296 28.5175 120.189 28.3045 121.25C28.0915 122.312 22.5736 124.01 19.4964 123.054C19.4964 123.054 22.8925 131.439 27.3502 131.014C31.8078 130.589 33.1869 127.829 35.9465 127.618C38.706 127.406 40.723 128.148 39.3426 128.891C37.9622 129.633 33.2928 129.134 31.0652 131.03C28.8377 132.925 27.0324 134.092 31.1711 134.941C35.3098 135.789 42.7351 135.26 44.2263 132.075L45.715 128.893Z" fill="#62FFE3"/>
<path d="M20.8805 113.611C20.8805 113.611 43.1686 120.828 45.7126 128.893C45.7126 128.893 45.6067 132.502 47.8355 136.641V138.233C47.8355 138.233 45.5008 132.82 44.2276 132.078C44.23 132.083 49.2184 125.074 20.8805 113.611Z" fill="#62FFE3"/>
<path d="M47.8379 136.641C47.8379 136.641 51.2754 141.861 49.3156 148.215L48.4319 147.971C48.4319 147.971 49.2901 140.975 47.491 137.454C45.6918 133.934 47.8379 136.641 47.8379 136.641Z" fill="#62FFE3"/>
<path d="M58.3793 122.746C58.3793 122.746 47.8865 116.87 52.7799 108.896C52.7799 108.896 56.6983 103.999 60.8942 102.741C60.8942 102.741 58.6569 114.632 60.8942 114.913C63.1315 115.194 62.4353 101.481 62.4353 101.481C62.4353 101.481 73.4868 96.1649 77.8239 96.5848C77.8239 96.5848 70.9695 108.196 73.2068 107.916C75.4441 107.636 83.1409 95.8849 83.1409 95.8849C83.1409 95.8849 94.4724 93.7863 96.2873 100.502C98.1022 107.218 95.1686 110.575 93.4876 110.995C91.8066 111.415 81.0362 111.275 81.315 112.673C81.5937 114.072 88.8693 116.311 92.9264 115.052C92.9264 115.052 88.4494 126.103 82.5797 125.545C76.7101 124.986 74.8854 121.348 71.247 121.068C67.6086 120.788 64.9513 121.768 66.7711 122.746C68.5909 123.725 74.7454 123.068 77.6827 125.565C80.6199 128.063 82.9997 129.602 77.5427 130.72C72.0857 131.839 62.2941 131.14 60.3355 126.947L58.3793 122.746Z" fill="#2FFFDA"/>
<path d="M91.1163 102.6C91.1163 102.6 61.7365 112.119 58.3793 122.746C58.3793 122.746 58.5193 127.503 55.5796 132.959V135.057C55.5796 135.057 58.658 127.922 60.3367 126.943C60.3379 126.943 53.7622 117.709 91.1163 102.6Z" fill="#62FFE3"/>
<path d="M55.5808 132.959C55.5808 132.959 51.0502 139.839 53.6332 148.215L54.7993 147.901C54.7993 147.901 53.6673 138.676 56.0373 134.037C58.4073 129.398 55.5808 132.959 55.5808 132.959Z" fill="#62FFE3"/>
<path d="M58.0252 166.376C63.4763 166.376 68.7041 164.211 72.5586 160.356C76.4132 156.502 78.5786 151.274 78.5786 145.823H37.4717C37.4717 151.274 39.6371 156.502 43.4917 160.356C47.3462 164.211 52.574 166.376 58.0252 166.376Z" fill="#C4C4C4"/>
<path d="M63.0829 166.219C60.1912 166.578 57.2562 166.319 54.4723 165.458C51.6884 164.598 49.1191 163.155 46.9345 161.227C44.75 159.299 43 156.928 41.8006 154.273C40.6011 151.617 39.9794 148.737 39.9768 145.823H45.0832C45.0835 150.832 46.9125 155.669 50.2269 159.424C53.5412 163.18 58.1128 165.596 63.0829 166.219Z" fill="#8F8F8F"/>
<path d="M78.8683 167.422H37.188C37.1883 166.75 37.4556 166.105 37.931 165.63C38.4064 165.154 39.0512 164.887 39.7235 164.887H76.3266C76.6601 164.886 76.9905 164.951 77.2988 165.078C77.6071 165.205 77.8874 165.392 78.1235 165.627C78.3595 165.863 78.5469 166.142 78.6747 166.45C78.8025 166.758 78.8683 167.089 78.8683 167.422Z" fill="#E0B594"/>
<path d="M79.0461 145.823H36.7961V146.454H79.0461V145.823Z" fill="#C4C4C4"/>
<path d="M137.651 8.10926C137.638 7.71973 137.336 3.51531 130.933 3.2962C130.933 3.2962 134.081 3.67112 134.625 5.05636C134.625 5.05636 132.481 3.34489 130.73 3.8951C128.978 4.4453 127.958 7.50428 127.947 8.51095C127.936 9.51763 128.908 12.7604 130.016 13.0355C130.458 13.1245 130.914 13.1245 131.355 13.0355C131.039 13.5297 130.751 14.0423 130.495 14.5705C127.939 19.8144 130.575 24.9403 132.738 24.3743C134.125 24.0091 134.518 26.3779 134.518 26.3779L148.009 15.4688C148.009 15.4688 143.053 5.22678 137.651 8.10926Z" fill="#2C3A64"/>
<path d="M175.292 68.7034C174.642 68.0533 170.72 68.2055 170.72 68.2055C170.72 68.2055 168.555 67.3388 165.89 66.169C162.185 64.5221 157.528 62.3127 156.509 61.1856C154.147 58.5648 151.31 49.7689 148.645 43.9637C148.407 43.4216 148.169 42.9015 147.931 42.4032C147.91 42.3485 147.88 42.2975 147.843 42.2523C147.714 42.0088 147.6 41.797 147.498 41.6022C147.498 41.5803 147.476 41.5584 147.454 41.5365C146.956 40.5834 146.436 39.8323 145.959 39.3272V39.3053C145.375 38.6772 144.811 38.4179 144.291 38.6346C144.291 38.6346 143.272 39.1543 142.233 40.3886C142.114 40.4946 142.012 40.6177 141.93 40.7538C141.187 41.7048 140.642 42.795 140.327 43.9601C140.015 45.1169 139.892 46.3161 139.961 47.512C140.048 49.7445 141.153 52.5381 142.734 55.3549C142.798 55.4891 142.871 55.6192 142.951 55.7444C145.984 61.0529 150.642 66.3601 153.48 68.0935C155.343 69.2414 160.022 69.9352 163.966 70.3248C166.587 70.6059 168.904 70.7362 169.857 70.8019C170.27 71.256 173.266 74.6789 174.386 73.6832C175.616 72.6254 175.941 69.3534 175.292 68.7034Z" fill="#8D6549"/>
<path d="M210.126 124.571L195.707 123.44C195.707 123.44 195.361 121.249 196.115 119.575C196.837 117.976 195.844 116.818 194.856 114.913C195.772 115.856 198.928 115.718 201.012 115.437C201.268 115.852 203.839 119.663 204.692 120.275C205.634 120.952 209.836 121.842 210.126 124.571Z" fill="#233862"/>
<path d="M193.192 123.44H178.774C178.774 123.44 178.428 121.249 179.182 119.575C179.904 117.976 181.161 116.258 180.173 114.353C181.089 115.296 183.983 115.193 186.068 114.913C186.322 115.327 185.103 118.033 187.759 120.269C188.645 121.024 192.903 120.711 193.192 123.44Z" fill="#233862"/>
<path d="M190.799 72.2006C190.799 72.2006 186.01 70.2822 179.463 76.9406C166.889 87.1255 150.735 113.035 149.225 114.853C146.182 118.496 148.533 123.564 160.964 123.444C168.231 123.373 172.679 120.035 174.672 117.036C175.202 116.237 177.152 112.593 179.541 107.712C179.469 112.614 179.44 116.167 179.44 116.167C179.066 119.641 186.865 118.691 186.865 118.691C200.108 74.4124 190.799 72.2006 190.799 72.2006Z" fill="#163560"/>
<path d="M184.364 56.0754C183.633 54.6147 182.267 53.5922 181.239 52.9873C181.67 52.8947 182.235 53.1358 182.235 53.1358C181.682 52.633 179.906 52.3238 179.906 52.3238C173.576 43.3161 163.814 54.9823 162.037 58.0218C160.259 61.0614 158.028 64.4344 152.014 64.1982C140.179 63.732 139.426 75.6344 141.847 81.7268C141.881 81.8132 147.683 92.0869 147.683 92.0869C149.048 89.583 161.333 78.96 169.51 79.0367C172.257 77.9289 175.157 74.663 175.384 74.4038C173.235 77.0951 171.676 78.3672 170.636 78.9758C178.411 77.7744 186.3 59.9488 184.364 56.0754Z" fill="#B5453C"/>
<path d="M169.999 79.0378C170.022 79.0683 168.93 83.1035 165.652 81.3336C163.5 80.1711 160.052 75.2132 161.378 73.5334C162.01 72.7348 164.796 71.2206 167.698 66.0801L168.046 66.3807L173.902 71.4458C173.902 71.4458 172.563 73.4384 171.451 75.3921C170.511 77.033 169.722 78.6446 169.999 79.0378Z" fill="#F4A269"/>
<path d="M167.832 65.1112C167.832 65.1112 167.94 60.9481 169.171 58.1509C170.05 56.1533 175.392 50.1474 181.402 55.5544C182.617 56.6375 183.574 57.9794 184.202 59.4813C184.992 61.4229 185.662 64.9237 179.467 69.1354L177.554 70.6801L167.832 65.1112Z" fill="#B5453C"/>
<path d="M159.96 71.3327C159.96 71.3327 162.111 71.7429 163.021 70.5245C163.932 69.306 165.911 66.7266 166.373 68.2117C166.836 69.6967 171.204 73.9937 172.216 74.1069C173.229 74.2201 173.935 74.5025 173.363 75.0259C172.791 75.5493 173.031 77.6455 172.459 77.8366C171.886 78.0277 161.277 71.2195 159.96 71.3327Z" fill="#B9C1CC"/>
<path d="M173.487 74.2747C173.487 74.2747 165.041 68.814 168.522 63.6066C172.003 58.3991 173.258 54.1874 178.798 57.4533C184.338 60.7192 184.047 63.3996 183.302 65.4203C182.557 67.441 175.773 75.5601 173.487 74.2747Z" fill="#FFB27D"/>
<path d="M173.902 78.4986C173.902 78.4986 159.599 67.9584 154.594 71.9254C147.211 77.7817 148.688 97.5488 146.973 100.121C145.258 102.693 135.593 121.139 151.311 123.016C167.03 124.893 170.646 114.982 171.361 107.557C172.075 100.132 173.902 78.4986 173.902 78.4986Z" fill="#B9C1CC"/>
<path d="M155.084 78.366C155.084 78.366 150.964 101.129 159.126 107.354C167.288 113.579 171.396 77.6612 155.084 78.366Z" fill="#A9A9A9"/>
<path d="M163.297 74.7275C163.297 74.7275 163.455 72.0678 165.801 73.0842C168.148 74.1006 172.49 75.6271 174.172 75.0014C175.855 74.3757 171.468 82.7858 167.461 79.9691C163.453 77.1523 163.297 74.7275 163.297 74.7275Z" fill="#A9A9A9"/>
<path d="M182.689 59.8758C182.689 59.8758 176.31 64.4478 172.195 62.998C168.079 61.5483 167.188 59.5897 167.188 59.5897C167.188 59.5897 171.313 59.255 174.37 55.8965C174.375 55.8941 182.91 55.8138 182.689 59.8758Z" fill="#B5453C"/>
<path d="M193.562 89.5538C193.562 89.5538 196.797 90.9622 196.154 94.6736C195.511 98.3851 194.224 97.1471 194.224 97.1471L193.562 89.5538Z" fill="#FFB27D"/>
<path d="M181.789 59.9914C181.789 59.9914 182.584 62.499 182.113 64.1033C181.642 65.7077 180 68.5609 180.858 69.0004C180.858 69.0004 185.362 66.0059 184.997 62.3614C184.613 58.4954 181.789 59.9914 181.789 59.9914Z" fill="#B5453C"/>
<path d="M145.209 114.85C147.119 112.563 172.322 68.5099 182.805 69.1027C198.584 69.9937 171.009 113.977 169.075 116.89C167.082 119.89 164.215 123.369 156.948 123.44C144.519 123.562 142.166 118.492 145.209 114.85Z" fill="#1C468A"/>
<path d="M187.237 72.2004C187.237 72.2004 187.864 72.7847 202.137 116.665C202.137 116.665 196.182 120.98 194.856 117.747C194.856 117.747 175.623 88.8806 180.153 83.7985C184.682 78.7164 187.237 72.2004 187.237 72.2004Z" fill="#1C468A"/>
<path d="M153.9 73.5383C153.9 73.5383 150.127 79.358 161.849 84.6969C173.571 90.0358 174.944 91.3395 177.229 91.8167C180.788 92.5592 194.462 92.4545 194.462 92.4545C194.462 92.4545 194.827 90.2854 193.562 89.5538C191.545 88.3804 179.899 86.4766 178.328 85.8485C176.758 85.2203 160.024 67.2329 153.9 73.5383Z" fill="#ED985F"/>
<path d="M142.344 162.619L139.481 163.685C139.481 163.685 127.048 146.446 125.516 131.267C125.244 128.559 125.334 125.934 125.925 123.511C125.925 123.511 125.804 122.816 125.592 121.589C125.493 121.016 125.371 120.327 125.234 119.537C124.83 117.225 124.273 114.051 123.637 110.443C122.176 102.139 120.278 91.5234 118.807 83.7195L119.579 83.4761L127.924 80.7798L129.649 75.3021L135.857 73.6661C135.857 73.6661 137.246 76.3819 138.486 89.2106C138.715 90.8928 138.923 92.7479 139.08 94.7613C139.654 102.252 139.457 109.781 138.495 117.232C138.21 119.461 137.845 121.76 137.399 124.128C137.072 125.862 137.023 128.225 137.156 130.938C137.791 143.343 142.344 162.619 142.344 162.619Z" fill="#2B478B"/>
<path d="M139.086 94.7613L125.592 121.589C125.493 121.016 125.371 120.327 125.234 119.537C124.83 117.225 124.273 114.051 123.637 110.443C122.176 102.139 120.278 91.5234 118.807 83.7195L119.579 83.4761L127.924 80.7798L129.649 75.3021L135.857 73.6661C135.857 73.6661 137.246 76.3819 138.486 89.2106C138.721 90.8928 138.929 92.7479 139.086 94.7613Z" fill="#233862"/>
<path d="M133.15 77.1085L132.837 74.4306C127.603 75.8207 113.619 70.5463 113.619 70.5463C113.619 70.5463 108.549 75.0027 109.215 85.6866C109.54 90.9013 110.134 113.059 110.753 119.617C110.977 121.993 111.173 123.683 111.254 124.364C111.254 124.366 111.254 124.368 111.254 124.37C111.268 124.575 111.215 124.779 111.101 124.951C110.202 126.484 109.436 128.092 108.813 129.756C102.727 145.97 109.749 165.937 109.749 165.937L111.575 165.207C111.575 165.207 115.571 142.987 118.818 133.17C119.369 131.506 119.897 130.197 120.381 129.415C121.793 127.137 123.102 123.414 124.292 118.987C126.539 110.616 128.348 99.7265 129.552 91.3213C129.716 91.3249 133.15 77.1085 133.15 77.1085Z" fill="#2B478B"/>
<path d="M143.148 44.615C141.505 45.377 139.521 45.8956 137.12 46.0271C128.122 46.514 126.08 38.6322 125.709 33.3967C126.699 33.0538 127.751 32.9208 128.796 33.006C129.433 33.0413 130.099 33.107 130.649 33.1752C131.745 32.5994 133.727 29.807 134.87 25.1352L135.258 25.3153L141.751 28.3719C141.751 28.3719 141.061 30.4851 140.552 32.5106C140.154 34.093 139.869 35.6207 140.108 36.0492C140.619 36.2561 140.926 36.3876 140.926 36.3876C140.925 36.39 140.925 36.3925 140.926 36.3949C141.927 39.0579 142.671 41.8105 143.148 44.615Z" fill="#A07252"/>
<path d="M141.751 28.3718C141.751 28.3718 141.061 30.4825 140.552 32.5105C136.757 31.4514 135.604 27.4625 135.257 25.3286L141.751 28.3718Z" fill="#8D6549"/>
<path d="M142.549 30.6031C142.549 30.6031 133.47 28.5021 134.866 22.8674C136.262 17.2327 136.03 13.1682 141.885 14.2711C147.74 15.3739 148.336 17.8011 148.323 19.7962C148.309 21.7913 144.947 31.0048 142.549 30.6031Z" fill="#A07252"/>
<path d="M157.225 71.0429C157.225 71.0429 163.21 71.2864 175.694 82.7858C175.694 82.7858 177.604 85.1059 178.555 85.2605C179.506 85.4151 182.085 86.0919 182.136 86.7468C182.187 87.4017 178.971 95.617 174.858 95.8519C170.745 96.0869 151.504 81.9447 152.852 77.1925C154.201 72.4403 157.225 71.0429 157.225 71.0429Z" fill="#B9C1CC"/>
<path d="M148.833 16.5984C147.859 14.5559 146.708 14.6642 145.989 15.0269C141.723 11.0794 137.539 14.3039 137.539 14.3039C135.929 18.1991 132.438 19.7816 132.438 19.7816C132.438 19.7816 133.833 21.2094 137.875 21.1778C139.109 21.1692 140.351 20.602 141.481 19.8205C140.071 21.207 138.478 22.3946 136.747 23.3506C141.808 22.3768 145.201 16.523 145.549 15.9009C145.977 16.5339 146.798 17.8814 146.867 19.0196C146.961 20.5655 146.429 23.5697 147.314 23.6829C147.314 23.6878 150.297 19.6598 148.833 16.5984Z" fill="#2C3A64"/>
<path d="M148.667 43.9527C148.341 42.9716 146.155 39.158 146.155 39.158C146.145 39.1482 144.764 37.8835 140.928 36.3777C140.927 36.3801 140.927 36.3826 140.928 36.385C140.989 36.609 142.632 42.5432 142.023 43.8103C141.415 45.097 129.914 40.94 129.286 39.9906C128.783 39.2286 128.77 35.2019 128.783 33.634C128.783 33.2433 128.791 33.0047 128.791 33.0047C128.791 33.0047 124.497 32.4228 122.083 33.4003C122.083 33.4003 123.037 35.4696 123.387 37.7544C123.42 37.9711 123.448 38.189 123.469 38.4057C123.516 38.8609 123.528 39.3192 123.504 39.7763C123.469 40.3691 123.163 40.895 122.674 41.4099C122.231 41.881 121.627 42.3472 120.944 42.845C120.499 43.1676 120.019 43.506 119.524 43.8724C119.482 46.5601 119.671 50.9824 119.173 55.6993C118.99 57.3717 118.291 58.9458 117.173 60.2032C114.636 63.0479 110.14 68.724 111.128 72.2468C111.201 75.5748 139.272 79.9484 138.672 76.293C138.672 76.293 142.89 55.9647 145.169 51.0543C145.252 50.8741 145.326 50.6988 145.394 50.5187C146.124 48.582 146.003 46.5893 145.759 44.8073C147.045 43.8919 148.667 43.9527 148.667 43.9527Z" fill="#558FFF"/>
<path d="M131.118 69.4617C125.582 69.4033 120.893 63.6529 118.027 59.059C118.658 58.0404 119.051 56.893 119.178 55.7018C119.676 50.9849 119.487 46.5626 119.528 43.8749C120.024 43.5097 120.502 43.1701 120.949 42.8475C121.632 42.3496 122.236 41.8834 122.679 41.4124C127.213 49.0738 138.625 69.5408 131.118 69.4617Z" fill="#4F7ED9"/>
<path d="M162.007 73.7757C162.007 73.7757 158.41 71.1975 156.266 71.6954C154.359 72.1287 150.286 71.262 149.485 71.0867C148.532 70.567 147.384 69.9389 146.171 69.245C143.249 67.5993 139.889 65.5835 137.592 63.9158C136.271 62.9627 135.279 62.118 134.927 61.5105C134.385 60.5793 133.779 59.1064 133.101 57.2866C132.754 56.3335 132.387 55.294 132.018 54.1887C131.368 52.3689 130.719 50.3969 130.047 48.4262C128.83 44.8304 127.533 41.2115 126.299 38.4179C125.497 36.6626 124.717 35.2116 123.986 34.323C123.401 33.6085 122.837 33.2396 122.295 33.3261C122.209 33.348 122.145 33.3699 122.079 33.3918C122.079 33.3918 118.96 34.2585 118.914 40.5408C118.9 40.9089 118.907 41.2776 118.936 41.6448C118.978 42.7501 119.195 44.094 119.52 45.5668C120.041 48.0367 120.907 50.896 121.99 53.7992C122.293 54.5795 122.599 55.3816 122.922 56.1814C125.262 61.9877 128.278 67.4045 130.808 69.245C130.903 69.3244 131.005 69.3968 131.111 69.4617C132.172 70.1336 133.732 70.8007 135.53 71.4337C138.086 72.3004 141.119 73.0794 143.828 73.7294H143.85C145.432 74.0763 146.882 74.4013 148.095 74.6399C148.095 74.6399 148.355 74.7044 148.81 74.7909C149.958 75.0733 152.319 75.6795 154.552 76.5462C157.67 77.7805 159.62 75.744 161.003 75.1597C162.402 74.5961 162.007 73.7757 162.007 73.7757Z" fill="#A07252"/>
<path d="M126.302 38.4264C122.131 37.2761 118.914 40.5335 118.914 40.5335C118.967 34.2609 122.088 33.4015 122.088 33.4015C123.345 32.8818 124.8 35.057 126.302 38.4264Z" fill="#558FFF"/>
<path d="M120.345 167.426H105.927C105.927 167.426 105.581 165.227 106.335 163.561C107.056 161.96 108.186 161.234 107.917 159.301C108.832 160.244 110.326 161.301 112.411 161.021C112.666 161.434 114.059 163.65 114.913 164.263C115.854 164.938 120.054 164.697 120.345 167.426Z" fill="#233862"/>
<path d="M151.303 167.426H136.884C136.884 167.426 136.346 165.125 137.292 163.561C138.13 162.176 137.809 161.387 137.189 160.241C137.956 160.574 138.788 160.731 139.623 160.699C140.341 160.658 141.101 160.334 141.767 159.944C142.388 160.653 145.045 163.664 145.875 164.261C146.811 164.938 151.013 164.697 151.303 167.426Z" fill="#233862"/>
<path d="M185.957 124.892H133.18V167.426H185.957V124.892Z" fill="#6CC2DD"/>
<path d="M212.345 124.892H164.594V167.424H212.345V124.892Z" fill="#5BA9C1"/>
<path d="M173.422 132.226C173.254 132.231 173.092 132.284 172.955 132.381C172.818 132.477 172.712 132.612 172.651 132.768C172.59 132.924 172.576 133.094 172.612 133.258C172.647 133.422 172.73 133.572 172.85 133.688C172.97 133.805 173.122 133.884 173.287 133.915C173.451 133.946 173.622 133.928 173.776 133.863C173.93 133.798 174.062 133.689 174.155 133.549C174.247 133.41 174.297 133.246 174.297 133.078C174.296 132.965 174.272 132.852 174.227 132.748C174.183 132.644 174.118 132.549 174.037 132.47C173.955 132.391 173.859 132.328 173.753 132.287C173.648 132.245 173.535 132.224 173.422 132.226Z" fill="#9DD2E2"/>
<path d="M204.663 133.073C204.657 132.899 204.703 132.727 204.796 132.579C204.888 132.432 205.023 132.315 205.182 132.244C205.342 132.174 205.518 132.152 205.69 132.182C205.862 132.213 206.02 132.294 206.146 132.415C206.271 132.536 206.357 132.692 206.394 132.862C206.43 133.033 206.414 133.21 206.349 133.372C206.284 133.534 206.172 133.672 206.027 133.77C205.883 133.867 205.712 133.919 205.538 133.919C205.425 133.921 205.313 133.901 205.207 133.859C205.102 133.818 205.006 133.756 204.925 133.678C204.844 133.599 204.779 133.505 204.734 133.402C204.689 133.298 204.665 133.186 204.663 133.073Z" fill="#9DD2E2"/>
<path d="M173.422 159.019C173.254 159.024 173.092 159.078 172.955 159.174C172.818 159.27 172.712 159.405 172.651 159.561C172.59 159.717 172.576 159.888 172.612 160.051C172.647 160.215 172.73 160.365 172.85 160.482C172.97 160.598 173.122 160.677 173.287 160.708C173.451 160.739 173.622 160.721 173.776 160.656C173.93 160.591 174.062 160.482 174.155 160.342C174.247 160.203 174.297 160.039 174.297 159.871C174.296 159.758 174.272 159.646 174.227 159.541C174.182 159.437 174.118 159.343 174.036 159.264C173.955 159.184 173.859 159.122 173.753 159.08C173.648 159.038 173.535 159.018 173.422 159.019Z" fill="#9DD2E2"/>
<path d="M204.663 159.867C204.658 159.693 204.705 159.521 204.799 159.374C204.892 159.227 205.027 159.111 205.186 159.042C205.346 158.972 205.523 158.951 205.694 158.982C205.865 159.013 206.023 159.095 206.148 159.216C206.273 159.338 206.358 159.494 206.394 159.664C206.43 159.834 206.414 160.011 206.348 160.173C206.283 160.334 206.171 160.472 206.026 160.569C205.882 160.667 205.712 160.719 205.538 160.719C205.424 160.72 205.312 160.7 205.206 160.658C205.101 160.616 205.004 160.554 204.923 160.474C204.842 160.395 204.777 160.301 204.732 160.196C204.687 160.092 204.664 159.98 204.663 159.867Z" fill="#9DD2E2"/>
<path d="M138.149 133.073C138.149 132.605 138.392 132.221 138.691 132.221C138.989 132.221 139.232 132.6 139.232 133.073C139.232 133.547 138.989 133.919 138.691 133.919C138.392 133.919 138.149 133.543 138.149 133.073Z" fill="#89CCE0"/>
<path d="M158.042 133.073C158.042 132.605 158.285 132.221 158.584 132.221C158.884 132.221 159.126 132.6 159.126 133.073C159.126 133.547 158.883 133.919 158.584 133.919C158.286 133.919 158.042 133.543 158.042 133.073Z" fill="#89CCE0"/>
<path d="M138.149 159.866C138.149 159.399 138.392 159.014 138.691 159.014C138.989 159.014 139.232 159.394 139.232 159.866C139.232 160.339 138.989 160.719 138.691 160.719C138.392 160.719 138.149 160.333 138.149 159.866Z" fill="#89CCE0"/>
<path d="M158.584 160.713C158.884 160.713 159.126 160.334 159.126 159.867C159.126 159.399 158.884 159.021 158.584 159.021C158.285 159.021 158.043 159.399 158.043 159.867C158.043 160.334 158.285 160.713 158.584 160.713Z" fill="#89CCE0"/>
<path d="M133.18 124.96C133.18 124.96 140.352 118.337 145.083 120.357C151.311 123.016 166.038 122.275 169.753 121.589C173.468 120.902 202.491 122.952 212.345 124.892L133.18 124.96Z" fill="#9DD2E2"/>
<path opacity="0.4" d="M212.345 156.268V167.424H164.594V124.892H172.605L172.763 124.96C172.763 124.96 177.049 153.812 212.345 156.268Z" fill="#6CC2DD"/>
<path d="M223.972 130.187C223.972 130.187 214.267 128.812 213.703 127.245C213.703 127.245 214.376 125.829 213.311 125.459C213.025 125.36 212.546 125.177 212.337 125.448L212.351 128.337C212.351 128.337 213.398 129.357 213.984 130.18C214.308 130.633 220.579 133.258 220.579 133.258L223.972 130.187Z" fill="#163560"/>
<path d="M243.972 151.379C244.891 150.049 243.935 140.657 237.31 143.508C235.902 143.934 234.209 144.951 232.181 146.809C232.181 146.809 229.271 153.667 240.75 158.204C240.75 158.204 241.886 158.691 242.048 159.741C242.21 160.792 242.392 165.507 242.002 165.65C241.613 165.792 241.036 165.251 240.616 165.847C240.196 166.443 240.343 167.429 240.343 167.429H244.515C244.515 167.429 246.507 156.839 246.395 155.993C246.283 155.147 242.88 152.957 243.972 151.379Z" fill="#163560"/>
<path d="M227.608 112.986C227.608 112.986 229.815 117.612 228.597 119.004L225.166 116.25C225.166 116.25 225.149 114.886 227.608 112.986Z" fill="#233862"/>
<path d="M251.258 137.916C250.357 136.283 249.007 133.553 250.788 132.438C252.306 131.487 251.726 129.508 250.847 129.03C248.999 128.031 247.121 129.294 246.241 130.526C244.566 132.87 246.791 136.535 246.791 136.535C248.893 141.063 244.564 143.42 242.477 144.261C241.463 142.755 240.284 141.367 238.961 140.123C238.242 139.441 237.582 138.885 237.028 138.418C231.151 133.396 232.576 131.558 231.185 129.3C230.912 128.853 229.831 127.637 229.543 127.248C229.256 126.858 229.156 125.487 229.122 124.277C229.783 123.715 229.853 123.085 229.853 123.085C229.89 123.255 229.89 123.431 229.853 123.602C230.538 123.046 230.382 121.766 230.382 121.766C230.533 121.951 230.594 122.348 230.594 122.348C230.937 120.357 229.711 118.732 229.703 118.719C229.918 116.85 228.364 113.596 228.364 113.596C227.227 114.474 226.62 115.238 226.295 115.805C225.232 115.484 223.982 115.506 222.666 116.791C222.263 117.186 221.071 117.506 220.509 117.434C220.198 117.394 219.492 118.946 219.466 119.159C219.158 121.507 219.903 122.668 221.244 123.87C221.433 124.399 221.578 125.111 221.244 125.59C221.244 125.59 221.527 125.468 221.562 125.383C221.537 125.504 221.384 126.246 220.981 126.577C221.074 126.567 221.166 126.545 221.254 126.514C220.902 126.96 219.563 128.809 219.581 131.087C216.767 131.111 214.089 130.938 213.83 130.218C213.83 130.218 214.438 129.03 213.438 128.432C213.101 128.254 212.723 128.167 212.342 128.179L212.294 131.422C212.294 131.422 213.517 132.328 214.104 133.151C214.306 133.434 218.242 135.211 221.191 136.513C222.906 143.95 228.415 148.248 230.237 149.493C230.5 151.764 231.85 154.72 235.715 158.162C235.715 158.162 236.614 159.014 236.406 160.053C236.198 161.091 234.747 165.585 234.337 165.585C233.927 165.585 232.539 164.985 231.94 165.4C231.341 165.815 232.17 167.429 232.17 167.429H236.389C236.389 167.429 241.599 158.854 241.783 158.025C241.967 157.196 239.524 153.968 241.092 152.861C241.763 152.386 242.697 149.785 242.502 147.396C244.558 146.675 254.077 143.027 251.258 137.916Z" fill="#2B478B"/>
<path d="M220.405 117.443C220.463 117.405 220.529 117.383 220.598 117.377C220.667 117.372 220.736 117.384 220.799 117.412C220.799 117.412 220.746 118.194 219.982 118.241C219.982 118.241 220.202 117.564 220.405 117.443Z" fill="#163560"/>
<path d="M221.808 119.195C221.837 119.205 224.698 120.271 226.749 122.626C224.662 120.229 221.869 119.111 221.838 119.102L221.808 119.195Z" fill="#163560"/>
<path d="M221.541 119.397C221.572 119.416 224.571 121.457 226.27 124.753C224.542 121.399 221.635 119.318 221.603 119.299L221.541 119.397Z" fill="#163560"/>
<path d="M221.233 119.641C221.254 119.663 223.363 121.871 224.18 124.884C223.35 121.817 221.323 119.592 221.301 119.57L221.233 119.641Z" fill="#163560"/>
<path d="M228.359 113.592C228.359 113.592 228.523 117.171 228.875 117.833C229.227 118.495 229.694 118.717 229.694 118.717C229.911 116.846 228.359 113.592 228.359 113.592Z" fill="#233862"/>
</svg>
