<svg width="155" height="98" viewBox="0 0 155 98" fill="none" xmlns="http://www.w3.org/2000/svg">
<path opacity="0.1" d="M87.2114 98.0001C124.162 98.0001 154.117 96.3853 154.117 94.3934C154.117 92.4015 124.162 90.7867 87.2114 90.7867C50.2606 90.7867 20.3062 92.4015 20.3062 94.3934C20.3062 96.3853 50.2606 98.0001 87.2114 98.0001Z" fill="#1B262C"/>
<path d="M139.311 21.8414V78.9362" stroke="#287699" stroke-width="0.996477" stroke-miterlimit="10"/>
<path d="M128.234 21.6401C128.234 21.6401 137.94 25.7567 150.387 21.1562L143.665 5.90566L133.711 5.66504L128.234 21.6401Z" fill="#ED6663"/>
<path d="M146.299 11.8845C142.376 16.3151 136.036 18.1799 129.372 18.3237L128.234 21.6401C128.234 21.6401 137.94 25.7567 150.387 21.1562L146.299 11.8845Z" fill="#CE5757"/>
<path d="M19.9374 54.9841C18.8153 53.985 16.8329 52.7766 14.5365 51.6782C13.6002 53.1507 12.554 54.8167 12.3709 55.1855C12.3448 55.2508 12.3343 55.2718 12.3474 55.2378C12.3533 55.2195 12.3612 55.202 12.3709 55.1855C12.5174 54.8062 13.2314 52.8943 13.812 51.3434C12.4186 50.707 10.99 50.1508 9.5332 49.6774L8.86104 53.373L9.12258 49.544C4.63451 48.163 0.491673 47.9538 0.0365893 50.8831C-0.0863357 51.6939 0.222285 52.5805 0.855218 53.4985C2.55524 53.352 5.01374 53.1219 5.01374 53.1219L1.44107 54.2596C2.80371 55.8445 5.01636 57.487 7.57163 58.9674L9.60905 54.7304L7.97179 59.1975C10.679 60.7324 13.5271 62.0041 16.4772 62.9951C16.6812 61.9489 16.8302 61.2062 16.8302 61.2062L16.9218 63.139C17.4449 63.309 17.9836 63.4607 18.491 63.5967L18.695 62.6996L18.8729 63.696C21.4203 64.3316 23.5807 64.4807 24.7916 63.9576C24.789 63.9445 25.6625 60.0868 19.9374 54.9841Z" fill="#287699"/>
<path d="M24.483 64.0596C24.587 64.0269 24.6892 63.9885 24.789 63.9446C24.789 63.9446 25.6625 60.0868 19.9374 54.9841C18.8154 53.985 16.8329 52.7767 14.5365 51.6782C13.7074 52.9859 12.7946 54.427 12.4677 54.9998C16.6838 57.0163 20.9835 59.9142 24.483 64.0596Z" fill="#3194AF"/>
<path d="M12.4442 54.9867C12.6822 54.359 13.2994 52.7086 13.8121 51.3251C12.4187 50.6887 10.9901 50.1325 9.53323 49.6591L8.86107 53.3547L9.12261 49.5257C4.63454 48.1447 0.491705 47.9355 0.0366211 50.8648C0.0366211 50.9066 0.0366211 50.9485 0.0366211 50.9903C4.32806 51.7796 8.49881 53.123 12.4442 54.9867Z" fill="#3194AF"/>
<path d="M25.9999 49.4316L24.0436 49.8867L25.8299 48.9189C25.6468 48.3959 25.4271 47.8466 25.163 47.2738C24.5301 45.9391 23.7874 44.6592 22.9425 43.4475L21.1849 44.7813L22.4246 42.7125C19.6941 39.0117 16.1058 36.0197 14.3404 38.9306C13.6159 40.1285 13.5557 42.0325 14.0788 44.1746L18.083 44.0333L14.2227 44.7421C14.6654 46.315 15.2996 47.8276 16.111 49.2459L17.4475 48.6469L16.2836 49.578C17.1799 51.1117 18.2768 52.519 19.545 53.7627L22.3017 50.755L19.9269 54.121C21.5955 55.6406 23.5362 56.7835 25.6625 57.2282C25.6625 57.2255 27.5979 54.5107 25.9999 49.4316Z" fill="#287699"/>
<path d="M25.503 57.1888L25.6625 57.2255C25.6625 57.2255 27.5979 54.5107 25.9999 49.4263L24.0436 49.8813L25.8299 48.9136C25.6468 48.3906 25.4271 47.8413 25.163 47.2685C24.5301 45.9337 23.7874 44.6539 22.9425 43.4422L21.1849 44.7813L22.4246 42.7125C19.8511 39.2235 16.5138 36.3674 14.662 38.4912C16.1424 40.492 22.3959 49.17 25.503 57.1888Z" fill="#3194AF"/>
<path d="M30.2971 34.0686L27.6529 34.95L30.2474 33.318C30.2265 33.0704 30.2003 32.8193 30.1689 32.5647L28.7723 32.8263L30.08 32.0076C29.6686 29.6551 29.0327 27.3473 28.1812 25.116L23.0341 27.1011L27.9537 24.5092C26.6774 21.1615 24.9486 17.7849 23.0759 15.452L20.3114 17.4031L22.5162 14.7877C20.8109 12.8915 19.0115 11.9264 17.3246 12.6718C15.2715 13.582 14.6856 17.9759 15.3159 23.2773L16.7021 23.2512L15.3473 23.5127C15.662 25.9635 16.179 28.3841 16.893 30.7496L22.1762 28.9659L17.131 31.529C18.2478 35.0101 19.7936 38.3291 21.7107 40.8896L23.803 38.7973L22.1108 41.3839C23.7245 43.39 25.5841 44.8441 27.6608 45.3934C29.5244 41.9176 30.434 38.0101 30.2971 34.0686Z" fill="#287699"/>
<path d="M27.6529 45.4038C29.5211 41.9257 30.4335 38.0143 30.2971 34.0686L27.6529 34.95L30.2474 33.318C30.2265 33.0704 30.2003 32.8193 30.1689 32.5647L28.7723 32.8263L30.08 32.0076C29.6686 29.6551 29.0327 27.3473 28.1812 25.116L23.0341 27.1011L27.9537 24.5092C26.6773 21.1615 24.9486 17.7849 23.0759 15.452L20.3114 17.4031L22.5162 14.7877C20.8109 12.8915 19.0115 11.9264 17.3246 12.6718C17.3246 12.6718 25.0061 30.9798 27.5038 45.3646L27.6529 45.4038Z" fill="#3194AF"/>
<path d="M38.2297 47.1456L39.5374 47.4333C39.7362 47.0846 39.9306 46.7237 40.1206 46.3505L35.6143 43.6593L40.322 45.9687C41.8758 42.7313 43.088 39.3408 43.9392 35.8522L39.2314 34.3274L44.0699 35.3736C44.8012 32.4645 45.2824 29.4983 45.5084 26.5073L41.8468 25.8665L45.5398 25.9711C45.6941 22.7045 45.2782 20.3532 44.2112 19.8929C42.1188 18.9932 38.7188 20.225 35.2298 27.4462L37.3666 28.3538L34.9866 27.9589C34.0875 29.9102 33.3016 31.9117 32.6327 33.9534C32.311 34.9185 32.0285 35.8418 31.7774 36.7205L35.6195 39.0561L31.5106 37.7118C31.4322 38.0073 31.3563 38.3029 31.2857 38.5879L33.0067 39.8015L31.1994 38.9489C30.3912 42.3751 30.1532 45.0847 30.2003 47.1953L32.5071 47.1456L30.2108 47.5615C30.4069 52.1332 32.0102 53.7391 32.0102 53.7391C35.371 52.7452 37.3012 51.2937 39.3778 47.7236L38.2297 47.1456Z" fill="#287699"/>
<path d="M44.2007 19.8929C44.1538 19.8719 44.1058 19.8536 44.0568 19.838C37.4189 28.3748 32.8471 50.0488 32.1096 53.7078C35.405 52.7113 37.3169 51.2545 39.3726 47.7184L38.227 47.1457L39.5348 47.4334C39.7335 47.0846 39.9279 46.7237 40.118 46.3506L35.6116 43.6593L40.3194 45.9687C41.874 42.7314 43.0872 39.341 43.9391 35.8523L39.2314 34.3275L44.0699 35.3736C44.8011 32.4646 45.2824 29.4984 45.5084 26.5073L41.8468 25.8666L45.5398 25.9712C45.6862 22.7045 45.2808 20.3533 44.2007 19.8929Z" fill="#3194AF"/>
<path d="M5.87427 52.4968C8.22815 53.4907 28.2754 58.4678 29.3948 77.2597C29.3948 77.2597 31.1367 45.4038 21.6793 24.9956" stroke="#1B262C" stroke-width="0.248465" stroke-linecap="round" stroke-linejoin="round"/>
<path d="M18.6924 44.1589C18.6924 44.1589 29.3948 59.0904 29.3948 77.2597C31.0111 45.5268 39.4746 28.231 39.4746 28.231" stroke="#1B262C" stroke-width="0.248465" stroke-linecap="round" stroke-linejoin="round"/>
<path d="M33.127 74.2781H24.4961C24.4961 74.2781 22.1736 92.8476 29.6407 95.0184C37.1077 97.1892 33.127 74.2781 33.127 74.2781Z" fill="#ED6663"/>
<path d="M33.3571 74.2781H26.5832C26.5832 74.2781 24.7524 92.8476 30.6214 95.0184C36.4904 97.1892 33.3571 74.2781 33.3571 74.2781Z" fill="#CE5757"/>
<path d="M84.0336 0.439331H97.5083L97.8352 13.5845L83.8688 13.2575L84.0336 0.439331Z" stroke="#337B9F" stroke-width="0.876168" stroke-miterlimit="10"/>
<path d="M86.3875 2.77502H94.9216L95.1309 11.1025L86.2829 10.8933L86.3875 2.77502Z" fill="#FFC7C8"/>
<path d="M102.378 17.2122H120.367L120.733 30.0539L102.195 29.7348L102.378 17.2122Z" stroke="#337B9F" stroke-width="0.915399" stroke-miterlimit="10"/>
<path d="M105.007 19.4954H117.48L117.713 27.6293L104.892 27.4253L105.007 19.4954Z" fill="#FFC7C8"/>
<path d="M89.1573 47.742C89.1573 41.2531 87.1565 39.2523 84.6901 39.2523H49.17C46.7011 39.2523 44.7029 39.2262 44.7029 45.715V80.3537C44.7029 78.7845 46.7011 80.7984 49.17 80.7984H84.6901C87.1565 80.7984 89.1573 78.7976 89.1573 80.3537V47.742Z" fill="#FFC7C8"/>
<path d="M133.612 45.715C133.612 39.2262 131.613 39.2523 129.144 39.2523H93.6322C91.1633 39.2523 89.1625 39.2262 89.1625 45.715V80.3537C89.1625 78.7845 91.1633 80.7984 93.6322 80.7984H129.144C131.613 80.7984 133.612 78.7976 133.612 80.3537V45.715Z" fill="#FFC7C8"/>
<path opacity="0.7" d="M44.7081 65.8355V80.3537C44.7081 78.7845 46.7272 80.7984 49.2171 80.7984H85.0693C86.8844 80.7984 88.4484 79.7365 89.1625 79.7522V80.3433C89.1625 80.0451 89.2357 79.8803 89.3717 79.8019C89.5077 79.8803 89.5809 80.0451 89.5809 80.3433V79.7705C90.2897 79.7496 91.838 80.8167 93.6322 80.8167H129.144C131.613 80.8167 133.612 78.8159 133.612 80.372V45.715C133.612 45.3672 133.612 45.0429 133.596 44.7343L44.7081 65.8355Z" fill="#DBADB0"/>
<path d="M43.0133 55.0286H33.6998C31.3612 55.0286 29.4654 56.9244 29.4654 59.2629V74.503C29.4654 76.8416 31.3612 78.7374 33.6998 78.7374H43.0133C45.3519 78.7374 47.2477 76.8416 47.2477 74.503V59.2629C47.2477 56.9244 45.3519 55.0286 43.0133 55.0286Z" fill="#DBADB0"/>
<path d="M42.5896 55.0286H33.2761C30.9375 55.0286 29.0417 56.9244 29.0417 59.2629V74.503C29.0417 76.8416 30.9375 78.7374 33.2761 78.7374H42.5896C44.9282 78.7374 46.824 76.8416 46.824 74.503V59.2629C46.824 56.9244 44.9282 55.0286 42.5896 55.0286Z" fill="#DBADB0"/>
<path d="M144.62 55.0286H135.306C132.968 55.0286 131.072 56.9244 131.072 59.2629V74.503C131.072 76.8416 132.968 78.7374 135.306 78.7374H144.62C146.959 78.7374 148.854 76.8416 148.854 74.503V59.2629C148.854 56.9244 146.959 55.0286 144.62 55.0286Z" fill="#DBADB0"/>
<path d="M35.5279 94.0821C35.5279 94.391 35.4054 94.6873 35.1872 94.906C34.969 95.1247 34.673 95.2479 34.3641 95.2486C34.0551 95.2479 33.7591 95.1247 33.5409 94.906C33.3227 94.6873 33.2002 94.391 33.2002 94.0821V90.0622C33.2002 89.7535 33.3228 89.4575 33.5411 89.2392C33.7594 89.0209 34.0554 88.8983 34.3641 88.8983C34.6727 88.8983 34.9688 89.0209 35.187 89.2392C35.4053 89.4575 35.5279 89.7535 35.5279 90.0622V94.0821Z" fill="#1B262C"/>
<path d="M144.11 94.0821C144.11 94.3915 143.987 94.6882 143.768 94.9069C143.55 95.1257 143.253 95.2486 142.944 95.2486C142.635 95.2479 142.339 95.1247 142.12 94.906C141.902 94.6873 141.78 94.391 141.78 94.0821V90.0622C141.78 89.7535 141.902 89.4575 142.121 89.2392C142.339 89.0209 142.635 88.8983 142.944 88.8983C143.252 88.8983 143.549 89.0209 143.767 89.239C143.986 89.4572 144.109 89.7533 144.11 90.0622V94.0821Z" fill="#1B262C"/>
<path d="M144.861 55.0286H140.203C139.647 55.0286 139.096 55.1381 138.583 55.351C138.069 55.5638 137.602 55.8757 137.209 56.269C136.816 56.6622 136.505 57.129 136.292 57.6427C136.08 58.1565 135.97 58.707 135.971 59.263V80.4296H41.3499V59.263C41.3499 58.1399 40.9038 57.0629 40.1097 56.2688C39.3156 55.4747 38.2386 55.0286 37.1155 55.0286H32.4575C31.9015 55.0286 31.351 55.1381 30.8374 55.351C30.3238 55.5638 29.8572 55.8757 29.4642 56.269C29.0712 56.6622 28.7596 57.129 28.5471 57.6427C28.3346 58.1565 28.2254 58.707 28.2257 59.263V88.2628C28.2697 89.428 28.7523 90.5335 29.5768 91.358C30.4013 92.1824 31.5068 92.665 32.6719 92.709L144.874 92.4972C145.43 92.4975 145.98 92.3883 146.494 92.1758C147.008 91.9633 147.474 91.6516 147.868 91.2586C148.261 90.8657 148.573 90.399 148.786 89.8854C148.999 89.3719 149.108 88.8214 149.108 88.2654V59.263C149.108 58.7058 148.998 58.1541 148.785 57.6395C148.571 57.1249 148.258 56.6575 147.863 56.2642C147.469 55.8708 147 55.5592 146.485 55.3471C145.97 55.1351 145.418 55.0269 144.861 55.0286Z" fill="#FFC7C8"/>
<path d="M84.9255 71.5398H44.0726C41.734 71.5398 39.8382 73.4356 39.8382 75.7742V79.5822C39.8382 81.9208 41.734 83.8166 44.0726 83.8166H84.9255C87.2641 83.8166 89.1599 81.9208 89.1599 79.5822V75.7742C89.1599 73.4356 87.2641 71.5398 84.9255 71.5398Z" fill="#FFD4D4"/>
<path d="M133.612 71.5398H93.3943C91.0557 71.5398 89.1599 73.4356 89.1599 75.7742V79.5822C89.1599 81.9208 91.0557 83.8166 93.3943 83.8166H133.612C135.95 83.8166 137.846 81.9208 137.846 79.5822V75.7742C137.846 73.4356 135.95 71.5398 133.612 71.5398Z" fill="#FFD4D4"/>
<path d="M46.2198 70.0281C46.2198 70.0281 45.1946 73.1352 46.688 73.8283C48.1814 74.5214 55.6824 76.5745 57.7748 75.5335C59.8671 74.4926 58.9256 70.2452 58.9256 70.2452L46.2198 70.0281Z" fill="#FFA372"/>
<path d="M46.2198 70.0281C46.2198 70.0281 45.1946 73.1352 46.688 73.8283C48.1814 74.5214 55.6824 76.5745 57.7748 75.5335C59.8671 74.4926 58.9256 70.2452 58.9256 70.2452L46.2198 70.0281Z" fill="#E89069"/>
<path d="M56.0172 60.0328L55.0469 70.8197L86.7226 73.669L87.6929 62.882L56.0172 60.0328Z" fill="#D4EFF8"/>
<path opacity="0.2" d="M56.0172 60.0328L55.0469 70.8197L86.7226 73.669L87.6929 62.882L56.0172 60.0328Z" fill="#1B262C"/>
<path d="M58.5856 63.7065C58.5856 63.7065 47.2137 58.5541 43.5024 58.4966C39.7911 58.439 37.8949 62.6812 37.9106 65.5582C37.9263 68.4352 52.1045 73.0279 66.2775 74.5788L73.7943 70.5746L58.5856 63.7065Z" fill="#D4EFF8"/>
<path opacity="0.1" d="M58.5856 63.7066C58.5856 63.7066 51.1839 60.3536 46.3741 59.0276C45.6052 63.2698 51.3618 65.676 54.7801 66.22C55.3346 66.3089 55.9361 66.8137 55.8054 67.4493C55.3712 69.5599 53.666 70.9487 51.8822 72.0158C56.6147 73.191 61.4203 74.0491 66.2671 74.5841L73.7838 70.5799L58.5856 63.7066Z" fill="#1B262C"/>
<path d="M53.4122 72.1858C53.4122 72.1858 53.3992 74.3958 54.8063 76.1299C56.2134 77.8639 81.2717 76.7733 86.9524 73.6844C92.6332 70.5956 94.4613 65.3491 90.2322 62.6212C86.0031 59.8933 67.9462 70.3236 53.4122 72.1858Z" fill="#D4EFF8"/>
<path d="M67.4283 32.1697C67.4283 32.1697 67.9514 34.5236 67.6035 35.5698C67.2557 36.6159 56.9587 35.6979 62.4014 39.6917C67.8441 43.6854 77.9397 37.5836 78.4628 35.6979C78.9858 33.8122 73.4176 39.098 74.0976 29.2483C74.5239 23.1151 67.4283 32.1697 67.4283 32.1697Z" fill="#E89069"/>
<path d="M61.6612 23.204C61.6612 23.204 61.3526 22.762 60.8504 23.7664C60.3483 24.7707 61.112 27.033 61.9437 27.3757C62.7754 27.7183 61.6612 23.204 61.6612 23.204Z" fill="#E89069"/>
<path d="M61.1722 21.0098C61.1722 21.0098 60.5837 24.0123 62.2968 26.204L62.8827 20.4004L61.1722 21.0098Z" fill="#1B262C"/>
<path d="M76.5012 26.0811C76.5012 26.0811 76.6869 28.0217 75.2432 29.3451L75.115 29.4576C73.5327 30.7784 75.115 26.5283 75.115 26.5283L76.5012 26.0811Z" fill="#1B262C"/>
<path d="M67.0281 16.7622C67.0281 16.7622 61.7973 17.628 61.5357 22.5711C61.2742 27.5143 62.7702 35.0284 68.8589 34.4321C74.9476 33.8357 76.3835 26.5178 75.5649 23.578C74.7463 20.6383 72.5415 15.6036 67.0281 16.7622Z" fill="#FFA372"/>
<path d="M78.264 15.6742C76.4332 12.9673 74.6783 15.2244 74.6783 15.2244C75.272 13.5584 73.7158 11.0632 71.4247 11.7485C69.9574 12.1879 67.5617 12.439 66.6725 11.5131C65.336 10.1191 63.7118 9.15921 62.901 10.2812C61.4468 12.316 64.4546 12.8391 64.4546 12.8391C61.5907 13.5374 59.446 9.77907 57.2412 13.0823C55.1489 16.2209 60.1182 18.4335 60.1182 18.4335C60.1182 18.4335 57.8402 18.2923 58.3005 20.2434C58.8445 22.5397 62.8932 20.8475 62.8932 20.8475C62.8932 20.8475 61.2533 22.8013 63.5496 23.463C65.7544 24.0881 66.8895 20.96 68.0168 19.8014C70.0516 17.6933 71.7856 18.2321 71.7856 18.2321C71.1919 21.9983 73.6164 21.3863 73.878 23.2014C74.0508 24.3467 74.1383 25.5033 74.1395 26.6616L75.1491 26.7532C75.6983 25.5945 74.979 22.9817 75.6564 22.5345C76.0932 22.2468 76.7366 22.681 77.2048 22.9922C77.5343 20.2538 79.4645 17.437 78.264 15.6742Z" fill="#1B262C"/>
<path d="M62.1765 18.2321L62.1138 18.253C62.0667 18.2713 62.0013 18.287 61.9228 18.3106C61.7078 18.3684 61.4895 18.413 61.269 18.4439C60.9634 18.4902 60.6547 18.5121 60.3457 18.5093C60.171 18.5089 59.9964 18.4993 59.8226 18.4806C59.6467 18.4653 59.4719 18.4382 59.2996 18.3995C59.1229 18.3667 58.9483 18.3239 58.7765 18.2713C58.6091 18.2243 58.4548 18.151 58.3005 18.0961C58.1462 18.0412 58.0075 17.9549 57.8715 17.8921C57.7457 17.8288 57.6243 17.7571 57.508 17.6776C57.4008 17.6044 57.2909 17.5521 57.2098 17.4841L56.9901 17.3167L56.8018 17.1729L56.9954 17.3115L57.2203 17.4684C57.3165 17.5378 57.419 17.5982 57.5263 17.6489C57.6466 17.72 57.7715 17.7829 57.9003 17.8372C58.0389 17.8895 58.1775 17.9601 58.3345 18.0046C58.4914 18.049 58.6457 18.1039 58.8131 18.1327C58.9787 18.1684 59.1464 18.1937 59.3152 18.2086C59.4838 18.2255 59.6533 18.2307 59.8226 18.2243C59.9853 18.2211 60.1476 18.2098 60.3091 18.1903C60.4596 18.1703 60.6089 18.1424 60.7563 18.1066C60.895 18.0699 61.0179 18.0359 61.146 17.9941C61.3349 17.9321 61.5179 17.8533 61.6927 17.7587C61.7401 17.7363 61.7856 17.7101 61.8287 17.6802L61.8784 17.6515L62.1765 18.2321Z" fill="#1B262C"/>
<path d="M58.018 19.4797C58.0086 19.5911 58.0086 19.7031 58.018 19.8145C58.0225 19.9418 58.0365 20.0685 58.0599 20.1937C58.0907 20.3564 58.1417 20.5145 58.2116 20.6645C58.293 20.8405 58.4035 21.0014 58.5385 21.1405C58.6883 21.2924 58.8659 21.414 59.0616 21.4988C59.1638 21.5472 59.2707 21.5849 59.3807 21.6113C59.4928 21.6429 59.6074 21.6647 59.7233 21.6767C59.9573 21.6988 60.1928 21.6988 60.4268 21.6767C61.1008 21.5988 61.7459 21.3592 62.3073 20.9784C62.5896 20.7857 62.8432 20.5542 63.0606 20.2905C63.1417 20.1781 63.2123 20.0839 63.2646 20.0028C63.3613 19.8328 63.411 19.7413 63.411 19.7413L64.078 20.1754L63.8164 20.437C63.7327 20.5181 63.6255 20.6122 63.5052 20.7168C63.3849 20.8214 63.2437 20.9261 63.0658 21.0281C62.8863 21.1425 62.7003 21.2464 62.5087 21.3393C62.302 21.4384 62.0898 21.5257 61.8732 21.6008C61.6428 21.6754 61.4078 21.7349 61.1696 21.7787C60.9263 21.8258 60.6797 21.8547 60.4321 21.865C60.1828 21.8759 59.9331 21.8619 59.6867 21.8232C59.5674 21.8031 59.4501 21.7725 59.3362 21.7316C59.2226 21.6972 59.113 21.6508 59.0093 21.593C58.8126 21.4905 58.6355 21.3542 58.4862 21.1902C58.355 21.04 58.249 20.8695 58.1723 20.6854C58.1084 20.5309 58.0628 20.3694 58.0363 20.2042C58.0138 20.0782 58.0024 19.9504 58.0023 19.8224C57.9979 19.7079 58.0031 19.5933 58.018 19.4797Z" fill="#1B262C"/>
<path d="M61.2847 18.6062H60.8871C60.7564 18.6062 60.589 18.5827 60.4007 18.567C60.2123 18.5513 60.0136 18.5147 59.7939 18.4571C59.684 18.4283 59.569 18.4074 59.4513 18.3708L59.1086 18.2479C58.8564 18.1479 58.6117 18.0299 58.3763 17.8948C58.2534 17.8222 58.1347 17.7427 58.0206 17.6568L57.9317 17.594C57.9014 17.5706 57.8726 17.5452 57.8454 17.5182L57.6885 17.3769C57.5838 17.2776 57.4818 17.1546 57.3851 17.0422C57.2883 16.9297 57.2072 16.8068 57.1235 16.676C57.0436 16.5509 56.9736 16.4198 56.9143 16.2837L56.8228 16.0849L56.7495 15.8783C56.6587 15.6107 56.5948 15.3347 56.5586 15.0545C56.5429 14.9184 56.5429 14.7929 56.5298 14.6543C56.5168 14.5157 56.5298 14.3927 56.5455 14.2672C56.5612 14.1417 56.5795 14.024 56.5978 13.9063C56.6161 13.7886 56.6554 13.684 56.6841 13.5793C56.7129 13.4747 56.7626 13.3806 56.7992 13.289C56.8371 13.1991 56.8808 13.1117 56.93 13.0275C56.9656 12.9539 57.0094 12.8845 57.0608 12.8209L57.1863 12.6535C57.27 12.5567 57.3458 12.4913 57.3903 12.4416L57.4635 12.3684L57.3929 12.4443C57.3485 12.4939 57.2752 12.5619 57.1941 12.6587L57.0712 12.8287C57.0202 12.893 56.9771 12.9633 56.9431 13.038C56.9064 13.1164 56.8541 13.1949 56.8201 13.2995C56.7861 13.4041 56.7521 13.4904 56.7181 13.5924C56.6841 13.6944 56.6684 13.8069 56.6449 13.9194C56.6214 14.0318 56.6188 14.1521 56.6057 14.2751C56.5926 14.398 56.6057 14.5366 56.6057 14.6543C56.6057 14.772 56.6292 14.9158 56.6528 15.044C56.7013 15.3127 56.7776 15.5756 56.8803 15.8286L56.9614 16.0222L57.0608 16.2105C57.1249 16.3352 57.1983 16.455 57.2805 16.5688C57.3618 16.6831 57.4491 16.7931 57.542 16.8983C57.6388 16.9951 57.7277 17.0919 57.8349 17.1808L58.0023 17.3116C58.0285 17.3299 58.0651 17.3613 58.0808 17.3691L58.1671 17.4214C58.2775 17.4939 58.3929 17.5586 58.5123 17.615C58.737 17.7224 58.9707 17.8099 59.2106 17.8765L59.5506 17.955C59.6605 17.9785 59.7677 17.989 59.8697 18.0046C60.057 18.0295 60.2457 18.0426 60.4347 18.0439C60.5994 18.0439 60.738 18.0439 60.8584 18.0282L61.2533 17.9863L61.2847 18.6062Z" fill="#1B262C"/>
<path d="M62.1373 10.276C62.0981 10.3295 62.0623 10.3854 62.0301 10.4434C61.9956 10.5106 61.9667 10.5806 61.9438 10.6526C61.911 10.7452 61.8925 10.8422 61.8888 10.9403C61.885 10.9952 61.885 11.0502 61.8888 11.1051L61.9202 11.2777C61.9603 11.3975 62.0186 11.5104 62.0928 11.6125L62.1478 11.6936L62.2184 11.7668L62.3622 11.9106C62.4773 11.9891 62.5845 12.0806 62.7075 12.1486C62.8304 12.2166 62.9559 12.282 63.0841 12.337L63.4686 12.4834C63.5915 12.5305 63.7301 12.5567 63.8373 12.5933C63.9446 12.6299 64.0649 12.6613 64.1669 12.6848L64.8704 12.8182L64.7501 13.3099L64.0518 13.0484C63.9472 13.0091 63.8373 12.9594 63.7196 12.9097C63.6019 12.86 63.4764 12.8156 63.3535 12.7476L62.9795 12.554C62.8513 12.4808 62.7179 12.3893 62.6081 12.3082C62.4982 12.2271 62.3779 12.1146 62.2655 12.0205L62.1242 11.8505C62.1007 11.8217 62.0772 11.7956 62.0562 11.7668L62.0039 11.6726C61.9336 11.556 61.8824 11.4288 61.8522 11.296C61.8522 11.2332 61.8391 11.1705 61.8339 11.1103C61.8299 11.052 61.8299 10.9934 61.8339 10.9351C61.8388 10.8827 61.8493 10.8309 61.8653 10.7808C61.8754 10.734 61.8903 10.6884 61.9098 10.6448C61.9374 10.5729 61.9716 10.5038 62.0118 10.4382C62.05 10.3814 62.0919 10.3272 62.1373 10.276Z" fill="#1B262C"/>
<path d="M66.2435 10.6475C66.3498 10.8879 66.5049 11.1036 66.699 11.281C66.893 11.4584 67.1218 11.5936 67.3708 11.6779C67.6189 11.7622 67.8779 11.8106 68.1397 11.8218C68.4023 11.8294 68.6651 11.8119 68.9243 11.7695C69.4474 11.6858 69.9548 11.5707 70.4727 11.4739C70.9897 11.364 71.5143 11.2932 72.0419 11.2621C72.1753 11.2621 72.3035 11.2621 72.4421 11.2621C72.5807 11.2621 72.7036 11.2856 72.8423 11.3118C72.976 11.3355 73.1073 11.3714 73.2346 11.419C73.3 11.4452 73.3653 11.4635 73.4255 11.4949L73.606 11.5942C73.7233 11.6668 73.8344 11.749 73.9381 11.8401C74.0351 11.9371 74.1268 12.0392 74.2127 12.1461L74.3304 12.3135C74.3514 12.3449 74.367 12.3658 74.3906 12.405L74.4377 12.4913L74.626 12.8366L74.7227 13.0092L74.8012 13.2001L74.9581 13.582L75.0654 13.9874C75.095 14.1268 75.1125 14.2686 75.1177 14.4111C75.1354 14.708 75.0954 15.0055 75 15.2872C74.9791 15.3588 74.9511 15.428 74.9163 15.4938L74.8195 15.7005C74.7489 15.8312 74.6678 15.962 74.5867 16.0797L73.9747 15.6351C74.0375 15.5462 74.0924 15.4808 74.1526 15.4075C74.2127 15.3343 74.2703 15.2663 74.333 15.1983C74.4573 15.0636 74.5882 14.9353 74.7254 14.8138C74.792 14.7519 74.8619 14.6934 74.9346 14.6386C75.0078 14.5837 75.0784 14.5235 75.1543 14.4738L75.3844 14.3221L75.6277 14.1914C75.7061 14.1469 75.7977 14.1181 75.8892 14.0815C75.9743 14.0473 76.0617 14.0194 76.1508 13.9978C76.2361 13.9711 76.3236 13.9518 76.4123 13.9403C76.5038 13.9403 76.5928 13.9141 76.6738 13.9141H76.9354C77.0235 13.9263 77.1109 13.9437 77.1969 13.9664L77.3251 13.9952L77.448 14.0449L77.6886 14.1469L77.4271 14.092C77.3867 14.0808 77.3456 14.072 77.3042 14.0658H77.176C77.089 14.0587 77.0015 14.0587 76.9145 14.0658L76.6686 14.0998C76.5891 14.1185 76.5105 14.1412 76.4332 14.1678C76.3548 14.1903 76.2794 14.2219 76.2083 14.262C76.1331 14.2931 76.0613 14.3316 75.9938 14.3771C75.9258 14.4241 75.8552 14.4608 75.7925 14.5131L75.6041 14.6648L75.4289 14.8321C75.3687 14.8871 75.3191 14.9525 75.2641 15.0126C75.2092 15.0728 75.1595 15.1381 75.1098 15.2009C75.0089 15.3288 74.9154 15.4624 74.83 15.6011C74.7855 15.6691 74.7489 15.7397 74.7071 15.8077C74.6652 15.8757 74.6286 15.9515 74.6024 16.0117L74.0166 15.5723C74.0977 15.4938 74.1944 15.418 74.2781 15.3317C74.3537 15.2513 74.4211 15.1637 74.4795 15.0701C74.5991 14.8712 74.6716 14.6476 74.6914 14.4163V14.2384C74.7005 14.1778 74.7005 14.116 74.6914 14.0554L74.6417 13.6866C74.6103 13.5663 74.571 13.4486 74.5344 13.3257L74.4795 13.1452L74.3984 12.9647L74.2337 12.6064L74.1892 12.5175L74.1447 12.4416L74.0427 12.2821C73.9702 12.1798 73.8916 12.082 73.8073 11.9892C73.7137 11.9053 73.614 11.8284 73.5092 11.759L73.347 11.6649C73.2921 11.6335 73.2319 11.6152 73.1744 11.589C73.0567 11.5418 72.935 11.505 72.8109 11.4792C72.6853 11.4504 72.5493 11.4399 72.429 11.4216C72.3087 11.4033 72.1675 11.4033 72.0419 11.4216C71.5153 11.4366 70.9906 11.4925 70.4727 11.589C69.9496 11.6727 69.4265 11.7721 68.9165 11.8506C68.6566 11.8867 68.3938 11.8972 68.1319 11.8819C67.869 11.8647 67.6096 11.8128 67.3603 11.7276C67.1094 11.6349 66.8805 11.491 66.6883 11.3051C66.496 11.1191 66.3445 10.8951 66.2435 10.6475Z" fill="#1B262C"/>
<path d="M71.7883 18.6559L71.6836 18.6402C71.6183 18.6402 71.511 18.6088 71.3907 18.5983C71.2592 18.5915 71.1273 18.5915 70.9958 18.5983L70.7342 18.6193L70.4465 18.6768C69.9831 18.7876 69.5454 18.9865 69.1571 19.2627C69.0604 19.3254 68.9479 19.4353 68.8407 19.5242C68.7334 19.6131 68.655 19.7177 68.5582 19.8171C68.4614 19.9165 68.383 20.0394 68.2967 20.1571C68.2104 20.2748 68.1319 20.3951 68.0587 20.5207C67.7631 21.0176 67.5173 21.5512 67.261 22.0402C67.1328 22.2835 66.9994 22.5215 66.8739 22.7359C66.752 22.9399 66.6156 23.1348 66.4659 23.3192C66.3926 23.4029 66.3273 23.4866 66.2592 23.5598C66.1912 23.633 66.118 23.6958 66.0552 23.7586C65.9219 23.8789 65.7937 23.9626 65.6891 24.0437L65.3386 24.2424L65.6865 24.0358C65.7832 23.9547 65.914 23.8684 66.0422 23.7455L66.2436 23.5441C66.3089 23.4683 66.3717 23.3846 66.4397 23.2983C66.5807 23.1095 66.7083 22.9111 66.8216 22.7046C66.9471 22.4875 67.0622 22.2469 67.1746 21.9984C67.4022 21.4989 67.6193 20.9522 67.8939 20.4291C67.9567 20.2958 68.0351 20.1676 68.1057 20.0368C68.1764 19.9061 68.2679 19.7753 68.3464 19.6602C68.4248 19.5451 68.5347 19.417 68.6288 19.3071C68.723 19.1973 68.8093 19.1057 68.9322 19.0011C69.327 18.6475 69.7755 18.3588 70.2609 18.1459L70.5773 18.0203L70.8729 17.9314C71.0447 17.8837 71.2194 17.847 71.3959 17.8216L71.804 17.7771L71.7883 18.6559Z" fill="#1B262C"/>
<path d="M75.353 23.0759C75.353 23.0759 76.258 21.1928 77.3382 22.8144C78.4183 24.4359 76.6634 27.6006 75.2458 27.1037C75.2354 27.1141 75.2223 24.5353 75.353 23.0759Z" fill="#FFA372"/>
<path d="M66.9549 24.585C67.0437 24.9829 67.104 25.3867 67.1354 25.7933C67.1485 25.9947 67.1694 26.1987 67.172 26.4027V27.0121L67.1354 27.6241C67.1204 27.8284 67.0951 28.0318 67.0595 28.2335C67.0438 28.3355 67.0334 28.4375 67.0151 28.5369C66.9968 28.6363 66.9706 28.7383 66.9471 28.8376C66.8948 29.039 66.8398 29.2352 66.7823 29.434L66.5966 29.264C66.8215 29.1907 67.0491 29.1227 67.2766 29.0573C67.5042 28.992 67.7343 28.9292 67.9671 28.8769C67.7605 28.9998 67.5512 29.1096 67.3394 29.2169C67.1275 29.3241 66.9157 29.4287 66.6986 29.5255L66.4684 29.6301L66.5129 29.3686C66.5443 29.1724 66.5757 28.9763 66.6149 28.7827C66.6541 28.5892 66.6646 28.3904 66.696 28.1942C66.7274 27.9981 66.7457 27.8019 66.7588 27.6005L66.8085 27.0068L66.8451 26.4079C66.866 26.2065 66.866 26.0078 66.8791 25.8064C66.8921 25.605 66.9 25.4062 66.9157 25.2022L66.9549 24.585Z" fill="#CC7E5E"/>
<path d="M66.0317 30.6763C66.0317 30.6763 66.2932 30.7678 66.6646 30.8777L66.968 30.9587C67.0752 30.9875 67.1903 31.0058 67.308 31.032C67.4257 31.0581 67.5486 31.0634 67.6715 31.0869C67.7945 31.1104 67.92 31.1131 68.0429 31.1104C68.1665 31.121 68.2908 31.121 68.4143 31.1104H68.5974L68.7726 31.0764L68.94 31.0451L69.0996 30.9954C69.1996 30.9713 69.2968 30.9371 69.3899 30.8934C69.4762 30.8541 69.5651 30.828 69.6357 30.7914L69.8188 30.692L69.9862 30.6083C69.9862 30.6083 69.9444 30.6632 69.8659 30.7521C69.8267 30.7966 69.777 30.8515 69.7168 30.9117C69.6465 30.9748 69.5723 31.0333 69.4945 31.0869C69.4527 31.1157 69.4108 31.1497 69.3611 31.1811L69.2068 31.2595L69.0394 31.3432C68.9793 31.3667 68.9165 31.3798 68.8537 31.4007L68.6576 31.4583C68.5931 31.4705 68.5251 31.481 68.4536 31.4897C68.3149 31.5081 68.175 31.516 68.0351 31.5132C67.8939 31.5132 67.7552 31.4897 67.6166 31.474C67.4847 31.4504 67.3545 31.418 67.2269 31.3772C67.0026 31.314 66.786 31.2263 66.5809 31.1157C66.3775 30.9967 66.1925 30.8486 66.0317 30.6763Z" fill="#CC7E5E"/>
<path d="M67.3917 31.8166C67.4305 31.8199 67.4689 31.8261 67.5068 31.8349L67.8023 31.9108C68.0831 31.9911 68.3789 32.0036 68.6654 31.9474C68.7427 31.9345 68.8182 31.9125 68.8904 31.882C68.9619 31.8567 69.0317 31.827 69.0996 31.7931C69.1676 31.7617 69.2277 31.7198 69.2905 31.6858C69.3533 31.6518 69.403 31.61 69.4553 31.5786C69.5573 31.5106 69.6384 31.4452 69.6959 31.4008L69.7901 31.3328C69.7901 31.3328 69.7691 31.3668 69.7247 31.4269C69.6636 31.5104 69.5963 31.589 69.5233 31.6623C69.4771 31.713 69.4263 31.7594 69.3716 31.8009C69.3115 31.8519 69.2477 31.8982 69.1807 31.9395C69.1093 31.9846 69.034 32.0231 68.9557 32.0546C68.8716 32.0901 68.7839 32.1164 68.6942 32.1331C68.6081 32.1513 68.5206 32.1618 68.4327 32.1645C68.3451 32.1667 68.2575 32.1606 68.1711 32.1462C68.0254 32.1206 67.8838 32.0758 67.75 32.0128C67.635 31.9605 67.5434 31.9029 67.4885 31.8715L67.3917 31.8166Z" fill="#CC7E5E"/>
<path d="M63.4005 25.571C63.4005 25.571 63.424 25.6469 63.4711 25.7777C63.5349 25.952 63.6109 26.1215 63.6987 26.285C63.8123 26.5026 63.972 26.6928 64.1668 26.8421C64.2713 26.9141 64.3884 26.9656 64.5121 26.9938C64.6428 27.0211 64.777 27.0273 64.9096 27.0121C64.9793 27.0041 65.0484 26.991 65.1162 26.9729C65.1798 26.959 65.2413 26.937 65.2993 26.9075C65.4148 26.8591 65.517 26.7838 65.5975 26.6878C65.7434 26.4953 65.8339 26.2664 65.859 26.0261C65.8855 25.8417 65.896 25.6553 65.8904 25.469C65.8904 25.333 65.8904 25.252 65.8904 25.252C65.9225 25.3181 65.9505 25.3863 65.9741 25.456C66.0358 25.6438 66.0719 25.8391 66.0813 26.0366C66.0893 26.1724 66.0797 26.3087 66.0525 26.442C66.0211 26.6003 65.958 26.7507 65.8668 26.884C65.7642 27.0309 65.6279 27.151 65.4693 27.2344C65.386 27.277 65.2983 27.3104 65.2078 27.3338C65.1222 27.3584 65.0347 27.3759 64.9462 27.3861C64.7713 27.4087 64.5937 27.3972 64.4231 27.3521C64.2519 27.3079 64.0928 27.2256 63.9576 27.1115C63.7368 26.9143 63.5763 26.6586 63.4947 26.374C63.4355 26.185 63.4029 25.9887 63.3979 25.7907C63.3932 25.7175 63.394 25.6441 63.4005 25.571Z" fill="#1B262C"/>
<path d="M69.5181 24.9381C69.5181 24.9381 69.5311 25.0192 69.5599 25.1526C69.6023 25.3303 69.6565 25.5051 69.7221 25.6757C69.8078 25.9053 69.9415 26.1139 70.1144 26.2877C70.2101 26.3709 70.32 26.4364 70.4387 26.4812C70.5647 26.5256 70.6974 26.5486 70.831 26.5492C70.9015 26.5544 70.9723 26.5544 71.0429 26.5492C71.1069 26.5406 71.17 26.5257 71.2312 26.5047C71.3521 26.4714 71.4634 26.4095 71.5555 26.3243C71.7268 26.153 71.8473 25.9375 71.9033 25.7018C71.9523 25.5228 71.9855 25.3399 72.0027 25.1552C72.0116 25.0831 72.0168 25.0107 72.0184 24.9381C72.0429 25.0072 72.0622 25.078 72.0759 25.15C72.1143 25.3436 72.1258 25.5416 72.1099 25.7384C72.1014 25.8749 72.0741 26.0096 72.0289 26.1386C71.9772 26.2919 71.8954 26.4333 71.7882 26.5544C71.6679 26.6859 71.5182 26.7871 71.3515 26.85C71.2669 26.8811 71.1792 26.903 71.0899 26.9154C71.0034 26.9291 70.916 26.9361 70.8284 26.9363C70.6493 26.9364 70.4718 26.9027 70.3053 26.8369C70.1411 26.771 69.9943 26.6681 69.8764 26.5361C69.6818 26.315 69.5547 26.0427 69.5102 25.7515C69.4759 25.5573 69.4672 25.3595 69.4841 25.163C69.4902 25.0874 69.5016 25.0122 69.5181 24.9381Z" fill="#1B262C"/>
<path d="M62.4616 24.3705C62.479 24.2968 62.5035 24.225 62.5348 24.156C62.6161 23.9698 62.7198 23.7941 62.8435 23.6329C62.9281 23.5274 63.0208 23.4286 63.1207 23.3374C63.2354 23.2326 63.3597 23.1389 63.4921 23.0575C63.564 23.015 63.6382 22.9766 63.7144 22.9425C63.7907 22.9013 63.8714 22.8688 63.955 22.8457C64.0387 22.8221 64.125 22.796 64.2166 22.7751C64.3031 22.7597 64.3904 22.7493 64.4781 22.7437C64.6582 22.7296 64.8393 22.7393 65.0169 22.7725C65.1843 22.8108 65.3486 22.8615 65.5086 22.9241C65.6524 23 65.7858 23.0837 65.9114 23.1621C66.0179 23.2428 66.1192 23.3302 66.2147 23.4237L66.3377 23.5492C66.3743 23.5937 66.4031 23.6408 66.4318 23.68C66.492 23.7611 66.5364 23.8369 66.5757 23.8971C66.6489 24.02 66.6829 24.0932 66.6829 24.0932C66.6829 24.0932 66.6018 24.0671 66.4737 24.0095C66.4083 23.9808 66.3324 23.9494 66.2487 23.9075C66.1576 23.8589 66.0622 23.8186 65.9637 23.7872C65.859 23.748 65.7544 23.6957 65.6393 23.6565C65.5243 23.6172 65.4013 23.5885 65.2837 23.5492C65.166 23.51 65.0221 23.5048 64.9096 23.4917C64.7834 23.4812 64.6566 23.4812 64.5304 23.4917C64.4676 23.4917 64.4049 23.4917 64.3421 23.4917C64.2793 23.4917 64.2166 23.5178 64.1538 23.5309C64.0299 23.5599 63.9076 23.5957 63.7876 23.6382C63.6699 23.6878 63.5496 23.7271 63.4424 23.7846C63.3352 23.8422 63.2279 23.8919 63.1285 23.9415C62.9324 24.0488 62.765 24.1482 62.6473 24.2214L62.4616 24.3705Z" fill="#1B262C"/>
<path d="M68.7857 23.9861C68.805 23.9127 68.8304 23.8409 68.8616 23.7717C68.9406 23.5849 69.0434 23.409 69.1676 23.2486C69.3509 23.0226 69.57 22.8283 69.8162 22.6732C69.8878 22.6302 69.962 22.5917 70.0385 22.5581C70.115 22.5174 70.1957 22.485 70.2791 22.4613C70.3628 22.4378 70.4491 22.4117 70.5407 22.3907C70.6322 22.3698 70.7211 22.3672 70.8022 22.3567C70.9824 22.3449 71.1634 22.3555 71.341 22.3881C71.5075 22.4265 71.671 22.4772 71.8301 22.5398C71.9765 22.6157 72.1099 22.6993 72.2328 22.7778C72.3394 22.8585 72.4407 22.9459 72.5362 23.0394L72.6618 23.1649C72.6984 23.2094 72.7271 23.2564 72.7559 23.2957C72.8135 23.3767 72.8605 23.4526 72.8972 23.5127C72.9704 23.6357 73.0044 23.7089 73.0044 23.7089C73.0044 23.7089 72.9233 23.6828 72.7951 23.6252C72.7324 23.5964 72.6539 23.5651 72.5702 23.5206C72.4796 23.4734 72.3851 23.4341 72.2878 23.4029C72.1805 23.3637 72.0759 23.3114 71.9608 23.2721C71.8458 23.2329 71.7254 23.2041 71.6051 23.1649C71.4848 23.1257 71.3567 23.1204 71.2311 23.1074C71.1058 23.0969 70.9798 23.0969 70.8545 23.1074C70.7917 23.1074 70.7263 23.1074 70.6636 23.1074C70.6008 23.1074 70.5407 23.1335 70.4779 23.1466C70.3532 23.1759 70.2301 23.2117 70.1091 23.2538C69.9914 23.3035 69.8711 23.3427 69.7639 23.4003C69.6566 23.4578 69.5494 23.5075 69.45 23.5572C69.2565 23.6644 69.0891 23.7638 68.9714 23.8371L68.7857 23.9861Z" fill="#1B262C"/>
<path d="M76.0827 26.4891C76.1495 26.3794 76.2097 26.2658 76.2632 26.1491C76.3143 26.0421 76.3462 25.927 76.3573 25.809C76.364 25.7603 76.3577 25.7107 76.339 25.6652C76.3327 25.6456 76.322 25.6277 76.3076 25.6129C76.2949 25.5966 76.2789 25.5832 76.2606 25.5737C76.2396 25.5737 76.2292 25.5475 76.203 25.5397L76.1324 25.5161C76.1069 25.5079 76.0806 25.5026 76.0539 25.5004H75.9729L75.8552 25.4821V25.3566C75.8342 25.1735 75.8316 24.9983 75.8264 24.8178C75.823 24.6433 75.8282 24.4687 75.8421 24.2947C75.8516 24.1118 75.8752 23.93 75.9127 23.7507C75.9467 23.5579 76.013 23.3722 76.1089 23.2015C76.1682 23.0903 76.2592 22.9992 76.3704 22.9399C76.4313 22.9128 76.4973 22.8988 76.5639 22.8988C76.6306 22.8988 76.6966 22.9128 76.7575 22.9399L76.8307 22.9792L76.8726 23.0053L76.8987 23.0262L77.006 23.1047C77.0846 23.1671 77.1541 23.2402 77.2126 23.3218C77.2731 23.4002 77.3192 23.4887 77.3486 23.5833C77.3763 23.6793 77.3834 23.78 77.3695 23.8789C77.3557 23.9703 77.3265 24.0587 77.2832 24.1404C77.2412 24.221 77.1864 24.2944 77.121 24.3575C77.1991 24.2068 77.2352 24.0379 77.2256 23.8684C77.2178 23.7917 77.1956 23.7172 77.1603 23.6487C77.1267 23.5812 77.0815 23.5202 77.0269 23.4682C76.9717 23.417 76.9122 23.3706 76.849 23.3296L76.734 23.2642L76.7052 23.2459H76.6895L76.645 23.2302C76.6258 23.2212 76.6048 23.2164 76.5836 23.2164C76.5623 23.2164 76.5413 23.2212 76.5221 23.2302C76.4783 23.2624 76.444 23.3058 76.4227 23.3558C76.3569 23.4969 76.3111 23.6466 76.2867 23.8004C76.2579 23.9626 76.237 24.1326 76.2187 24.3026C76.1899 24.64 76.1716 24.9878 76.1664 25.3304L76.0356 25.184L76.1429 25.2153C76.179 25.2236 76.2141 25.2359 76.2475 25.252L76.3547 25.3043C76.3898 25.3257 76.4223 25.3511 76.4515 25.3801C76.4847 25.4097 76.5122 25.4452 76.5326 25.4847C76.5565 25.5218 76.5717 25.5638 76.577 25.6077C76.5968 25.6849 76.5968 25.7658 76.577 25.843C76.5603 25.913 76.5329 25.9801 76.496 26.0418C76.463 26.1006 76.4254 26.1565 76.3835 26.2092C76.2945 26.3139 76.1936 26.4079 76.0827 26.4891Z" fill="#CC7E5E"/>
<path d="M64.3866 36.4094C64.3866 36.4094 65.2758 38.6194 68.7439 39.0248C73.7681 39.6002 75.9834 35.1226 75.9834 35.1226C75.9834 35.1226 82.2159 34.338 83.1836 38.3552C84.1513 42.3725 81.4156 58.0023 78.4602 62.6578C75.5047 67.3132 61.2847 65.5347 58.5829 60.623C55.8812 55.7112 57.746 49.1151 57.5368 42.5765C57.3694 36.5166 64.3866 36.4094 64.3866 36.4094Z" fill="#ED6663"/>
<path d="M81.8629 45.0873C72.2512 53.2605 57.8585 53.0539 57.1105 53.0303C57.0738 55.7974 57.3563 58.3789 58.5829 60.6151C61.2847 65.5321 75.5048 67.3053 78.4602 62.6499C80.7853 58.9883 82.9718 48.5422 83.3301 42.2914C82.2499 43.1806 82.8332 44.2634 81.8629 45.0873Z" fill="#CE5757"/>
<path d="M60.4399 55.4785L60.5445 60.6492L71.4011 63.7433C71.5188 58.8472 60.4399 55.4785 60.4399 55.4785Z" fill="white"/>
<path d="M59.6317 55.7688L59.7834 60.9421L71.5764 64.1199C71.6627 59.2238 59.6317 55.7688 59.6317 55.7688Z" fill="#E8E8E8"/>
<path d="M81.8262 54.1001L80.6309 59.9273L70.878 63.275C70.3549 58.4077 81.8262 54.1001 81.8262 54.1001Z" fill="white"/>
<path d="M82.4827 54.2622L81.0782 59.5532L71.1082 63.6647C70.6165 58.7921 82.4827 54.2622 82.4827 54.2622Z" fill="#E8E8E8"/>
<path d="M58.9543 56.4932L69.7927 61.0807C69.7927 61.0807 70.2033 62.255 71.2468 62.1269C72.9887 61.9412 72.7063 60.8191 72.7063 60.8191L83.2098 54.2283L80.5316 63.9864L73.4935 66.4475C73.4935 66.4475 72.9704 67.6376 70.9304 67.4519C70.2138 67.3865 69.6227 65.9925 69.6227 65.9925L59.7154 63.6543L58.9543 56.4932Z" fill="#1B262C"/>
<path d="M65.6472 62.8199C65.6472 62.8199 73.755 64.3342 65.8355 62.1844C65.8355 62.1844 73.1587 63.8007 65.9401 61.1957C65.3883 60.9996 64.8547 60.7956 64.3342 60.5916C68.4169 59.1792 63.8818 59.9037 63.003 60.0502C60.2409 58.9079 57.5736 57.5489 55.0259 55.9858L58.2874 49.2066L52.2065 43.8188C52.2065 43.8188 48.2834 52.6616 47.4046 55.0652C46.0969 58.6117 46.7246 60.0816 49.2119 60.9473C52.0888 61.9516 75.9781 66.9627 65.4563 63.5627C65.4615 63.5548 74.775 65.9924 65.6472 62.8199Z" fill="#FFA372"/>
<path d="M56.8829 52.1385L58.2926 49.2066L52.2117 43.8188C52.2117 43.8188 51.2231 46.0498 50.1194 48.5737C52.2143 50.0357 54.5264 51.1368 56.8829 52.1385Z" fill="#E89069"/>
<path d="M63.9786 36.4093C63.9786 36.4093 57.4871 37.4005 56.0747 38.5723C54.6624 39.744 50.2162 46.4395 50.2162 46.4395C50.2162 46.4395 53.6162 49.9049 57.7251 50.7392C58.8785 50.9746 63.9786 36.4093 63.9786 36.4093Z" fill="#ED6663"/>
<path d="M75.5989 62.5296C75.5989 62.5296 67.4073 63.3639 75.4655 61.8784C75.4655 61.8784 68.0298 62.8801 75.4419 60.8845C76.0069 60.7328 76.5578 60.5767 77.0949 60.4163C73.143 58.6692 77.278 59.5768 78.141 59.7965C83.1104 58.1775 85.2445 56.4723 85.2445 56.4723L81.9543 46.8161L87.2506 41.3237C87.2506 41.3237 92.131 53.3704 92.8057 55.8367C93.8022 59.48 91.8328 61.4233 89.2828 62.0771C86.3221 62.8382 64.9593 65.8224 75.727 63.2907C75.727 63.2776 66.2461 64.9332 75.5989 62.5296Z" fill="#FFA372"/>
<path d="M89.8451 47.8231C88.5164 44.423 87.2506 41.3107 87.2506 41.3107L81.9543 46.8031L83.1705 50.4934C85.504 49.9034 87.7486 49.0054 89.8451 47.8231Z" fill="#E89069"/>
<path d="M77.8953 35.2691C77.8953 35.2691 81.9361 35.1148 85.3362 37.6229C86.8165 38.7083 90.1982 45.77 90.1982 45.77C90.1982 45.77 86.1155 48.252 81.9492 48.7437C80.7775 48.8797 77.8953 35.2691 77.8953 35.2691Z" fill="#ED6663"/>
<path d="M119.99 74.0165C119.99 74.0165 137.932 57.8244 142.648 63.2933C147.364 68.7621 135.518 89.5652 135.518 89.5652L131.263 87.4206C131.263 87.4206 131.378 77.6624 135.288 73.2659C139.198 68.8694 127.764 88.3307 117.289 89.3586C104.769 90.5957 119.99 74.0165 119.99 74.0165Z" fill="#131B1E"/>
<path d="M125.017 83.9186L121.929 83.3013C121.824 77.3146 118.732 71.2704 118.732 71.2704L103.736 73.9434C103.736 73.9434 100.296 86.3849 102.451 91.1293L102.412 91.2156C102.7 91.8722 103.11 92.4678 103.621 92.9706C104.335 93.8023 105.196 94.4963 106.16 95.0184C107.396 95.7309 108.759 96.1964 110.172 96.3889C112.293 96.8717 114.463 97.1026 116.638 97.0768C128.765 97.0768 145.308 97.2808 148.064 92.9627C150.821 88.6447 144.084 86.9002 125.017 83.9186Z" fill="#1B262C"/>
<path d="M109.246 82.1819C113.912 80.9866 117.728 78.5674 120.163 74.7122C119.75 73.5388 119.269 72.3904 118.722 71.2729L103.725 73.9459C102.911 77.002 102.313 80.1116 101.936 83.2516C104.401 83.1262 106.849 82.7681 109.246 82.1819Z" fill="#131B1E"/>
<path d="M102.088 37.8321C102.088 37.8321 102.135 37.7327 102.237 37.5523C102.393 37.293 102.568 37.0456 102.76 36.8121C103.056 36.449 103.388 36.1168 103.751 35.8208C104.227 35.4301 104.755 35.1078 105.321 34.8636C105.992 34.5729 106.702 34.3817 107.429 34.2961L108.004 34.2568C108.209 34.2532 108.414 34.2611 108.619 34.2804C108.721 34.2804 108.828 34.2804 108.932 34.3065L109.241 34.3719C109.452 34.4071 109.659 34.4631 109.858 34.5393C110.704 34.8189 111.466 35.3084 112.071 35.9621C112.689 36.633 113.165 37.4222 113.47 38.282C113.774 39.1361 113.93 40.0354 113.933 40.9418C113.933 41.3799 113.898 41.8172 113.829 42.2496L113.776 42.5739L113.727 42.8799C113.689 43.0769 113.662 43.276 113.648 43.4762C113.616 43.8569 113.646 44.2402 113.737 44.6113C113.832 44.9633 113.99 45.2949 114.205 45.5895C114.651 46.1298 115.139 46.6336 115.665 47.0959C115.896 47.3197 116.114 47.5564 116.318 47.8047C116.5 48.0317 116.665 48.2722 116.81 48.524C117.042 48.9348 117.217 49.3745 117.333 49.8317C117.403 50.1231 117.45 50.4195 117.474 50.7183C117.49 50.9249 117.501 51.0348 117.501 51.0348L117.433 50.7392C117.379 50.4476 117.308 50.1594 117.221 49.8761C117.082 49.4404 116.886 49.0252 116.638 48.6417C116.302 48.1552 115.904 47.7155 115.453 47.3339C114.886 46.8841 114.361 46.3843 113.883 45.8405C113.629 45.5137 113.437 45.1432 113.316 44.7473C113.201 44.3331 113.156 43.9026 113.183 43.4736C113.195 43.2572 113.218 43.0415 113.253 42.8276L113.3 42.5137L113.342 42.2077C113.377 42.0028 113.398 41.7957 113.405 41.5879C113.405 41.3786 113.431 41.1694 113.426 40.9602C113.415 40.1101 113.263 39.2678 112.976 38.4677C112.698 37.6701 112.263 36.9363 111.697 36.3099C111.149 35.706 110.461 35.2461 109.694 34.9708C109.511 34.8989 109.322 34.8446 109.129 34.8087L108.846 34.7407C108.755 34.7224 108.66 34.7198 108.566 34.7093C108.381 34.6839 108.194 34.669 108.007 34.6648L107.431 34.6857C106.741 34.7481 106.062 34.902 105.412 35.1434C104.861 35.3566 104.339 35.6387 103.859 35.983C103.485 36.249 103.139 36.5532 102.828 36.8906C102.548 37.1767 102.3 37.4924 102.088 37.8321Z" fill="#246B84"/>
<path d="M113.266 42.7309C114.14 38.3056 111.407 34.032 107.055 34.5577C105.984 34.6629 104.954 35.0206 104.049 35.6012C103.144 36.1817 102.389 36.9687 101.847 37.8976C101.847 37.8976 102.37 52.8682 104.926 54.1132C108.524 55.8629 110.17 55.0391 111.726 53.8072L111.883 52.9519L111.956 53.768C112.612 53.6614 113.245 53.4475 113.831 53.135C113.146 52.4655 113.175 51.3042 113.175 51.3042C113.219 52.0575 113.823 52.5256 114.344 52.7924C114.541 52.6421 114.717 52.4662 114.867 52.2693C116.117 50.6347 117.221 51.1002 117.221 51.1002C116.8 46.3245 112.393 47.1588 113.266 42.7309Z" fill="#246B84"/>
<path d="M104.539 36.2524L104.146 35.9778L103.736 35.7372L103.309 35.528L102.87 35.3527C102.718 35.3083 102.569 35.256 102.417 35.2141C102.266 35.1723 102.111 35.1383 101.957 35.1095C101.803 35.0807 101.649 35.0546 101.492 35.0363C101.335 35.0179 101.18 35.0049 101.023 34.997C100.867 34.9892 100.71 34.9839 100.553 34.9839C100.396 34.9839 100.239 34.9839 100.084 34.9996C99.9302 35.0153 99.7706 35.0258 99.6163 35.0441L99.1534 35.1173L98.6957 35.2193L98.2458 35.3475L97.8038 35.5044L97.3749 35.6849L97.3984 35.6718C97.1369 35.8366 96.8989 36.004 96.6609 36.1949C96.4229 36.3858 96.1849 36.5532 95.9626 36.7494C95.7403 36.9455 95.5232 37.1469 95.3113 37.3535C95.0995 37.5601 94.9033 37.7851 94.7203 38.0152C94.6235 38.1277 94.5372 38.2454 94.4587 38.3683L94.3279 38.5462L94.2626 38.6351C94.2626 38.6351 94.2626 38.6534 94.2626 38.6351L94.2495 38.6586L94.2207 38.7083L93.9958 39.1032L93.8101 39.4956C93.7447 39.6237 93.6976 39.7571 93.6427 39.9009C93.5853 40.0367 93.5355 40.1755 93.4936 40.3168C93.401 40.5965 93.3242 40.8811 93.2635 41.1694L93.1798 41.6036L93.1144 42.043C93.083 42.3359 93.0516 42.6315 93.0385 42.9296C93.0255 43.2278 93.0176 43.5259 93.0176 43.8241C93.0176 44.1222 93.0307 44.423 93.0411 44.7212C93.0725 45.3192 93.1135 45.9208 93.1641 46.5258L93.1824 46.7507V46.8083V46.9992C93.1824 47.0751 93.1824 47.1457 93.1824 47.2294L93.1458 47.4778C93.0889 47.7934 93.0013 48.1026 92.8842 48.4011C92.5442 49.034 92.2199 49.6748 91.9453 50.3339C91.6609 50.9862 91.452 51.6689 91.3228 52.3687C91.2914 52.5416 91.2704 52.7163 91.26 52.8918C91.2484 53.0659 91.2484 53.2407 91.26 53.4148C91.268 53.5908 91.2907 53.7658 91.328 53.9379C91.3665 54.1096 91.4199 54.2777 91.4876 54.4401C91.5578 54.6009 91.6456 54.7535 91.7491 54.8952C91.8529 55.0394 91.9722 55.1719 92.1048 55.2901C92.2372 55.4105 92.3798 55.519 92.5311 55.6144C92.6833 55.7114 92.8414 55.7987 93.0045 55.876C92.8349 55.8132 92.6697 55.7389 92.5102 55.6537C92.1816 55.4879 91.8912 55.2554 91.6576 54.971C91.5418 54.8259 91.4402 54.67 91.3542 54.5055C91.2724 54.3374 91.2058 54.1624 91.1554 53.9824C91.1061 53.8034 91.072 53.6205 91.0534 53.4358C91.0325 53.2509 91.0247 53.0647 91.0299 52.8787C91.032 52.694 91.046 52.5097 91.0717 52.3268C91.1796 51.6005 91.3701 50.8889 91.6393 50.2057C91.9008 49.5231 92.2042 48.8614 92.5233 48.2102V48.2285C92.6204 47.9594 92.6922 47.6818 92.7378 47.3994L92.7691 47.2006C92.7691 47.1326 92.7691 47.0515 92.7691 46.9783V46.8266V46.7691L92.7482 46.5441C92.6907 45.94 92.6279 45.3358 92.5965 44.7133C92.5834 44.4099 92.5678 44.1039 92.5678 43.7953C92.5678 43.4867 92.5678 43.1807 92.5834 42.8747C92.5991 42.5687 92.6227 42.2574 92.6567 41.9514L92.7221 41.4911L92.8136 41.0334C92.8808 40.7294 92.9637 40.4291 93.0621 40.1337C93.1079 39.9847 93.1611 39.838 93.2216 39.6943C93.2844 39.5505 93.3315 39.404 93.4047 39.2628L93.6113 38.8365L93.8389 38.4442L93.9068 38.3265L93.9749 38.2349L94.1161 38.0466C94.2076 37.9211 94.3018 37.8008 94.4064 37.6831C94.6026 37.4424 94.8196 37.2201 95.0341 37.0004C95.2486 36.7807 95.4866 36.5741 95.7272 36.3832C95.8449 36.2812 95.9652 36.187 96.0907 36.0955C96.2163 36.004 96.334 35.9072 96.4647 35.834C96.7263 35.6561 96.9878 35.494 97.2494 35.3344H97.2651L97.7228 35.1592L98.1883 35.0127L98.6643 34.895L99.1429 34.8061C99.3025 34.7826 99.4646 34.7669 99.6268 34.7459C99.7889 34.725 99.9511 34.7276 100.113 34.7172C100.275 34.7067 100.438 34.7172 100.6 34.7172C100.762 34.7172 100.924 34.7381 101.084 34.7512C101.243 34.7642 101.405 34.7983 101.565 34.8192C101.724 34.8401 101.881 34.8872 102.041 34.9212C102.2 34.9552 102.349 35.0127 102.504 35.0572C102.658 35.1016 102.807 35.1696 102.959 35.2246C103.111 35.2795 103.249 35.3606 103.396 35.4286L103.817 35.6666L104.212 35.9281L104.539 36.2524Z" fill="#287699"/>
<path d="M98.646 34.7852C95.2852 35.7032 92.6044 38.9098 92.892 43.9026C93.1797 48.8954 93.3576 46.7796 91.8459 50.8649C90.3342 54.9502 93.4779 55.7348 93.4779 55.7348C93.5681 55.4486 93.7282 55.1895 93.9438 54.9808C94.1593 54.7721 94.4235 54.6204 94.7124 54.5395C94.4718 54.0818 94.3122 53.3783 94.6548 52.3792C94.6548 52.3792 94.5921 53.7157 95.0995 54.4454C95.3399 54.4078 95.5837 54.3964 95.8266 54.4114C96.5275 54.4454 97.5109 54.6729 98.544 54.8272C98.7924 54.2832 98.9624 53.4306 98.6669 52.1778C98.6669 52.1778 99.1168 53.6346 98.8814 54.8691C99.6466 54.9828 100.426 54.9589 101.183 54.7985L101.115 54.2178L101.348 54.754C102.245 54.4925 102.7 53.7497 103.356 52.6617C106.756 47.049 104.729 35.3999 104.729 35.3999C104.729 35.3999 102.697 33.6737 98.646 34.7852Z" fill="#287699"/>
<path d="M99.0985 48.7568C99.0985 48.7568 101.842 54.0347 100.668 55.3372C99.4934 56.6396 94.4221 52.0417 92.4344 58.9648C90.4466 65.8878 106.186 68.8171 112.5 63.8164C115.515 61.4154 116.099 56.1741 113.023 55.6929C109.947 55.2116 106.239 58.2298 105.896 52.4027C105.553 46.5755 99.3417 48.7044 99.3417 48.7044" fill="#FFBD9C"/>
<path d="M105.875 55.2692C106.152 55.2823 106.427 55.2849 106.702 55.2823C106.262 54.7383 105.969 53.836 105.886 52.3896C105.543 46.5651 99.3313 48.6914 99.3313 48.6914L99.0985 48.7568C99.0985 48.7568 100.804 52.0392 100.953 54.0661C102.509 54.7558 104.176 55.1632 105.875 55.2692Z" fill="#E5A98F"/>
<path d="M104.596 37.8217C104.596 37.8217 109.526 36.8775 111.088 41.8469C112.537 46.4578 111.872 52.3086 107.722 53.2553C101.599 54.6624 98.0785 48.4116 98.1204 45.4352C98.1622 42.4589 99.0985 38.1068 104.596 37.8217Z" fill="#FFBD9C"/>
<path d="M98.3165 45.3228C98.3165 45.3228 97.0375 43.968 96.3837 45.6079C95.7298 47.2477 98.0942 49.463 99.3313 48.6914C99.3313 48.6914 98.7663 46.518 98.3165 45.3228Z" fill="#FFBD9C"/>
<g opacity="0.6">
<path opacity="0.6" d="M107.185 45.9399L107.478 46.3296C107.572 46.4552 107.664 46.5912 107.758 46.701L108.334 47.4281L108.43 47.551L108.336 47.6321C108.156 47.789 107.967 47.9381 107.782 48.0872C107.596 48.2363 107.405 48.3828 107.206 48.5214C107.353 48.3278 107.507 48.1447 107.664 47.9643C107.821 47.7838 107.978 47.6034 108.14 47.4412V47.6452C108.003 47.5483 107.876 47.4379 107.761 47.3157C107.644 47.194 107.542 47.0598 107.455 46.9155C107.37 46.7699 107.3 46.6156 107.248 46.4552C107.195 46.289 107.173 46.1141 107.185 45.9399Z" fill="#CC7E5E"/>
</g>
<path d="M109.011 49.4812C109.011 49.4812 107.13 51.2806 105.195 50.0749L109.011 49.4812Z" fill="white"/>
<path d="M110.109 44.2687C110.134 44.3362 110.154 44.4052 110.17 44.4753C110.213 44.6629 110.231 44.8557 110.222 45.0481C110.215 45.3387 110.124 45.6211 109.96 45.8615C109.863 46.0036 109.734 46.1216 109.584 46.2067C109.431 46.2933 109.263 46.3485 109.089 46.3689C109.003 46.3821 108.915 46.3874 108.828 46.3846C108.74 46.3843 108.652 46.3747 108.566 46.3558C108.395 46.317 108.236 46.2371 108.103 46.123C107.984 46.0205 107.886 45.8951 107.816 45.7542C107.758 45.6336 107.714 45.5062 107.688 45.375C107.647 45.187 107.633 44.9942 107.646 44.8022C107.649 44.7301 107.657 44.6584 107.672 44.5878C107.672 44.5878 107.685 44.6662 107.716 44.797C107.756 44.9757 107.811 45.1507 107.881 45.3201C107.968 45.5402 108.112 45.7327 108.3 45.8772C108.4 45.9481 108.515 45.9938 108.637 46.0106C108.699 46.023 108.762 46.0291 108.825 46.0289C108.894 46.0294 108.962 46.0233 109.029 46.0106C109.159 45.9925 109.286 45.9536 109.403 45.8955C109.512 45.8368 109.61 45.7588 109.691 45.6653C109.836 45.475 109.939 45.2556 109.992 45.0219C110.034 44.8455 110.064 44.6664 110.081 44.4858C110.109 44.3471 110.109 44.2687 110.109 44.2687Z" fill="#1B262C"/>
<path d="M104.186 45.2024C104.219 45.2655 104.248 45.331 104.272 45.3985C104.339 45.5793 104.382 45.7685 104.397 45.9609C104.428 46.2492 104.376 46.5402 104.248 46.8004C104.169 46.9542 104.055 47.0876 103.916 47.1901C103.776 47.2945 103.617 47.3708 103.448 47.415C103.362 47.4376 103.275 47.4533 103.186 47.4621C103.099 47.4709 103.012 47.4709 102.925 47.4621C102.751 47.4453 102.585 47.387 102.438 47.2921C102.308 47.204 102.196 47.0912 102.109 46.96C102.034 46.8489 101.974 46.7284 101.931 46.6016C101.867 46.4202 101.829 46.2311 101.816 46.0393C101.811 45.9671 101.811 45.8945 101.816 45.8222C101.816 45.8222 101.839 45.8981 101.887 46.0236C101.949 46.1937 102.026 46.3582 102.117 46.5153C102.229 46.7247 102.398 46.8985 102.603 47.0175C102.771 47.0964 102.958 47.1246 103.142 47.0986C103.21 47.0914 103.278 47.0774 103.343 47.0567C103.47 47.0237 103.591 46.9688 103.699 46.8946C103.801 46.824 103.89 46.7353 103.961 46.633C104.081 46.4263 104.155 46.1962 104.178 45.9583C104.197 45.7776 104.203 45.5958 104.196 45.4142C104.193 45.2809 104.186 45.2024 104.186 45.2024Z" fill="#1B262C"/>
<path d="M110.706 42.8929L110.504 42.8197C110.379 42.7726 110.198 42.7151 109.981 42.6523C109.874 42.6262 109.764 42.5948 109.646 42.5712C109.529 42.5477 109.403 42.532 109.278 42.5085C109.15 42.4962 109.022 42.4919 108.893 42.4954C108.83 42.4954 108.765 42.4954 108.7 42.4954C108.634 42.4954 108.574 42.5189 108.511 42.5294C108.385 42.5514 108.262 42.5855 108.143 42.6314C108.025 42.6758 107.912 42.7412 107.797 42.7883C107.682 42.8354 107.588 42.9269 107.486 42.9897C107.384 43.0525 107.303 43.1388 107.225 43.2042C107.143 43.2629 107.067 43.3286 106.997 43.4003C106.932 43.4631 106.869 43.5154 106.819 43.5599C106.767 43.609 106.712 43.6553 106.654 43.6985C106.654 43.6985 106.673 43.6226 106.717 43.4945C106.741 43.4291 106.767 43.3506 106.806 43.2617C106.824 43.2128 106.844 43.1648 106.866 43.1179C106.892 43.0708 106.924 43.0237 106.958 42.974C107.024 42.8616 107.098 42.7541 107.18 42.6523C107.277 42.5503 107.382 42.4431 107.499 42.3385C107.632 42.2404 107.772 42.153 107.918 42.0769C108.074 42.0052 108.238 41.9534 108.407 41.9226C108.49 41.9095 108.577 41.8912 108.668 41.8834C108.76 41.8755 108.841 41.8834 108.93 41.8834C109.013 41.8838 109.095 41.8934 109.176 41.9121C109.254 41.9231 109.332 41.9397 109.408 41.9618C109.551 42.0039 109.691 42.0581 109.824 42.124C109.942 42.1799 110.054 42.2464 110.159 42.3228C110.377 42.4753 110.562 42.669 110.706 42.8929Z" fill="#1B262C"/>
<path d="M104.617 44.1222L104.416 44.049C104.29 44.0019 104.11 43.9444 103.893 43.8816C103.785 43.8554 103.675 43.8241 103.555 43.8005C103.435 43.777 103.312 43.7613 103.189 43.7377C103.061 43.7299 102.933 43.7299 102.805 43.7377C102.739 43.7377 102.676 43.7377 102.611 43.7377C102.546 43.7377 102.485 43.7613 102.423 43.7717C102.297 43.7937 102.173 43.8279 102.054 43.8737C101.934 43.9182 101.824 43.9836 101.709 44.0307C101.594 44.0777 101.499 44.1693 101.397 44.2321C101.295 44.2948 101.214 44.3811 101.136 44.4465C101.054 44.506 100.977 44.5716 100.906 44.6427C100.843 44.7055 100.78 44.7578 100.731 44.8022C100.628 44.8938 100.563 44.9408 100.563 44.9408C100.563 44.9408 100.581 44.8676 100.628 44.7368C100.649 44.6714 100.678 44.593 100.715 44.5041C100.736 44.4596 100.751 44.4099 100.778 44.3602C100.804 44.3105 100.835 44.2661 100.867 44.2164C100.934 44.104 101.009 43.9965 101.091 43.8947C101.188 43.7927 101.293 43.6854 101.411 43.5808C101.542 43.4834 101.681 43.396 101.826 43.3193C101.983 43.2483 102.147 43.1965 102.315 43.165C102.402 43.1519 102.488 43.1336 102.577 43.1257H102.839C102.921 43.1261 103.004 43.1358 103.084 43.1545C103.163 43.1655 103.241 43.1821 103.317 43.2042C103.459 43.2457 103.598 43.3 103.73 43.3664C103.849 43.4223 103.962 43.4888 104.068 43.5651C104.285 43.7136 104.472 43.9028 104.617 44.1222Z" fill="#1B262C"/>
<g opacity="0.6">
<path opacity="0.6" d="M98.3897 48.3854C98.2764 48.3455 98.1683 48.292 98.068 48.2259C98.0162 48.1905 97.9672 48.1512 97.9215 48.1082C97.8723 48.0632 97.83 48.0112 97.796 47.9539C97.7763 47.9225 97.7621 47.888 97.7541 47.8519C97.7409 47.8132 97.7356 47.7723 97.7385 47.7316C97.7411 47.6482 97.7714 47.5681 97.8248 47.504C97.8683 47.4451 97.9213 47.3938 97.9817 47.3523L98.1543 47.2503L98.0628 47.4256C97.9817 47.1353 97.8823 46.8397 97.7777 46.5572C97.7201 46.416 97.6626 46.28 97.5972 46.1492C97.5387 46.0301 97.4609 45.9214 97.3671 45.8275C97.3399 45.7938 97.3004 45.7721 97.2574 45.7672C97.2143 45.7623 97.171 45.7746 97.1369 45.8014L97.1003 45.8249L97.0794 45.8459L96.9904 45.9217C96.9426 45.9685 96.8989 46.0192 96.8597 46.0734C96.8198 46.126 96.7897 46.1854 96.7707 46.2486C96.7518 46.3131 96.7474 46.381 96.7577 46.4474C96.786 46.5951 96.8579 46.7308 96.9643 46.8371C96.8102 46.7664 96.6874 46.6417 96.6191 46.4866C96.5829 46.4045 96.5676 46.3146 96.5746 46.2251C96.5804 46.1341 96.6044 46.0451 96.6452 45.9635C96.6844 45.8817 96.7327 45.8045 96.7891 45.7334L96.8675 45.6445L96.8858 45.6209C96.8858 45.6209 96.8858 45.6209 96.9015 45.6052L96.9172 45.5922L96.9721 45.5425C97.0627 45.4721 97.1739 45.4336 97.2886 45.4326C97.4038 45.4378 97.5145 45.479 97.6051 45.5503C97.7459 45.6665 97.8608 45.8108 97.9425 45.974C98.0218 46.1191 98.0892 46.2704 98.1438 46.4265C98.1962 46.5808 98.2485 46.7325 98.2851 46.8894C98.3217 47.0463 98.3583 47.2006 98.3818 47.3628L98.4028 47.491L98.2903 47.538C98.2432 47.559 98.1935 47.5746 98.1491 47.5956C98.1106 47.6168 98.0747 47.6423 98.0418 47.6714C98.0288 47.6845 98.0105 47.6976 98.0052 47.7107C97.9946 47.7235 97.9874 47.7388 97.9843 47.7551C97.9788 47.773 97.9788 47.7921 97.9843 47.81C97.9838 47.8308 97.9883 47.8515 97.9974 47.8702C98.0338 47.9684 98.0908 48.0576 98.1648 48.1317C98.2337 48.2214 98.3089 48.3062 98.3897 48.3854Z" fill="#CC7E5E"/>
</g>
<g opacity="0.6">
<path opacity="0.6" d="M105.713 50.5902C105.713 50.5902 105.922 50.6373 106.223 50.6922C106.299 50.6922 106.377 50.721 106.464 50.7314C106.55 50.7419 106.636 50.7524 106.725 50.7602C106.814 50.7681 106.911 50.7602 107.005 50.7759C107.099 50.7916 107.196 50.7759 107.29 50.7759C107.383 50.7705 107.476 50.7582 107.567 50.7393L107.703 50.7131C107.748 50.7131 107.79 50.687 107.831 50.6739C107.914 50.6518 107.995 50.622 108.072 50.585C108.145 50.5559 108.216 50.5209 108.284 50.4804C108.344 50.4411 108.409 50.4124 108.462 50.3784C108.514 50.3444 108.556 50.3104 108.592 50.2842C108.668 50.2319 108.718 50.2031 108.718 50.2031L108.65 50.3339C108.626 50.3757 108.598 50.4254 108.561 50.483C108.517 50.5425 108.469 50.5992 108.417 50.653L108.328 50.7471L108.216 50.8282L108.096 50.9171C108.051 50.9433 108.001 50.9616 107.954 50.9851C107.858 51.0361 107.755 51.0748 107.648 51.1002C107.328 51.183 106.991 51.183 106.67 51.1002C106.574 51.0801 106.479 51.0513 106.388 51.0139C106.306 50.9842 106.227 50.9492 106.15 50.9093C105.988 50.8267 105.841 50.719 105.713 50.5902Z" fill="#CC7E5E"/>
</g>
<path d="M104.892 36.5611C104.892 36.5611 105.676 39.5662 103.584 41.8939C101.492 44.2216 99.5509 42.5556 99.1377 45.1841C98.7245 47.8126 99.8491 48.49 99.8491 48.49C99.8491 48.49 97.4952 47.8414 97.2991 44.4047C97.1029 40.9681 99.9511 34.2124 104.892 36.5611Z" fill="#287699"/>
<path d="M104.753 37.3405C104.806 37.5198 104.847 37.7024 104.876 37.8871C104.959 38.3759 104.989 38.8721 104.968 39.3674C104.952 39.7034 104.903 40.0371 104.824 40.3639C104.735 40.7297 104.597 41.0817 104.413 41.4101C104.213 41.7688 103.953 42.0908 103.644 42.3621C103.329 42.6403 102.977 42.8735 102.598 43.0552C101.837 43.4135 101.029 43.5782 100.438 43.9653C100.158 44.1557 99.9315 44.4152 99.7812 44.7186C99.7105 44.8602 99.651 45.0071 99.6033 45.158L99.5405 45.3933C99.5275 45.464 99.517 45.5372 99.5039 45.6052C99.4401 46.0776 99.5241 46.5582 99.7445 46.9809C99.8272 47.1468 99.9319 47.3008 100.056 47.4386C100.017 47.4084 99.9808 47.3761 99.9459 47.3418C99.8482 47.2446 99.7605 47.1377 99.6844 47.0228C99.3957 46.6003 99.2524 46.0954 99.2764 45.5843C99.2764 45.5032 99.2895 45.4195 99.2999 45.3227C99.3104 45.226 99.3287 45.1658 99.3418 45.0847C99.3818 44.9096 99.4388 44.7388 99.5118 44.5747C99.6632 44.208 99.913 43.8903 100.234 43.6567C100.569 43.4236 100.937 43.2396 101.324 43.1101C101.701 42.9688 102.078 42.8485 102.431 42.6707C102.781 42.5117 103.107 42.3039 103.398 42.0534C103.469 41.9959 103.537 41.9279 103.61 41.8573C103.683 41.7867 103.738 41.7239 103.801 41.6585C103.92 41.5188 104.027 41.3702 104.123 41.2139C104.459 40.6321 104.674 39.9878 104.753 39.3203C104.819 38.8395 104.84 38.3535 104.816 37.8688C104.779 37.5418 104.753 37.3405 104.753 37.3405Z" fill="#287699"/>
<path d="M97.524 55.0286C97.524 55.0286 100.299 63.6307 106.777 62.5349C112.843 61.507 112.531 55.4392 112.531 55.4392C112.531 55.4392 115.204 55.5438 116.334 59.038C117.464 62.5322 115.811 69.6279 119.522 72.7115C119.522 72.7115 112.633 80.1157 102.457 80.2177C102.457 80.2177 98.102 75.1491 96.5956 64.7867C96.5956 64.7867 92.7901 64.1695 90.3185 61.5985C90.3264 61.609 91.9715 53.6921 97.524 55.0286Z" fill="#D4EFF8"/>
<path opacity="0.1" d="M117.399 68.974C115.729 70.0454 113.815 70.6754 111.836 70.8048C109.748 70.8983 107.656 70.7606 105.598 70.3942C103.43 70.0516 101.243 69.5756 99.2345 68.6628C98.4394 68.3172 97.7006 67.8544 97.0428 67.2897C98.9259 76.1821 102.459 80.2282 102.459 80.2282C112.636 80.1157 119.525 72.7088 119.525 72.7088C118.393 71.7699 117.762 70.4491 117.399 68.974Z" fill="#1B262C"/>
<path d="M116.182 63.921L117.673 63.2541C117.673 63.2541 117.412 56.3651 112.534 55.4392L116.182 63.921Z" fill="#D4EFF8"/>
<path d="M115.923 65.1241C115.923 64.601 116.101 55.9701 122.402 54.8429L121.779 61.7241L115.923 65.1241Z" fill="white"/>
<path d="M107.287 68.3018L107.392 60.3849C107.392 60.3849 115.719 58.5358 116.023 62.5453C116.326 66.5547 107.287 68.3018 107.287 68.3018Z" fill="white"/>
<path d="M106.466 68.9191L106.568 61.0022C106.568 61.0022 115.722 59.0484 116.028 63.0579C116.334 67.0673 106.466 68.9191 106.466 68.9191Z" fill="#E8E8E8"/>
<path d="M115.923 65.1241C115.923 64.601 116.13 55.9701 123.43 54.8429L122.71 61.7241L115.923 65.1241Z" fill="#E8E8E8"/>
<path d="M125.075 55.8629L123.328 68.9191C118.905 67.07 116.337 73.1352 116.337 73.1352L115.479 73.3758C115.479 73.3758 112.019 70.2556 105.951 74.7803L106.474 62.1347C106.474 62.1347 109.456 60.0789 115.521 61.7214L116.549 61.6194C116.549 61.6194 119.112 55.447 125.075 55.8629Z" fill="#ED6663"/>
<path d="M125.075 55.8629L123.328 68.9191C118.905 67.07 116.337 73.1352 116.337 73.1352L115.479 73.3758L115.513 61.7214L116.541 61.6194C116.541 61.6194 119.112 55.447 125.075 55.8629Z" fill="#D35959"/>
<path d="M125.075 55.8629L123.328 68.9191C118.905 67.07 116.337 73.1351 116.337 73.1351L116.541 61.6273C116.541 61.6273 119.112 55.447 125.075 55.8629Z" fill="#B74F4F"/>
<path d="M123.432 59.501C122.355 54.0086 122.661 60.3248 122.661 60.3248C122.661 60.3248 121.353 52.5884 121.889 59.4487C121.889 59.4487 120.142 53.3338 121.272 60.0659C121.272 60.0659 119.525 53.8464 120.707 61.2481C119.991 60.3196 118.876 59.0563 120.469 62.3518C120.469 62.3518 119.525 65.4641 118.254 69.1519C116.196 75.1229 120.553 77.958 121.766 75.6669C123.03 74.3121 124.874 66.866 123.432 59.501Z" fill="#FFBD9C"/>
<path d="M91.0456 62.2262C91.0456 62.2262 87.1381 75.1804 88.6917 76.2083C90.2452 77.2361 101.507 76.8752 108.535 74.2545C113.779 72.3008 108.637 73.2267 108.637 73.2267C108.637 73.2267 115.115 70.9643 108.43 72.6094C108.43 72.6094 113.572 69.2094 107.711 72.1988C107.711 72.1988 113.988 69.1126 105.357 72.0942L105.768 71.7882C105.768 71.7882 108.749 69.0106 104.638 71.8902C104.638 71.8902 96.3104 71.7882 94.7673 71.171C94.7673 71.171 96.3104 67.7709 97.0297 64.8939C94.9166 64.2982 92.901 63.3997 91.0456 62.2262Z" fill="#FFBD9C"/>
<path d="M96.823 65.5949C96.8884 65.3621 96.9512 65.1293 97.0087 64.8992C94.9027 64.2999 92.8942 63.3997 91.0455 62.2262C91.0455 62.2262 90.8389 62.9114 90.5408 63.9785C92.4526 64.9253 94.6078 65.3856 96.823 65.5949Z" fill="#E5A98F"/>
</svg>
