<svg width="119" height="112" viewBox="0 0 119 112" fill="none" xmlns="http://www.w3.org/2000/svg">
<g clip-path="url(#clip0)">
<g opacity="0.7">
<path opacity="0.7" d="M32.2607 59.5103C25.5023 52.4693 22.128 44.2084 22.1381 34.7275C22.1174 28.5004 23.931 22.4051 27.3523 17.2021C30.775 11.8776 35.5148 7.52731 41.1124 4.57251C46.6269 1.56842 52.807 -0.00376627 59.0866 6.77509e-06C68.3369 6.77509e-06 76.1742 3.05336 82.5984 9.16006C89.0226 15.2668 92.2339 23.4717 92.2322 33.7749C92.2322 43.8875 88.9182 52.466 82.2901 59.5103C75.6619 66.5545 67.4052 70.0833 57.5198 70.0967C47.3955 70.0967 38.9758 66.5679 32.2607 59.5103Z" fill="#FFEDEB"/>
</g>
<path d="M38.1293 17.0316C38.1293 17.0316 36.6252 13.2713 42.3909 11.8524C42.3909 11.8524 42.4762 17.0316 38.1293 17.0316Z" fill="#EC7D84"/>
<path d="M35.9558 18.1847C35.9558 18.1847 38.5905 15.7931 35.6475 12.7473C35.6475 12.7473 33.3161 15.6177 35.9558 18.1847Z" fill="#EC7D84"/>
<path d="M37.7131 19.1348C37.7131 19.1348 40.4205 21.4386 43.0628 18.132C43.0628 18.122 39.9142 16.1842 37.7131 19.1348Z" fill="#EC7D84"/>
<path d="M32.8799 33.0203C32.8799 33.0203 33.9278 28.8438 28.9065 27.7559C28.9065 27.7559 28.4929 32.2156 32.8799 33.0203Z" fill="#EC7D84"/>
<path d="M35.289 32.7921C35.289 32.7921 39.5657 33.2935 39.9944 28.172C39.9944 28.172 35.5171 28.34 35.289 32.7921Z" fill="#EC7D84"/>
<path d="M32.4989 27.781C32.4989 27.781 33.815 24.3165 29.6435 22.8901C29.6435 22.8901 28.8414 26.6504 32.4989 27.781Z" fill="#EC7D84"/>
<path d="M34.5771 27.8261C34.5771 27.8261 38.1719 28.6835 39.0543 24.3616C39.0543 24.3641 35.2213 24.0658 34.5771 27.8261Z" fill="#EC7D84"/>
<path d="M33.637 22.9452C33.637 22.9452 35.6199 19.8267 31.8246 17.5806C31.8371 17.5806 30.2803 21.1052 33.637 22.9452Z" fill="#EC7D84"/>
<path d="M35.6625 23.4116C35.6625 23.4116 39.0142 24.9733 40.7464 20.9047C40.7464 20.9173 37.0513 19.8443 35.6625 23.4116Z" fill="#EC7D84"/>
<path d="M39.9693 14.61C39.9693 14.61 23.4241 31.3207 43.9803 49.706" stroke="#EA545C" stroke-width="0.290795" stroke-miterlimit="10"/>
<path d="M35.9884 15.946C35.9884 15.946 36.0711 18.3576 36.1514 20.125C36.1514 20.125 38.0791 18.6785 40.413 18.6785" stroke="#EA545C" stroke-width="0.290795" stroke-miterlimit="10"/>
<path d="M31.4059 30.7441C31.4059 30.7441 33.1105 33.118 34.384 34.8428C34.384 34.8428 35.3517 32.0852 37.6956 30.5184" stroke="#EA545C" stroke-width="0.290795" stroke-miterlimit="10"/>
<path d="M31.4736 25.6903C31.4736 25.6903 32.6869 27.8863 33.5969 29.4857C33.5969 29.4857 34.6999 27.2295 36.8558 26.134" stroke="#EA545C" stroke-width="0.290795" stroke-miterlimit="10"/>
<path d="M33.0529 20.6917C33.0529 20.6917 33.805 23.0857 34.369 24.8355C34.369 24.8355 35.9032 22.8526 38.2396 22.2083" stroke="#EA545C" stroke-width="0.290795" stroke-miterlimit="10"/>
<path d="M12.5844 75.0428C12.5844 75.0428 8.78403 73.6414 11.5817 68.4071C11.5892 68.4071 15.4924 71.8139 12.5844 75.0428Z" fill="#EC7D84"/>
<path d="M11.9828 77.4292C11.9828 77.4292 11.9828 73.8745 7.73865 74.0174C7.73865 74.0174 8.31021 77.6699 11.9828 77.4292Z" fill="#EC7D84"/>
<path d="M13.8654 76.7574C13.8654 76.7574 17.39 76.2911 16.6956 72.1072C16.6956 72.1072 13.1484 73.1475 13.8654 76.7574Z" fill="#EC7D84"/>
<path d="M20.9448 89.6478C20.9448 89.6478 18.5432 86.073 14.3743 89.0712C14.3743 89.0712 17.4101 92.3652 20.9448 89.6478Z" fill="#EC7D84"/>
<path d="M22.3887 87.7049C22.3887 87.7049 25.62 84.8596 22.1054 81.1144C22.1054 81.1144 19.2326 84.5538 22.3887 87.7049Z" fill="#EC7D84"/>
<path d="M16.796 86.4214C16.796 86.4214 15.1113 83.1299 11.2533 85.2658C11.2533 85.2658 13.5095 88.3818 16.796 86.4214Z" fill="#EC7D84"/>
<path d="M18.2249 84.9097C18.2249 84.9097 21.2682 82.8115 18.6485 79.2643C18.6485 79.2643 15.8534 81.9065 18.2249 84.9097Z" fill="#EC7D84"/>
<path d="M13.9682 82.3377C13.9682 82.3377 12.978 78.7755 8.77399 80.0941C8.77399 80.0941 10.3533 83.5987 13.9682 82.3377Z" fill="#EC7D84"/>
<path d="M15.6703 81.1444C15.6703 81.1444 19.0721 79.7029 17.2196 75.6995C17.2196 75.707 13.9506 77.725 15.6703 81.1444Z" fill="#EC7D84"/>
<path d="M12.0154 72.0546C12.0154 72.0546 13.3515 95.5338 40.769 92.5732" stroke="#EA545C" stroke-width="0.290795" stroke-miterlimit="10"/>
<path d="M10.3433 75.905C10.3433 75.905 12.1884 77.4593 13.5546 78.5824C13.5546 78.5824 13.7727 76.1808 15.332 74.451" stroke="#EA545C" stroke-width="0.290795" stroke-miterlimit="10"/>
<path d="M18.2675 89.2165C18.2675 89.2165 21.1704 89.5399 23.3138 89.7455C23.3138 89.7455 21.9149 87.1809 22.311 84.3883" stroke="#EA545C" stroke-width="0.290795" stroke-miterlimit="10"/>
<path d="M14.5573 85.782C14.5573 85.782 17.0015 86.351 18.8014 86.7371C18.8014 86.7371 17.8664 84.4107 18.4956 82.0693" stroke="#EA545C" stroke-width="0.290795" stroke-miterlimit="10"/>
<path d="M11.9025 81.2648C11.9025 81.2648 14.1813 82.3126 15.8634 83.0597C15.8634 83.0597 15.4171 80.5929 16.5001 78.427" stroke="#EA545C" stroke-width="0.290795" stroke-miterlimit="10"/>
<path d="M53.6467 80.6731C53.6467 80.6731 59.3498 59.9514 51.1674 49.2948C43.2433 38.9841 37.1015 49.0215 31.5388 37.6028C25.9761 26.1841 21.0576 12.7975 8.39798 20.6139C-5.02372 28.909 26.8083 41.15 22.2584 54.4564C17.7084 67.7628 32.3385 67.7728 53.6467 80.6731Z" fill="#568075"/>
<path opacity="0.5" d="M9.68149 19.8818C9.26285 20.1024 8.83668 20.3431 8.39798 20.6138C-5.02372 28.909 26.8083 41.15 22.2584 54.4564C17.746 67.655 32.1128 67.7728 53.1278 80.3672C32.1304 38.6858 11.2809 21.1804 9.68149 19.8818Z" fill="#7DB7A6"/>
<path d="M12.6321 23.186C12.8911 23.4367 13.1418 23.6874 13.3841 23.938C14.1061 24.6675 14.8156 25.4071 15.52 26.1541C16.6397 27.3457 17.7427 28.5532 18.829 29.7765C20.268 31.3943 21.6818 33.0346 23.0706 34.6975C24.7736 36.733 26.4398 38.7978 28.0693 40.8919C29.9695 43.3286 31.8212 45.8028 33.6245 48.3147C35.6199 51.0906 37.5544 53.9067 39.4279 56.7628C41.4768 59.8897 43.4505 63.065 45.349 66.2889C47.3712 69.7116 49.3015 73.1852 51.1399 76.7099C53.0718 80.4401 54.891 84.2279 56.5973 88.0734C57.0201 89.0344 57.4379 89.997 57.8507 90.9613C57.9109 91.1067 58.4524 90.9287 58.4048 90.8134C56.7452 86.8994 54.9645 83.043 53.0626 79.2443C51.2527 75.6244 49.3408 72.058 47.327 68.545C45.4401 65.2427 43.4706 61.9913 41.4183 58.7909C39.5265 55.8344 37.5694 52.9215 35.5472 50.052C33.7373 47.4799 31.8772 44.9447 29.967 42.4462C28.2957 40.2502 26.5786 38.0842 24.8154 35.9484C23.3531 34.1719 21.8648 32.4171 20.3507 30.684C19.1808 29.347 17.9917 28.0284 16.7834 26.7282C15.9796 25.8591 15.1632 25.0001 14.3342 24.1511C13.9882 23.7504 13.6137 23.375 13.2137 23.0281C13.1961 23.013 13.1836 22.9955 13.166 22.9804C13.0557 22.8751 12.5468 23.0807 12.6471 23.176L12.6321 23.186Z" fill="#7DB7A6"/>
<path d="M10.97 29.4255L14.5949 30.6062L20.3407 32.4788L21.6718 32.9125C21.8322 32.9651 22.123 32.8674 22.113 32.6618L21.6568 24.4794L21.5916 23.3363C21.5916 23.1182 21.025 23.241 21.0376 23.4842L21.4938 31.6716L21.559 32.8172L22.0002 32.5666L18.3753 31.3908L12.6271 29.5182L11.2984 29.0795C11.0879 29.0093 10.6466 29.3152 10.97 29.4204V29.4255Z" fill="#7DB7A6"/>
<path d="M25.9635 56.5697C27.6606 56.9858 29.3377 57.4972 30.9998 58.0387C34.2311 59.0915 37.465 60.2948 40.4281 61.987C41.872 62.8067 43.3185 63.7418 44.4064 65.0253C44.5594 65.2033 44.9579 65.0754 44.9379 64.8272C44.8501 63.8245 44.8326 62.7215 44.8351 61.6786C44.8311 59.2532 45.0071 56.8307 45.3615 54.4313C45.6026 52.7844 45.9604 51.1567 46.432 49.5605C46.5222 49.2546 45.9707 49.2622 45.9005 49.4978C44.5167 54.1154 44.1106 59.0514 44.3162 63.8571C44.3337 64.2306 44.3513 64.6091 44.3839 64.9776L44.9128 64.7796C43.9452 63.649 42.7018 62.7741 41.4333 62.0045C39.9374 61.1241 38.3819 60.3493 36.7781 59.6857C33.9514 58.5033 31.0537 57.4986 28.1018 56.6774C27.4977 56.507 26.891 56.339 26.2819 56.1761C26.2134 56.1548 26.1403 56.1534 26.0711 56.172C26.0018 56.1907 25.9393 56.2286 25.8908 56.2814C25.8709 56.3013 25.8567 56.3262 25.8495 56.3534C25.8423 56.3806 25.8423 56.4093 25.8497 56.4365C25.8571 56.4637 25.8715 56.4884 25.8914 56.5083C25.9114 56.5281 25.9363 56.5424 25.9635 56.5496V56.5697Z" fill="#7DB7A6"/>
<path d="M17.9014 43.7497C17.9014 43.7497 17.6056 39.7087 11.7997 40.9621C11.7997 40.9621 13.9957 45.6549 17.9014 43.7497Z" fill="#EC7D84"/>
<path d="M20.3607 43.8299C20.3607 43.8299 16.9463 42.8422 18.2549 38.8162C18.2549 38.8087 21.6091 40.3604 20.3607 43.8299Z" fill="#EC7D84"/>
<path d="M19.1975 45.4543C19.1975 45.4543 17.7762 48.7132 13.9457 46.8907C13.9457 46.8907 15.9261 43.7672 19.1975 45.4543Z" fill="#EC7D84"/>
<path d="M29.631 55.8152C29.631 55.8152 26.8584 52.5212 30.8844 49.3425C30.892 49.3425 33.2183 53.1705 29.631 55.8152Z" fill="#EC7D84"/>
<path d="M27.3649 56.6675C27.3649 56.6675 23.7374 58.9889 21.0977 54.5768C21.1103 54.5768 25.2065 52.7669 27.3649 56.6675Z" fill="#EC7D84"/>
<path d="M27.6757 50.9393C27.6757 50.9393 24.9783 48.4098 28.0968 45.2938C28.0968 45.2938 30.4658 48.3221 27.6757 50.9393Z" fill="#EC7D84"/>
<path d="M25.8206 51.8919C25.8206 51.8919 22.9653 54.2383 20.278 50.7412C20.2855 50.7437 23.5945 48.7859 25.8206 51.8919Z" fill="#EC7D84"/>
<path d="M24.5321 47.0938C24.5321 47.0938 21.381 45.1585 23.8151 41.476C23.8151 41.476 26.7406 43.9678 24.5321 47.0938Z" fill="#EC7D84"/>
<path d="M22.9152 48.3999C22.9152 48.3999 20.5888 51.2727 17.2547 48.3999C17.2547 48.3823 20.1025 45.8028 22.9152 48.3999Z" fill="#EC7D84"/>
<path d="M15.1865 42.3658C15.1865 42.3658 37.3847 50.1371 26.9687 75.6694" stroke="#EA545C" stroke-width="0.290795" stroke-miterlimit="10"/>
<path d="M19.3479 41.8344C19.3479 41.8344 20.3331 44.0354 21.0375 45.6598C21.0375 45.6598 18.6685 45.2061 16.5753 46.2264" stroke="#EA545C" stroke-width="0.290795" stroke-miterlimit="10"/>
<path d="M29.957 53.1252C29.957 53.1252 29.4556 56.0056 29.0771 58.1139C29.0771 58.1139 27.0014 56.0608 24.2037 55.6797" stroke="#EA545C" stroke-width="0.290795" stroke-miterlimit="10"/>
<path d="M27.6807 48.613C27.6807 48.613 27.5528 51.1199 27.43 52.9549C27.43 52.9549 25.4521 51.4132 23.028 51.3706" stroke="#EA545C" stroke-width="0.290795" stroke-miterlimit="10"/>
<path d="M24.0658 44.8125C24.0658 44.8125 24.4418 47.2918 24.6975 49.1143C24.6975 49.1143 22.4414 48.0037 20.0674 48.4474" stroke="#EA545C" stroke-width="0.290795" stroke-miterlimit="10"/>
<path d="M47.2618 85.584C47.2618 85.584 47.4397 68.9911 39.2398 62.6463C31.2956 56.507 28.696 65.2108 22.2885 57.7855C15.8809 50.3602 9.56367 41.3305 1.65955 49.6583C-6.72838 58.4924 19.4457 61.3628 18.6711 72.1974C17.8965 83.032 28.8289 80.1467 47.2618 85.584Z" fill="#568075"/>
<path opacity="0.5" d="M2.47177 48.8586C2.20271 49.1043 1.93197 49.3709 1.65955 49.6583C-6.72838 58.4925 19.4457 61.3628 18.6711 72.1975C17.9015 82.9393 28.6484 80.1968 46.818 85.4612C22.9327 58.4749 3.91572 49.5154 2.47177 48.8586Z" fill="#7DB7A6"/>
<path d="M5.29946 50.6936C6.23452 51.215 7.14451 51.7816 8.05701 52.3481C10.5639 53.9024 12.9905 55.5444 15.3871 57.244C18.9869 59.796 22.4898 62.4783 25.8958 65.291C30.1574 68.8006 34.252 72.4999 38.1794 76.3889C42.6475 80.8011 46.8593 85.4656 50.7939 90.3596C51.3337 91.0281 51.8668 91.7058 52.3932 92.3927C52.476 92.4954 52.857 92.3225 52.8219 92.2773C48.8953 87.2193 44.6722 82.3985 40.1748 77.8404C36.2224 73.8294 32.0827 70.0048 27.7559 66.3665C24.263 63.4234 20.6623 60.6124 16.9538 57.9334C14.4044 56.0934 11.8048 54.3185 9.14999 52.644C8.37538 52.1551 7.59825 51.6713 6.8111 51.2025C6.47075 50.9723 6.11569 50.7646 5.74819 50.5808L5.70307 50.5532C5.59527 50.4931 5.24181 50.6685 5.29946 50.7011V50.6936Z" fill="#7DB7A6"/>
<path d="M5.32707 55.7173L12.9279 56.1535L14.0033 56.2137C14.0986 56.2137 14.3392 56.1535 14.2916 56.0081L12.3413 49.9917L12.0655 49.1343C12.0053 48.9463 11.5792 49.0641 11.6393 49.2496L13.5897 55.2661L13.8654 56.1159L14.1537 55.9078L6.55293 55.4742L5.47749 55.4115C5.27694 55.4115 5.03628 55.6948 5.32707 55.7098V55.7173Z" fill="#7DB7A6"/>
<path d="M21.9149 73.0247C23.2536 73.0022 24.5973 73.0523 25.9259 73.13C28.5355 73.2804 31.1903 73.5487 33.7097 74.218C34.9506 74.5439 36.2165 74.9701 37.2794 75.7021C37.3872 75.7773 37.7206 75.7021 37.658 75.5216C36.7802 72.9851 36.1998 70.3554 35.9282 67.6851C35.7812 66.3921 35.7268 65.0903 35.7653 63.7895C35.7653 63.5664 35.3366 63.629 35.3316 63.8221C35.2113 67.5297 35.8781 71.285 36.9711 74.8221C37.0563 75.0929 37.1416 75.3661 37.2368 75.6369L37.6154 75.4564C36.6488 74.8299 35.5885 74.3619 34.4743 74.0701C33.1751 73.7033 31.8515 73.4294 30.5134 73.2504C28.1668 72.928 25.8025 72.7505 23.4341 72.7189C22.9327 72.7189 22.4464 72.7039 21.9525 72.7189C21.7018 72.7189 21.6241 73.0373 21.9149 73.0323V73.0247Z" fill="#7DB7A6"/>
<path d="M24.9056 72.24C24.9056 72.24 20.9949 71.1821 23.3263 65.7222C23.3263 65.7197 27.5152 68.768 24.9056 72.24Z" fill="#EC7D84"/>
<path d="M24.517 74.6717C24.517 74.6717 24.1961 71.1296 19.9871 71.6485C19.9871 71.6485 20.8796 75.2383 24.517 74.6717Z" fill="#EC7D84"/>
<path d="M26.322 73.837C26.322 73.837 29.7915 73.0598 28.7311 68.9536C28.7411 68.9536 25.2992 70.3048 26.322 73.837Z" fill="#EC7D84"/>
<path d="M30.1099 83.2C30.1099 83.2 28.1395 80.074 24.487 82.5432C24.487 82.5432 27.0089 85.4462 30.1099 83.2Z" fill="#EC7D84"/>
<path d="M31.3984 81.5706C31.3984 81.5706 34.2437 79.2091 31.3207 75.9076C31.3207 75.9076 28.7687 78.788 31.3984 81.5706Z" fill="#EC7D84"/>
<path d="M26.9287 79.3846C26.9287 79.3846 25.6276 75.9251 21.554 77.6097C21.559 77.6097 23.4416 80.9714 26.9287 79.3846Z" fill="#EC7D84"/>
<path d="M28.518 78.0459C28.518 78.0459 31.7769 76.3062 29.5809 72.4857C29.5809 72.4857 26.505 74.792 28.518 78.0459Z" fill="#EC7D84"/>
<path d="M24.0659 69.3146C24.0659 69.3146 27.4777 92.5832 54.5267 87.2035" stroke="#EA545C" stroke-width="0.290795" stroke-miterlimit="10"/>
<path d="M22.7497 73.2979C22.7497 73.2979 24.7251 74.6817 26.1866 75.6819C26.1866 75.6819 26.1866 73.2703 27.5904 71.4203" stroke="#EA545C" stroke-width="0.290795" stroke-miterlimit="10"/>
<path d="M27.8261 82.7639C27.8261 82.7639 30.3104 83.1148 32.1354 83.348C32.1354 83.348 30.9998 81.1144 31.4159 78.7253" stroke="#EA545C" stroke-width="0.290795" stroke-miterlimit="10"/>
<path d="M24.7778 78.4997C24.7778 78.4997 27.1417 79.3394 28.8815 79.9361C28.8815 79.9361 28.2172 77.5195 29.1071 75.2633" stroke="#EA545C" stroke-width="0.290795" stroke-miterlimit="10"/>
<path d="M77.8906 17.2823C77.8906 17.2823 79.3947 13.522 73.6289 12.1031C73.6289 12.1031 73.5462 17.2823 77.8906 17.2823Z" fill="#EC7D84"/>
<path d="M80.0664 18.4354C80.0664 18.4354 77.4292 16.0439 80.3747 12.998C80.3747 12.998 82.7061 15.8684 80.0664 18.4354Z" fill="#EC7D84"/>
<path d="M78.3092 19.3855C78.3092 19.3855 75.6018 21.6893 72.957 18.3828C72.9495 18.3727 76.1082 16.4349 78.3092 19.3855Z" fill="#EC7D84"/>
<path d="M83.1424 33.271C83.1424 33.271 82.0946 29.0946 87.1133 28.0066C87.1133 28.0066 87.5269 32.4663 83.1424 33.271Z" fill="#EC7D84"/>
<path d="M80.7207 33.0429C80.7207 33.0429 76.444 33.5442 76.0178 28.4227C76.0278 28.4227 80.5026 28.5907 80.7207 33.0429Z" fill="#EC7D84"/>
<path d="M83.5209 28.0317C83.5209 28.0317 82.2073 24.5673 86.3762 23.1409C86.3762 23.1409 87.1784 26.9012 83.5209 28.0317Z" fill="#EC7D84"/>
<path d="M81.4452 28.0768C81.4452 28.0768 77.8479 28.9367 76.9604 24.6148C76.9604 24.6148 80.801 24.3165 81.4452 28.0768Z" fill="#EC7D84"/>
<path d="M82.3853 23.196C82.3853 23.196 80.3999 20.0774 84.1977 17.8313C84.1977 17.8313 85.7344 21.3559 82.3853 23.196Z" fill="#EC7D84"/>
<path d="M80.3598 23.6622C80.3598 23.6622 77.0081 25.224 75.2759 21.1553C75.2759 21.1679 78.966 20.0949 80.3598 23.6622Z" fill="#EC7D84"/>
<path d="M76.053 14.8606C76.053 14.8606 92.5982 31.5713 72.042 49.9566" stroke="#EA545C" stroke-width="0.290795" stroke-miterlimit="10"/>
<path d="M80.0313 16.1968C80.0313 16.1968 79.9511 18.6084 79.8709 20.3757C79.8709 20.3757 77.9431 18.9293 75.6093 18.9293" stroke="#EA545C" stroke-width="0.290795" stroke-miterlimit="10"/>
<path d="M84.6139 30.9948C84.6139 30.9948 82.9093 33.3688 81.6383 35.0935C81.6383 35.0935 80.6706 32.3359 78.3242 30.7692" stroke="#EA545C" stroke-width="0.290795" stroke-miterlimit="10"/>
<path d="M84.5462 25.9409C84.5462 25.9409 83.3328 28.1369 82.4229 29.7363C82.4229 29.7363 81.3198 27.4801 79.1639 26.3846" stroke="#EA545C" stroke-width="0.290795" stroke-miterlimit="10"/>
<path d="M82.977 20.9423C82.977 20.9423 82.2249 23.3363 81.6584 25.0861C81.6584 25.0861 80.1267 23.1032 77.7903 22.4589" stroke="#EA545C" stroke-width="0.290795" stroke-miterlimit="10"/>
<path d="M105.443 75.0428C105.443 75.0428 109.241 73.6414 106.446 68.4071C106.436 68.4071 102.53 71.8139 105.443 75.0428Z" fill="#EC7D84"/>
<path d="M106.04 77.4292C106.04 77.4292 106.04 73.8745 110.284 74.0174C110.287 74.0174 109.718 77.6699 106.04 77.4292Z" fill="#EC7D84"/>
<path d="M104.16 76.7574C104.16 76.7574 100.638 76.2911 101.33 72.1072C101.33 72.1072 104.879 73.1475 104.16 76.7574Z" fill="#EC7D84"/>
<path d="M97.083 89.6478C97.083 89.6478 99.4821 86.073 103.653 89.0712C103.653 89.0712 100.615 92.3652 97.083 89.6478Z" fill="#EC7D84"/>
<path d="M95.6391 87.7049C95.6391 87.7049 92.4053 84.8596 95.9224 81.1144C95.9224 81.1144 98.7927 84.5538 95.6391 87.7049Z" fill="#EC7D84"/>
<path d="M101.229 86.4214C101.229 86.4214 102.914 83.1299 106.772 85.2658C106.772 85.2658 104.516 88.3818 101.229 86.4214Z" fill="#EC7D84"/>
<path d="M99.803 84.9097C99.803 84.9097 96.7597 82.8115 99.3768 79.2643C99.3768 79.2643 102.174 81.9065 99.803 84.9097Z" fill="#EC7D84"/>
<path d="M104.06 82.3377C104.06 82.3377 105.047 78.7755 109.256 80.0941C109.256 80.0941 107.674 83.5987 104.06 82.3377Z" fill="#EC7D84"/>
<path d="M102.357 81.1444C102.357 81.1444 98.9531 79.7029 100.806 75.6995C100.806 75.707 104.075 77.725 102.357 81.1444Z" fill="#EC7D84"/>
<path d="M106.012 72.0546C106.012 72.0546 104.676 95.5338 77.2562 92.5732" stroke="#EA545C" stroke-width="0.290795" stroke-miterlimit="10"/>
<path d="M107.682 75.905C107.682 75.905 105.837 77.4593 104.471 78.5824C104.471 78.5824 104.255 76.1808 102.693 74.451" stroke="#EA545C" stroke-width="0.290795" stroke-miterlimit="10"/>
<path d="M99.7578 89.2165C99.7578 89.2165 96.8549 89.5399 94.7216 89.7505C94.7216 89.7505 96.1204 87.1859 95.7243 84.3933" stroke="#EA545C" stroke-width="0.290795" stroke-miterlimit="10"/>
<path d="M103.468 85.782C103.468 85.782 101.026 86.351 99.2264 86.7371C99.2264 86.7371 100.161 84.4107 99.5348 82.0693" stroke="#EA545C" stroke-width="0.290795" stroke-miterlimit="10"/>
<path d="M106.123 81.2648C106.123 81.2648 103.844 82.3126 102.164 83.0597C102.164 83.0597 102.611 80.5929 101.525 78.427" stroke="#EA545C" stroke-width="0.290795" stroke-miterlimit="10"/>
<path d="M64.386 80.6731C64.386 80.6731 58.6804 59.9515 66.8653 49.2948C74.7845 38.9841 80.9037 49.0216 86.4865 37.6079C92.0693 26.1942 96.9752 12.79 109.627 20.6139C123.051 28.9091 91.2194 41.1501 95.7669 54.4564C100.314 67.7628 85.6818 67.7729 64.386 80.6731Z" fill="#568075"/>
<path opacity="0.5" d="M108.346 19.8818C108.765 20.1024 109.191 20.3431 109.627 20.6138C123.051 28.909 91.2194 41.15 95.7669 54.4564C100.279 67.655 85.9149 67.7728 64.8975 80.3672C85.8974 38.6858 106.754 21.1804 108.346 19.8818Z" fill="#7DB7A6"/>
<path d="M104.904 23.0104C104.654 23.2611 104.403 23.5118 104.14 23.7625C103.415 24.4978 102.699 25.2415 101.994 25.9936C100.871 27.1869 99.7654 28.396 98.6774 29.621C97.2318 31.2505 95.8112 32.9017 94.4157 34.5746C92.7128 36.6135 91.0415 38.6816 89.402 40.779C87.5152 43.2057 85.6768 45.6674 83.887 48.1642C81.8815 50.9385 79.9453 53.7562 78.0786 56.6174C76.028 59.7409 74.0542 62.9162 72.1574 66.1434C70.1318 69.5828 68.1999 73.0749 66.3615 76.6196C64.4279 80.3564 62.6079 84.1468 60.9016 87.9907C60.4788 88.9483 60.061 89.9109 59.6482 90.8785C59.5253 91.1643 60.0819 91.1568 60.1771 90.9362C61.8333 87.0238 63.614 83.1675 65.5192 79.3671C67.3208 75.7639 69.2227 72.2133 71.2248 68.7154C73.1133 65.4131 75.0837 62.16 77.136 58.9562C79.0245 56.0032 80.979 53.0927 82.9995 50.2249C84.8212 47.6378 86.693 45.0875 88.6149 42.5739C90.2861 40.383 92.0008 38.2212 93.759 36.0887C95.2129 34.3222 96.6928 32.5783 98.1986 30.8569C99.3685 29.5199 100.556 28.203 101.761 26.9061C102.563 26.0437 103.375 25.1906 104.197 24.3466C104.563 23.9706 104.97 23.6171 105.316 23.2235L105.363 23.1759C105.461 23.0831 105.401 22.9603 105.293 22.9252C105.224 22.9048 105.152 22.9039 105.083 22.9225C105.013 22.941 104.951 22.9785 104.902 23.0305L104.904 23.0104Z" fill="#7DB7A6"/>
<path d="M106.84 29.052L103.215 30.2327L97.4665 32.1053L96.1354 32.539L96.4713 32.7245L96.9301 24.5371L96.9928 23.394C97.0103 23.0907 96.4438 23.1609 96.4287 23.4291L95.9725 31.6165L95.9098 32.7596C95.9098 32.9326 96.1128 32.9878 96.2457 32.9451L99.8706 31.7644L105.616 29.8918L106.947 29.4581C107.283 29.3478 107.181 28.9392 106.84 29.052Z" fill="#7DB7A6"/>
<path d="M91.8537 56.1937C90.1139 56.6198 88.3942 57.1438 86.6921 57.6978C83.4332 58.7682 80.1592 59.9991 77.166 61.7088C75.6995 62.5485 74.2405 63.5187 73.1325 64.8122L73.6339 64.8749C73.7266 63.812 73.7417 62.7391 73.7391 61.6711C73.7435 59.2103 73.5642 56.7526 73.2027 54.3185C72.9581 52.6717 72.5979 51.044 72.1247 49.4477C72.0495 49.197 71.4955 49.3424 71.5707 49.5956C72.9445 54.1782 73.3406 59.0816 73.135 63.8496C73.12 64.2056 73.1049 64.5616 73.0723 64.915C73.0498 65.1858 73.4784 65.1005 73.5737 64.9777C74.5288 63.8596 75.7672 62.9948 77.0231 62.2502C78.5096 61.3842 80.0541 60.6219 81.6458 59.969C84.4192 58.8219 87.2597 57.8441 90.1515 57.041C90.7432 56.8755 91.3348 56.7101 91.9289 56.5647C92.2748 56.4794 92.1796 56.1009 91.8286 56.1861L91.8537 56.1937Z" fill="#7DB7A6"/>
<path d="M100.124 43.7497C100.124 43.7497 100.422 39.7087 106.225 40.9621C106.225 40.9621 104.034 45.6549 100.124 43.7497Z" fill="#EC7D84"/>
<path d="M97.6647 43.8299C97.6647 43.8299 101.079 42.8422 99.7729 38.8162C99.7729 38.8087 96.4187 40.3604 97.6647 43.8299Z" fill="#EC7D84"/>
<path d="M98.8278 45.4543C98.8278 45.4543 100.252 48.7132 104.08 46.8907C104.08 46.8907 102.099 43.7672 98.8278 45.4543Z" fill="#EC7D84"/>
<path d="M88.3968 55.8152C88.3968 55.8152 91.1693 52.5212 87.1433 49.3425C87.1358 49.3425 84.8069 53.1705 88.3968 55.8152Z" fill="#EC7D84"/>
<path d="M90.663 56.6675C90.663 56.6675 94.2879 58.9889 96.9176 54.5768C96.9176 54.5768 92.8189 52.7669 90.663 56.6675Z" fill="#EC7D84"/>
<path d="M90.3521 50.9393C90.3521 50.9393 93.0495 48.4098 89.9309 45.2938C89.9309 45.2938 87.5594 48.3221 90.3521 50.9393Z" fill="#EC7D84"/>
<path d="M92.1971 51.8919C92.1971 51.8919 95.055 54.2383 97.7423 50.7412C97.7423 50.7437 94.4308 48.7859 92.1971 51.8919Z" fill="#EC7D84"/>
<path d="M93.5058 47.0938C93.5058 47.0938 96.6569 45.1585 94.2303 41.476C94.2177 41.476 91.2847 43.9678 93.5058 47.0938Z" fill="#EC7D84"/>
<path d="M95.1101 48.3999C95.1101 48.3999 97.4365 51.2727 100.773 48.3999C100.776 48.3823 97.9228 45.8028 95.1101 48.3999Z" fill="#EC7D84"/>
<path d="M102.839 42.3658C102.839 42.3658 80.643 50.1371 91.0565 75.6694" stroke="#EA545C" stroke-width="0.290795" stroke-miterlimit="10"/>
<path d="M98.6774 41.8344C98.6774 41.8344 97.6922 44.0354 96.9902 45.6598C96.9902 45.6598 99.3567 45.2061 101.452 46.2264" stroke="#EA545C" stroke-width="0.290795" stroke-miterlimit="10"/>
<path d="M88.0708 53.1252C88.0708 53.1252 88.5722 56.0056 88.9482 58.1139C88.9482 58.1139 91.0264 56.0608 93.8215 55.6797" stroke="#EA545C" stroke-width="0.290795" stroke-miterlimit="10"/>
<path d="M90.347 48.613C90.347 48.613 90.4749 51.1199 90.5977 52.9549C90.5977 52.9549 92.5756 51.4132 94.9998 51.3706" stroke="#EA545C" stroke-width="0.290795" stroke-miterlimit="10"/>
<path d="M93.957 44.8125C93.957 44.8125 93.5785 47.2918 93.3228 49.1143C93.3228 49.1143 95.5789 48.0037 97.9529 48.4474" stroke="#EA545C" stroke-width="0.290795" stroke-miterlimit="10"/>
<path d="M70.7635 85.584C70.7635 85.584 70.5855 68.9911 78.7854 62.6463C86.7271 56.507 89.3268 65.2108 95.7343 57.7855C102.142 50.3602 108.452 41.3305 116.358 49.6583C124.744 58.4924 98.5595 61.3628 99.3467 72.1924C100.134 83.022 89.2039 80.1467 70.7635 85.584Z" fill="#568075"/>
<path opacity="0.5" d="M115.566 48.8586C115.837 49.1043 116.108 49.3709 116.381 49.6583C124.766 58.4925 98.5821 61.3628 99.3692 72.1925C100.136 82.9343 89.3894 80.1918 71.2197 85.4562C95.0925 58.4749 114.112 49.5154 115.566 48.8586Z" fill="#7DB7A6"/>
<path d="M112.402 50.5884C111.455 51.1174 110.527 51.6889 109.607 52.263C107.115 53.8198 104.676 55.4617 102.28 57.1614C98.6799 59.7134 95.1778 62.394 91.7735 65.2034C87.5001 68.723 83.3906 72.4315 79.4448 76.3288C74.9513 80.7679 70.7169 85.4618 66.7626 90.3873C66.2445 91.0357 65.7298 91.6892 65.2184 92.3476C65.1331 92.4604 65.5417 92.4053 65.6069 92.32C69.5302 87.2684 73.7491 82.4535 78.2415 77.9006C82.1973 73.8896 86.337 70.065 90.6604 66.4267C94.1483 63.492 97.7415 60.6885 101.44 58.0162C103.989 56.1762 106.586 54.4013 109.244 52.7192C110.362 52.0123 111.5 51.3129 112.641 50.6586C112.703 50.621 112.615 50.6586 112.641 50.6586C112.891 50.5207 112.498 50.5333 112.39 50.5934L112.402 50.5884Z" fill="#7DB7A6"/>
<path d="M112.713 55.4743L105.112 55.9029L104.037 55.9631L104.16 56.0258L106.11 50.0093L106.386 49.162C106.419 49.0592 106 49.1119 105.962 49.2322L104.012 55.2486L103.736 56.0985C103.716 56.1586 103.824 56.1611 103.857 56.1586L111.457 55.7249L112.535 55.6623C112.661 55.6623 112.997 55.4542 112.713 55.4718V55.4743Z" fill="#7DB7A6"/>
<path d="M96.1103 72.7113C94.7215 72.6887 93.3277 72.7414 91.9414 72.8241C89.2917 72.9795 86.6118 73.2628 84.0423 73.9547C82.7889 74.2931 81.5129 74.7368 80.4324 75.4814L80.7784 75.6042C81.2646 74.8385 81.7025 74.0431 82.0895 73.2227C82.9797 71.4298 83.653 69.5371 84.095 67.5848C84.3798 66.315 84.5095 65.0153 84.481 63.7142C84.481 63.4911 84.0423 63.5563 84.0473 63.7468C84.1677 67.5973 82.7362 71.4503 80.8536 74.7569C80.7032 75.0276 80.5478 75.2959 80.3773 75.5541C80.2494 75.7521 80.628 75.7371 80.7232 75.6769C81.6781 75.0649 82.7251 74.6103 83.8242 74.3307C85.1158 73.9734 86.431 73.7078 87.76 73.5361C90.0499 73.2299 92.3562 73.0624 94.6664 73.0347C95.1377 73.0347 95.6089 73.0196 96.0802 73.0347C96.3309 73.0347 96.4086 72.7263 96.1178 72.7213L96.1103 72.7113Z" fill="#7DB7A6"/>
<path d="M93.1222 72.24C93.1222 72.24 97.0303 71.1821 94.7015 65.7222C94.7015 65.7197 90.51 68.768 93.1222 72.24Z" fill="#EC7D84"/>
<path d="M93.5057 74.6717C93.5057 74.6717 93.8266 71.1296 98.0356 71.6485C98.0381 71.6485 97.1457 75.2383 93.5057 74.6717Z" fill="#EC7D84"/>
<path d="M91.6932 73.837C91.6932 73.837 88.2237 73.0598 89.2866 68.9536C89.2866 68.9536 92.7285 70.3048 91.6932 73.837Z" fill="#EC7D84"/>
<path d="M87.918 83.2C87.918 83.2 89.8884 80.074 93.5409 82.5432C93.5409 82.5432 91.0164 85.4462 87.918 83.2Z" fill="#EC7D84"/>
<path d="M86.6294 81.5706C86.6294 81.5706 83.7841 79.2091 86.7071 75.9076C86.7071 75.9076 89.2566 78.788 86.6294 81.5706Z" fill="#EC7D84"/>
<path d="M91.0967 79.3846C91.0967 79.3846 92.3977 75.9251 96.4739 77.6097C96.4739 77.6097 94.5862 80.9714 91.0967 79.3846Z" fill="#EC7D84"/>
<path d="M89.5073 78.0459C89.5073 78.0459 86.2484 76.3062 88.4469 72.4857C88.4469 72.4857 91.5228 74.792 89.5073 78.0459Z" fill="#EC7D84"/>
<path d="M93.9545 69.3146C93.9545 69.3146 90.5401 92.5832 63.4937 87.2035" stroke="#EA545C" stroke-width="0.290795" stroke-miterlimit="10"/>
<path d="M95.2755 73.2979C95.2755 73.2979 93.3026 74.6817 91.8411 75.6819C91.8411 75.6819 91.8411 73.2703 90.4373 71.4203" stroke="#EA545C" stroke-width="0.290795" stroke-miterlimit="10"/>
<path d="M90.2016 82.7639C90.2016 82.7639 87.7198 83.1148 85.8923 83.348C85.8923 83.348 87.0304 81.1144 86.6118 78.7253" stroke="#EA545C" stroke-width="0.290795" stroke-miterlimit="10"/>
<path d="M93.2551 78.4997C93.2551 78.4997 90.8936 79.3394 89.1513 79.9361C89.1513 79.9361 89.8156 77.5195 88.9282 75.2633" stroke="#EA545C" stroke-width="0.290795" stroke-miterlimit="10"/>
<path opacity="0.2" d="M59.4551 111.121C82.0791 111.121 100.42 107.695 100.42 103.468C100.42 99.241 82.0791 95.8145 59.4551 95.8145C36.831 95.8145 18.4905 99.241 18.4905 103.468C18.4905 107.695 36.831 111.121 59.4551 111.121Z" fill="#522546"/>
<path d="M52.3933 28.0116L50.0418 30.0171C57.8131 28.7912 61.2901 21.5966 61.2901 21.5966C60.125 24.4956 58.1903 27.0215 55.6948 28.9016C63.6967 26.8961 64.0326 18.809 64.0326 18.809C64.0326 18.809 64.4813 13.6774 58.6053 12.7925C52.7292 11.9076 47.7581 16.1893 47.3796 22.6595C47.001 29.1297 42.248 31.1352 37.8259 31.2455C33.4039 31.3558 23.9831 36.0737 26.8234 47.5851C30.348 61.8742 50.8315 62.4759 64.6543 55.9505C78.4771 49.4252 75.1831 16.1467 67.0609 15.0737C60.2924 14.1813 58.6604 21.4311 58.6604 21.4311" fill="#64233F"/>
<path d="M50.2399 18.102C50.2995 17.051 50.5106 16.0142 50.8666 15.0236C48.8837 16.7959 47.56 19.4607 47.3795 22.6594C47.3484 23.1641 47.2865 23.6664 47.194 24.1636C48.8486 22.9903 50.0594 21.0751 50.2399 18.102Z" fill="#661D40"/>
<path d="M65.6796 47.8158C53.3359 53.6467 35.0559 53.0927 31.9098 40.3604C31.2129 37.5377 31.3407 35.1712 31.9775 33.2234C28.2473 35.5848 24.9959 40.1799 26.8284 47.5952C30.353 61.8842 50.8366 62.4859 64.6594 55.9605C72.1799 52.4108 74.6341 40.9445 73.9999 31.0499C73.5035 38.2621 71.0268 45.2889 65.6796 47.8158Z" fill="#661D40"/>
<path d="M64.8824 57.6226L65.3412 57.3719C65.4941 57.2967 65.6671 57.1814 65.8777 57.0511C66.0882 56.9207 66.3164 56.7578 66.5746 56.5773C67.1837 56.1262 67.7524 55.6229 68.2742 55.0732C68.9433 54.3514 69.5442 53.5693 70.0691 52.7368C70.6865 51.7504 71.2183 50.713 71.6585 49.6358C72.15 48.4325 72.5587 47.1971 72.8818 45.9382C73.2305 44.5924 73.4992 43.2271 73.6865 41.8495C73.8825 40.4261 74.0064 38.9937 74.0575 37.5578C74.1817 34.731 74.0449 31.8988 73.6489 29.0971C73.4484 27.7585 73.2152 26.4674 72.9119 25.2641C72.6389 24.1315 72.288 23.0192 71.8615 21.935C71.5051 21.0175 71.0618 20.1361 70.5379 19.3028C70.1365 18.6597 69.6385 18.0822 69.0614 17.5907C68.6868 17.2755 68.2566 17.0332 67.7929 16.8762C67.6712 16.8338 67.5463 16.8012 67.4194 16.7784L67.289 16.7509L67.4194 16.7734C67.5484 16.7897 67.6758 16.8165 67.8004 16.8536C68.2776 16.9882 68.7238 17.2147 69.114 17.5205C69.7184 18 70.2451 18.57 70.6758 19.2101C71.2403 20.0332 71.7159 20.9138 72.0947 21.8373C72.5475 22.9251 72.9261 24.0424 73.2278 25.1814C73.5702 26.45 73.8388 27.7373 74.0325 29.037C74.4526 31.8624 74.6104 34.7207 74.5038 37.5753C74.4422 39.0244 74.3066 40.4694 74.0976 41.9046C73.8977 43.297 73.6164 44.6764 73.2553 46.0359C72.6333 48.4576 71.6288 50.7645 70.2797 52.8696C69.7306 53.703 69.099 54.479 68.3945 55.186C67.8482 55.7252 67.256 56.2159 66.6247 56.6525C66.359 56.8254 66.1233 56.9859 65.9027 57.1012C65.6821 57.2165 65.5067 57.3293 65.3512 57.3995L64.8824 57.6226Z" fill="#64233F"/>
<path d="M58.9111 13.517L58.3095 13.4443C57.7451 13.3723 57.1755 13.3505 56.6073 13.3791L56.0307 13.4317L55.7224 13.4618L55.4015 13.537L54.7247 13.6749L54.0202 13.9005C52.9476 14.2825 51.9518 14.853 51.0797 15.5851C50.0605 16.4553 49.2282 17.523 48.633 18.7237C48.4901 19.0496 48.3247 19.373 48.1968 19.7264C48.069 20.0799 47.9461 20.4208 47.8484 20.7818C47.7506 21.1428 47.6628 21.5113 47.5977 21.8873C47.5325 22.2634 47.4849 22.657 47.4272 23.0455C47.3695 23.4341 47.3269 23.8277 47.2367 24.2288C47.1891 24.4268 47.1389 24.6273 47.0888 24.8304L47.0136 25.1312C46.981 25.2315 46.9434 25.3268 46.9083 25.4245C46.8381 25.6201 46.7654 25.8156 46.6952 26.0136C46.6155 26.2077 46.526 26.3977 46.427 26.5827L46.2866 26.866L46.2164 27.0063L46.1287 27.1417L45.7827 27.6757C45.6591 27.85 45.5261 28.0174 45.3841 28.177C45.2544 28.3472 45.1102 28.5058 44.9529 28.6508C44.795 28.7987 44.6421 28.9517 44.4842 29.0946L43.9828 29.4856C43.276 29.984 42.5009 30.3774 41.6815 30.6538C40.8676 30.9218 40.0271 31.1008 39.1746 31.1878C38.9641 31.2179 38.751 31.2204 38.5379 31.2379C38.3248 31.2555 38.1142 31.263 37.9012 31.2605H37.2744C37.0703 31.2569 36.8662 31.2636 36.6628 31.2805C35.8587 31.343 35.0641 31.4952 34.2938 31.7343C33.5368 31.9654 32.8013 32.2615 32.0953 32.6192C30.7536 33.2932 29.539 34.1948 28.5055 35.284C28.0295 35.7895 27.6007 36.3374 27.2245 36.921C27.049 37.2092 26.8735 37.4875 26.7231 37.7808C26.5727 38.0741 26.4423 38.3599 26.317 38.6457C25.8769 39.6999 25.5858 40.8102 25.4521 41.9447C25.3549 42.8228 25.3306 43.7074 25.3794 44.5894C25.4321 45.3214 25.4897 45.9005 25.5574 46.2891L25.6501 46.8882L25.5348 46.2916C25.2505 44.8553 25.1661 43.3866 25.2841 41.9272C25.3778 40.7664 25.6431 39.6259 26.0713 38.5429C26.1898 38.2388 26.3237 37.941 26.4724 37.6505C26.6128 37.3496 26.7883 37.0588 26.9738 36.7605C27.3497 36.155 27.7793 35.5845 28.2573 35.0559C29.2942 33.9102 30.5332 32.9653 31.9123 32.2682C32.6357 31.8943 33.3907 31.5847 34.1684 31.3432C34.9684 31.0901 35.7941 30.9269 36.6302 30.8569C36.8483 30.8368 37.0563 30.8318 37.2619 30.8318H37.8861C38.0942 30.8318 38.2997 30.8318 38.5053 30.8042C38.7109 30.7767 38.9164 30.7842 39.122 30.7541C39.9433 30.6659 40.7526 30.4894 41.5361 30.2277C42.317 29.9709 43.0561 29.6009 43.7296 29.1297L44.2184 28.7637C44.3713 28.6283 44.5142 28.4854 44.6646 28.3475C44.8132 28.2098 44.9507 28.0606 45.0758 27.9013C45.2103 27.7502 45.3366 27.592 45.4543 27.4275L45.7877 26.9261L45.8704 26.8008L45.9381 26.6654L46.0735 26.3972C46.1661 26.221 46.2498 26.0403 46.3242 25.8557C46.3944 25.6677 46.4621 25.4797 46.5323 25.2942C46.5648 25.1989 46.605 25.1087 46.6325 25.0134L46.7052 24.7276C46.7554 24.5371 46.803 24.3466 46.8531 24.1586C46.9409 23.775 46.981 23.3714 47.0487 22.9828C47.1164 22.5943 47.169 22.2007 47.2292 21.8172C47.2893 21.4336 47.4122 21.0651 47.5049 20.679C47.5977 20.293 47.7556 19.9546 47.8809 19.5986C48.0063 19.2426 48.1968 18.9192 48.3497 18.5958C48.9864 17.3653 49.8676 16.2777 50.9393 15.3996C51.8447 14.6646 52.8794 14.1051 53.9902 13.7501L54.7121 13.542L55.399 13.4242L55.7249 13.3691L56.0383 13.349L56.6223 13.3139C57.1949 13.3015 57.7674 13.3434 58.332 13.4392L58.9111 13.517Z" fill="#64233F"/>
<path d="M59.6005 12.9955C59.3097 12.9479 59.0189 12.8852 58.7281 12.8476L58.2869 12.81C58.1406 12.7907 57.9932 12.7815 57.8457 12.7824C57.5523 12.772 57.2586 12.7778 56.9658 12.8L56.5246 12.8325C56.3792 12.8526 56.2363 12.8802 56.0909 12.9027C55.8009 12.9464 55.5137 13.0075 55.2311 13.0857L55.018 13.1384L54.8099 13.2086L54.3963 13.349C54.1205 13.4492 53.8548 13.5696 53.5866 13.6849C53.3183 13.8002 53.0626 13.9356 52.8144 14.096C52.5663 14.2564 52.3131 14.3943 52.0824 14.5773L51.7315 14.828C51.6137 14.9157 51.5084 15.016 51.3956 15.1088C51.2828 15.2015 51.175 15.2968 51.0672 15.3971L50.7588 15.7054C50.553 15.9116 50.3581 16.1283 50.1747 16.3547L50.0318 16.5201L49.904 16.6956L49.6358 17.0466C49.4653 17.2822 49.3199 17.5479 49.162 17.7786L49.1319 17.8237V17.8362C49.1319 17.8362 49.1319 17.8563 49.1319 17.8212L49.1193 17.8463L49.0767 17.949L48.989 18.1546L48.816 18.5607L48.4676 19.3855V19.3554C48.3798 19.7063 48.277 20.0473 48.2169 20.4058C48.1567 20.7642 48.0665 21.1127 48.0013 21.4737L47.7932 22.5516C47.7255 22.9126 47.6303 23.2736 47.5425 23.6321C47.4548 23.9906 47.3445 24.349 47.2191 24.7L47.0136 25.2214C46.9785 25.3092 46.9484 25.3969 46.9083 25.4721L46.7779 25.7228L46.5273 26.2242L46.4947 26.2868L46.4771 26.3194L46.4621 26.342L46.3793 26.4523L46.2114 26.6704C46.0989 26.8204 45.9775 26.9635 45.8479 27.0991L45.6549 27.3096C45.5897 27.3773 45.5195 27.44 45.4518 27.5027C45.1793 27.762 44.8886 28.0016 44.5819 28.2196L44.1006 28.5781L43.6118 28.8539C43.2816 29.0277 42.9418 29.1826 42.594 29.3176C42.421 29.3903 42.2455 29.448 42.0676 29.5056C41.8896 29.5633 41.7141 29.6235 41.5336 29.6686C41.1776 29.7739 40.8141 29.8491 40.4506 29.9193C40.0871 29.9895 39.7211 30.0446 39.3526 30.0797C39.1696 30.1048 38.9866 30.1148 38.8011 30.1298C38.6156 30.1449 38.4326 30.1574 38.2496 30.1599C37.8811 30.18 37.5126 30.18 37.1441 30.18L36.5901 30.1499C36.4046 30.1499 36.2191 30.1499 36.0336 30.1499C35.8481 30.1499 35.6625 30.1725 35.477 30.1925C35.2915 30.2126 35.106 30.2376 34.923 30.2677C34.74 30.2978 34.557 30.3354 34.374 30.3755C34.191 30.4156 34.0105 30.4633 33.8325 30.5159C33.4741 30.6187 33.1181 30.7365 32.7671 30.8719C32.5967 30.9446 32.4212 31.0123 32.2507 31.0875C32.0802 31.1627 31.9098 31.2454 31.7493 31.3382L31.248 31.6039L30.7641 31.8947L30.2954 32.208L29.8316 32.5389L29.3904 32.8949L28.9692 33.2709L29.3703 32.8723L29.794 32.4913L30.2377 32.1353L30.6965 31.8019L31.1753 31.4911L31.6766 31.2003L32.178 30.9345C32.3485 30.8518 32.524 30.7766 32.6969 30.6839C32.8699 30.5911 33.0479 30.541 33.2259 30.4708C33.4039 30.4006 33.5869 30.3479 33.7674 30.2853C33.9479 30.2226 34.1359 30.1825 34.3189 30.1298C34.5019 30.0772 34.6924 30.0471 34.8804 30.007C35.0684 29.9669 35.2564 29.9443 35.447 29.9143C35.6375 29.8842 35.828 29.8767 36.0185 29.8566C36.209 29.8365 36.4021 29.8416 36.5951 29.8365L37.1717 29.8516H37.1591C37.5226 29.8516 37.8836 29.834 38.2446 29.8065C38.4276 29.8065 38.6056 29.7814 38.7861 29.7613C38.9666 29.7413 39.1471 29.7287 39.3251 29.7012C39.6835 29.656 40.0395 29.5959 40.393 29.5307C40.7464 29.4655 41.0974 29.3778 41.4434 29.28C41.6163 29.2349 41.7868 29.1772 41.9573 29.1196C42.1277 29.0619 42.2957 29.0043 42.4586 28.9316C42.791 28.8004 43.1158 28.6506 43.4313 28.4828L43.8951 28.2146L44.3388 27.9163C44.626 27.7066 44.8983 27.4771 45.1535 27.2294C45.2187 27.1692 45.2864 27.1091 45.3465 27.0464L45.5195 26.8509C45.6424 26.7219 45.7571 26.5855 45.8629 26.4423L46.0284 26.2242L46.1111 26.1139V26.0988C46.1111 26.0988 46.1262 26.0763 46.1111 26.1139L46.1262 26.0712L46.1562 26.0111L46.4069 25.5373L46.5298 25.3016C46.5674 25.2189 46.5974 25.1362 46.6325 25.051L46.8306 24.5496C46.9559 24.2137 47.0487 23.8652 47.154 23.5218C47.2593 23.1783 47.3294 22.8224 47.4047 22.4639L47.6202 21.3909C47.6879 21.0325 47.7681 20.674 47.8484 20.313C47.9286 19.952 48.0339 19.596 48.1241 19.2376V19.2125L48.4751 18.4053L48.6506 17.9967L48.7383 17.7936L48.7834 17.6933V17.6683L48.796 17.6457V17.6332L48.826 17.5855C48.994 17.3349 49.1419 17.0842 49.3274 16.8335L49.6032 16.475L49.741 16.297L49.8915 16.1291C50.0861 15.9002 50.2928 15.6817 50.5106 15.4748L50.8365 15.1614C50.9493 15.0636 51.0672 14.9709 51.1825 14.8731C51.2978 14.7754 51.4106 14.6801 51.5334 14.5924L51.902 14.3417C52.1526 14.1612 52.4033 14.0233 52.6665 13.8679C52.9298 13.7124 53.203 13.5971 53.4687 13.4618C53.7345 13.3264 54.0228 13.2336 54.306 13.1384L54.7372 13.0105L54.9528 12.9479L55.1709 12.9027C55.4615 12.8331 55.7562 12.7821 56.0533 12.7498L56.497 12.6972L56.9432 12.6821C57.2408 12.6704 57.5388 12.6763 57.8357 12.6997C58.1323 12.7196 58.4276 12.7548 58.7206 12.805C59.0264 12.8551 59.3122 12.9328 59.6005 12.9955Z" fill="#64233F"/>
<path d="M75.2683 45.5896C71.6735 39.4328 67.0985 46.259 64.5164 45.1459C61.9344 44.0329 63.1201 36.7806 63.1201 36.7806L59.786 35.4419L59.6707 37.7432L58.693 35.4419L54.499 36.7806C54.499 36.7806 55.6823 44.0304 53.1027 45.1459C50.5232 46.2615 45.7376 39.6785 42.3508 45.5896C38.4577 52.3832 31.822 71.132 36.5424 71.8013C41.2628 72.4707 46.1261 57.1889 46.1261 57.1889L58.8083 54.9001L71.5055 57.1989C71.5055 57.1989 76.1307 72.4907 80.8611 71.8113C85.5916 71.132 79.2166 52.3506 75.2683 45.5896Z" fill="#FCD5CC"/>
<path opacity="0.7" d="M62.9372 43.2032C62.6614 40.8116 63.1202 38.0039 63.1202 38.0039L59.786 36.6653L59.6707 38.9666L58.6931 36.6653L54.4991 38.0039C54.6309 38.8878 54.7146 39.7783 54.7498 40.6712C56.8455 42.1152 60.5256 43.0653 62.9372 43.2032Z" fill="#FFA5A3"/>
<path opacity="0.7" d="M67.3316 28.9141C67.3316 28.9141 68.3895 25.595 70.0716 27.41C71.7537 29.225 68.9185 33.998 67.1386 33.4265C65.3587 32.8549 67.3316 28.9141 67.3316 28.9141Z" fill="#FFA5A3"/>
<path d="M69.0965 26.3947C69.0965 26.3947 69.2644 31.08 67.3693 32.6969L67.091 25.8933L69.0965 26.3947Z" fill="#64233F"/>
<path opacity="0.7" d="M50.7463 28.9141C50.7463 28.9141 49.6884 25.595 48.0038 27.41C46.3192 29.225 49.1595 33.998 50.9368 33.4265C52.7142 32.8549 50.7463 28.9141 50.7463 28.9141Z" fill="#FFA5A3"/>
<path d="M48.979 26.3947C48.979 26.3947 48.811 31.08 50.7087 32.6969L50.9869 25.8933L48.979 26.3947Z" fill="#64233F"/>
<path d="M59.3022 16.7107C59.3022 16.7107 52.5337 16.3396 50.6009 24.5922C48.6681 32.8448 53.7244 41.7667 59.5253 41.3205C65.3262 40.8742 68.0762 34.4065 68.001 28.0868C67.9258 21.767 67.1837 16.9338 59.3022 16.7107Z" fill="#FCD5CC"/>
<path d="M52.4785 28.0116L50.8616 29.3503C53.1051 29.0009 55.2306 28.1133 57.0563 26.7635C58.882 25.4136 60.3536 23.6416 61.3453 21.5991C59.4501 26.3947 54.6545 28.6182 54.6545 28.6182C64.4262 26.3947 64.0777 18.8014 64.0777 18.8014C64.0777 18.8014 64.5239 13.6799 58.6604 12.7849C52.7969 11.89 47.8408 16.1868 47.4498 22.6569C47.0587 29.1271 42.7118 32.0802 38.3047 32.183" fill="#64233F"/>
<path d="M54.3762 29.2951L55.2636 29.0445C55.5544 28.9492 55.8477 28.8564 56.136 28.7562C56.4243 28.6559 56.7126 28.5456 56.9909 28.4202C57.2691 28.2949 57.5549 28.1696 57.8231 28.0367L58.2343 27.8311L58.6304 27.6055C58.8986 27.4601 59.1468 27.2796 59.405 27.1041C59.6632 26.9287 59.9063 26.7507 60.1295 26.5501C60.3526 26.3496 60.5882 26.1515 60.8138 25.946C61.0394 25.7404 61.24 25.5148 61.4355 25.2792C61.5358 25.1663 61.6311 25.0485 61.7238 24.9257C61.8166 24.8029 61.9093 24.675 61.9946 24.5622C62.3442 24.0652 62.6448 23.5355 62.892 22.9804C63.0148 22.7021 63.1251 22.4213 63.2204 22.1331C63.3157 21.8448 63.4009 21.554 63.4711 21.2607C63.5413 20.9674 63.5939 20.6665 63.634 20.3657C63.6738 20.0674 63.6939 19.7667 63.6942 19.4658V19.4507C63.7042 19.2695 63.7042 19.0879 63.6942 18.9067C63.6942 18.7237 63.6641 18.5407 63.6391 18.3602C63.614 18.1797 63.5714 17.9992 63.5388 17.8188C63.5062 17.6383 63.441 17.4628 63.3834 17.2898C63.3257 17.1168 63.2605 16.9439 63.1853 16.7884L62.9346 16.2871L62.6338 15.8233C62.526 15.6779 62.3982 15.5425 62.2828 15.3996C62.1637 15.2702 62.0346 15.1504 61.8968 15.0412L61.6912 14.8557C61.621 14.7955 61.5408 14.7504 61.4656 14.6952C61.3127 14.5924 61.1648 14.4821 61.0069 14.3844L60.5055 14.1337C60.4228 14.0936 60.3425 14.0459 60.2548 14.0108L60.0041 13.9156L59.4777 13.7276C59.3022 13.6699 59.1167 13.6398 58.9362 13.5947L58.3897 13.4694L58.9412 13.5746C59.1217 13.6123 59.3097 13.6373 59.4902 13.6875L60.0242 13.8579L60.2924 13.9432C60.3801 13.9757 60.4629 14.0209 60.5431 14.0585L61.0445 14.2966C61.2074 14.3894 61.3603 14.4997 61.5208 14.6025C61.5985 14.6551 61.6812 14.7002 61.7539 14.7604L61.967 14.9459C62.115 15.0642 62.2533 15.1941 62.3806 15.3345C62.5009 15.4774 62.6313 15.6127 62.7491 15.7631L63.0675 16.2344C63.1602 16.3999 63.2455 16.5678 63.3332 16.7358C63.421 16.9038 63.4761 17.0868 63.5488 17.2622C63.6215 17.4377 63.6591 17.6232 63.7117 17.8062C63.7644 17.9892 63.7945 18.1747 63.8195 18.3627C63.8446 18.5508 63.8722 18.7388 63.8822 18.9268C63.8935 19.118 63.8935 19.3097 63.8822 19.5009C63.8854 19.8134 63.867 20.1259 63.8271 20.4359C63.7895 20.7443 63.7318 21.0501 63.6666 21.3534C63.6014 21.6568 63.5137 21.9551 63.4159 22.2484C63.3186 22.5437 63.2048 22.8332 63.075 23.1157C62.8247 23.6716 62.5217 24.2021 62.17 24.7001C62.0848 24.8279 61.987 24.9508 61.8918 25.0711C61.7965 25.1914 61.7013 25.3218 61.596 25.4296C61.3954 25.6803 61.1748 25.8833 60.9567 26.1039C60.7386 26.3245 60.503 26.5251 60.2548 26.7106C60.0066 26.8961 59.7534 27.0791 59.5027 27.2596C59.2521 27.4401 58.9838 27.5955 58.7081 27.7359L58.302 27.959L57.8858 28.157C57.6101 28.2974 57.3218 28.4077 57.036 28.5205C56.7502 28.6333 56.4544 28.7261 56.1661 28.8289C55.8778 28.9316 55.5745 28.9993 55.2787 29.0795L54.3762 29.2951Z" fill="#64233F"/>
<path d="M63.7443 17.2497C63.7443 17.2497 62.4057 25.8382 68.5399 27.8462C74.9951 29.9569 69.0413 16.8586 63.7443 17.2497Z" fill="#64233F"/>
<path d="M57.59 31.6866C57.5645 31.7635 57.5326 31.8382 57.4948 31.9098C57.4544 31.9973 57.4066 32.0811 57.3519 32.1604C57.284 32.2626 57.2068 32.3583 57.1212 32.4462C57.0205 32.556 56.9088 32.6551 56.7878 32.742C56.6523 32.8444 56.5039 32.9287 56.3466 32.9927C56.1774 33.0622 56.0008 33.1118 55.8202 33.1406C55.7299 33.1406 55.6347 33.1406 55.5419 33.1532H55.399L55.2611 33.1381C55.0768 33.1205 54.8951 33.0818 54.7197 33.0228L54.469 32.9376C54.3862 32.905 54.3136 32.8599 54.2358 32.8222C54.0882 32.7515 53.9473 32.6676 53.8147 32.5716C53.6893 32.4838 53.564 32.3961 53.4712 32.3209C53.3744 32.2457 53.2846 32.1618 53.203 32.0702C53.1253 31.995 53.0626 31.9273 53.01 31.8696C52.9047 31.7568 52.8495 31.6917 52.8495 31.6917L53.0626 31.8045C53.1303 31.8421 53.2105 31.8847 53.3008 31.9398C53.391 31.995 53.4888 32.0577 53.6066 32.1103C53.7244 32.1629 53.8573 32.2281 53.9751 32.2958C54.1098 32.3617 54.2478 32.4202 54.3888 32.4713C54.4606 32.5038 54.5343 32.5322 54.6094 32.5565C54.6846 32.5741 54.7623 32.5966 54.8375 32.6192C54.9909 32.6658 55.1489 32.6952 55.3088 32.7069L55.4266 32.7245H55.7776C55.9283 32.7053 56.0774 32.6751 56.2238 32.6342C56.3621 32.5918 56.497 32.539 56.6274 32.4763C56.7432 32.4133 56.8553 32.3438 56.9633 32.2682C57.1311 32.1505 57.288 32.018 57.4321 31.8722C57.5349 31.7543 57.59 31.6866 57.59 31.6866Z" fill="#3A1B33"/>
<path d="M57.8808 28.5455L57.6301 28.4152C57.4697 28.335 57.2416 28.2221 56.9708 28.0968C56.6703 27.9607 56.3623 27.8419 56.0483 27.7408C55.7099 27.6318 55.3582 27.5694 55.0029 27.5553C54.8294 27.5489 54.6556 27.5589 54.484 27.5854C54.3175 27.6152 54.1539 27.6596 53.9952 27.7183C53.9169 27.7444 53.8406 27.7762 53.7671 27.8135C53.6922 27.8442 53.6201 27.8811 53.5515 27.9238C53.4165 28.0001 53.286 28.0837 53.1604 28.1745C53.0476 28.2648 52.9323 28.3375 52.8395 28.4252C52.7468 28.5129 52.659 28.5681 52.5888 28.6283C52.456 28.7486 52.3682 28.8138 52.3682 28.8138C52.3682 28.8138 52.3983 28.7135 52.4685 28.5405C52.5101 28.437 52.5586 28.3365 52.6139 28.2397C52.6867 28.1099 52.7706 27.9866 52.8646 27.8712C52.9717 27.7285 53.0926 27.5967 53.2256 27.4776C53.297 27.4093 53.3742 27.3473 53.4562 27.2921C53.5402 27.2292 53.6291 27.1731 53.7219 27.1241C54.1229 26.9068 54.5747 26.8004 55.0305 26.8158C55.2575 26.8226 55.4829 26.8555 55.7023 26.9136C55.9086 26.9689 56.1092 27.0436 56.3015 27.1367C56.6347 27.2959 56.9429 27.5028 57.2165 27.7509C57.4077 27.9212 57.5816 28.1101 57.7354 28.3149C57.789 28.3884 57.8375 28.4655 57.8808 28.5455Z" fill="#3A1B33"/>
<path d="M60.8013 31.6867C60.8013 31.6867 60.8564 31.7543 60.9642 31.8621C61.1073 32.008 61.2634 32.1406 61.4305 32.2582C61.5393 32.3338 61.6523 32.4033 61.7689 32.4663C61.8991 32.5294 62.0341 32.5822 62.1725 32.6242C62.318 32.6651 62.4663 32.6953 62.6162 32.7145H62.9697L63.0875 32.6969C63.2466 32.6852 63.4038 32.6557 63.5563 32.6092C63.634 32.5866 63.7092 32.5641 63.7869 32.5465C63.8612 32.5222 63.934 32.4938 64.005 32.4613C64.1466 32.4098 64.2855 32.3512 64.4212 32.2858C64.549 32.2181 64.6719 32.1579 64.7872 32.1003C64.9025 32.0426 65.0028 31.98 65.093 31.9298C65.1833 31.8797 65.266 31.8321 65.3312 31.7945L65.5467 31.6816L65.3863 31.8596C65.3337 31.9173 65.2685 31.985 65.1933 32.0602C65.1117 32.1518 65.0219 32.2357 64.925 32.3109C64.8198 32.3936 64.7044 32.4813 64.5791 32.5615C64.4472 32.6587 64.3062 32.7426 64.1579 32.8122C64.0827 32.8498 64.0075 32.895 63.9248 32.9275L63.6741 33.0128C63.4986 33.0718 63.317 33.1105 63.1326 33.1281C63.085 33.1281 63.0399 33.1281 62.9923 33.1431H62.8519C62.7566 33.1431 62.6639 33.1431 62.5711 33.1306C62.3913 33.1018 62.2155 33.0522 62.0472 32.9827C61.8893 32.9181 61.7403 32.8339 61.6035 32.732C61.4832 32.6451 61.3723 32.546 61.2726 32.4362C61.1863 32.3483 61.1083 32.2526 61.0394 32.1504C60.9866 32.0699 60.9389 31.9862 60.8965 31.8997C60.8582 31.8318 60.8263 31.7605 60.8013 31.6867Z" fill="#3A1B33"/>
<path d="M60.508 28.5456C60.5562 28.4587 60.6097 28.375 60.6684 28.2949C60.8215 28.0895 60.9954 27.9005 61.1874 27.7308C61.4604 27.4833 61.7677 27.2764 62.0999 27.1167C62.293 27.0236 62.4944 26.9489 62.7015 26.8935C62.9209 26.8353 63.1464 26.8025 63.3733 26.7958C63.8292 26.7804 64.2809 26.8868 64.6819 27.1041C64.7744 27.1536 64.8632 27.2098 64.9476 27.2721C65.0287 27.3285 65.1058 27.3905 65.1783 27.4576C65.3104 27.5766 65.4305 27.7085 65.5367 27.8512C65.6306 27.9667 65.7145 28.0899 65.7874 28.2197C65.8427 28.3165 65.8913 28.417 65.9328 28.5205C66.0005 28.6935 66.0306 28.7937 66.0306 28.7937C66.0306 28.7937 65.9454 28.7286 65.81 28.6082C65.7473 28.5481 65.6571 28.4829 65.5593 28.4052C65.4615 28.3275 65.3537 28.2498 65.2409 28.1545C65.115 28.0643 64.9844 27.9806 64.8499 27.9038C64.7809 27.8616 64.7088 27.8247 64.6343 27.7935C64.5603 27.7571 64.4841 27.7253 64.4062 27.6982C64.2495 27.6438 64.0885 27.6027 63.9248 27.5754C63.7532 27.5491 63.5795 27.539 63.4059 27.5453C63.0499 27.5596 62.6974 27.622 62.3581 27.7308C62.0442 27.8323 61.7362 27.9511 61.4355 28.0868C61.1673 28.2122 60.9342 28.3375 60.7762 28.4052C60.6183 28.4729 60.508 28.5456 60.508 28.5456Z" fill="#3A1B33"/>
<path d="M58.3922 31.7218C58.3841 31.9827 58.3505 32.2421 58.2919 32.4964C58.2644 32.6218 58.2318 32.7471 58.1942 32.8724C58.1566 32.9978 58.1165 33.1231 58.0663 33.2435C57.972 33.4935 57.85 33.7323 57.7028 33.9554C57.6681 34.0137 57.6287 34.069 57.585 34.1209C57.5417 34.1758 57.4957 34.2285 57.4471 34.2788C57.397 34.3289 57.3469 34.3816 57.2942 34.4292C57.2416 34.4768 57.1714 34.5144 57.1112 34.5545V34.2186C57.3418 34.3816 57.57 34.552 57.7906 34.72C58.0142 34.8975 58.2276 35.0875 58.4298 35.2891C58.1612 35.1903 57.8984 35.0765 57.6427 34.9481C57.392 34.8203 57.1413 34.6974 56.8906 34.5445L56.66 34.4091L56.8931 34.2086C56.9332 34.1735 56.9733 34.1384 57.0159 34.1058L57.1313 33.9855C57.1699 33.9426 57.2059 33.8974 57.2391 33.8501C57.2767 33.8075 57.3067 33.7549 57.3418 33.7072C57.412 33.612 57.4722 33.5042 57.5349 33.4014C57.5975 33.2986 57.6577 33.1883 57.7103 33.078C57.8257 32.8574 57.936 32.6318 58.0463 32.4037C58.1566 32.1755 58.2744 31.9549 58.3922 31.7218Z" fill="#EC7D84"/>
<path d="M56.0182 36.9059C56.0182 36.9059 56.0985 36.9485 56.2414 37.0112C56.3843 37.0738 56.5848 37.1616 56.828 37.2619C56.9483 37.307 57.0786 37.3521 57.2215 37.3947C57.3644 37.4373 57.5148 37.4699 57.6678 37.515C57.8207 37.5602 57.9836 37.5777 58.1466 37.6003C58.3126 37.6247 58.4802 37.6364 58.6479 37.6354C58.7332 37.6354 58.8159 37.6354 58.8986 37.6354L59.1493 37.6153C59.3103 37.6017 59.4703 37.5774 59.6281 37.5426C59.7768 37.5143 59.9234 37.4758 60.0668 37.4273C60.1999 37.39 60.3299 37.3423 60.4554 37.2844C60.5663 37.2441 60.6751 37.198 60.7813 37.1465C60.874 37.0939 60.9568 37.0538 61.032 37.0187C61.1698 36.9485 61.2551 36.9109 61.2551 36.9109C61.2551 36.9109 61.1949 36.9761 61.0821 37.0864L60.8765 37.2844C60.7827 37.3656 60.682 37.4385 60.5757 37.5025C60.4571 37.5918 60.3284 37.6667 60.1922 37.7256C60.0444 37.8027 59.889 37.864 59.7284 37.9086C59.558 37.9649 59.3825 38.0043 59.2045 38.0264L58.9287 38.0565C58.836 38.0565 58.7407 38.0565 58.6479 38.0565C58.463 38.052 58.2786 38.0335 58.0964 38.0014C57.9217 37.9689 57.7492 37.9253 57.58 37.871C57.4231 37.8197 57.2698 37.7577 57.1213 37.6855C56.9874 37.6236 56.8577 37.5532 56.7327 37.4749C56.546 37.3615 56.3706 37.2306 56.2088 37.0839C56.141 37.0292 56.0774 36.9698 56.0182 36.9059Z" fill="#EC7D84"/>
<path d="M94.7591 84.2755C94.175 79.1189 78.4646 78.2967 74.3308 78.1061C73.2032 76.4725 71.9776 74.9087 70.6607 73.4233C63.2028 75.9302 56.2789 74.9676 52.4133 74.0074C51.3855 73.7166 50.3201 73.3857 49.2246 73.0047L48.8135 72.8668C47.4182 74.5232 46.1248 76.2629 44.9404 78.0761C41.6489 78.2014 23.7775 79.1164 23.1658 84.4986C22.8876 86.9328 31.3031 90.0764 39.0092 92.9893C38.9671 93.6574 38.9729 94.3276 39.0267 94.9948C39.7311 103.576 55.4065 103.152 59.7609 102.869C64.1178 103.152 79.7907 103.576 80.4976 94.9948C80.5565 94.2381 80.5565 93.4779 80.4976 92.7211C87.8803 89.8909 95.0349 86.6295 94.7591 84.2755Z" fill="#64233F"/>
<g opacity="0.5">
<path opacity="0.5" d="M94.7591 84.2755C94.175 79.1189 78.4646 78.2967 74.3308 78.1061C73.2032 76.4725 71.9776 74.9087 70.6607 73.4233C63.2028 75.9302 56.2789 74.9676 52.4133 74.0074C51.3855 73.7166 50.3201 73.3857 49.2246 73.0047L48.8135 72.8668C47.4182 74.5232 46.1248 76.2629 44.9404 78.0761C41.6489 78.2014 23.7775 79.1164 23.1658 84.4986C22.8876 86.9328 31.3031 90.0764 39.0092 92.9893C38.9671 93.6574 38.9729 94.3276 39.0267 94.9948C39.7311 103.576 55.4065 103.152 59.7609 102.869C64.1178 103.152 79.7907 103.576 80.4976 94.9948C80.5565 94.2381 80.5565 93.4779 80.4976 92.7211C87.8803 89.8909 95.0349 86.6295 94.7591 84.2755Z" fill="#522546"/>
</g>
<path opacity="0.3" d="M84.5788 91.0691C84.0112 91.1487 83.4396 91.1973 82.8666 91.2145C69.7131 91.583 66.7626 85.9275 66.7626 85.9275C57.1764 89.6151 51.7691 85.3133 51.7691 85.3133C44.419 89.6 32.0928 86.8525 25.1964 84.7769C25.4295 87.1684 31.614 90.2017 39.0142 92.9993C38.9721 93.6674 38.978 94.3376 39.0317 95.0048C39.7362 103.586 55.4115 103.162 59.7659 102.879C64.1229 103.162 79.7957 103.586 80.5027 95.0048C80.5616 94.2481 80.5616 93.4879 80.5027 92.7311C81.924 92.1796 83.2928 91.6256 84.5788 91.0691Z" fill="#311D3F"/>
<path d="M45.9908 79.1691C45.9908 79.1691 46.2214 79.2969 46.6075 79.5551C46.9935 79.8133 47.535 80.1919 48.1467 80.7008C48.4525 80.9514 48.7809 81.2322 49.1143 81.5431C49.4477 81.8539 49.7962 82.1873 50.1371 82.5458C50.4781 82.9043 50.8265 83.2979 51.1549 83.6964C51.4833 84.095 51.8092 84.5287 52.115 84.9649C52.4209 85.4011 52.7016 85.8549 52.9573 86.3136C53.0225 86.4289 53.0852 86.5442 53.1504 86.657C53.2155 86.7699 53.2657 86.8902 53.3258 87.003C53.4437 87.2311 53.5464 87.4668 53.6492 87.6949C53.8414 88.1347 54.0088 88.585 54.1506 89.0436C54.2283 89.2592 54.2835 89.4773 54.3386 89.6853C54.3938 89.8934 54.4414 90.0964 54.479 90.292C54.5558 90.6471 54.6135 91.0061 54.652 91.3674C54.682 91.6908 54.6996 91.9716 54.7121 92.2022C54.7121 92.666 54.7121 92.9292 54.7121 92.9292C54.7121 92.9292 54.6745 92.666 54.6194 92.2097C54.5818 91.9841 54.5341 91.7084 54.474 91.3975C54.4138 91.0867 54.3236 90.7357 54.2083 90.3597C54.1556 90.1717 54.098 89.9761 54.0253 89.7781C53.9526 89.58 53.8949 89.372 53.8072 89.1639C53.6492 88.7478 53.4612 88.3141 53.2506 87.8754C53.0401 87.4367 52.7994 86.993 52.5412 86.5518C52.283 86.1106 51.9997 85.6719 51.7064 85.2432C51.4131 84.8145 51.1023 84.3959 50.7814 83.9898C50.4605 83.5836 50.1421 83.1976 49.8137 82.8316C49.4853 82.4656 49.167 82.1171 48.8536 81.7937C48.5403 81.4704 48.2394 81.172 47.9536 80.9013C47.3846 80.3573 46.8983 79.9161 46.5448 79.6203C46.1913 79.3245 45.9908 79.1691 45.9908 79.1691Z" fill="#3A1B33"/>
<path d="M73.2779 79.1691C73.2779 79.1691 73.0698 79.332 72.7188 79.6303C72.3679 79.9286 71.879 80.3673 71.31 80.9113C71.0242 81.1821 70.7234 81.4829 70.41 81.8038C70.0967 82.1247 69.7758 82.4756 69.4499 82.8416C69.124 83.2076 68.8031 83.5937 68.4823 83.9998C68.1614 84.4059 67.853 84.8195 67.5572 85.2532C67.2614 85.6869 66.9756 86.1156 66.7225 86.5618C66.4693 87.008 66.2211 87.4467 66.013 87.8854C65.8049 88.3241 65.6144 88.7578 65.4565 89.1739C65.3687 89.382 65.3086 89.5901 65.2384 89.7881C65.1682 89.9862 65.108 90.1817 65.0554 90.3697C64.9426 90.7457 64.8674 91.0967 64.7897 91.4075C64.712 91.7184 64.6819 91.9941 64.6443 92.2198C64.5891 92.676 64.5515 92.9392 64.5515 92.9392C64.5515 92.9392 64.5515 92.676 64.5515 92.2122C64.564 91.9816 64.5841 91.7109 64.6117 91.3775C64.6501 91.0161 64.7079 90.6572 64.7846 90.302C64.8223 90.1065 64.8674 89.9034 64.925 89.6954C64.9827 89.4873 65.0353 89.2692 65.113 89.0536C65.2549 88.595 65.4222 88.1448 65.6144 87.7049C65.7172 87.4768 65.82 87.2411 65.9403 87.013C65.998 86.9002 66.0556 86.7824 66.1133 86.6671C66.1709 86.5518 66.2411 86.439 66.3063 86.3236C66.557 85.8649 66.8503 85.4162 67.1486 84.9749C67.4469 84.5337 67.7753 84.1126 68.1087 83.7065C68.4422 83.3004 68.7856 82.9168 69.1265 82.5558C69.4675 82.1948 69.8159 81.8589 70.1493 81.5531C70.4827 81.2473 70.8111 80.9615 71.117 80.7108C71.7311 80.2094 72.2776 79.8284 72.6562 79.5652C73.0347 79.3019 73.2779 79.1691 73.2779 79.1691Z" fill="#3A1B33"/>
<path d="M71.5432 100.67C62.0372 103.784 47.3345 104.812 47.3345 104.812C47.3345 104.812 38.7936 106.521 37.3773 105.94C37.0915 106.165 36.5826 106.534 36.3469 106.511C36.0085 106.481 36.0386 106.145 35.9233 106.022C35.808 105.9 36.4247 105.521 36.753 105.3L36.7305 105.27L35.6325 105.754C35.6325 105.754 35.1035 105.478 35.1863 105.323C35.2489 105.205 35.9559 104.822 36.3068 104.646C36.3019 104.636 36.296 104.626 36.2893 104.616L34.8554 105.092C34.6841 104.959 34.546 104.787 34.4518 104.591C34.359 104.358 35.4545 103.942 35.823 103.804C35.4194 103.929 34.181 104.305 34.0682 104.107C33.9554 103.909 33.8175 103.483 34.0331 103.25C34.1409 103.127 34.8704 102.999 35.3793 102.919C34.7327 102.958 34.0843 102.878 33.4666 102.683C33.1708 101.811 33.815 100.916 34.0381 100.848C34.2111 100.798 34.9907 100.921 35.3542 100.984H35.4119L35.6024 100.949L35.7353 100.926L35.9007 100.898L36.0712 100.868L36.2191 100.843L37.0238 100.71H37.1165L37.4224 100.66H37.4976C37.8561 100.603 38.2371 100.545 38.6357 100.487L39.0343 100.43H39.0844C39.6384 100.354 40.2175 100.277 40.8142 100.207H40.9069L41.318 100.159H41.3356C49.9792 101.101 60.7737 95.1452 62.6012 95.6115C66.5721 96.6518 62.5561 96.5415 74.0651 94.7316" fill="#FCD5CC"/>
<path opacity="0.7" d="M62.6137 95.5463C60.7862 95.0675 49.9917 101.036 41.3481 100.094H41.3305L40.9194 100.141H40.8266C40.23 100.212 39.6509 100.289 39.0969 100.364H39.0468L38.6482 100.422C38.2496 100.48 37.8686 100.537 37.5101 100.595H37.4349L37.129 100.645H37.0363L36.2316 100.778L36.0837 100.803L35.9132 100.833L35.7478 100.861L35.6349 100.881C36.2115 101.174 36.8031 101.44 37.4048 101.691C38.8061 102.275 40.1623 102.944 41.5361 103.571C42.9249 104.185 44.3631 104.682 45.8353 105.055C46.7428 104.889 47.3395 104.769 47.3395 104.769C47.3395 104.769 62.0422 103.746 71.5482 100.628L74.0826 94.6238C62.5686 96.4763 66.5846 96.5867 62.6137 95.5463Z" fill="#FFA5A3"/>
<path d="M93.6912 82.1372C93.6912 82.1372 96.737 84.0223 96.8824 87.7926C97.0278 91.563 88.6098 104.757 49.0315 105.341C49.0315 105.341 46.8556 102.149 47.8709 99.1061C47.8709 99.1061 57.2966 95.3458 64.2557 92.4353C71.2147 89.5249 86.4413 77.7878 93.6912 82.1372Z" fill="#64233F"/>
<path opacity="0.5" d="M86.7723 97.0153C79.3395 96.4437 71.9267 95.07 65.1281 92.0342C64.8273 92.1771 64.534 92.3099 64.2557 92.4252C57.2967 95.3332 47.8809 99.1035 47.8809 99.1035C46.8657 102.147 49.0416 105.338 49.0416 105.338C69.8661 105.032 82.0594 101.237 88.9232 97.1582C88.2029 97.1214 87.4859 97.0738 86.7723 97.0153Z" fill="#522546"/>
<path d="M52.2454 103.676C62.0497 105.666 76.77 104.97 76.77 104.97C76.77 104.97 85.4537 105.674 86.7974 104.932C87.1083 105.12 87.6548 105.433 87.8879 105.381C88.2188 105.31 88.1511 104.98 88.2514 104.844C88.3517 104.709 87.6848 104.398 87.3439 104.222C87.3439 104.222 87.3564 104.202 87.3615 104.19L88.5096 104.543C88.5096 104.543 89.011 104.21 88.9007 104.065C88.7904 103.919 88.0784 103.661 87.7099 103.521L87.7224 103.49L89.204 103.796C89.3583 103.641 89.475 103.452 89.5449 103.245C89.6101 102.994 88.482 102.713 88.0909 102.623C88.5071 102.698 89.7781 102.916 89.8658 102.718C89.9736 102.468 90.0338 102.069 89.8006 101.864C89.6803 101.753 88.9408 101.708 88.4269 101.693C89.0738 101.657 89.7086 101.503 90.2995 101.237C90.49 100.337 89.7455 99.5221 89.5148 99.482C89.3394 99.4494 88.5798 99.665 88.2263 99.7678H88.1662L87.9731 99.7553H87.8378H87.6698H87.4993H87.3489L86.5367 99.7177H86.4414L86.1306 99.7051H86.0554L84.9047 99.67H84.8922H84.4886H84.4385C83.8794 99.67 83.2953 99.65 82.6837 99.65H82.1622C73.6866 101.593 62.2678 96.9225 60.5105 97.6094C56.6876 99.1135 60.6634 98.5294 49.0216 98.0707" fill="#FCD5CC"/>
<path opacity="0.7" d="M71.7187 105.085C72.3019 103.323 72.4278 101.441 72.0847 99.6174C66.5044 98.7851 61.6185 97.1105 60.518 97.5467C56.6951 99.0509 60.6709 98.4668 49.0291 98.008L52.2454 103.676C58.4223 104.929 66.5495 105.117 71.7187 105.085Z" fill="#FFA5A3"/>
<path d="M24.5471 82.1372C24.5471 82.1372 21.5013 84.0223 21.3559 87.7926C21.2105 91.563 29.6285 104.757 69.2093 105.341C69.2093 105.341 71.3827 102.149 70.3674 99.1061C70.3674 99.1061 60.9417 95.3458 53.9826 92.4353C47.0236 89.5249 31.797 77.7878 24.5471 82.1372Z" fill="#64233F"/>
<path opacity="0.7" d="M75.5366 46.5623C72.4126 47.8716 69.1337 48.7747 65.7799 49.2496C65.3287 50.7537 64.6969 52.0523 63.1201 52.5085C61.4054 52.9974 59.7359 53.6065 57.9359 53.5113C56.136 53.416 54.3737 53.0726 52.7693 52.1952C51.4056 51.4431 50.814 50.2097 50.4304 48.7307C50.1296 48.6254 49.8313 48.5151 49.533 48.3923C48.0341 47.7375 46.6152 46.9132 45.3039 45.9356C44.6806 45.4635 44.019 45.0443 43.326 44.6821C42.9545 45.1151 42.6277 45.5846 42.3508 46.0835C38.4777 52.8871 31.822 71.6233 36.5424 72.2926C41.2628 72.962 46.1261 57.6802 46.1261 57.6802L58.8209 55.3789L71.5181 57.6802C71.5181 57.6802 76.1432 72.972 80.8737 72.2901C85.4838 71.6358 79.4272 53.7244 75.5366 46.5623Z" fill="#FFA5A3"/>
<path d="M49.8413 43.9251C49.8413 43.9251 52.278 51.8041 58.7307 50.7638C65.1833 49.7234 66.3289 44.3713 66.3289 44.3713C66.3289 44.3713 72.6362 39.0192 76.938 47.6453C81.2397 56.2713 80.6656 55.8226 80.6656 55.8226C80.6656 55.8226 75.3611 59.3924 70.9165 59.9865C70.9165 59.9865 47.1164 63.7042 36.6503 56.4167C36.6503 56.4042 41.0949 37.9763 49.8413 43.9251Z" fill="white"/>
<path opacity="0.5" d="M40.2777 54.0729C39.8685 53.9078 39.4757 53.7047 39.1045 53.4663C38.7009 53.2156 38.2697 52.9273 37.836 52.6265C37.3754 53.8643 36.9796 55.1253 36.6503 56.4043C39.2975 58.2468 42.7971 59.3875 46.5498 60.0593C44.0715 58.5141 41.9367 56.4766 40.2777 54.0729Z" fill="#D5D3CD"/>
<path opacity="0.5" d="M76.4039 52.7192C75.0678 55.5695 73.2703 58.1566 70.9014 59.9891H70.9164C75.3611 59.395 80.6656 55.8252 80.6656 55.8252C80.6656 55.8252 81.0742 56.1411 78.6049 51.0371C77.9114 51.6485 77.176 52.2106 76.4039 52.7192Z" fill="#D5D3CD"/>
<path d="M38.8864 51.3003C38.8864 51.3003 42.0676 64.514 48.0614 67.3267C51.8869 69.1216 73.0172 80.4175 77.7602 49.3024L44.1683 57.0109" fill="white"/>
<path d="M48.1567 64.9276C48.1567 64.9276 46.0058 72.1749 45.3616 75.5216C45.3616 75.5216 57.2967 85.2256 73.4384 75.6344L69.9964 65.4841L58.3847 63.0299L48.1567 64.9276Z" fill="white"/>
<path opacity="0.5" d="M48.1567 64.9276C48.1567 64.9276 46.0058 72.1749 45.3616 75.5216C45.3616 75.5216 57.2967 85.2256 73.4384 75.6344L69.9964 65.4841L58.3847 63.0299L48.1567 64.9276Z" fill="#D5D3CD"/>
<path d="M43.8424 71.6209C43.8424 71.6209 33.6645 75.1906 34.7124 68.7204C35.7603 62.2502 56.0207 61.2475 56.0207 61.2475C56.0207 61.2475 57.5423 51.7716 58.1716 51.6588C58.8008 51.546 59.4852 63.1452 57.9209 65.0404C56.3566 66.9356 49.8237 69.7257 43.8424 71.6209Z" fill="#FCD5CC"/>
<path d="M73.3832 71.6209C73.3832 71.6209 83.561 75.1906 82.5131 68.7204C81.4653 62.2502 61.2049 61.2475 61.2049 61.2475C61.2049 61.2475 59.2871 51.7716 58.6579 51.6588C58.0287 51.546 57.5449 63.1276 59.1192 65.0228C60.6935 66.918 67.4018 69.7257 73.3832 71.6209Z" fill="#FCD5CC"/>
<path d="M58.9111 52.1426C58.8704 52.0266 58.8166 51.9155 58.7507 51.8117C58.7206 51.7666 58.673 51.7014 58.6178 51.7165C58.5742 51.7573 58.5466 51.8125 58.5401 51.8719C58.5155 51.9915 58.502 52.1132 58.5 52.2354C58.4937 52.3581 58.4937 52.4811 58.5 52.6039C58.5301 53.1053 58.5927 53.5816 58.6579 54.0704C58.7883 55.0456 58.9287 56.0207 59.0866 56.9909L58.9287 57.016C58.7858 56.1762 58.6429 55.3364 58.4874 54.5091C58.4072 54.093 58.327 53.6743 58.2368 53.2557C58.2117 53.1554 58.1866 53.0526 58.154 52.9574C58.1434 52.9213 58.13 52.8861 58.1139 52.8521C58.1212 52.8591 58.1299 52.8645 58.1394 52.8679C58.1489 52.8714 58.159 52.8728 58.1691 52.8721C58.1805 52.8758 58.1928 52.8758 58.2042 52.8721C58.2042 52.8721 58.2518 52.837 58.2343 52.8521C58.2167 52.8671 58.2343 52.8521 58.2468 52.837C58.2593 52.822 58.2468 52.837 58.2468 52.837C58.2468 52.837 58.2468 52.8821 58.2343 52.9072C58.2117 53.1103 58.2017 53.3259 58.1941 53.5364C58.1616 54.3838 58.1591 55.2361 58.1565 56.0859C58.154 56.9357 58.1766 57.7881 58.2067 58.6379C58.2368 59.4877 58.2869 60.3375 58.3521 61.1849C58.4097 62.0319 58.5169 62.8748 58.673 63.7093C58.7447 64.1246 58.8694 64.529 59.044 64.9125C59.0883 65.004 59.1457 65.0884 59.2144 65.1632C59.2852 65.242 59.3605 65.3164 59.4401 65.3863C59.5957 65.5287 59.7588 65.6626 59.9289 65.7874C60.62 66.2842 61.3464 66.7299 62.1023 67.1211C61.3341 66.7499 60.5942 66.3226 59.8888 65.8426C59.7145 65.7207 59.5471 65.5893 59.3874 65.449C59.3047 65.3788 59.2295 65.3036 59.1543 65.2284C59.0776 65.148 59.0119 65.0578 58.9587 64.9602C58.7712 64.5707 58.6348 64.1587 58.5526 63.7343C58.3823 62.8963 58.2593 62.0493 58.1841 61.1974C58.1014 60.3476 58.0538 59.4952 58.0162 58.6429C57.9786 57.7906 57.961 56.9382 57.9535 56.0859C57.946 55.2336 57.9535 54.3787 57.9911 53.5239C57.9911 53.3108 58.0111 53.0977 58.0387 52.8771C58.0387 52.8496 58.0387 52.822 58.0513 52.7919C58.0551 52.7683 58.0627 52.7454 58.0738 52.7242C58.0805 52.7128 58.088 52.7019 58.0964 52.6916C58.0788 52.7067 58.1189 52.6716 58.134 52.6691C58.1488 52.6655 58.1643 52.6655 58.1791 52.6691C58.1957 52.6693 58.2121 52.673 58.2272 52.6799C58.2423 52.6868 58.2558 52.6968 58.2668 52.7092C58.3078 52.7651 58.3384 52.8279 58.3571 52.8947C58.3897 53.0025 58.4173 53.1078 58.4423 53.2105C58.5401 53.6317 58.6178 54.0503 58.693 54.464C58.8459 55.3038 58.9788 56.1461 59.1016 56.9909L58.9437 57.016C58.8083 56.0383 58.6755 55.0606 58.5777 54.0804C58.5301 53.5791 58.4849 53.0977 58.4724 52.6039C58.4724 52.4811 58.4724 52.3532 58.4724 52.2354C58.479 52.1114 58.4957 51.9881 58.5225 51.8669C58.5426 51.8092 58.5526 51.739 58.6153 51.7039C58.678 51.6688 58.7281 51.7616 58.7632 51.8067C58.8246 51.9129 58.8742 52.0256 58.9111 52.1426Z" fill="#FFA5A3"/>
</g>
<defs>
<clipPath id="clip0">
<rect width="118.025" height="111.124" fill="white"/>
</clipPath>
</defs>
</svg>
