<svg width="210" height="160" viewBox="0 0 210 160" fill="none" xmlns="http://www.w3.org/2000/svg">
<path opacity="0.77" d="M0.370473 115.373C2.98159 126.506 15.8421 134.762 24.8748 140.148C39.0153 148.574 54.5833 154.39 70.0889 159.915H202.928C204.602 159.911 206.206 159.244 207.39 158.06C208.573 156.877 209.24 155.272 209.245 153.599V6.31263C209.239 4.6394 208.572 3.0363 207.388 1.85352C206.205 0.670729 204.601 0.00437198 202.928 0H34.3031C24.9459 2.60085 16.6001 8.29445 11.8074 17.2545C2.65707 34.3622 20.195 43.5528 31.9281 52.2728C73.5961 83.2343 -6.04717 88.0064 0.370473 115.373Z" fill="url(#paint0_linear)"/>
<defs>
<linearGradient id="paint0_linear" x1="196.903" y1="-19.6911" x2="52.8312" y2="156.696" gradientUnits="userSpaceOnUse">
<stop stop-color="#32CEFF"/>
<stop offset="1" stop-color="#E0E9FC"/>
</linearGradient>
</defs>
</svg>
