<svg width="246" height="119" viewBox="0 0 246 119" fill="none" xmlns="http://www.w3.org/2000/svg">
<path d="M243.118 104.064C239.397 112.519 232.156 116.251 225.232 117.782H21.8633C2.6657 110.61 -7.55008 58.4532 20.9183 45.7654C36.5183 38.8119 47.264 37.604 50.3016 26.6484C63.0561 -19.4329 108.79 9.30574 125.716 4.46848C185.912 -12.7374 176.88 71.5658 214.389 63.9237C231.599 60.4172 254.043 79.2396 243.118 104.064Z" fill="#D5FFF7"/>
<path d="M141.312 78.7456C141.312 78.7456 134.626 83.7179 133.322 83.4168C132.018 83.1156 138.206 78.0488 138.206 78.0488C135.876 76.9289 128.634 77.6313 128.634 77.6313C128.634 77.6313 126.222 85.4101 125.033 84.794C123.844 84.1778 127.519 78.0155 127.519 78.0155C124.925 77.8592 121.74 79.7858 121.74 79.7858C117.383 83.2263 122.026 88.6431 122.026 88.6431C122.026 88.6431 121.131 91.321 118.381 93.7587C118.381 93.7587 114.452 96.6653 114.179 101.857L114.892 101.921C114.892 101.921 116.022 97.0845 118.077 94.7973C118.158 94.7159 118.272 94.5971 118.415 94.453C118.75 94.1421 118.984 93.9085 119.143 93.7351C120.165 92.7527 121.578 91.5017 122.259 91.3804C122.234 91.2682 122.224 91.1533 122.23 91.0385C122.239 91.1476 122.248 91.2607 122.259 91.3804C122.492 94.1185 127.803 96.5082 131.071 96.9966C134.338 97.4849 133.328 96.1452 132.202 94.1543C131.076 92.1634 127.514 91.2713 126.701 90.354C125.887 89.4367 127.568 89.4351 129.537 90.3345C131.506 91.2339 131.775 93.6309 134.934 95.1432C138.092 96.6555 142.843 91.4154 142.843 91.4154C140.327 91.2876 136.732 88.5536 136.863 87.7176C136.993 86.8817 142.967 89.1608 143.985 89.2698C145.002 89.3789 147.327 88.1092 147.687 83.9979C148.047 79.8867 141.312 78.7456 141.312 78.7456Z" fill="#82B378"/>
<path d="M105.799 81.8329C105.799 81.8329 113.184 77.6973 109.737 72.0835C109.737 72.0835 106.98 68.6373 104.026 67.7509C104.026 67.7509 105.602 76.1215 104.026 76.3185C102.45 76.5155 102.942 66.8645 102.942 66.8645C102.942 66.8645 95.1628 63.1204 92.1097 63.4175C92.1097 63.4175 96.9356 71.5911 95.3598 71.3941C93.784 71.1972 88.368 62.9291 88.368 62.9291C88.368 62.9291 80.3914 61.4478 79.1151 66.1735C77.8389 70.8993 79.903 73.2638 81.0841 73.5592C82.2651 73.8547 89.8494 73.7562 89.6524 74.7411C89.4555 75.7259 84.3341 77.3017 81.478 76.4153C81.478 76.4153 84.6296 84.195 88.766 83.801C92.9025 83.4071 94.182 80.8464 96.7427 80.6495C99.3033 80.4525 101.174 81.1378 99.8934 81.8313C98.6131 82.5248 94.2772 82.0576 92.2123 83.8157C90.1473 85.5738 88.4681 86.6572 92.3108 87.4451C96.1534 88.2329 103.045 87.7405 104.424 84.7859L105.799 81.8329Z" fill="#A8D29F"/>
<path d="M107.766 89.0224C105.698 85.1814 105.796 81.8328 105.796 81.8328C103.436 74.3486 82.7518 67.6523 82.7518 67.6523C109.042 78.2881 104.417 84.7874 104.417 84.7874C105.126 85.2009 106.188 87.1715 106.926 88.6838C107.031 88.941 107.197 89.2975 107.444 89.781C107.544 89.9999 107.624 90.1782 107.68 90.3035C109.033 93.6903 108.316 99.5401 108.316 99.5401L109.136 99.7607C110.957 93.8653 107.766 89.0224 107.766 89.0224Z" fill="#82B378"/>
<path d="M117.549 76.1288C117.549 76.1288 107.813 70.6754 112.357 63.2775C112.357 63.2775 115.991 58.734 119.885 57.566C119.885 57.566 117.808 68.5998 119.885 68.8595C121.963 69.1191 121.313 56.3972 121.313 56.3972C121.313 56.3972 131.569 51.4647 135.593 51.8538C135.593 51.8538 129.232 62.6287 131.309 62.3691C133.386 62.1095 140.525 51.2051 140.525 51.2051C140.525 51.2051 151.041 49.2573 152.728 55.4888C154.415 61.7204 151.689 64.8353 150.132 65.2244C148.574 65.6135 138.578 65.4841 138.838 66.7823C139.098 68.0805 145.848 70.1577 149.613 68.9889C149.613 68.9889 145.462 79.2446 140.009 78.7253C134.555 78.206 132.869 74.8305 129.493 74.5742C126.118 74.3178 123.652 75.2253 125.342 76.132C127.033 77.0388 132.742 76.4299 135.468 78.7472C138.193 81.0645 140.401 82.4914 135.338 83.5316C130.275 84.5718 121.189 83.9206 119.371 80.0267L117.549 76.1288Z" fill="#A8D29F"/>
<path d="M147.925 57.4358C147.925 57.4358 120.664 66.263 117.549 76.1288C117.549 76.1288 117.679 80.5428 114.952 85.6055C114.952 85.6055 110.748 91.9892 113.145 99.7607L114.227 99.4702C114.227 99.4702 113.281 91.7597 115.066 87.2944C115.139 87.1316 115.244 86.894 115.376 86.6058C115.702 85.9685 115.922 85.4989 116.06 85.1595C117.032 83.1661 118.432 80.568 119.366 80.0235C119.366 80.0235 113.265 71.4559 147.925 57.4358Z" fill="#82B378"/>
<path d="M101.319 75.2082C101.319 75.2082 117.435 70.6054 121.479 74.9844C125.025 78.8205 134.64 94.0046 135.146 102.992C135.634 111.725 126.395 117.466 116.886 117.466H99.9976L101.319 75.2082Z" fill="#F1A34F"/>
<path d="M90.166 79.6848C90.166 79.6848 112.948 69.3356 117.264 76.0962C119.555 79.6856 125.86 94.0029 126.325 102.994C126.777 111.726 118.277 117.468 109.533 117.468H94.0021L90.166 79.6848Z" fill="#D16E24"/>
<path d="M45.247 47.8484C45.247 47.8484 73.5844 47.0809 84.4017 47.1053C89.9666 47.1175 89.829 51.3297 92.5028 56.2101C97.8569 65.9855 106.747 82.7991 106.041 85.4265C105.034 89.1706 67.1005 91.7557 64.4153 90.8929C61.7301 90.0301 45.247 47.8484 45.247 47.8484Z" fill="#E78B37"/>
<path opacity="0.4" d="M67.4359 55.4237C67.4359 55.4237 67.8192 49.862 66.4762 50.3414C65.1332 50.8208 56.599 58.5883 57.9421 76.9052L61.8734 80.2611L91.8891 75.2749L67.4359 55.4237Z" fill="#C44F00"/>
<path d="M105.592 77.9666L95.4826 82.961C95.4826 82.961 86.819 51.1082 86.2436 48.6794C85.988 47.5968 85.1976 47.2053 84.4016 47.1052C85.8024 46.9774 86.8223 46.9677 86.8223 46.9677C88.1672 46.9676 89.4783 47.3889 90.5713 48.1725C91.6644 48.956 92.4845 50.0624 92.9163 51.3361C94.8469 57.0337 98.4014 67.5335 102.002 78.2311C102.944 77.8543 104.066 77.4213 105.303 76.9769L105.592 77.9666Z" fill="#F1A34F"/>
<path d="M85.3572 79.6914C85.3572 79.6914 118.029 76.7986 122.056 80.6559C123.928 82.4465 124.977 90.5575 125.565 98.7327C126.298 108.931 118.035 117.658 107.868 117.511L72.4497 117.527L85.3572 79.6914Z" fill="#DF812F"/>
<path d="M73.1286 40.273C72.1933 40.063 71.2223 40.3055 70.5663 40.5489C70.6843 40.3185 71.0034 40.1509 71.0034 40.1509C70.5695 40.2152 69.7702 40.9087 69.7702 40.9087C63.3279 40.448 65.0136 49.2109 65.7372 51.1472C66.4608 53.0836 67.1673 55.3472 64.8296 57.9941C60.2308 63.2033 66.8645 67.8184 66.8645 67.8184C66.9166 67.8314 70.8479 71.4323 70.8479 71.4323C70.2155 69.8858 74.999 59.2297 78.0667 55.5401C78.5803 53.8804 78.1709 51.3507 78.1376 51.1513C78.5641 53.1267 78.5649 54.3069 78.4558 55.0053C80.7894 51.0235 75.6086 40.8281 73.1286 40.273Z" fill="#B5453C"/>
<path d="M97.8358 55.5678C97.9318 55.4237 98.7466 52.9306 99.6102 52.9786C100.474 53.0266 101.815 53.1707 102.151 53.0747C102.487 52.9786 103.616 52.1289 103.805 52.3315C104.285 52.8346 103.206 54.3933 102.439 54.6326C101.671 54.8719 100.425 54.5129 100.138 54.8002C99.8503 55.0875 99.8934 56.1188 99.8934 56.1188L97.8358 55.5678Z" fill="#FFB27D"/>
<path d="M120.655 110.754C120.562 111.771 121.978 112.019 123.619 112.1C125.26 112.182 124.763 112.518 127.012 112.925C129.26 113.333 130.161 112.717 130.323 112.414C130.468 112.144 129.422 111.722 128.309 111.246C128.169 111.187 128.028 111.125 127.888 111.064C126.635 110.513 125.935 109.389 124.958 108.346C124.032 107.359 123.153 104.195 123.153 104.195L120.098 103.544C120.098 103.544 120.956 106.389 121.254 107.603C121.429 108.318 121.172 109.116 120.941 109.724C120.813 110.057 120.689 110.396 120.655 110.754Z" fill="#FFB27D"/>
<path d="M123.619 112.1C125.259 112.181 124.763 112.518 127.012 112.925C129.26 113.333 130.161 112.717 130.323 112.413C130.468 112.144 129.422 111.722 128.309 111.246L128.292 111.265C127.181 111.586 126.004 111.6 124.886 111.306C123.399 110.899 121.961 110.013 120.937 109.726C120.813 110.057 120.693 110.396 120.655 110.754C120.562 111.771 121.978 112.019 123.619 112.1Z" fill="#C65447"/>
<path d="M90.2351 74.5277C90.2351 74.5277 110.533 72.9999 114.359 75.4124C118.184 77.825 124.31 105.918 124.31 105.918C124.31 105.918 123.932 106.221 123.089 106.313C122.304 106.394 120.573 105.936 120.573 105.936C120.573 105.936 111.764 93.3655 111.144 90.1985C110.523 87.0314 110.675 84.2063 109.262 84.1306C107.849 84.0549 90.2368 86.272 87.5727 81.5788C84.9087 76.8857 87.1112 72.2397 87.1112 72.2397L90.2351 74.5277Z" fill="#AA413E"/>
<path d="M99.8608 58.581C98.4771 62.0752 95.1481 67.7704 94.2869 67.9861C93.5609 68.1676 90.0113 67.3577 87.1242 66.3737C85.4369 65.7974 83.9784 65.1609 83.4469 64.6302C82.0086 63.1911 77.2739 54.7408 77.2739 54.7408C77.2739 54.7408 81.7205 54.1776 83.8302 55.4237C85.94 56.6698 91.023 62.4236 91.7898 62.2323C92.5565 62.041 96.2013 55.6158 97.6396 55.0403C97.6396 55.0403 99.8453 54.5609 100.421 56.0985C100.569 56.481 100.326 57.4065 99.8608 58.581Z" fill="#A251FF"/>
<path d="M112.888 114.014C112.794 115.032 114.211 115.279 115.851 115.361C117.491 115.442 116.996 115.778 119.244 116.185C121.492 116.592 122.392 115.978 122.555 115.674C122.7 115.405 121.655 114.983 120.542 114.507C120.401 114.447 120.261 114.386 120.121 114.325C118.866 113.774 118.167 112.649 117.186 111.607C116.26 110.62 115.381 107.456 115.381 107.456L112.326 106.805C112.326 106.805 113.184 109.653 113.482 110.865C113.657 111.579 113.401 112.378 113.169 112.986C113.046 113.317 112.921 113.656 112.888 114.014Z" fill="#FFB27D"/>
<path d="M115.851 115.361C117.492 115.442 116.996 115.778 119.244 116.185C121.492 116.592 122.392 115.978 122.555 115.674C122.7 115.405 121.655 114.983 120.541 114.507L120.524 114.526C119.413 114.846 118.237 114.86 117.119 114.566C115.632 114.159 114.193 113.274 113.169 112.987C113.046 113.317 112.92 113.656 112.888 114.015C112.794 115.032 114.211 115.279 115.851 115.361Z" fill="#C65447"/>
<path d="M99.8608 58.581C98.4771 62.0752 95.1481 67.7704 94.2869 67.9861C93.5609 68.1676 90.0113 67.3577 87.1243 66.3737C85.931 65.3546 85.1985 64.4747 85.078 64.2957C85.1732 64.3307 91.8956 66.8799 93.2288 66.3086C94.44 65.7901 97.8593 59.9549 99.8608 58.581Z" fill="#852EC9"/>
<path d="M77.8762 55.7347C77.8982 55.7347 76.3232 57.2812 74.7987 57.3251C73.3645 57.3691 71.9752 55.9162 71.9922 55.9064C72.5189 55.624 72.4448 54.8044 71.4225 51.4973L71.6911 51.4696L76.2101 51.0122C76.2101 51.0122 76.5235 52.3829 76.906 53.6478C77.2275 54.7091 77.5987 55.6956 77.8762 55.7347Z" fill="#FFB27D"/>
<path d="M76.2102 51.0122C76.2102 51.0122 76.5235 52.3829 76.9061 53.6477C74.5009 54.3087 72.5759 52.518 71.6912 51.4696L76.2102 51.0122Z" fill="#E2915A"/>
<path d="M86.2591 75.7861C86.2591 75.7861 104.292 76.6399 108.017 79.1981C111.743 81.7563 116.773 110.068 116.773 110.068C116.773 110.068 116.383 110.357 115.536 110.415C114.747 110.47 113.036 109.941 113.036 109.941C113.036 109.941 104.723 97.0373 104.227 93.8491C103.73 90.6609 103.991 87.8422 102.582 87.7119C101.173 87.5817 83.4884 89.1111 81.0124 84.3178C78.5364 79.5245 86.2591 75.7861 86.2591 75.7861Z" fill="#C65447"/>
<path d="M71.1092 51.14C71.1092 51.14 69.2559 49.5471 68.4403 47.9501C67.8583 46.8106 67.1079 42.154 71.7945 41.4264C72.7373 41.2754 73.7019 41.338 74.6173 41.6095C75.7926 41.9709 77.6338 42.9623 77.252 47.3421L77.2431 48.7844L71.1092 51.14Z" fill="#B5453C"/>
<path d="M86.3592 77.3244C86.2013 77.3244 85.9783 77.3147 85.7178 77.2943C84.6638 77.2129 82.9838 76.9883 82.3961 76.8133C77.4311 75.3303 72.6671 73.5013 70.6371 67.0777C70.3771 66.2457 70.1726 65.3973 70.025 64.5382L70.7991 61.5885L72.3081 55.3618C72.3081 55.3618 74.1647 56.354 75.8895 55.9715C76.7726 55.7753 77.2732 54.7449 77.2732 54.7449C77.2732 54.7449 86.6115 58.4011 89.7761 65.9773C92.9407 73.5534 94.0273 72.4025 94.9854 74.0353C95.9434 75.6681 91.6978 77.2886 86.3592 77.3244Z" fill="#A251FF"/>
<path d="M77.3725 51.9653C77.3725 51.9653 71.7563 53.7812 70.6811 50.2674C69.6059 46.7536 68.1579 44.6219 71.6928 43.3139C75.2278 42.0059 76.3421 43.1324 76.9875 44.2174C77.633 45.3024 78.805 51.4021 77.3725 51.9653Z" fill="#FFB27D"/>
<path d="M74.2363 42.443C74.2363 42.443 73.9506 47.0385 71.766 48.3725C69.5814 49.7066 68.3588 49.3851 68.3588 49.3851C68.3588 49.3851 69.736 47.3844 69.3429 44.7456C69.3429 44.7472 72.4717 40.8363 74.2363 42.443Z" fill="#B5453C"/>
<path d="M73.9555 42.8947C73.9555 42.8947 75.3905 43.4645 75.9448 44.2719C76.4991 45.0793 77.1885 46.883 77.707 46.6584C77.707 46.6584 78.0146 43.5003 76.2223 42.3144C74.3218 41.0568 73.9555 42.8947 73.9555 42.8947Z" fill="#B5453C"/>
<path d="M85.7178 77.2902C84.6638 77.2088 82.9838 76.9842 82.3961 76.8092C77.4311 75.3262 72.6671 73.4973 70.6371 67.0736C70.629 67.0264 70.6208 66.9792 70.6119 66.9312L71.3005 66.3899C71.992 65.8464 72.8164 65.498 73.6882 65.3811C74.5599 65.2641 75.4471 65.3829 76.2574 65.7249C80.1732 67.3805 85.5607 70.3807 85.7178 77.2902Z" fill="#852EC9"/>
<path d="M72.3081 55.3577C72.3081 55.3577 66.5087 56.2295 65.5524 59.8686C64.596 63.5077 63.7413 75.3994 64.6049 76.3387C65.4685 77.278 68.0455 76.1849 68.6152 75.7185C69.185 75.2521 72.1632 63.1561 72.1632 63.1561C72.1632 63.1561 73.6201 57.6905 72.3081 55.3577Z" fill="#A251FF"/>
<path d="M81.1385 72.0696C81.1385 72.0696 84.4757 71.4242 84.8509 71.5813C85.2262 71.7384 87.3261 73.6259 87.1113 74.0028C86.8964 74.3796 86.0344 74.6482 85.0658 74.3283C84.0972 74.0085 81.9989 73.84 81.6228 73.3597C81.2468 72.8795 81.1385 72.0696 81.1385 72.0696Z" fill="#FFB27D"/>
<path d="M82.0347 71.6032C82.0347 71.6032 69.0117 71.3883 65.8926 73.433C65.8926 73.433 64.0629 75.3156 64.6017 76.3387C65.1406 77.3619 66.8075 77.1991 67.5604 77.1453C68.3133 77.0916 81.4967 74.0784 81.4967 74.0784C81.4967 74.0784 83.0033 72.9487 82.0347 71.6032Z" fill="#A251FF"/>
<path d="M70.9521 75.2082C70.9521 75.2082 85.7658 70.6054 89.492 74.9844C92.7527 78.8205 101.595 94.0046 102.06 102.992C102.512 111.725 94.0119 117.466 85.2677 117.466H69.7369L70.9521 75.2082Z" fill="#F1A34F"/>
<path d="M93.2378 102.995C92.7722 94.0103 86.4666 79.6849 84.1754 76.0971C80.8333 70.8602 66.4095 75.8903 60.0778 78.4233C56.4778 67.7257 52.9225 57.2201 50.9918 51.5282C50.5605 50.2542 49.7406 49.1475 48.6474 48.3639C47.5543 47.5802 46.2429 47.1591 44.8978 47.1598C44.8978 47.1598 34.6015 45.6386 33.0086 59.3559C27.9084 103.265 32.0066 117.424 50.3016 117.533C52.5961 117.547 57.0809 117.506 60.9138 117.463V117.469H76.4454C85.1896 117.469 93.6896 111.727 93.2378 102.995Z" fill="#F1A34F"/>
<path d="M93.2378 102.964C92.7714 93.9492 86.4674 79.5872 84.1754 75.9879C81.3266 71.5162 70.4556 74.5066 63.3783 77.0615C62.1412 77.5084 61.0179 77.9422 60.0786 78.3199C56.4778 67.5938 52.9225 57.0573 50.9926 51.3483C50.5631 50.0718 49.7439 48.9622 48.6506 48.1757C47.5572 47.3893 46.2446 46.9656 44.8978 46.9644C44.8978 46.9644 43.8788 46.9742 42.478 47.102C40.2209 47.3079 36.9757 47.8215 35.4203 49.0978C34.3621 49.963 33.6402 53.7616 33.011 59.1963C31.5239 72.0346 30.8191 82.3383 31.0193 90.4948C31.1218 94.6785 31.4637 98.2973 32.0603 101.402C32.4771 103.578 33.0191 105.504 33.6931 107.195C36.6127 114.535 41.9953 117.492 50.304 117.541C51.2702 117.547 52.6237 117.541 54.1548 117.534C56.2596 117.52 58.6974 117.495 60.9162 117.47V117.477H76.4454C85.1895 117.483 93.6903 111.723 93.2378 102.964Z" fill="#D16E24"/>
<path d="M59.9061 77.7224L52.8834 80.4801C50.8347 72.9422 44.7953 50.6939 44.3183 48.6794C44.0628 47.5968 43.2724 47.2053 42.4764 47.1052C43.8772 46.9774 44.897 46.9677 44.897 46.9677C46.2419 46.9677 47.553 47.3891 48.646 48.1726C49.739 48.9562 50.5591 50.0625 50.991 51.3361C52.8924 56.9409 56.3655 67.2022 59.9061 77.7224Z" fill="#F1A34F"/>
<path opacity="0.4" d="M64.6774 84.8745C63.5827 81.5935 56.7594 82.6183 56.7594 82.6183C56.7594 82.6183 52.1264 88.3623 50.7785 88.499C49.4306 88.6358 53.5581 82.9642 53.5581 82.9642C50.947 82.7591 44.2914 85.3564 44.2914 85.3564C44.2914 85.3564 44.7139 92.0576 43.3652 91.9216C42.0165 91.7857 43.3652 85.9725 43.3652 85.9725C40.8419 86.5879 38.4815 88.9841 38.4815 88.9841C35.5342 92.8813 41.852 95.7537 41.852 95.7537C41.852 95.7537 41.9334 98.0775 40.1664 100.745C40.1664 100.745 37.9427 103.486 38.6565 107.032H36.703C37.0783 104.48 35.5082 102.544 35.5082 102.544C34.1668 100.521 34.2311 98.7579 34.2311 98.7579C34.2311 98.7579 39.0228 96.579 36.7869 93.6228C36.7869 93.6228 34.9962 91.8061 33.0802 91.3437C33.0802 91.3437 34.1025 95.7521 33.0802 95.8562C32.0579 95.9604 32.3769 90.8765 32.3769 90.8765C32.3769 90.8765 31.83 90.6625 31.0234 90.3809C31.1259 94.5523 31.467 98.1597 32.0636 101.258C32.6561 101.021 33.1111 100.71 33.3366 100.317C33.3748 100.249 33.4123 100.185 33.4473 100.123C33.4199 100.193 33.3826 100.258 33.3366 100.317C33.7956 100.535 34.4851 101.573 34.9645 102.369C35.0328 102.506 35.1411 102.695 35.2998 102.946C35.3649 103.062 35.4178 103.157 35.4536 103.223C36.0055 104.344 36.0234 105.976 35.9664 107.035H28.8607V107.343H29.2742C29.4256 111.429 32.5821 114.901 37.0107 116.352H30.6172C29.7731 116.352 29.0894 116.907 29.0894 117.593H54.1824C54.1825 117.508 54.1721 117.424 54.1515 117.343C54.0099 116.778 53.3945 116.352 52.6555 116.352H46.2693C50.698 114.901 53.8536 111.429 54.0017 107.343H54.2899V107.035H41.104C41.4093 106.492 41.7812 105.961 42.2175 105.57L42.4169 105.407C42.6326 105.244 42.7832 105.123 42.8857 105.032C43.5491 104.514 44.4681 103.853 44.91 103.79C44.8943 103.731 44.8882 103.67 44.8921 103.609C44.8978 103.668 44.9043 103.727 44.91 103.79C45.0614 105.231 48.5085 106.491 50.6288 106.751C52.7491 107.01 52.0939 106.302 51.3613 105.252C50.6288 104.203 48.3188 103.734 47.7914 103.251C47.2639 102.767 48.3538 102.763 49.6325 103.24C50.9112 103.718 51.0846 104.977 53.1325 105.773C55.1803 106.569 58.266 103.81 58.266 103.81C56.6332 103.743 54.3005 102.303 54.3851 101.862C54.4698 101.422 58.3441 102.623 59.0067 102.676C59.6692 102.73 61.1758 102.066 61.4086 99.8991C61.6414 97.7324 57.2689 97.1317 57.2689 97.1317C57.2689 97.1317 56.2596 97.7405 55.1209 98.3526C54.8963 98.1157 54.5308 97.8536 54.1043 97.5614C54.4803 97.2904 54.8189 97.0584 55.0289 96.916C55.4876 97.0161 55.9527 97.0844 56.4208 97.1203C59.959 97.393 62.6548 91.9924 62.6548 91.9924C60.2129 92.6078 55.8315 91.5139 55.6622 90.8301C55.4929 90.1464 61.98 90.214 62.9877 90.0089C63.9953 89.8038 65.773 88.1572 64.6774 84.8745ZM43.0266 97.7975C42.9649 97.7201 42.9153 97.634 42.8792 97.5419L43.0266 97.7975ZM42.3917 105.035C41.6017 105.552 40.9303 106.23 40.4219 107.026H39.586C39.4827 105.668 39.442 103.245 40.2372 101.629C40.2844 101.542 40.3528 101.418 40.439 101.266C40.5443 101.098 40.6333 100.951 40.706 100.825C40.7793 100.7 40.8371 100.593 40.8818 100.5C41.5126 99.4498 42.4218 98.0815 43.0282 97.795C43.1978 98.0735 43.4244 98.3129 43.6932 98.4975C42.5431 100.238 44.7578 102.337 44.7578 102.337C44.7578 102.337 44.1783 103.751 42.3933 105.035H42.3917ZM51.6959 96.426C49.8848 96.019 47.7002 96.0955 46.9017 95.748C45.8062 95.2678 47.4064 94.79 49.5967 94.9267C51.0707 95.0187 52.0491 95.853 53.6086 96.4732C53.003 96.4292 52.3364 96.4187 51.6975 96.426H51.6959Z" fill="#C44F00"/>
<path d="M40.8029 98.8044C40.8029 98.8044 37.7913 95.2898 40.6173 93.0571C40.6173 93.0571 42.6823 91.8069 44.3664 91.9087C44.3664 91.9087 41.9799 95.9092 42.7523 96.3039C43.5247 96.6987 45.0924 91.6571 45.0924 91.6571C45.0924 91.6571 49.7921 91.2013 51.3036 91.9282C51.3036 91.9282 47.286 95.2157 48.1292 95.4119C48.9725 95.608 53.3132 92.3824 53.3132 92.3824C53.3132 92.3824 57.6865 93.1263 57.4537 95.7944C57.2209 98.4625 55.7135 99.287 55.051 99.213C54.3884 99.1389 50.5141 97.6665 50.4294 98.2053C50.3448 98.7441 52.6791 100.522 54.3119 100.603C54.3119 100.603 51.2287 104.004 49.1792 103.022C47.1297 102.041 46.9547 100.485 45.6793 99.9016C44.4038 99.318 43.3107 99.3196 43.8381 99.9146C44.3656 100.51 46.678 101.088 47.4081 102.381C48.1382 103.673 48.7918 104.544 46.6755 104.225C44.5593 103.906 41.109 102.353 40.9576 100.578L40.8029 98.8044Z" fill="#82B378"/>
<path d="M55.3065 95.8652C55.3065 95.8652 43.4229 95.407 40.8029 98.8044C40.8029 98.8044 40.2225 100.542 38.4375 102.124C38.4375 102.124 35.8875 104.01 35.71 107.38L36.1732 107.422C36.1732 107.422 36.9057 104.283 38.2398 102.799C38.2918 102.745 38.3675 102.668 38.4603 102.575C38.6768 102.374 38.8274 102.224 38.9292 102.112C39.5933 101.474 40.5115 100.66 40.9542 100.581C40.9542 100.581 39.8017 96.3707 55.3065 95.8652Z" fill="#82B378"/>
<path d="M30.2689 94.3838C30.2689 94.3838 35.0613 91.6978 32.8246 88.0579C32.8246 88.0579 31.034 85.8211 29.1179 85.2457C29.1179 85.2457 30.1411 90.6779 29.1179 90.8057C28.0948 90.9335 28.4155 84.6702 28.4155 84.6702C28.4155 84.6702 23.3691 82.2423 21.3855 82.4335C21.3855 82.4335 24.5167 87.738 23.4944 87.6102C22.4721 87.4824 18.9575 82.1145 18.9575 82.1145C18.9575 82.1145 13.7808 81.1556 12.9506 84.2234C12.1204 87.2911 13.4618 88.8246 14.2285 89.0159C14.9952 89.2071 19.9155 89.1437 19.7877 89.7826C19.6599 90.4216 16.3374 91.4447 14.4841 90.8692C14.4841 90.8692 16.5287 95.9157 19.2131 95.6625C21.8975 95.4094 22.7277 93.7449 24.3889 93.6171C26.0502 93.4893 27.2646 93.937 26.4344 94.3838C25.6042 94.8307 22.792 94.5311 21.4498 95.6715C20.1076 96.8118 19.021 97.515 21.5133 98.027C24.0056 98.539 28.479 98.2183 29.3735 96.3015L30.2689 94.3838Z" fill="#A8D29F"/>
<path d="M31.5467 99.0493C30.2046 96.557 30.2689 94.3838 30.2689 94.3838C28.7346 89.527 15.3151 85.1814 15.3151 85.1814C32.3778 92.0836 29.3735 96.3015 29.3735 96.3015C29.8334 96.5693 30.5228 97.8479 31.0014 98.8296C31.0698 98.9924 31.178 99.2276 31.3376 99.5418C31.4019 99.6834 31.454 99.7998 31.4898 99.8804C32.3688 102.078 31.9033 105.874 31.9033 105.874L32.4356 106.017C33.6158 102.192 31.5467 99.0493 31.5467 99.0493Z" fill="#82B378"/>
<path d="M37.8939 90.6829C37.8939 90.6829 31.5761 87.1447 34.5242 82.3432C34.5242 82.3432 36.8846 79.3943 39.4078 78.6365C39.4078 78.6365 38.0599 85.7992 39.4078 85.962C40.7557 86.1248 40.3341 77.8747 40.3341 77.8747C40.3341 77.8747 46.9889 74.6743 49.6 74.9266C49.6 74.9266 45.4725 81.9184 46.8204 81.7499C48.1683 81.5814 52.8012 74.5058 52.8012 74.5058C52.8012 74.5058 59.6245 73.2417 60.7201 77.2854C61.8156 81.3291 60.0461 83.3509 59.0352 83.6032C58.0243 83.8555 51.538 83.7717 51.7097 84.6141C51.8815 85.4566 56.2589 86.8044 58.7015 86.0459C58.7015 86.0459 56.0057 92.7006 52.4675 92.3637C48.9293 92.0267 47.8346 89.8404 45.6442 89.6687C43.4539 89.497 41.8537 90.0895 42.9485 90.6796C44.0432 91.2697 47.7507 90.8725 49.5194 92.3767C51.2881 93.8809 52.7207 94.8071 49.438 95.4811C46.1554 96.155 40.2568 95.7334 39.0774 93.2061L37.8939 90.6829Z" fill="#A8D29F"/>
<path d="M57.6051 78.5519C57.6051 78.5519 39.9157 84.2804 37.8939 90.6796C37.8939 90.6796 37.9752 93.5431 36.209 96.8289C36.209 96.8289 33.4807 100.971 35.0361 106.014L35.7377 105.826C35.7377 105.826 35.124 100.822 36.2822 97.9245C36.3295 97.8179 36.3986 97.6649 36.4841 97.4776C36.6949 97.0642 36.8374 96.7597 36.9269 96.5392C37.5577 95.2458 38.4669 93.5601 39.0733 93.2061C39.0733 93.2093 35.1134 87.6501 57.6051 78.5519Z" fill="#82B378"/>
<path d="M25.3046 104.578C25.3046 107.86 26.6085 111.008 28.9294 113.329C31.2504 115.65 34.3982 116.954 37.6805 116.954C40.9629 116.954 44.1107 115.65 46.4317 113.329C48.7526 111.008 50.0565 107.86 50.0565 104.578H25.3046Z" fill="#A251FF"/>
<path d="M40.7263 116.858C38.985 117.076 37.2173 116.92 35.5406 116.402C33.8638 115.885 32.3163 115.016 31.0007 113.855C29.685 112.694 28.6312 111.266 27.9092 109.667C27.1872 108.067 26.8135 106.332 26.8128 104.578H29.8879C29.8881 107.594 30.9895 110.506 32.9852 112.767C34.981 115.029 37.7337 116.483 40.7263 116.858Z" fill="#852EC9"/>
<path d="M48.7005 116.057H26.6606C26.4601 116.057 26.2616 116.096 26.0763 116.173C25.8911 116.249 25.7228 116.362 25.5809 116.503C25.4391 116.645 25.3267 116.813 25.2499 116.999C25.1732 117.184 25.1337 117.382 25.1337 117.583H50.2275C50.2275 117.382 50.188 117.184 50.1112 116.999C50.0345 116.813 49.922 116.645 49.7802 116.503C49.6384 116.362 49.4701 116.249 49.2848 116.173C49.0996 116.096 48.901 116.057 48.7005 116.057Z" fill="#852EC9"/>
<path d="M50.3374 104.578H24.8976V104.957H50.3374V104.578Z" fill="#852EC9"/>
<path d="M186.915 80.6617V92.5452C186.915 94.633 186.325 96.3227 185.596 96.3227H162.323C161.59 96.3227 161.003 94.633 161.003 92.5452V80.6617C161.003 78.5731 163.06 76.6392 169.093 76.7067L185.596 76.8842C186.325 76.8834 186.915 78.5723 186.915 80.6617Z" fill="#F1A34F"/>
<path d="M189.998 80.6616V92.5452C189.998 94.6329 189.408 96.3227 188.679 96.3227H165.406C164.673 96.3227 164.086 94.6329 164.086 92.5452V80.6616C164.086 78.5731 166.278 76.5724 169.629 76.6391L188.676 76.8833C189.408 76.8833 189.998 78.5722 189.998 80.6616Z" fill="#E78B37"/>
<path d="M184.26 66.407C184.577 65.7062 184.097 36.454 191.234 36.8023C198.371 37.1507 211.682 37.5023 211.682 37.5023C211.682 37.5023 217.705 38.0281 214.059 52.3926C210.414 66.757 211.21 89.5295 211.21 89.5295H184.894L184.26 66.407Z" fill="#F1A34F"/>
<path d="M208.984 52.3951C208.545 54.1109 208.18 55.9447 207.859 57.8436C206.571 65.5329 206.175 74.295 206.078 80.6551C206.003 85.9107 206.132 89.5271 206.132 89.5271H179.823L179.191 66.4038C179.502 65.7071 179.028 36.4508 186.161 36.8032C189.808 36.9855 195.074 37.1573 199.347 37.2965C199.883 37.307 200.405 37.329 200.913 37.3396C204.216 37.4365 206.618 37.5024 206.618 37.5024C206.618 37.5024 212.631 38.0233 208.984 52.3951Z" fill="#E78B37"/>
<path d="M192.46 111.078V95.6471C192.457 95.3294 192.329 95.0257 192.104 94.8011C191.88 94.5765 191.576 94.4489 191.258 94.4457H191.248C191.039 94.4466 190.835 94.5058 190.658 94.6166C190.473 94.7184 190.32 94.8676 190.212 95.0488C190.105 95.2299 190.047 95.4364 190.046 95.6471V111.103L189.907 111.127C188.223 111.393 186.65 112.136 185.373 113.266C184.096 114.397 183.169 115.868 182.7 117.508H199.935C199.453 115.823 198.488 114.317 197.16 113.174C195.831 112.032 194.197 111.303 192.46 111.078Z" fill="#D16E24"/>
<path opacity="0.4" d="M207.837 57.3829C207.194 47.5155 202.035 39.0757 200.908 37.3379L189.604 36.2204C189.604 36.2204 180.89 41.9855 183.036 64.1728C184.141 75.6135 188.86 68.1204 193.17 58.1773L192.285 79.7223C192.285 79.7223 202.806 80.4402 206.078 80.6551C206.175 74.295 206.571 65.5329 207.859 57.8436C207.859 57.693 207.847 57.5318 207.837 57.3829Z" fill="#C44F00"/>
<path d="M190.658 94.6166C190.473 94.7185 190.319 94.8677 190.212 95.0488C190.105 95.2299 190.047 95.4365 190.046 95.6471V114.555C190.045 114.766 190.101 114.973 190.209 115.155C190.316 115.336 190.472 115.485 190.658 115.585C190.839 115.481 190.99 115.331 191.096 115.15C191.201 114.969 191.257 114.764 191.258 114.555V95.6471C191.257 95.4378 191.201 95.2324 191.096 95.0516C190.99 94.8708 190.839 94.7208 190.658 94.6166Z" fill="#F1A34F"/>
<path d="M189.907 111.123C188.223 111.389 186.65 112.132 185.373 113.262C184.096 114.393 183.169 115.864 182.7 117.504H197.115C196.647 115.863 195.72 114.391 194.443 113.26C193.166 112.13 191.592 111.388 189.907 111.123Z" fill="#F1A34F"/>
<path d="M211.582 90.8521L210.987 94.2707C210.987 95.0032 210.992 96.3259 210.263 96.3259H169.294C169.121 96.326 168.949 96.2919 168.789 96.2257C168.629 96.1594 168.483 96.0622 168.361 95.9397C168.238 95.8171 168.141 95.6716 168.075 95.5115C168.009 95.3514 167.975 95.1798 167.975 95.0065V90.8554C167.975 90.6822 168.009 90.5106 168.075 90.3506C168.141 90.1906 168.239 90.0452 168.361 89.9227C168.484 89.8003 168.629 89.7032 168.789 89.6369C168.949 89.5707 169.121 89.5367 169.294 89.5368H210.263C210.612 89.5366 210.947 89.675 211.195 89.9216C211.442 90.1682 211.582 90.5028 211.582 90.8521Z" fill="#F1A34F"/>
<path d="M162.3 115.018C162.375 115.383 162.45 115.758 162.429 116.145C162.399 116.251 162.348 116.35 162.28 116.436C162.212 116.523 162.127 116.595 162.031 116.648L161.838 117.013C161.635 117.11 161.141 117.185 160.508 117.249L160.498 116.949C160.412 116.947 160.326 116.951 160.241 116.959V116.949C159.275 116.942 158.318 117.12 157.42 117.474C157.409 117.474 157.398 117.485 157.388 117.485L156.798 117.517H154.03C152.7 117.324 152.175 116.784 152.077 116.52C152.077 116.445 153.075 115.95 153.9 115.716C153.921 115.71 153.943 115.706 153.964 115.704C154.082 115.662 154.308 115.576 154.362 115.565C154.511 115.511 154.687 115.468 154.834 115.426C156.217 115.019 157.15 114.096 158.244 113.077C159.498 111.908 161.204 106.696 160.979 106.6L163.799 106.963C163.799 106.963 161.536 111.49 161.719 112.895C161.794 113.516 162.019 114.042 162.169 114.579C162.18 114.6 162.18 114.632 162.191 114.653C162.221 114.727 162.246 114.802 162.266 114.879C162.28 114.933 162.29 114.975 162.3 115.018Z" fill="#EF9A60"/>
<path d="M197.797 75.8764L185.669 75.3799C185.669 75.3799 167.219 76.5715 165.654 79.2534L158.696 111.796C158.696 111.796 159.082 112.316 160.388 112.54C161.08 112.658 162.586 112.316 162.586 112.316C162.586 112.316 171.596 100.794 172.754 93.5609C173.722 87.5158 174.104 86.8866 177.419 87.0095C180.733 87.1324 190.903 87.9357 195.733 86.9997C200.562 86.0637 197.797 75.8764 197.797 75.8764Z" fill="#233862"/>
<path d="M162.483 115.844C162.488 115.947 162.47 116.05 162.43 116.144C162.4 116.25 162.35 116.35 162.282 116.436C162.214 116.522 162.129 116.595 162.033 116.648C162.014 116.666 161.992 116.681 161.969 116.691H161.958C161.947 116.702 161.936 116.702 161.926 116.713C161.572 116.927 161.1 116.927 160.499 116.949H160.242C159.277 116.942 158.319 117.12 157.421 117.474C157.411 117.474 157.4 117.485 157.389 117.485C157.357 117.496 157.336 117.506 157.303 117.517H152.614C151.97 117.26 151.842 116.852 151.777 116.703C151.724 116.585 151.874 116.459 152.164 116.316C152.191 116.306 152.216 116.292 152.239 116.274C152.646 116.092 153.258 115.899 153.911 115.684C153.923 115.694 153.944 115.694 153.965 115.705C154.406 115.856 155.939 116.338 157.74 115.995C159.242 115.705 160.733 114.998 161.881 114.654C161.977 114.633 162.074 114.6 162.17 114.579C162.192 114.569 162.213 114.569 162.234 114.558C162.254 114.603 162.268 114.649 162.277 114.697C162.4 115.068 162.47 115.454 162.483 115.844Z" fill="#365DA4"/>
<path d="M162.097 116.53L162.033 116.648L161.84 117.013L161.572 117.517H160.253V117.249L160.242 116.959V116.831L162.022 116.541L162.097 116.53Z" fill="#365DA4"/>
<path d="M166.412 115.018C166.488 115.383 166.563 115.758 166.541 116.145C166.512 116.251 166.461 116.35 166.393 116.436C166.325 116.523 166.24 116.595 166.144 116.648L165.951 117.013C165.748 117.11 165.254 117.185 164.621 117.249L164.611 116.949C164.525 116.947 164.439 116.951 164.354 116.959V116.949C163.388 116.942 162.431 117.12 161.532 117.474C161.522 117.474 161.511 117.485 161.501 117.485L160.911 117.517H158.143C156.813 117.324 156.288 116.784 156.19 116.52C156.19 116.445 157.188 115.95 158.013 115.716C158.034 115.71 158.055 115.706 158.077 115.704C158.195 115.662 158.421 115.576 158.474 115.565C158.624 115.511 158.8 115.468 158.947 115.426C160.33 115.019 161.263 114.096 162.357 113.077C163.611 111.908 165.316 106.696 165.092 106.6L167.912 106.963C167.912 106.963 165.649 111.49 165.832 112.895C165.907 113.516 166.132 114.042 166.282 114.579C166.293 114.6 166.293 114.632 166.304 114.653C166.333 114.727 166.358 114.802 166.379 114.879C166.391 114.933 166.401 114.975 166.412 115.018Z" fill="#FFB27D"/>
<path d="M190.438 45.776L189.494 49.5201L184.535 69.1101C184.346 69.4055 182.767 70.0298 181.021 70.6159C178.942 71.311 176.619 71.9662 176.18 71.9279C175.376 71.8628 174.931 70.1829 175.16 69.7091C175.308 69.3966 177.959 67.9901 180.032 66.7285C181.189 66.0252 182.165 65.3684 182.435 64.9777C182.924 64.2525 184.134 57.5822 185.121 52.701C185.625 50.1973 186.074 48.1617 186.335 47.6285C186.995 46.2359 189.566 45.8598 190.262 45.7882C190.32 45.781 190.379 45.777 190.438 45.776Z" fill="#558FFF"/>
<path d="M201.006 75.887L188.878 75.3914C188.878 75.3914 170.428 76.583 168.863 79.2649L162.432 112.45C162.432 112.45 163.554 112.833 164.259 112.886C165.381 112.967 166.152 112.601 166.152 112.601C166.152 112.601 174.802 100.806 175.96 93.5724C176.928 87.5272 177.311 86.898 180.626 87.021C183.94 87.1439 194.109 87.9472 198.939 87.0112C203.769 86.0752 201.006 75.887 201.006 75.887Z" fill="#2B478B"/>
<path d="M166.595 115.844C166.6 115.947 166.581 116.05 166.541 116.144C166.512 116.25 166.461 116.35 166.393 116.436C166.325 116.522 166.24 116.595 166.144 116.648C166.125 116.666 166.103 116.681 166.08 116.691H166.069C166.059 116.702 166.047 116.702 166.037 116.713C165.683 116.927 165.211 116.927 164.611 116.949H164.353C163.388 116.942 162.43 117.12 161.532 117.474C161.522 117.474 161.511 117.485 161.501 117.485C161.468 117.496 161.447 117.506 161.414 117.517H156.728C156.084 117.26 155.955 116.852 155.891 116.703C155.837 116.585 155.988 116.459 156.277 116.316C156.305 116.306 156.33 116.292 156.352 116.274C156.759 116.092 157.371 115.899 158.025 115.684C158.036 115.694 158.058 115.694 158.079 115.705C158.519 115.856 160.053 116.338 161.854 115.995C163.356 115.705 164.847 114.998 165.994 114.654C166.09 114.633 166.187 114.6 166.283 114.579C166.305 114.569 166.326 114.569 166.348 114.558C166.367 114.603 166.382 114.649 166.391 114.697C166.513 115.068 166.582 115.454 166.595 115.844Z" fill="#466AA5"/>
<path d="M166.208 116.53L166.144 116.648L165.951 117.013L165.683 117.517H164.364V117.249L164.354 116.959V116.831L166.134 116.541L166.208 116.53Z" fill="#466AA5"/>
<path d="M196.506 40.5099C202.324 40.0671 203.462 28.1265 196.54 29.5811C196.54 29.5811 195.57 28.947 195.09 28.9405C195.09 28.9405 195.461 29.0756 195.623 29.3084C194.875 29.1407 193.715 28.8697 192.802 29.3898C183.442 34.6975 194.251 40.6808 196.506 40.5099Z" fill="#163560"/>
<path d="M189.941 46.8668C189.918 46.8733 191.854 48.314 193.516 48.1373C195.078 47.9745 196.371 46.1896 196.35 46.1839C195.737 45.9552 195.699 45.0549 196.316 41.3149L196.02 41.3255L191.049 41.498C191.049 41.498 190.912 43.0315 190.685 44.4599C190.493 45.6621 190.236 46.7838 189.941 46.8668Z" fill="#FFB27D"/>
<path d="M189.494 49.5235L184.535 69.1134C184.346 69.4089 182.767 70.0332 181.021 70.6192C180.86 70.2166 180.72 69.8058 180.601 69.3885C180.344 68.5188 180.154 67.6306 180.032 66.7318C181.188 66.0286 182.164 65.3717 182.434 64.981C182.923 64.2558 184.133 57.5856 185.12 52.7044C187.343 50.5222 189.44 49.4486 189.44 49.4486L189.494 49.5235Z" fill="#1751DF"/>
<path d="M191.049 41.4964C191.049 41.4964 190.912 43.0299 190.684 44.4583C193.392 44.8197 195.216 42.592 196.02 41.3239L191.049 41.4964Z" fill="#EF9A60"/>
<path d="M196.603 40.8794C196.603 40.8794 198.377 38.8771 199.026 37.0237C199.488 35.7003 199.613 30.5374 194.421 30.4422C193.375 30.4179 192.338 30.6288 191.385 31.0592C190.164 31.6289 188.312 32.9735 189.376 37.6692L189.596 39.2328L196.603 40.8794Z" fill="#163560"/>
<path d="M189.929 42.7026C189.929 42.7026 196.289 43.8421 196.938 39.8701C197.587 35.8981 198.846 33.3716 194.81 32.4762C190.775 31.5809 189.739 32.9646 189.2 34.2401C188.661 35.5155 188.292 42.3038 189.929 42.7026Z" fill="#FFB27D"/>
<path d="M191.922 31.9065C191.922 31.9065 192.912 36.8496 195.48 37.9728C198.048 39.0961 199.327 38.567 199.327 38.567C199.327 38.567 197.536 36.6013 197.572 33.6833C197.572 33.6825 193.598 29.9026 191.922 31.9065Z" fill="#163560"/>
<path d="M192.294 32.3558C192.294 32.3558 190.82 33.1844 190.34 34.1465C189.86 35.1086 189.378 37.1654 188.782 36.9953C188.782 36.9953 187.981 33.6142 189.749 32.062C191.624 30.4154 192.294 32.3558 192.294 32.3558Z" fill="#163560"/>
<path d="M201.507 81.915C201.001 82.8217 199.902 82.8917 198.522 82.4962C197.857 82.3122 197.134 82.0078 196.376 81.6594C196.305 81.6175 196.231 81.58 196.155 81.5471C193.92 80.4564 191.427 78.8139 189.481 77.5637C185.396 74.946 185.125 76.4119 183.915 74.9664C183.915 74.9664 185.16 73.6584 183.563 58.3726C183.11 53.9968 190.44 45.776 190.44 45.776C190.44 45.776 190.489 48.4897 196.35 46.183C196.558 46.1081 198.161 49.5616 199.559 53.7331C199.787 54.4 200.004 55.0758 200.21 55.7606C201.187 58.9936 201.909 62.3706 201.713 64.7189C201.681 65.2243 201.581 65.7233 201.418 66.2027L201.366 66.3248C199.35 71.1563 202.951 79.3023 201.507 81.915Z" fill="#558FFF"/>
<path d="M181.341 62.8159L170.539 62.0435L175.165 74.6384L185.281 75.6876L181.341 62.8159Z" fill="#B64C41"/>
<path d="M181.245 62.9519L170.443 62.1794L175.069 74.7744L185.185 75.8235L181.245 62.9519Z" fill="#D6716B"/>
<path d="M180.273 62.7395C180.273 62.7395 180.533 61.1116 179.613 61.0741C178.693 61.0367 178.155 62.6353 178.155 62.6353L180.273 62.7395Z" fill="#B2CBFD"/>
<path d="M178.545 64.22C178.801 65.3815 180.287 67.2812 180.198 68.2425L173.294 68.1529C173.294 68.1529 173.339 67.7061 171.864 64.5333C171.257 63.231 171.975 60.8706 172.596 60.8177L179.61 61.0749C179.61 61.0749 178.044 61.9539 178.545 64.22Z" fill="#D2E9FF"/>
<path d="M170.539 62.0435L170.443 62.1794L170.681 62.1949L170.66 62.1103L170.539 62.0435Z" fill="#B64C41"/>
<path d="M185.185 75.8235L185.281 75.6876L185.098 75.546L185.185 75.8235Z" fill="#B64C41"/>
<path d="M201.507 81.9151C201.001 82.8218 199.902 82.8918 198.522 82.4963C197.857 82.3123 197.134 82.0079 196.376 81.6595C193.69 79.9201 190.818 77.1397 189.205 72.6842C185.579 62.6735 199.52 55.4294 199.52 55.4294L200.206 55.755C201.183 58.988 201.905 62.365 201.708 64.7133C201.676 65.2187 201.577 65.7177 201.414 66.1971L201.362 66.3192C199.35 71.1564 202.951 79.3024 201.507 81.9151Z" fill="#1751DF"/>
<path d="M189.651 65.6767L189.213 65.3661L185.022 71.2685L185.459 71.5791L189.651 65.6767Z" fill="#D16E24"/>
<path d="M185.029 71.2638L184.996 71.7896L185.467 71.5747L185.029 71.2638Z" fill="#F1A34F"/>
<path d="M190.619 68.7195C190.619 68.7195 188.729 67.934 187.771 68.1554C186.813 68.3768 184.86 69.0174 184.945 69.544C185.031 70.0706 187.121 70.6835 188.102 70.3295C189.083 69.9754 189.648 70.7169 190.806 70.5281C191.963 70.3392 190.619 68.7195 190.619 68.7195Z" fill="#FFB27D"/>
<path d="M196.351 46.1823C196.351 46.1823 202.304 47.1932 203.046 48.7624C203.787 50.3317 203.295 66.775 202.832 68.5111C202.369 70.2472 192.753 71.0644 189.872 70.9594C189.872 70.9594 189.42 69.006 189.958 67.9177C190.497 66.8295 197.614 65.6501 198.199 64.8394C198.783 64.0287 197.03 54.0343 197.257 52.0793C197.484 50.1242 196.351 46.1823 196.351 46.1823Z" fill="#558FFF"/>
<path d="M173.021 69.3478C173.021 69.3478 174.988 69.1573 174.722 69.9631C174.455 70.769 173.713 71.158 173.713 71.158C173.713 71.158 172.193 70.0625 173.021 69.3478Z" fill="#FFB27D"/>
<path d="M208.499 80.6617V92.5452C208.499 94.633 207.909 96.3227 207.18 96.3227H183.907C183.174 96.3227 182.587 94.633 182.587 92.5452V80.6617C182.587 78.5731 184.443 76.5057 190.808 76.8842H207.177C207.909 76.8834 208.499 78.5723 208.499 80.6617Z" fill="#F1A34F"/>
<path d="M211.582 80.6615V92.5451C211.582 94.6328 210.992 96.3226 210.263 96.3226H186.99C186.257 96.3226 185.671 94.6328 185.671 92.5451V80.6615C185.671 78.5729 187.661 76.7066 192.353 76.884L208.976 76.7733C211.591 76.7725 211.582 78.5721 211.582 80.6615Z" fill="#DF812F"/>
<path d="M236.063 85.9164H205.804C205.458 85.9175 205.125 86.0558 204.88 86.301C204.635 86.5463 204.497 86.8785 204.496 87.2253V87.6941C204.497 88.0408 204.635 88.3731 204.88 88.6183C205.125 88.8636 205.458 89.0018 205.804 89.0029H219.764L220.547 112.957C216.688 113.078 213.499 114.992 212.66 117.528H229.217C228.383 115.012 225.239 113.11 221.421 112.961L222.114 89.0029H236.068C236.414 89.0018 236.747 88.8636 236.992 88.6184C237.237 88.3732 237.375 88.0409 237.376 87.6941V87.2253C237.375 86.8778 237.236 86.5449 236.99 86.2995C236.744 86.0542 236.411 85.9164 236.063 85.9164Z" fill="#852EC9"/>
<path d="M219.032 83.3997C218.839 83.2809 218.462 83.3272 218.192 83.3842V82.9903C218.192 82.9045 218.186 82.8189 218.175 82.7339H214.1C214.089 82.8189 214.084 82.9046 214.084 82.9903V83.7904C214.083 84.2078 214.21 84.6154 214.447 84.9588C214.685 85.3022 215.021 85.565 215.412 85.7123C215.802 85.8596 216.228 85.8842 216.633 85.7829C217.038 85.6817 217.403 85.4593 217.678 85.1456C217.678 85.1456 218.647 84.9071 218.952 84.5457C219.256 84.1843 219.357 83.5991 219.032 83.3997ZM218.816 84.1387C218.713 84.4049 218.251 84.5457 218.023 84.6035C218.116 84.3891 218.171 84.1603 218.186 83.9271C218.327 83.735 218.549 83.6219 218.712 83.6512C218.859 83.6781 218.95 83.8026 218.817 84.1387H218.816Z" fill="#A251FF"/>
<path d="M214.418 82.9904V83.7905C214.42 84.3347 214.637 84.8563 215.021 85.2412C215.406 85.6261 215.928 85.8431 216.472 85.8449C216.564 85.845 216.656 85.8384 216.748 85.8253C216.256 85.7573 215.805 85.5139 215.479 85.14C215.152 84.7662 214.972 84.2869 214.97 83.7905V82.9904C214.97 82.9043 214.976 82.8184 214.987 82.7332H214.435C214.424 82.8185 214.418 82.9044 214.418 82.9904Z" fill="#852EC9"/>
<path d="M216.976 85.6657H215.299V85.9164H216.976V85.6657Z" fill="#A251FF"/>
<path d="M229.825 83.3997C229.632 83.2809 229.255 83.3272 228.985 83.3842V82.9903C228.985 82.9045 228.979 82.8189 228.968 82.7339H224.892C224.881 82.8189 224.876 82.9046 224.876 82.9903V83.7904C224.875 84.2078 225.002 84.6154 225.24 84.9588C225.477 85.3022 225.813 85.565 226.204 85.7123C226.594 85.8596 227.021 85.8842 227.425 85.7829C227.83 85.6817 228.195 85.4593 228.47 85.1456C228.47 85.1456 229.44 84.9071 229.744 84.5457C230.048 84.1843 230.148 83.5991 229.825 83.3997ZM229.609 84.1387C229.506 84.4049 229.044 84.5457 228.816 84.6035C228.909 84.3891 228.964 84.1603 228.979 83.9271C229.12 83.735 229.342 83.6219 229.505 83.6512C229.651 83.6781 229.739 83.8026 229.613 84.1387H229.609Z" fill="#A251FF"/>
<path d="M225.21 82.9904V83.7905C225.212 84.3347 225.429 84.8563 225.813 85.2412C226.198 85.6261 226.72 85.8431 227.264 85.8449C227.356 85.845 227.448 85.8384 227.54 85.8253C227.048 85.7573 226.597 85.5139 226.271 85.14C225.944 84.7662 225.764 84.2869 225.762 83.7905V82.9904C225.762 82.9043 225.768 82.8184 225.779 82.7332H225.227C225.216 82.8185 225.21 82.9044 225.21 82.9904Z" fill="#852EC9"/>
<path d="M227.768 85.6657H226.091V85.9164H227.768V85.6657Z" fill="#A251FF"/>
<path d="M241.549 117.517H0.241741C0.108231 117.517 0 117.625 0 117.759V117.817C0 117.951 0.108231 118.059 0.241741 118.059H241.549C241.683 118.059 241.791 117.951 241.791 117.817V117.759C241.791 117.625 241.683 117.517 241.549 117.517Z" fill="#283250"/>
</svg>
