<svg width="414" height="445" viewBox="0 0 414 445" fill="none" xmlns="http://www.w3.org/2000/svg">
<path d="M360.56 293.7C358.78 296.79 357.05 300.04 356.72 303.59C356.39 307.14 357.79 311.08 360.95 312.73C364.11 314.38 367.68 313.47 370.95 312.34C381.367 308.64 390.82 302.647 398.609 294.802C406.398 286.958 412.324 277.463 415.95 267.02C422.18 248.62 409.59 236.55 394.37 250.43C380.89 262.68 369.59 278.01 360.56 293.7Z" fill="#E5F7F9"/>
<path d="M-140.76 150.33C-74.5601 136.71 -7.10007 162.47 50.1599 189.47C58.5499 193.42 67.0899 197.55 75.3499 201.54C126 226.03 178.46 251.39 234.72 256.28C309 262.79 386.16 228.99 434.06 171.72C435.53 161.1 433.71 149.97 427.34 141.46C414.84 124.74 390.42 123.46 369.7 125.97C348.98 128.48 326.6 132.97 308.24 122.97C275.18 105.05 276.37 52.97 245.29 31.78C223.86 17.18 194.24 22.78 171.52 35.3C148.8 47.82 129.74 66.25 106.78 78.3C78.9287 92.7856 46.9097 97.1441 16.1999 90.63C-9.88007 85 -33.6301 71.78 -58.9901 63.48C-84.3501 55.18 -113.81 52.4 -136.32 66.71C-164.73 84.79 -171.76 124.24 -163 157.02C-155.816 154.089 -148.369 151.849 -140.76 150.33Z" fill="#E5F7F9"/>
<path d="M363 231.51C328.37 249.7 290.95 259.11 253.73 259.11C247.343 259.11 240.966 258.83 234.6 258.27C177.97 253.27 125.38 227.9 74.5298 203.34C66.2698 199.34 57.7398 195.23 49.3598 191.28C-7.6402 164.42 -74.6402 138.79 -140.31 152.28C-147.885 153.787 -155.297 156.024 -162.44 158.96C-162.13 160.02 -161.81 161.07 -161.44 162.12C-155.6 180.12 -146.08 196.32 -135.36 211.94C-116.36 210.3 -95.7902 213.02 -75.2902 220.19C-42.4402 231.69 -13.7402 252.19 15.1898 273.96L20.4998 277.96C46.4398 297.52 73.2598 317.74 103.35 330.79C158.58 354.74 226.01 354.28 288.35 329.55C302.922 323.738 317.018 316.797 330.51 308.79C334.69 301.233 339.43 293.999 344.69 287.15C365.06 260.54 391.19 238.85 412.59 213.05C421 202.9 428.81 191.87 432.52 179.23C432.84 178.12 433.12 176.99 433.37 175.86C413.644 198.694 389.765 217.578 363 231.51Z" fill="#E5F7F9"/>
<path d="M334.82 433.39H-68.6901C-77.9101 423.86 -80.4901 408.8 -79.1601 395.28C-77.6601 380 -72.2201 365.28 -70.7801 350.02C-67.4801 314.75 -85.6701 281.15 -106.19 252.27C-115.31 239.43 -125.1 226.83 -134.13 213.85C-115.71 212.44 -95.8501 215.16 -76.0301 222.09C-43.4501 233.49 -14.8901 253.89 13.9099 275.57L19.2099 279.57C45.2099 299.2 72.2099 319.5 102.48 332.65C129.86 344.52 160.21 350.45 191.48 350.45C224.897 350.293 257.983 343.826 289 331.39C302.657 325.944 315.898 319.511 328.62 312.14C317.56 333.49 311.7 357.27 316.68 380.47C320.62 398.75 330.92 415.22 334.82 433.39Z" fill="#E5F7F9"/>
<path d="M237 74.5C237 74.5 239.32 58.74 220.11 55.74C210.51 54.25 204.76 59.42 201.42 64.96C197.928 70.9068 196.793 77.9471 198.24 84.69C200.04 93.5 204.81 108.29 217.41 123.69C217.88 124.275 218.501 124.721 219.206 124.978C219.911 125.236 220.673 125.295 221.41 125.15C229.57 123.59 256.41 117.3 267.96 100.51C267.96 100.51 281.1 80.88 260.35 69.46C260.34 69.46 244.17 62.26 237 74.5Z" fill="white"/>
<path d="M1.81996 125.39C1.81996 125.39 -4.76005 119.45 -12 127.39C-15.63 131.39 -15 135.61 -13.45 138.85C-11.7693 142.279 -8.86532 144.955 -5.31005 146.35C2.28427 149.277 10.4745 150.32 18.5599 149.39C18.9717 149.352 19.3654 149.203 19.6984 148.958C20.0315 148.713 20.2914 148.382 20.45 148C22.22 143.75 27.51 129.45 23.29 119C23.29 119 18.23 106.93 6.60995 113C6.60995 113.02 -1.66004 118.3 1.81996 125.39Z" fill="white"/>
<path d="M397.36 20.39C397.36 20.39 398.36 12.85 389.16 11.56C384.57 10.91 381.86 13.42 380.31 16.09C378.679 18.951 378.186 22.3218 378.93 25.53C380.531 32.3604 383.763 38.7013 388.35 44.01C388.58 44.2815 388.878 44.4867 389.214 44.6044C389.55 44.7222 389.911 44.7483 390.26 44.68C394.14 43.88 406.89 40.68 412.26 32.59C412.26 32.59 418.39 23.13 408.4 17.82C408.45 17.78 400.68 14.46 397.36 20.39Z" fill="#FD6E74"/>
<path d="M333.86 320.88C332.7 320.31 330.41 318.73 331.3 312.69C332.19 306.65 350.09 305.15 350.77 303.33C351.45 301.51 346.4 298 341.37 289.12C336.34 280.24 342.53 269.72 345.65 270.42C348.77 271.12 353.72 286.42 361.32 289.02C366.91 290.91 375.88 298.75 380.21 302.75C402.83 296.45 526.98 260.84 574.66 224.8C574.66 224.8 594.09 276.17 581.39 295.89C569.15 314.89 408.39 343.29 377.52 341.61C371 344.86 355.52 347.61 348.6 348C341.47 348.36 340.6 341.2 340.6 341.2C335.26 339.99 335.3 331.29 335.3 331.29C331.16 327.63 333.86 320.88 333.86 320.88Z" fill="#E29579"/>
<path d="M334.86 320.39C337.595 320.795 340.375 320.795 343.11 320.39C345.866 319.999 348.557 319.239 351.11 318.13C352.491 317.562 353.681 316.612 354.54 315.39C354.954 314.734 355.214 313.992 355.3 313.22C355.378 312.426 355.203 311.628 354.8 310.94C354.403 310.308 353.872 309.771 353.245 309.367C352.618 308.962 351.909 308.701 351.17 308.6C349.776 308.435 348.363 308.579 347.03 309.02C348.364 308.842 349.719 308.906 351.03 309.21C351.636 309.358 352.204 309.63 352.7 310.009C353.196 310.387 353.608 310.864 353.91 311.41C354.151 311.947 354.241 312.539 354.173 313.124C354.104 313.708 353.879 314.263 353.52 314.73C352.768 315.742 351.745 316.522 350.57 316.98C348.109 318.048 345.546 318.863 342.92 319.41C340.266 319.963 337.569 320.291 334.86 320.39Z" fill="#DF8666"/>
<path d="M339.42 330.39C342.111 330.09 344.782 329.633 347.42 329.02C350.067 328.417 352.654 327.577 355.15 326.51C356.453 325.97 357.659 325.22 358.72 324.29C359.284 323.788 359.733 323.172 360.039 322.482C360.344 321.792 360.498 321.045 360.49 320.29C360.472 319.552 360.282 318.829 359.935 318.178C359.588 317.527 359.093 316.966 358.49 316.54C357.913 316.141 357.251 315.882 356.556 315.785C355.862 315.688 355.154 315.754 354.49 315.98C355.132 315.886 355.786 315.931 356.409 316.112C357.032 316.293 357.609 316.606 358.1 317.03C358.557 317.437 358.917 317.941 359.154 318.505C359.392 319.069 359.499 319.679 359.47 320.29C359.434 320.886 359.274 321.468 359.001 321.998C358.727 322.529 358.345 322.996 357.88 323.37C356.905 324.219 355.797 324.901 354.6 325.39C352.161 326.444 349.664 327.355 347.12 328.12C344.57 328.86 342 329.57 339.42 330.39Z" fill="#DF8666"/>
<path d="M342.87 340.52C345.014 340.064 347.117 339.435 349.16 338.64C351.215 337.849 353.219 336.93 355.16 335.89C356.169 335.342 357.106 334.67 357.95 333.89C358.815 333.072 359.444 332.036 359.77 330.89C359.941 330.312 359.983 329.703 359.893 329.107C359.803 328.511 359.584 327.942 359.25 327.44C358.932 326.947 358.483 326.552 357.953 326.301C357.423 326.05 356.833 325.953 356.25 326.02C356.77 326.074 357.267 326.263 357.691 326.568C358.116 326.873 358.453 327.284 358.67 327.76C358.883 328.202 359.002 328.683 359.021 329.174C359.04 329.664 358.958 330.153 358.78 330.61C358.1 332.5 356.37 333.76 354.51 334.75C352.65 335.74 350.68 336.75 348.74 337.75L342.87 340.52Z" fill="#DF8666"/>
<path d="M352.35 345.26C353.686 344.868 354.966 344.307 356.16 343.59C357.405 342.861 358.468 341.859 359.27 340.66C360.119 339.419 360.495 337.915 360.33 336.42C360.259 335.694 360.009 334.997 359.602 334.391C359.195 333.786 358.645 333.291 358 332.95C358.878 333.918 359.357 335.183 359.34 336.49C359.306 337.735 358.914 338.943 358.21 339.97C357.488 341.04 356.604 341.991 355.59 342.79C354.56 343.63 353.43 344.39 352.35 345.26Z" fill="#DF8666"/>
<path d="M373.08 321.13C370.682 321.22 368.288 320.882 366.01 320.13C363.776 319.404 361.707 318.243 359.924 316.714C358.141 315.184 356.678 313.317 355.62 311.22C354.549 309.078 353.872 306.761 353.62 304.38C353.392 306.855 353.787 309.347 354.77 311.63C355.734 313.96 357.231 316.032 359.14 317.68C361.064 319.312 363.34 320.476 365.79 321.08C368.179 321.696 370.683 321.713 373.08 321.13Z" fill="#DF8666"/>
<path d="M400.46 332.88C400.33 336.06 400.14 338.51 399.93 340.39C399.23 346.39 398.21 346.64 397.35 346.85C397.077 346.91 396.799 346.94 396.52 346.94C393.52 346.94 390.1 343.54 388.2 341.4C389.44 341.32 390.75 341.23 392.12 341.12C393.69 342.62 395.28 343.78 396.24 343.94C396.548 342.882 396.752 341.797 396.85 340.7C397.554 333.687 397.808 326.636 397.61 319.59C397.44 308.76 396.69 301.86 395.94 298.24C395.788 297.249 395.492 296.285 395.06 295.38C393.45 295.48 391.06 297.82 389.23 300.19L385.69 301.19L385.1 300.83C386.04 299.32 390.98 291.83 395.67 292.38C396.53 292.48 397.78 292.62 398.83 297.38C399.575 301.299 400.04 305.265 400.22 309.25C400.68 316.65 400.77 325.48 400.46 332.88Z" fill="#24629F"/>
<path d="M395.36 340.84C395.198 342.448 394.776 344.018 394.11 345.49C393.665 346.133 393.065 346.653 392.366 347.002C391.667 347.352 390.891 347.52 390.11 347.49C389.669 347.492 389.23 347.445 388.8 347.35C387.312 346.943 385.929 346.221 384.745 345.233C383.562 344.244 382.605 343.012 381.94 341.62C383.01 341.62 384.15 341.62 385.37 341.51C386.343 342.923 387.779 343.952 389.43 344.42C389.813 344.565 390.234 344.577 390.625 344.456C391.016 344.335 391.356 344.086 391.59 343.75C391.966 342.895 392.212 341.988 392.32 341.06C393.83 332.66 395.01 308.19 391.4 299.51C391.226 299.066 391.015 298.638 390.77 298.23C389.89 296.77 389.18 296.83 388.94 296.85C387.94 296.93 386.54 298.85 385.36 301.25L381.65 302.39C382.7 299.7 385.29 294.21 388.76 293.93C390.08 293.83 391.95 294.27 393.5 296.93C393.83 297.51 394.114 298.115 394.35 298.74C398 308.22 397.05 330.83 395.36 340.84Z" fill="#FFA430"/>
<path d="M538.13 52.29C537.497 41.0767 537.213 29.8633 537.28 18.65C480.34 46.65 396.41 70.65 378.21 75.75C373.88 71.75 364.91 63.91 359.32 62.02C351.72 59.44 346.76 44.11 343.65 43.42C340.54 42.73 334.33 53.24 339.37 62.12C344.41 71 349.45 74.5 348.77 76.33C348.09 78.16 330.18 79.65 329.3 85.69C328.42 91.73 330.7 93.31 331.86 93.88C331.86 93.88 329.16 100.63 333.27 104.29C333.27 104.29 333.27 112.99 338.57 114.2C338.57 114.2 339.47 121.36 346.57 121C353.44 120.65 368.97 117.86 375.49 114.61C397.29 115.8 483.79 102 537.1 87.09C537.2 75.49 537.49 63.87 538.13 52.29Z" fill="#E29579"/>
<path d="M332.86 93.39C335.595 93.795 338.375 93.795 341.11 93.39C343.866 92.9992 346.557 92.2391 349.11 91.13C350.491 90.5624 351.681 89.6117 352.54 88.39C352.954 87.7336 353.214 86.9916 353.3 86.22C353.378 85.4263 353.203 84.6282 352.8 83.94C352.403 83.3081 351.872 82.7711 351.245 82.3668C350.618 81.9624 349.909 81.7007 349.17 81.6C347.776 81.4353 346.363 81.5787 345.03 82.02C346.364 81.8421 347.719 81.9064 349.03 82.21C349.636 82.3581 350.204 82.6301 350.7 83.0087C351.196 83.3873 351.608 83.8644 351.91 84.41C352.151 84.947 352.241 85.5392 352.173 86.1238C352.104 86.7083 351.879 87.2633 351.52 87.73C350.768 88.7423 349.745 89.5221 348.57 89.98C346.109 91.0484 343.546 91.8626 340.92 92.41C338.266 92.9627 335.569 93.2905 332.86 93.39Z" fill="#DF8666"/>
<path d="M337.42 103.39C340.111 103.09 342.782 102.633 345.42 102.02C348.067 101.417 350.654 100.577 353.15 99.51C354.453 98.9703 355.659 98.2204 356.72 97.29C357.284 96.7884 357.733 96.1719 358.039 95.4819C358.344 94.7919 358.498 94.0445 358.49 93.29C358.472 92.5522 358.282 91.8289 357.935 91.1777C357.588 90.5266 357.093 89.9657 356.49 89.54C355.913 89.1407 355.251 88.8821 354.556 88.7848C353.862 88.6876 353.154 88.7544 352.49 88.98C353.132 88.8857 353.786 88.9307 354.409 89.1118C355.032 89.293 355.609 89.6062 356.1 90.03C356.557 90.4367 356.917 90.9406 357.154 91.5047C357.392 92.0688 357.499 92.6788 357.47 93.29C357.434 93.8859 357.274 94.4677 357.001 94.9981C356.727 95.5286 356.345 95.9959 355.88 96.37C354.905 97.2186 353.797 97.901 352.6 98.39C350.161 99.4437 347.664 100.355 345.12 101.12C342.57 101.86 340 102.57 337.42 103.39Z" fill="#DF8666"/>
<path d="M340.87 113.52C343.015 113.065 345.119 112.433 347.16 111.63C349.217 110.846 351.221 109.931 353.16 108.89C354.169 108.342 355.106 107.67 355.95 106.89C356.815 106.072 357.444 105.035 357.77 103.89C357.941 103.312 357.983 102.703 357.893 102.107C357.803 101.511 357.584 100.942 357.25 100.44C356.932 99.9467 356.483 99.5522 355.953 99.3012C355.423 99.0502 354.833 98.9528 354.25 99.02C354.77 99.074 355.267 99.263 355.691 99.5682C356.116 99.8734 356.453 100.284 356.67 100.76C356.883 101.202 357.002 101.683 357.021 102.174C357.04 102.664 356.958 103.153 356.78 103.61C356.1 105.5 354.37 106.76 352.51 107.75C350.65 108.74 348.68 109.75 346.74 110.75L340.87 113.52Z" fill="#DF8666"/>
<path d="M350.35 118.26C351.686 117.868 352.966 117.307 354.16 116.59C355.405 115.861 356.468 114.859 357.27 113.66C358.119 112.419 358.495 110.915 358.33 109.42C358.259 108.694 358.009 107.997 357.602 107.391C357.195 106.786 356.645 106.291 356 105.95C356.878 106.918 357.357 108.183 357.34 109.49C357.306 110.735 356.914 111.943 356.21 112.97C355.488 114.04 354.604 114.991 353.59 115.79C352.56 116.63 351.43 117.39 350.35 118.26Z" fill="#DF8666"/>
<path d="M371.08 94.13C368.682 94.2202 366.288 93.8816 364.01 93.13C361.776 92.4039 359.707 91.2428 357.924 89.7136C356.141 88.1844 354.678 86.3173 353.62 84.22C352.549 82.0781 351.872 79.7614 351.62 77.38C351.392 79.8548 351.787 82.3472 352.77 84.63C353.734 86.96 355.231 89.0319 357.14 90.68C359.064 92.3118 361.34 93.4756 363.79 94.08C366.179 94.6959 368.683 94.7131 371.08 94.13Z" fill="#DF8666"/>
<path d="M404.33 67.72L380.66 73.06L383 115.72L411.66 112.72L404.33 67.72Z" fill="#E5F7F9"/>
<path d="M402.33 66.39C402.33 66.39 517.33 22.39 548.67 2.72C548.67 2.72 565 57.06 563.67 81.06C563.67 81.06 461.33 111.39 406 114.39L402.33 66.39Z" fill="#24629F"/>
<g style="mix-blend-mode:multiply" opacity="0.5">
<g style="mix-blend-mode:multiply" opacity="0.5">
<path d="M410.67 64.72L413.55 84.53L416.35 104.34L415.93 104.04C427.39 101.71 438.83 99.32 450.25 96.79C461.67 94.26 473.05 91.62 484.4 88.79C495.75 85.96 507.05 83.01 518.27 79.72C523.87 78.0467 529.427 76.2467 534.94 74.32C540.476 72.4593 545.848 70.1413 551 67.39C545.905 70.2728 540.576 72.7214 535.07 74.71C529.6 76.81 524.07 78.63 518.45 80.38C512.83 82.13 507.24 83.73 501.6 85.29C495.96 86.85 490.3 88.29 484.6 89.72C478.9 91.15 473.24 92.52 467.6 93.86C461.96 95.2 456.19 96.45 450.48 97.7C439.05 100.18 427.6 102.58 416.1 104.7L415.73 104.76L415.68 104.4L413.15 84.55L410.67 64.72Z" fill="#24629F"/>
</g>
</g>
<path d="M195.33 438.72C195.33 438.72 216.67 308.72 274.67 297.39C332.67 286.06 208 440.72 208 440.72L195.33 438.72Z" fill="#8EE4FD"/>
<g style="mix-blend-mode:multiply" opacity="0.5">
<path d="M210.33 412.06C214.83 402.24 219.62 392.57 224.55 382.96C229.48 373.35 234.65 363.87 240 354.49C242.667 349.823 245.443 345.19 248.33 340.59C251.17 336 254.1 331.46 257.21 327.04C260.273 322.582 263.56 318.284 267.06 314.16C267.95 313.16 268.88 312.16 269.79 311.16C270.7 310.16 271.7 309.25 272.69 308.33C274.662 306.473 276.9 304.919 279.33 303.72L277.58 304.72C277.007 305.076 276.459 305.47 275.94 305.9C274.868 306.711 273.846 307.586 272.88 308.52C271.88 309.46 270.99 310.45 270.07 311.42C269.15 312.39 268.29 313.42 267.43 314.48C263.99 318.62 260.86 323.01 257.84 327.48C251.84 336.41 246.22 345.64 240.84 355C235.46 364.36 230.28 373.81 225.2 383.33C222.66 388.083 220.153 392.86 217.68 397.66C215.21 402.39 212.77 407.24 210.33 412.06Z" fill="#8EE4FD"/>
</g>
<path d="M202 440.06C202 440.06 274 336.06 305.33 347.39C336.66 358.72 210 440.72 210 440.72L202 440.06Z" fill="#B4EFFF"/>
<g style="mix-blend-mode:multiply" opacity="0.5">
<path d="M213 432.06C214.55 430.06 216.37 428.34 218.1 426.52L223.39 421.16C226.95 417.62 230.537 414.11 234.15 410.63C241.383 403.657 248.717 396.803 256.15 390.07C263.62 383.36 271.15 376.72 278.92 370.34C282.81 367.16 286.73 364.02 290.76 361.02C294.752 357.97 298.949 355.197 303.32 352.72C299.059 355.356 294.965 358.251 291.06 361.39C287.11 364.47 283.24 367.66 279.42 370.91C271.773 377.397 264.243 384.023 256.83 390.79C249.36 397.49 242.01 404.32 234.68 411.16C231.007 414.58 227.357 418.023 223.73 421.49L218.28 426.69L215.59 429.39C214.678 430.231 213.813 431.122 213 432.06Z" fill="#B4EFFF"/>
</g>
<path d="M82.6699 436.72C82.6699 436.72 52.6699 300.72 -16.0001 300.06C-84.6701 299.4 71.9999 442.72 71.9999 442.72L82.6699 436.72Z" fill="#B4EFFF"/>
<g style="mix-blend-mode:multiply" opacity="0.5">
<path d="M-22.6702 307.39C-14.7502 316.7 -6.96017 326.11 0.789825 335.56C8.53983 345.01 16.1998 354.56 23.7898 364.08C31.3798 373.6 38.9298 383.26 46.2898 393.02C48.1432 395.447 49.9732 397.893 51.7798 400.36C53.5998 402.82 55.4298 405.26 57.1898 407.76C58.9498 410.26 60.7498 412.76 62.4198 415.29C63.2598 416.57 64.1598 417.81 64.9498 419.12L67.2898 423.06L64.8198 419.2C63.9998 417.92 63.0698 416.7 62.2098 415.44C60.4698 412.93 58.6198 410.5 56.7998 408.05C54.9798 405.6 53.1298 403.17 51.2798 400.74C49.4298 398.31 47.5698 395.89 45.6798 393.49C38.1998 383.83 30.6432 374.233 23.0098 364.7C15.4398 355.1 7.76984 345.59 0.159836 336.04L-22.6702 307.39Z" fill="#B4EFFF"/>
</g>
<path d="M69.3298 438.72C69.3298 438.72 -4.19016 347.62 -25.3302 363.39C-64.6702 392.72 61.9998 444.06 61.9998 444.06L69.3298 438.72Z" fill="#8EE4FD"/>
<g style="mix-blend-mode:multiply" opacity="0.5">
<path d="M-25.6702 371.72C-18.0602 376.59 -10.5502 381.61 -3.07018 386.67C4.40982 391.73 11.8098 396.91 19.1998 402.11C26.5898 407.31 33.8698 412.67 41.0398 418.17C44.6098 420.93 48.1698 423.72 51.6398 426.61C53.3699 428.07 55.0898 429.54 56.7398 431.08C58.4536 432.568 59.9934 434.246 61.3298 436.08C59.9066 434.329 58.3083 432.727 56.5598 431.3C54.8598 429.82 53.0998 428.41 51.3298 427.01C47.7998 424.2 44.1998 421.49 40.5698 418.8C33.3232 413.427 26.0065 408.14 18.6198 402.94C11.2898 397.68 3.87983 392.52 -3.50017 387.32L-25.6702 371.72Z" fill="#8EE4FD"/>
</g>
<path d="M71.8899 303.39C71.8899 303.39 64.8899 319.39 64.8899 326.39C64.8899 333.39 69.5599 438.72 69.5599 438.72H206.89C206.89 438.72 212.56 333.72 211.56 326.39C210.56 319.06 205.89 302.06 205.89 302.06L71.8899 303.39Z" fill="#24629F"/>
<g style="mix-blend-mode:multiply" opacity="0.5">
<g style="mix-blend-mode:multiply" opacity="0.5">
<path d="M70.48 311.61C81.5595 315.148 92.9062 317.786 104.41 319.5C127.435 322.895 150.855 322.578 173.78 318.56L182.33 316.88L190.8 314.88L199.19 312.51L207.48 309.8L199.27 312.8L190.93 315.39L182.47 317.57L173.91 319.4C150.936 323.738 127.383 324.056 104.3 320.34C92.7836 318.47 81.4629 315.547 70.48 311.61Z" fill="#24629F"/>
</g>
<g style="mix-blend-mode:multiply" opacity="0.5">
<path d="M135.56 323.06C135.75 329.36 135.85 335.66 135.92 341.96C135.99 348.26 136 354.57 136.05 360.87L135.26 360.49C138.31 358.11 141.73 356.41 144.7 354.14L144.52 354.51C144.52 349.217 144.567 343.927 144.66 338.64C144.753 333.353 144.86 328.063 144.98 322.77C145.14 328.063 145.25 333.353 145.31 338.64C145.4 343.93 145.43 349.22 145.44 354.51V354.73L145.27 354.87C143.74 356.06 142.13 357.07 140.53 358.1C138.93 359.13 137.34 360.1 135.86 361.25L135.06 361.86V360.86C135.11 354.56 135.06 348.26 135.18 341.95C135.3 335.64 135.37 329.39 135.56 323.06Z" fill="#24629F"/>
</g>
<g style="mix-blend-mode:multiply" opacity="0.5">
<path d="M204.23 311.97C205.35 322.52 205.97 333.12 206.17 343.73C206.37 354.34 206.08 364.97 205.45 375.56C204.82 386.15 203.66 396.73 202.11 407.23L200.86 415.09L199.47 422.93L197.88 430.72L196.13 438.49L197.62 430.67L198.98 422.84L200.24 414.99L201.34 407.12C202.73 396.62 203.81 386.07 204.45 375.5C205.09 364.93 205.45 354.34 205.4 343.74C205.35 333.14 204.94 322.55 204.23 311.97Z" fill="#24629F"/>
</g>
<g style="mix-blend-mode:multiply" opacity="0.5">
<path d="M74.79 313.39C73.88 323.74 73.13 334.09 72.65 344.46C72.17 354.83 71.88 365.2 71.92 375.57C71.96 385.94 72.16 396.32 72.64 406.69L73 414.39L73.51 422.16L74.0799 429.92L74.73 437.68L73.81 429.95L73.0199 422.19L72.37 414.43L71.8299 406.66C71.1899 396.29 70.92 385.89 70.88 375.5C70.84 365.11 71.2 354.72 71.88 344.35C72.56 333.98 73.47 323.64 74.79 313.39Z" fill="#24629F"/>
</g>
<g style="mix-blend-mode:multiply" opacity="0.5">
<path d="M187.58 316.06C187.685 319.989 188.161 323.9 189 327.74C190.685 335.407 193.814 342.683 198.22 349.18L199.92 351.57L201.75 353.87L203.68 356.11C204.37 356.81 205.04 357.52 205.68 358.25L203.45 356.25L201.35 354.16L199.35 351.92L197.51 349.58C192.783 343.142 189.589 335.71 188.17 327.85C187.479 323.96 187.28 319.999 187.58 316.06Z" fill="#24629F"/>
</g>
<g style="mix-blend-mode:multiply" opacity="0.5">
<path d="M93.2 318.06C93.28 319.15 93.34 320.24 93.4 321.33V324.62L93.13 327.9L92.66 331.17C91.864 335.509 90.5199 339.73 88.66 343.73C86.7738 347.715 84.3806 351.439 81.54 354.81L79.32 357.25L76.95 359.54L74.42 361.64C73.54 362.307 72.65 362.947 71.75 363.56C72.58 362.84 73.41 362.13 74.25 361.44L76.61 359.19L78.86 356.82L80.94 354.33C86.3384 347.502 90.1013 339.528 91.94 331.02C92.8302 326.759 93.2528 322.413 93.2 318.06Z" fill="#24629F"/>
</g>
<g style="mix-blend-mode:multiply" opacity="0.5">
<path d="M76.3899 359.56C76.8999 365.94 77.2999 372.32 77.6899 378.71C78.0799 385.1 78.3799 391.48 78.6899 397.87C78.9999 404.26 79.2699 410.65 79.4999 417.04L79.8099 426.63C79.8799 429.83 79.9899 433.02 80.0299 436.22C79.7599 433.03 79.5599 429.84 79.3199 426.65L78.7299 417.07C78.3399 410.69 78.0399 404.3 77.7299 397.91C77.4199 391.52 77.1499 385.13 76.9299 378.74C76.7099 372.35 76.4899 365.96 76.3899 359.56Z" fill="#24629F"/>
</g>
<g style="mix-blend-mode:multiply" opacity="0.5">
<path d="M201.89 354.56C201.4 361.37 200.76 368.17 200.08 374.97C199.4 381.77 198.59 388.55 197.78 395.34C196.97 402.13 196 408.89 194.9 415.64C194.34 419.01 193.76 422.38 193.09 425.73C192.73 427.4 192.36 429.07 191.93 430.73C191.573 432.408 190.998 434.031 190.22 435.56C190.593 434.794 190.882 433.989 191.08 433.16C191.31 432.33 191.5 431.5 191.67 430.67C192.03 429 192.32 427.32 192.6 425.67C193.18 422.31 193.67 418.93 194.14 415.55C195.087 408.79 195.97 402.02 196.79 395.24L199.32 374.92L200.58 364.75L201.89 354.56Z" fill="#24629F"/>
</g>
<g style="mix-blend-mode:multiply" opacity="0.5">
<path d="M138.22 438.06C138.05 432.86 137.95 427.67 137.88 422.47C137.81 417.27 137.78 412.08 137.75 406.89C137.72 401.7 137.75 396.5 137.75 391.31C137.75 386.12 137.87 380.92 137.94 375.72V375.58L138.06 375.51C140.77 373.91 143.47 372.29 146.19 370.72C143.59 372.49 140.95 374.2 138.33 375.94L138.45 375.72C138.52 380.92 138.64 386.11 138.64 391.31C138.64 396.51 138.72 401.7 138.64 406.89C138.56 412.08 138.64 417.28 138.51 422.47C138.38 427.66 138.4 432.86 138.22 438.06Z" fill="#24629F"/>
</g>
</g>
<path d="M155.12 131.33C159.654 130.525 164.038 129.031 168.12 126.9C162.06 120.47 158.17 109.26 157.64 101.44L156.4 83.16H119.48L118.24 101.44C117.502 109.41 114.783 117.069 110.33 123.72C125 127.32 140 130.5 155.12 131.33Z" fill="#E29579"/>
<path d="M156.15 84.69C156.15 84.69 145 97.47 138 97.47H137.84C130.7 97.47 119.5 84.69 119.5 84.69C124.776 88.6742 131.229 90.7855 137.84 90.69H138C144.547 90.7501 150.929 88.6403 156.15 84.69Z" fill="#2E2044"/>
<path d="M187.72 133.06C187.72 133.06 186.22 119.56 183.72 112.56C181.22 105.56 157 92.98 157 92.98L157.55 103.89C157.55 103.89 140.05 118.06 136.05 118.06C136.05 118.06 126.25 116.65 118.23 101.44L118.93 91.11C118.93 91.11 99.5499 103.89 97.3799 109.56C95.2099 115.23 93.0498 127.72 93.0498 127.72C93.0498 127.72 55.8798 149.06 49.5498 160.72C43.2198 172.38 64.2098 246.06 61.5498 250.72C58.8898 255.38 60.5498 293.06 71.2098 306.06C71.2098 306.06 155.21 323.39 207.55 306.06C207.55 306.06 212.21 268.72 207.21 251.39C207.21 251.39 224.55 166.06 223.21 160.39C221.87 154.72 187.72 133.06 187.72 133.06Z" fill="#FFA430"/>
<g style="mix-blend-mode:multiply" opacity="0.5">
<g style="mix-blend-mode:multiply" opacity="0.5">
<path d="M93.22 128.06C95.732 129.3 97.9071 131.128 99.56 133.39C98.3003 132.789 97.1266 132.022 96.07 131.11C94.9901 130.223 94.0319 129.197 93.22 128.06Z" fill="#FFA430"/>
</g>
<g style="mix-blend-mode:multiply" opacity="0.5">
<path d="M187 130.73C187.149 131.106 187.211 131.512 187.181 131.916C187.151 132.319 187.03 132.711 186.827 133.061C186.624 133.412 186.344 133.711 186.009 133.938C185.673 134.165 185.291 134.312 184.89 134.37C185.3 133.65 185.65 133.14 185.97 132.56C186.29 131.98 186.57 131.44 187 130.73Z" fill="#FFA430"/>
</g>
<g style="mix-blend-mode:multiply" opacity="0.5">
<path d="M118 101.64C117.757 101.383 117.425 101.229 117.072 101.209C116.719 101.188 116.371 101.303 116.1 101.53C115.817 101.723 115.592 101.99 115.451 102.302C115.309 102.615 115.257 102.96 115.3 103.3C115.565 104.687 116.105 106.006 116.89 107.18C118.302 109.648 120.052 111.907 122.09 113.89C124.125 115.871 126.334 117.665 128.69 119.25C129.87 120.043 131.08 120.793 132.32 121.5C133.481 122.241 134.764 122.769 136.11 123.06C137.437 123.249 138.789 122.989 139.95 122.32C141.18 121.629 142.362 120.857 143.49 120.01C145.823 118.35 148.067 116.587 150.22 114.72C152.378 112.86 154.363 110.809 156.15 108.59C157.041 107.473 157.868 106.308 158.63 105.1C159.057 104.546 159.27 103.858 159.23 103.16C159.198 102.991 159.129 102.831 159.029 102.691C158.929 102.552 158.8 102.435 158.65 102.35C158.504 102.246 158.329 102.19 158.15 102.19C157.971 102.19 157.796 102.246 157.65 102.35C157.79 102.239 157.96 102.172 158.138 102.158C158.316 102.143 158.494 102.183 158.65 102.27C158.818 102.355 158.967 102.475 159.086 102.621C159.205 102.768 159.291 102.938 159.34 103.12C159.423 103.86 159.238 104.604 158.82 105.22C158.114 106.478 157.339 107.697 156.5 108.87C154.762 111.181 152.817 113.33 150.69 115.29C148.563 117.235 146.322 119.051 143.98 120.73C142.829 121.624 141.616 122.436 140.35 123.16C139.008 123.937 137.447 124.246 135.91 124.04C134.447 123.717 133.054 123.131 131.8 122.31C130.55 121.58 129.33 120.81 128.14 119.99C125.738 118.366 123.513 116.496 121.5 114.41C119.488 112.326 117.778 109.969 116.42 107.41C115.668 106.153 115.184 104.753 115 103.3C114.998 102.925 115.072 102.554 115.22 102.21C115.385 101.869 115.65 101.586 115.98 101.4C116.282 101.169 116.662 101.065 117.039 101.11C117.416 101.155 117.761 101.345 118 101.64Z" fill="#FFA430"/>
</g>
<g style="mix-blend-mode:multiply" opacity="0.5">
<path d="M127 137.04C126.706 138.202 126.113 139.268 125.28 140.13C124.47 140.998 123.612 141.819 122.71 142.59C120.943 144.131 119.347 145.857 117.95 147.74C115.076 151.421 113.32 155.85 112.89 160.5C112.443 165.148 113.772 169.792 116.61 173.5C117.305 174.406 118.159 175.179 119.13 175.78C120.075 176.402 121.204 176.681 122.33 176.57C122.881 176.514 123.406 176.311 123.85 175.98C124.07 175.823 124.243 175.608 124.351 175.36C124.458 175.111 124.496 174.838 124.46 174.57C124.39 174.05 123.93 173.51 123.37 173.62C122.81 173.73 122.37 174.36 122.67 174.9C122.28 174.38 122.74 173.62 123.34 173.47C123.5 173.447 123.662 173.457 123.818 173.498C123.974 173.538 124.121 173.61 124.249 173.707C124.377 173.805 124.485 173.927 124.566 174.066C124.647 174.206 124.699 174.36 124.72 174.52C124.781 174.839 124.756 175.169 124.647 175.475C124.538 175.78 124.349 176.052 124.1 176.26C123.619 176.679 123.03 176.953 122.4 177.05C121.156 177.228 119.889 176.974 118.81 176.33C117.745 175.722 116.797 174.93 116.01 173.99C112.949 170.151 111.488 165.28 111.93 160.39C112.412 155.566 114.308 150.991 117.38 147.24C118.881 145.399 120.574 143.723 122.43 142.24C123.372 141.535 124.273 140.777 125.13 139.97C125.983 139.16 126.625 138.155 127 137.04Z" fill="#FFA430"/>
</g>
<g style="mix-blend-mode:multiply" opacity="0.5">
<path d="M152.83 137.04C153.791 139.027 154.603 141.083 155.26 143.19C155.904 145.304 156.438 147.451 156.86 149.62C157.639 153.966 158.13 158.359 158.33 162.77C158.662 167.19 158.507 171.633 157.87 176.02C157.68 177.115 157.423 178.197 157.1 179.26C156.828 180.359 156.401 181.413 155.83 182.39C155.497 182.886 155.018 183.267 154.46 183.48C154.178 183.591 153.874 183.63 153.573 183.593C153.273 183.556 152.987 183.445 152.74 183.27C152.488 183.106 152.302 182.86 152.212 182.573C152.123 182.287 152.136 181.978 152.25 181.7C152.309 181.57 152.394 181.453 152.498 181.356C152.603 181.259 152.726 181.184 152.86 181.135C152.993 181.086 153.136 181.063 153.278 181.069C153.421 181.075 153.561 181.11 153.69 181.17C153.565 181.12 153.432 181.097 153.298 181.1C153.164 181.103 153.032 181.132 152.91 181.188C152.788 181.243 152.678 181.322 152.587 181.42C152.496 181.518 152.426 181.634 152.38 181.76C152.303 182.002 152.313 182.263 152.408 182.499C152.502 182.734 152.677 182.929 152.9 183.05C153.11 183.185 153.351 183.264 153.599 183.278C153.848 183.292 154.097 183.241 154.32 183.13C154.778 182.913 155.16 182.565 155.42 182.13C155.914 181.184 156.274 180.175 156.49 179.13C156.761 178.077 156.968 177.008 157.11 175.93C157.619 171.588 157.692 167.206 157.33 162.85C157.166 158.474 156.755 154.11 156.1 149.78C155.457 145.431 154.361 141.161 152.83 137.04Z" fill="#FFA430"/>
</g>
</g>
<path d="M143.88 267.6C143.119 267.333 142.316 267.204 141.51 267.22L125.73 266.58L136.73 265.11C137.628 265.042 138.508 264.819 139.33 264.45C139.719 264.279 140.049 264 140.282 263.645C140.515 263.289 140.639 262.874 140.64 262.45C140.554 262.006 140.351 261.593 140.052 261.254C139.753 260.915 139.369 260.661 138.94 260.52C138.054 260.225 137.124 260.083 136.19 260.1C131.43 259.927 126.677 259.907 121.93 260.04C120.81 260.04 119.44 259.98 118.93 259.04C118.28 257.91 119.46 256.75 120.46 255.94C121.377 255.281 122.116 254.405 122.61 253.39C122.835 252.874 122.911 252.305 122.827 251.747C122.744 251.19 122.506 250.668 122.14 250.24C121.63 249.796 121.014 249.491 120.352 249.356C119.689 249.221 119.003 249.261 118.36 249.47C117.134 249.897 115.983 250.514 114.95 251.3C111.114 253.788 106.853 255.551 102.38 256.5L100.38 256.9C95.76 255.9 88.51 254.23 79.33 252.04C77.72 262.71 75.33 273.28 73.22 283.87C81.2418 283.872 89.2497 283.203 97.16 281.87C98.06 281.94 99 281.94 99.82 282.02C103 282.353 106.177 282.777 109.35 283.29C113.017 283.883 116.663 284.6 120.29 285.44C125.01 286.54 130.02 287.84 134.56 286.52C135.67 286.19 136.91 285.34 136.56 284.29C136.34 283.65 135.56 283.29 134.94 282.99C131.77 281.58 128.23 281.07 125.06 279.66C129.7 279.91 134.7 279.25 139.33 279.5C140.097 279.601 140.876 279.543 141.62 279.33C141.972 279.235 142.28 279.022 142.495 278.728C142.71 278.433 142.817 278.074 142.8 277.71C142.65 276.71 141.37 276.24 140.31 275.98L126 272.46C131.89 273.07 138.11 273.63 143.38 271.4C144.38 270.99 145.38 270.29 145.38 269.28C145.312 268.888 145.135 268.522 144.87 268.226C144.605 267.929 144.262 267.712 143.88 267.6Z" fill="#EE8E72"/>
<path d="M91.7198 131.72C91.7198 131.72 60.2198 132.89 42.2198 148.39C24.2198 163.89 -29.7802 217.39 -31.7802 251.39C-33.7802 285.39 25.2198 295.89 96.2198 284.39C96.2198 284.39 99.7198 260.89 98.2198 250.89L49.2198 240.39L77.7198 219.39C77.7198 219.39 91.7198 158.56 91.7198 131.72Z" fill="#FFA430"/>
<g style="mix-blend-mode:multiply" opacity="0.5">
<g style="mix-blend-mode:multiply" opacity="0.5">
<path d="M35.22 238.39C39.68 238.99 44.11 239.7 48.54 240.39C52.97 241.08 57.39 241.93 61.81 242.69C66.23 243.45 70.64 244.34 75.04 245.22L81.64 246.57C83.84 247.05 86.04 247.5 88.22 248.02C86 247.73 83.78 247.37 81.56 247.02L74.91 245.95C70.47 245.22 66.06 244.41 61.63 243.64C57.2 242.87 52.81 242 48.41 241.11C44.01 240.22 39.6 239.39 35.22 238.39Z" fill="#FFA430"/>
</g>
<g style="mix-blend-mode:multiply" opacity="0.5">
<path d="M40.5999 230.27C42.2615 231.783 43.7935 233.432 45.1798 235.2C46.5992 236.946 47.8672 238.809 48.9698 240.77C45.6796 237.7 42.8593 234.162 40.5999 230.27Z" fill="#FFA430"/>
</g>
<g style="mix-blend-mode:multiply" opacity="0.5">
<path d="M84.4699 223.89C82.4099 224.75 80.3199 225.54 78.2499 226.37L71.9999 228.76C69.9199 229.56 67.8099 230.3 65.7099 231.07L59.4099 233.36L56.4099 234.46L58.9599 232.46L64.0499 228.56C65.7499 227.26 67.4299 225.94 69.1599 224.68C72.5799 222.11 76.0199 219.57 79.5099 217.1C76.2599 219.88 72.9499 222.59 69.6199 225.27C67.9699 226.63 66.2799 227.94 64.6199 229.27L59.6199 233.27L59.1499 232.41L65.4699 230.2C67.5899 229.47 69.6799 228.71 71.8099 228.01L78.1699 225.9C80.2099 225.24 82.3299 224.53 84.4699 223.89Z" fill="#FFA430"/>
</g>
<g style="mix-blend-mode:multiply" opacity="0.5">
<path d="M61.8999 139.39C65.0797 141.392 67.7745 144.077 69.7894 147.249C71.8043 150.42 73.0887 154.001 73.5499 157.73C71.3537 150.695 67.3342 144.368 61.8999 139.39Z" fill="#FFA430"/>
</g>
<g style="mix-blend-mode:multiply" opacity="0.5">
<path d="M75.5599 163.39C76.1326 163.878 76.5758 164.499 76.8499 165.2C77.1585 165.886 77.2859 166.64 77.2199 167.39C76.6611 166.89 76.2217 166.271 75.9344 165.579C75.647 164.887 75.5191 164.139 75.5599 163.39Z" fill="#FFA430"/>
</g>
<g style="mix-blend-mode:multiply" opacity="0.5">
<path d="M63.5598 287.72C65.7998 287.41 68.0398 287.2 70.2898 287.01C72.5398 286.82 74.7798 286.68 77.0298 286.56C79.2798 286.44 81.5298 286.36 83.7898 286.34H87.1698C88.2998 286.34 89.4298 286.34 90.5598 286.42C89.4398 286.59 88.3198 286.69 87.1898 286.83L83.8298 287.14C81.5798 287.34 79.3298 287.46 77.0798 287.59C74.8298 287.72 72.5798 287.78 70.3298 287.8C68.0798 287.82 65.8198 287.82 63.5598 287.72Z" fill="#FFA430"/>
</g>
</g>
<path d="M124.12 267.6C124.881 267.333 125.684 267.204 126.49 267.22L142.27 266.58L131.27 265.11C130.371 265.042 129.492 264.819 128.67 264.45C128.281 264.279 127.95 264 127.718 263.645C127.485 263.289 127.361 262.874 127.36 262.45C127.446 262.006 127.649 261.593 127.948 261.254C128.246 260.915 128.63 260.661 129.06 260.52C129.946 260.225 130.876 260.083 131.81 260.1C136.57 259.927 141.323 259.907 146.07 260.04C147.19 260.04 148.56 259.98 149.07 259.04C149.72 257.91 148.54 256.75 147.54 255.94C146.623 255.281 145.884 254.405 145.39 253.39C145.165 252.874 145.089 252.305 145.172 251.747C145.255 251.19 145.494 250.668 145.86 250.24C146.37 249.796 146.986 249.491 147.648 249.356C148.311 249.221 148.997 249.261 149.64 249.47C150.866 249.897 152.016 250.514 153.05 251.3C156.886 253.788 161.147 255.551 165.62 256.5L167.62 256.9C172.24 255.9 179.49 254.23 188.67 252.04C190.28 262.71 192.67 273.28 194.78 283.87C186.758 283.872 178.75 283.203 170.84 281.87C169.94 281.94 169 281.94 168.18 282.02C165 282.353 161.823 282.777 158.65 283.29C154.983 283.883 151.337 284.6 147.71 285.44C142.99 286.54 137.98 287.84 133.44 286.52C132.33 286.19 131.09 285.34 131.44 284.29C131.66 283.65 132.44 283.29 133.06 282.99C136.23 281.58 139.77 281.07 142.94 279.66C138.3 279.91 133.3 279.25 128.67 279.5C127.903 279.601 127.124 279.543 126.38 279.33C126.028 279.235 125.719 279.022 125.505 278.728C125.29 278.433 125.183 278.074 125.2 277.71C125.35 276.71 126.63 276.24 127.69 275.98L141.97 272.48C136.08 273.09 129.86 273.65 124.59 271.42C123.59 271.01 122.59 270.31 122.59 269.3C122.657 268.9 122.836 268.528 123.107 268.227C123.378 267.926 123.73 267.709 124.12 267.6Z" fill="#EE8E72"/>
<path d="M187.72 133.56C187.72 133.56 207.78 132.89 225.78 148.39C243.78 163.89 297.78 217.39 299.78 251.39C301.78 285.39 242.78 295.89 171.78 284.39C171.78 284.39 168.28 260.89 169.78 250.89L218.78 240.39L190.28 219.39C190.28 219.39 187.72 160.39 187.72 133.56Z" fill="#FFA430"/>
<g style="mix-blend-mode:multiply" opacity="0.5">
<g style="mix-blend-mode:multiply" opacity="0.5">
<path d="M210.45 141.64C208.72 144.348 207.231 147.202 206 150.17C204.814 153.158 203.887 156.243 203.23 159.39C203.196 152.752 205.791 146.37 210.45 141.64Z" fill="#FFA430"/>
</g>
<g style="mix-blend-mode:multiply" opacity="0.5">
<path d="M202.56 166.39C202.89 167.182 203.06 168.032 203.06 168.89C203.06 169.748 202.89 170.598 202.56 171.39C202.23 170.598 202.06 169.748 202.06 168.89C202.06 168.032 202.23 167.182 202.56 166.39Z" fill="#FFA430"/>
</g>
<g style="mix-blend-mode:multiply" opacity="0.5">
<path d="M194.89 219.06C196.23 220.22 197.56 221.39 198.89 222.6C200.22 223.81 201.49 225 202.75 226.24C205.29 228.687 207.79 231.187 210.25 233.74L212.31 235.87L209.72 234.45C208.17 233.6 206.66 232.7 205.13 231.81C203.6 230.92 202.13 230 200.6 229.06C202.21 229.78 203.82 230.51 205.4 231.3C206.98 232.09 208.58 232.84 210.14 233.66L209.61 234.37C207.07 231.917 204.57 229.417 202.11 226.87C200.88 225.61 199.69 224.3 198.47 223.01C197.25 221.72 196.05 220.39 194.89 219.06Z" fill="#FFA430"/>
</g>
<g style="mix-blend-mode:multiply" opacity="0.5">
<path d="M181.89 247.06C185.94 246.13 190 245.31 194.07 244.51C198.14 243.71 202.23 242.99 206.3 242.23C210.37 241.47 214.48 240.82 218.57 240.23L224.72 239.23C226.78 238.95 228.83 238.64 230.89 238.39C228.89 238.86 226.84 239.27 224.81 239.71L218.71 240.94C214.64 241.74 210.55 242.45 206.48 243.22C202.41 243.99 198.31 244.63 194.21 245.27C190.11 245.91 186 246.54 181.89 247.06Z" fill="#FFA430"/>
</g>
<g style="mix-blend-mode:multiply" opacity="0.5">
<path d="M227.56 233.06C226.361 234.521 225.021 235.861 223.56 237.06C222.121 238.31 220.56 239.413 218.9 240.35C220.1 238.874 221.439 237.518 222.9 236.3C224.343 235.07 225.904 233.985 227.56 233.06Z" fill="#FFA430"/>
</g>
<g style="mix-blend-mode:multiply" opacity="0.5">
<path d="M180.22 283.39C182.57 283.56 184.9 283.84 187.22 284.15C189.54 284.46 191.86 284.82 194.17 285.2C196.48 285.58 198.79 286.03 201.08 286.54C203.387 286.997 205.659 287.615 207.88 288.39C206.73 288.14 205.57 287.99 204.41 287.82L200.94 287.3C198.62 286.97 196.31 286.57 194 286.19C191.69 285.81 189.39 285.37 187.09 284.9C184.79 284.43 182.51 283.97 180.22 283.39Z" fill="#FFA430"/>
</g>
<g style="mix-blend-mode:multiply" opacity="0.5">
<path d="M285.56 251.39C286.002 252.242 286.163 253.211 286.02 254.16C285.93 255.113 285.534 256.012 284.89 256.72C284.859 255.821 284.905 254.921 285.03 254.03C285.132 253.137 285.309 252.254 285.56 251.39Z" fill="#FFA430"/>
</g>
</g>
<path d="M89.6999 240.05C99.3399 238.48 140.39 232.65 180.82 240.05C181.05 240.093 181.27 240.182 181.466 240.31C181.662 240.439 181.831 240.606 181.962 240.8C182.093 240.994 182.185 241.213 182.231 241.443C182.277 241.673 182.276 241.91 182.23 242.14C180.95 248.55 177.05 271.52 182.23 293.27C182.329 293.69 182.274 294.132 182.074 294.514C181.873 294.896 181.542 295.193 181.14 295.35C173.47 298.23 136.55 310.35 91.0199 295.35C90.5813 295.203 90.217 294.892 90.0043 294.481C89.7915 294.07 89.7469 293.593 89.8799 293.15C94.7222 276.489 94.1797 258.724 88.3299 242.39C88.2411 242.147 88.2072 241.887 88.2305 241.629C88.2538 241.371 88.3337 241.121 88.4646 240.898C88.5954 240.674 88.774 240.482 88.9875 240.336C89.201 240.189 89.4443 240.092 89.6999 240.05Z" fill="#FFBD69"/>
<path d="M179.9 50.13C177.37 48.6 174.8 49.5 173.06 50.56C173.565 45.8755 173.605 41.1524 173.18 36.46C170.74 9.48999 139 7.98999 139 7.98999H136.6C136.6 7.98999 104.9 9.48999 102.46 36.46C102.034 41.1524 102.074 45.8755 102.58 50.56C100.84 49.5 98.2698 48.56 95.7398 50.13C91.5498 52.66 97.0398 70.48 107.79 69.8C113.59 82.13 123.79 90.73 137.79 90.67C151.79 90.73 162.02 82.13 167.79 69.8C178.6 70.48 184.09 52.66 179.9 50.13Z" fill="#E29579"/>
<path d="M142.81 54.81C142.81 54.81 145.17 56.04 145.21 58.28C145.25 60.52 143.71 60.56 143.71 60.56C142.822 60.7664 141.91 60.8505 141 60.81C140.5 60.5641 140.039 60.2476 139.63 59.87C139.63 59.87 137.39 54.39 142.81 54.81Z" fill="#DF8666"/>
<path d="M143.3 60.64C143.717 60.4457 144.057 60.1181 144.267 59.7089C144.478 59.2996 144.545 58.832 144.46 58.38C144.271 57.5066 143.822 56.7114 143.17 56.1C142.84 55.73 142.49 55.43 142.09 55.01C141.858 54.7559 141.681 54.4572 141.57 54.1322C141.458 53.8072 141.414 53.4627 141.44 53.12C141.544 52.0037 142.008 50.9512 142.76 50.12C142.549 51.1052 142.489 52.1166 142.58 53.12C142.617 53.4852 142.788 53.8238 143.06 54.07C143.41 54.38 143.85 54.76 144.23 55.15C144.663 55.5714 145.007 56.0752 145.242 56.6316C145.478 57.188 145.599 57.7859 145.6 58.39C145.599 58.6893 145.538 58.9854 145.421 59.2611C145.305 59.5368 145.134 59.7865 144.92 59.9959C144.706 60.2052 144.453 60.3699 144.175 60.4805C143.897 60.5911 143.599 60.6453 143.3 60.64Z" fill="#2E2044"/>
<path d="M139.12 59.78C139.147 59.7022 139.192 59.6317 139.251 59.5739C139.309 59.5161 139.38 59.4725 139.459 59.4464C139.537 59.4203 139.62 59.4125 139.702 59.4236C139.783 59.4346 139.861 59.4641 139.93 59.51C140.001 59.5535 140.061 59.6127 140.106 59.6829C140.151 59.7532 140.18 59.8328 140.189 59.9156C140.199 59.9985 140.189 60.0825 140.162 60.1612C140.134 60.2399 140.089 60.3113 140.03 60.37C139.6 60.37 139.5 60.37 139.41 60.37C139.32 60.37 139.34 60.15 139.12 59.78Z" fill="#2E2044"/>
<path d="M118.67 76.1C123.502 76.1 127.42 72.1825 127.42 67.35C127.42 62.5175 123.502 58.6 118.67 58.6C113.837 58.6 109.92 62.5175 109.92 67.35C109.92 72.1825 113.837 76.1 118.67 76.1Z" fill="#DF8666"/>
<path d="M157.22 76.1C162.052 76.1 165.97 72.1825 165.97 67.35C165.97 62.5175 162.052 58.6 157.22 58.6C152.387 58.6 148.47 62.5175 148.47 67.35C148.47 72.1825 152.387 76.1 157.22 76.1Z" fill="#DF8666"/>
<path d="M123.93 40.94C124.25 40.2721 124.698 39.674 125.25 39.18C125.805 38.6573 126.448 38.2374 127.15 37.94C127.862 37.6271 128.624 37.4442 129.4 37.4C130.169 37.3566 130.94 37.4618 131.67 37.71C131.928 37.7961 132.147 37.9736 132.284 38.209C132.421 38.4445 132.467 38.722 132.415 38.9893C132.362 39.2567 132.213 39.4956 131.997 39.6614C131.781 39.8272 131.512 39.9085 131.24 39.89H131.19C130.634 39.8554 130.076 39.8554 129.52 39.89C128.971 39.9101 128.426 39.9804 127.89 40.1C127.332 40.2236 126.791 40.415 126.28 40.67C125.738 40.9566 125.222 41.2913 124.74 41.67C124.683 41.7107 124.619 41.7399 124.552 41.7559C124.484 41.7719 124.414 41.7744 124.345 41.7633C124.276 41.7521 124.21 41.7276 124.151 41.691C124.092 41.6544 124.04 41.6065 124 41.55C123.923 41.4697 123.875 41.3668 123.863 41.2567C123.85 41.1466 123.874 41.0355 123.93 40.94Z" fill="#2E2044"/>
<path d="M156.93 40.94C156.61 40.2721 156.161 39.674 155.61 39.18C155.055 38.6573 154.412 38.2374 153.71 37.94C152.998 37.6271 152.236 37.4442 151.46 37.4C150.69 37.3566 149.92 37.4618 149.19 37.71C148.931 37.7961 148.713 37.9736 148.576 38.209C148.439 38.4445 148.392 38.722 148.445 38.9893C148.498 39.2567 148.646 39.4956 148.862 39.6614C149.079 39.8272 149.348 39.9085 149.62 39.89H149.67C150.226 39.8554 150.784 39.8554 151.34 39.89C151.892 39.9107 152.441 39.981 152.98 40.1C153.534 40.2256 154.071 40.4169 154.58 40.67C155.122 40.9566 155.637 41.2913 156.12 41.67C156.235 41.7528 156.379 41.7866 156.519 41.7641C156.66 41.7417 156.786 41.6647 156.87 41.55C156.942 41.4671 156.986 41.3638 156.997 41.2545C157.008 41.1453 156.984 41.0354 156.93 40.94Z" fill="#2E2044"/>
<path d="M135.58 70.59C136.072 70.7328 136.556 70.903 137.03 71.1C137.504 71.2995 137.965 71.53 138.41 71.79C138.166 71.9877 137.872 72.1124 137.56 72.1496C137.249 72.1867 136.933 72.1349 136.65 72C136.359 71.8869 136.104 71.6952 135.915 71.4463C135.727 71.1974 135.61 70.901 135.58 70.59Z" fill="#2E2044"/>
<path d="M132.3 52.21C132.3 54.57 131.3 56.48 130.06 56.48C128.82 56.48 127.81 54.57 127.81 52.21C127.81 49.85 128.81 47.93 130.06 47.93C131.31 47.93 132.3 49.84 132.3 52.21Z" fill="#2E2044"/>
<path d="M151.86 52.21C151.86 54.57 150.86 56.48 149.61 56.48C148.36 56.48 147.37 54.57 147.37 52.21C147.37 49.85 148.37 47.93 149.61 47.93C150.85 47.93 151.86 49.84 151.86 52.21Z" fill="#2E2044"/>
<path d="M97.4698 56.65C97.0984 56.4372 96.8161 56.0976 96.6746 55.6936C96.5332 55.2895 96.5422 54.848 96.6998 54.45C96.8738 54.007 97.1665 53.6205 97.5458 53.3329C97.9251 53.0454 98.3763 52.8679 98.8498 52.82C99.7571 52.6993 100.678 52.8934 101.46 53.37C102.148 53.7945 102.771 54.3166 103.31 54.92C105.429 57.138 106.605 60.0921 106.59 63.16C105.307 60.6699 103.711 58.3544 101.84 56.27C101.166 55.306 100.151 54.634 98.9998 54.39C98.7449 54.3588 98.4862 54.3898 98.2459 54.4803C98.0055 54.5709 97.7907 54.7183 97.6198 54.91C97.4149 55.1473 97.2901 55.4433 97.2631 55.7557C97.2362 56.0681 97.3085 56.3811 97.4698 56.65Z" fill="#2E2044"/>
<path d="M101.64 63.62C101.231 63.5278 100.853 63.3323 100.541 63.0522C100.229 62.772 99.9949 62.4167 99.8598 62.02C99.6876 61.6018 99.6057 61.152 99.6194 60.6999C99.6332 60.2479 99.7423 59.8039 99.9396 59.397C100.137 58.99 100.418 58.6294 100.764 58.3387C101.111 58.0479 101.515 57.8337 101.95 57.71C102.347 57.5753 102.773 57.544 103.186 57.6193C103.598 57.6945 103.985 57.8737 104.31 58.14C103.694 58.3632 103.127 58.7027 102.64 59.14C102.259 59.4588 101.949 59.854 101.73 60.3002C101.511 60.7463 101.388 61.2334 101.37 61.73C101.343 62.3712 101.435 63.0119 101.64 63.62Z" fill="#2E2044"/>
<path d="M178.25 56.65C178.621 56.4372 178.904 56.0976 179.045 55.6936C179.187 55.2895 179.178 54.848 179.02 54.45C178.846 54.007 178.553 53.6205 178.174 53.3329C177.795 53.0454 177.344 52.8679 176.87 52.82C175.963 52.6993 175.041 52.8934 174.26 53.37C173.572 53.7945 172.948 54.3166 172.41 54.92C170.29 57.138 169.115 60.0921 169.13 63.16C170.413 60.6699 172.009 58.3544 173.88 56.27C174.558 55.2862 175.59 54.6021 176.76 54.36C177.015 54.3288 177.274 54.3598 177.514 54.4503C177.754 54.5409 177.969 54.6883 178.14 54.88C178.346 55.1243 178.467 55.4282 178.487 55.7468C178.507 56.0655 178.424 56.3821 178.25 56.65Z" fill="#2E2044"/>
<path d="M174.08 63.62C174.489 63.5278 174.867 63.3323 175.179 63.0522C175.49 62.772 175.725 62.4167 175.86 62.02C176.027 61.6013 176.107 61.1525 176.093 60.7017C176.079 60.2509 175.973 59.8077 175.78 59.4C175.578 58.9981 175.296 58.6412 174.952 58.3508C174.609 58.0604 174.21 57.8425 173.78 57.71C173.382 57.5753 172.957 57.544 172.544 57.6193C172.131 57.6945 171.744 57.8737 171.42 58.14C172.036 58.3632 172.602 58.7027 173.09 59.14C173.471 59.4588 173.781 59.854 174 60.3002C174.219 60.7463 174.341 61.2334 174.36 61.73C174.383 62.3718 174.288 63.0125 174.08 63.62Z" fill="#2E2044"/>
<path d="M131.66 60.19C133.34 60.87 139.57 63.19 143.89 62.94C143.945 62.937 144 62.9491 144.048 62.9752C144.097 63.0012 144.137 63.0401 144.165 63.0877C144.193 63.1352 144.207 63.1895 144.206 63.2446C144.206 63.2997 144.189 63.3534 144.16 63.4C143.16 64.94 139.94 69.4 136.1 69.01C132.26 68.62 131.39 62.3 131.25 60.5C131.245 60.4485 131.252 60.3966 131.273 60.3491C131.294 60.3017 131.326 60.2603 131.367 60.2291C131.409 60.1979 131.457 60.1779 131.509 60.1711C131.56 60.1642 131.612 60.1707 131.66 60.19Z" fill="white"/>
<path d="M196.58 43.24C195.42 39.63 191.75 37.55 188.47 35.63C185.19 33.71 181.7 31.09 181.36 27.3C181.1 24.5 182.69 21.91 183.93 19.38C185.17 16.85 186.1 13.73 184.62 11.32C183.25 9.09 180.28 8.39 177.62 8.58C174.96 8.77 172.46 9.65 169.84 9.72C164.76 9.86 160.17 7.00999 155.58 4.83999C146.92 0.739992 137.01 -1.16 127.63 0.759998C122.986 1.72124 118.639 3.77826 114.952 6.75969C111.264 9.74112 108.342 13.5606 106.43 17.9C103.876 17.5679 101.28 17.8572 98.8613 18.7433C96.4431 19.6295 94.2745 21.0863 92.5399 22.99C90.8357 24.9205 89.5298 27.1689 88.6975 29.6059C87.8652 32.0428 87.5227 34.6203 87.6899 37.19C88.1399 45.48 93.2599 53.13 92.8899 61.43C92.7499 64.73 91.7299 67.93 91.3199 71.22C90.9099 74.51 91.2199 78.11 93.3199 80.64C95.4199 83.17 98.7199 84.01 101.87 83.83C105.016 83.4924 108.082 82.627 110.94 81.27C112.04 80.81 113.13 80.35 114.24 79.92C111.597 76.8694 109.395 73.4629 107.7 69.8C96.9599 70.48 91.4699 52.66 95.6999 50.13C96.7299 49.5584 97.8989 49.2855 99.0755 49.342C100.252 49.3986 101.389 49.7823 102.36 50.45C104.75 53.45 107.19 56.39 109.44 59.39C115.724 50.22 118.739 39.202 118 28.11C123.881 36.2322 132.235 42.2314 141.81 45.21C145.23 46.26 149 46.9 152.33 45.58C154.09 44.89 155.76 43.64 157.65 43.76C159.54 43.88 160.98 45.24 162.15 46.64C163.32 48.04 164.43 49.64 166.06 50.46C168.46 51.68 170.91 52.16 173.06 50.56C174.79 49.5 177.36 48.56 179.9 50.13C184.08 52.66 178.59 70.48 167.9 69.8C165.335 75.5135 161.444 80.5325 156.55 84.44C162.44 84.26 168.55 82.01 171.92 77.2C174.6 73.4 175.3 68.46 178.09 64.75C181.09 60.7 186.09 58.75 190.27 55.86C194.45 52.97 198.13 48.06 196.58 43.24Z" fill="#2E2044"/>
<g style="mix-blend-mode:multiply" opacity="0.5">
<g style="mix-blend-mode:multiply" opacity="0.5">
<path d="M108.36 18.76C110.09 19.4595 111.674 20.477 113.03 21.76C114.415 23.0144 115.549 24.5212 116.37 26.2C114.95 24.98 113.68 23.71 112.37 22.49C111.06 21.27 109.68 20.1 108.36 18.76Z" fill="#2E2044"/>
</g>
<g style="mix-blend-mode:multiply" opacity="0.5">
<path d="M183.15 10.85C181.147 13.5159 178.915 16.0019 176.48 18.28C174.001 20.5817 170.958 22.1891 167.66 22.94C165.99 23.2751 164.27 23.2751 162.6 22.94C160.934 22.5728 159.353 21.8942 157.94 20.94C155.1 19.07 152.83 16.57 150.29 14.49C145.15 10.3138 138.668 8.14615 132.05 8.38999C130.415 8.45936 128.789 8.67015 127.19 9.01998C125.603 9.38628 124.053 9.89846 122.56 10.55C121.1 11.2124 119.75 12.0962 118.56 13.17C117.379 14.2387 116.496 15.5966 116 17.11L115.35 16.5C118.298 15.4134 121.468 15.07 124.58 15.5C127.648 15.9048 130.648 16.7187 133.5 17.92C139.24 20.23 144.29 23.77 149.38 27.09C154.47 30.41 159.79 33.52 165.72 34.86C168.668 35.5567 171.723 35.6857 174.72 35.24C177.742 34.7995 180.597 33.5756 183 31.69C180.617 33.6383 177.766 34.9278 174.73 35.43C171.698 35.9604 168.593 35.9095 165.58 35.28C159.52 34.03 154.08 30.91 148.93 27.68C143.78 24.45 138.74 20.94 133.11 18.68C130.329 17.5394 127.411 16.7694 124.43 16.39C121.472 16.0011 118.464 16.3445 115.67 17.39L114.72 17.77L115.02 16.77C115.552 15.0905 116.53 13.587 117.85 12.42C119.127 11.2719 120.578 10.3336 122.15 9.63999C123.716 8.98208 125.339 8.46992 127 8.10999C128.645 7.76014 130.318 7.55271 132 7.48999C138.828 7.25085 145.506 9.52443 150.77 13.88C153.34 16.05 155.56 18.56 158.28 20.4C159.611 21.3445 161.112 22.0235 162.7 22.4C164.301 22.72 165.949 22.72 167.55 22.4C170.796 21.7463 173.811 20.2455 176.29 18.05C178.781 15.8537 181.076 13.4446 183.15 10.85Z" fill="#2E2044"/>
</g>
<g style="mix-blend-mode:multiply" opacity="0.5">
<path d="M168.4 42.76C168.92 42.66 169.46 42.57 169.99 42.5L171.62 42.38L173.25 42.44L174.87 42.62C179.235 43.3109 183.26 45.3904 186.35 48.55L187.44 49.77L188.44 51.07L189.28 52.46C189.53 52.94 189.77 53.46 190 53.92C189.67 53.48 189.36 53.04 189.06 52.61L188 51.39L187 50.19L185.85 49.11C182.675 46.3103 178.854 44.3445 174.73 43.39C172.655 42.9139 170.528 42.7022 168.4 42.76Z" fill="#2E2044"/>
</g>
<g style="mix-blend-mode:multiply" opacity="0.5">
<path d="M107.26 22.39C105.189 23.8372 103.36 25.6023 101.84 27.62C98.7929 31.6281 97.1453 36.5252 97.1498 41.56C97.157 44.0516 97.5621 46.5261 98.3498 48.89L97.4098 49.01C97.7423 44.5799 99.5768 40.396 102.61 37.15C104.105 35.549 105.864 34.2164 107.81 33.21C108.771 32.752 109.669 32.1704 110.48 31.48C111.3 30.7869 111.835 29.8142 111.98 28.75C111.926 29.8547 111.45 30.8966 110.65 31.66C109.868 32.4171 108.99 33.0693 108.04 33.6C106.203 34.6581 104.551 36.0092 103.15 37.6C100.354 40.7903 98.6783 44.8082 98.3798 49.04L98.2198 51.4L97.4298 49.17C96.5815 46.7138 96.1687 44.1283 96.2098 41.53C96.2342 36.3117 98.0845 31.2666 101.44 27.27C103.083 25.3194 105.053 23.6683 107.26 22.39Z" fill="#2E2044"/>
</g>
<g style="mix-blend-mode:multiply" opacity="0.5">
<path d="M114.86 37.48C113.61 40.59 111.86 43.48 110.58 46.48C109.168 49.4534 108.482 52.7198 108.58 56.01C108.098 54.3891 107.979 52.6822 108.23 51.01C108.469 49.3244 108.937 47.6793 109.62 46.12C111.067 43.0684 112.822 40.1733 114.86 37.48Z" fill="#2E2044"/>
</g>
</g>
</svg>
