<svg width="39" height="13" viewBox="0 0 39 13" fill="none" xmlns="http://www.w3.org/2000/svg">
<rect x="0.332092" y="0.361618" width="37.9225" height="12.3469" rx="6.17343" fill="#E0E9FC"/>
<path d="M12.8907 5.25605H14.121V9.12547H15.047V5.25605H16.2772V4.50863H12.8907V5.25605ZM19.4002 5.94395C19.4002 6.36066 19.1687 6.63185 18.6528 6.63185H17.8789V5.2759H18.6528C19.1687 5.2759 19.4002 5.53386 19.4002 5.94395ZM16.9529 4.50863V9.12547H17.8789V7.32636H18.3155L19.3341 9.12547H20.4056L19.301 7.2536C20.0418 7.05517 20.3527 6.48633 20.3527 5.92411C20.3527 5.15022 19.7971 4.50863 18.6859 4.50863H16.9529ZM21.1902 9.12547H22.1163V4.50863H21.1902V9.12547ZM26.259 7.78937C26.259 6.16223 23.891 6.67815 23.891 5.75213C23.891 5.37511 24.1622 5.19652 24.526 5.20975C24.9229 5.21637 25.1676 5.45449 25.1874 5.75875H26.2061C26.1465 4.92533 25.4983 4.44248 24.5525 4.44248C23.6 4.44248 22.9253 4.94518 22.9253 5.77859C22.9187 7.45203 25.2999 6.85012 25.2999 7.8489C25.2999 8.17962 25.0419 8.41112 24.6054 8.41112C24.1754 8.41112 23.9307 8.16639 23.9043 7.79598H22.9121C22.9253 8.66908 23.6661 9.17177 24.6252 9.17177C25.6769 9.17177 26.259 8.51695 26.259 7.78937ZM26.8171 5.25605H28.0473V9.12547H28.9734V5.25605H30.2036V4.50863H26.8171V5.25605ZM33.5581 4.50201H30.8793V9.12547H33.5581V8.37143H31.8053V7.14777H33.3597V6.41357H31.8053V5.25605H33.5581V4.50201Z" fill="#558FFF"/>
<path d="M7.38742 3.00739C5.44225 3.00739 3.85974 4.58989 3.85974 6.53506C3.85974 8.48023 5.44225 10.0627 7.38742 10.0627C9.33258 10.0627 10.9151 8.48023 10.9151 6.53506C10.9151 4.58989 9.33258 3.00739 7.38742 3.00739ZM5.22838 5.81398C5.19148 5.70595 5.24914 5.58846 5.35717 5.55157C5.46522 5.51467 5.58268 5.57235 5.61958 5.68036C5.68721 5.87838 5.87326 6.01141 6.08251 6.01141C6.29162 6.01141 6.47761 5.87849 6.54532 5.68067C6.58229 5.57268 6.69981 5.51508 6.80783 5.55207C6.91582 5.58904 6.97341 5.70657 6.93644 5.81456C6.81148 6.17958 6.46832 6.42482 6.08251 6.42482C5.69642 6.42482 5.35317 6.17934 5.22838 5.81398ZM8.7362 8.05618C8.70305 8.07594 8.66658 8.08534 8.63061 8.08534C8.56016 8.08534 8.49151 8.04931 8.45284 7.9844C8.23035 7.61097 7.82211 7.379 7.38743 7.379C6.95398 7.379 6.54633 7.60998 6.32356 7.98181C6.26489 8.07973 6.13796 8.11159 6.04002 8.05288C5.9421 7.99422 5.91027 7.86727 5.96895 7.76935C6.26597 7.27358 6.8095 6.9656 7.38743 6.9656C7.967 6.9656 8.51133 7.27489 8.80798 7.77279C8.86639 7.87088 8.83427 7.99775 8.7362 8.05618ZM9.54754 5.81457C9.42257 6.17958 9.0794 6.42482 8.69361 6.42482C8.30751 6.42482 7.96426 6.17934 7.83948 5.814C7.80258 5.70596 7.86024 5.58847 7.96827 5.55158C8.07635 5.51468 8.19378 5.57236 8.23068 5.68037C8.29831 5.87839 8.48436 6.01142 8.69362 6.01142C8.90272 6.01142 9.08871 5.8785 9.15644 5.68069C9.19343 5.57269 9.31099 5.51514 9.41894 5.55208C9.52694 5.58905 9.58451 5.70657 9.54754 5.81457Z" fill="#558FFF"/>
</svg>
