<svg width="49" height="13" viewBox="0 0 49 13" fill="none" xmlns="http://www.w3.org/2000/svg">
<rect x="0.494446" y="0.361618" width="48.5055" height="12.3469" rx="6.17343" fill="#E0E9FC"/>
<g clip-path="url(#clip0)">
<path d="M7.54977 3.00739C5.6047 3.00739 4.02209 4.58999 4.02209 6.53506C4.02209 8.48013 5.6047 10.0627 7.54977 10.0627C9.49484 10.0627 11.0774 8.48013 11.0774 6.53506C11.0774 4.58999 9.49484 3.00739 7.54977 3.00739ZM5.78593 6.31458C5.78593 6.07646 5.91381 5.86877 6.10298 5.75236L5.64747 5.38372C5.55266 5.30699 5.53767 5.16809 5.6144 5.07372C5.69069 4.97936 5.83003 4.96436 5.92439 5.04065L6.86276 5.79998C7.0193 5.92654 7.10881 6.11394 7.10881 6.31458C7.10881 6.67925 6.81204 6.97602 6.44737 6.97602C6.0827 6.97602 5.78593 6.67925 5.78593 6.31458ZM8.8118 8.67151C8.76858 8.71693 8.71037 8.73986 8.65217 8.73986C8.59749 8.73986 8.54281 8.71957 8.50004 8.67901C7.96736 8.1719 7.13218 8.17234 6.59906 8.67901C6.51131 8.76235 6.37153 8.76014 6.2873 8.67107C6.20352 8.58288 6.20661 8.44309 6.29524 8.35931C6.99813 7.69037 8.10053 7.68949 8.80386 8.35931C8.89249 8.44353 8.89602 8.58332 8.8118 8.67151ZM9.45207 5.38372L8.99612 5.75236C9.18573 5.86877 9.31361 6.07646 9.31361 6.31458C9.31361 6.67925 9.01684 6.97602 8.65217 6.97602C8.2875 6.97602 7.99073 6.67925 7.99073 6.31458C7.99073 6.1135 8.08024 5.9261 8.23634 5.79998L9.17515 5.04065C9.26995 4.96392 9.40885 4.97847 9.48514 5.07328C9.56143 5.16809 9.54688 5.30699 9.45207 5.38372Z" fill="#558FFF"/>
</g>
<path d="M17.2024 4.50201V7.67692L15.1056 4.50201H14.1796V9.12547H15.1056V5.95718L17.2024 9.12547H18.1284V4.50201H17.2024ZM21.7223 4.50201H19.0435V9.12547H21.7223V8.37143H19.9695V7.14777H21.5239V6.41357H19.9695V5.25605H21.7223V4.50201ZM25.0112 5.94395C25.0112 6.36066 24.7797 6.63185 24.2638 6.63185H23.4899V5.2759H24.2638C24.7797 5.2759 25.0112 5.53386 25.0112 5.94395ZM22.5639 4.50863V9.12547H23.4899V7.32636H23.9264L24.945 9.12547H26.0166L24.912 7.2536C25.6528 7.05517 25.9637 6.48633 25.9637 5.92411C25.9637 5.15022 25.408 4.50863 24.2968 4.50863H22.5639ZM28.6995 8.17962L27.4296 4.50863H26.4374L28.1307 9.12547H29.2551L30.9484 4.50863H29.9629L28.6995 8.17962ZM36.008 6.80382C36.008 5.42141 34.9629 4.44248 33.6467 4.44248C32.3436 4.44248 31.2787 5.42141 31.2787 6.80382C31.2787 8.19284 32.3436 9.17177 33.6467 9.17177C34.9563 9.17177 36.008 8.19284 36.008 6.80382ZM32.2312 6.80382C32.2312 5.86458 32.8067 5.2759 33.6467 5.2759C34.4801 5.2759 35.0555 5.86458 35.0555 6.80382C35.0555 7.74307 34.4801 8.34497 33.6467 8.34497C32.8067 8.34497 32.2312 7.74307 32.2312 6.80382ZM39.9248 7.78937C39.9248 6.16223 37.5568 6.67815 37.5568 5.75213C37.5568 5.37511 37.828 5.19652 38.1918 5.20975C38.5887 5.21637 38.8334 5.45449 38.8532 5.75875H39.8719C39.8123 4.92533 39.1641 4.44248 38.2183 4.44248C37.2658 4.44248 36.5911 4.94518 36.5911 5.77859C36.5845 7.45203 38.9657 6.85012 38.9657 7.8489C38.9657 8.17962 38.7077 8.41112 38.2712 8.41112C37.8412 8.41112 37.5965 8.16639 37.57 7.79598H36.5779C36.5911 8.66908 37.3319 9.17177 38.291 9.17177C39.3427 9.17177 39.9248 8.51695 39.9248 7.78937ZM45.232 6.80382C45.232 5.42141 44.1869 4.44248 42.8707 4.44248C41.5676 4.44248 40.5027 5.42141 40.5027 6.80382C40.5027 8.19284 41.5676 9.17177 42.8707 9.17177C44.1803 9.17177 45.232 8.19284 45.232 6.80382ZM41.4552 6.80382C41.4552 5.86458 42.0306 5.2759 42.8707 5.2759C43.7041 5.2759 44.2795 5.86458 44.2795 6.80382C44.2795 7.74307 43.7041 8.34497 42.8707 8.34497C42.0306 8.34497 41.4552 7.74307 41.4552 6.80382Z" fill="#558FFF"/>
<defs>
<clipPath id="clip0">
<rect width="7.05535" height="7.05535" fill="white" transform="translate(4.02209 3.00739)"/>
</clipPath>
</defs>
</svg>
