<svg width="50" height="13" viewBox="0 0 50 13" fill="none" xmlns="http://www.w3.org/2000/svg">
<rect x="0.664185" y="0.361618" width="48.5055" height="12.3469" rx="6.17343" fill="#E0E9FC"/>
<path d="M13.2426 6.81044C13.2426 8.19284 14.2546 9.16516 15.584 9.16516C16.6093 9.16516 17.4427 8.62278 17.7536 7.67031H16.6886C16.4704 8.12009 16.0735 8.33836 15.5774 8.33836C14.7705 8.33836 14.195 7.74307 14.195 6.81044C14.195 5.87119 14.7705 5.28251 15.5774 5.28251C16.0735 5.28251 16.4704 5.50079 16.6886 5.94395H17.7536C17.4427 4.99809 16.6093 4.4491 15.584 4.4491C14.2546 4.4491 13.2426 5.42803 13.2426 6.81044ZM21.6797 9.12547H22.6587L20.9984 4.50201H19.9203L18.2601 9.12547H19.2324L19.5367 8.24576H21.3755L21.6797 9.12547ZM21.1241 7.50495H19.788L20.4561 5.57355L21.1241 7.50495ZM26.302 4.50201V7.67692L24.2052 4.50201H23.2792V9.12547H24.2052V5.95718L26.302 9.12547H27.228V4.50201H26.302ZM31.3709 7.78937C31.3709 6.16223 29.003 6.67815 29.003 5.75213C29.003 5.37511 29.2742 5.19652 29.638 5.20975C30.0348 5.21637 30.2796 5.45449 30.2994 5.75875H31.318C31.2585 4.92533 30.6103 4.44248 29.6644 4.44248C28.712 4.44248 28.0373 4.94518 28.0373 5.77859C28.0307 7.45203 30.4119 6.85012 30.4119 7.8489C30.4119 8.17962 30.1539 8.41112 29.7173 8.41112C29.2874 8.41112 29.0427 8.16639 29.0162 7.79598H28.0241C28.0373 8.66908 28.7781 9.17177 29.7372 9.17177C30.7889 9.17177 31.3709 8.51695 31.3709 7.78937ZM35.309 9.12547H36.2879L34.6277 4.50201H33.5496L31.8893 9.12547H32.8617L33.1659 8.24576H35.0047L35.309 9.12547ZM34.7534 7.50495H33.4173L34.0853 5.57355L34.7534 7.50495ZM38.5224 4.50863H36.9085V9.12547H38.5224C39.9974 9.12547 40.9565 8.2193 40.9565 6.82366C40.9565 5.42141 39.9974 4.50863 38.5224 4.50863ZM37.8345 8.33836V5.28913H38.4893C39.4616 5.28913 40.0106 5.86458 40.0106 6.82366C40.0106 7.78275 39.4616 8.33836 38.4893 8.33836H37.8345ZM46.1541 6.80382C46.1541 5.42141 45.109 4.44248 43.7927 4.44248C42.4897 4.44248 41.4248 5.42141 41.4248 6.80382C41.4248 8.19284 42.4897 9.17177 43.7927 9.17177C45.1024 9.17177 46.1541 8.19284 46.1541 6.80382ZM42.3772 6.80382C42.3772 5.86458 42.9527 5.2759 43.7927 5.2759C44.6261 5.2759 45.2016 5.86458 45.2016 6.80382C45.2016 7.74307 44.6261 8.34497 43.7927 8.34497C42.9527 8.34497 42.3772 7.74307 42.3772 6.80382Z" fill="#558FFF"/>
<g clip-path="url(#clip0)">
<path d="M7.83636 10.0627C6.85995 10.0627 5.94199 9.68246 5.25155 8.99205C4.56115 8.30161 4.18091 7.38365 4.18091 6.40725C4.18091 5.43084 4.56115 4.51288 5.25155 3.82245C5.94199 3.13204 6.85995 2.7518 7.83636 2.7518C8.81276 2.7518 9.73072 3.13204 10.4212 3.82245C11.1116 4.51288 11.4918 5.43084 11.4918 6.40725C11.4918 7.38365 11.1116 8.30161 10.4212 8.99205C9.73072 9.68246 8.81276 10.0627 7.83636 10.0627ZM7.83636 3.32296C6.13567 3.32296 4.75207 4.70657 4.75207 6.40725C4.75207 8.10793 6.13567 9.49153 7.83636 9.49153C9.53704 9.49153 10.9206 8.10793 10.9206 6.40725C10.9206 4.70657 9.53704 3.32296 7.83636 3.32296ZM8.69299 8.492H6.97973C6.74692 8.492 6.53162 8.36558 6.41784 8.16211C6.30312 7.95696 6.30792 7.71527 6.43064 7.51561C6.63734 7.17933 7.04899 6.77851 7.83636 6.77851C8.62372 6.77851 9.03537 7.17933 9.24206 7.51559C9.36479 7.71527 9.36959 7.95696 9.25486 8.16211C9.14109 8.36558 8.92579 8.492 8.69299 8.492ZM7.83636 7.34967C7.41614 7.34967 7.10691 7.50612 6.91725 7.8147C6.90025 7.84235 6.90739 7.8673 6.91637 7.88336C6.92419 7.89736 6.94283 7.92083 6.97973 7.92083H8.69299C8.72989 7.92083 8.74852 7.89736 8.75634 7.88336C8.76534 7.8673 8.77248 7.84236 8.75546 7.81468C8.5658 7.50613 8.25658 7.34967 7.83636 7.34967ZM9.25026 6.53582C9.22993 6.53582 9.20931 6.53365 9.18863 6.52909C8.96867 6.48069 8.74898 6.38626 8.53565 6.24841C8.355 6.13168 8.24841 5.93298 8.25049 5.71691C8.25258 5.501 8.3629 5.30457 8.5456 5.19147C8.73571 5.07375 8.94678 4.98192 9.17292 4.91854C9.32482 4.87597 9.48242 4.96459 9.52499 5.11643C9.56755 5.26831 9.47895 5.42593 9.32709 5.4685C9.15258 5.51742 8.99081 5.5876 8.84626 5.67709C8.82616 5.68952 8.82177 5.70862 8.82163 5.72244C8.8215 5.73637 8.82554 5.75569 8.84563 5.76867C9.00152 5.8694 9.15822 5.93755 9.31137 5.97125C9.4654 6.00515 9.5628 6.15749 9.52891 6.31154C9.49956 6.44492 9.38141 6.53582 9.25026 6.53582ZM6.4841 6.52909C6.70405 6.48069 6.92375 6.38626 7.13708 6.24841C7.31773 6.13168 7.42432 5.93298 7.42223 5.71691C7.42015 5.501 7.30983 5.30457 7.12714 5.19147C6.93702 5.07375 6.72594 4.98192 6.4998 4.91854C6.34792 4.876 6.19032 4.96459 6.14774 5.11643C6.10517 5.26831 6.19378 5.42593 6.34563 5.4685C6.52015 5.51742 6.68192 5.5876 6.82648 5.67709C6.84657 5.68952 6.85096 5.70862 6.8511 5.72244C6.85123 5.73637 6.84719 5.75569 6.8271 5.76867C6.67121 5.8694 6.51451 5.93755 6.36135 5.97125C6.20733 6.00515 6.10993 6.15749 6.14381 6.31154C6.17317 6.4449 6.2913 6.5358 6.42247 6.5358C6.44277 6.53582 6.46344 6.53365 6.4841 6.52909Z" fill="#558FFF"/>
<path fill-rule="evenodd" clip-rule="evenodd" d="M7.83636 3.32296C6.13567 3.32296 4.75207 4.70657 4.75207 6.40725C4.75207 8.10793 6.13567 9.49153 7.83636 9.49153C9.53704 9.49153 10.9206 8.10793 10.9206 6.40725C10.9206 4.70657 9.53704 3.32296 7.83636 3.32296ZM6.97973 8.492H8.69299C8.92579 8.492 9.14109 8.36558 9.25486 8.16211C9.36959 7.95696 9.36479 7.71527 9.24206 7.51559C9.03537 7.17933 8.62372 6.77851 7.83636 6.77851C7.04899 6.77851 6.63734 7.17933 6.43064 7.51561C6.30792 7.71527 6.30312 7.95696 6.41784 8.16211C6.53162 8.36558 6.74692 8.492 6.97973 8.492ZM9.18863 6.52909C9.20931 6.53365 9.22993 6.53582 9.25026 6.53582C9.38141 6.53582 9.49956 6.44492 9.52891 6.31154C9.5628 6.15749 9.4654 6.00515 9.31137 5.97125C9.15822 5.93755 9.00152 5.8694 8.84563 5.76867C8.82554 5.75569 8.8215 5.73637 8.82163 5.72244C8.82177 5.70862 8.82616 5.68952 8.84626 5.67709C8.99081 5.5876 9.15258 5.51742 9.32709 5.4685C9.47895 5.42593 9.56755 5.26831 9.52499 5.11643C9.48242 4.96459 9.32482 4.87597 9.17292 4.91854C8.94678 4.98192 8.73571 5.07375 8.5456 5.19147C8.3629 5.30457 8.25258 5.501 8.25049 5.71691C8.24841 5.93298 8.355 6.13168 8.53565 6.24841C8.74898 6.38626 8.96867 6.48069 9.18863 6.52909ZM7.13708 6.24841C6.92375 6.38626 6.70405 6.48069 6.4841 6.52909C6.46344 6.53365 6.44277 6.53582 6.42247 6.5358C6.2913 6.5358 6.17317 6.4449 6.14381 6.31154C6.10993 6.15749 6.20733 6.00515 6.36135 5.97125C6.51451 5.93755 6.67121 5.8694 6.8271 5.76867C6.84719 5.75569 6.85123 5.73637 6.8511 5.72244C6.85096 5.70862 6.84657 5.68952 6.82648 5.67709C6.68192 5.5876 6.52015 5.51742 6.34563 5.4685C6.19378 5.42593 6.10517 5.26831 6.14774 5.11643C6.19032 4.96459 6.34792 4.876 6.4998 4.91854C6.72594 4.98192 6.93702 5.07375 7.12714 5.19147C7.30983 5.30457 7.42015 5.501 7.42223 5.71691C7.42432 5.93298 7.31773 6.13168 7.13708 6.24841Z" fill="#558FFF"/>
<path d="M7.83636 7.34967C7.41614 7.34967 7.10691 7.50612 6.91725 7.8147C6.90025 7.84235 6.90739 7.8673 6.91637 7.88336C6.92419 7.89736 6.94283 7.92083 6.97973 7.92083H8.69299C8.72989 7.92083 8.74852 7.89736 8.75634 7.88336C8.76534 7.8673 8.77248 7.84236 8.75546 7.81468C8.5658 7.50613 8.25658 7.34967 7.83636 7.34967Z" fill="#558FFF"/>
<mask id="mask0" mask-type="alpha" maskUnits="userSpaceOnUse" x="5" y="4" width="5" height="5">
<rect x="5.68024" y="4.60809" width="4.08382" height="4.0267" fill="#C4C4C4"/>
</mask>
<g mask="url(#mask0)">
<path d="M7.83636 10.0627C6.85995 10.0627 5.94199 9.68251 5.25155 8.9921C4.56115 8.30166 4.18091 7.3837 4.18091 6.40729C4.18091 5.43089 4.56115 4.51293 5.25155 3.82249C5.94199 3.13208 6.85995 2.75185 7.83636 2.75185C8.81276 2.75185 9.73072 3.13208 10.4212 3.82249C11.1116 4.51293 11.4918 5.43089 11.4918 6.40729C11.4918 7.3837 11.1116 8.30166 10.4212 8.9921C9.73072 9.68251 8.81276 10.0627 7.83636 10.0627ZM7.83636 3.32301C6.13567 3.32301 4.75207 4.70661 4.75207 6.40729C4.75207 8.10798 6.13567 9.49158 7.83636 9.49158C9.53704 9.49158 10.9206 8.10798 10.9206 6.40729C10.9206 4.70661 9.53704 3.32301 7.83636 3.32301ZM8.69299 8.49204H6.97973C6.74692 8.49204 6.53162 8.36563 6.41784 8.16215C6.30312 7.95701 6.30792 7.71532 6.43064 7.51565C6.63734 7.17938 7.04899 6.77855 7.83636 6.77855C8.62372 6.77855 9.03537 7.17938 9.24206 7.51564C9.36479 7.71532 9.36959 7.95701 9.25486 8.16215C9.14109 8.36563 8.92579 8.49204 8.69299 8.49204ZM7.83636 7.34972C7.41614 7.34972 7.10691 7.50617 6.91725 7.81474C6.90025 7.8424 6.90739 7.86735 6.91637 7.88341C6.92419 7.8974 6.94283 7.92088 6.97973 7.92088H8.69299C8.72989 7.92088 8.74852 7.8974 8.75634 7.88341C8.76534 7.86735 8.77248 7.8424 8.75546 7.81473C8.5658 7.50617 8.25658 7.34972 7.83636 7.34972ZM9.25026 6.53586C9.22993 6.53586 9.20931 6.53369 9.18863 6.52914C8.96867 6.48073 8.74898 6.3863 8.53565 6.24845C8.355 6.13172 8.24841 5.93303 8.25049 5.71696C8.25258 5.50104 8.3629 5.30462 8.5456 5.19152C8.73571 5.0738 8.94678 4.98197 9.17292 4.91858C9.32482 4.87602 9.48242 4.96463 9.52499 5.11648C9.56755 5.26835 9.47895 5.42598 9.32709 5.46854C9.15258 5.51746 8.99081 5.58765 8.84626 5.67713C8.82616 5.68957 8.82177 5.70866 8.82163 5.72248C8.8215 5.73642 8.82554 5.75574 8.84563 5.76872C9.00152 5.86944 9.15822 5.9376 9.31137 5.9713C9.4654 6.0052 9.5628 6.15754 9.52891 6.31158C9.49956 6.44496 9.38141 6.53586 9.25026 6.53586ZM6.4841 6.52914C6.70405 6.48073 6.92375 6.3863 7.13708 6.24845C7.31773 6.13172 7.42432 5.93303 7.42223 5.71696C7.42015 5.50104 7.30983 5.30462 7.12714 5.19152C6.93702 5.0738 6.72594 4.98197 6.4998 4.91858C6.34792 4.87605 6.19032 4.96463 6.14774 5.11648C6.10517 5.26835 6.19378 5.42598 6.34563 5.46854C6.52015 5.51746 6.68192 5.58765 6.82648 5.67713C6.84657 5.68957 6.85096 5.70866 6.8511 5.72248C6.85123 5.73642 6.84719 5.75574 6.8271 5.76872C6.67121 5.86944 6.51451 5.9376 6.36135 5.9713C6.20733 6.0052 6.10993 6.15754 6.14381 6.31158C6.17317 6.44495 6.2913 6.53585 6.42247 6.53585C6.44277 6.53586 6.46344 6.53369 6.4841 6.52914Z" fill="#E0E9FC"/>
</g>
</g>
<g clip-path="url(#clip1)">
<path d="M6.77416 3.95273V4.11575C6.77416 4.29589 6.62825 4.44179 6.44812 4.44179H3.75829C3.57815 4.44179 3.43225 4.29589 3.43225 4.11575V2.56707C3.43225 2.38693 3.57815 2.24103 3.75829 2.24103H6.44812C6.62825 2.24103 6.77416 2.38693 6.77416 2.56707V2.73009H6.93717C7.02716 2.73009 7.10019 2.80312 7.10019 2.89311V3.78971C7.10019 3.8797 7.02716 3.95273 6.93717 3.95273H6.77416Z" fill="#E0E9FC"/>
<path d="M6.44807 4.56405H3.75824C3.5111 4.56405 3.30994 4.36305 3.30994 4.11575V2.56706C3.30994 2.31976 3.5111 2.11876 3.75824 2.11876H6.44807C6.6952 2.11876 6.89637 2.31976 6.89637 2.56706V2.60782H6.93566C7.09297 2.60782 7.22094 2.73579 7.22094 2.8931V3.78971C7.22094 3.94702 7.09297 4.075 6.93566 4.075H6.89637V4.11575C6.89637 4.36305 6.6952 4.56405 6.44807 4.56405ZM3.75824 2.36329C3.64592 2.36329 3.55447 2.45474 3.55447 2.56706V4.11575C3.55447 4.22807 3.64592 4.31953 3.75824 4.31953H6.44807C6.56039 4.31953 6.65184 4.22807 6.65184 4.11575V3.95273C6.65184 3.88524 6.70661 3.83047 6.7741 3.83047H6.93566C6.95815 3.83047 6.97641 3.81221 6.97641 3.78971V2.8931C6.97641 2.87061 6.95815 2.85235 6.93566 2.85235H6.7741C6.70661 2.85235 6.65184 2.79757 6.65184 2.73008V2.56706C6.65184 2.45474 6.56039 2.36329 6.44807 2.36329H3.75824Z" fill="#558FFF"/>
<path d="M3.92128 4.075C3.85379 4.075 3.79901 4.02022 3.79901 3.95273V2.73008C3.79901 2.66259 3.85379 2.60782 3.92128 2.60782C3.98877 2.60782 4.04354 2.66259 4.04354 2.73008V3.95273C4.04354 4.02022 3.98877 4.075 3.92128 4.075Z" fill="#558FFF"/>
</g>
<defs>
<clipPath id="clip0">
<rect width="7.3109" height="7.3109" fill="white" transform="translate(4.18091 2.7518)"/>
</clipPath>
<clipPath id="clip1">
<rect width="3.91247" height="3.91247" fill="white" transform="translate(3.30994 1.46671)"/>
</clipPath>
</defs>
</svg>
