<svg width="50" height="13" viewBox="0 0 50 13" fill="none" xmlns="http://www.w3.org/2000/svg">
<rect x="0.579224" y="0.361618" width="48.5055" height="12.3469" rx="6.17343" fill="#E0E9FC"/>
<g clip-path="url(#clip0)">
<path d="M7.63467 3.00739C5.6896 3.00739 4.10699 4.58999 4.10699 6.53506C4.10699 8.48013 5.6896 10.0627 7.63467 10.0627C9.57974 10.0627 11.1623 8.48013 11.1623 6.53506C11.1623 4.58999 9.57974 3.00739 7.63467 3.00739ZM8.16382 5.47676L9.04574 4.81532C9.14275 4.74256 9.28077 4.76152 9.35441 4.85941C9.42717 4.95687 9.40733 5.09489 9.30987 5.16809L8.66343 5.65314L9.31032 6.1382C9.40777 6.2114 9.42761 6.34942 9.35485 6.44687C9.3112 6.50463 9.24461 6.53506 9.17803 6.53506C9.13217 6.53506 9.08543 6.52051 9.04574 6.49096L8.16382 5.82953C8.10826 5.78808 8.07563 5.72237 8.07563 5.65314C8.07563 5.58391 8.10826 5.51821 8.16382 5.47676ZM5.95902 5.16809C5.86157 5.09489 5.84173 4.95687 5.91493 4.85941C5.98813 4.76196 6.12615 4.74212 6.2236 4.81532L7.10552 5.47676C7.16108 5.51821 7.19371 5.58391 7.19371 5.65314C7.19371 5.72237 7.16108 5.78808 7.10552 5.82953L6.2236 6.49096C6.18391 6.52051 6.13761 6.53506 6.09131 6.53506C6.02429 6.53506 5.95814 6.50463 5.91493 6.44687C5.84173 6.34942 5.86157 6.2114 5.95902 6.1382L6.60591 5.65314L5.95902 5.16809ZM9.59562 8.17719C9.55681 8.25392 9.4792 8.2989 9.39851 8.2989C9.36544 8.2989 9.33192 8.2914 9.29973 8.27553L8.51659 7.88396L7.73344 8.27597C7.67127 8.30684 7.59807 8.30684 7.53634 8.27597L6.75275 7.88396L5.96961 8.27597C5.86069 8.33109 5.7284 8.28567 5.67372 8.17719C5.61904 8.06828 5.66358 7.93599 5.7725 7.88131L6.65442 7.44035C6.71659 7.40948 6.78979 7.40948 6.85153 7.44035L7.63467 7.83192L8.41781 7.43991C8.47999 7.40904 8.55319 7.40904 8.61492 7.43991L9.49684 7.88087C9.6062 7.93599 9.64985 8.06828 9.59562 8.17719Z" fill="#558FFF"/>
</g>
<path d="M17.3997 9.12547H18.3786L16.7184 4.50201H15.6403L13.9801 9.12547H14.9524L15.2567 8.24576H17.0955L17.3997 9.12547ZM16.8441 7.50495H15.508L16.1761 5.57355L16.8441 7.50495ZM22.022 4.50201V7.67692L19.9252 4.50201H18.9992V9.12547H19.9252V5.95718L22.022 9.12547H22.948V4.50201H22.022ZM27.0909 7.78937C27.0909 6.16223 24.723 6.67815 24.723 5.75213C24.723 5.37511 24.9942 5.19652 25.358 5.20975C25.7548 5.21637 25.9996 5.45449 26.0194 5.75875H27.038C26.9785 4.92533 26.3303 4.44248 25.3844 4.44248C24.432 4.44248 23.7573 4.94518 23.7573 5.77859C23.7507 7.45203 26.1319 6.85012 26.1319 7.8489C26.1319 8.17962 25.8739 8.41112 25.4373 8.41112C25.0074 8.41112 24.7627 8.16639 24.7362 7.79598H23.7441C23.7573 8.66908 24.4981 9.17177 25.4572 9.17177C26.5089 9.17177 27.0909 8.51695 27.0909 7.78937ZM27.8938 9.12547H28.8198V4.50863H27.8938V9.12547ZM34.2391 6.80382C34.2391 5.42141 33.194 4.44248 31.8777 4.44248C30.5747 4.44248 29.5098 5.42141 29.5098 6.80382C29.5098 8.19284 30.5747 9.17177 31.8777 9.17177C33.1874 9.17177 34.2391 8.19284 34.2391 6.80382ZM30.4623 6.80382C30.4623 5.86458 31.0377 5.2759 31.8777 5.2759C32.7112 5.2759 33.2866 5.86458 33.2866 6.80382C33.2866 7.74307 32.7112 8.34497 31.8777 8.34497C31.0377 8.34497 30.4623 7.74307 30.4623 6.80382ZM38.1558 7.78937C38.1558 6.16223 35.7879 6.67815 35.7879 5.75213C35.7879 5.37511 36.0591 5.19652 36.4229 5.20975C36.8197 5.21637 37.0645 5.45449 37.0843 5.75875H38.1029C38.0434 4.92533 37.3952 4.44248 36.4493 4.44248C35.4968 4.44248 34.8222 4.94518 34.8222 5.77859C34.8156 7.45203 37.1967 6.85012 37.1967 7.8489C37.1967 8.17962 36.9388 8.41112 36.5022 8.41112C36.0723 8.41112 35.8276 8.16639 35.8011 7.79598H34.809C34.8222 8.66908 35.563 9.17177 36.5221 9.17177C37.5738 9.17177 38.1558 8.51695 38.1558 7.78937ZM43.4631 6.80382C43.4631 5.42141 42.418 4.44248 41.1017 4.44248C39.7987 4.44248 38.7338 5.42141 38.7338 6.80382C38.7338 8.19284 39.7987 9.17177 41.1017 9.17177C42.4114 9.17177 43.4631 8.19284 43.4631 6.80382ZM39.6862 6.80382C39.6862 5.86458 40.2617 5.2759 41.1017 5.2759C41.9351 5.2759 42.5106 5.86458 42.5106 6.80382C42.5106 7.74307 41.9351 8.34497 41.1017 8.34497C40.2617 8.34497 39.6862 7.74307 39.6862 6.80382Z" fill="#558FFF"/>
<defs>
<clipPath id="clip0">
<rect width="7.05535" height="7.05535" fill="white" transform="translate(4.10699 3.00739)"/>
</clipPath>
</defs>
</svg>
